<?xml version="1.0" standalone="no"?>
<!DOCTYPE svg PUBLIC "-//W3C//DTD SVG 1.1//EN" "http://www.w3.org/Graphics/SVG/1.1/DTD/svg11.dtd" >
<svg xmlns="http://www.w3.org/2000/svg" xmlns:xlink="http://www.w3.org/1999/xlink" version="1.1" viewBox="-10 0 1010 1000">
  <g transform="matrix(1 0 0 -1 0 800)">
   <path fill="currentColor"
d="M868 300q59 -68 78 -130t-6 -108q-41 -75 -173 -75q-12 0 -40 2q-23 1 -45 6q-32 -91 -80 -143t-103 -52t-103 52t-79 143q-48 -8 -86 -8q-132 0 -172 75q-25 48 -6 109.5t77 128.5q-122 145 -71 239q27 49 95 66t163 1q31 91 79 142.5t103 51.5t102.5 -51.5t79.5 -142.5
q48 8 86 8q132 0 173 -75q51 -95 -72 -239zM591 132q55 30 95 58q6 70 6 111q0 3 -0.5 9t-0.5 9v5q-10 22 -10 43q0 18 6 33v3q-1 3 -1 8q-51 34 -95 58q-36 20 -92 44q-50 -21 -92 -44q-56 -31 -94 -58q-6 -52 -6 -110q0 -59 6 -111q38 -27 94 -58q36 -20 92 -44
q50 21 92 44zM679 142q-31 -21 -71 -42q-10 -5 -61 -31q57 -22 109 -32q16 51 23 105zM452 69q-26 11 -62 31q-33 17 -71 42q8 -53 23 -105q61 14 110 32zM273 218q-3 40 -3 82t3 83q-51 -39 -93 -83q45 -45 93 -82zM319 459q31 21 71 42q10 5 61 31q-47 18 -109 32
q-15 -52 -23 -105zM776 308q24 0 41.5 17t17.5 42q0 24 -17.5 41t-41.5 17t-41.5 -17t-17.5 -41q0 -25 17.5 -42t41.5 -17zM547 532q25 -11 61 -31q33 -17 71 -42q-11 65 -23 105q-62 -14 -109 -32zM728 285q0 -34 -3 -67q23 18 65 55q-5 -1 -14 -1q-25 0 -48 13zM767 577
q-35 0 -74 -6q17 -61 26 -128q25 19 57 19q40 0 67.5 -28t27.5 -67v-3q69 98 36 158q-30 55 -140 55zM499 764q-42 0 -80 -44t-66 -121q74 -16 146 -46q80 32 146 46q-28 77 -66.5 121t-79.5 44zM91 522q-39 -73 64 -194q59 59 123 104q9 74 27 139q-173 26 -214 -49z
M231 24q35 0 74 6q-18 62 -27 139q-69 49 -123 104q-103 -121 -64 -194q30 -55 140 -55zM499 -163q43 0 80.5 44t65.5 121q-66 14 -146 46q-80 -32 -146 -46q28 -77 66 -121t80 -44zM907 79q39 72 -64 194q-57 -59 -123 -104q-9 -77 -27 -139q11 -2 37 -4q68 -6 114.5 8
t62.5 45z" />
  </g>

</svg>
