<?xml version="1.0" standalone="no"?>
<!DOCTYPE svg PUBLIC "-//W3C//DTD SVG 1.1//EN" "http://www.w3.org/Graphics/SVG/1.1/DTD/svg11.dtd" >
<svg xmlns="http://www.w3.org/2000/svg" xmlns:xlink="http://www.w3.org/1999/xlink" version="1.1" viewBox="-10 0 1020 1000">
  <g transform="matrix(1 0 0 -1 0 800)">
   <path fill="currentColor"
d="M324 -1h-84v-84h-42v84h-84v42h84v84h42v-84h84v-42zM500 800q135 0 250.5 -67t182.5 -182t67 -251q0 -206 -147 -353t-353 -147q-84 0 -171 30q-53 -30 -110 -30q-91 0 -155 64.5t-64 155.5q0 58 29 110q-29 84 -29 170q0 136 67 251t182 182t251 67zM20 20
q0 -82 58.5 -140.5t140.5 -58.5q53 0 105 30q21 13 37 31l5 5q7 7 10 11q1 1 3 3.5t3 4.5q2 5 7 11q0 1 5 8q6 12 9 19q1 2 3 8q1 3 2.5 7t1.5 6q2 6 2 9l3 15q1 3 1 8q2 16 2 23q0 82 -58 140.5t-141 58.5q-7 0 -23 -2q-5 0 -8 -1q-2 0 -5 -0.5t-5.5 -1t-4.5 -1.5
q-3 0 -9 -2q-2 -1 -6.5 -2t-6.5 -2q-6 -2 -8 -3q-7 -3 -19 -9q-7 -5 -8 -5q-2 -2 -5.5 -4t-5.5 -4q-1 0 -8 -5q-2 -2 -6 -5.5t-6 -4.5q-1 -1 -2 -2.5t-2 -2.5q-18 -16 -31 -37q-30 -52 -30 -105zM500 -179q97 0 186 38t153 102t102 153t38 186q0 98 -38 186.5t-102 153
t-153 102.5t-186 38q-130 0 -240.5 -64.5t-175 -175t-64.5 -240.5q0 -76 24 -148v1l1 1q8 10 13 14q2 4 4 5l12 12q8 6 12 10q1 0 11 8q8 4 11 7q2 0 5 2t4 2l12 6q2 0 5 2t4 2q4 2 12 4q3 2 11 4q2 0 5.5 1t5.5 2t6.5 1t7.5 1t9 1q16 2 24 2q55 0 102 -25q44 51 105 71
q34 -20 74 -20q39 0 73 20q71 -24 116 -85t45 -138h-299q4 -28 4 -43q0 -8 -2 -24q0 -6 -1 -9q0 -3 -1 -7t-1 -7q0 -2 -1 -5.5t-2 -5.5q-2 -8 -4 -11q-2 -8 -4 -12q0 -1 -1.5 -4.5t-2.5 -5.5t-3 -5.5t-3 -5.5q-1 -3 -5 -9q-1 -2 -3 -5.5t-3 -5.5l-9 -12q-3 -4 -9 -10
q-4 -5 -12 -13l-4 -4q-5 -5 -15 -13q-1 0 -1 -0.5t-1 -0.5q72 -24 149 -24zM619 418q0 -50 -34.5 -85t-84.5 -35t-85 35t-35 85t35 85t85 35q49 0 84 -35t35 -85v0z" />
  </g>

</svg>
