<?xml version="1.0" standalone="no"?>
<!DOCTYPE svg PUBLIC "-//W3C//DTD SVG 1.1//EN" "http://www.w3.org/Graphics/SVG/1.1/DTD/svg11.dtd" >
<svg xmlns="http://www.w3.org/2000/svg" xmlns:xlink="http://www.w3.org/1999/xlink" version="1.1" viewBox="-10 0 1020 1000">
  <g transform="matrix(1 0 0 -1 0 800)">
   <path fill="currentColor"
d="M427 486q0 -48 -34 -81.5t-81 -33.5t-81 33.5t-34 81.5q0 47 34 81t81 34t81 -34t34 -81zM428 301q0 -17 -12 -29.5t-29 -12.5h-346q-17 0 -29 12.5t-12 29.5t12 29t29 12h346q17 0 29 -12t12 -29zM1000 302l-85 -85v68h-59h-12q51 -147 -11 -245q-24 -35 -55 -55
q-2 -17 -15.5 -28.5t-30.5 -11.5q-20 0 -34 13.5t-14 33.5q0 17 11 30l-208 237h-11v-263q0 -18 -13 -30.5t-30 -12.5h-205q-18 0 -30.5 12.5t-12.5 30.5v242h202q26 0 44.5 18.5t18.5 44.5q0 23 -16 41h2h51l207 239q-10 13 -10 28q0 20 14 33.5t34 13.5q18 0 31.5 -12
t15.5 -30q33 -24 54 -56q62 -96 11 -244h12h59v73zM707 569l-197 -227h296q39 119 -9 193q-15 24 -35 38q-13 -11 -30 -11q-15 0 -25 7zM476 300q0 1 -1 2zM469 322v1v-1zM464 328v1v-1zM467 325q0 1 -1 1zM454 337zM461 331v1v-1zM458 334l-1 1zM764 27q15 12 27.5 29
t23 44.5t8.5 68.5t-18 90h-294l197 -226q12 7 24 7q17 0 32 -13z" />
  </g>

</svg>
