<?xml version="1.0" standalone="no"?>
<!DOCTYPE svg PUBLIC "-//W3C//DTD SVG 1.1//EN" "http://www.w3.org/Graphics/SVG/1.1/DTD/svg11.dtd" >
<svg xmlns="http://www.w3.org/2000/svg" xmlns:xlink="http://www.w3.org/1999/xlink" version="1.1" viewBox="-10 0 1010 1000">
  <g transform="matrix(1 0 0 -1 0 800)">
   <path fill="currentColor"
d="M590 722q29 35 65 53.5t57 20.5l21 1q2 -9 4 -25t-8.5 -57.5t-39.5 -73.5q-29 -33 -65 -50.5t-57 -18.5l-21 -1q-2 8 -4 22.5t8.5 54t39.5 74.5zM877 -76q-9 -11 -26.5 -34t-22.5 -29t-17.5 -18.5t-22 -17t-25 -11t-36.5 -12.5q-25 0 -45.5 11t-48 22.5t-68.5 11.5
q-36 3 -85.5 -21t-79.5 -22q-41 2 -76 29q-40 31 -83 93q-53 80 -79.5 159.5t-30 132t8 106t20 71.5t19.5 39q10 17 24 34.5t39.5 40t63 36t79.5 11.5q51 -2 79.5 -14t45.5 -22.5t42 -10.5q23 -1 47.5 13.5t57.5 27t80 9.5q41 2 88.5 -22t74.5 -49l27 -26q-5 -2 -12.5 -6
t-26.5 -19.5t-34 -35.5t-27 -56t-13 -79q0 -43 13.5 -79t33 -58t39 -37.5t33.5 -21.5l14 -6q-6 -33 -70 -140z" />
  </g>

</svg>
