<?xml version="1.0" standalone="no"?>
<!DOCTYPE svg PUBLIC "-//W3C//DTD SVG 1.1//EN" "http://www.w3.org/Graphics/SVG/1.1/DTD/svg11.dtd" >
<svg xmlns="http://www.w3.org/2000/svg" xmlns:xlink="http://www.w3.org/1999/xlink" version="1.1" viewBox="-10 0 1020 1000">
  <g transform="matrix(1 0 0 -1 0 800)">
   <path fill="currentColor"
d="M1000 607l-192 -192l-132 27l-192 -192q-7 -7 -16 -7q-8 0 -15 7q-16 16 0 32l191 192l-27 134l191 192l25 -137q15 7 26 -4t4 -27zM660 395l23 23l37 -8q38 -68 38 -146q0 -125 -87 -212.5t-211 -87.5t-211 87.5t-87 212.5t87 212.5t211 87.5q82 0 151 -41l9 -41
l-22 -22q-61 44 -138 44q-98 0 -168 -70.5t-70 -169.5t70 -169.5t168 -70.5t168 70.5t70 169.5q0 71 -38 131zM534 264v4l49 49q11 -25 11 -53q0 -56 -39.5 -95.5t-94.5 -39.5t-94.5 39.5t-39.5 95.5t39 95.5t95 39.5q30 0 62 -15l-46 -47q-10 2 -16 2q-31 0 -52.5 -22
t-21.5 -53t21.5 -53t52.5 -22t52.5 22t21.5 53zM834 409l46 46q40 -89 40 -191q0 -192 -135 -328t-325 -136t-325 136t-135 328t135 328t325 136q104 0 199 -46l-46 -45q-73 31 -153 31q-166 0 -283.5 -118.5t-117.5 -285.5t117.5 -285t283.5 -118t283.5 118t117.5 285
q0 74 -27 145z" />
  </g>

</svg>
