<?xml version="1.0" standalone="no"?>
<!DOCTYPE svg PUBLIC "-//W3C//DTD SVG 1.1//EN" "http://www.w3.org/Graphics/SVG/1.1/DTD/svg11.dtd" >
<svg xmlns="http://www.w3.org/2000/svg" xmlns:xlink="http://www.w3.org/1999/xlink" version="1.1" viewBox="-10 0 1020 1000">
  <g transform="matrix(1 0 0 -1 0 800)">
   <path fill="currentColor"
d="M500 295q60 0 102.5 -43t42.5 -103q0 -61 -42.5 -103.5t-102.5 -42.5q-61 0 -103.5 42.5t-42.5 103.5q0 60 42.5 103t103.5 43zM500 66q34 0 58 24.5t24 58.5t-24 58t-58 24t-58.5 -24t-24.5 -58q0 -35 24.5 -59t58.5 -24zM500 800q135 0 250.5 -67t182.5 -182t67 -251
q0 -101 -40 -193.5t-107 -159.5t-159.5 -107t-194.5 -40q-135 0 -250 67t-182 182.5t-67 250.5q0 136 67 251t182 182t251 67zM291 459q0 23 17 39.5t40 16.5t39.5 -16.5t16.5 -39.5h38q0 39 -27.5 66.5t-66.5 27.5q-40 0 -67.5 -27.5t-27.5 -66.5h38zM500 -35q76 0 130 54
t54 130t-54 130t-130 54t-130.5 -54t-54.5 -130t54 -130t131 -54zM708 459h38q0 39 -27.5 66.5t-67.5 27.5q-39 0 -66.5 -27.5t-27.5 -66.5h38q0 23 16.5 39.5t39.5 16.5t40 -16.5t17 -39.5z" />
  </g>

</svg>
