<?xml version="1.0" standalone="no"?>
<!DOCTYPE svg PUBLIC "-//W3C//DTD SVG 1.1//EN" "http://www.w3.org/Graphics/SVG/1.1/DTD/svg11.dtd" >
<svg xmlns="http://www.w3.org/2000/svg" xmlns:xlink="http://www.w3.org/1999/xlink" version="1.1" viewBox="-10 0 1010 1000">
  <g transform="matrix(1 0 0 -1 0 800)">
   <path fill="currentColor"
d="M823 435q33 0 56 -23t23 -56v-398q0 -33 -23 -56t-56 -23h-168v-34q0 -19 -13 -32t-32 -13h-468q-18 0 -31 13t-13 32v652h557v-62h168zM289 -69v442h-71v-442h71zM413 -69v442h-71v-442h71zM535 -69v442h-70v-442h70zM778 3v308h-123v-308h123zM345 739q1 2 3.5 6.5
t14 15t27.5 18.5t45 14.5t65 6.5q50 0 84 -25t47.5 -61t20 -71.5t5.5 -60.5l-1 -25h-558q0 43 13.5 76.5t35.5 52.5t48.5 31.5t52.5 16.5t48 5.5t36 0.5z" />
  </g>

</svg>
