<?xml version="1.0" standalone="no"?>
<!DOCTYPE svg PUBLIC "-//W3C//DTD SVG 1.1//EN" "http://www.w3.org/Graphics/SVG/1.1/DTD/svg11.dtd" >
<svg xmlns="http://www.w3.org/2000/svg" xmlns:xlink="http://www.w3.org/1999/xlink" version="1.1" viewBox="-10 0 1010 1000">
  <g transform="matrix(1 0 0 -1 0 800)">
   <path fill="currentColor"
d="M359 678q-7 0 -12.5 5t-5.5 13q0 7 5.5 12t12.5 5h337q16 0 32 -7.5t24 -14.5l8 -7l-64 -6h-337zM528 129h-13q-63 0 -109 17q26 57 32 104h86h7h86q6 -48 33 -104q-48 -17 -110 -17h-12zM474 745v2q0 22 15.5 37.5t37.5 15.5q23 0 38.5 -15.5t15.5 -37.5v-2
q39 -6 61 -21h-229q22 15 61 21zM238 535q0 50 34 86t84 39q1 3 1 8h329h1l10 1q10 -58 6 -115.5t-18 -110.5t-29 -93.5t-27 -65.5l-12 -24h-86h-7h-86q-32 60 -57 143q-5 -1 -17 -1q-52 0 -89 37t-37 89v7zM371 652q-4 -44 -4 -80t9 -78.5t17 -73t20.5 -63.5t20 -49.5
t14.5 -31.5h76h7h76q7 15 14.5 31.5t20 49.5t20.5 63.5t17 73t9 78.5t-4 80h-313zM270 535v-7q0 -39 27.5 -66.5t66.5 -27.5h8q-27 105 -20 194q-35 -5 -58.5 -31t-23.5 -62zM597 292h-139q-56 118 -70 232h279q-14 -114 -70 -232zM389 113l12 24q49 -19 114 -19q11 0 13 1
l4 -1h8q65 0 114 19q8 -16 13 -24q20 -37 32 -97t15 -101l2 -41q-35 -69 -188 -69q-154 0 -189 69q1 17 3 45t14.5 92.5t32.5 101.5zM461 -17q0 -28 20 -47.5t48 -19.5t48 19.5t20 47.5t-20 48t-48 20t-48 -20t-20 -48zM529 29q24 0 38 -19l-80 -46q-4 8 -4 19
q0 19 13.5 32.5t32.5 13.5zM575 -17q0 -19 -13.5 -32.5t-32.5 -13.5q-23 0 -36 18l79 45q3 -8 3 -17z" />
  </g>

</svg>
