<?xml version="1.0" standalone="no"?>
<!DOCTYPE svg PUBLIC "-//W3C//DTD SVG 1.1//EN" "http://www.w3.org/Graphics/SVG/1.1/DTD/svg11.dtd" >
<svg xmlns="http://www.w3.org/2000/svg" xmlns:xlink="http://www.w3.org/1999/xlink" version="1.1" viewBox="-10 0 1010 1000">
  <g transform="matrix(1 0 0 -1 0 800)">
   <path fill="currentColor"
d="M638 521q-33 -146 -96 -205q69 -45 113.5 -168t44.5 -278v-6q-80 -22 -155 -30t-131.5 -1.5t-93 15t-66.5 20.5v2q0 157 44.5 280.5t114.5 166.5q-49 47 -81 152.5t-36 239.5l-51 50h61q19 18 66 29.5t106 11.5q63 0 112 -13t65 -33q1 0 3.5 -1t3.5 -2v-1v-11v-1v-1
q0 -3 -0.5 -9.5t-0.5 -9.5h93l-41 -197h-75zM660 689q-5 -83 -17 -142l10 4h36l29 138h-42h-16zM477 -87q25 0 42.5 17.5t17.5 42.5t-17.5 43t-42.5 18t-43 -18t-18 -43t18 -42.5t43 -17.5zM432 327q20 -12 43 -12.5t36 5.5l13 5q47 39 80 142t37 242q-51 -34 -163 -34
q-111 0 -162 34q4 -139 37 -241t79 -141zM520 358q0 -13 -42 -13q-41 0 -41 13q0 12 41 12q42 0 42 -12z" />
  </g>

</svg>
