<?xml version="1.0" standalone="no"?>
<!DOCTYPE svg PUBLIC "-//W3C//DTD SVG 1.1//EN" "http://www.w3.org/Graphics/SVG/1.1/DTD/svg11.dtd" >
<svg xmlns="http://www.w3.org/2000/svg" xmlns:xlink="http://www.w3.org/1999/xlink" version="1.1" viewBox="-10 0 1010 1000">
  <g transform="matrix(1 0 0 -1 0 800)">
   <path fill="currentColor"
d="M762 740q8 0 13 -5t5 -13l-27 -307q0 -7 -5.5 -12.5t-12.5 -5.5h-105l-10 -223q0 -8 -5 -13t-13 -5h-282q-8 0 -13 5t-5 13l-25 565l-54 44v17h70h4h332q7 0 12.5 -5t5.5 -13l-2 -42h117zM593 183l27 590h-318l27 -590h264zM717 433l27 271h-100l-12 -271h85zM347 294
h228l-4 -88h-220zM596 751l-2 -62h-266l-2 62h270zM688 141q7 0 12.5 -5.5t5.5 -13.5v-266q0 -8 -5 -13t-13 -5h-32q1 -2 1 -7q0 -13 -9 -22t-22 -9t-22 9t-9 22q0 2 0.5 4t0.5 3h-268v-7q0 -13 -9 -22t-22 -9t-21.5 9t-8.5 22v7h-31q-8 0 -13 5t-5 13v266q0 8 5.5 13.5
t12.5 5.5h452zM670 -126v230h-416v-230h416zM510 -40l-85 72q16 14 37 14q23 0 39.5 -16.5t16.5 -40.5q0 -15 -8 -29zM405 -11q0 16 8 29l86 -72q-17 -14 -37 -14q-23 0 -40 17t-17 40zM569 -11q0 15 15 15t15 -15q0 -6 -4.5 -10.5t-10.5 -4.5t-10.5 4.5t-4.5 10.5zM325 -11
q0 15 15 15t15 -15q0 -6 -4.5 -10.5t-10.5 -4.5q-15 0 -15 15z" />
  </g>

</svg>
