<?xml version="1.0" standalone="no"?>
<!DOCTYPE svg PUBLIC "-//W3C//DTD SVG 1.1//EN" "http://www.w3.org/Graphics/SVG/1.1/DTD/svg11.dtd" >
<svg xmlns="http://www.w3.org/2000/svg" xmlns:xlink="http://www.w3.org/1999/xlink" version="1.1" viewBox="-10 0 1010 1000">
  <g transform="matrix(1 0 0 -1 0 800)">
   <path fill="currentColor"
d="M420 147q16 1 35 -7t30 -16l11 -9q-10 -48 -46 -81q-26 -24 -44.5 -60t-24.5 -60l-6 -24l-78 15l27 134q14 8 38 35t41 50zM188 366q36 -35 65 -75t24 -61q-56 18 -84 33q-26 15 -103 -7q-14 -4 -33.5 10.5t-30.5 43t1 69.5q13 37 37.5 68.5t44 45.5t27.5 14
q5 0 10 -26.5t15.5 -62.5t26.5 -52zM279 190l113 -33q-3 -5 -9.5 -14t-25 -31.5t-37.5 -40t-45.5 -31.5t-50.5 -14q-59 0 -94 66.5t-25 120.5q4 18 17.5 23.5t34 0t40.5 -13.5t44.5 -18.5t37.5 -14.5zM282 308q-4 5 -25 21q-49 37 -46 50q2 5 8 8q37 2 95 22q27 9 39 10
t30.5 -4.5t34.5 -7.5q22 -4 42.5 -4t41 2t29.5 2q47 0 81 -33q93 -93 85 -184q-3 -38 -37.5 -55t-67.5 -15l-33 2q-66 35 -88 48q-10 6 -64.5 22t-71.5 26q-19 10 -34.5 48t-18.5 42zM153 548q5 6 15 15.5t45 33.5t74 43t101 34t128 15q-18 -35 15 -98q44 -85 33 -139
q-11 -3 -28 -6t-64 -9t-69 2q-28 6 -76 -0.5t-82 -15.5l-34 -9q-12 61 -38 86q-11 11 -16 23t-5 19zM725 263q-7 13 -18 33.5t-43.5 64t-61.5 63.5v89q0 16 -19 48.5t-33.5 65t-5.5 54.5q8 1 22 2t54.5 -2t78 -13t85.5 -38t85 -70q63 -79 56.5 -152t-44.5 -124t-73 -51
q-28 0 -49 7.5t-27 15.5l-7 7v0z" />
  </g>

</svg>
