<?xml version="1.0" standalone="no"?>
<!DOCTYPE svg PUBLIC "-//W3C//DTD SVG 1.1//EN" "http://www.w3.org/Graphics/SVG/1.1/DTD/svg11.dtd" >
<svg xmlns="http://www.w3.org/2000/svg" xmlns:xlink="http://www.w3.org/1999/xlink" version="1.1" viewBox="-10 0 1010 1000">
  <g transform="matrix(1 0 0 -1 0 800)">
   <path fill="currentColor"
d="M608 800q111 0 204 -117h-408q93 117 204 117zM233 -14q109 -95 377 -95q266 0 373 94q-2 -26 -6 -76q-3 -4 -9 -11.5t-34 -26.5t-65 -33t-106 -26t-154 -12q-84 0 -153.5 11t-107.5 27t-64.5 32.5t-35.5 27.5l-9 11q-2 25 -6 77zM984 10q-12 -13 -33 -27t-63 -33
t-114.5 -30.5t-163.5 -11.5t-164 12t-116 31t-64 32.5t-34 26.5q0 9 -0.5 25.5t-0.5 25.5q0 184 43 343t117 262h434q74 -103 117 -262t43 -343q0 -9 -0.5 -25.5t-0.5 -25.5zM927 490q-38 103 -86 172h136q0 -12 -1 -31t-13.5 -65t-35.5 -76zM220 96q-110 74 -155.5 195.5
t-21.5 231.5q15 68 53.5 107.5t90.5 39.5q94 0 170 -36q-22 -38 -32 -59q-62 27 -138 27q-29 0 -48.5 -27.5t-28.5 -66.5q-17 -74 10 -168.5t105 -161.5q-4 -54 -5 -82z" />
  </g>

</svg>
