<?xml version="1.0" standalone="no"?>
<!DOCTYPE svg PUBLIC "-//W3C//DTD SVG 1.1//EN" "http://www.w3.org/Graphics/SVG/1.1/DTD/svg11.dtd" >
<svg xmlns="http://www.w3.org/2000/svg" xmlns:xlink="http://www.w3.org/1999/xlink" version="1.1" viewBox="-10 0 1020 1000">
  <g transform="matrix(1 0 0 -1 0 800)">
   <path fill="currentColor"
d="M968 401q13 0 22.5 -9.5t9.5 -22.5t-9.5 -22.5t-22.5 -9.5h-744q-14 0 -23 9.5t-9 22.5t9.5 22.5t22.5 9.5h744zM707 419q40 18 71 45t49 55.5t24.5 41.5t10.5 25q42 -36 70 -89l-1 -1h-2q-4 -4 -21 -15.5t-59.5 -31.5t-87.5 -30h-54zM961 419h-150q34 12 66 28.5
t45 25.5t16 12q15 -29 23 -66zM660 419q29 26 50 60.5t30.5 60t14.5 55.5t5 37.5v15.5v1q53 -21 92 -54q-2 -2 -3 -4q0 -2 -5 -14t-18 -34t-32 -44.5t-52 -44.5t-72 -35h-10zM747 648q0 -9 -0.5 -17t-5.5 -38t-15 -56t-33 -59.5t-54 -58.5h-12v257q62 -1 122 -23
q-2 -2 -2 -5zM224 319h744q4 0 12 2q-8 -89 -85 -158t-192 -93v-22q23 -2 38.5 -19.5t15.5 -41.5q0 -25 -17.5 -43t-42.5 -18t-42.5 18t-17.5 43q0 22 13.5 38.5t34.5 21.5v20q-46 -8 -88 -8q-44 0 -92 8v-20q22 -3 36.5 -20t14.5 -40q0 -25 -17.5 -43t-42.5 -18t-43 18
t-18 43q0 23 15 40.5t38 20.5v23q-114 25 -190 93t-84 156q3 -1 10 -1zM525 -13q0 13 -8.5 21.5t-20.5 8.5q-13 0 -21.5 -8.5t-8.5 -21.5q0 -12 8.5 -20.5t21.5 -8.5q12 0 20.5 8.5t8.5 20.5zM727 -13q0 13 -8.5 21.5t-21.5 8.5q-12 0 -20.5 -8.5t-8.5 -21.5
q0 -12 8.5 -20.5t20.5 -8.5q13 0 21.5 8.5t8.5 20.5zM224 419q-12 0 -26 -7l-46 105h-126q-11 0 -18.5 8t-7.5 19t7.5 19t18.5 8h143q18 0 24 -16l61 -136h-30z" />
  </g>

</svg>
