<?xml version="1.0" standalone="no"?>
<!DOCTYPE svg PUBLIC "-//W3C//DTD SVG 1.1//EN" "http://www.w3.org/Graphics/SVG/1.1/DTD/svg11.dtd" >
<svg xmlns="http://www.w3.org/2000/svg" xmlns:xlink="http://www.w3.org/1999/xlink" version="1.1" viewBox="-10 0 1020 1000">
  <g transform="matrix(1 0 0 -1 0 800)">
   <path fill="currentColor"
d="M500 800q101 0 193.5 -39.5t160 -106.5t107 -159.5t39.5 -194.5q0 -206 -147 -353t-353 -147q-102 0 -194.5 39.5t-159.5 107t-106.5 160t-39.5 193.5q0 102 39.5 194.5t106.5 159.5t159.5 106.5t194.5 39.5zM500 764q-194 0 -328 -136q-136 -134 -136 -328
q0 -192 136 -326q134 -136 328 -136q192 0 326 136q136 134 136 326q0 194 -136 328q-134 136 -326 136zM606 10q20 -18 3 -37q-7 -11 -20 -11q-10 0 -17 8q-4 2 -13.5 13.5t-21.5 43t-12 69.5v98q-7 3 -14 3q-20 0 -44 -18q-17 -55 -17 -79q0 -12 1.5 -27t4 -28t5 -24
t3.5 -17l2 -7q3 -10 -2.5 -20t-16.5 -14q-1 0 -3.5 -0.5t-3.5 -0.5q-20 0 -25 21q-1 2 -5.5 19t-9 46t-4.5 52q0 41 45 165l2 4v81h-1q-26 -4 -45 -4q-33 0 -45 10q-11 9 -13 23q-1 35 38 68q8 8 19 2l11 9l-1 2q0 15 13 15q14 0 14 -15q0 -13 -14 -13l-1 1h-3l-11 -10
q2 -9 -5 -16q-25 -21 -27 -40q11 -6 55 -1q42 26 84 26q18 0 34.5 21.5t26.5 46.5v3q0 12 -3 26t-8 26.5t-11 24.5t-12 22.5t-11 18t-8 12.5l-3 4q-11 13 3 24q12 10 23 -4q5 -5 18.5 -25.5t29.5 -59t16 -69.5q0 -48 -28 -88v-233v-3v-58q0 -27 7 -48.5t14 -29.5zM540 485
q0 -23 -16 -39t-39 -16t-38.5 16t-15.5 39q0 22 16 38t38 16q23 0 39 -16t16 -38zM609 451l16 -15q-7 -2 -11 -6l-6 -7l-4 5q4 17 5 23zM566 476l-3 -6l-7 7q-6 2 -10 4v4q0 11 -5 23l23 -12q2 -6 2 -18v-2zM305 304q2 0 13.5 6t16.5 1q5 -6 -1 -16t-17 -15q-28 -15 -30 -17
q-3 -3 -11 -26.5t-19 -34.5q-33 -33 -72 6q-8 8 -10 11q-6 -5 -7 -4t3 7q-8 7 -11 11q-39 39 -10 67q6 9 25 18l43 -42q10 -8 19 -8q12 0 20 8q8 10 8 20q0 12 -9 20l-32 31q0 1 2 4t2 4l4 12q1 1 2 3t5 6.5t8 7.5t10 2.5t11 -5.5q0 -1 1 -2q2 -2 2 -3q2 1 2.5 1.5t1.5 -0.5
q2 0 -2 -4q5 -7 12 -25l50 49l-3 -18q0 -1 3 -10l-45 -44q2 -15 5 -18.5t10 -2.5zM636 29q-23 5 -20 29l20 114q1 3 3 7l50 90q1 0 2 -1q10 -3 16 -9q4 -6 7 -18q11 -31 23 -44q5 -5 11 -8l-4 -9l91 -111q7 -8 5.5 -18t-9.5 -17q-8 -5 -16 -5q-11 0 -19 9l-99 123
q-4 4 -6 11l-6 -12l-21 -111q-1 -9 -8.5 -14.5t-15.5 -5.5h-4zM664 311q5 3 9 2t10.5 -5t10.5 -4q7 -2 10 2t4 19l-74 73l7 7q3 3 5 10l67 -67q7 17 12 25q-4 4 -2 4q0 1 4 -1q1 2 4 5q9 7 17 4t13 -11l5 -7l4 -12q3 -4 4 -8l-32 -31q-7 -7 -9 -20q0 -10 8 -20q8 -8 20 -8
q11 0 19 8l43 42q18 -8 25 -18q27 -26 -9 -67l-3 -3t-1.5 -1t-2 -2t-5.5 -5q5 -5 3 -7q0 -2 -6 4l-11 -11q-39 -39 -72 -6q-11 11 -19 34.5t-11 26.5q-1 2 -30 17q-11 6 -17 15.5t0 15.5zM612 386q-6 0 -10 3q-12 11 -1 22l15 17q12 12 22 1q11 -11 1 -21l-15 -17
q-4 -5 -12 -5zM742 443l-73 -42l-23 22l85 50v0l67 39q4 2 10 2h1q18 5 27 -14l36 -111q5 -12 -5 -22l-37 -34q0 -1 -1 -4.5t-2 -5.5q-3 0 -5 2l-46 -45q-8 -6 -15 -6q-9 0 -16 7q-6 6 -5.5 15.5t6.5 15.5l36 34q-3 4 -6 12l-5 11v1q-10 21 -27 22q3 28 -2 51zM753 587
q19 0 31.5 -13t12.5 -31q0 -19 -12.5 -31.5t-31.5 -12.5q-18 0 -31 12.5t-13 31.5q0 18 13 31t31 13zM540 512q-2 3 0 5q3 2 5 0t0 -5q-2 -2 -5 0zM550 507q-2 2 0 4q1 1 2.5 1t2.5 -1q2 -2 0 -4q-1 -1 -2.5 -1t-2.5 1zM560 503q-2 2 0 4t5 0q2 -2 0 -4q-3 -3 -5 0zM382 58
q5 -23 -19 -29h-5q-8 0 -15.5 5.5t-8.5 14.5l-20 111l-7 12q-1 -6 -5 -11l-100 -123q-8 -9 -19 -9q-8 0 -15 5q-20 15 -5 35l92 111l-4 9q6 4 10 8q11 11 23 44q3 12 7 18q5 5 16 9l2 1l50 -90q2 -4 3 -7zM329 401l-72 42q-6 -26 -3 -51q-17 -1 -27 -22v-1l-5 -11
q-3 -8 -6 -12l36 -34q7 -6 7 -15.5t-6 -15.5q-6 -7 -16 -7q-8 0 -14 6l-47 45q-2 -2 -4 -2q-1 2 -4 10l-37 34q-10 10 -5 22l36 111q9 19 27 14h1q7 0 10 -2l67 -39v0l76 -45zM289 543q0 -19 -13 -31.5t-31 -12.5t-31 12.5t-13 31.5q0 18 13 31t31 13t31 -13t13 -31z
M476 522q-2 -3 -5 0q-2 2 0 4q3 2 5 0t0 -4v0z" />
  </g>

</svg>
