<?xml version="1.0" standalone="no"?>
<!DOCTYPE svg PUBLIC "-//W3C//DTD SVG 1.1//EN" "http://www.w3.org/Graphics/SVG/1.1/DTD/svg11.dtd" >
<svg xmlns="http://www.w3.org/2000/svg" xmlns:xlink="http://www.w3.org/1999/xlink" version="1.1" viewBox="-10 0 1020 1000">
  <g transform="matrix(1 0 0 -1 0 800)">
   <path fill="currentColor"
d="M974 256h26v-125h-1000v125h25h949zM974 275h-949q19 56 66.5 90.5t108.5 34.5h600q60 0 107.5 -34.5t66.5 -90.5zM800 419h-231q-1 3 -1 9v72q0 20 14.5 35t35.5 15h149q21 0 35.5 -15t14.5 -35v-72q0 -7 -1 -10q-3 0 -8.5 0.5t-7.5 0.5zM200 419q-3 0 -9 -0.5t-8 -0.5
q-1 3 -1 10v72q0 20 14.5 35t35.5 15h149q21 0 35.5 -15t14.5 -35v-72q0 -6 -1 -9h-230zM115 650h769v-250q-22 10 -49 15q1 4 1 13v72q0 28 -20 48.5t-49 20.5h-149q-28 0 -48.5 -20.5t-20.5 -48.5v-72q0 -7 1 -9h-101q1 2 1 9v72q0 28 -20 48.5t-49 20.5h-149
q-28 0 -48.5 -20.5t-20.5 -48.5v-72q0 -8 1 -13q-27 -5 -49 -15v250zM38 113h98v-163h-98v163zM863 113h98v-163h-98v163z" />
  </g>

</svg>
