<?xml version="1.0" standalone="no"?>
<!DOCTYPE svg PUBLIC "-//W3C//DTD SVG 1.1//EN" "http://www.w3.org/Graphics/SVG/1.1/DTD/svg11.dtd" >
<svg xmlns="http://www.w3.org/2000/svg" xmlns:xlink="http://www.w3.org/1999/xlink" version="1.1" viewBox="-10 0 1020 1000">
  <g transform="matrix(1 0 0 -1 0 800)">
   <path fill="currentColor"
d="M933 763q28 0 47.5 -19t19.5 -47v-792q0 -28 -19.5 -47.5t-47.5 -19.5h-867q-28 0 -47 19.5t-19 47.5v792q0 28 19 47t47 19h867zM66 719q-9 0 -15.5 -6.5t-6.5 -15.5v-152h911v152q0 9 -6.5 15.5t-15.5 6.5h-867zM44 323h911v178h-911v-178zM955 279h-911v-178h911v178z
M933 -117q9 0 15.5 6.5t6.5 15.5v152h-911v-152q0 -9 6.5 -15.5t15.5 -6.5h867zM896 708h46v-154h-46v154zM847 708h46v-154h-46v154zM797 708h46v-154h-46v154zM748 708h45v-154h-45v154zM698 708h46v-154h-46v154zM648 708h46v-154h-46v154zM599 708h46v-154h-46v154z
M549 708h46v-154h-46v154zM546 699l-42 -148l-44 13l42 147zM896 266h46v-154h-46v154zM847 266h46v-154h-46v154zM797 266h46v-154h-46v154zM747 266h46v-154h-46v154zM698 266h46v-154h-46v154zM648 266h46v-154h-46v154zM603 109l-44 13l42 147l44 -12zM57 488h46v-154
h-46v154zM107 488h46v-154h-46v154zM157 488h46v-154h-46v154zM206 488h46v-154h-46v154zM256 488h46v-154h-46v154zM306 488h46v-154h-46v154zM399 491l-44 -12l41 -148l45 13z" />
  </g>

</svg>
