<?xml version="1.0" standalone="no"?>
<!DOCTYPE svg PUBLIC "-//W3C//DTD SVG 1.1//EN" "http://www.w3.org/Graphics/SVG/1.1/DTD/svg11.dtd" >
<svg xmlns="http://www.w3.org/2000/svg" xmlns:xlink="http://www.w3.org/1999/xlink" version="1.1" viewBox="-10 0 1010 1000">
  <g transform="matrix(1 0 0 -1 0 800)">
   <path fill="currentColor"
d="M138 -200v198h539v-198h-539zM407 -47q-23 0 -38.5 -15.5t-15.5 -38.5t15.5 -38.5t38.5 -15.5t39 16t16 38t-16 38t-39 16zM191 35v83h432v-83h-432zM290 95v-37h234v37h-234zM191 156h-6l-69 538h583l-69 -538h-439zM267 215q6 0 10.5 4.5t4.5 10.5q0 15 -15 15t-15 -15
t15 -15zM293 301q15 0 15 15q0 6 -4.5 10.5t-10.5 4.5t-10.5 -4.5t-4.5 -10.5q0 -15 15 -15zM384 242q15 0 15 15t-15 15t-15 -15q0 -6 4.5 -10.5t10.5 -4.5zM392 362q6 0 10.5 4.5t4.5 10.5t-4.5 10.5t-10.5 4.5q-15 0 -15 -15t15 -15zM486 294q6 0 10.5 4.5t4.5 10.5
q0 7 -4.5 11.5t-10.5 4.5q-16 0 -16 -16q0 -6 4.5 -10.5t11.5 -4.5zM541 392q0 -6 4.5 -10.5t11.5 -4.5q6 0 10.5 4.5t4.5 10.5q0 7 -4.5 11.5t-10.5 4.5q-16 0 -16 -16zM565 223q7 0 11.5 4.5t4.5 10.5q0 16 -16 16q-6 0 -10.5 -4.5t-4.5 -11.5q0 -6 4.5 -10.5t10.5 -4.5z
M656 656h-498l35 -269q78 8 162 42q172 69 278 45zM727 616q65 -5 110 -52t45 -113q0 -68 -48.5 -116.5t-117.5 -48.5q-16 0 -31 3l5 37q8 -2 26 -2q53 0 90.5 37t37.5 90q0 51 -35.5 88t-86.5 39zM156 800h503v-69h-503v69v0z" />
  </g>

</svg>
