<?xml version="1.0" standalone="no"?>
<!DOCTYPE svg PUBLIC "-//W3C//DTD SVG 1.1//EN" "http://www.w3.org/Graphics/SVG/1.1/DTD/svg11.dtd" >
<svg xmlns="http://www.w3.org/2000/svg" xmlns:xlink="http://www.w3.org/1999/xlink" version="1.1" viewBox="-10 0 1020 1000">
  <g transform="matrix(1 0 0 -1 0 800)">
   <path fill="currentColor"
d="M83 432q-12 9 -14 24.5t7 27.5q10 12 25.5 14t27.5 -7l212 -161q12 -9 14 -24.5t-8 -27.5q-11 -14 -29 -14q-13 0 -23 7zM396 264q-15 0 -26 10.5t-11 26.5q0 15 11 26t26 11h554q16 0 27 -11t11 -26q0 -16 -11 -26.5t-27 -10.5h-554zM1000 254v-37h-206v-118h-589v118
h-205v37h80l78 110l30 -23l-62 -87h874zM756 136v80h-513v-80h513z" />
  </g>

</svg>
