<?xml version="1.0" standalone="no"?>
<!DOCTYPE svg PUBLIC "-//W3C//DTD SVG 1.1//EN" "http://www.w3.org/Graphics/SVG/1.1/DTD/svg11.dtd" >
<svg xmlns="http://www.w3.org/2000/svg" xmlns:xlink="http://www.w3.org/1999/xlink" version="1.1" viewBox="-10 0 1010 1000">
  <g transform="matrix(1 0 0 -1 0 800)">
   <path fill="currentColor"
d="M644 -23q4 -8 4 -19q0 -10 -4 -18q4 -10 4 -18q0 -10 -4 -17q4 -8 4 -18q0 -33 -32 -45q-4 -18 -18.5 -30t-33.5 -12h-130q-19 0 -33.5 12t-18.5 30q-32 12 -32 45q0 10 4 18q-4 7 -4 17q0 11 4 18q-4 8 -4 18q0 7 4 19q-4 7 -4 18q0 16 10.5 28.5t26.5 16.5
q-4 57 -26.5 107t-51 88t-56.5 77t-47 90t-19 110q0 58 16 104.5t39.5 75.5t57 51t62 32.5t60.5 16.5t47 7t27 1h3q7 0 18 -0.5t43.5 -6.5t62 -15.5t65.5 -31.5t62 -51t44 -76.5t18 -106.5t-19 -110t-47 -90t-57 -77t-51.5 -88t-26.5 -107q16 -4 26.5 -16.5t10.5 -28.5
q0 -8 -4 -18zM468 252q14 -71 0 -203l31 -1h31q-14 134 0 204h-25h-12h-25zM600 9h-203q-13 0 -13 -14q0 -13 13 -13h1h203q13 0 13 13q0 14 -14 14zM384 -78q0 -13 12 -13h1h203h2q12 0 12 13t-12 13h-1h-203h-2q-12 0 -12 -13zM602 -55q12 2 12 13q0 14 -13 14h-1h-203
q-13 0 -13 -14q0 -11 12 -13h1h203h2zM397 -128h203q14 0 14 14q0 11 -12 13h-2h-203h-1q-12 0 -12 -13q0 -14 13 -14zM225 512q0 -35 6.5 -65t22 -60t27.5 -47.5t36 -50.5q31 -42 48 -67.5t36 -74t24 -98.5h27q14 135 -1 205q-61 8 -72 35q-6 12 4 22q17 17 51 1
q20 -9 30 -43q9 -1 29 -1h12q20 0 29 1q10 34 30 43q34 16 51 -1q10 -10 4 -22q-11 -27 -72 -35q-15 -70 -1 -205h27q5 50 23.5 98t36 75t48.5 67q24 33 36 50.5t27.5 47.5t22 60t6.5 65q0 50 -15 91t-37 66.5t-52.5 44t-56.5 27.5t-54 14t-40 6t-19 1h-3q-79 0 -149 -35
q-122 -60 -122 -215zM551 271q46 6 54 24q1 3 -1 5q-6 3 -12 3q-11 0 -22 -5q-11 -6 -19 -27zM447 271q-8 21 -19 27q-11 5 -22 5q-6 0 -12 -3q-2 -2 0 -5q5 -17 53 -24zM564 -171q10 0 17 7t7 17q0 5 -3 10h-172q-3 -5 -3 -10q0 -10 7 -17t17 -7h130z" />
  </g>

</svg>
