<?xml version="1.0" standalone="no"?>
<!DOCTYPE svg PUBLIC "-//W3C//DTD SVG 1.1//EN" "http://www.w3.org/Graphics/SVG/1.1/DTD/svg11.dtd" >
<svg xmlns="http://www.w3.org/2000/svg" xmlns:xlink="http://www.w3.org/1999/xlink" version="1.1" viewBox="-10 0 1020 1000">
  <g transform="matrix(1 0 0 -1 0 800)">
   <path fill="currentColor"
d="M347 347v163h-66v38h85h19h68v-38h-68v-163h303q-4 -3 -21 -17l-2 -2q-15 -16 -18 -19h-294q-18 21 -41 38h35zM183 186h413q-1 -6 -1 -19q0 -12 1 -19h-413v38zM798 163l-94 417h-95v37h125l101 -446zM183 22q44 0 80.5 24.5t53.5 64.5h40q-18 -56 -66 -91.5t-108 -35.5
q-76 0 -129.5 53.5t-53.5 129.5t53.5 130t129.5 54q60 0 108 -35.5t66 -91.5h-40q-17 40 -53.5 64.5t-80.5 24.5q-60 0 -103 -42.5t-43 -103.5q0 -60 43 -102.5t103 -42.5zM833 350q70 -7 118.5 -59.5t48.5 -123.5q0 -76 -54 -129.5t-130 -53.5t-129.5 53.5t-53.5 129.5
q0 49 24.5 91.5t65.5 66.5l9 -40q-61 -43 -61 -118q0 -60 42.5 -102.5t102.5 -42.5t103 42.5t43 102.5q0 53 -34 93.5t-86 49.5z" />
  </g>

</svg>
