<?xml version="1.0" standalone="no"?>
<!DOCTYPE svg PUBLIC "-//W3C//DTD SVG 1.1//EN" "http://www.w3.org/Graphics/SVG/1.1/DTD/svg11.dtd" >
<svg xmlns="http://www.w3.org/2000/svg" xmlns:xlink="http://www.w3.org/1999/xlink" version="1.1" viewBox="-10 0 1020 1000">
  <g transform="matrix(1 0 0 -1 0 800)">
   <path fill="currentColor"
d="M793 258q86 -2 146.5 -63.5t60.5 -148.5q0 -88 -62 -150t-149 -62q-97 0 -161 75h-257q-64 -75 -161 -75q-87 0 -148.5 62t-61.5 150t61.5 150t148.5 62h584h-1zM831 126q0 17 -12 29t-29 12q-16 0 -28.5 -12.5t-12.5 -28.5q0 -17 12 -29t29 -12t29 12t12 29zM313 32v37
h-84v84h-36v-84h-84v-37h84v-85h36v85h84zM714 8q17 0 29 12t12 29t-12 29t-29 12t-29 -12t-12 -29t12 -29t29 -12zM790 -69q17 0 29 12t12 29t-12 29t-29 12t-29 -12t-12 -29q0 -16 12.5 -28.5t28.5 -12.5zM866 8q17 0 29 12t12 29t-12 29t-29 12t-28.5 -12t-11.5 -29
t11.5 -29t28.5 -12zM413 339h173v-44h-173v44zM581 767q39 0 67 -28t28 -68v-176q0 -7 -5 -12.5t-13 -5.5t-13 5.5t-5 12.5v176q0 25 -17.5 42.5t-41.5 17.5q-25 0 -42.5 -17.5t-17.5 -42.5v-295h-36v295q0 40 28 68t68 28z" />
  </g>

</svg>
