<?xml version="1.0" standalone="no"?>
<!DOCTYPE svg PUBLIC "-//W3C//DTD SVG 1.1//EN" "http://www.w3.org/Graphics/SVG/1.1/DTD/svg11.dtd" >
<svg xmlns="http://www.w3.org/2000/svg" xmlns:xlink="http://www.w3.org/1999/xlink" version="1.1" viewBox="-10 0 1020 1000">
  <g transform="matrix(1 0 0 -1 0 800)">
   <path fill="currentColor"
d="M216 594q40 32 5 79q-56 71 2 127l26 -26q-15 -14 -17 -29t3 -25.5t16 -24.5q27 -36 24 -70.5t-35 -59.5zM412 522h327q4 -8 11 -24.5t18 -85.5t11 -158q0 -68 -16.5 -133t-36.5 -105t-36.5 -79t-16.5 -61v-75h-261h-45h-261v75q0 22 -16.5 61t-36.5 79t-36.5 105
t-16.5 133q0 89 10 156t20 90l10 22h327h45zM132 -67h38q0 24 -29 86q-18 38 -27 60.5t-19 67t-10 88.5q0 67 8 119t14 68.5t8 18.5l-17 9l-16 10l-2 -3q-1 -3 -3 -8t-4.5 -12.5t-5.5 -18t-6 -23.5t-5.5 -30t-4.5 -36t-3 -43.5t-1 -50.5q0 -48 11 -96.5t21 -72.5t28 -63
q25 -52 25 -70zM526 594q40 32 5 79q-56 71 2 127l26 -26q-15 -14 -17 -29t3 -25.5t16 -24.5q27 -36 24 -70.5t-35 -59.5zM809 454q79 0 135 -56t56 -135t-56 -134.5t-135 -55.5q-4 0 -10.5 0.5t-9.5 0.5q1 6 4.5 18.5t5.5 18.5h10q63 0 108 44.5t45 107.5q0 64 -45 108.5
t-108 44.5h-3q-3 19 -6 37q2 0 5 0.5t4 0.5zM365 594q40 32 5 79q-56 71 2 127l26 -26q-15 -14 -17 -29t3 -25.5t16 -24.5q27 -36 24 -70.5t-35 -59.5z" />
  </g>

</svg>
