<?xml version="1.0" standalone="no"?>
<!DOCTYPE svg PUBLIC "-//W3C//DTD SVG 1.1//EN" "http://www.w3.org/Graphics/SVG/1.1/DTD/svg11.dtd" >
<svg xmlns="http://www.w3.org/2000/svg" xmlns:xlink="http://www.w3.org/1999/xlink" version="1.1" viewBox="-10 0 1010 1000">
  <g transform="matrix(1 0 0 -1 0 800)">
   <path fill="currentColor"
d="M945 -40q10 0 16.5 -6.5t6.5 -16.5v-114q0 -9 -6.5 -16t-16.5 -7h-892q-9 0 -15.5 7t-6.5 16v114q0 10 6.5 16.5t15.5 6.5h53v651q0 73 48 127t119 62v-150h452v150q72 -8 120 -62t48 -127v-651h52zM200 452v-492h598v492h-83v87q0 23 -16.5 39.5t-39.5 16.5
q-28 0 -44 -21h-3h-225h-3q-18 21 -45 21q-23 0 -39.5 -16.5t-16.5 -39.5v-87h-83zM748 66q12 0 12 -12v-64q0 -13 -12 -13h-497q-13 0 -13 13v64q0 12 13 12h497zM388 420v119q0 8 -1 12h225q-2 -8 -2 -12v-119h-222zM339 369q-14 0 -23.5 10t-9.5 24v136q0 14 9.5 24
t23.5 10t24 -10t10 -24v-136q0 -14 -10 -24t-24 -10zM659 369q-14 0 -23.5 10t-9.5 24v136q0 14 9.5 24t23.5 10t24 -10t10 -24v-136q0 -14 -10 -24t-24 -10zM703 779v-106h-407v106h407zM383 695q12 0 20.5 8.5t8.5 20.5t-8.5 20.5t-20.5 8.5q-11 0 -19.5 -8.5t-8.5 -20.5
t8.5 -20.5t19.5 -8.5zM499 695q12 0 20.5 8.5t8.5 20.5t-8.5 20.5t-20.5 8.5q-11 0 -19.5 -8.5t-8.5 -20.5t8.5 -20.5t19.5 -8.5zM615 695q12 0 20.5 8.5t8.5 20.5t-8.5 20.5t-20.5 8.5t-20 -8.5t-8 -20.5t8 -20.5t20 -8.5zM528 213l-4 34h121h2h121q0 -7 -1 -17.5
t-7.5 -38.5t-18 -49.5t-36.5 -39.5t-58 -18h-1v0h-1q-59 0 -93 56h-1q-20 0 -35 7t-22.5 15.5t-12.5 19t-6 16t-1 7.5q0 3 2 5q2 3 5 3h47zM544 155q-11 27 -13 43h-41q8 -39 54 -43zM647 359q8 -2 12 -2q1 0 5 0.5t5 0.5v-100h-22v101z" />
  </g>

</svg>
