<?xml version="1.0" standalone="no"?>
<!DOCTYPE svg PUBLIC "-//W3C//DTD SVG 1.1//EN" "http://www.w3.org/Graphics/SVG/1.1/DTD/svg11.dtd" >
<svg xmlns="http://www.w3.org/2000/svg" xmlns:xlink="http://www.w3.org/1999/xlink" version="1.1" viewBox="-10 0 1010 1000">
  <g transform="matrix(1 0 0 -1 0 800)">
   <path fill="currentColor"
d="M778 -56q29 0 50.5 -21t21.5 -51q0 -29 -21.5 -50.5t-50.5 -20.5h-557q-29 0 -50 21t-21 50q0 30 21 51t50 21h-6q-10 0 -16.5 6.5t-6.5 16.5q0 9 6.5 15.5t16.5 6.5h29q-14 36 0 101q10 45 53.5 99t123 128.5t88.5 83.5q-22 -9 -70 -9q-24 0 -43.5 9.5t-40.5 9.5
q-18 0 -28 -14.5t-22.5 -29t-34.5 -14.5q-24 0 -40 6.5t-20 12.5l-4 7q-31 16 -31 48l-9 27l163 162v28l97 34l-7 32l55 8v82l5 -2.5t12 -7.5t16.5 -13.5t16 -21t13.5 -28.5l28 40q6 -1 16 -3t38.5 -12t54.5 -24.5t57.5 -43t54.5 -64.5t38.5 -91.5t15.5 -121.5
q0 -73 -20 -136.5t-40 -90.5l-20 -27l-50 24q-27 -54 -27 -100q0 -36 46 -88h55q10 0 16.5 -6.5t6.5 -15.5q0 -10 -6.5 -16.5t-16.5 -6.5h-6zM347 585l39 25h-39v-25z" />
  </g>

</svg>
