<?xml version="1.0" standalone="no"?>
<!DOCTYPE svg PUBLIC "-//W3C//DTD SVG 1.1//EN" "http://www.w3.org/Graphics/SVG/1.1/DTD/svg11.dtd" >
<svg xmlns="http://www.w3.org/2000/svg" xmlns:xlink="http://www.w3.org/1999/xlink" version="1.1" viewBox="-10 0 1010 1000">
  <g transform="matrix(1 0 0 -1 0 800)">
   <path fill="currentColor"
d="M605 56q96 -6 152 -47.5t55 -91.5q-1 -45 -53.5 -79t-160.5 -37h-15q-79 0 -149 22t-110.5 48t-75.5 63.5t-43.5 51t-15.5 26.5q-7 18 9 26q17 9 26 -9q5 -9 14.5 -24t41 -47.5t70.5 -57.5t105 -44t142 -17q85 2 130.5 25t46.5 54q1 34 -47 64.5t-124 35.5
q-108 7 -206 46q-27 8 -52.5 21.5t-53 37.5t-44.5 63.5t-17 88.5q0 46 20.5 90t45.5 73.5t47.5 66t25.5 67.5q-22 13 -38 37l-47 -33h-1q-2 0 -2 1q-2 2 1 3l47 33q-1 2 -2.5 4.5t-2 4t-1.5 3.5l-2 4l-105 -25q-2 0 -3 2q0 2 2 2l104 26q-4 12 -5 19l-79 11q-4 0 -2 2
q0 2 0.5 2.5t1.5 -0.5l78 -10q-1 6 -1 18q0 21 5 35q-13 16 -18.5 36.5t-4.5 32.5v13l65 -19q34 26 77 26q42 0 78 -26l65 19q6 -46 -23 -82q5 -18 5 -35q0 -6 -2 -18l78 10q3 0 3 -2t-2 -2l-79 -11q-5 -16 -6 -19l104 -26q4 0 2 -2q0 -2 -2 -2h-1l-104 25q-3 -8 -8 -16
l47 -33q1 -1 1 -3l-2 -1h-2l-47 33q-14 -23 -37 -37q3 -31 25.5 -67.5t47 -66t45 -73.5t20.5 -90q0 -147 -143 -203q53 -12 106 -16zM535 726q-25 3 -42.5 -2t-24.5 -14t-11 -18.5t-4 -15.5v-7q24 -4 41.5 0.5t25 14t11.5 19t4 16.5v7zM337 726v-7.5t4 -16t12 -19.5
t25.5 -13t41.5 -1v7t-4 15t-11.5 19t-25 13.5t-42.5 2.5z" />
  </g>

</svg>
