<?xml version="1.0" standalone="no"?>
<!DOCTYPE svg PUBLIC "-//W3C//DTD SVG 1.1//EN" "http://www.w3.org/Graphics/SVG/1.1/DTD/svg11.dtd" >
<svg xmlns="http://www.w3.org/2000/svg" xmlns:xlink="http://www.w3.org/1999/xlink" version="1.1" viewBox="-10 0 1010 1000">
  <g transform="matrix(1 0 0 -1 0 800)">
   <path fill="currentColor"
d="M767 498q0 10 -7 17t-17 7q-11 0 -18 -7t-7 -17t7.5 -17t17.5 -7t17 7t7 17zM767 381q0 10 -7 17t-17 7t-17.5 -7t-7.5 -17t7.5 -17t17.5 -7t17 7t7 17zM338 440q0 10 -7 17t-17 7t-17 -7t-7 -17t7 -17.5t17 -7.5t17 7t7 18zM280 498q0 10 -7 17t-17 7q-11 0 -18 -7
t-7 -17t7.5 -17t17.5 -7t17 7t7 17zM280 381q0 10 -7 17t-17 7t-17.5 -7t-7.5 -17t7.5 -17t17.5 -7t17 7t7 17zM221 440q0 10 -7 17t-17 7t-17 -7t-7 -17t7 -17.5t17 -7.5t17 7.5t7 17.5zM953 51q-27 -16 -57 -8.5t-46 34.5l-200 234q18 22 18 46q0 30 -21.5 51.5
t-52.5 21.5q-30 0 -51.5 -21.5t-21.5 -51.5q0 -20 11 -36h-65q11 16 11 36q0 30 -21.5 51.5t-51.5 21.5q-31 0 -52 -21.5t-21 -51.5q0 -26 17 -46l-200 -234q-16 -27 -46 -34.5t-57 8.5q-26 16 -33.5 46t8.5 56l99 231q-7 23 -7 42q0 60 43 102.5t103 42.5q37 0 71 -18h9
h321h9q34 18 71 18q60 0 103 -42.5t43 -102.5q0 -19 -7 -42l99 -231q16 -26 8.5 -56t-33.5 -46zM594 412q22 0 38.5 -16t16.5 -39t-16.5 -39t-38.5 -16t-38.5 16t-16.5 39t16.5 39t38.5 16zM460 357q0 -23 -16 -39t-39 -16t-39 16t-16 39t16 39t39 16t39 -16t16 -39v0z" />
  </g>

</svg>
