<?xml version="1.0" standalone="no"?>
<!DOCTYPE svg PUBLIC "-//W3C//DTD SVG 1.1//EN" "http://www.w3.org/Graphics/SVG/1.1/DTD/svg11.dtd" >
<svg xmlns="http://www.w3.org/2000/svg" xmlns:xlink="http://www.w3.org/1999/xlink" version="1.1" viewBox="-10 0 1019 1000">
  <g transform="matrix(1 0 0 -1 0 800)">
   <path fill="currentColor"
d="M995 650q4 -3 4 -9q0 -7 -4 -8q-15 -10 -46.5 -28.5t-93.5 -44t-101 -25.5q-59 0 -85 50h-69q-17 -119 -91 -213l48 -48q53 16 94 -25q10 -10 20 -24t18 -30t16 -33.5t14 -35.5t11.5 -34t9.5 -31t6.5 -25l4.5 -18l2 -8q0 -5 -3 -10q-3 -3 -8 -3h-2l-8 2l-18 4.5t-25 6.5
t-31 9.5t-34 11.5t-35.5 14t-33.5 16t-30 18t-24 20q-41 41 -25 94l-48 48q-93 -72 -213 -91v-69q50 -26 50 -85q0 -39 -25.5 -101t-44 -93.5t-28.5 -46.5q-3 -5 -8 -5q-6 0 -9 5q-10 16 -28 47t-44 93t-26 101q0 59 50 85v67q-49 5 -94 19q-9 4 -7 13q3 11 14 7
q117 -38 235.5 -9t205.5 116t116 205.5t-9 235.5q-3 11 7 14q9 2 13 -7q13 -41 20 -94h66q26 50 85 50q14 0 31 -3t34 -9t35 -12.5t35 -15t31.5 -16t28.5 -15.5t23 -13t16 -10zM244 46q0 50 -46 70h-79q-46 -20 -46 -70q0 -75 86 -215q85 144 85 215zM636 284q-34 36 -81 17
l-56 -56q-19 -47 17 -81q51 -52 212 -92q-40 161 -92 212zM754 556q71 0 215 85q-140 86 -215 86q-50 0 -70 -47v-78q19 -46 70 -46z" />
  </g>

</svg>
