<?xml version="1.0" standalone="no"?>
<!DOCTYPE svg PUBLIC "-//W3C//DTD SVG 1.1//EN" "http://www.w3.org/Graphics/SVG/1.1/DTD/svg11.dtd" >
<svg xmlns="http://www.w3.org/2000/svg" xmlns:xlink="http://www.w3.org/1999/xlink" version="1.1" viewBox="-10 0 1020 1000">
  <g transform="matrix(1 0 0 -1 0 800)">
   <path fill="currentColor"
d="M150 159q0 94 39.5 177.5t108.5 143.5h554q69 -60 108.5 -143.5t39.5 -177.5q0 -95 -39.5 -178.5t-108.5 -143.5h-554q-69 60 -108.5 143.5t-39.5 178.5zM249 234h652q-20 91 -85 157h-483q-64 -67 -84 -157zM852 658h-200l316 106l-82 -113q-15 7 -34 7zM254 569
q0 19 13 32t31 13h554q18 0 31 -13t13 -32q0 -18 -13 -31t-31 -13h-554q-18 0 -31 13t-13 31zM22 386q9 0 15.5 -6.5t6.5 -15.5q0 -20 17 -20q26 0 26 27q0 13 -29 59q-47 73 -47 115q0 89 47 124.5t115 35.5q80 0 119 -44q0 -1 1 -1l1 -2q-26 -1 -48 -17q-28 19 -73 19
q-37 0 -62 -10t-36.5 -28t-15.5 -36t-4 -41q0 -28 40 -90q37 -56 37 -84q0 -33 -19.5 -52.5t-51.5 -19.5q-31 0 -46 20.5t-15 44.5q0 9 6.5 15.5t15.5 6.5z" />
  </g>

</svg>
