<?xml version="1.0" standalone="no"?>
<!DOCTYPE svg PUBLIC "-//W3C//DTD SVG 1.1//EN" "http://www.w3.org/Graphics/SVG/1.1/DTD/svg11.dtd" >
<svg xmlns="http://www.w3.org/2000/svg" xmlns:xlink="http://www.w3.org/1999/xlink" version="1.1" viewBox="-10 0 1020 1000">
  <g transform="matrix(1 0 0 -1 0 800)">
   <path fill="currentColor"
d="M671 470q-7 8 -15 0l-143 -146q-8 4 -13 4q-19 0 -26 -17l-158 40q-10 2 -13 -8q-2 -10 8 -13l164 -41q6 -16 25 -16q11 0 19 8t8 19q0 1 -0.5 3t-0.5 3l145 149q7 7 0 15zM286 176q-8 13 -22 6q-14 -9 -6 -22q8 -15 22 -6q14 7 6 22zM741 441q9 -14 -6 -22t-22 6t6 22
q14 7 22 -6zM719 154q-14 7 -6 22q7 14 22 6q14 -9 6 -22q-9 -14 -22 -6zM264 419q14 -7 22 6q7 14 -6 22q-15 8 -22 -6q-9 -14 6 -22zM618 65q-9 13 6 22q13 8 22 -6q8 -15 -6 -22q-14 -9 -22 6zM353 520q9 -14 22 -6q14 9 6 22q-8 15 -22 6q-14 -7 -6 -22zM375 87
q-13 8 -22 -6q-8 -15 6 -22q14 -9 22 6q9 13 -6 22zM640 542q14 -7 6 -22q-9 -14 -22 -6q-14 9 -6 22q8 15 22 6zM747 300q0 7 4.5 12t11.5 5t11.5 -5t4.5 -12q0 -16 -16 -16t-16 16zM220 300q0 -16 16 -16t16 16q0 7 -4.5 12t-11.5 5t-11.5 -5t-4.5 -12zM500 53
q-7 0 -12 -4.5t-5 -11.5t5 -11.5t12 -4.5q6 0 11 4.5t5 11.5t-5 11.5t-11 4.5zM500 580q-7 0 -12 -4.5t-5 -11.5t5 -11.5t12 -4.5q6 0 11 4.5t5 11.5t-5 11.5t-11 4.5zM500 -88q160 0 274 114t114 274t-114 274t-274 114q-161 0 -275 -114t-114 -274t114 -274t275 -114z
M913 785q36 0 61.5 -25t25.5 -61v-798q0 -35 -25.5 -60.5t-61.5 -25.5h-827q-36 0 -61 25.5t-25 60.5v798q0 36 25 61t61 25h827zM286 176q8 -15 -6 -22q-14 -9 -22 6q-8 13 6 22q14 7 22 -6zM741 441q-8 13 -22 6q-13 -8 -6 -22t22 -6t6 22zM719 154q13 -8 22 6q8 13 -6 22
q-15 8 -22 -6q-8 -15 6 -22zM264 419q-15 8 -6 22q7 14 22 6q13 -8 6 -22q-8 -13 -22 -6zM618 65q8 -15 22 -6q14 7 6 22q-9 14 -22 6q-15 -9 -6 -22zM353 520q-8 15 6 22q14 9 22 -6q8 -13 -6 -22q-13 -8 -22 6zM375 87q15 -9 6 -22q-8 -15 -22 -6q-14 7 -6 22q9 14 22 6z
M640 542q-14 9 -22 -6q-8 -13 6 -22q13 -8 22 6q8 15 -6 22zM747 300q0 -16 16 -16t16 16q0 7 -4.5 12t-11.5 5t-11.5 -5t-4.5 -12zM220 300q0 7 4.5 12t11.5 5t11.5 -5t4.5 -12q0 -16 -16 -16t-16 16zM500 53q6 0 11 -4.5t5 -11.5t-5 -11.5t-11 -4.5q-7 0 -12 4.5t-5 11.5
t5 11.5t12 4.5zM500 580q6 0 11 -4.5t5 -11.5t-5 -11.5t-11 -4.5q-7 0 -12 4.5t-5 11.5t5 11.5t12 4.5zM500 609q128 0 218.5 -90.5t90.5 -218.5t-90.5 -218.5t-218.5 -90.5t-219 90.5t-91 218.5t91 218.5t219 90.5zM500 -66q-152 0 -259.5 107t-107.5 259t107.5 259.5
t259.5 107.5t259 -107.5t107 -259.5t-107 -259t-259 -107v0z" />
  </g>

</svg>
