<?xml version="1.0" standalone="no"?>
<!DOCTYPE svg PUBLIC "-//W3C//DTD SVG 1.1//EN" "http://www.w3.org/Graphics/SVG/1.1/DTD/svg11.dtd" >
<svg xmlns="http://www.w3.org/2000/svg" xmlns:xlink="http://www.w3.org/1999/xlink" version="1.1" viewBox="-10 0 1019 1000">
  <g transform="matrix(1 0 0 -1 0 800)">
   <path fill="currentColor"
d="M499 694q-162 0 -277.5 -115.5t-115.5 -277.5q0 -163 115.5 -278.5t277.5 -115.5q163 0 278.5 115.5t115.5 278.5q0 162 -115.5 277.5t-278.5 115.5zM499 800q136 0 251.5 -66.5t182 -181.5t66.5 -251q0 -102 -39.5 -194.5t-106.5 -159.5t-159.5 -106.5t-194.5 -39.5
t-194.5 39.5t-159 106.5t-106 159.5t-39.5 194.5t39.5 194.5t106 159t159 106t194.5 39.5zM693 290q0 -16 -11.5 -28t-28.5 -12h-146q-17 0 -28 12l-207 205q-11 12 -11 28.5t11 28.5q12 11 28.5 11t28.5 -11l195 -194h129q17 0 28.5 -12t11.5 -28zM499 622q11 0 19 -8
t8 -19t-8 -19t-19 -8t-18.5 8t-7.5 19t7.5 19t18.5 8zM499 39q11 0 19 -8t8 -19t-8 -19t-19 -8t-18.5 8t-7.5 19t7.5 19t18.5 8zM181 304q0 11 8 18.5t19 7.5t19 -7.5t8 -18.5t-8 -19t-19 -8t-19 8t-8 19zM764 304q0 11 8 18.5t19 7.5t19 -7.5t8 -18.5t-8 -19t-19 -8t-19 8
t-8 19zM275 79q-8 7 -8 18t8 19q7 8 18 8t19 -8t8 -19t-8 -18q-8 -8 -19 -8t-18 8zM687 79q-8 8 -8 18.5t8 18.5q7 8 18 8t19 -8t8 -18.5t-8 -18.5t-19 -8t-18 8zM687 491q-8 8 -8 18.5t8 18.5q7 8 18 8t19 -8q8 -7 8 -18t-8 -19t-19 -8t-18 8z" />
  </g>

</svg>
