<?xml version="1.0" standalone="no"?>
<!DOCTYPE svg PUBLIC "-//W3C//DTD SVG 1.1//EN" "http://www.w3.org/Graphics/SVG/1.1/DTD/svg11.dtd" >
<svg xmlns="http://www.w3.org/2000/svg" xmlns:xlink="http://www.w3.org/1999/xlink" version="1.1" viewBox="-10 0 1020 1000">
  <g transform="matrix(1 0 0 -1 0 800)">
   <path fill="currentColor"
d="M515 361q35 -10 44 -42l148 154l-45 43zM333 47l130 193q6 6 -1 10q-5 4 -9 -2l-131 -193q-3 -5 2 -10q5 -4 9 2zM441 305q0 6 -4.5 10.5t-11.5 4.5h-214q-7 0 -12 -4.5t-5 -10.5q0 -7 5 -11.5t12 -4.5h214q16 0 16 16zM532 300q0 14 -9.5 24t-22.5 10q-14 0 -24 -10
t-10 -24q0 -13 10 -22.5t24 -9.5q13 0 22.5 9.5t9.5 22.5zM736 -67l-35 54l-26 -17l35 -53q-85 -48 -184 -54v102h-54v-102q-96 6 -180 52l37 55l-25 17l-38 -57q-80 50 -133 131l52 44l-19 24l-49 -42q-49 87 -55 187h101v54h-101q6 100 55 187l49 -42l19 24l-52 44
q51 79 133 131l38 -57l25 17l-37 55q85 47 180 51v-101h54v101q101 -6 184 -53l-35 -53l26 -17l35 54q79 -51 130 -128l-53 -44l20 -24l49 42q49 -87 55 -187h-102v-54h102q-6 -100 -55 -187l-49 42l-20 -24l53 -44q-51 -77 -130 -128zM500 800q-102 0 -194.5 -39.5
t-159.5 -106.5t-106.5 -159.5t-39.5 -194.5q0 -101 39.5 -193.5t106.5 -160t159.5 -107t194.5 -39.5q206 0 353 147t147 353q0 102 -39.5 194.5t-107 159.5t-160 106.5t-193.5 39.5v0z" />
  </g>

</svg>
