<?xml version="1.0" standalone="no"?>
<!DOCTYPE svg PUBLIC "-//W3C//DTD SVG 1.1//EN" "http://www.w3.org/Graphics/SVG/1.1/DTD/svg11.dtd" >
<svg xmlns="http://www.w3.org/2000/svg" xmlns:xlink="http://www.w3.org/1999/xlink" version="1.1" viewBox="-10 0 1014 1000">
  <g transform="matrix(1 0 0 -1 0 800)">
   <path fill="currentColor"
d="M973 628q17 -13 20 -34.5t-11 -38.5q-7 -7 -45 -61t-98.5 -161t-92.5 -200q-8 29 -31 48.5t-53 20.5q23 60 56 124.5t61 111t58.5 92t43 62.5t20.5 27q14 17 34.5 20t37.5 -11zM166 134l-62 -222q-10 2 -14 4l-61 29q-16 7 -21.5 23.5t1.5 32.5t23.5 22t31.5 -2l20 -10
l68 194q10 28 39 28h111q0 -15 8 -31h-55q-31 0 -56 -19t-33 -49zM578 335q-23 14 -28 16q32 62 66 118q4 6 8 10q12 -10 19 -14v-1q-32 -72 -65 -129zM655 38q35 0 54 31v-183q0 -22 -15 -37t-37 -15h-464q-26 0 -41 20q-15 22 -8 46l62 223q5 17 18.5 27.5t30.5 10.5h325
q14 -32 14 -61q0 -26 18 -44t43 -18zM584 204h-211q-13 0 -22 9.5t-9 22.5t9 22t22 9h207q15 12 45.5 67t54.5 114q5 12 17 16.5t24 -0.5t16.5 -17t-0.5 -24q-27 -62 -51 -106.5t-39 -65.5t-30 -32.5t-20.5 -13t-12.5 -1.5zM464 298q-20 5 -15 26q5 19 25 14q2 0 14.5 -4.5
t37.5 -16.5t47 -28q-1 0 -1 -0.5t-1 -0.5h-80zM611 190q16 6 33 25q32 -52 32 -115q0 -8 -6 -14t-15 -6q-8 0 -14 6t-6 14q0 47 -24 90zM449 505l-39 -6q0 -1 -1 -2.5t-1 -2.5l28 -28l-39 1q-2 -2 -2 -4l22 -33l-39 9q-2 -2 -3 -4l16 -37l-36 16q-3 -1 -7 -5l7 -40l-32 24
q0 -1 -2 -1q-1 0 -2 -1v-41l-27 30q-1 -1 -4 -1l-7 -40l-22 34h-4l-15 -38l-14 38q-6 0 -9 1l-23 -34l-6 40h-2l-2 1l-28 -28l1 40l-1 1q-2 0 -2 1l-33 -23l8 40q-1 0 -1 1l-2 1l-37 -16l16 37q-5 7 -5 8l-40 -8l24 32q-2 4 -2 5l-40 -1l29 28q-1 1 -1 4l-39 7l33 22v5
l-37 14l37 15q0 6 1 9l-33 23l39 6q0 1 0.5 2.5t0.5 2.5l-28 28l39 -1q2 2 3 4l-23 32l39 -8q2 2 3 4l-16 36l36 -16q2 1 4 3t4 3l-8 39l32 -23q1 1 5 3l-1 39l27 -29l4 2l8 39l21 -34q3 0 5 1l14 36l15 -36q3 -1 9 -1l22 32l6 -39q1 0 2.5 -0.5t2.5 -0.5l28 28l-1 -40
q1 0 3 -2l33 22l-9 -38l4 -4l36 16l-15 -36q1 -1 2.5 -4t2.5 -4l39 8l-23 -32q0 -1 0.5 -2.5t1.5 -2.5h40l-29 -27v-2l1 -2l39 -8l-33 -21v-5l37 -15l-37 -14q0 -2 -0.5 -5.5t-0.5 -4.5zM715 486q-41 0 -70.5 29.5t-29.5 71.5q0 52 43 83q-20 32 6 39l-2.5 2.5t-3.5 5.5t1 7
q3 -1 7.5 -3.5t17 -5t22.5 -0.5q15 2 39.5 -3t48 -24t20.5 -49q2 -1 5 -4t7.5 -14t2.5 -24q-3 -23 -31 -65l-1 -1q-1 -1 -1 -2l-6 -7q-31 -36 -75 -36z" />
  </g>

</svg>
