<?xml version="1.0" standalone="no"?>
<!DOCTYPE svg PUBLIC "-//W3C//DTD SVG 1.1//EN" "http://www.w3.org/Graphics/SVG/1.1/DTD/svg11.dtd" >
<svg xmlns="http://www.w3.org/2000/svg" xmlns:xlink="http://www.w3.org/1999/xlink" version="1.1" viewBox="-10 0 1020 1000">
  <g transform="matrix(1 0 0 -1 0 800)">
   <path fill="currentColor"
d="M500 800q136 0 251 -66.5t182 -182t67 -251.5t-67 -251t-182 -182t-251 -67t-251.5 67t-182 182t-66.5 251q0 102 39.5 194.5t106.5 159.5t159.5 106.5t194.5 39.5zM500 -75q155 0 265 110t110 265q0 156 -110 265.5t-265 109.5q-156 0 -265.5 -109.5t-109.5 -265.5
q0 -155 109.5 -265t265.5 -110zM540 551v-249l106 -106l-59 -59l-130 130v284h83z" />
  </g>

</svg>
