<?xml version="1.0" standalone="no"?>
<!DOCTYPE svg PUBLIC "-//W3C//DTD SVG 1.1//EN" "http://www.w3.org/Graphics/SVG/1.1/DTD/svg11.dtd" >
<svg xmlns="http://www.w3.org/2000/svg" xmlns:xlink="http://www.w3.org/1999/xlink" version="1.1" viewBox="-10 0 1020 1000">
  <g transform="matrix(1 0 0 -1 0 800)">
   <path fill="currentColor"
d="M500 800q136 0 251 -66.5t182 -182t67 -251.5t-67 -251t-182 -182t-251 -67t-251.5 67t-182 182t-66.5 251q0 102 39.5 194.5t106.5 159.5t159.5 106.5t194.5 39.5zM529 -67q135 11 231 107t107 231h-126q-13 0 -21.5 8.5t-8.5 20.5q0 13 8.5 22t21.5 9h126
q-11 134 -107 230.5t-231 107.5v-127q0 -13 -8.5 -21.5t-20.5 -8.5q-13 0 -22 8.5t-9 21.5v127q-134 -11 -230.5 -107.5t-107.5 -230.5h127q13 0 21.5 -9t8.5 -22q0 -12 -8.5 -20.5t-21.5 -8.5h-127q11 -135 107.5 -231t230.5 -107v126q0 13 9 21.5t22 8.5q12 0 20.5 -8.5
t8.5 -21.5v-126z" />
  </g>

</svg>
