<?xml version="1.0" standalone="no"?>
<!DOCTYPE svg PUBLIC "-//W3C//DTD SVG 1.1//EN" "http://www.w3.org/Graphics/SVG/1.1/DTD/svg11.dtd" >
<svg xmlns="http://www.w3.org/2000/svg" xmlns:xlink="http://www.w3.org/1999/xlink" version="1.1" viewBox="-10 0 1020 1000">
  <g transform="matrix(1 0 0 -1 0 800)">
   <path fill="currentColor"
d="M319 234h153q40 -67 117 -67q36 0 67.5 18.5t48.5 48.5h153q-20 -95 -96 -156.5t-173 -61.5q-98 0 -174 61.5t-96 156.5zM589 -12q108 0 192.5 70t105.5 176h39q-23 -119 -118 -197.5t-219 -78.5t-219 78.5t-119 197.5h39q21 -106 106 -176t193 -70zM472 368h-221
q24 119 119 197t219 78t219 -78t118 -197h-221q-17 30 -48.5 48.5t-67.5 18.5q-77 0 -117 -67zM233 530q-87 -61 -110 -162h-61q14 74 58 134.5t111 95.5l27 15l39 -79q-23 -30 -38 -58zM694 302q0 -43 -31 -74t-75 -31t-75 31t-31 74t31 74t75 31t75 -31t31 -74zM452 302
q0 -20 6 -39h-458v75h457q-5 -18 -5 -36zM719 338h281v-75h-282q6 19 6 39q0 18 -5 36z" />
  </g>

</svg>
