<?xml version="1.0" standalone="no"?>
<!DOCTYPE svg PUBLIC "-//W3C//DTD SVG 1.1//EN" "http://www.w3.org/Graphics/SVG/1.1/DTD/svg11.dtd" >
<svg xmlns="http://www.w3.org/2000/svg" xmlns:xlink="http://www.w3.org/1999/xlink" version="1.1" viewBox="-10 0 1010 1000">
  <g transform="matrix(1 0 0 -1 0 800)">
   <path fill="currentColor"
d="M766 646l-316 -315v-450l150 -63q7 -3 5 -10q-2 -8 -9 -8h-322q-8 0 -8 8q-2 7 5 10l149 63v449l-315 316q-8 8 -4 20q5 11 17 11h635q11 0 17 -11q4 -12 -4 -20zM710 641h-549l274 -275zM761 800q58 0 98.5 -40t40.5 -97t-40.5 -97t-98.5 -40q-38 0 -71 19l61 61
q-11 -24 -11 -41q0 -12 5.5 -19t9 -8.5t6.5 -1.5v0q2 0 6 1.5t9 8.5t5 19q0 26 -17 54l15 15q17 17 7 39q-8 21 -33 21h-21q-6 32 -27 52q-8 9 -17 10.5t-12.5 0t-5.5 -3.5v0v0q-14 -15 6 -35q11 -11 42 -24h-93q11 46 49 76t87 30zM761 701q20 40 20 60q0 12 -5 19t-9 8.5
t-6 1.5v0q-3 0 -6.5 -1.5t-9 -8.5t-5.5 -19q0 -29 21 -60v0v0zM788 690l4 1l8 2t10.5 3.5t12 5.5t12 7t10.5 9q21 20 6 35v0v0q-14 14 -35 -7q-14 -14 -28 -56v0v0zM852 573l1 2q1 2 2 5.5t1 7.5t-2.5 9.5t-8.5 10.5q-4 5 -10.5 9t-12 7t-12 5.5t-10.5 3.5l-8 2l-4 1v0v0
q14 -42 28 -56q6 -6 11.5 -8.5t9.5 -2.5t7 1t5 2l2 1h1v0zM889 663v0v0q0 2 -1.5 6t-8.5 9t-19 5q-13 0 -27.5 -5t-22.5 -9t-10 -6v0v0q40 -20 60 -20q12 0 19.5 5.5t8.5 9t1 5.5zM251 589h369l-185 -185zM437 455q10 0 18 7.5t8 17.5t-7.5 17.5t-18.5 7.5q-10 0 -17.5 -7.5
t-7.5 -17.5t7.5 -17.5t17.5 -7.5zM479 511q7 0 12.5 5t5.5 12q0 8 -5.5 13t-12.5 5t-12.5 -5t-5.5 -13q0 -7 5.5 -12t12.5 -5z" />
  </g>

</svg>
