<?xml version="1.0" standalone="no"?>
<!DOCTYPE svg PUBLIC "-//W3C//DTD SVG 1.1//EN" "http://www.w3.org/Graphics/SVG/1.1/DTD/svg11.dtd" >
<svg xmlns="http://www.w3.org/2000/svg" xmlns:xlink="http://www.w3.org/1999/xlink" version="1.1" viewBox="-10 0 1010 1000">
  <g transform="matrix(1 0 0 -1 0 800)">
   <path fill="currentColor"
d="M530 302q163 -7 276 -79t113 -171q0 -104 -122.5 -178t-296.5 -74t-296.5 74t-122.5 178q0 99 112.5 171t276.5 79l-7 161l-4 1q-56 14 -93 60t-37 106q0 70 50 120t121 50t121 -50t50 -120q0 -60 -37 -106t-94 -60q-1 -1 -3 -1zM436 639q18 0 31 13t13 31q0 19 -13 32
t-31 13q-19 0 -32 -13t-13 -32q0 -18 13 -31t32 -13zM525 -80q119 5 201 52t82 111q0 1 -0.5 4t-0.5 5h-120q-10 0 -17.5 7.5t-7.5 17.5q0 11 7 18t18 7h100q-32 44 -101.5 72.5t-158.5 32.5l-5 -109q0 -9 -6.5 -15.5t-15.5 -6.5t-15.5 6.5t-6.5 15.5l-5 109l-9 -1
q-85 -5 -152.5 -33.5t-98.5 -70.5h100q11 0 18 -7t7 -18q0 -10 -7.5 -17.5t-17.5 -7.5h-120q0 -2 -0.5 -5t-0.5 -4q0 -63 78.5 -109.5t193.5 -53.5v71q0 13 9 21.5t22 8.5q12 0 21 -8.5t9 -21.5v-71z" />
  </g>

</svg>
