<?xml version="1.0" standalone="no"?>
<!DOCTYPE svg PUBLIC "-//W3C//DTD SVG 1.1//EN" "http://www.w3.org/Graphics/SVG/1.1/DTD/svg11.dtd" >
<svg xmlns="http://www.w3.org/2000/svg" xmlns:xlink="http://www.w3.org/1999/xlink" version="1.1" viewBox="-10 0 1020 1000">
  <g transform="matrix(1 0 0 -1 0 800)">
   <path fill="currentColor"
d="M412 601q-100 0 -147 12t-58.5 32t-11.5 64q0 34 33.5 56t67.5 27l33 5q-24 -28 -25.5 -51.5t13.5 -37.5t40 -23.5t51 -13.5t51 -4q35 0 57 -13t28 -32t7.5 -38t-1.5 -32l-4 -13q-1 3 -3 7t-11.5 14.5t-23 19t-39 15t-57.5 6.5zM0 -62h928v-21q0 -47 -39 -79.5t-94 -32.5
h-662q-55 0 -94 32.5t-39 79.5v21zM782 63q-18 -32 -49 -51t-68 -19h-403q-55 0 -94.5 39.5t-39.5 94.5v342h671v-72h129q3 0 8 -1.5t17 -8.5t21.5 -17.5t17.5 -31t8 -47.5q0 -38 -9 -71.5t-31 -69t-67.5 -59t-110.5 -28.5zM932 291q0 33 -13 40h-120v-199q133 21 133 159z
" />
  </g>

</svg>
