<?xml version="1.0" standalone="no"?>
<!DOCTYPE svg PUBLIC "-//W3C//DTD SVG 1.1//EN" "http://www.w3.org/Graphics/SVG/1.1/DTD/svg11.dtd" >
<svg xmlns="http://www.w3.org/2000/svg" xmlns:xlink="http://www.w3.org/1999/xlink" version="1.1" viewBox="-10 0 1020 1000">
  <g transform="matrix(1 0 0 -1 0 800)">
   <path fill="currentColor"
d="M936 799q26 0 45 -18t19 -44v-493q0 -26 -19 -44.5t-45 -18.5h-343v-100h154q11 0 18.5 -7t7.5 -18t-7.5 -19t-18.5 -8h-496q-11 0 -18.5 8t-7.5 19t7.5 18t18.5 7h154v100h-343q-26 0 -44 18.5t-18 44.5v493q0 26 18 44t44 18h874zM944 244v493q0 8 -8 8h-874
q-8 0 -8 -8v-493q0 -8 8 -8h874q8 0 8 8zM944 680q-132 -17 -255 -51.5t-215 -75t-176 -91.5t-139.5 -94t-104.5 -90v459q0 8 8 8h874q8 0 8 -8v-57zM890 -9l59 -146v-43h-900v43l55 146h786zM908 -98l-7 18h-11l7 -18h11zM877 -98l-6 18h-114l5 -18h115zM278 -80l-4 -18
h125v18h-121zM236 -98l4 18h-100l-6 -18h102zM563 -61l-1 10h-126v-10h127zM598 -51l1 -10h114l-3 10h-112zM564 -80h-128l-1 -18h130zM399 -61v10h-116l-2 -10h118zM399 -116h-128l-3 -15h131v15zM435 -116v-15h132l-1 15h-131zM602 -116l1 -15h129l-4 15h-126zM601 -98
h122l-5 18h-118zM751 -61h114l-4 10h-113zM742 -33h112l-2 6h-111zM705 -33l-2 6h-106v-6h108zM561 -33l-1 6h-124v-6h125zM399 -33v6h-111l-1 -6h112zM248 -33l3 6h-93l-2 -6h92zM245 -51h-96l-3 -10h97zM127 -61l3 10h-23l-4 -10h24zM121 -80h-24l-7 -18h24zM108 -116h-25
l-6 -15h26zM127 -116l-5 -15h108l3 15h-106zM226 -149h-110l-3 -9h111zM264 -149l-1 -9h135l1 9h-135zM435 -149v-9h134l-1 9h-133zM605 -149v-9h135l-3 9h-132zM776 -149l3 -9h120l-3 9h-120zM771 -131h118l-5 15h-117zM903 -116l5 -15h13l-6 15h-12zM895 -61l-4 10h-11
l4 -10h11zM884 -33l-2 6h-10l2 -6h10zM138 -27h-22l-2 -6h22zM71 -149l-4 -9h27l3 9h-26zM918 -158h13l-3 9h-13z" />
  </g>

</svg>
