<?xml version="1.0" standalone="no"?>
<!DOCTYPE svg PUBLIC "-//W3C//DTD SVG 1.1//EN" "http://www.w3.org/Graphics/SVG/1.1/DTD/svg11.dtd" >
<svg xmlns="http://www.w3.org/2000/svg" xmlns:xlink="http://www.w3.org/1999/xlink" version="1.1" viewBox="-10 0 1010 1000">
  <g transform="matrix(1 0 0 -1 0 800)">
   <path fill="currentColor"
d="M218 799q39 0 66 -27q75 -77 75 -182q0 -73 -28 -117q-13 -21 -29 -37q-52 -58 -43 -160l37 -397q0 -33 -23 -56t-55 -23t-55 23t-23 56l36 397q9 104 -43 160q-11 11 -29 37q-27 42 -27 117q0 106 74 182q27 27 67 27zM858 212l61 -318q2 -10 2 -15q0 -32 -23 -55
t-55 -23t-55 23t-23 55v874q0 19 13.5 32.5t32.5 13.5q28 0 49.5 -28t32.5 -68t17.5 -80t7.5 -68l2 -28l1 -227q0 -42 -40 -58q-23 -7 -23 -30zM640 800l30 -359q5 -51 -17 -78l-52 -63q-21 -27 -17 -62l40 -359q0 -32 -23 -55t-55 -23t-55 23t-23 55l40 359q4 35 -17 62
l-52 63q-22 27 -17 78l30 359h32v-343h31l15 343h32l15 -343h32v343h31z" />
  </g>

</svg>
