<?xml version="1.0" standalone="no"?>
<!DOCTYPE svg PUBLIC "-//W3C//DTD SVG 1.1//EN" "http://www.w3.org/Graphics/SVG/1.1/DTD/svg11.dtd" >
<svg xmlns="http://www.w3.org/2000/svg" xmlns:xlink="http://www.w3.org/1999/xlink" version="1.1" viewBox="-10 0 1020 1000">
  <g transform="matrix(1 0 0 -1 0 800)">
   <path fill="currentColor"
d="M722 634q53 0 100 -39t78.5 -99t55 -130.5t34 -133t10.5 -108.5q0 -52 -7.5 -85t-23 -47.5t-30.5 -19t-37 -4.5q-16 0 -47.5 30.5t-63 66.5t-75.5 66.5t-82 30.5q-116 0 -130 -1h-4h-5q-14 1 -130 1q-38 0 -82 -30.5t-75.5 -66.5t-63 -66.5t-47.5 -30.5q-22 0 -36.5 4.5
t-30 19t-23 47.5t-7.5 85q0 46 10.5 108.5t33.5 133t54.5 130.5t78.5 99t100 39q61 0 97 -16t62.5 -31.5t63.5 -15.5t63 15.5t62 31.5t97 16zM257 447q26 0 44.5 18t18.5 44t-18.5 44t-44.5 18q-25 0 -43.5 -18.5t-18.5 -43.5t18.5 -43.5t43.5 -18.5zM393 236q26 0 44.5 18
t18.5 44t-18.5 44t-44.5 18t-44.5 -18.5t-18.5 -43.5q0 -26 18.5 -44t44.5 -18zM441 473h92q8 0 13.5 5.5t5.5 12.5q0 8 -5.5 13.5t-13.5 5.5h-92q-19 0 -19 -19q0 -8 5.5 -13t13.5 -5zM606 236q26 0 44.5 18t18.5 44q0 25 -18.5 43.5t-44.5 18.5t-44.5 -18t-18.5 -44
t18.5 -44t44.5 -18zM690 468v47h-46v-47h46zM747 412v46h-46v-46h46zM747 525v46h-46v-46h46zM804 468v47h-46v-47h46z" />
  </g>

</svg>
