<?xml version="1.0" standalone="no"?>
<!DOCTYPE svg PUBLIC "-//W3C//DTD SVG 1.1//EN" "http://www.w3.org/Graphics/SVG/1.1/DTD/svg11.dtd" >
<svg xmlns="http://www.w3.org/2000/svg" xmlns:xlink="http://www.w3.org/1999/xlink" version="1.1" viewBox="-10 0 1020 1000">
  <g transform="matrix(1 0 0 -1 0 800)">
   <path fill="currentColor"
d="M220 531q-4 23 -29 23q-37 0 -37 -46q0 -44 37 -44q27 0 30 30h29q-2 -25 -18 -40t-41 -15q-31 0 -48.5 19.5t-17.5 49.5q0 31 17.5 51t48.5 20q23 0 39 -12.5t19 -35.5h-29zM270 576h30v-134h-30v134zM325 576h30l56 -90v90h28v-134h-30l-56 90v-90h-28v134zM465 576
h100v-25h-71v-29h65v-22h-65v-33h73v-25h-102v134zM587 576h41l31 -92h1l29 92h42v-134h-28v95l-33 -95h-23l-32 94h-1v-94h-27v134zM794 576h30l50 -134h-31l-10 30h-50l-10 -30h-30zM791 494h35l-17 49h-1zM204 484q-4 -6 -13 -6q-10 0 -16 6h29zM380 562l-4 7h21v-7h-17z
M191 540q7 0 13 -6h-28q6 6 15 6zM209 508v-3h-40v3v4h87v-4h-47zM397 541v-6l-4 6h4zM572 537v-1h-64zM645 569h27l-2 -7h-22zM0 700h1000v-383h-1000v383zM971 345v20h-943v-20h943zM971 372v21h-943v-21h943zM971 400v21h-943v-21h943zM971 569v21h-758q-10 3 -22 3
q-11 0 -22 -3h-141v-21h105q-2 -3 -6 -7h-99v-21h88q0 -1 -1 -4t-1 -4h-86v-21h83v-4v-3h-83v-21h86q0 -1 1 -3.5t1 -3.5h-88v-21h99q3 -3 5 -7h-104v-21h141q10 -3 22 -3q11 0 22 3h758v21h-85l-2 7h87v21h-95l-3 7h98v21h-106l-2 7h108v22h-116l-3 7h119v21h-127l-2 7h129
zM971 597v21h-943v-21h943zM971 625v21h-943v-21h943zM971 653v19h-943v-19h943zM655 541h8l-2 -7h-4zM256 569v-7h-4q-1 1 -5 7h9zM745 505v7h9l-2 -7h-7zM367 477v6l4 -6h-4zM508 481v3h64v-3h-64zM745 534v7h20l-3 -7h-17zM689 449h-2l2 5v-5zM745 562v7h31l-3 -7h-28z
M630 449h-2v5zM367 449v7h17l4 -7h-21zM256 456v-7h-10q1 1 2.5 3.5t2.5 3.5h5zM790 449l2 7h32l2 -7h-36zM881 140h-155v117h155v-117zM881 -54h-155v117h155v-117zM118 257h155v-117h-155v117zM118 63h155v-117h-155v117zM710 302h223v-185v-31v-186h-223h-18h-389h-14
h-223v186v31v185h223h14h389h18zM289 -71v157h-195v-157h195zM289 117v157h-195v-157h195zM620 -55v313h-241v-313h241zM905 -71v157h-195v-157h195zM905 117v157h-195v-157h195z" />
  </g>

</svg>
