<?xml version="1.0" standalone="no"?>
<!DOCTYPE svg PUBLIC "-//W3C//DTD SVG 1.1//EN" "http://www.w3.org/Graphics/SVG/1.1/DTD/svg11.dtd" >
<svg xmlns="http://www.w3.org/2000/svg" xmlns:xlink="http://www.w3.org/1999/xlink" version="1.1" viewBox="-10 0 1020 1000">
  <g transform="matrix(1 0 0 -1 0 800)">
   <path fill="currentColor"
d="M151 -32h148v-43h-148v43zM700 -32h148v-43h-148v43zM637 365q23 0 39.5 -16.5t16.5 -39.5v-79q0 -23 -16.5 -39.5t-39.5 -16.5t-39.5 16.5t-16.5 39.5v79q0 23 16.5 39.5t39.5 16.5zM357 275q21 0 35.5 -14.5t14.5 -35.5t-14.5 -36t-35.5 -15q-20 0 -35 15t-15 36
t15 35.5t35 14.5zM162 365q23 0 39.5 -16.5t16.5 -39.5v-79q0 -23 -16.5 -39.5t-39.5 -16.5t-39.5 16.5t-16.5 39.5v79q0 23 16.5 39.5t39.5 16.5zM0 580h1000v-584h-1000v584zM249 230v79q0 37 -25.5 62.5t-61.5 25.5q-37 0 -62.5 -25.5t-25.5 -62.5v-79q0 -36 25.5 -62
t62.5 -26q36 0 61.5 26t25.5 62zM357 142q34 0 58 24.5t24 58.5t-24 58t-58 24q-19 0 -39 -10q9 27 26.5 44t27.5 20.5t14 3.5l-4 32q-3 0 -12 -2.5t-26 -13.5t-32 -28t-26 -51t-11 -77q0 -34 24 -58.5t58 -24.5zM505 201v46h-32v-46h32zM505 292v46h-32v-46h32zM725 230v79
q0 37 -26 62.5t-62 25.5t-62 -25.5t-26 -62.5v-79q0 -36 26 -62t62 -26t62 26t26 62zM925 230v79q0 37 -25.5 62.5t-62.5 25.5q-36 0 -61.5 -25.5t-25.5 -62.5v-79q0 -36 25.5 -62t61.5 -26q37 0 62.5 26t25.5 62zM837 365q23 0 39.5 -16.5t16.5 -39.5v-79
q0 -23 -16.5 -39.5t-39.5 -16.5t-39.5 16.5t-16.5 39.5v79q0 23 16.5 39.5t39.5 16.5zM266 675h467v-63h-467v63v0z" />
  </g>

</svg>
