<?xml version="1.0" standalone="no"?>
<!DOCTYPE svg PUBLIC "-//W3C//DTD SVG 1.1//EN" "http://www.w3.org/Graphics/SVG/1.1/DTD/svg11.dtd" >
<svg xmlns="http://www.w3.org/2000/svg" xmlns:xlink="http://www.w3.org/1999/xlink" version="1.1" viewBox="-10 0 1011 1000">
  <g transform="matrix(1 0 0 -1 0 800)">
   <path fill="currentColor"
d="M757 281l34 -52q73 9 116 38q20 13 26 30.5t3 28.5l-4 11q-24 -13 -67.5 -27t-75.5 -22zM242 281q-122 27 -175 56q-2 -5 -4 -12.5t3.5 -26t25.5 -31.5q19 -13 48 -22.5t48 -12.5l20 -3zM167 415q14 3 29 3h607q15 0 29 -3l-65 130q-30 33 -239 33h-28h-29
q-209 0 -240 -33zM959 160v-5v-113q0 -18 -12.5 -30.5t-30.5 -12.5h-112q-18 0 -30.5 12.5t-12.5 30.5v24h-523v-24q0 -18 -12.5 -30.5t-30.5 -12.5h-112q-18 0 -30.5 12.5t-12.5 30.5v113v5q-20 37 -20 82q0 57 32.5 102.5t84.5 63.5l76 151q34 42 258 42h29h28
q224 0 258 -42l2 -2l74 -149q52 -19 84.5 -64t32.5 -102q0 -45 -20 -82zM72 488h50l-12 -70l-102 35q1 0 -0.5 3.5t2 9t9 10.5t19.5 8.5t34 3.5zM927 488q32 0 48 -9t16 -17v-9l-102 -35l-12 70h50z" />
  </g>

</svg>
