<?xml version="1.0" standalone="no"?>
<!DOCTYPE svg PUBLIC "-//W3C//DTD SVG 1.1//EN" "http://www.w3.org/Graphics/SVG/1.1/DTD/svg11.dtd" >
<svg xmlns="http://www.w3.org/2000/svg" xmlns:xlink="http://www.w3.org/1999/xlink" version="1.1" viewBox="-10 0 1020 1000">
  <g transform="matrix(1 0 0 -1 0 800)">
   <path fill="currentColor"
d="M892 421q0 -60 -42 -102t-101 -42t-101.5 42t-42.5 102q0 59 42.5 101t101.5 42t101 -42t42 -101zM520 107h480v-307h-38v270h-442v37zM730 241q6 -1 19 -1q12 0 19 1v-96h-38v96zM0 -200v1000h482v-1000h-482zM393 361v-113h38v113h-38zM222 763v-925h38v925h-38z
M138 361v-113h37v113h-37z" />
  </g>

</svg>
