<?xml version="1.0" standalone="no"?>
<!DOCTYPE svg PUBLIC "-//W3C//DTD SVG 1.1//EN" "http://www.w3.org/Graphics/SVG/1.1/DTD/svg11.dtd" >
<svg xmlns="http://www.w3.org/2000/svg" xmlns:xlink="http://www.w3.org/1999/xlink" version="1.1" viewBox="-10 0 1020 1000">
  <g transform="matrix(1 0 0 -1 0 800)">
   <path fill="currentColor"
d="M584 501q-22 19 -28.5 41t-1 44t22.5 53q20 35 12 71q32 -51 4 -116q-22 -46 -9 -93zM475 592q0 26 27 60.5t27 53.5q0 34 -26 67q11 -7 21 -16t22.5 -26t13 -35t-9.5 -42q-18 -33 -25.5 -59t0 -58t37.5 -58q-87 31 -87 113zM189 94q12 -24 27 -48q-93 6 -154.5 48.5
t-61.5 101.5q0 44 36 80t95 54q1 -14 5 -46q-42 -14 -67 -37.5t-25 -50.5q0 -35 41 -63.5t104 -38.5zM1000 -135q0 -15 -135 -26t-324 -11t-324 11t-135 26q0 16 133.5 26.5t325.5 10.5q191 0 325 -10.5t134 -26.5zM905 420q1 -7 1.5 -19t-1 -49t-6 -72.5t-17.5 -83
t-32.5 -87.5t-53 -79.5t-77.5 -65.5h-171h-15h-171q-60 35 -101 95t-57 120.5t-23.5 116t-6.5 90.5l2 34h729z" />
  </g>

</svg>
