<?xml version="1.0" standalone="no"?>
<!DOCTYPE svg PUBLIC "-//W3C//DTD SVG 1.1//EN" "http://www.w3.org/Graphics/SVG/1.1/DTD/svg11.dtd" >
<svg xmlns="http://www.w3.org/2000/svg" xmlns:xlink="http://www.w3.org/1999/xlink" version="1.1" viewBox="-10 0 1010 1000">
  <g transform="matrix(1 0 0 -1 0 800)">
   <path fill="currentColor"
d="M519 -52q0 -7 -5 -12t-12 -5t-12 5t-5 12t5 11.5t12 4.5t12 -4.5t5 -11.5zM532 -10l17 -7l-17 -8v15zM467 -11v-11h-24v11h24zM601 45h-203v-3h203v3zM570 -46q-15 0 -25.5 -11t-10.5 -26t10.5 -26t25.5 -11q16 0 26.5 11t10.5 26t-10.5 26t-26.5 11zM570 -33
q21 0 35.5 -15t14.5 -35t-14.5 -34.5t-35.5 -14.5q-20 0 -34.5 14.5t-14.5 34.5t14.5 35t34.5 15zM570 -63q-8 0 -14 -6t-6 -14t6 -14t14 -6t14 6t6 14t-6 14t-14 6zM570 -50q14 0 23.5 -9.5t9.5 -23.5t-9.5 -23.5t-23.5 -9.5q-13 0 -22.5 9.5t-9.5 23.5t9.5 23.5t22.5 9.5z
M428 -46q-15 0 -26 -11t-11 -26t11 -26t26 -11q16 0 26.5 11t10.5 26t-10.5 26t-26.5 11zM428 -33q21 0 35.5 -15t14.5 -35t-14.5 -34.5t-35.5 -14.5q-20 0 -34.5 14.5t-14.5 34.5t14.5 35t34.5 15zM428 -63q-8 0 -14 -6t-6 -14t6 -14t14 -6t14 6t6 14t-6 14t-14 6zM428 -50
q14 0 23.5 -9.5t9.5 -23.5t-9.5 -23.5t-23.5 -9.5t-23.5 10t-9.5 23t9.5 23t23.5 10zM343 -27l12 7l11 -7v-20h-23v20zM393 -20h-20l-7 11l7 11h20v-22zM344 -9l-8 -11h-20v22h20zM355 2l-12 7v20h23v-20zM660 -42q0 -16 -16 -16t-16 16t16 16t16 -16zM695 -8q0 -7 -5 -11.5
t-12 -4.5q-6 0 -11 4.5t-5 11.5t5 11.5t11 4.5q7 0 12 -4.5t5 -11.5zM660 26q0 -6 -4.5 -11t-11.5 -5t-11.5 5t-4.5 11q0 16 16 16t16 -16zM625 -8q0 -16 -16 -16q-6 0 -11 4.5t-5 11.5t5 11.5t11 4.5q16 0 16 -16zM644 67q32 0 54.5 -22t22.5 -54t-22.5 -54t-54.5 -22
q-13 0 -19 2q0 23 -16 38.5t-39 15.5q-3 11 -3 20q0 31 22.5 53.5t54.5 22.5zM665 -29h34v42h-34v34h-42v-34h-34v-42h34v-34h42v34zM374 -83q-6 -2 -19 -2q-32 0 -54.5 22t-22.5 54t22.5 54t54.5 22t54.5 -22.5t22.5 -53.5q0 -10 -3 -20h-1q-22 0 -38 -15.5t-16 -38.5z
M333 -64h43v34h34v42h-34v34h-43v-34h-33v-42h33v-34zM644 72q-21 0 -39 -10q0 4 2 18q3 16 29 16h7h1h7q26 0 29 -16q2 -12 2 -17q-16 9 -38 9zM355 72q-21 0 -38 -9q0 5 2 17q3 16 28 16h8h1h7q26 0 28 -16q1 -10 3 -18q-20 10 -39 10zM520 -103h-41q4 8 4 20
q0 21 -14.5 36.5t-34.5 17.5q2 14 2 20q0 26 -14 46h155q-14 -20 -14 -46q0 -13 2 -20q-28 -3 -42 -27l1 2v2q0 8 -6.5 14.5t-15.5 6.5t-15.5 -6.5t-6.5 -14.5q0 -9 6.5 -15.5t15.5 -6.5q11 0 17 8q-3 -8 -3 -17q0 -12 4 -20zM527 -2v-30l35 15zM471 -27v21h-33v-21h33z
M411 50q-1 1 -4 3t-4 3h79l2 -3h11h3h16l3 3h79q-2 -1 -4 -3t-4 -3h-177zM374 -88q2 -15 9 -25l-26 -47q-1 -4 -4 -11t-15.5 -18t-28.5 -11q-26 0 -40 15t-14 34q0 10 20 124q6 -27 28.5 -45t51.5 -18q5 0 19 2zM724 -27q20 -114 20 -124q0 -19 -14 -33.5t-40 -14.5
q-16 0 -28 9.5t-16 19.5l-4 10l-26 47q7 10 9 25q12 -2 19 -2q29 0 51.5 18t28.5 45zM479 -111h41q2 -4 3 -5h-47q1 1 3 5zM112 -116v916h650v-916h-14q-6 41 -16 91l-2 14v2q0 46 -39 71v2q-1 5 -3 17q-4 24 -37 24h-15q-33 0 -37 -24q-2 -12 -2 -16h-83l-3 -3h-23l-3 3
h-83q0 4 -2 16q-4 24 -37 24h-16q-32 0 -36 -24q-2 -12 -3 -17v-2q-39 -25 -39 -71v-2l-2 -14q-10 -50 -16 -91h-139zM785 339h102v-455h-102v455zM887 351h-102v449h102v-449zM836 583q-14 0 -14 -13q0 -14 14 -14q13 0 13 14q0 13 -13 13z" />
  </g>

</svg>
