<?xml version="1.0" standalone="no"?>
<!DOCTYPE svg PUBLIC "-//W3C//DTD SVG 1.1//EN" "http://www.w3.org/Graphics/SVG/1.1/DTD/svg11.dtd" >
<svg xmlns="http://www.w3.org/2000/svg" xmlns:xlink="http://www.w3.org/1999/xlink" version="1.1" viewBox="-10 0 1010 1000">
  <g transform="matrix(1 0 0 -1 0 800)">
   <path fill="currentColor"
d="M843 274q51 0 87 -36.5t36 -87.5t-36 -87.5t-87 -36.5q-48 0 -84 33q-36 -114 -133.5 -186.5t-220.5 -72.5q-154 0 -263 109t-109 264v171h744v-89q30 19 66 19zM843 82q28 0 47.5 20t20.5 48q0 28 -20 48t-48 20q-24 0 -42.5 -14.5t-23.5 -37.5q0 -4 -0.5 -12.5
t-0.5 -12.5q3 -25 22 -42t45 -17zM445 379q-26 6 -31 26q-3 14 -25.5 28.5t-79.5 39.5q-11 5 -33.5 13.5t-36 14.5t-28.5 14.5t-22.5 17.5t-7.5 20q0 28 49.5 44.5t128.5 16.5q44 0 72.5 1.5t54 6t36.5 14.5t8 26q-4 19 -40 53.5t-70 59.5l-34 25q8 -1 21 -3.5t46.5 -14
t59 -26.5t46.5 -42t21 -60q0 -24 -12.5 -43t-36.5 -30.5t-47.5 -19.5t-57 -12t-53.5 -6t-48 -3t-30 -1q-36 -2 6 -25l66 -33q78 -38 78 -102z" />
  </g>

</svg>
