<?xml version="1.0" standalone="no"?>
<!DOCTYPE svg PUBLIC "-//W3C//DTD SVG 1.1//EN" "http://www.w3.org/Graphics/SVG/1.1/DTD/svg11.dtd" >
<svg xmlns="http://www.w3.org/2000/svg" xmlns:xlink="http://www.w3.org/1999/xlink" version="1.1" viewBox="-10 0 1020 1000">
  <g transform="matrix(1 0 0 -1 0 800)">
   <path fill="currentColor"
d="M292 488q-35 43 13 81q13 14 42 4.5t37 -43.5q5 -1 7 -6q13 38 30 46q9 3 19 1t18 -6l7 -4q30 25 36 26q3 0 6 2t7 5t7 5q4 2 6 4.5t4 6t4 6.5q1 1 6.5 8t10.5 10l96 64l7 3l9 5q23 20 24 30q1 3 1 9.5t1.5 13.5t5.5 14q3 7 6.5 10.5t5.5 4.5h1q1 0 1.5 -1t1.5 -4.5
t-1 -8.5l-3 -18q7 17 15 21q6 4 6 -0.5t-5 -13.5q-3 -5 -4 -10.5t-0.5 -10t-0.5 -11.5q-1 -9 2 -12.5t9 -1.5q3 0 9.5 2.5t9 2.5t5.5 -3q0 -3 -1 -4.5t-5 -3.5t-6.5 -3t-9.5 -4q-3 -1 -13.5 -7t-16.5 -7q-5 0 -10 -3.5t-8 -6.5l-2 -4l-1 -10l-2 -7v-5q-39 -24 -70 -52
q-14 -12 -35 -33.5t-35 -36.5l-14 -16q41 -48 70 -81l38 -46l-2 -34l-21 1q14 -41 42 -71q12 -14 27.5 -35t24.5 -35l10 -14l-7 -12l32 -47q-120 83 -210 114q-120 44 -180 44h-8q-3 15 -6 18q-2 2 -10.5 6.5t-15.5 9t-7 8.5t4.5 15t11 25t8.5 21l12 32q-29 32 -46 53z
M396 144q11 12 17 22l11 20q0 1 1 1.5l3 1.5t5 0l4 -5q1 2 6 -3l3 -10l2 -6v-3q0 -11 -9 -24q-2 -3 -4.5 -4t-4.5 -1h-1q-3 -1 -5.5 -0.5t-3.5 1.5l-2 2l-8 1q-4 -1 -7.5 0.5t-4.5 4.5zM431 127q5 0 11 7q1 -2 1 -7q-1 -22 -15 -61q-16 -9 -17 -9l7 -20q-2 -5 -6 -15.5
t-6 -15.5q-1 -3 -8 -22q-24 -62 -14 -119q2 -14 19 -22v-1h-56q-8 0 -12 4t-1 9.5t12 7.5q8 2 12.5 6t5.5 7v2h-14q2 9 4 22.5t5.5 51.5t-2.5 57q-3 18 -11 49t-10 44q1 0 4 2t5 3l12 9q23 18 35 24q6 -9 15 -9h2q4 -2 8 -2q4 -2 9 -2h4h1zM994 -114l6 -14q-31 -7 -53 -7
q-10 0 -19.5 5t-15.5 9.5t-8 3.5q-3 -2 -5 -9.5t-3 -13.5l-1 -7h-13v16q0 4 -8 9t-8 16q0 8 2 14t4 8l1 1l-43 30q7 -9 7 -26q0 -5 -1 -8t-4 -4.5t-4.5 -2t-7.5 -0.5h-8q-6 0 -9 -2.5t-6.5 -10t-7.5 -13.5q-5 -8 -14 -10t-17 -0.5t-18 -0.5q-8 -1 -9 -4t1.5 -12t1.5 -17
q-1 -7 -5.5 -10.5t-12 -4t-14.5 0t-17.5 1.5t-16.5 1q-13 0 -61 8q-4 1 -19 -6.5t-37 -7.5q-17 0 -30 2.5t-29.5 8t-27.5 7.5q-7 1 -20 3.5t-20 4t-15.5 4t-13 7t-5.5 11.5q-9 54 14 116q43 114 45 145q0 7 -3 12q8 10 8 23q0 8 -2 12q0 6 -5 11l-3 3l-2 1q-2 5 -7 6
q-2 1 -5 1q-8 0 -12 -7q-4 -10 -10 -20l-4 -6t-4 -5.5t-4 -4.5l-3 -3l-1 -2q-2 -2 -2 -3q-3 -1 -49 -33q-8 -5 -9.5 -4.5t-5.5 -2.5q-7 -5 -10 -24q-1 -9 -6 -4l-5 5q-3 2 -3.5 0t-1.5 -7.5t-3 -8.5q-4 -6 -7 4q-1 3 -2 5q-2 3 -3 -3q-3 -8 -5 -11q-3 -3 -6 5q-4 8 -6 9
q-1 0 -9 -2.5t-17 -5.5t-19.5 -8t-17.5 -9q-16 -9 -62 -40.5t-49 -35.5q-2 -2 -7.5 -14.5t-8.5 -16.5q-3 -3 -9 -4t-9 -8q-3 -5 -3.5 -14t-4.5 -11q-5 -3 -4 14l2 14q-22 -29 -34 -29t16 35q-4 -2 -11 -8q-7 -8 -13 -8q-4 0 -1 4.5t12 13.5l10 10q12 16 32 27q9 6 23 17.5
t16 12.5q3 2 20 17.5t38 32.5t39 28q19 11 35.5 26.5t24.5 27t8 15.5q1 10 -21 -10q-4 -4 -10 -12t-11 -13q-4 -4 -8.5 -6t-6.5 -1h-3q-9 -10 -24 -15q-8 -2 -14.5 -1t-10.5 3l-4 2q-1 -14 -14 -16q-6 0 -9.5 2t-4.5 4v2q-11 -1 -12 10q0 5 3.5 8.5t6.5 4.5l4 1q-8 9 -14 28
q-4 14 4 29t19 17q6 2 15.5 5.5t15.5 5.5l25 6l5 9q-60 25 -100 34q-37 9 -50 -4q-15 -15 -17 -16q-5 -3 -2 1q1 2 6 8q6 8 6 9q-2 2 -3.5 1t-9.5 -7q-6 -4 -7 -1t5 7q6 5 4.5 7t-10.5 1q-10 -1 -2 6l5 4v2q-1 2 -7 0q-8 -2 -9 0t6 8l21 13q4 6 10 8q12 2 18 -8q3 -4 8 -6
t9 -2l4 -1q20 -3 87 -16t75 -13q5 0 15 -2t17 -1.5t12 5.5q34 28 44 35q28 17 196 -40q53 -18 120.5 -57.5t113.5 -75.5l99 -73q-1 -9 -8 -19t-13 -16l-6 -6q38 -39 65 -60q11 -8 24.5 -20t23.5 -20t17 -11q9 -4 19 -4.5t12 -2.5z" />
  </g>

</svg>
