<?xml version="1.0" standalone="no"?>
<!DOCTYPE svg PUBLIC "-//W3C//DTD SVG 1.1//EN" "http://www.w3.org/Graphics/SVG/1.1/DTD/svg11.dtd" >
<svg xmlns="http://www.w3.org/2000/svg" xmlns:xlink="http://www.w3.org/1999/xlink" version="1.1" viewBox="-10 0 1010 1000">
  <g transform="matrix(1 0 0 -1 0 800)">
   <path fill="currentColor"
d="M613 443q22 -21 11 -48q-24 -61 -89.5 -113.5t-163.5 -52.5q-14 0 -21 1q19 -213 -23 -396q-4 -15 -16 -24.5t-26 -9.5q-4 0 -10 2q-18 4 -27.5 19t-5.5 33q41 175 20 379l-91 265q-4 12 -1 25l58 230q5 17 20 26.5t33 5.5q17 -4 26.5 -20t4.5 -33l-55 -217l67 -194
q126 -24 196 68v11q9 46 6.5 87.5t-8 72t-18 57t-22.5 43t-23 30t-18.5 18.5t-8.5 7q-14 11 -17.5 28.5t6.5 32.5q11 14 28.5 17.5t31.5 -6.5q6 -3 18.5 -14t36 -40.5t42.5 -66t31 -96.5t8 -127zM831 582q0 -43 -31 -73.5t-74 -30.5t-73.5 30.5t-30.5 73.5t30.5 74t73.5 31
q44 0 74.5 -30.5t30.5 -74.5v0z" />
  </g>

</svg>
