<?xml version="1.0" standalone="no"?>
<!DOCTYPE svg PUBLIC "-//W3C//DTD SVG 1.1//EN" "http://www.w3.org/Graphics/SVG/1.1/DTD/svg11.dtd" >
<svg xmlns="http://www.w3.org/2000/svg" xmlns:xlink="http://www.w3.org/1999/xlink" version="1.1" viewBox="-10 0 1020 1000">
  <g transform="matrix(1 0 0 -1 0 800)">
   <path fill="currentColor"
d="M295 385l-15 43q-6 13 -18 8q-13 -4 -9 -18l16 -43q4 -14 17 -8q14 4 9 18zM573 613v-106q0 -28 -19 -47t-47 -19h-175q3 -9 3 -19q0 -31 -22 -53.5t-53 -22.5q-9 0 -23 4l-6 -21q13 -8 13 -23q0 -11 -7.5 -19t-18.5 -8l-8 -31q9 -8 9 -20q0 -24 -22 -27l-11 -41h51
q27 0 46.5 -19t19.5 -46v-107q0 -27 -19.5 -46t-46.5 -19h-172q-27 0 -46 19t-19 46v107q0 24 15 41.5t38 22.5l76 282h-9v237h387q28 0 47 -19t19 -46zM89 441q-27 0 -46 19t-19 47v106q0 27 19 46t46 19h15v-237h-15zM986 577q5 0 9.5 -4t4.5 -10q0 -5 -4.5 -9t-9.5 -4h-3
l-10 27h13zM854 577l11 -27h-46v-20q0 -17 -12 -29t-29 -12h-181v148h181q17 0 29 -12t12 -29v-19h35zM940 577h12l11 -27h-12zM908 577h12l10 -27h-11zM888 577l11 -27h-14l-11 27h14z" />
  </g>

</svg>
