<?xml version="1.0" standalone="no"?>
<!DOCTYPE svg PUBLIC "-//W3C//DTD SVG 1.1//EN" "http://www.w3.org/Graphics/SVG/1.1/DTD/svg11.dtd" >
<svg xmlns="http://www.w3.org/2000/svg" xmlns:xlink="http://www.w3.org/1999/xlink" version="1.1" viewBox="-10 0 1020 1000">
  <g transform="matrix(1 0 0 -1 0 800)">
   <path fill="currentColor"
d="M288 75h-32l30 -119q2 -7 -5 -9l-2 -1q-7 0 -7 6l-31 123h-64l-78 -125q-4 -4 -7 -4q-1 0 -3 2q-6 3 -3 10l74 117h-108v26h233q0 -14 3 -26zM285 118h-233v72h250q-16 -36 -17 -72zM883 287v-209l95 -119q4 -6 -1 -11q-6 -6 -10 1l-84 105v-106q0 -7 -8 -7q-7 0 -7 7v99
l-38 -64l21 -24q5 -5 0 -11q-6 -4 -11 1l-18 20l-11 -19q-2 -4 -6 -4h-2q-1 1 -2 1q-7 3 -3 11l14 23l-54 62v-95q0 -7 -7 -7q-8 0 -8 7v90l-57 -88q-2 -4 -6 -4q-2 0 -4 2q-7 3 -2 10l69 107v106h-50q-15 42 -40 72h172v-72h-67v-105l62 -71l48 82v210q-49 1 -83 8.5
t-34 18.5t36 18.5t88 7.5t88.5 -7.5t36.5 -18.5q0 -10 -34 -18t-83 -9zM619 109q0 52 -36.5 89t-88.5 37t-89 -36.5t-37 -89.5q0 -52 37 -88.5t89 -36.5t88.5 36.5t36.5 88.5zM494 -46q-64 0 -109.5 45t-45.5 109t45.5 109.5t109.5 45.5t109 -45.5t45 -109.5t-45 -109
t-109 -45zM339 370q-6 -9 -32.5 -1.5t-57.5 26.5q-32 18 -50.5 38.5t-13.5 29.5t31.5 1.5t58.5 -26.5q31 -19 50 -39t14 -29zM719 438q31 19 57.5 26.5t32.5 -1.5q5 -9 -14 -29t-50 -39q-32 -19 -58.5 -26.5t-31.5 1.5t13.5 29.5t50.5 38.5zM526 305v5q0 11 -7 20t-18 11v84
l92 31l54 -88q8 -13 38 -7t65 27t53.5 45t10.5 37l-63 104q-8 13 -38 7t-65 -27t-53.5 -45t-10.5 -37l2 -3l-92 -30l-87 29l3 4q8 13 -11.5 37t-53.5 45q-35 21 -65 27t-38 -7l-4 -7q-2 2 -54 37q-64 41 -115 62t-59 10q-7 -12 33 -49.5t105 -79.5q9 -5 20 -13l-90 -130
q-6 -6 2 -10q1 -1 4 -1t6 3l25 37v-198h-63v-28h258v28h-180v219l51 73q16 -10 24 -14l-26 -43q-8 -13 11 -37t54 -45q34 -21 64.5 -27t37.5 7l53 87l87 -30v-84q-24 -5 -24 -31v-5q-72 -11 -120 -67t-48 -130q0 -82 58.5 -140.5t141.5 -58.5q82 0 140.5 58.5t58.5 140.5
q0 74 -47.5 130t-119.5 67v0z" />
  </g>

</svg>
