<?xml version="1.0" standalone="no"?>
<!DOCTYPE svg PUBLIC "-//W3C//DTD SVG 1.1//EN" "http://www.w3.org/Graphics/SVG/1.1/DTD/svg11.dtd" >
<svg xmlns="http://www.w3.org/2000/svg" xmlns:xlink="http://www.w3.org/1999/xlink" version="1.1" viewBox="-10 0 1020 1000">
  <g transform="matrix(1 0 0 -1 0 800)">
   <path fill="currentColor"
d="M0 -162h1000v-38h-1000v38zM598 800v-924h-530v924h530zM530 300v38h-98v-38h98zM948 120l44 -40h-342l32 40h266zM954 -124h-266l-31 166h328zM782 443q-40 4 -61 25q-9 9 -15.5 24.5t-7.5 25.5l-2 11q40 -4 61 -25q9 -9 15.5 -24.5t7.5 -25.5zM782 251q-40 4 -61 25
q-9 9 -15.5 24.5t-7.5 25.5l-2 11q40 -4 61 -25q9 -9 15.5 -24.5t7.5 -25.5zM782 349q-40 4 -61 25q-9 9 -15.5 24.5t-7.5 25.5l-2 11q40 -4 61 -25q9 -9 15.5 -24.5t7.5 -25.5zM802 515q0 44 -31 74.5t-75 30.5v38q40 0 73 -19.5t52 -53.5q19 34 52 53.5t73 19.5v-38
q-44 0 -75 -30.5t-31 -74.5v-357h-38v357zM885 504q9 9 24.5 15.5t26.5 8.5l10 1q-4 -40 -25 -61q-9 -9 -24.5 -15.5t-26.5 -8.5l-10 -1q4 40 25 61zM860 251q4 40 25 61q9 9 24.5 15.5t26.5 8.5l10 1q-4 -40 -25 -61q-9 -9 -24.5 -15.5t-26.5 -8.5zM885 410q9 9 24.5 15.5
t26.5 8.5l10 1q-4 -40 -25 -61q-9 -9 -24.5 -15t-26.5 -7l-10 -2q4 39 25 60z" />
  </g>

</svg>
