<?xml version="1.0" standalone="no"?>
<!DOCTYPE svg PUBLIC "-//W3C//DTD SVG 1.1//EN" "http://www.w3.org/Graphics/SVG/1.1/DTD/svg11.dtd" >
<svg xmlns="http://www.w3.org/2000/svg" xmlns:xlink="http://www.w3.org/1999/xlink" version="1.1" viewBox="-10 0 1010 1000">
  <g transform="matrix(1 0 0 -1 0 800)">
   <path fill="currentColor"
d="M728 555q-22 -43 -70 -46q14 33 32 66q21 38 37 64q24 -43 1 -84zM618 610q24 45 48 80.5t40 53.5t31 30.5t20 15.5t8 4l2 1l58 -31q22 -12 -2 -81.5t-64 -144.5q-39 -74 -84 -133t-67 -47l-59 32l-1 2v1q-11 63 67 211q1 3 3 6zM820 754q-7 4 -27 -15t-49.5 -61.5
t-59.5 -98.5t-49.5 -106t-23 -73.5t1.5 -31.5q7 -4 27 15t50 61.5t60 98.5q30 55 49 105.5t22.5 74t-1.5 31.5zM350 703q-17 9 -23 28.5t3 36.5q10 18 29 23.5t37 -3.5l51 -28l-45 -85zM449 590l-42 81l46 86l291 30q-62 -44 -131 -175q-67 -126 -72 -197l-27 52zM549 0
q105 0 196.5 -15.5t91.5 -46.5v-84l-2 -2q-3 -3 -8 -6.5t-26.5 -12.5t-50 -15.5t-81 -12t-116.5 -5.5q-211 0 -290 53l-2 3v82q0 10 11 19q-131 147 -131 386q0 63 16.5 118t40 91.5t55.5 66.5t56 45.5t49 26.5l44 -24l10 -18q-16 -5 -35.5 -14.5t-52.5 -34.5t-58.5 -56.5
t-45 -85t-19.5 -115.5q0 -134 40.5 -223t91.5 -139q1 0 1 -1q86 20 215 20zM549 -109q79 0 144 8t97.5 18.5t32.5 20.5t-32.5 21t-97.5 18.5t-144 7.5t-144 -7.5t-97.5 -18.5t-32.5 -21t32.5 -20.5t97.5 -18.5t144 -8z" />
  </g>

</svg>
