<?xml version="1.0" standalone="no"?>
<!DOCTYPE svg PUBLIC "-//W3C//DTD SVG 1.1//EN" "http://www.w3.org/Graphics/SVG/1.1/DTD/svg11.dtd" >
<svg xmlns="http://www.w3.org/2000/svg" xmlns:xlink="http://www.w3.org/1999/xlink" version="1.1" viewBox="-10 0 1010 1000">
  <g transform="matrix(1 0 0 -1 0 800)">
   <path fill="currentColor"
d="M685 442v-1l-68 -616q1 -11 -38 -17t-116 -7q-3 0 -10 -0.5t-11 -0.5q-175 0 -175 26l-67 615v1q0 33 242 33q243 0 243 -33zM442 457q-161 0 -217 -15q56 -15 217 -15q160 0 218 15q-58 15 -218 15zM585 -174q16 4 16 14l65 587q-53 -18 -224 -18t-223 18l64 -587
q0 -4 4.5 -7.5t8.5 -4.5l4 -2q1 0 4.5 -0.5t5.5 -0.5h1q1 -1 4.5 -1t5.5 -1h3q2 0 6 -0.5t7 -0.5h3q4 -1 13 -1q2 0 3 -1h16h2l2 -1h17h2q7 -1 20 -1h5h22h22h5q14 0 20 1h2h17l2 1h2h17l2 1q9 0 13 1h4q2 0 6.5 0.5t6.5 0.5h2q2 0 5 0.5t5 1.5h2q1 0 4 0.5t5 0.5h1z
M586 -139q-35 -18 -146 -18q-50 0 -85.5 4.5t-46.5 8.5l-10 5l-38 351q41 -2 69 9q40 18 96 16t81 -26q32 -33 119 5zM342 160q0 -13 14 -13q13 0 13 13t-13 13q-14 0 -14 -13zM370 -8q12 0 12 12t-12 12t-12 -12t12 -12zM382 108q9 0 9 9q0 8 -9 8t-9 -8q0 -9 9 -9z
M435 155q0 -10 6.5 -16.5t16.5 -6.5q9 0 16 6.5t7 16.5t-7 16.5t-16 6.5q-10 0 -16.5 -6.5t-6.5 -16.5zM486 23q14 0 14 14t-14 14t-14 -14t14 -14zM559 95q11 0 11 11t-11 11t-11 -11t11 -11zM571 149q8 0 8 8t-8 8q-7 0 -7 -8t7 -8zM752 784q8 -4 5 -11l-128 -336
q-30 -4 -45 -5l-5 14l-6 -15q-3 -1 -10 -1l138 364q3 7 12 5zM631 466l9 24l-23 56l-9 -24zM667 561l9 24l-23 56l-9 -24zM700 647l9 24l-23 57l-9 -24zM799 450v0v-2q0 -5 -2 -19q-2 -6 -3 -8q-2 -8 -3 -11q0 -2 -1.5 -5.5t-2.5 -4.5t-2.5 -3.5t-2.5 -3.5q-2 -4 -6 -10
q-1 -1 -2.5 -3t-2.5 -3q-6 -6 -9 -10q-1 0 -3 -2q-29 -25 -68 -27l1 10q11 7 11 22q0 6 -5 26l4 39q8 8 9 15q-3 15 -17 21q-10 3 -18 1q-5 2 -13 4q0 1 -1.5 6t-2.5 8l12 31q4 -28 15 -39v0v0q17 34 17 48q0 10 -4.5 16t-7.5 7t-5 1v0q-1 0 -3 -1l3 10q42 0 73 -28
q1 0 3 -2q6 -6 9 -10l5 -5q1 -1 3 -4.5t3 -5.5q1 -1 2.5 -3.5t2.5 -4.5q0 -1 1.5 -4.5t2.5 -5.5q1 -1 2 -5t1 -5l3 -9q2 -12 2 -19v-2zM709 473q15 0 38 16l3 3q1 0 2.5 1t2.5 2q10 11 8 20l-3 8v0q-12 12 -29 -5q-12 -11 -19 -33q-3 -12 -4 -12v0v-1zM760 377l2 3q1 3 1 6
q2 9 -8 19q-3 3 -5 4l-3 3q-7 5 -16.5 8.5t-15.5 5.5l-6 2h-1v0h1q0 -3 3 -12q6 -21 19 -34q17 -17 29 -5v0zM766 434q10 0 16 4t7 7t1 5q0 17 -24 17q-10 0 -21.5 -4t-18 -7.5t-8.5 -5.5q32 -16 48 -16zM518 223q-6 7 -26 18l58 153q5 0 15 1t15 1l13 -31l9 24l-4 9
q3 0 9 0.5t8 0.5l-71 -186q-18 2 -26 10zM537 335l-9 -24l23 -57l9 24z" />
  </g>

</svg>
