<?xml version="1.0" standalone="no"?>
<!DOCTYPE svg PUBLIC "-//W3C//DTD SVG 1.1//EN" "http://www.w3.org/Graphics/SVG/1.1/DTD/svg11.dtd" >
<svg xmlns="http://www.w3.org/2000/svg" xmlns:xlink="http://www.w3.org/1999/xlink" version="1.1" viewBox="-10 0 1019 1000">
  <g transform="matrix(1 0 0 -1 0 800)">
   <path fill="currentColor"
d="M271 497q7 5 9.5 9t1.5 15.5t-13 26.5q-45 58 -3 100q6 5 13.5 5t12.5 -5q12 -14 0 -26q-12 -14 -10 -24t15 -27q24 -29 23 -55.5t-26 -46.5q-5 -4 -12 -4q-8 0 -14 7q-4 5 -3.5 12.5t6.5 12.5zM486 619q7 6 10 9.5t2 15t-13 26.5q-45 58 -1 100q6 5 13.5 4.5t13 -5.5
t5 -12.5t-5.5 -12.5q-12 -14 -10.5 -24.5t15.5 -27.5q22 -29 20.5 -55.5t-26.5 -45.5q-4 -4 -12 -4t-14 7q-4 5 -3 12.5t6 12.5zM705 497q6 5 9 9t1.5 15.5t-12.5 26.5q-48 55 -3 99q5 6 12 6t13 -6q5 -5 5 -12.5t-5 -12.5q-11 -14 -9.5 -24t15.5 -27q23 -29 22 -55.5
t-25 -46.5q-6 -4 -12 -4q-9 0 -14 7q-5 5 -4 12.5t7 12.5zM924 -26q31 0 53 -22t22 -53q0 -30 -22 -52t-53 -22h-850q-31 0 -52.5 22t-21.5 52q0 31 21.5 53t52.5 22h850zM924 10h-850q-5 0 -7 -1q5 112 64 206t156.5 148.5t212.5 54.5q113 0 210.5 -54.5t156.5 -148.5
t64 -206q-2 1 -7 1zM561 450q-27 4 -61 4q-36 0 -63 -4v11q0 25 18 43t45 18q25 0 43 -18t18 -43v-11z" />
  </g>

</svg>
