<?xml version="1.0" standalone="no"?>
<!DOCTYPE svg PUBLIC "-//W3C//DTD SVG 1.1//EN" "http://www.w3.org/Graphics/SVG/1.1/DTD/svg11.dtd" >
<svg xmlns="http://www.w3.org/2000/svg" xmlns:xlink="http://www.w3.org/1999/xlink" version="1.1" viewBox="-10 0 1020 1000">
  <g transform="matrix(1 0 0 -1 0 800)">
   <path fill="currentColor"
d="M614 800v-927h-565v927h565zM576 -91v855h-489v-855h489zM430 337h98v-37h-98v37zM778 438q-39 4 -60 24q-9 9 -15.5 23.5t-8.5 24.5l-1 10q40 -3 61 -23q9 -9 15 -24t7 -25zM778 253q-39 3 -60 24q-9 9 -15.5 23.5t-8.5 24.5l-1 10q40 -3 61 -23q9 -9 15 -24t7 -25z
M778 348q-39 3 -60 23q-9 9 -15.5 24t-8.5 25l-1 10q40 -4 61 -24q9 -9 15 -23.5t7 -24.5zM881 497q9 9 24 14.5t25 6.5l11 2q-3 -38 -24 -58q-9 -9 -24 -15t-25 -7l-11 -2q3 38 24 59zM857 253q3 38 24 59q9 9 24 14.5t25 7.5l11 1q-3 -38 -24 -58q-9 -9 -24 -15t-25 -8z
M881 406q9 9 24 15t25 7l11 2q-3 -38 -24 -59q-9 -9 -24 -14.5t-25 -6.5l-11 -2q3 38 24 58zM0 -163h995v-37h-995v37zM996 62q4 -6 4 -10v-2l-1 -2l-31 -160q-3 -15 -19 -15h-264q-16 0 -18 15l-32 160l1 1v2v6l25 75q6 13 18 13h264q12 0 17 -11zM693 108l-13 -38h271
l-19 38h-239zM934 -91l24 124h-282l25 -124h233zM799 507q0 42 -31 72t-75 30v36q39 0 72.5 -19t51.5 -51q42 70 124 70v-36q-43 0 -74 -30t-31 -72v-326h-37v326z" />
  </g>

</svg>
