<?xml version="1.0" standalone="no"?>
<!DOCTYPE svg PUBLIC "-//W3C//DTD SVG 1.1//EN" "http://www.w3.org/Graphics/SVG/1.1/DTD/svg11.dtd" >
<svg xmlns="http://www.w3.org/2000/svg" xmlns:xlink="http://www.w3.org/1999/xlink" version="1.1" viewBox="-10 0 1010 1000">
  <g transform="matrix(1 0 0 -1 0 800)">
   <path fill="currentColor"
d="M292 19h186l26 -82l65 82h94q89 0 89 -57q0 -34 -35 -50t-77 -16h-67l20 85h49l-14 -58h16q8 0 20 2.5t25 12.5t13 25q0 29 -51 29h-54l-111 -125l-44 116q2 -12 2 -24q0 -28 -38.5 -46t-107.5 -18h-35l21 86h49l-14 -59q8 0 20.5 0.5t33 10.5t20.5 29q0 13 -8 20
t-15 7.5t-22 0.5h-62zM724 -166q0 -14 -70 -24t-169 -10t-168.5 10t-69.5 24t70 23.5t168 9.5q99 0 169 -9.5t70 -23.5zM555 -163q0 17 -70 17q-69 0 -69 -17q0 -7 20 -11.5t49 -4.5q70 0 70 16zM500 800q155 0 265 -108.5t110 -261.5q0 -154 -110 -263t-265 -109t-265 109
t-110 263q0 153 110 261.5t265 108.5zM395 430q0 -43 30.5 -73.5t74.5 -30.5q43 0 73.5 30.5t30.5 73.5t-30.5 73t-73.5 30q-44 0 -74.5 -30t-30.5 -73zM500 759q-138 0 -235.5 -96.5t-97.5 -232.5q0 -84 39 -156l168 81q-22 35 -22 75q0 60 43.5 102.5t104.5 42.5
q8 0 24 -2l54 176q-42 10 -78 10zM500 100q137 0 234.5 96.5t97.5 232.5q0 117 -73 206l-135 -128q23 -38 23 -78q0 -60 -43 -102.5t-104 -42.5q-29 0 -56 11l-43 -180q47 -15 99 -15z" />
  </g>

</svg>
