<?xml version="1.0" standalone="no"?>
<!DOCTYPE svg PUBLIC "-//W3C//DTD SVG 1.1//EN" "http://www.w3.org/Graphics/SVG/1.1/DTD/svg11.dtd" >
<svg xmlns="http://www.w3.org/2000/svg" xmlns:xlink="http://www.w3.org/1999/xlink" version="1.1" viewBox="-10 0 1020 1000">
  <g transform="matrix(1 0 0 -1 0 800)">
   <path fill="currentColor"
d="M95 483h-78q-17 0 -17 17q0 7 5 12t12 5h78q-2 -12 -2 -17q0 -7 2 -17zM282 420q0 -2 0.5 -5t0.5 -4h-90q-38 0 -64 26t-26 63t26.5 63t63.5 26h91q-2 -8 -2 -13v-156zM496 315q21 -8 36 -39t35 -92h-1q-37 0 -63 26t-26 63q0 27 19 42zM362 400q0 -11 5 -24h-27
q-18 0 -31 13t-13 31v156q0 18 13 31t31 13h27q-5 -13 -5 -24v-196zM1000 596v-196q0 -21 -15 -36.5t-36 -17.5q-15 -5 -30 -11.5t-38.5 -20t-38.5 -31.5t-15 -38q0 -34 35 -131.5t36 -123.5q1 -22 -7.5 -30.5t-44.5 -8.5h-160q-21 0 -35 11.5t-18 30.5h94q8 0 14 6t6 14
t-6 14.5t-14 6.5h-100q-2 19 -4 27h77q8 0 14 6t6 14t-6 14t-14 6h-84q-1 4 -2.5 12t-2.5 12h66q9 0 15 6t6 14q0 9 -6 15t-15 6h-76q-12 43 -19 64.5t-20.5 50.5t-31.5 43t-42 18l-45 3h-12q-23 0 -39 16.5t-16 38.5v196q0 22 16 38t39 16h513q23 0 39.5 -16t16.5 -38z
M609 588q0 15 -10.5 25.5t-25.5 10.5h-136q-15 0 -25.5 -10.5t-10.5 -25.5t10.5 -25.5t25.5 -10.5h136q15 0 25.5 10.5t10.5 25.5z" />
  </g>

</svg>
