<?xml version="1.0" standalone="no"?>
<!DOCTYPE svg PUBLIC "-//W3C//DTD SVG 1.1//EN" "http://www.w3.org/Graphics/SVG/1.1/DTD/svg11.dtd" >
<svg xmlns="http://www.w3.org/2000/svg" xmlns:xlink="http://www.w3.org/1999/xlink" version="1.1" viewBox="-10 0 1020 1000">
  <g transform="matrix(1 0 0 -1 0 800)">
   <path fill="currentColor"
d="M958 297l-232 -242l232 -164v406zM938 -144l-438 308l-439 -308h877zM273 54l-232 243v-406zM1000 346v-486q0 -19 -13.5 -32.5t-32.5 -13.5h-909q-19 0 -32 13.5t-13 32.5v486q0 16 13 25l469 329q8 6 18 6h2l2 -1q-18 -26 -31 -62l-423 -296l258 -269l174 123q9 6 18 6
q10 0 17 -6l175 -122l257 268l-9 6q17 17 27 32l19 -14q14 -9 14 -25zM936 547q0 83 -58 141t-141 58t-141 -58t-58 -141t58 -141t141 -58t141 58t58 141zM977 547q0 -99 -70 -169.5t-170 -70.5q-39 0 -75 12l-63 -64v96q-47 34 -74.5 85t-27.5 111q0 100 70.5 170t169.5 70
q100 0 170 -70t70 -170zM710 617q10 11 27 11t27 -11t10 -30v-155q0 -21 -10 -31q-10 -12 -27 -12t-27 12q-10 11 -10 31v154q0 20 10 31zM712 642q-12 8 -12 27q0 17 12 26q25 23 51 1q11 -9 11 -27q0 -19 -11 -27q-10 -10 -25 -10q-16 0 -26 10v0z" />
  </g>

</svg>
