<?xml version="1.0" standalone="no"?>
<!DOCTYPE svg PUBLIC "-//W3C//DTD SVG 1.1//EN" "http://www.w3.org/Graphics/SVG/1.1/DTD/svg11.dtd" >
<svg xmlns="http://www.w3.org/2000/svg" xmlns:xlink="http://www.w3.org/1999/xlink" version="1.1" viewBox="-10 0 1020 1000">
  <g transform="matrix(1 0 0 -1 0 800)">
   <path fill="currentColor"
d="M998 77q0 -1 1 -3.5t1 -3.5v-249q0 -8 -6.5 -14.5t-14.5 -6.5h-959q-8 0 -14 6.5t-6 14.5v249q0 5 1 7l1 2q1 2 3 4q0 2 2 2q0 1 1 2l279 202v511h425v-511l279 -202q1 -1 1 -2q2 0 2 -2q2 -2 3 -4q1 -1 1 -2zM328 759v-460h343v460h-343zM314 258l-231 -168h833
l-231 168h-371zM958 -158v207h-917v-207h917zM658 -115q-25 0 -43 17.5t-18 42.5t17.5 43t43.5 18q25 0 43 -18t18 -43t-18 -42.5t-43 -17.5zM658 -35q-8 0 -14 -6t-6 -14t6 -13.5t14 -5.5t14 5.5t6 13.5t-6 14t-14 6zM832 -115q-25 0 -43 17.5t-18 42.5t17.5 43t43.5 18
q25 0 42.5 -18t17.5 -43t-17.5 -42.5t-42.5 -17.5zM832 -35q-8 0 -14 -6t-6 -14t6 -13.5t14 -5.5t13.5 6t5.5 13q0 8 -5.5 14t-13.5 6z" />
  </g>

</svg>
