<?xml version="1.0" standalone="no"?>
<!DOCTYPE svg PUBLIC "-//W3C//DTD SVG 1.1//EN" "http://www.w3.org/Graphics/SVG/1.1/DTD/svg11.dtd" >
<svg xmlns="http://www.w3.org/2000/svg" xmlns:xlink="http://www.w3.org/1999/xlink" version="1.1" viewBox="-10 0 1020 1000">
  <g transform="matrix(1 0 0 -1 0 800)">
   <path fill="currentColor"
d="M1000 -108h-414q10 59 50.5 103.5t96.5 61.5v15q-31 20 -49 56t-18 80q0 64 37.5 109.5t89.5 45.5t89.5 -45.5t37.5 -109.5q0 -43 -18.5 -79.5t-48.5 -56.5v-15q56 -17 96.5 -61.5t50.5 -103.5zM499 -42l-171 -150v84h-25q-62 0 -101 26.5t-51.5 65t-16 76.5t1.5 64l4 27
q0 -43 20 -74t52.5 -46.5t59.5 -22.5t56 -9v108zM146 356v15q-31 20 -49 56t-18 80q0 64 37 109t90 45t90 -45t37 -109q0 -44 -18 -80t-49 -56v-15q56 -17 96.5 -61.5t50.5 -103.5h-413q10 59 49.5 103.5t96.5 61.5zM413 644l170 149v-84h25q45 0 78.5 -14.5t50.5 -37
t27.5 -50t12 -55.5t1 -50.5t-3.5 -37.5l-2 -14q0 43 -20 74t-52.5 46.5t-60 22.5t-56.5 9v-108z" />
  </g>

</svg>
