<?xml version="1.0" standalone="no"?>
<!DOCTYPE svg PUBLIC "-//W3C//DTD SVG 1.1//EN" "http://www.w3.org/Graphics/SVG/1.1/DTD/svg11.dtd" >
<svg xmlns="http://www.w3.org/2000/svg" xmlns:xlink="http://www.w3.org/1999/xlink" version="1.1" viewBox="-10 0 1010 1000">
  <g transform="matrix(1 0 0 -1 0 800)">
   <path fill="currentColor"
d="M619 94q57 -13 89 -22t74 -27t64 -39t38 -55.5t16 -79.5v-53q0 -7 -5.5 -12.5t-12.5 -5.5h-765q-7 0 -12 5.5t-5 12.5v53q0 45 16 79.5t37.5 55.5t63.5 39t74 27t89 22v38q-30 14 -54 34q-49 3 -83.5 8.5t-51 10t-26 11.5t-10.5 10.5t-1 8.5q0 8 5 13q20 20 28.5 86
t6.5 128l1 7q-1 1 -1 3t0.5 5.5t0.5 5.5v14q0 3 0.5 9.5t1.5 9.5q19 203 180 275q50 26 108 29h14h15q57 -3 109 -29q160 -72 179 -276q1 -3 1.5 -9t0.5 -9v-14q0 -2 0.5 -5.5t0.5 -5.5v-3v-6q-2 -62 6.5 -128.5t28.5 -86.5q5 -5 5 -13q0 -5 -1 -8.5t-10.5 -10.5t-26 -11.5
t-51 -10t-83.5 -8.5q-24 -20 -54 -34v-38zM334 202q6 -2 10 -4q70 -58 155 -58q86 0 156 58q4 2 10 4q97 6 136 18q-16 29 -24 83t-8.5 88t0.5 52v6v2q0 7 -1 10v14q0 3 -1 8.5t-1 8.5q-17 183 -159 246q-43 23 -95 26q-6 0 -12 1h-1q-4 -1 -11 -1q-53 -3 -96 -26
q-142 -63 -159 -246q-1 -3 -1 -8.5t-1 -8.5v-14q-1 -3 -1 -9v-3v-6q1 -18 0.5 -52t-8.5 -88t-24 -83q39 -12 136 -18zM864 -164v35q0 37 -12.5 64t-31.5 45t-57 33.5t-72 25t-94 23.5q-14 4 -14 18v37q-44 -13 -84 -13q-39 0 -83 13v-37q0 -15 -14 -18q-60 -14 -94 -23.5
t-72 -25t-57 -33.5t-31.5 -45t-12.5 -64v-35h729z" />
  </g>

</svg>
