<?xml version="1.0" standalone="no"?>
<!DOCTYPE svg PUBLIC "-//W3C//DTD SVG 1.1//EN" "http://www.w3.org/Graphics/SVG/1.1/DTD/svg11.dtd" >
<svg xmlns="http://www.w3.org/2000/svg" xmlns:xlink="http://www.w3.org/1999/xlink" version="1.1" viewBox="-10 0 1010 1000">
  <g transform="matrix(1 0 0 -1 0 800)">
   <path fill="currentColor"
d="M900 561q0 -87 -31 -153t-77 -81l4 -499q0 -11 -8 -19.5t-20 -8.5q-11 0 -19 8.5t-8 19.5l6 498q-47 14 -78.5 80.5t-31.5 154.5q0 99 38.5 169t92.5 70q55 0 93.5 -70t38.5 -169zM234 577v223h18v-136q-12 -41 -18 -87zM198 397l6 -569q0 -11 -8.5 -19.5t-19.5 -8.5
q-12 0 -20 8.5t-8 19.5l6 569q-24 7 -39 27t-15 45v331h18v-242q0 -13 13 -13t13 13v242h18v-242q0 -13 14 -13q13 0 13 13v242h18v-242q0 -13 13 -13q8 0 11 6v-19q0 -38 19 -76q-8 -44 -52 -59zM635 682q-17 -56 -17 -121q0 -63 17 -119q-70 -58 -136 -58q-55 0 -121 47.5
t-66 100.5q0 24 7 64q188 14 316 86zM688 -181q-21 -19 -188 -19h-1q-55 0 -117 5.5t-71 13.5q-4 4 5 5q5 1 24 2q62 2 85 14q24 13 34.5 24.5t17.5 45t7 97.5v22q0 60 -2 93t-11 83.5t-32.5 88t-62.5 65.5l-27 18l-4 2q1 0 2 -1q-97 67 -97 154q0 51 18 118t36 108l18 42
h160h18h17h160q4 -7 10 -21q-12 -12 -25 -33q-1 1 -3.5 8.5t-4.5 10.5h-137h-17h-18h-137q-60 -139 -60 -233q0 -65 74 -119.5t140 -54.5h1q71 0 144 58q8 -18 15 -33q-1 -1 -3.5 -2.5t-3.5 -2.5l2 1q0 -1 -1 -1t-2 -1q-17 -12 -28 -18q-39 -28 -62.5 -65.5t-32.5 -88.5
t-11 -83t-2 -93v-22q0 -64 7 -97.5t17.5 -45t34.5 -24.5q22 -12 94 -14q21 -1 21 -4q0 -2 -1 -3z" />
  </g>

</svg>
