<?xml version="1.0" standalone="no"?>
<!DOCTYPE svg PUBLIC "-//W3C//DTD SVG 1.1//EN" "http://www.w3.org/Graphics/SVG/1.1/DTD/svg11.dtd" >
<svg xmlns="http://www.w3.org/2000/svg" xmlns:xlink="http://www.w3.org/1999/xlink" version="1.1" viewBox="-10 0 1010 1000">
  <g transform="matrix(1 0 0 -1 0 800)">
   <path fill="currentColor"
d="M499 800q170 0 290.5 -121t120.5 -293q0 -171 -120.5 -292.5t-290.5 -121.5q-169 0 -289.5 121.5t-120.5 292.5q0 172 120 293t290 121zM892 391q-1 161 -114.5 275t-273.5 116v-335q22 -2 37 -18t16 -38h335zM495 782q-160 -2 -273.5 -116t-114.5 -275h335q1 22 16 38
t37 18v335zM107 382q1 -106 53 -196t141 -142.5t194 -53.5v341q-20 2 -35 16t-18 35h-335zM504 -10q105 1 194 53.5t141 142.5t53 196h-335q-3 -21 -18 -35t-35 -16v-341zM554 350q24 23 56 13l181 -65q28 -9 35 -39q7 -29 -14 -50l-118 -119q-21 -21 -50 -15t-39 35
l-64 183q-11 33 13 57zM445 428q-25 -23 -56 -12l-181 64q-28 9 -35 39q-7 29 14 50l118 119q21 21 50 15t39 -35l64 -183q11 -33 -13 -57zM445 350q24 -24 13 -57l-64 -183q-10 -29 -39 -35t-50 15l-118 119q-21 21 -14 50q7 30 35 39l181 65q32 10 56 -13zM462 133
q-2 34 24 42v-176q-26 2 -38 4q14 39 14 73v57zM610 416q-31 -11 -56 12q-24 24 -13 57l64 183q10 29 39 35t50 -15l118 -119q21 -21 14 -50q-7 -30 -35 -39zM567 -32q14 -24 32 -45t29 -31l12 -9v-11q0 -20 -15.5 -34.5t-33 -20.5t-43.5 -9.5t-33 -3.5h-16h-15.5t-33.5 3.5
t-42.5 9.5t-33.5 20.5t-15 34.5v11q42 32 73 85q37 -5 67 -5q31 0 68 5zM537 133v-57q0 -39 14 -73q-14 -2 -38 -4v176q12 -4 18 -14.5t6 -18.5v-9z" />
  </g>

</svg>
