<?xml version="1.0" standalone="no"?>
<!DOCTYPE svg PUBLIC "-//W3C//DTD SVG 1.1//EN" "http://www.w3.org/Graphics/SVG/1.1/DTD/svg11.dtd" >
<svg xmlns="http://www.w3.org/2000/svg" xmlns:xlink="http://www.w3.org/1999/xlink" version="1.1" viewBox="-10 0 1020 1000">
  <g transform="matrix(1 0 0 -1 0 800)">
   <path fill="currentColor"
d="M500 202q-42 0 -71.5 29.5t-29.5 70.5t29.5 70.5t71.5 29.5q41 0 70.5 -29.5t29.5 -70.5t-29.5 -70.5t-70.5 -29.5zM871 428q-104 -80 -227 -121q-2 30 -11 50q13 12 27 25t33 33.5t34.5 40t30 42.5t21.5 44t6 42t-13 37q-32 42 -80 60t-80 15l-33 -2q16 -141 -16 -263
q-21 10 -39 13q-7 27 -14 52t-23.5 66t-34.5 69.5t-44.5 48.5t-54.5 15q-32 -5 -60 -21t-44.5 -35t-28.5 -37t-16 -30l-5 -13q118 -47 224 -135q-19 -13 -32 -27q-34 11 -70 20t-87 16t-90 -4.5t-53 -43.5q-19 -56 -11.5 -101t26.5 -74l19 -28q108 79 230 116q2 -23 9 -44
q-16 -15 -31.5 -31.5t-37 -42t-37 -50.5t-26.5 -51.5t-10.5 -50.5t15.5 -42q33 -41 82 -57t81 -12l33 4q-18 121 2 252q23 -11 40 -13q6 -35 16 -71.5t28.5 -83.5t47 -75t62.5 -25q52 5 92.5 37t54.5 61l15 29q-118 55 -215 148q20 13 32 28q33 -11 70 -19t88.5 -14.5
t90.5 6t52 44.5q18 56 9.5 101.5t-28.5 73.5zM903 645q-23 0 -38.5 15.5t-15.5 38.5t15.5 38.5t38.5 15.5t38.5 -15.5t15.5 -38.5t-15.5 -38.5t-38.5 -15.5zM903 -152q-22 0 -38 15.5t-16 37.5q0 23 15.5 38.5t38.5 15.5t38.5 -15.5t15.5 -38.5q0 -22 -16 -37.5t-38 -15.5z
M500 -156q-124 0 -229.5 61t-166.5 166t-61 229t61 229t166.5 166.5t229.5 61.5q189 0 322.5 -134t133.5 -323t-133.5 -322.5t-322.5 -133.5zM96 -152q-22 0 -38 15.5t-16 37.5q0 23 16 38.5t38 15.5t38 -15.5t16 -38.5q0 -22 -16 -37.5t-38 -15.5zM96 753q22 0 38 -15.5
t16 -38.5t-16 -38.5t-38 -15.5t-38 15.5t-16 38.5t16 38.5t38 15.5zM948 796h-897q-22 0 -36.5 -14.5t-14.5 -36.5v-889q0 -22 14.5 -37t36.5 -15h897q22 0 37 15t15 37v889q0 22 -15 36.5t-37 14.5v0z" />
  </g>

</svg>
