<?xml version="1.0" standalone="no"?>
<!DOCTYPE svg PUBLIC "-//W3C//DTD SVG 1.1//EN" "http://www.w3.org/Graphics/SVG/1.1/DTD/svg11.dtd" >
<svg xmlns="http://www.w3.org/2000/svg" xmlns:xlink="http://www.w3.org/1999/xlink" version="1.1" viewBox="-10 0 1010 1000">
  <g transform="matrix(1 0 0 -1 0 800)">
   <path fill="currentColor"
d="M708 284q3 -1 5 -7q3 -31 -17 -51q-17 -17 -42 -17t-42 17l-105 131q-4 -1 -12 -1q-15 0 -28 8l-107 -157q-4 -4 -7 -4q-3 -1 -9 -1q-25 0 -42 17q-18 20 -18 42q0 24 18 42l136 110q0 15 8 29l-156 107q-2 1 -5 7q-5 29 17 51q16 17 41.5 17t42.5 -17l110 -137
q24 0 40 -16q26 -28 13 -61zM306 564l154 -105q1 0 2 1l6 3q2 2 4 2l-102 128q-10 10 -26.5 10t-26.5 -11q-13 -11 -11 -28zM526 395q14 25 -5 44q-10 10 -26 10h-3q-2 0 -4 -0.5t-4.5 -1.5t-3.5 -1q0 -1 -1 -1q-5 -1 -9 -6q-12 -12 -10 -30q0 -5 3 -11q0 -1 1 -1q2 -5 6 -9
q17 -17 39 -8l4 2q1 1 2 1q1 1 3 2.5t3 2.5t5 7zM681 241q11 13 11 28l-154 106l-2 -2q-5 -5 -9 -7l101 -126q10 -9 26 -9t27 10zM499 800q158 0 270.5 -112.5t112.5 -270.5q0 -159 -112.5 -271.5t-270.5 -112.5q-159 0 -271 112.5t-112 271.5q0 158 112 270.5t271 112.5z
M499 54q149 0 255.5 106.5t106.5 256.5t-106.5 256t-255.5 106q-150 0 -256 -106t-106 -256t106 -256.5t256 -106.5zM531 3v-104h198v-99h-460v99h197v104q22 -2 33 -2q12 0 32 2z" />
  </g>

</svg>
