<?xml version="1.0" standalone="no"?>
<!DOCTYPE svg PUBLIC "-//W3C//DTD SVG 1.1//EN" "http://www.w3.org/Graphics/SVG/1.1/DTD/svg11.dtd" >
<svg xmlns="http://www.w3.org/2000/svg" xmlns:xlink="http://www.w3.org/1999/xlink" version="1.1" viewBox="-10 0 1020 1000">
  <g transform="matrix(1 0 0 -1 0 800)">
   <path fill="currentColor"
d="M1000 428h-62v-138h62v-110h-62v-139h62v-110h-62v-106h-195v106h-32v-106h-195v106h-33v-106h-195v106h-32v-106h-195v106h-61v110h61v139h-61v110h61v138h-61v110h61v91l97 146l98 -146v-91h32v91l98 146l97 -146v-91h33v91l97 146l98 -146v-91h32v91l98 146l97 -146
v-91h62v-110zM957 495h-19v-24h19v24zM743 495h-32v-24h32v24zM743 223v24h-32v-24h32zM743 180h-32v-139h32v139zM711 290h32v138h-32v-138zM516 495h-33v-24h33v24zM516 223v24h-33v-24h33zM516 180h-33v-139h33v139zM483 290h33v138h-33v-138zM288 495h-32v-24h32v24z
M288 223v24h-32v-24h32zM288 180h-32v-139h32v139zM256 290h32v138h-32v-138zM42 471h19v24h-19v-24zM42 223h19v24h-19v-24zM42 -26h19v24h-19v-24zM213 -131v62v110v139v110v138v110v78l-55 82l-54 -82v-78v-110v-138v-110v-139v-110v-62h109zM256 -26h32v24h-32v-24z
M440 -131v62v110v139v110v138v110v78l-54 82l-55 -82v-78v-110v-138v-110v-139v-110v-62h109zM483 -26h33v24h-33v-24zM668 -131v62v110v139v110v138v110v78l-55 82l-55 -82v-78v-110v-138v-110v-139v-110v-62h110zM711 -26h32v24h-32v-24zM957 -2h-19v-24h19v24zM957 247
h-19v-24h19v24zM895 290v138v110v78l-54 82l-55 -82v-78v-110v-138v-110v-139v-110v-62h109v62v110v139v110z" />
  </g>

</svg>
