<?xml version="1.0" standalone="no"?>
<!DOCTYPE svg PUBLIC "-//W3C//DTD SVG 1.1//EN" "http://www.w3.org/Graphics/SVG/1.1/DTD/svg11.dtd" >
<svg xmlns="http://www.w3.org/2000/svg" xmlns:xlink="http://www.w3.org/1999/xlink" version="1.1" viewBox="-10 0 1020 1000">
  <g transform="matrix(1 0 0 -1 0 800)">
   <path fill="currentColor"
d="M208 -49h-171v437h171v-437zM70 -15h104v369h-104v-369zM245 -57v-55h-245v55h245zM245 453v-55h-245v55h245zM962 -49h-171v437h171v-437zM825 -15h104v369h-104v-369zM1000 -57v-55h-246v55h246zM1000 453v-55h-246v55h246zM742 -46v-11v-36h-485v36v11h-12h-26v56h561
v-56h-26h-12zM854 321h37v-303h-37v303zM100 321h37v-303h-37v303zM479 713h1v-179q-18 0 -40 -5l-46 174q45 10 85 10zM597 703l-47 -174q-20 5 -39 5v179q39 0 86 -10zM762 486l91 64q25 -28 47 -64h-138zM637 498l112 142q48 -30 82 -66l-150 -106q-24 18 -44 30z
M383 512l-114 144q46 24 94 39l46 -173q-22 -8 -26 -10zM705 446l11 8v-1v-18zM275 454l11 -8l-11 -11v18v1zM310 468l-151 106q36 36 82 66l113 -142q-25 -14 -44 -30zM138 550l91 -64h-138q18 32 47 64zM722 656l-114 -144q-9 4 -27 10l47 173q48 -15 94 -39zM482 30
q-13 1 -23.5 8t-14.5 14l-4 6q17 -8 21 4q4 10 -14 17q-48 20 -54 73q-2 15 0.5 28.5t6.5 19.5l3 6q-1 -13 4 -23t11.5 -12t11.5 0q4 3 5.5 9.5t0.5 11.5l-1 5q-12 30 -4.5 55.5t22.5 41.5l15 16q-13 -22 -13.5 -41.5t5.5 -28.5l6 -8q1 21 12 36.5t31.5 31t23.5 18.5
q8 12 7.5 27.5t-5.5 28.5l-5 14q26 -12 36 -45.5t-3 -60.5q-7 -19 -6.5 -33t5.5 -21l4 -8q4 16 18.5 23t27.5 7l12 -1l-10 -10t-14.5 -23.5t-5.5 -32.5q1 -4 4.5 -23.5t3.5 -27t-2.5 -23.5t-9.5 -30q-12 -22 -39 -34.5t-48 -13.5z" />
  </g>

</svg>
