<?xml version="1.0" standalone="no"?>
<!DOCTYPE svg PUBLIC "-//W3C//DTD SVG 1.1//EN" "http://www.w3.org/Graphics/SVG/1.1/DTD/svg11.dtd" >
<svg xmlns="http://www.w3.org/2000/svg" xmlns:xlink="http://www.w3.org/1999/xlink" version="1.1" viewBox="-10 0 1010 1000">
  <g transform="matrix(1 0 0 -1 0 800)">
   <path fill="currentColor"
d="M351 -108q-11 10 -11 25t11 26l112 112v129q0 15 10.5 25.5t25.5 10.5v0q15 0 25.5 -10.5t10.5 -25.5v-129l112 -112q11 -11 11 -26t-11 -25t-25.5 -10t-25.5 10l-61 62v-117q0 -15 -10.5 -26t-25.5 -11v0q-15 0 -25.5 11t-10.5 26v117l-61 -62q-10 -10 -25 -10t-26 10z
M647 709q11 -11 11 -26t-11 -25l-112 -112v-129q0 -15 -10.5 -25.5t-25.5 -10.5v0q-15 0 -25.5 10.5t-10.5 25.5v129l-112 112q-11 10 -11 25t11 26t26 11t25 -11l61 -62v117q0 15 10.5 25.5t25.5 10.5v0q15 0 25.5 -10.5t10.5 -25.5v-117l61 62q11 11 25.5 11t25.5 -11z
M774 -31q-15 -4 -27.5 4t-16.5 22l-37 154l-110 67q-13 8 -16.5 22.5t4.5 27.5v0q7 13 21.5 16.5t27.5 -4.5l110 -67l155 37q14 4 26.5 -4t16.5 -22t-4 -27t-22 -17l-85 -20l100 -61q13 -8 16.5 -22t-4.5 -28v0q-7 -13 -21.5 -16.5t-27.5 4.5l-100 61l20 -84q4 -14 -4 -27
t-22 -16zM268 -5q-4 -14 -16.5 -22t-27.5 -4q-14 3 -22 16t-4 27l20 84l-100 -61q-13 -8 -27.5 -4.5t-21.5 16.5v0q-8 13 -4.5 28t16.5 22l100 61l-84 20q-15 4 -23 17t-4 27t16.5 22t27.5 4l154 -37l110 67q13 8 27.5 4.5t21.5 -16.5v0q8 -13 4.5 -27.5t-16.5 -22.5
l-110 -67zM730 605q4 14 16.5 22t27.5 4q14 -4 22 -16.5t4 -26.5l-20 -85l100 61q13 8 27 4.5t22 -16.5v0q8 -13 4.5 -27t-16.5 -22l-100 -61l85 -21q14 -3 22 -16t4 -27q-4 -15 -16.5 -22.5t-26.5 -4.5l-155 38l-110 -67q-13 -8 -27 -4.5t-22 16.5v0q-8 13 -4.5 27t16.5 22
l110 67zM268 605l37 -155l110 -67q13 -8 16.5 -22t-4.5 -27v0q-8 -13 -22 -16.5t-27 4.5l-110 67l-154 -38q-15 -3 -27.5 4.5t-16.5 22.5q-4 14 4 27t23 16l84 21l-100 61q-13 7 -16.5 21.5t4.5 27.5v0q8 13 22 16.5t27 -4.5l100 -61l-20 85q-4 14 4 26.5t22 16.5
q15 4 27.5 -4t16.5 -22v0z" />
  </g>

</svg>
