<?xml version="1.0" standalone="no"?>
<!DOCTYPE svg PUBLIC "-//W3C//DTD SVG 1.1//EN" "http://www.w3.org/Graphics/SVG/1.1/DTD/svg11.dtd" >
<svg xmlns="http://www.w3.org/2000/svg" xmlns:xlink="http://www.w3.org/1999/xlink" version="1.1" viewBox="-10 0 1010 1000">
  <g transform="matrix(1 0 0 -1 0 800)">
   <path fill="currentColor"
d="M929 111q11 -6 14.5 -17.5t-2.5 -22.5q-7 -16 -26 -16q-7 0 -14 3l-71 38l-23 -46q-10 -16 -27 -16q-7 0 -13 3q-11 6 -14.5 18t1.5 22l24 47l-94 50l-91 -92h-64v-111h51q12 0 20.5 -9t8.5 -21q0 -13 -8.5 -21.5t-20.5 -8.5h-51v-81q0 -12 -8.5 -21t-21.5 -9
q-12 0 -20.5 9t-8.5 21v81h-51q-12 0 -21 8.5t-9 21.5q0 12 9 21t21 9h51v111h-65l-91 92l-94 -50l24 -47q6 -11 2.5 -22.5t-14.5 -17.5q-8 -3 -14 -3q-18 0 -26 16l-24 46l-71 -38q-6 -3 -14 -3q-19 0 -26 16q-5 10 -1.5 22t13.5 18l72 38l-23 44q-6 11 -2.5 23t14.5 17
q11 6 23 2.5t17 -14.5l23 -44l89 47v153l-89 47l-23 -43q-8 -17 -26 -17q-4 0 -14 4q-11 5 -14.5 17t2.5 23l23 44l-72 38q-10 6 -13.5 18t1.5 23q6 11 17.5 14.5t22.5 -2.5l71 -38l24 46q5 11 17 14.5t23 -1.5q11 -6 14.5 -17.5t-2.5 -22.5l-24 -47l94 -50l91 91h65v112
h-51q-12 0 -21 9t-9 21q0 13 9 21.5t21 8.5h51v81q0 12 8.5 20.5t20.5 8.5q13 0 21.5 -8.5t8.5 -20.5v-81h50q13 0 21.5 -8.5t8.5 -21.5q0 -12 -8.5 -21t-21.5 -9h-50v-112h64l91 -91l94 50l-24 47q-5 10 -1.5 22t14.5 18q10 5 22 1.5t18 -14.5l23 -46l71 38q11 6 22.5 2.5
t17.5 -14.5t2.5 -23t-14.5 -18l-71 -38l23 -44q5 -11 1.5 -23t-14.5 -17q-8 -4 -14 -4q-18 0 -26 17l-23 43l-89 -47v-153l89 -48l23 44q5 11 17 15t23 -2q11 -5 14.5 -17t-1.5 -23l-23 -44zM657 231v139l-88 89h-139l-89 -89v-139l89 -89h139z" />
  </g>

</svg>
