<?xml version="1.0" standalone="no"?>
<!DOCTYPE svg PUBLIC "-//W3C//DTD SVG 1.1//EN" "http://www.w3.org/Graphics/SVG/1.1/DTD/svg11.dtd" >
<svg xmlns="http://www.w3.org/2000/svg" xmlns:xlink="http://www.w3.org/1999/xlink" version="1.1" viewBox="-10 0 1010 1000">
  <g transform="matrix(1 0 0 -1 0 800)">
   <path fill="currentColor"
d="M97 150q-12 76 19 116q11 14 25 16.5t23 -2.5l9 -4q10 34 34 52q10 8 25 8t25 -4l10 -4q2 5 6.5 13t18.5 21t28 13t28 -5.5t22 -11.5l7 -6l3 3q10 21 11 129q0 37 -3.5 98t-4 89t7.5 81q0 2 1.5 5t5.5 10.5t9 10.5t13.5 5.5t19.5 -5.5q19 -11 27 -51.5t15 -141.5
q3 -51 9 -104.5t10.5 -86t10.5 -74.5t8 -53q4 -28 8 -44t16.5 -33t32.5 -19q22 -2 37 9t37.5 40.5t42.5 48.5q35 33 86 29q43 -3 47 -30q3 -23 -26 -53q-19 -20 -40.5 -42.5t-29.5 -30.5t-18 -20t-15.5 -21.5t-11.5 -23.5q-50 -117 -102 -173q-18 -20 -32.5 -46t-19.5 -42
l-5 -16h-320q-5 53 -50 99q-16 17 -25.5 45t-13.5 52.5t-10 74t-11 79.5zM643 659l34 35v-128h-128l35 34l-75 75l59 58zM776 409l-35 -34v128h128l-35 -35l75 -74l-59 -59z" />
  </g>

</svg>
