<?xml version="1.0" standalone="no"?>
<!DOCTYPE svg PUBLIC "-//W3C//DTD SVG 1.1//EN" "http://www.w3.org/Graphics/SVG/1.1/DTD/svg11.dtd" >
<svg xmlns="http://www.w3.org/2000/svg" xmlns:xlink="http://www.w3.org/1999/xlink" version="1.1" viewBox="-10 0 1010 1000">
  <g transform="matrix(1 0 0 -1 0 800)">
   <path fill="currentColor"
d="M872 289q15 -35 -27 -80q-19 -21 -47 -49l-10.5 -10.5t-9 -9.5t-7 -8t-7 -8t-5.5 -6.5t-5 -6.5t-4 -6t-4.5 -7l-3.5 -7t-4 -9q-44 -140 -108 -178q-25 -15 -43 -37.5t-23.5 -35.5t-5.5 -16q-6 -15 -20 -15h-284q-19 0 -21 19q-5 44 -43 84q-17 18 -27.5 47t-14.5 52
t-10 71q-7 58 -11 83q-14 83 22 129q19 24 47 24q9 0 13 -1q12 26 31 41q16 12 38 12q10 0 24 -4q26 42 61 42q21 0 45 -12q7 42 7 112q2 176 21 264q3 12 15 24t33 12q4 0 16 -2q67 -17 56 -208q-7 -115 21 -307l1 -6q6 -38 13.5 -56t23.5 -19q14 -1 23.5 6.5t26.5 29.5
q28 35 47 53q36 34 90 34t70 -35zM816 236q23 26 19 37q-7 11 -33 11q-37 0 -62 -23q-20 -19 -42 -49q-16 -20 -24.5 -29t-25.5 -17t-37 -6q-60 6 -73 110l-1 7q-28 195 -22 314q4 59 -1 99t-11.5 53t-12.5 14q-2 1 -6 1q-7 0 -8 -5q-20 -85 -20 -255q-1 -144 -28 -161
q-14 -5 -23 4q-20 17 -42 17q-16 0 -33 -34q-3 -7 -12 -11q-9 -2 -16 1q-12 6 -24 6q-7 0 -13 -3q-19 -16 -26 -41q-3 -10 -12 -13t-18 2q-8 4 -13 4q-8 0 -15 -9q-25 -33 -14 -97q3 -16 6.5 -44.5t5.5 -40.5q5 -44 8.5 -64t11.5 -45t21 -38q38 -41 50 -90h254q27 63 85 97
q30 18 55 68t35 88l1 1v2q12 26 24.5 42t44.5 49q5 5 20.5 21t26.5 27zM148 686q-6 5 -6 14q0 10 6 14l79 79q14 12 28 0q6 -6 6 -14.5t-6 -14.5l-44 -44h127q8 0 14 -6t6 -14t-6 -14t-14 -6h-127l44 -44q6 -6 6 -14.5t-6 -14.5t-14 -6t-14 6z" />
  </g>

</svg>
