<?xml version="1.0" standalone="no"?>
<!DOCTYPE svg PUBLIC "-//W3C//DTD SVG 1.1//EN" "http://www.w3.org/Graphics/SVG/1.1/DTD/svg11.dtd" >
<svg xmlns="http://www.w3.org/2000/svg" xmlns:xlink="http://www.w3.org/1999/xlink" version="1.1" viewBox="-10 0 1010 1000">
  <g transform="matrix(1 0 0 -1 0 800)">
   <path fill="currentColor"
d="M675 204q31 30 76 25q37 -4 37 -30q0 -18 -22 -42q-16 -17 -34 -36t-25 -26.5t-15.5 -18t-13 -18.5t-9.5 -20q-3 -13 -10 -33t-29.5 -60.5t-47.5 -55.5q-24 -15 -42 -37t-24 -37l-5 -15h-248q-4 45 -42 86q-13 14 -21.5 38t-12 45t-8.5 63.5t-9 68.5q-10 65 16 100
q9 12 21 14t19 -2l8 -4q4 47 24 63q9 7 21.5 7t20.5 -3l9 -4q2 14 4 36.5t5 70.5t2 69q-2 27 2.5 92t4.5 87q1 29 15 42.5t30.5 7.5t22.5 -27q10 -35 13 -242l2 -106l2 -1q5 8 10 100q3 62 1 97.5t-1.5 68.5t7.5 62q1 3 2.5 6.5t10 8t21.5 1.5q20 -5 32 -62t8 -135
q-3 -48 1.5 -94t13.5 -97t10 -56q3 -23 6.5 -37t14 -28.5t27.5 -16.5q19 -2 31.5 7.5t32 35.5t35.5 42zM489 762q-7 1 -12 7t-4 14q4 18 22 16q79 -12 127 -81q46 -69 27 -149q-3 -15 -18 -15q-3 0 -4 1q-8 2 -12 8.5t-2 13.5q14 64 -22 120q-37 54 -102 65zM199 554
q-15 0 -18 15q-19 80 27 149q46 68 127 81q8 1 14 -4t7 -12q2 -8 -3 -14t-12 -7q-67 -11 -102 -65q-37 -56 -22 -120q4 -18 -14 -22q-1 -1 -4 -1z" />
  </g>

</svg>
