<?xml version="1.0" standalone="no"?>
<!DOCTYPE svg PUBLIC "-//W3C//DTD SVG 1.1//EN" "http://www.w3.org/Graphics/SVG/1.1/DTD/svg11.dtd" >
<svg xmlns="http://www.w3.org/2000/svg" xmlns:xlink="http://www.w3.org/1999/xlink" version="1.1" viewBox="-10 0 1010 1000">
  <g transform="matrix(1 0 0 -1 0 800)">
   <path fill="currentColor"
d="M536 460q30 0 51 -21t21 -50t-21 -50t-51 -21q-29 0 -50.5 21t-21.5 50t21.5 50t50.5 21zM848 106q-4 -10 -9.5 -27t-13 -59.5t-3.5 -73.5l26 -146h-453q0 3 -0.5 8.5t-4 19.5t-9 24.5t-17 19.5t-26.5 9h-141q-27 0 -42.5 34.5t2.5 91.5q-18 14 -18 38v32q-14 4 -14 21.5
t7 33.5l7 16q-2 0 -5.5 -0.5t-13 -1.5t-18.5 -1.5t-20 0.5t-18.5 4t-13 8.5t-5.5 13.5q0 28 18.5 68.5t36.5 67.5l19 27q0 5 -5.5 24.5t-5.5 23.5q0 173 124 295.5t299 122.5t299 -122.5t124 -295.5q0 -155 -106 -276zM760 346h-37q-7 -32 -24 -57l26 -25q13 -13 13 -31
t-13 -31t-31 -13t-31 13l-26 26q-25 -16 -57 -24v-36q0 -18 -13 -30.5t-31 -12.5t-31 12.5t-13 30.5v36q-30 8 -57 24l-26 -26q-13 -13 -31 -13t-31 13t-13 31t13 31l26 25q-17 25 -24 57h-36q-18 0 -31 12.5t-13 30.5t13 30.5t31 12.5h36q7 32 24 57l-26 26
q-13 13 -13 30.5t13 30.5t31 13t31 -13l26 -25q29 16 57 23v36q0 18 13 30.5t31 12.5t31 -12.5t13 -30.5v-36q30 -7 57 -23l26 25q13 13 31 13t31 -13t13 -30.5t-13 -30.5l-26 -26q17 -25 24 -57h37q18 0 30.5 -12.5t12.5 -30.5t-12.5 -30.5t-30.5 -12.5zM536 460
q-29 0 -50.5 -21t-21.5 -50t21.5 -50t50.5 -21q30 0 51 21t21 50t-21 50t-51 21zM848 106q106 121 106 276q0 173 -124 295.5t-299 122.5t-299 -122.5t-124 -295.5q0 -4 5.5 -23.5t5.5 -24.5q-8 -11 -20.5 -29.5t-33 -62t-20.5 -71.5q0 -18 23.5 -23.5t47.5 -2.5l23 3
q-1 -1 -2 -3.5t-3.5 -9t-4.5 -12.5t-3.5 -14t-0.5 -14t4 -11t10 -7v-32q0 -11 4.5 -20.5t8.5 -13.5l5 -4q-18 -57 -2.5 -91.5t42.5 -34.5h141q24 0 38.5 -20.5t16.5 -40.5l2 -20h453q-17 77 -26 146q-4 31 2.5 71t15.5 65zM760 346q18 0 30.5 12.5t12.5 30.5t-12.5 30.5
t-30.5 12.5h-37q-7 32 -24 57l26 26q13 13 13 30.5t-13 30.5t-31 13t-31 -13l-26 -25q-27 16 -57 23v36q0 18 -13 30.5t-31 12.5t-31 -12.5t-13 -30.5v-36q-28 -7 -57 -23l-26 25q-13 13 -31 13t-31 -13t-13 -30.5t13 -30.5l26 -26q-17 -25 -24 -57h-36q-18 0 -31 -12.5
t-13 -30.5t13 -30.5t31 -12.5h36q7 -32 24 -57l-26 -25q-13 -13 -13 -31t13 -31t31 -13t31 13l26 26q27 -16 57 -24v-36q0 -18 13 -30.5t31 -12.5t31 12.5t13 30.5v36q32 8 57 24l26 -26q13 -13 31 -13t31 13t13 31t-13 31l-26 25q17 25 24 57h37z" />
  </g>

</svg>
