<?xml version="1.0" standalone="no"?>
<!DOCTYPE svg PUBLIC "-//W3C//DTD SVG 1.1//EN" "http://www.w3.org/Graphics/SVG/1.1/DTD/svg11.dtd" >
<svg xmlns="http://www.w3.org/2000/svg" xmlns:xlink="http://www.w3.org/1999/xlink" version="1.1" viewBox="-10 0 1010 1000">
  <g transform="matrix(1 0 0 -1 0 800)">
   <path fill="currentColor"
d="M624 136q5 23 -17 28l-102 27q-9 2 -17.5 -2.5t-10.5 -14.5q-5 -22 17 -27l102 -27q1 0 3 -0.5t3 -0.5q17 0 22 17zM624 64q2 9 -2.5 17.5t-14.5 10.5l-102 27q-9 2 -17.5 -3t-10.5 -14q-5 -21 17 -28l102 -26q2 -1 6 -1q17 0 22 17zM624 -6q2 9 -2.5 17.5t-14.5 10.5
l-102 26q-9 2 -17.5 -2.5t-10.5 -13.5t2.5 -17.5t14.5 -10.5l102 -26q2 -1 6 -1q17 0 22 17zM764 537l30 -8q-27 -111 -128 -164v-345q0 -38 -20.5 -68t-54.5 -44v-62q0 -19 -13 -32.5t-32 -13.5t-32.5 13.5t-13.5 32.5v62q-34 14 -54.5 44t-20.5 68v275l-194 51l-1 -5
q-2 -13 -15 -9q-11 2 -9 14l22 93q2 11 15 9q11 -4 9 -15l-3 -13l161 -42q-51 34 -81.5 89.5t-30.5 119.5q0 35 10 72l30 -7q-10 -35 -10 -65q0 -91 65 -156t156 -65q78 0 138 48.5t77 122.5zM546 800q86 0 146 -60t60 -146t-60 -146.5t-146 -60.5t-146.5 60.5t-60.5 146.5
t60.5 146t146.5 60zM546 649q22 0 38.5 -16.5t16.5 -38.5q0 -23 -16 -39t-39 -16t-39 16t-16 39t16 39t39 16v0z" />
  </g>

</svg>
