<?xml version="1.0" standalone="no"?>
<!DOCTYPE svg PUBLIC "-//W3C//DTD SVG 1.1//EN" "http://www.w3.org/Graphics/SVG/1.1/DTD/svg11.dtd" >
<svg xmlns="http://www.w3.org/2000/svg" xmlns:xlink="http://www.w3.org/1999/xlink" version="1.1" viewBox="-10 0 1010 1000">
  <g transform="matrix(1 0 0 -1 0 800)">
   <path fill="currentColor"
d="M753 264q35 33 86 29q42 -4 45 -32q2 -22 -25 -51q-19 -20 -40 -42t-29 -30t-18 -20t-15 -21t-11 -23q-1 -5 -4 -14.5t-12.5 -34.5t-20.5 -46t-28 -43t-35 -33q-29 -17 -49.5 -43t-26.5 -43l-7 -17h-287q-5 52 -49 98q-15 17 -25 44.5t-13.5 52t-9.5 73t-11 78.5
q-12 77 19 115q10 14 24 16.5t23 -1.5l8 -5l29 72q10 8 25 8t24 -4l10 -4q5 -2 7 36.5t1 94.5t-2.5 106.5t-3.5 83.5q-4 70 1.5 102t30.5 33q13 0 22 -6t14.5 -14t9.5 -26t6 -31t5 -39l25 -306l2 -1q7 8 12 115q2 31 3.5 72.5t2.5 60t3 44t5 45t8 41.5q0 2 1 4.5t4 9t8 9
t13 5t18 -4.5q40 -21 28 -231q-3 -56 2 -109t15.5 -111t11.5 -64q3 -20 5.5 -32t8.5 -28t16.5 -24.5t25.5 -10.5q22 -2 36.5 9t36.5 40t41 48zM262 748v-87h-109v-51l-93 94l93 95v-51h109z" />
  </g>

</svg>
