<?xml version="1.0" standalone="no"?>
<!DOCTYPE svg PUBLIC "-//W3C//DTD SVG 1.1//EN" "http://www.w3.org/Graphics/SVG/1.1/DTD/svg11.dtd" >
<svg xmlns="http://www.w3.org/2000/svg" xmlns:xlink="http://www.w3.org/1999/xlink" version="1.1" viewBox="-10 0 1010 1000">
  <g transform="matrix(1 0 0 -1 0 800)">
   <path fill="currentColor"
d="M681 196q30 29 74 25q37 -4 38 -29q1 -18 -22 -42q-18 -19 -40 -42t-28.5 -30t-14 -18.5t-14.5 -25.5q-3 -13 -10 -32.5t-29.5 -59t-46.5 -54.5t-42 -37t-24 -37l-5 -14h-247q-5 44 -42 84q-13 14 -21.5 37.5t-12 44.5t-8.5 62t-9 67q-10 64 16 99q9 12 20.5 14t18.5 -2
l8 -4q5 46 25 61q9 7 21.5 7t21.5 -4l8 -3q1 14 3.5 36.5t5 69t1.5 67.5q-2 27 2.5 93.5t5.5 82.5q0 28 14 41.5t30.5 7.5t22.5 -27q5 -15 8 -46.5t3.5 -58.5t1.5 -72t1 -60l1 -104l2 -1q5 8 10 98q3 61 1.5 96t-1 67.5t6.5 60.5q1 2 2.5 5.5t10.5 8.5t21 2q20 -5 32 -61
t8 -133q-3 -48 1.5 -92.5t13.5 -94.5t10 -55q3 -23 6.5 -36.5t14 -28t27.5 -16.5q19 -2 31.5 7.5t31.5 34.5t36 41zM484 689q-8 1 -13 7t-3 14q4 18 21 15q49 -8 76 -47t16 -88q-2 -14 -18 -14h-4q-18 4 -14 22q8 32 -11 59q-17 26 -50 32zM495 762q-18 4 -16 21q3 18 22 16
q81 -13 126 -80q46 -67 27 -146q-3 -14 -18 -14h-4q-18 4 -14 22q15 63 -22 118q-36 54 -101 63zM258 678q28 39 76 47q7 1 13.5 -3t8.5 -12q1 -8 -4 -14t-12 -7q-33 -6 -51 -32q-18 -25 -11 -59q2 -7 -2 -13.5t-12 -8.5h-4q-15 0 -18 14q-11 47 16 88zM187 559
q-15 0 -18 14q-18 81 27 146q47 67 127 80q19 2 21 -16q3 -17 -15 -21q-64 -9 -102 -63q-36 -55 -22 -118q2 -7 -2 -13.5t-12 -8.5h-4z" />
  </g>

</svg>
