<?xml version="1.0" standalone="no"?>
<!DOCTYPE svg PUBLIC "-//W3C//DTD SVG 1.1//EN" "http://www.w3.org/Graphics/SVG/1.1/DTD/svg11.dtd" >
<svg xmlns="http://www.w3.org/2000/svg" xmlns:xlink="http://www.w3.org/1999/xlink" version="1.1" viewBox="-10 0 1010 1000">
  <g transform="matrix(1 0 0 -1 0 800)">
   <path fill="currentColor"
d="M729 325q55 0 69 -35q16 -36 -26 -80q-28 -29 -47 -50q-30 -30 -40.5 -43t-19.5 -35q-44 -140 -108 -178q-25 -15 -43 -37.5t-23.5 -35.5t-5.5 -16q-4 -15 -19 -15h-284q-18 0 -20 19q-5 45 -43 84q-17 18 -27.5 47.5t-14.5 52.5t-10 71q-6 55 -11 83q-14 83 22 129
q18 24 47 24q8 0 12 -1q15 27 32 41q15 12 38 12q11 0 23 -4q28 42 61 42q21 0 45 -12q7 42 7 112q2 177 21 265q3 12 15 23.5t33 11.5q10 0 15 -1q68 -17 57 -209q-7 -120 20 -307l1 -6q6 -38 13.5 -56t23.5 -20q13 -1 23 6.5t28 30.5q22 31 46 53q36 34 90 34zM742 237
q24 25 19 37q-4 11 -32 11q-37 0 -62 -23q-20 -19 -42 -49q-16 -20 -24.5 -29t-25.5 -17t-37 -6t-34.5 13t-22 31t-10.5 32t-6 34l-1 6q-28 198 -21 316q3 59 -1.5 99t-11 53t-12.5 14q-2 1 -7 1q-3 0 -4.5 -1t-2.5 -2v-1q-20 -88 -20 -256q-1 -145 -28 -162q-14 -5 -23 4
q-20 17 -42 17q-16 0 -33 -34q-3 -8 -12 -11q-8 -2 -15 1q-12 6 -24 6q-8 0 -13 -3q-19 -15 -26 -41q-3 -10 -13 -13t-18 2q-3 3 -12 3t-15 -8q-25 -33 -14 -97q4 -23 11 -86q5 -41 8.5 -63t12 -46.5t21.5 -37.5q35 -37 50 -90h253q24 61 84 98q30 18 55 67.5t35 87.5v1
q1 1 1 2q12 27 24.5 43t44.5 48q19 20 46 49zM943 496q6 -6 6 -14.5t-6 -14.5l-81 -81q-6 -6 -14 -6q-9 0 -15 6l-81 81q-14 15 0 29t29 0l45 -45q-4 59 -23.5 102t-51 67t-63.5 36t-69 16l45 -46q14 -14 0 -29q-4 -6 -14 -6q-8 0 -14 6l-81 81q-6 6 -6 15q0 8 6 14l81 81
q6 6 14.5 6t13.5 -6q14 -14 0 -28l-47 -48q113 -11 178.5 -80t71.5 -184l48 48q5 6 13.5 6t14.5 -6z" />
  </g>

</svg>
