<?xml version="1.0" standalone="no"?>
<!DOCTYPE svg PUBLIC "-//W3C//DTD SVG 1.1//EN" "http://www.w3.org/Graphics/SVG/1.1/DTD/svg11.dtd" >
<svg xmlns="http://www.w3.org/2000/svg" xmlns:xlink="http://www.w3.org/1999/xlink" version="1.1" viewBox="-10 0 1010 1000">
  <g transform="matrix(1 0 0 -1 0 800)">
   <path fill="currentColor"
d="M786 327q54 0 70 -35q15 -37 -27 -81q-19 -21 -47 -49q-31 -33 -41 -45.5t-20 -34.5q-4 -10 -16 -35t-38 -69.5t-50 -69.5q-10 -11 -19 -24.5t-14.5 -25t-9.5 -21.5l-6 -15l-2 -6q-4 -16 -19 -16h-313q-18 0 -20 19q-5 45 -43 84q-17 18 -28 47.5t-15 53t-10 71.5
q-6 55 -11 83q-13 84 22 130q19 24 47 24q3 0 7 -0.5t6 -0.5q17 29 32 41q17 12 38 12q10 0 24 -4q26 42 61 42q23 0 45 -11q4 32 4 97q1 36 -3 101q-8 115 4 164q4 17 17 32t33 15q16 0 28 -8q25 -15 34 -55.5t17 -148.5q7 -98 32 -275q5 -30 5 -34q6 -39 14 -57t24 -19
q13 -1 23 6.5t27 30.5q28 35 48 53q36 34 90 34zM800 239q23 26 19 37q-7 11 -33 11q-37 0 -62 -23q-18 -17 -43 -49q-16 -20 -24.5 -29.5t-25.5 -17.5t-38 -6q-20 2 -34.5 13t-22 31.5t-10.5 32.5t-6 34q0 4 -5 34q-23 149 -33 278q-11 159 -31 172l-7 3q-5 0 -10 -16
q-10 -43 -4 -152q5 -78 4 -104q0 -66 -4 -99t-10.5 -42t-18.5 -9q-5 0 -10 3q-2 1 -4 3q-20 17 -43 17q-16 0 -33 -34q-3 -7 -12 -11q-9 -2 -16 1q-12 6 -24 6q-9 0 -13 -3q-19 -16 -26 -41q-3 -10 -13 -13q-9 -4 -18 2q-3 3 -13 3q-7 0 -14 -8q-26 -33 -15 -98
q7 -44 12 -85q5 -44 8.5 -64.5t12 -45.5t21.5 -39q38 -41 50 -90h281q18 53 55 94q21 23 45 64t37.5 69t13.5 30q12 27 24.5 43t44.5 49q28 28 48 49zM649 582l-90 90q-6 5 -6 13.5t6 14.5q15 14 29 0l90 -89v62q0 9 6 15t15 6q8 0 14 -6t6 -15v-111q0 -2 -2 -8v-1
q-2 -4 -4 -5q-6 -6 -14 -6h-1h-112q-8 0 -14 6t-6 14t6 14t14 6h63zM892 398q14 -14 0 -29q-6 -6 -14 -6q-9 0 -15 6l-90 90v-63q0 -8 -6 -14t-14 -6t-14 6t-6 14v112q0 5 1 7q1 3 5 7t6 5q3 1 8 1h112q8 0 14.5 -6t6.5 -14q0 -9 -6.5 -15t-14.5 -6h-63z" />
  </g>

</svg>
