<?xml version="1.0" standalone="no"?>
<!DOCTYPE svg PUBLIC "-//W3C//DTD SVG 1.1//EN" "http://www.w3.org/Graphics/SVG/1.1/DTD/svg11.dtd" >
<svg xmlns="http://www.w3.org/2000/svg" xmlns:xlink="http://www.w3.org/1999/xlink" version="1.1" viewBox="-10 0 1010 1000">
  <g transform="matrix(1 0 0 -1 0 800)">
   <path fill="currentColor"
d="M704 269q35 34 86 29q43 -3 45 -32q2 -22 -25 -51q-18 -20 -39.5 -42.5t-29.5 -30.5t-18 -20t-15 -21.5t-11 -23.5q-50 -117 -101 -173q-18 -20 -32 -46t-19 -42l-5 -16h-315q-5 53 -49 99q-15 17 -25 45t-13.5 52.5t-9.5 73.5t-11 80q-12 76 19 116q10 14 24 16.5
t22 -2.5l9 -4q11 34 34 52q10 8 25 8t24 -4l10 -4q2 5 6.5 13t18 21t27.5 13t28 -5.5t22 -11.5l7 -6l4 4q8 23 9 128q0 37 -3.5 98t-4 89t7.5 81q0 2 1.5 5t5 10.5t9 10.5t14 5.5t18.5 -5.5q19 -11 27 -51.5t15 -141.5q9 -125 38 -318q3 -21 5.5 -33t8.5 -28t16 -24.5
t25 -10.5q22 -2 36.5 9t37 40.5t41.5 48.5zM659 536l-73 74l-34 -34v128h126l-34 -35l73 -74zM760 365l35 34l-74 74l58 59l74 -74l34 35v-128h-127z" />
  </g>

</svg>
