<?xml version="1.0" standalone="no"?>
<!DOCTYPE svg PUBLIC "-//W3C//DTD SVG 1.1//EN" "http://www.w3.org/Graphics/SVG/1.1/DTD/svg11.dtd" >
<svg xmlns="http://www.w3.org/2000/svg" xmlns:xlink="http://www.w3.org/1999/xlink" version="1.1" viewBox="-10 0 1010 1000">
  <g transform="matrix(1 0 0 -1 0 800)">
   <path fill="currentColor"
d="M532 -200h-244q-16 0 -18 17q-5 39 -37 73q-15 16 -24 41.5t-12.5 45t-8.5 61.5q-3 33 -9 73q-12 72 19 112q19 26 47 21q8 37 27 52q14 11 33 11q9 0 13 -1q10 121 8 147q-2 35 3 105q1 12 2.5 37t1.5 36q1 33 16.5 50.5t36.5 17.5q17 0 30.5 -11t18.5 -30q1 -3 3 -11
q13 21 37 21q4 0 14 -2q31 -7 44 -70t9 -142q-5 -82 18 -198q2 -8 7 -41q5 -34 11.5 -49t19.5 -16q11 -1 19 5t23 27q20 26 40 46q32 30 78 30q47 0 60 -31q15 -32 -23 -71q-24 -27 -40 -43q-26 -27 -34.5 -38t-16.5 -29q-4 -17 -13 -40.5t-31.5 -61.5t-48.5 -54
q-13 -8 -24 -18.5t-18 -20.5t-11.5 -18.5t-6.5 -13.5l-2 -5q-3 -14 -17 -14zM303 -163h216q24 55 73 85q26 16 47 58.5t30 76.5q0 2 1 2q10 23 20.5 37.5t38.5 42.5q6 6 19.5 20.5t20.5 21.5q19 20 16 31q-5 9 -27 9q-32 0 -52 -20q-17 -16 -37 -42q-13 -17 -20.5 -25
t-22.5 -15t-32 -6q-52 6 -63 97q0 1 -2.5 15.5t-4.5 23.5q-23 120 -19 207q3 49 -1.5 90.5t-11.5 60.5t-13 23q-1 1 -4 1l-6 -3q-8 -34 -6 -102q2 -65 -1 -119q-2 -42 -3.5 -63.5t-5.5 -34t-8 -15.5t-12 -3q-14 0 -18 15q-1 2 -1 5q0 31 -1 104q-1 13 -1 44q-2 157 -12 188
q-5 15 -14 15q-15 0 -17 -32q0 -26 -4 -74q-4 -82 -3 -100q1 -16 -0.5 -46.5t-3.5 -57.5t-4 -49t-2 -23q-2 -11 -10 -14q-7 -4 -17 -1q-20 10 -30 2q-13 -10 -18 -49q0 -10 -10 -15q-11 -4 -18 2l-4 1q-4 2 -6 2q-6 0 -12 -7q-22 -28 -12 -84q2 -16 6 -44t4 -30
q12 -104 35 -128q31 -32 43 -78zM649 559h-4q-18 4 -14 22q15 63 -21 118q-36 53 -100 63q-18 4 -15 21q2 18 20 16q81 -13 125 -80q46 -67 27 -146q-3 -14 -18 -14zM225 559q-15 0 -18 14q-17 79 27 146q46 68 125 80q18 2 21 -16q2 -17 -16 -21q-64 -10 -100 -63
q-36 -55 -21 -118q4 -18 -14 -22h-4z" />
  </g>

</svg>
