<?xml version="1.0" standalone="no"?>
<!DOCTYPE svg PUBLIC "-//W3C//DTD SVG 1.1//EN" "http://www.w3.org/Graphics/SVG/1.1/DTD/svg11.dtd" >
<svg xmlns="http://www.w3.org/2000/svg" xmlns:xlink="http://www.w3.org/1999/xlink" version="1.1" viewBox="-10 0 1010 1000">
  <g transform="matrix(1 0 0 -1 0 800)">
   <path fill="currentColor"
d="M658 272q36 34 89 30q43 -4 46 -32q3 -23 -26 -53q-19 -20 -41 -42.5t-30 -30.5t-18.5 -20.5t-15.5 -22t-12 -23.5q-4 -15 -12 -38.5t-35 -70.5t-57 -64q-29 -18 -50.5 -44t-27.5 -43l-7 -18h-298q-5 53 -50 100q-16 17 -26.5 45t-14 53t-10 74t-11.5 80q-12 78 20 117
q11 14 25 16.5t23 -1.5l9 -5q11 34 35 53q10 8 25.5 8t25.5 -4l10 -4q2 5 7 13t19 21t28 13t28.5 -5.5t21.5 -11.5l8 -6q17 7 18 148q0 174 21 269q1 3 3 7.5t12.5 10t25.5 2.5q24 -6 36 -55t7 -139q-8 -126 23 -329q3 -21 5.5 -33t8.5 -28.5t17 -25t26 -9.5q23 -2 38 8.5
t38 40.5t43 49zM891 487h65l-85 -84l-86 84h64q-2 79 -58 134.5t-136 59.5v-62l-85 84l85 85v-65q97 -4 165.5 -72t70.5 -164z" />
  </g>

</svg>
