<?xml version="1.0" standalone="no"?>
<!DOCTYPE svg PUBLIC "-//W3C//DTD SVG 1.1//EN" "http://www.w3.org/Graphics/SVG/1.1/DTD/svg11.dtd" >
<svg xmlns="http://www.w3.org/2000/svg" xmlns:xlink="http://www.w3.org/1999/xlink" version="1.1" viewBox="-10 0 1010 1000">
  <g transform="matrix(1 0 0 -1 0 800)">
   <path fill="currentColor"
d="M919 279q15 -35 -26 -79q-36 -38 -47 -48q-30 -31 -39.5 -43.5t-18.5 -32.5q-43 -137 -106 -175q-11 -7 -21 -15t-17 -16t-12.5 -16t-9 -15l-6 -12l-4.5 -9l-1 -3q-4 -15 -20 -15h-278q-8 0 -14 5.5t-7 13.5q-5 43 -42 82q-24 25 -34 62t-17 105q-5 38 -12 81
q-13 80 23 126q18 24 46 24q8 0 12 -1l20 51q1 4 7 8q15 12 37 12q13 0 18 -1q6 79 -4 280q-4 46 -0.5 82.5t18.5 52.5q15 15 33 15h4q17 0 29.5 -7.5t19 -17t12 -30t7.5 -33t5 -39.5q1 -11 3 -32q4 54 15 101q3 17 15.5 29.5t30.5 12.5q13 0 26 -7q51 -24 39 -241
q-5 -93 20 -222q7 -41 8 -46q6 -38 13 -55t22 -18q13 -1 22 6t27 30q38 45 46 52q35 33 89 33q53 0 69 -35zM862 228q22 23 19 35q-7 10 -31 10q-36 0 -60 -22q-22 -21 -42 -48q-15 -19 -23.5 -28.5t-25.5 -17t-37 -5.5q-59 6 -72 108q-1 7 -8 44q-26 137 -21 232
q5 72 1.5 117.5t-8 63.5t-9.5 22q-2 1 -5 1l-2 1q-5 0 -5 -10q-14 -58 -18 -172q-2 -36 -3 -77q-4 -88 -10 -109t-23 -21t-22 16v4q0 1 -4.5 60t-10.5 132t-9 101q-6 52 -12.5 72t-19.5 20q-4 0 -6 -2q-13 -14 -7 -105q13 -302 -7 -323q-8 -10 -23 -6q-1 1 -3 1q-18 9 -31 5
l-25 -63q-3 -9 -13 -12q-9 -3 -18 3l-2 1q-2 0 -4.5 1t-5.5 1q-7 0 -13 -8q-25 -32 -14 -94q4 -22 11 -83q5 -42 8.5 -62t11.5 -44.5t21 -37.5q35 -37 49 -87h247q26 60 83 95q29 18 53.5 65.5t34.5 85.5q0 2 1 3q11 26 23.5 42t43.5 48q11 10 46 47zM187 632q14 -16 0 -30
q-6 -6 -15 -6q-8 0 -14 6l-81 81q-6 5 -6 14t6 15l81 80q14 14 29 0q6 -6 6 -14.5t-6 -14.5l-45 -45h130q8 0 14.5 -6t6.5 -15q0 -8 -6.5 -14t-14.5 -6h-130z" />
  </g>

</svg>
