<?xml version="1.0" standalone="no"?>
<!DOCTYPE svg PUBLIC "-//W3C//DTD SVG 1.1//EN" "http://www.w3.org/Graphics/SVG/1.1/DTD/svg11.dtd" >
<svg xmlns="http://www.w3.org/2000/svg" xmlns:xlink="http://www.w3.org/1999/xlink" version="1.1" viewBox="-10 0 1010 1000">
  <g transform="matrix(1 0 0 -1 0 800)">
   <path fill="currentColor"
d="M813 219q13 -31 -23 -70q-32 -34 -40 -42q-39 -40 -50 -66q-5 -18 -13 -39.5t-30.5 -59.5t-47.5 -53q-21 -13 -36 -31.5t-19 -31.5l-5 -12q-5 -14 -18 -14h-239q-16 0 -18 17q-4 38 -36 71q-14 16 -23 41t-12.5 44.5t-8.5 60.5q-8 60 -10 71q-10 71 20 111q18 24 46 20
q9 37 26 51q14 11 33 11q2 0 6 -0.5t6 -0.5q10 118 8 145q-2 35 3 102q2 22 4 72q1 32 16.5 49.5t35.5 17.5q17 0 30 -11t18 -30q2 -6 3 -10q12 20 36 20q9 0 14 -2q30 -7 43.5 -69.5t8.5 -138.5q-4 -85 18 -195q0 -2 7 -39q8 -62 30 -64q11 -1 18.5 5t23.5 26q23 30 39 45
q30 30 76 30q45 0 60 -31zM764 174q19 20 16 30q-4 9 -27 9q-32 0 -51 -19q-11 -11 -36 -41q-13 -17 -20.5 -25t-22 -15t-31.5 -5t-29 11.5t-18.5 26.5t-9 27.5t-5.5 28.5q0 1 -2.5 15.5t-4.5 23.5q-22 124 -18 203q3 49 -1.5 89.5t-11 59.5t-12.5 22q-1 1 -5 1l-5 -3
q-8 -33 -6 -101q0 -91 -1 -116q-4 -77 -8.5 -95.5t-19.5 -18.5q-13 0 -19 15v5q0 30 -2 102v43q-2 154 -12 185q-5 15 -14 15q-16 0 -16 -32q0 -12 -2 -36.5t-2 -36.5q-5 -66 -3 -98q1 -21 -1.5 -63.5t-5.5 -74t-4 -35.5q0 -9 -9 -14q-8 -5 -16 0q-5 2 -14 3.5t-16 -1.5
q-13 -10 -18 -48q0 -10 -10 -15q-8 -5 -17 1q-3 3 -10 3t-12 -7q-22 -27 -12 -82q0 -3 10 -73q11 -100 34 -125q31 -32 43 -76h212q22 53 71 83q25 15 46 56.5t30 75.5q0 2 1 3q10 23 20.5 36.5t37.5 41.5q5 6 18.5 20t20.5 21zM499 691q-7 1 -12 7t-3 13q2 18 20 16
q47 -8 74 -47q26 -41 15 -86q-2 -14 -17 -14h-4q-18 4 -14 22q7 30 -10 57q-18 27 -49 32zM510 763q-18 4 -15 21q2 17 20 15q79 -13 123 -78t26 -144q-4 -14 -17 -14q-3 0 -5 1q-7 1 -11 7.5t-2 13.5q14 63 -21 115q-36 54 -98 63zM281 680q27 39 73 47q17 2 21 -16
q2 -18 -15 -20q-32 -5 -49 -32q-18 -24 -11 -57q4 -18 -13 -22h-4q-15 0 -18 14q-11 46 16 86zM212 563q-14 0 -17 14q-19 77 26 144q43 65 122 78q18 2 21 -15q2 -18 -15 -21q-63 -9 -98 -62q-36 -55 -21 -116q4 -17 -14 -21q-1 -1 -4 -1z" />
  </g>

</svg>
