<?xml version="1.0" standalone="no"?>
<!DOCTYPE svg PUBLIC "-//W3C//DTD SVG 1.1//EN" "http://www.w3.org/Graphics/SVG/1.1/DTD/svg11.dtd" >
<svg xmlns="http://www.w3.org/2000/svg" xmlns:xlink="http://www.w3.org/1999/xlink" version="1.1" viewBox="-10 0 1020 1000">
  <g transform="matrix(1 0 0 -1 0 800)">
   <path fill="currentColor"
d="M521 322q23 -24 23 -57.5t-23 -56.5l-307 -306q-23 -24 -56.5 -24t-57.5 24q-23 23 -23 56.5t24 56.5l306 307q23 23 56.5 23t57.5 -23zM396 167l94 94l-30 30l-94 -94zM798 622l23 -23l-99 -98l-22 22zM917 741l23 -23l-84 -84l-23 23zM626 580l-7 -7l-16 15l48 47
l15 -15l-8 -8l42 -41l8 -9l-24 -23l-8 -9l-10 10zM796 751l-7 -8l-15 15l42 42l73 -72l-15 -16l-8 8l-20 -19l-10 10zM688 466l-99 -99l-23 23l99 98zM900 647l19 20l-7 8l15 15l73 -73l-43 -42l-15 15l8 7l-44 44zM787 404l-15 16l7 7l-43 44l-7 6l9 8l23 24l9 -8l41 -42
l8 8l15 -15zM872 489l-15 16l7 7l-41 42l-9 8l22 22l10 10l7 -6l44 -44l7 8l15 -15zM891 626l83 -84l-22 -23l-84 84zM782 349l-84 84l23 23l83 -84zM75 -101q9 -12 10 -13t13 -10l-76 -76l-22 23zM496 361l90 91l-59 59l38 39l16 -15l-8 -8l40 -40l10 -10l-15 -15l7 -8
l-101 -101q-12 6 -18 8zM726 374l8 8l15 -16l-39 -38l-59 59l-91 -90q-2 6 -8 18l101 101l8 -7l15 15l7 -6zM785 516l23 23l83 -84l-23 -23zM567 609l84 -84l-23 -23l-83 84zM783 637l-22 -22l-8 9l-42 42l-7 -8l-15 15l47 47l15 -15l-8 -8l40 -40l10 -10zM738 779l83 -84
l-23 -22l-83 83zM654 692l84 -83l-23 -23l-83 83l22 23v0z" />
  </g>

</svg>
