<?xml version="1.0" standalone="no"?>
<!DOCTYPE svg PUBLIC "-//W3C//DTD SVG 1.1//EN" "http://www.w3.org/Graphics/SVG/1.1/DTD/svg11.dtd" >
<svg xmlns="http://www.w3.org/2000/svg" xmlns:xlink="http://www.w3.org/1999/xlink" version="1.1" viewBox="-10 0 1014 1000">
  <g transform="matrix(1 0 0 -1 0 800)">
   <path fill="currentColor"
d="M989 20q-5 14 -11.5 36t-17 74.5t-9.5 86.5q2 47 -9 105.5t-34 97.5q4 -33 -2.5 -66t-14.5 -47q-14 -24 -15 -51.5t12 -43.5q4 -5 11.5 -12.5t10 -11t6.5 -12.5t8 -22q1 -4 21 -99q11 -53 11 -58q0 -6 3 -15.5t3 -19.5q-1 -11 -10 -17.5t-10 -9.5q-4 -18 8 -32
q10 -11 -5 -23l-13 -17h-48q-1 7 4.5 17t11.5 17l6 7q4 13 8.5 34.5t5 68.5t-15.5 71q-11 18 -86 93q-20 20 -43 52t-36 55l-13 22q-65 -36 -159 -67q-42 -14 -96 -16.5t-87 1.5l-33 5q-16 6 -26 -13q-4 -8 -8.5 -37.5t-8 -66t-3.5 -40.5q-1 -9 -1.5 -45.5t-1 -67.5
t-2.5 -34l-27 -31l7 -8q2 -4 0 -8t-6 -6l-4 -3h-54q-1 8 12.5 25.5t27.5 31.5l14 14q1 173 -6 208q-3 16 -5.5 44.5t-2.5 49.5l-1 21q-17 11 -25.5 44t-9.5 57t-1 72q0 29 -11.5 54.5t-23.5 36.5l-12 11q-14 -11 -35 -9.5t-42 -0.5q-20 -4 -31 -15.5t-12 -11.5q-5 -1 -10 -1
t-8 1l-4 1q-3 -1 -12 1q-8 3 -11.5 16t2.5 30q5 10 40 49t37 48q1 8 9.5 19t16.5 18l8 7l2 55q10 -7 17.5 -20.5t10.5 -24.5l2 -10q10 0 27 -2t57.5 -16t67.5 -37q12 -10 47.5 -42t56.5 -49t51.5 -33.5t54.5 -16.5q36 0 123.5 25t109.5 25q82 0 123 -38q104 -78 116 -191
q6 -62 7 -134.5t-1 -113.5z" />
  </g>

</svg>
