<?xml version="1.0" standalone="no"?>
<!DOCTYPE svg PUBLIC "-//W3C//DTD SVG 1.1//EN" "http://www.w3.org/Graphics/SVG/1.1/DTD/svg11.dtd" >
<svg xmlns="http://www.w3.org/2000/svg" xmlns:xlink="http://www.w3.org/1999/xlink" version="1.1" viewBox="-10 0 1010 1000">
  <g transform="matrix(1 0 0 -1 0 800)">
   <path fill="currentColor"
d="M187 420h481q16 0 27 -11t11 -27q0 -15 -11 -26t-27 -11h-481q-16 0 -26.5 11t-10.5 26q0 16 10.5 27t26.5 11zM150 300q0 15 10.5 26t26.5 11h481q16 0 27 -11t11 -26q0 -16 -11 -26.5t-27 -10.5h-481q-16 0 -26.5 10.5t-10.5 26.5zM150 217q0 16 10.5 27t26.5 11h481
q16 0 27 -11t11 -27q0 -15 -11 -26t-27 -11h-481q-16 0 -26.5 11t-10.5 26zM150 134q0 15 10.5 26t26.5 11h481q16 0 27 -11t11 -26q0 -16 -11 -27t-27 -11h-481q-16 0 -26.5 11t-10.5 27zM150 51q0 16 10.5 26.5t26.5 10.5h481q16 0 27 -10.5t11 -26.5q0 -15 -11 -26
t-27 -11h-481q-16 0 -26.5 11t-10.5 26zM187 420q-16 0 -26.5 -11t-10.5 -27q0 -15 10.5 -26t26.5 -11h481q16 0 27 11t11 26q0 16 -11 27t-27 11h-481zM150 300q0 -16 10.5 -26.5t26.5 -10.5h481q16 0 27 10.5t11 26.5q0 15 -11 26t-27 11h-481q-16 0 -26.5 -11t-10.5 -26z
M150 217q0 -15 10.5 -26t26.5 -11h481q16 0 27 11t11 26q0 16 -11 27t-27 11h-481q-16 0 -26.5 -11t-10.5 -27zM150 134q0 -16 10.5 -27t26.5 -11h481q16 0 27 11t11 27q0 15 -11 26t-27 11h-481q-16 0 -26.5 -11t-10.5 -26zM150 51q0 -15 10.5 -26t26.5 -11h481q16 0 27 11
t11 26q0 16 -11 26.5t-27 10.5h-481q-16 0 -26.5 -10.5t-10.5 -26.5zM478 -163q0 13 9 32.5t17 32.5l9 13v-1q2 -1 10 -13.5t17 -31.5t9 -32q0 -16 -9.5 -25t-16 -10.5t-10.5 -1.5v0v0q-4 0 -10 1.5t-15.5 10.5t-9.5 25zM535 -107q12 9 12 24q0 13 -9 22t-22 9t-22 -9
t-9 -22q0 -10 9 -21q0 -1 -1.5 -3t-2.5 -3q-11 11 -11 26q0 16 11 27t26 11q231 0 259 34q-1 8 -24 16t-50 10q17 14 17 37q0 24 -17 38q60 -3 104.5 -28t44.5 -73q0 -34 -25 -56.5t-73 -33.5t-96 -15t-114 -4q-1 2 -3.5 6.5t-3.5 7.5zM476 717v-130q0 -16 -11 -26.5
t-27 -10.5q-15 0 -26 10.5t-11 26.5v130q0 15 11 26t26 11q16 0 27 -11t11 -26zM392 717v-99q-27 22 -27 55q0 36 30 58q-3 -6 -3 -14zM482 731q29 -21 29 -57q0 -35 -26 -56v99q0 8 -3 14zM527 784q0 -7 -4.5 -12t-11.5 -5h-145q-7 0 -12 5t-5 12t5 11.5t12 4.5h145
q16 0 16 -16zM384 746q-4 -3 -10 -9v12h15zM488 749h15v-12q-6 6 -10 9zM401 428v128q15 -18 37 -18q23 0 38 18v-128h-75z" />
  </g>

</svg>
