<?xml version="1.0" standalone="no"?>
<!DOCTYPE svg PUBLIC "-//W3C//DTD SVG 1.1//EN" "http://www.w3.org/Graphics/SVG/1.1/DTD/svg11.dtd" >
<svg xmlns="http://www.w3.org/2000/svg" xmlns:xlink="http://www.w3.org/1999/xlink" version="1.1" viewBox="-10 0 1010 1000">
  <g transform="matrix(1 0 0 -1 0 800)">
   <path fill="currentColor"
d="M864 689q0 12 -8.5 20.5t-20.5 8.5q-11 0 -19.5 -8.5t-8.5 -20.5t8.5 -20t19.5 -8q12 0 20.5 8t8.5 20zM864 -149q0 12 -8.5 20.5t-20.5 8.5q-11 0 -19.5 -8.5t-8.5 -20.5t8.5 -20.5t19.5 -8.5q12 0 20.5 8.5t8.5 20.5zM500 321q23 0 39.5 16.5t16.5 39.5t-16.5 39.5
t-39.5 16.5t-39.5 -16.5t-16.5 -39.5t16.5 -39.5t39.5 -16.5zM799 375q0 124 -87.5 211.5t-211.5 87.5t-211.5 -87.5t-87.5 -211.5q0 -93 52 -169l191 109q-28 26 -28 62q0 35 24.5 59.5t59.5 24.5t59.5 -24.5t24.5 -59.5q0 -34 -24.5 -58.5t-59.5 -24.5q-26 0 -48 14
l-82 -203q60 -29 130 -29q124 0 211.5 87.5t87.5 211.5zM193 689q0 12 -8.5 20.5t-20.5 8.5q-11 0 -19.5 -8.5t-8.5 -20.5t8.5 -20t19.5 -8q12 0 20.5 8t8.5 20zM193 -149q0 12 -8.5 20.5t-20.5 8.5q-11 0 -19.5 -8.5t-8.5 -20.5t8.5 -20.5t19.5 -8.5q12 0 20.5 8.5
t8.5 20.5zM888 680v-814q0 -27 -19 -46.5t-46 -19.5h-646q-27 0 -46 19.5t-19 46.5v814q0 27 19 46t46 19h20q4 -18 18.5 -30t32.5 -12h504q18 0 32.5 12t17.5 30h21q27 0 46 -19t19 -46zM746 800q-2 -16 -14 -27t-28 -11h-408q-16 0 -28 11t-14 27h492z" />
  </g>

</svg>
