<?xml version="1.0" standalone="no"?>
<!DOCTYPE svg PUBLIC "-//W3C//DTD SVG 1.1//EN" "http://www.w3.org/Graphics/SVG/1.1/DTD/svg11.dtd" >
<svg xmlns="http://www.w3.org/2000/svg" xmlns:xlink="http://www.w3.org/1999/xlink" version="1.1" viewBox="-10 0 1020 1000">
  <g transform="matrix(1 0 0 -1 0 800)">
   <path fill="currentColor"
d="M205 559v-221h-32v221h32zM700 652q38 15 81 15q90 0 154.5 -63.5t64.5 -153.5q0 -99 -77 -165q-24 -54 -15 -115l19 -140q1 -2 1.5 -5.5t-0.5 -13.5t-5 -19t-15.5 -19t-29.5 -16q-49 -17 -84.5 -14t-40.5 23q-2 12 3 21.5t11 12.5l6 4q2 37 -4 84l41 5q11 2 9 13
q-2 12 -13 10l-40 -6q-2 16 -4 24l38 5q11 2 9 13t-13 9l-39 -5q-1 4 -3.5 11t-3.5 9l44 6q12 2 10 13q-2 12 -13 10l-49 -7q-15 29 -28 45q-26 8 -53 25l-444 69v222zM781 335q-49 0 -83 33.5t-34 81.5t34 82t83 34q48 0 82 -34t34 -82t-34 -81.5t-82 -33.5zM700 652
l-483 -93v-222l444 -69q27 -17 53 -25q13 -16 28 -45l49 7q11 2 13 -10q2 -11 -10 -13l-44 -6q1 -2 3.5 -9t3.5 -11l39 5q11 2 13 -9t-9 -13l-38 -5q2 -8 4 -24l40 6q11 2 13 -10q2 -11 -9 -13l-41 -5q3 -21 4 -42t1 -32l-1 -10q-3 -1 -7 -4t-9.5 -12.5t-3.5 -21.5
q5 -20 40.5 -23t84.5 14q28 10 40.5 28t10.5 31l-2 14q-6 51 -19 140q-9 61 15 115q77 66 77 165q0 90 -64.5 153.5t-154.5 63.5q-43 0 -81 -15zM781 335q48 0 82 33.5t34 81.5t-34 82t-82 34q-49 0 -83 -34t-34 -82t34 -81.5t83 -33.5zM11 496q-11 0 -11 11q0 12 11 12h33
q6 0 36 15q26 14 36 14h31q11 0 11 -11t-11 -11h-31q-6 -2 -25 -12q-34 -18 -47 -18h-33zM11 406q-11 0 -11 11t11 11h33q9 0 36 16q30 14 36 14h31q11 0 11 -11q0 -12 -11 -12h-31l-25 -11q-34 -18 -47 -18h-33zM11 315q-11 0 -11 12q0 11 11 11h33q6 0 36 15q26 14 36 14
h31q11 0 11 -11t-11 -11h-31q-3 0 -25 -12q-34 -18 -47 -18h-33z" />
  </g>

</svg>
