<?xml version="1.0" standalone="no"?>
<!DOCTYPE svg PUBLIC "-//W3C//DTD SVG 1.1//EN" "http://www.w3.org/Graphics/SVG/1.1/DTD/svg11.dtd" >
<svg xmlns="http://www.w3.org/2000/svg" xmlns:xlink="http://www.w3.org/1999/xlink" version="1.1" viewBox="-10 0 1019 1000">
  <g transform="matrix(1 0 0 -1 0 800)">
   <path fill="currentColor"
d="M992 376q11 -6 4 -15l-68 -94q-5 -9 -15 -1l-50 37v-386q0 -29 -20.5 -49t-48.5 -20h-589q-29 0 -49 20t-20 49v386l-50 -37q-10 -8 -15 1l-68 94q-6 10 4 15l485 365q1 1 2 1t1 1h2h2h3h2q0 -1 1 -1l2 -1l180 -135v117q0 13 9 21.5t22 8.5h63q13 0 22 -8.5t9 -21.5v-206
q0 -3 -1 -5zM787 -76v437l-288 218l-287 -218v-437h155v248q0 13 9 21.5t22 8.5h203q13 0 22 -8.5t9 -21.5v-248h155z" />
  </g>

</svg>
