<?xml version="1.0" standalone="no"?>
<!DOCTYPE svg PUBLIC "-//W3C//DTD SVG 1.1//EN" "http://www.w3.org/Graphics/SVG/1.1/DTD/svg11.dtd" >
<svg xmlns="http://www.w3.org/2000/svg" xmlns:xlink="http://www.w3.org/1999/xlink" version="1.1" viewBox="-10 0 1010 1000">
  <g transform="matrix(1 0 0 -1 0 800)">
   <path fill="currentColor"
d="M937 451q16 -28 8 -62q-10 -34 -39 -49l-712 -409q-20 -11 -41 -11q-18 0 -36 9q-28 -59 -28 -129h-41q0 90 37 158q-26 41 -2 85l406 716q24 41 71 41q23 0 40 -10q28 -16 38 -50q6 -18 1 -40l50 -28l-164 -273l-48 28l-157 -257l255 157l-26 50l269 163l29 -51
q26 7 51 -4t39 -34zM604 362l6 -13l199 122l-6 11zM511 456l120 201l-10 6l-122 -200zM904 400q5 16 -3 30q-8 13 -22 18t-28 -1l-239 -146l-344 -212q10 -31 -11 -51q-14 -14 -34 -14t-34 14t-14 34t14 34q22 22 50 11l213 349l146 241q3 11 0 22q-5 17 -19 24q-9 6 -19 6
q-24 0 -35 -21l-406 -716q-15 -26 6 -48q12 -12 28 -12q10 0 20 5l713 409q15 8 18 24z" />
  </g>

</svg>
