<?xml version="1.0" standalone="no"?>
<!DOCTYPE svg PUBLIC "-//W3C//DTD SVG 1.1//EN" "http://www.w3.org/Graphics/SVG/1.1/DTD/svg11.dtd" >
<svg xmlns="http://www.w3.org/2000/svg" xmlns:xlink="http://www.w3.org/1999/xlink" version="1.1" viewBox="-10 0 1020 1000">
  <g transform="matrix(1 0 0 -1 0 800)">
   <path fill="currentColor"
d="M966 478q0 -13 -9 -22t-22 -9h-904q-13 0 -22 9t-9 22t9 22t22 9h904q13 0 22 -9t9 -22zM483 325q-15 0 -25.5 -10.5t-10.5 -24.5q0 -15 10.5 -25.5t25.5 -10.5q14 0 24.5 10.5t10.5 25.5q0 14 -10.5 24.5t-24.5 10.5zM483 339q20 0 34.5 -14.5t14.5 -34.5t-14.5 -34.5
t-34.5 -14.5q-21 0 -35.5 14.5t-14.5 34.5t14.5 34.5t35.5 14.5zM483 314q11 0 18 -7t7 -18t-7 -18t-18 -7t-18.5 7.5t-7.5 17.5t7.5 17.5t18.5 7.5zM430 309q-132 85 -250 124h75q98 -41 190 -102q-10 -9 -15 -22zM786 433q-119 -39 -251 -125q-5 14 -15 23q92 61 190 102
h76zM534 268q168 -128 305 -308q9 -10 -2 -19q-5 -3 -8 -3q-8 0 -11 6q-135 176 -300 303q11 8 16 21zM431 268q8 -15 17 -21q-163 -124 -301 -303q-3 -6 -10 -6q-5 0 -9 3q-11 9 -2 19q137 180 305 308zM949 636q51 0 51 -50q0 -2 -3 -2q-2 0 -2 2q0 46 -46 46h-14l2 -5
q0 -1 -1 -1l-3 -1l14 -42q0 -3 -1 -4q-2 -2 -3 -2h-17l12 -31q2 -2 0 -3q-2 -2 -3 -2h-237q-1 0 -3 2q-1 1 -1 2l1 1v1q0 11 27 32h2q36 26 89 31q-1 0 -1 2v8q0 3 3 3h29q4 0 4 -3v-8l-1 -1h13v6q0 18 -10 18h-81q-14 0 -14 14t14 14h140q12 0 14 -10l5 -14l3 1q2 0 2 -1
l1 -3h15zM921 573h-196q-15 -11 -23 -25h229zM905 595q0 7 -7 7t-7 -7t7 -7t7 7z" />
  </g>

</svg>
