<?xml version="1.0" standalone="no"?>
<!DOCTYPE svg PUBLIC "-//W3C//DTD SVG 1.1//EN" "http://www.w3.org/Graphics/SVG/1.1/DTD/svg11.dtd" >
<svg xmlns="http://www.w3.org/2000/svg" xmlns:xlink="http://www.w3.org/1999/xlink" version="1.1" viewBox="-10 0 1020 1000">
  <g transform="matrix(1 0 0 -1 0 800)">
   <path fill="currentColor"
d="M1000 800v-864h-95v-136h-811v136h-94v864h1000zM294 372q57 0 97 40.5t40 97.5q0 56 -40 96.5t-97 40.5t-97 -40.5t-40 -96.5q0 -57 40 -97.5t97 -40.5zM382 178q0 36 -25.5 62t-62.5 26q-36 0 -62 -26t-26 -62q0 -37 26 -62.5t62 -25.5q37 0 62.5 25.5t25.5 62.5z
M617 178q0 -37 25.5 -62.5t62.5 -25.5q36 0 62 25.5t26 62.5q0 36 -26 62t-62 26q-37 0 -62.5 -26t-25.5 -62zM705 372q57 0 97 40.5t40 97.5q0 56 -40 96.5t-97 40.5t-97 -40.5t-40 -96.5q0 -57 40 -97.5t97 -40.5zM495 -113v49h-211v-49h211zM715 -113v49h-199v-49h199z
M248 178q0 19 13.5 32.5t32.5 13.5t32.5 -13.5t13.5 -32.5q0 -20 -13 -33t-33 -13q-19 0 -32.5 13.5t-13.5 32.5zM705 224q19 0 32.5 -13.5t13.5 -32.5t-13.5 -32.5t-32.5 -13.5t-32.5 13t-13.5 33q0 19 13.5 32.5t32.5 13.5zM294 605q40 0 67.5 -28t27.5 -67
q0 -40 -27.5 -68t-67.5 -28t-67.5 28t-27.5 68q0 39 27.5 67t67.5 28zM705 605q40 0 67.5 -28t27.5 -67q0 -40 -27.5 -68t-67.5 -28t-67.5 28t-27.5 68q0 39 27.5 67t67.5 28z" />
  </g>

</svg>
