<?xml version="1.0" standalone="no"?>
<!DOCTYPE svg PUBLIC "-//W3C//DTD SVG 1.1//EN" "http://www.w3.org/Graphics/SVG/1.1/DTD/svg11.dtd" >
<svg xmlns="http://www.w3.org/2000/svg" xmlns:xlink="http://www.w3.org/1999/xlink" version="1.1" viewBox="-10 0 1016 1000">
  <g transform="matrix(1 0 0 -1 0 800)">
   <path fill="currentColor"
d="M733 678l-39 -75q-14 -25 -41 -25h-3l-2 1l-13 -23q-8 8 -14 11q-10 4 -16 5l12 23q-19 26 -5 52l40 75q9 16 27.5 21.5t34.5 -3.5q17 -9 22.5 -27t-3.5 -35zM639 505q23 0 39 -16.5t16 -38.5q0 -23 -16 -39t-39 -16t-39 16t-16 39q0 22 16 38.5t39 16.5zM301 197
q-10 6 -13 17.5t2 21.5q6 11 17.5 14t22.5 -3l181 -102q11 -6 14 -17t-3 -22q-8 -15 -25 -15q-9 0 -14 4zM374 386q-11 6 -14 17t3 22q5 11 16.5 14.5t22.5 -2.5l75 -41l77 142q9 17 27 22.5t35 -4.5q27 -14 24 -46l-1 1q-25 0 -42.5 -18t-17.5 -43q0 -22 12 -37l-34 -63
q15 -15 5 -34q-8 -15 -25 -15q-8 0 -14 3zM457 286l17 32l10 -6q2 -1 11 -4l-18 -33q-3 -7 -10 -7q-3 0 -5 2q-10 5 -5 16zM361 295q-9 6 -4 16l30 55l21 -11l-31 -56q-3 -6 -10 -6q-2 0 -6 2zM663 -31q9 0 16 -7t7 -17v-72q0 -10 -7 -16.5t-16 -6.5h-467q-9 0 -16 6.5
t-7 16.5v72q0 10 7 16.5t16 6.5h248q52 42 83 103h25q70 70 70 167q0 96 -34 120h-13l24 46q5 -2 11 -5t17.5 -14.5t19.5 -28t14.5 -48t6.5 -70.5q0 -113 -82 -198l42 -71h35zM228 -20q-4 4 -4 8v28q0 9 9 9h182q9 0 9 -9v-28q0 -5 -5 -8h-191zM751 269v-63q0 -2 2 -8
l166 -229q15 -22 3 -45q-11 -24 -38 -24h-185v45q0 16 -10.5 26.5t-25.5 10.5h-27l-33 56q39 43 60 95l44 62q3 3 3 8v66h41zM653 20q0 10 -10 10q-11 0 -11 -10q0 -11 11 -11q10 0 10 11zM737 40q0 13 -13 13q-5 0 -8.5 -4t-3.5 -9q0 -4 4 -8t8 -4q5 0 9 3.5t4 8.5z
M739 137q0 7 -6 7q-7 0 -7 -7t7 -7q6 0 6 7zM845 -19q0 -6 6 -6t6 6t-6 6t-6 -6zM738 -27q0 -12 8.5 -20.5t19.5 -8.5q12 0 20.5 8.5t8.5 20.5q0 11 -8.5 19.5t-20.5 8.5q-11 0 -19.5 -8.5t-8.5 -19.5zM982 -30q25 -37 5 -74q-19 -39 -62 -39h-229q3 7 3 16v14h185
q36 0 51 31q15 32 -5 59l-166 229v195h-68v-198l-21 -30q7 35 7 65q0 64 -18 111v37q20 8 32 25t12 39q0 8 -3 17h82q16 0 27.5 -11.5t11.5 -27.5q0 -28 -27 -37v-169zM188 243v-109q0 -11 10 -14q27 -8 44.5 -30.5t20.5 -50.5h-30q-10 0 -16.5 -6.5t-6.5 -16.5v-28
q0 -4 1 -6h-15q-8 0 -11 -2q-4 4 -8 4q-11 0 -11 -12q0 -3 1 -5q-8 -10 -8 -22v-11q-36 3 -61 30.5t-25 64.5q0 31 18.5 56.5t47.5 34.5q9 4 9 14v109h40zM124 48q0 9 -10 9q-9 0 -9 -9t9 -9q10 0 10 9zM197 59q0 -11 11 -11q10 0 10 11q0 10 -10 10q-11 0 -11 -10zM163 195
q0 -5 5 -5t5 5t-5 5t-5 -5zM179 82q0 11 -10 11q-11 0 -11 -11t11 -11q10 0 10 11zM187 29q-5 0 -5 -5t5 -5t5 5t-5 5zM159 -127q0 -7 4 -15q-68 2 -115.5 51.5t-47.5 118.5q0 51 28 93.5t75 62.5v280q-27 9 -27 37q0 16 11.5 27t27.5 11h99q16 0 27.5 -11t11.5 -27
q0 -25 -23 -36v-278q46 -18 75.5 -58t32.5 -90h-61q-3 33 -23.5 59t-51.5 36v338h-68v-338q-33 -11 -54 -40t-21 -65q0 -43 29 -74t71 -35v-47z" />
  </g>

</svg>
