<?xml version="1.0" standalone="no"?>
<!DOCTYPE svg PUBLIC "-//W3C//DTD SVG 1.1//EN" "http://www.w3.org/Graphics/SVG/1.1/DTD/svg11.dtd" >
<svg xmlns="http://www.w3.org/2000/svg" xmlns:xlink="http://www.w3.org/1999/xlink" version="1.1" viewBox="-10 0 1011 1000">
  <g transform="matrix(1 0 0 -1 0 800)">
   <path fill="currentColor"
d="M326 198l-111 -1q-7 0 -12 5t-5 13q0 7 5 12t12 5h115q3 0 4 -1q-7 -18 -8 -33zM155 269q-9 9 -4 20q26 62 66 106t74.5 63t74.5 28.5t55 10t27 -0.5q7 -1 11.5 -6.5t3.5 -12.5q-2 -18 -19 -16q-5 1 -13 1t-27.5 -2.5t-39.5 -7.5t-45.5 -18.5t-48.5 -33t-46.5 -52
t-40.5 -73.5q-7 -16 -23 -9q-4 2 -5 3zM191 173l-125 -67q-7 -2 -10 1l-1 1q-4 4 -1 11l45 68l-80 -16q-6 -2 -10 4q-2 7 2 11l108 92q7 4 11 0l45 -36q3 -2 3 -4l17 -55q2 -6 -4 -10zM386 147q8 -7 19 -6.5t19 8.5q7 8 6.5 19t-8.5 19q-8 7 -19 6.5t-19 -8.5
q-7 -8 -6.5 -19t8.5 -19zM947 449l-18 -49l-50 24l-15 -48l-45 21l-12 -40l-43 26l-11 -51l-42 25l-20 -46l-34 19q-7 -14 -14 -21l-156 -172q-23 -26 -57 -27.5t-59 21.5q-26 23 -27.5 57t21.5 60l156 172q21 23 51 26l27 158l-27 5l56 191l45 -7l-8 -200l-27 5l-27 -157
q10 -4 14 -6l353 106l13 -118zM603 6l-69 -5l-10 149l65 71zM525 -200q-6 4 -16 12q-31 28 -33 69.5t26 72.5t69 33t72 -26t33 -69.5t-26 -72.5q-3 -3 -18 -16l-4 77l-56 51l-51 -56zM252 -49q-3 -3 -6 0q-3 2 -1 6l93 102q2 4 6 0q4 -2 0 -6zM359 118q-20 19 -28 43
l-245 -271q4 -2 11 -4t30 -2t46 6t55.5 26.5t63.5 54.5q107 119 112 124q-25 5 -45 23v0z" />
  </g>

</svg>
