<?xml version="1.0" standalone="no"?>
<!DOCTYPE svg PUBLIC "-//W3C//DTD SVG 1.1//EN" "http://www.w3.org/Graphics/SVG/1.1/DTD/svg11.dtd" >
<svg xmlns="http://www.w3.org/2000/svg" xmlns:xlink="http://www.w3.org/1999/xlink" version="1.1" viewBox="-10 0 1020 1000">
  <g transform="matrix(1 0 0 -1 0 800)">
   <path fill="currentColor"
d="M285 399q-7 0 -12 6l-57 63q-10 10 1 22q12 8 22 -2l57 -63q10 -11 -1 -22q-6 -4 -10 -4zM202 555q28 0 50 -17l-6 -12l-3 -5q-7 3 -16 3q-18 0 -30 -12q-15 -12 -16.5 -31t11.5 -33l10 -10l-18 -36q-27 6 -44.5 27t-17.5 48q0 33 23.5 55.5t56.5 22.5zM949 458h51v-50
h-51v50zM0 190q0 59 42.5 101t103.5 42q13 0 35 -4l50 99l30 -33q9 -11 24 -11q12 0 20 8q10 8 10.5 20.5t-7.5 22.5l-47 52l13 26l64 -21q57 25 143 25q29 0 54 -11t40.5 -28t24 -29t13.5 -23h80q18 0 37 20t29 40q1 2 5 4h135l24 -25v-63q-6 1 -16 1.5t-38 -1.5t-53 -9
t-54 -26t-48 -48l-24 -15v-60q17 40 54 64.5t82 24.5q60 0 102.5 -42t42.5 -101t-42.5 -101.5t-102.5 -42.5q-54 0 -95 34.5t-50 85.5h-134l-188 203q-7 7 -14 0q-9 -6 -1 -14l180 -194q-71 -44 -234 -44q-4 -1 -6 3t-1 8q1 0 6 11t9 27.5t2 29.5q-2 10 -9 13q1 -6 1 -19
q0 -59 -42.5 -101t-103.5 -42t-103.5 42t-42.5 101zM749 190q0 -31 22.5 -53t54.5 -22q31 0 53.5 22t22.5 53t-22 52.5t-54 21.5t-54.5 -21.5t-22.5 -52.5zM70 190q0 -31 22.5 -53t53.5 -22q32 0 54 22t22 53t-22 52.5t-54 21.5t-54 -21.5t-22 -52.5z" />
  </g>

</svg>
