<?xml version="1.0" standalone="no"?>
<!DOCTYPE svg PUBLIC "-//W3C//DTD SVG 1.1//EN" "http://www.w3.org/Graphics/SVG/1.1/DTD/svg11.dtd" >
<svg xmlns="http://www.w3.org/2000/svg" xmlns:xlink="http://www.w3.org/1999/xlink" version="1.1" viewBox="-10 0 1017 1000">
  <g transform="matrix(1 0 0 -1 0 800)">
   <path fill="currentColor"
d="M0 800h997v-997h-997v997zM227 614q-17 -6 -22 -31q2 -10 8 -17.5t11 -7.5q0 -31 -13 -44q0 -6 56 -9q30 -25 68 -25q36 0 66 25l56 9q-7 11 -13 44q14 4 19 25q2 11 -3 19.5t-13 11.5h-3v6q-8 74 -65 99q-4 1 -11.5 3.5t-14 4.5t-11.5 2h-7h-3q-21 0 -40 -10
q-55 -34 -62 -99v-6h-3zM429 176h93l-109 289q-30 -22 -71 -22q-44 0 -75 22l-106 -289h91v-264q0 -14 10.5 -24t26.5 -10q14 0 25.5 10t11.5 24v264h28v-264q0 -14 10.5 -24t26.5 -10q15 0 26.5 10t11.5 24v264zM829 185q0 280 -3 280h-43q-44 -19 -69 -19t-68 19h-47v-280
v-276q0 -15 11 -24.5t27 -9.5q14 0 24 10t10 24v264h87v-264q0 -14 11.5 -24t25.5 -10t24 10t10 24v276zM714 486q52 0 88.5 35.5t36.5 85.5t-37 86t-88 36q-49 0 -85 -36.5t-36 -85.5q0 -50 36 -85.5t85 -35.5z" />
  </g>

</svg>
