<?xml version="1.0" standalone="no"?>
<!DOCTYPE svg PUBLIC "-//W3C//DTD SVG 1.1//EN" "http://www.w3.org/Graphics/SVG/1.1/DTD/svg11.dtd" >
<svg xmlns="http://www.w3.org/2000/svg" xmlns:xlink="http://www.w3.org/1999/xlink" version="1.1" viewBox="-10 0 1010 1000">
  <g transform="matrix(1 0 0 -1 0 800)">
   <path fill="currentColor"
d="M950 -200h-902q-8 0 -14.5 6t-6.5 14q0 1 -0.5 9.5t1.5 24.5t6 36t14.5 44.5t25 49.5t39 51.5t56 50.5t77 45.5t99.5 37.5q5 0 12 5q11 5 21 -2q56 -36 121 -36t121 36q10 7 21 2l11 -5q54 -16 99.5 -37.5t77 -45.5t56.5 -50.5t39.5 -51.5t25 -49.5t14.5 -44.5t6 -36
t1.5 -24.5t-0.5 -9.5q0 -8 -6.5 -14t-14.5 -6zM69 -157h860q-1 21 -6.5 44t-24 59t-47.5 67t-83.5 63t-126.5 53q-3 0 -8 2q-61 -37 -134 -37t-134 37q-7 -3 -9 -3q-71 -20 -125 -52t-83 -63t-48 -67t-24 -58.5t-7 -44.5zM499 182q-64 0 -117.5 47t-78.5 124q-21 2 -36.5 24
t-19.5 56t5.5 60t29.5 34q-17 99 12 141q12 17 29 23q6 34 34 62q46 47 142 47q115 0 173 -62q33 -36 37 -71q35 -47 11 -142q39 -20 31 -92q-4 -34 -19.5 -56t-36.5 -24q-25 -77 -78.5 -124t-117.5 -47zM317 399q3 0 7 -2q11 -3 14 -14q18 -71 62.5 -115t98.5 -44t98.5 44
t62.5 115q3 10 13 15q11 3 20 -3q1 1 4 5.5t7 15t5 22.5q4 35 -8 50q-12 -5 -22 3q-10 10 -6 22q13 43 13 76t-5.5 44t-7.5 11q-6 6 -6 16q0 23 -27 50q-46 48 -141 48q-78 0 -112 -34q-10 -10 -16 -22.5t-7 -19.5l-1 -8q1 -8 -4.5 -14t-13.5 -7q-11 -2 -16 -9
q-24 -33 -1 -133q3 -14 -8 -22t-23 -1q-13 -9 -8 -50q4 -33 17 -43q4 4 11 4z" />
  </g>

</svg>
