<?xml version="1.0" standalone="no"?>
<!DOCTYPE svg PUBLIC "-//W3C//DTD SVG 1.1//EN" "http://www.w3.org/Graphics/SVG/1.1/DTD/svg11.dtd" >
<svg xmlns="http://www.w3.org/2000/svg" xmlns:xlink="http://www.w3.org/1999/xlink" version="1.1" viewBox="-10 0 1010 1000">
  <g transform="matrix(1 0 0 -1 0 800)">
   <path fill="currentColor"
d="M231 164q2 -14 -11 -21l-168 -95q-4 -3 -11 -3q-12 0 -19 12q-11 20 8 30l168 95q12 6 24 -2l73 40l-8 20h218l-27 -73h-164l-13 36zM478 159l141 -309v-49h-45v39l-125 274h-32v-314h-40v314h-32l-125 -274v-39h-45v49l141 309h80h2h80zM541 406q71 0 126 41v-140h-86
v-35h-334v137q16 -3 33 -3q59 0 103 38h36q57 -38 122 -38zM308 567q0 11 -8.5 19.5t-19.5 8.5q-12 0 -20.5 -8.5t-8.5 -19.5q0 -12 8.5 -20.5t20.5 -8.5q11 0 19.5 8.5t8.5 20.5zM335 567q0 -23 -16 -39.5t-39 -16.5t-39.5 16.5t-16.5 39.5t16.5 39t39.5 16q22 0 38.5 -16
t16.5 -39zM584 621q0 18 -12.5 30.5t-30.5 12.5t-30.5 -12.5t-12.5 -30.5t12.5 -30.5t30.5 -12.5t30.5 12.5t12.5 30.5zM620 621q0 -33 -23 -56t-56 -23t-56 23t-23 56t23 56t56 23t56 -23t23 -56zM658 621q0 48 -34.5 82.5t-82.5 34.5t-82 -34.5t-34 -82.5t34 -82.5
t82 -34.5t82.5 34.5t34.5 82.5zM359 567q0 33 -23 56.5t-56 23.5q-34 0 -57 -23.5t-23 -56.5q0 -34 23 -57t57 -23q33 0 56 23t23 57zM721 621q0 -74 -53 -126.5t-127 -52.5q-93 0 -146 76q-14 -34 -45.5 -55t-69.5 -21q-52 0 -88.5 36.5t-36.5 88.5q0 51 36.5 87.5
t88.5 36.5q49 0 85 -34q13 62 62 102.5t114 40.5q74 0 127 -52.5t53 -126.5zM983 541v-327h-69v327h69zM895 508v-261h-35v261h35zM844 263l-146 44v141l146 44v-229z" />
  </g>

</svg>
