<?xml version="1.0" standalone="no"?>
<!DOCTYPE svg PUBLIC "-//W3C//DTD SVG 1.1//EN" "http://www.w3.org/Graphics/SVG/1.1/DTD/svg11.dtd" >
<svg xmlns="http://www.w3.org/2000/svg" xmlns:xlink="http://www.w3.org/1999/xlink" version="1.1" viewBox="-10 0 1019 1000">
  <g transform="matrix(1 0 0 -1 0 800)">
   <path fill="currentColor"
d="M575 555q0 -31 -22 -53t-53 -22q-32 0 -54 22t-22 53t22 53t54 22q31 0 53 -22t22 -53zM756 198q9 -7 10.5 -18t-5.5 -20q-8 -11 -21 -11q-10 0 -17 6l-2 1q2 -27 -25 -39l-84 -33l84 -33q16 -6 22.5 -21.5t0.5 -31.5q-11 -26 -38 -26q-10 0 -15 2l-166 66l-167 -66
q-5 -2 -15 -2q-27 0 -38 26q-6 16 0.5 31.5t22.5 21.5l84 33l-84 33q-27 12 -25 39l-2 -1q-8 -6 -17 -6q-13 0 -21 11q-7 9 -5.5 20t10.5 18l96 75v98q0 38 32.5 67t85.5 29h41h3h41q53 0 85.5 -29t32.5 -67v-98zM383 238l-55 -43l72 -14v3v202v2q-6 -9 -6 -17v-111
q0 -14 -11 -22zM599 181l72 14l-55 43q-11 8 -11 22v111q0 8 -6 17v-2v-202v-3zM262 573q0 -23 -16.5 -40t-40.5 -17q-23 0 -40 17t-17 40q0 24 17 40.5t40 16.5q24 0 40.5 -16.5t16.5 -40.5zM851 573q0 -23 -17 -40t-40 -17q-24 0 -40.5 17t-16.5 40q0 24 16.5 40.5
t40.5 16.5q23 0 40 -16.5t17 -40.5zM205 184v-2l-126 -50q-8 -2 -11 -2q-21 0 -29 20q-5 12 0 24t17 16l64 25l-64 26q-19 6 -19 29l-1 -1q-5 -4 -13 -4q-9 0 -17 8q-11 17 4 29l74 57v74q0 29 24.5 51.5t64.5 22.5h31h3h30q41 0 65.5 -22.5t24.5 -51.5v-7q-15 -26 -15 -55
v-53l-18 14q-8 6 -8 17v84q0 6 -5 13v-1v-154v-2l31 6v-8l-86 -67q-18 -13 -21 -36zM130 289v2v154v1q-5 -7 -5 -13v-84q0 -11 -8 -17l-42 -32zM989 302q17 -13 3 -29q-6 -8 -16 -8q-8 0 -13 4l-1 1q0 -23 -19 -29l-64 -26l64 -25q12 -4 17 -16t0 -24q-8 -20 -29 -20
q-3 0 -11 2l-126 50v2q-3 23 -21 36l-86 67v8l31 -6v2v154v1q-5 -7 -5 -13v-84q0 -11 -8 -17l-18 -14v53q0 29 -15 55v7q0 29 24.5 51.5t65.5 22.5h30h3h31q40 0 64.5 -22.5t24.5 -51.5v-74zM869 289l55 11l-42 32q-8 6 -8 17v84q0 6 -5 13v-1v-154v-2z" />
  </g>

</svg>
