<?xml version="1.0" standalone="no"?>
<!DOCTYPE svg PUBLIC "-//W3C//DTD SVG 1.1//EN" "http://www.w3.org/Graphics/SVG/1.1/DTD/svg11.dtd" >
<svg xmlns="http://www.w3.org/2000/svg" xmlns:xlink="http://www.w3.org/1999/xlink" version="1.1" viewBox="-10 0 1010 1000">
  <g transform="matrix(1 0 0 -1 0 800)">
   <path fill="currentColor"
d="M900 207q10 0 17 -7t7 -17t-7 -17t-17 -7h-79v-324q0 -14 -15 -14t-15 14v324h-585v-324q0 -14 -15 -14t-15 14v324h-79q-10 0 -16.5 7t-6.5 17t6.5 17t16.5 7h22v83h-22q-10 0 -16.5 7t-6.5 17t6.5 17t16.5 7h228v402q0 10 10 10t10 -10v-59q21 54 62.5 86.5t91.5 32.5
t91 -32.5t62 -86.5v59q0 10 10 10t10 -10v-402h228q10 0 17 -7t7 -17t-7 -17t-17 -7h-22v-83h22zM856 207v83h-346v-83h346zM499 778q-62 0 -106.5 -57.5t-44.5 -138.5t44.5 -138.5t106.5 -57.5t106 57.5t44 138.5t-44 138.5t-106 57.5zM345 484v-146h307v146
q-21 -54 -62.5 -87t-90.5 -33q-50 0 -91.5 33t-62.5 87zM487 290h-346v-83h346v83zM212 274h232v-43h-232v43zM553 274h232v-43h-232v43zM711 47q0 -5 -3 -8v-39q3 -4 3 -9q0 -12 -12 -12h-4v-166q0 -13 -13 -13q-12 0 -12 13v166h-341v-166q0 -13 -13 -13q-12 0 -12 13v166
h-6q-12 0 -12 12q0 7 5 10v36q-5 3 -5 10q0 12 12 12h401q12 0 12 -12zM313 35v-31h373v31h-373zM314 66q47 20 185 20q137 0 184 -20h-369z" />
  </g>

</svg>
