<?xml version="1.0" standalone="no"?>
<!DOCTYPE svg PUBLIC "-//W3C//DTD SVG 1.1//EN" "http://www.w3.org/Graphics/SVG/1.1/DTD/svg11.dtd" >
<svg xmlns="http://www.w3.org/2000/svg" xmlns:xlink="http://www.w3.org/1999/xlink" version="1.1" viewBox="-10 0 1010 1000">
  <g transform="matrix(1 0 0 -1 0 800)">
   <path fill="currentColor"
d="M850 11q-14 -34 -43 -58l19 -73h-515l35 130h444v1q1 1 1 2q6 14 6 26.5t-3 22t-11 18.5t-15.5 15t-19.5 12.5t-19 9.5t-19.5 8t-14.5 6q-38 15 -100.5 10t-127.5 -21.5t-116 -38.5q-97 -91 -168 -61q-70 29 -74 158.5t59 282.5q64 154 158 241.5t164 58.5
q74 -30 74 -171q40 -48 81 -102.5t105 -150.5t93 -184t7 -142zM475 333q59 151 56.5 264t-54.5 134t-135.5 -59t-143.5 -223q-59 -152 -56.5 -264.5t54.5 -134.5q52 -21 136 59t143 224zM569 -82q46 0 78 11t32 27t-32 27t-78 11t-78.5 -11t-32.5 -27t32.5 -27t78.5 -11z
M311 -136h515v-64h-515v64zM607 -38q0 -13 -38 -13t-38 13t38 13t38 -13z" />
  </g>

</svg>
