<?xml version="1.0" standalone="no"?>
<!DOCTYPE svg PUBLIC "-//W3C//DTD SVG 1.1//EN" "http://www.w3.org/Graphics/SVG/1.1/DTD/svg11.dtd" >
<svg xmlns="http://www.w3.org/2000/svg" xmlns:xlink="http://www.w3.org/1999/xlink" version="1.1" viewBox="-10 0 1020 1000">
  <g transform="matrix(1 0 0 -1 0 800)">
   <path fill="currentColor"
d="M514 779q4 0 11.5 -0.5t28.5 -4.5t40.5 -11.5t43 -23.5t40.5 -37.5t28.5 -56.5t11.5 -78q0 -53 -21 -118.5t-51 -120.5t-60 -102.5t-51 -75.5l-21 -27q-8 10 -22 28.5t-49 72.5t-62 105.5t-49 118t-22 119.5q0 43 11.5 78t29 56.5t39.5 37.5t44 23.5t39.5 11.5t28.5 4z
M514 487q36 0 61.5 25t25.5 61t-25.5 61.5t-61.5 25.5t-61.5 -25.5t-25.5 -61.5t25.5 -61t61.5 -25zM332 333l-35 -509l-297 67l115 521l195 -29q7 -20 22 -50zM1000 -146l-299 34l-19 416q32 63 47 107l160 -43zM635 203l15 -318l-302 -64l26 382h30q10 -24 26 -37l24 -34
t18.5 -26t7.5 -10l34 -41l33 41q38 47 76 107h12z" />
  </g>

</svg>
