<?xml version="1.0" standalone="no"?>
<!DOCTYPE svg PUBLIC "-//W3C//DTD SVG 1.1//EN" "http://www.w3.org/Graphics/SVG/1.1/DTD/svg11.dtd" >
<svg xmlns="http://www.w3.org/2000/svg" xmlns:xlink="http://www.w3.org/1999/xlink" version="1.1" viewBox="-10 0 1010 1000">
  <g transform="matrix(1 0 0 -1 0 800)">
   <path fill="currentColor"
d="M909 99q5 -46 -34.5 -88.5t-103.5 -58.5q-69 -19 -126.5 2.5t-70.5 70.5t26.5 96.5t108.5 65.5q59 16 112 2v342l-385 -108v-449q5 -47 -34.5 -89.5t-103.5 -59.5q-68 -19 -126 2.5t-71 70.5t26.5 96.5t108.5 65.5q59 16 112 2v582l561 156v-701zM820 633v41l-384 -107
v-41z" />
  </g>

</svg>
