<?xml version="1.0" standalone="no"?>
<!DOCTYPE svg PUBLIC "-//W3C//DTD SVG 1.1//EN" "http://www.w3.org/Graphics/SVG/1.1/DTD/svg11.dtd" >
<svg xmlns="http://www.w3.org/2000/svg" xmlns:xlink="http://www.w3.org/1999/xlink" version="1.1" viewBox="-10 0 1020 1000">
  <g transform="matrix(1 0 0 -1 0 800)">
   <path fill="currentColor"
d="M928 118q10 0 16.5 -7t6.5 -16q0 -10 -6.5 -16.5t-16.5 -6.5h-110v-197q0 -9 -6 -15t-15 -6t-15 6t-6 15v197h-525v-197q0 -9 -6.5 -15t-14.5 -6q-9 0 -15 6t-6 15v197h-131q-10 0 -16.5 6.5t-6.5 16.5q0 9 6.5 16t16.5 7h850zM811 459q7 -6 7 -16v-44q0 -10 -6.5 -16.5
t-16.5 -6.5q-9 0 -16 6.5t-7 16.5v34l-92 89h-2v-223h-170v223h-2l-92 -89v-34q0 -10 -6.5 -16.5t-16.5 -6.5q-9 0 -16 6.5t-7 16.5v44q0 9 7 16l106 102q7 7 16 7h75h43h74q8 0 17 -7zM593 746q35 0 60 -25t25 -60t-25 -60t-60 -25t-60 25t-25 60t25 60t60 25zM208 230h137
l-78 84zM833 205q0 -31 -22 -52.5t-52 -21.5h-244h-94h-372q-20 0 -34.5 14.5t-14.5 35.5q0 20 14.5 34.5t34.5 14.5h47q1 1 2.5 4t2.5 4l123 175q12 18 34 20t37 -15l130 -139h334q30 0 52 -21.5t22 -52.5zM1000 212q0 -34 -23.5 -57.5t-57.5 -23.5q-33 0 -56.5 23.5
t-23.5 57.5q0 33 23.5 56.5t56.5 23.5q34 0 57.5 -23.5t23.5 -56.5v0z" />
  </g>

</svg>
