<?xml version="1.0" standalone="no"?>
<!DOCTYPE svg PUBLIC "-//W3C//DTD SVG 1.1//EN" "http://www.w3.org/Graphics/SVG/1.1/DTD/svg11.dtd" >
<svg xmlns="http://www.w3.org/2000/svg" xmlns:xlink="http://www.w3.org/1999/xlink" version="1.1" viewBox="-10 0 1018 1000">
  <g transform="matrix(1 0 0 -1 0 800)">
   <path fill="currentColor"
d="M63 308q-4 29 11 36q9 4 24 21t29 27q23 17 34.5 21t41.5 4q63 0 86 -21l-26 -14q-21 4 -36 4q-11 -15 -18 -33l-68 -37q-14 17 -36 17q-29 0 -42 -25zM290 366q10 -4 13 -16q-2 -18 -32 -46q-49 -46 -49 -84q-3 -87 -52 -115q-23 -21 -39 -48l-35 -64l-96 103
q34 26 50 56q5 9 7.5 15.5t3.5 13.5t1.5 11t0 13t-0.5 14q0 29 1 45q14 -26 42 -26q20 0 34 14t14 34q0 4 -1 6zM203 424q-29 0 -42 -4q16 23 38 33q90 41 106 28q12 -10 -2 -22.5t-36 -19.5q-29 -12 -36 -17q-20 2 -28 2zM246 308l30 17q1 1 3 2.5t7.5 6.5t8 9t4.5 9.5
t-2 8.5q-7 9 -21.5 7t-28.5 -15q-8 -7 -13.5 -13.5t-7.5 -9.5l-1 -3zM787 641l-497 -267q-23 5 -47 -16q-15 -11 -20 -21l-78 -42q1 -3 1 -9q0 -17 -12 -29t-29 -12t-29 12t-12 29t12 29t29 12q22 0 34 -19l642 345q6 2 9 -3q4 -6 -3 -9zM133 286q0 11 -8.5 19t-19.5 8
t-19.5 -8t-8.5 -19t8.5 -19.5t19.5 -8.5t19.5 8.5t8.5 19.5zM642 65q-22 -6 -39.5 0.5t-22.5 21.5q-4 16 8.5 30.5t34.5 20.5q18 5 35 0v107l-121 -34v-140q2 -14 -10.5 -27.5t-32.5 -18.5q-22 -5 -40 1.5t-22 21.5t8.5 30t34.5 20q17 6 35 1v181l175 49v-218
q2 -14 -10.5 -27.5t-32.5 -18.5zM938 12q-29 -8 -54 1.5t-30 30.5q-6 20 11 40.5t46 28.5q26 6 48 0v146l-164 -46v-191q2 -20 -15 -38t-44 -25q-30 -8 -54.5 1t-30.5 30q-5 20 12 40.5t46 28.5q26 6 48 0v248l240 67v-299q2 -20 -14.5 -38t-44.5 -25zM959 320l-164 -46v-17
l164 45v18zM463 286l-8 -28l-68 -17v-115q1 -12 -10.5 -23t-29.5 -15q-20 -5 -36.5 0.5t-20.5 18.5t7.5 25t31.5 16q16 4 32 1v149l115 28l-9 -28l-80 -20v-10z" />
  </g>

</svg>
