<?xml version="1.0" standalone="no"?>
<!DOCTYPE svg PUBLIC "-//W3C//DTD SVG 1.1//EN" "http://www.w3.org/Graphics/SVG/1.1/DTD/svg11.dtd" >
<svg xmlns="http://www.w3.org/2000/svg" xmlns:xlink="http://www.w3.org/1999/xlink" version="1.1" viewBox="-10 0 1020 1000">
  <g transform="matrix(1 0 0 -1 0 800)">
   <path fill="currentColor"
d="M500 -200q-136 0 -251 67t-182 182.5t-67 250.5q0 136 67 251t182 182t251 67q135 0 250.5 -67t182.5 -182t67 -251q0 -206 -147 -353t-353 -147zM500 757q-189 0 -323 -134t-134 -323q0 -188 134 -322t323 -134q188 0 322 134t134 322q0 189 -134 323t-322 134zM609 300
q0 -45 -32 -77t-77 -32q-46 0 -78 32t-32 77q0 46 32 78t78 32q45 0 77 -32t32 -78zM653 300h259q0 -123 -66.5 -223.5t-174.5 -150.5l-108 235q40 18 65 56t25 83zM500 454q-45 0 -83 -24l-140 218q103 65 223 65q119 0 222 -65l-140 -218q-38 24 -82 24zM346 300
q0 -45 25 -83t65 -56l-108 -235q-108 50 -174.5 150.5t-66.5 223.5h259z" />
  </g>

</svg>
