<?xml version="1.0" standalone="no"?>
<!DOCTYPE svg PUBLIC "-//W3C//DTD SVG 1.1//EN" "http://www.w3.org/Graphics/SVG/1.1/DTD/svg11.dtd" >
<svg xmlns="http://www.w3.org/2000/svg" xmlns:xlink="http://www.w3.org/1999/xlink" version="1.1" viewBox="-10 0 1010 1000">
  <g transform="matrix(1 0 0 -1 0 800)">
   <path fill="currentColor"
d="M308 297q-8 0 -14 6t-6 14v464q0 8 6 13.5t14 5.5h381q8 0 14 -5.5t6 -13.5v-464q0 -8 -6 -14t-14 -6h-381zM706 278l84 -126q7 -10 1 -21q-5 -10 -17 -10h-551q-12 0 -17 10q-6 11 1 21l84 126q7 9 17 9h381q10 0 17 -9zM496 76q-86 0 -152.5 10t-90.5 20l-24 10h539
l-6 -1q-8 -4 -25.5 -10.5t-86 -17.5t-154.5 -11zM216 204q-17 0 -17 18v158q0 18 17 18h40q7 0 12 -5.5t5 -12.5t-5 -12t-12 -5h-23v-141q0 -18 -17 -18zM781 398q7 0 12.5 -5t5.5 -13v-158q0 -8 -5.5 -13t-12.5 -5q-17 0 -17 18v141h-23q-7 0 -12 5t-5 12t5 12.5t12 5.5h40
zM697 -4q7 0 12.5 -5t5.5 -12v-28q0 -7 -5.5 -12t-12.5 -5t-12 5t-5 12v10h-104l131 -95q8 -6 8 -14v-34q0 -8 -5.5 -13t-12.5 -5t-12 5.5t-5 12.5v25l-164 118h-35l-164 -118v-25q0 -7 -5 -12.5t-12 -5.5q-8 0 -13 5t-5 13v34q0 8 8 14l131 95h-104v-10q0 -7 -5 -12t-12 -5
t-12.5 5t-5.5 12v28q0 7 5.5 12t12.5 5h173v71h50v-71h174z" />
  </g>

</svg>
