<?xml version="1.0" standalone="no"?>
<!DOCTYPE svg PUBLIC "-//W3C//DTD SVG 1.1//EN" "http://www.w3.org/Graphics/SVG/1.1/DTD/svg11.dtd" >
<svg xmlns="http://www.w3.org/2000/svg" xmlns:xlink="http://www.w3.org/1999/xlink" version="1.1" viewBox="-10 0 1020 1000">
  <g transform="matrix(1 0 0 -1 0 800)">
   <path fill="currentColor"
d="M0 521v3h1000v-3v-125v-466v-128v-2h-1000v2v128v466v125zM962 -70v466h-925v-466h925zM0 800h1000v-241h-1000v241zM96 657q11 0 19 8.5t8 19.5t-8 19.5t-19 8.5q-12 0 -20 -8.5t-8 -19.5t8 -19.5t20 -8.5zM246 657q11 0 19.5 8.5t8.5 19.5t-8.5 19.5t-19.5 8.5
t-19.5 -8.5t-8.5 -19.5t8.5 -19.5t19.5 -8.5zM645 637v85h-291v-85h291zM753 657q11 0 19.5 8.5t8.5 19.5t-8.5 19.5t-19.5 8.5t-19.5 -8.5t-8.5 -19.5t8.5 -19.5t19.5 -8.5zM903 657q12 0 20 8.5t8 19.5t-8 19.5t-20 8.5q-11 0 -19 -8.5t-8 -19.5t8 -19.5t19 -8.5zM637 -32
h-51l338 369v-38v-18zM813 -32h-51l162 177v-55z" />
  </g>

</svg>
