<?xml version="1.0" standalone="no"?>
<!DOCTYPE svg PUBLIC "-//W3C//DTD SVG 1.1//EN" "http://www.w3.org/Graphics/SVG/1.1/DTD/svg11.dtd" >
<svg xmlns="http://www.w3.org/2000/svg" xmlns:xlink="http://www.w3.org/1999/xlink" version="1.1" viewBox="-10 0 1010 1000">
  <g transform="matrix(1 0 0 -1 0 800)">
   <path fill="currentColor"
d="M688 670h-378q-11 0 -18.5 7.5t-7.5 18.5t7.5 18.5t18.5 7.5h378q11 0 18.5 -7.5t7.5 -18.5t-7.5 -18.5t-18.5 -7.5zM688 558h-378q-11 0 -18.5 7.5t-7.5 18.5t7.5 18.5t18.5 7.5h378q11 0 18.5 -7.5t7.5 -18.5t-7.5 -18.5t-18.5 -7.5zM688 445h-378q-11 0 -18.5 7.5
t-7.5 18.5t7.5 18.5t18.5 7.5h378q11 0 18.5 -7.5t7.5 -18.5t-7.5 -18.5t-18.5 -7.5zM699 -121h-30v261h30v-261zM630 243q-16 0 -27 11t-11 27t11 27.5t27 11.5t27.5 -11t11.5 -28q0 -16 -11.5 -27t-27.5 -11zM637 -121h-30v261h30v-261zM580 -121h-30v261h30v-261z
M519 -121h-30v261h30v-261zM467 -121h-30v261h30v-261zM405 -121h-30v261h30v-261zM347 -121h-30v261h30v-261zM719 800h-439q-29 0 -49 -20t-20 -49v-861q0 -29 20 -49.5t49 -20.5h439q29 0 49 20.5t20 49.5v861q0 29 -20 49t-49 20v0z" />
  </g>

</svg>
