<?xml version="1.0" standalone="no"?>
<!DOCTYPE svg PUBLIC "-//W3C//DTD SVG 1.1//EN" "http://www.w3.org/Graphics/SVG/1.1/DTD/svg11.dtd" >
<svg xmlns="http://www.w3.org/2000/svg" xmlns:xlink="http://www.w3.org/1999/xlink" version="1.1" viewBox="-10 0 1020 1000">
  <g transform="matrix(1 0 0 -1 0 800)">
   <path fill="currentColor"
d="M1000 -59q0 -18 -9 -24t-38 -6h-718q-29 0 -37.5 5.5t-8.5 24.5q0 42 35 64v1l4 2q197 112 267 123q9 44 9 72q-8 12 -20 32.5t-32 74t-20 94.5q0 86 11 122q31 97 150 97v0q34 0 60.5 -8.5t43 -19t28.5 -31t17.5 -35t8.5 -40.5t3 -37v-35v-13q0 -41 -18 -91.5t-36 -80.5
l-17 -29q0 -12 2.5 -30t4.5 -30l2 -12q68 -10 261 -120q47 -23 47 -70zM188 57q-43 -29 -57 -80h-85q-29 0 -37.5 5.5t-8.5 24.5q0 43 34 65h1q1 0 1 1l2 1q206 114 268 123q9 45 9 72q-8 12 -20 32.5t-32 74t-20 94.5q0 86 11 121q30 98 150 98q55 0 92 -21
q-36 -13 -64 -41q-65 -66 -62 -211v-12q0 -102 71 -217q-1 -3 -1 -7q-85 -29 -242 -117q-1 -1 -3.5 -2.5t-3.5 -2.5l-2 -1h-1z" />
  </g>

</svg>
