<?xml version="1.0" standalone="no"?>
<!DOCTYPE svg PUBLIC "-//W3C//DTD SVG 1.1//EN" "http://www.w3.org/Graphics/SVG/1.1/DTD/svg11.dtd" >
<svg xmlns="http://www.w3.org/2000/svg" xmlns:xlink="http://www.w3.org/1999/xlink" version="1.1" viewBox="-10 0 1017 1000">
  <g transform="matrix(1 0 0 -1 0 800)">
   <path fill="currentColor"
d="M889 241q13 0 22 -8.5t9 -21.5v-380q0 -13 -9 -22t-22 -9h-348v441h348zM79 211q0 13 9 21.5t22 8.5h348v-441h-348q-13 0 -22 9t-9 22v380zM514 541h-29h-27v-241h-410q-19 0 -32.5 13.5t-13.5 32.5v148q0 20 13.5 33.5t32.5 13.5h195q-19 16 -40 37q-43 44 -43 93
t43 93q36 36 86 36q63 0 120 -57q39 -39 90 -102q57 68 91 102q57 57 120 57q50 0 86 -36q44 -44 44 -93t-44 -93q-21 -21 -40 -37h195q19 0 32.5 -13.5t13.5 -33.5v-148q0 -19 -13.5 -32.5t-32.5 -13.5h-410v241h-27zM432 558q1 3 33 41q-58 68 -95 105q-39 41 -81 41
q-28 0 -47 -20q-55 -53 0 -108q45 -45 87 -76h87zM582 541h88q42 31 87 76q55 55 0 108q-19 20 -47 20q-42 0 -81 -41q-19 -19 -95 -105q32 -38 33 -41z" />
  </g>

</svg>
