<?xml version="1.0" standalone="no"?>
<!DOCTYPE svg PUBLIC "-//W3C//DTD SVG 1.1//EN" "http://www.w3.org/Graphics/SVG/1.1/DTD/svg11.dtd" >
<svg xmlns="http://www.w3.org/2000/svg" xmlns:xlink="http://www.w3.org/1999/xlink" version="1.1" viewBox="-10 0 1010 1000">
  <g transform="matrix(1 0 0 -1 0 800)">
   <path fill="currentColor"
d="M191 45h616v-41h-616v41zM304 -200l-64 167h518l-64 -167h-390zM903 512l38 -6q-9 -57 -45.5 -83t-78.5 -29q-6 -26 -23.5 -45t-38 -29.5t-50.5 -17.5t-52 -9.5t-52 -3.5q47 -67 153 -67v-38q-57 0 -102 20.5t-63 40t-30 40.5q-43 -12 -57 -59q58 -44 56 -143h-38
q2 82 -43 116q-8 5 -23 15t-23 15q-7 -13 -17 -20q-29 -22 -83 -8q-29 8 -53 -1.5t-31 -18t-10 -14.5l-34 18q15 27 51 46t87 6q35 -9 50 1q4 4 8 12q-56 34 -85 64.5t-29 71.5q-33 5 -67.5 15.5t-83 42.5t-76.5 79l32 19q60 -96 206 -120q19 33 105 94q71 52 80 68
q-16 24 -51 20q-18 -1 -28 9q-15 12 -17 64q0 45 -9 63t-40 18v37q25 0 42 -8.5t25.5 -19.5t13.5 -29.5t5.5 -30t0.5 -29.5q0 -27 3 -36q39 3 65 -16q22 49 103 50q28 1 52 43.5t35 80.5l37 -10q-3 -13 -10.5 -31t-22.5 -48t-39 -50.5t-51 -21.5q-74 -2 -74 -48
q0 -17 -15.5 -36t-32 -32t-50.5 -37q-25 -18 -36 -26.5t-30 -24t-27 -27.5t-8 -23q0 -21 17.5 -42t35 -33t57.5 -37q12 -8 38 -24q28 73 106 76l5 1q63 2 108 10q-9 32 -50 33q-46 0 -67 27q-20 25 -12 50l18 -4l19 -4q-2 -11 5 -19q11 -13 38 -13q44 -2 66 -26
q13 -13 19 -33q53 20 57 67q2 17 4 49q2 35 3.5 54.5t7.5 50.5t15.5 49.5t27 37t41.5 27.5l13 -35q-41 -15 -53.5 -59.5t-17.5 -127.5q0 -10 -2 -28q72 8 82 80z" />
  </g>

</svg>
