<?xml version="1.0" standalone="no"?>
<!DOCTYPE svg PUBLIC "-//W3C//DTD SVG 1.1//EN" "http://www.w3.org/Graphics/SVG/1.1/DTD/svg11.dtd" >
<svg xmlns="http://www.w3.org/2000/svg" xmlns:xlink="http://www.w3.org/1999/xlink" version="1.1" viewBox="-10 0 1020 1000">
  <g transform="matrix(1 0 0 -1 0 800)">
   <path fill="currentColor"
d="M902 267q0 13 -9 22t-22 9t-22 -9t-9 -22t9 -22t22 -9t22 9t9 22zM774 -159l-67 187h-415l-67 -187h549zM179 323q0 7 -5.5 12.5t-12.5 5.5h-109q-8 0 -13 -5.5t-5 -12.5t5 -12.5t13 -5.5h109q7 0 12.5 5.5t5.5 12.5zM253 770v-373l100 -98h304l89 84v387h-493zM1000 347
v-337q0 -16 -12 -28t-28 -12h-190l41 -115q7 -21 -5 -37q-11 -16 -32 -16h-549q-21 0 -32 16q-12 16 -5 37l41 115h-190q-16 0 -27.5 11.5t-11.5 28.5v337q0 17 12 28l118 115q13 11 28 11h66v269q0 12 8.5 20.5t20.5 8.5h493q12 0 20.5 -8.5t8.5 -20.5v-269h66q15 0 28 -11
l118 -115q13 -11 13 -28zM676 379q0 -13 -13 -13h-327q-12 0 -12 13t12 13h327q13 0 13 -13zM676 446q0 -13 -13 -13h-327q-12 0 -12 13t12 13h327q13 0 13 -13zM676 532q0 -13 -13 -13h-327q-12 0 -12 13t12 13h327q13 0 13 -13zM676 606q0 -13 -13 -13h-327q-12 0 -12 13
t12 13h327q13 0 13 -13zM676 692q0 -13 -13 -13h-327q-12 0 -12 13t12 13h327q13 0 13 -13v0z" />
  </g>

</svg>
