<?xml version="1.0" standalone="no"?>
<!DOCTYPE svg PUBLIC "-//W3C//DTD SVG 1.1//EN" "http://www.w3.org/Graphics/SVG/1.1/DTD/svg11.dtd" >
<svg xmlns="http://www.w3.org/2000/svg" xmlns:xlink="http://www.w3.org/1999/xlink" version="1.1" viewBox="-10 0 1020 1000">
  <g transform="matrix(1 0 0 -1 0 800)">
   <path fill="currentColor"
d="M512 556q-106 0 -180.5 -75t-74.5 -181q0 -105 74.5 -180t180.5 -75t180.5 75t74.5 180q0 106 -74.5 181t-180.5 75zM512 641q141 0 241 -99.5t100 -241.5q0 -141 -100 -241t-241 -100t-241 100t-100 241q0 142 100 241.5t241 99.5zM512 531q95 0 163 -67.5t68 -163.5
q0 -95 -68 -162.5t-163 -67.5t-163 67.5t-68 162.5q0 96 68 163.5t163 67.5zM126 590q15 0 15 -14v-154v-39v-1q0 -23 -15.5 -39t-38.5 -18v-324q0 -16 -16 -16t-16 16v324q-23 1 -39 17.5t-16 39.5v1v39v154q0 14 14 14t14 -14v-130h27v157q0 16 16 16t16 -16v-157h25v130
q0 14 14 14zM956 619q18 0 31 -13t13 -31v-259v-25v-291q0 -6 -4.5 -10.5t-11.5 -4.5q-6 0 -10.5 4.5t-4.5 10.5v250q-6 -3 -13 -3q-18 0 -31 13t-13 31v284q0 18 13 31t31 13z" />
  </g>

</svg>
