<?xml version="1.0" standalone="no"?>
<!DOCTYPE svg PUBLIC "-//W3C//DTD SVG 1.1//EN" "http://www.w3.org/Graphics/SVG/1.1/DTD/svg11.dtd" >
<svg xmlns="http://www.w3.org/2000/svg" xmlns:xlink="http://www.w3.org/1999/xlink" version="1.1" viewBox="-10 0 1020 1000">
  <g transform="matrix(1 0 0 -1 0 800)">
   <path fill="currentColor"
d="M1000 83v-90q-66 -50 -140 -59t-125 28q-44 32 -107.5 43t-117.5 3t-87 -28q-19 -12 -42.5 -22t-58.5 -21t-70.5 -6t-61.5 27q-67 57 -190 40v99q107 18 162 -29q45 -38 108 -38q84 0 175 55q28 17 74 23.5t100 -2.5t91 -36q58 -42 137 -38.5t153 51.5zM190 100
q-67 57 -190 40v73h999v-78q-65 -50 -139 -59t-125 28q-44 32 -107.5 43t-117.5 3t-87 -28q-19 -12 -42.5 -22t-58.5 -21t-70.5 -6t-61.5 27zM710 -72q58 -42 137 -38.5t153 51.5v-113h-1000v127q107 18 162 -29q45 -38 108 -38q84 0 175 55q28 17 74 23.5t100 -2.5t91 -36z
M363 256h-69v355q0 67 47.5 114.5t115.5 47.5q50 0 90.5 -27t59.5 -72q-10 -32 -10 -63v-32q-8 -2 -11 -2q-14 0 -24 10t-10 24q0 39 -28 66.5t-67 27.5t-66.5 -27.5t-27.5 -66.5v-88h268v88q0 67 47.5 114.5t115.5 47.5t115.5 -47.5t47.5 -114.5q0 -14 -10.5 -24t-24.5 -10
t-24 10t-10 24q0 39 -27.5 66.5t-66.5 27.5t-67 -27.5t-28 -66.5v-355h-68v40h-268v-40zM363 455v-91h268v91h-268z" />
  </g>

</svg>
