<?xml version="1.0" standalone="no"?>
<!DOCTYPE svg PUBLIC "-//W3C//DTD SVG 1.1//EN" "http://www.w3.org/Graphics/SVG/1.1/DTD/svg11.dtd" >
<svg xmlns="http://www.w3.org/2000/svg" xmlns:xlink="http://www.w3.org/1999/xlink" version="1.1" viewBox="-10 0 1020 1000">
  <g transform="matrix(1 0 0 -1 0 800)">
   <path fill="currentColor"
d="M833 309q5 18 -13 22q-16 5 -22 -12l-27 -98q-5 -18 13 -23h4q15 0 18 13zM726 198q15 0 18 13l27 98q5 18 -13 22q-16 5 -22 -12l-27 -98q-5 -18 13 -23h4zM664 198q15 0 18 13l27 98q4 19 -13 22q-16 5 -22 -12l-27 -98q-5 -18 13 -23h4zM957 307q18 0 30.5 -12.5
t12.5 -29.5t-12.5 -29.5t-30.5 -12.5h-62q-13 -28 -38.5 -45t-56.5 -17h-217q2 -12 4 -36h50q10 0 17 -7t7 -17t-7 -17t-17 -7h-614q-10 0 -16.5 7t-6.5 17t6.5 17t16.5 7h51q5 103 76.5 173.5t174.5 70.5h16h50l363 363q22 21 51.5 21t50.5 -21q22 -21 22 -51t-22 -51
l-14 -14q-16 9 -30 9q-25 0 -41.5 -17t-16.5 -41q0 -17 8 -31l-14 -14q-16 9 -31 9q-24 0 -41 -17t-17 -42q0 -14 9 -30l-10 -11q-14 9 -31 9q-24 0 -41 -17t-17 -41q0 -5 2 -13h229q31 0 56.5 -17t38.5 -45h62zM570 63h-159q-27 -48 -81 -48q-53 0 -80 48h-144
q-9 -6 -15 -13.5t-7 -12.5l-2 -5l69 -1l6 -9q-21 -15 -29.5 -32.5t-6.5 -27.5l2 -10l61 35l6 -6q-19 -24 -22.5 -45.5t2.5 -31.5l6 -9l50 59q4 -2 5 -3q-1 -1 -1 -3t-1 -3q-11 -34 -8 -54t13 -28l9 -8l30 78q1 0 3 -1h2v-13q0 -32 11.5 -52t22.5 -23l12 -4v85h3q0 -1 1.5 -6
t2.5 -8q11 -31 28.5 -46t29.5 -15l12 1l-28 79q4 0 6 1q4 -6 7 -10q19 -26 39.5 -36t32.5 -7l11 4l-46 65l9 6l2 -2q25 -20 47.5 -24t32.5 3l10 6l-55 44l5 5q34 -11 54 -7.5t28 12.5l8 9l-60 23q3 5 5 10q45 4 61 31v0z" />
  </g>

</svg>
