<?xml version="1.0" standalone="no"?>
<!DOCTYPE svg PUBLIC "-//W3C//DTD SVG 1.1//EN" "http://www.w3.org/Graphics/SVG/1.1/DTD/svg11.dtd" >
<svg xmlns="http://www.w3.org/2000/svg" xmlns:xlink="http://www.w3.org/1999/xlink" version="1.1" viewBox="-10 0 1020 1000">
  <g transform="matrix(1 0 0 -1 0 800)">
   <path fill="currentColor"
d="M509 500q143 0 244 -101t101 -244t-101 -244.5t-244 -101.5t-244 101.5t-101 244.5t101 244t244 101zM509 -122q114 0 195 81t81 196q0 114 -81 195t-195 81q-115 0 -195.5 -81t-80.5 -195q0 -115 80.5 -196t195.5 -81zM509 394q99 0 169 -70t70 -169t-70 -169.5
t-169 -70.5t-169 70.5t-70 169.5t70 169t169 70zM937 589q30 0 46.5 -50t16.5 -116t-17 -116t-46 -50h-6v-308h-37v640h30h7h6zM167 589v-177q0 -29 -18.5 -51.5t-45.5 -29.5v-382h-37v381q-29 6 -47.5 29t-18.5 53v177h36v-177q0 -31 30 -43v220h37v-219q27 12 27 42v177
h37zM345 629q-64 0 -110 24t-46 58t45.5 57.5t110.5 23.5q55 0 97.5 -17.5t54.5 -45.5h331v-37h-331q-12 -27 -54.5 -45t-97.5 -18z" />
  </g>

</svg>
