<?xml version="1.0" standalone="no"?>
<!DOCTYPE svg PUBLIC "-//W3C//DTD SVG 1.1//EN" "http://www.w3.org/Graphics/SVG/1.1/DTD/svg11.dtd" >
<svg xmlns="http://www.w3.org/2000/svg" xmlns:xlink="http://www.w3.org/1999/xlink" version="1.1" viewBox="-10 0 1018 1000">
  <g transform="matrix(1 0 0 -1 0 800)">
   <path fill="currentColor"
d="M994 -56q9 -25 -7 -46q-16 -22 -43 -22h-889q-27 0 -43 22q-15 20 -7 46l65 201q5 16 19 26t31 10h38v92q0 40 37 57l5 2h1v155q0 8 6 14.5t15 6.5t15 -6.5t6 -14.5v-155h1l5 -2q37 -17 37 -57v-92h593q17 0 31 -10t19 -26zM712 -28q8 8 4 20l-29 88q-5 15 -22 15h-331
q-17 0 -22 -15l-29 -88q-4 -12 4 -20q7 -10 18 -10h389q11 0 18 10zM69 594q-7 -9 -19 -10.5t-21 5.5q-10 7 -11.5 19t5.5 21q75 97 199 97q123 0 199 -98q7 -9 5.5 -21t-11.5 -19q-7 -6 -17 -6q-16 0 -23 12q-58 75 -153 75t-153 -75zM96 562q53 51 126 51q75 0 125 -52
q9 -8 9 -20t-9 -20q-8 -8 -20 -8t-21 8q-33 35 -84 35q-49 0 -85 -34q-9 -9 -20 -9q-12 0 -21 9q-8 8 -8 20t8 20zM407 29q0 -14 -10.5 -24.5t-24.5 -10.5t-24.5 10.5t-10.5 24.5t10.5 24t24.5 10t24.5 -10t10.5 -24zM534 29q0 -14 -10 -24.5t-25 -10.5q-14 0 -24 10.5
t-10 24.5t10 24t24 10q15 0 25 -10t10 -24zM662 29q0 -14 -10.5 -24.5t-24.5 -10.5t-24.5 10.5t-10.5 24.5t10.5 24t24.5 10t24.5 -10t10.5 -24v0z" />
  </g>

</svg>
