<?xml version="1.0" standalone="no"?>
<!DOCTYPE svg PUBLIC "-//W3C//DTD SVG 1.1//EN" "http://www.w3.org/Graphics/SVG/1.1/DTD/svg11.dtd" >
<svg xmlns="http://www.w3.org/2000/svg" xmlns:xlink="http://www.w3.org/1999/xlink" version="1.1" viewBox="-10 0 1010 1000">
  <g transform="matrix(1 0 0 -1 0 800)">
   <path fill="currentColor"
d="M250 -200h-116v50h116v-50zM863 -150v-50h-116v50h116zM853 312h-708q-19 0 -32 -13t-13 -31v-330q0 -19 13 -32t32 -13h708q19 0 32 13t13 32v330q0 18 -13 31t-32 13zM853 344q32 0 54.5 -22.5t22.5 -53.5v-330q0 -32 -23 -54.5t-54 -22.5h-708q-32 0 -54.5 22.5
t-22.5 54.5v330q0 32 22.5 54t54.5 22h708zM797 303v-400h-13v400h13zM855 -96q-2 -1 -7 -1h-6v400h6q5 0 7 -1v-398zM739 303v-400h-13v400h13zM681 303v-400h-12v400h12zM623 303v-400h-12v400h12zM329 303v-400h-13v400h13zM271 303v-400h-13v400h13zM213 303v-400h-13
v400h13zM155 303v-400h-13v400h13zM566 303v-400h-13v400h13zM503 303v-400h-13v400h13zM445 303v-400h-13v400h13zM387 303v-400h-13v400h13zM794 365q-6 0 -9 3q-33 33 -33 80q0 28 29 50q17 14 17 27t-18 27q-33 24 -33 60t34 50q8 4 12 6.5t7 10t3 20.5q0 30 -16 42
q-23 16 -23 46q0 5 4.5 9t9.5 4q14 0 14 -13q0 -15 12 -24q27 -19 27 -64t-39 -62q-10 -5 -13.5 -9t-3.5 -16q0 -21 22 -38q29 -20 29 -49q0 -28 -29 -50q-17 -12 -17 -27q0 -16 6 -31t12 -21l6 -7q9 -11 0 -20q-3 -4 -10 -4zM670 369q-4 -4 -10 -4t-10 3l-2 2q-2 3 -5 6.5
t-6 8.5t-6.5 11.5t-6.5 14.5t-4.5 17.5t-1.5 19.5q0 29 28 50q17 12 17 27q0 13 -18 27q-33 24 -33 60q0 16 6.5 27t12 15t15.5 8q12 5 17 11.5t5 25.5q0 29 -15 42q-23 16 -23 46q0 13 14 13t14 -13q0 -16 11 -24q27 -18 27 -64q0 -20 -7 -34t-13.5 -18.5t-17.5 -9.5
t-14.5 -9t-3.5 -16q0 -20 22 -38q29 -20 29 -49t-28 -50q-17 -11 -17 -27t6 -31t12 -21l5 -7q10 -10 1 -20zM519 369q-4 -4 -10 -4q-5 0 -10 3l-2 2q-2 3 -5 6.5t-6.5 8.5t-7 11.5t-6 14.5t-4.5 17.5t-2 19.5q0 28 29 50q17 12 17 27q0 13 -18 27q-33 24 -33 60q0 16 6.5 27
t12 15t15.5 8q8 4 12 6.5t7 10t3 20.5q0 30 -16 42q-22 17 -22 46q0 13 14 13t14 -13q0 -16 11 -24q27 -19 27 -64q0 -20 -7 -34t-13.5 -18.5t-17.5 -9.5t-14.5 -9t-3.5 -16q0 -20 22 -38q29 -20 29 -49t-28 -50q-17 -11 -17 -27t5.5 -31t11.5 -21l6 -7q10 -10 1 -20z
M375 369q-4 -4 -10 -4q-5 0 -10 3l-2 2q-2 3 -5 6.5t-6 8.5t-6.5 11.5t-6.5 14.5t-4.5 17.5t-1.5 19.5q0 29 28 50q17 12 17 27q0 14 -17 27q-33 24 -33 60t33 50q9 4 12.5 6.5t7 10t3.5 20.5q0 30 -16 42q-23 16 -23 46q0 13 14 13t14 -13q0 -15 11 -24q28 -19 28 -64
q0 -44 -39 -62q-10 -5 -13.5 -9t-3.5 -16q0 -21 22 -38q28 -21 28 -49q0 -29 -28 -50q-17 -11 -17 -27t6 -30.5t11.5 -21.5t6.5 -7q8 -10 0 -20zM224 369q-4 -4 -10 -4t-10 3l-2 2q-2 3 -5 6.5t-6 8.5t-6.5 11.5t-6.5 14.5t-4.5 17.5t-1.5 19.5q0 29 28 50q17 12 17 27
q0 14 -17 27q-33 24 -33 60t33 50q9 4 12.5 6.5t7 10t3.5 20.5q0 30 -16 42q-23 16 -23 46q0 13 14 13t14 -13q0 -15 11 -24q28 -19 28 -64q0 -44 -39 -62q-10 -5 -13.5 -9t-3.5 -16q0 -20 21 -38q29 -20 29 -49t-28 -50q-17 -11 -17 -27t6 -30.5t11.5 -21.5t6.5 -7
q8 -10 0 -20z" />
  </g>

</svg>
