<?xml version="1.0" standalone="no"?>
<!DOCTYPE svg PUBLIC "-//W3C//DTD SVG 1.1//EN" "http://www.w3.org/Graphics/SVG/1.1/DTD/svg11.dtd" >
<svg xmlns="http://www.w3.org/2000/svg" xmlns:xlink="http://www.w3.org/1999/xlink" version="1.1" viewBox="-10 0 1020 1000">
  <g transform="matrix(1 0 0 -1 0 800)">
   <path fill="currentColor"
d="M136 800h864v-1000h-843h-21h-136v1000h136zM157 645v-97l298 232h-125zM157 671l139 109h-139v-109zM979 -179v959h-490l-332 -259v-700h822zM612 300q0 -18 -13 -31t-31 -13q-19 0 -32 13t-13 31q0 19 13 32t32 13q18 0 31 -13t13 -32zM218 300q0 145 102.5 247.5
t247.5 102.5t247 -102.5t102 -247.5q0 -144 -102 -246.5t-247 -102.5t-247.5 102.5t-102.5 246.5zM668 300q0 42 -29.5 71.5t-70.5 29.5q-42 0 -71.5 -29.5t-29.5 -71.5q0 -41 29.5 -70.5t71.5 -29.5q41 0 70.5 29.5t29.5 70.5z" />
  </g>

</svg>
