<?xml version="1.0" standalone="no"?>
<!DOCTYPE svg PUBLIC "-//W3C//DTD SVG 1.1//EN" "http://www.w3.org/Graphics/SVG/1.1/DTD/svg11.dtd" >
<svg xmlns="http://www.w3.org/2000/svg" xmlns:xlink="http://www.w3.org/1999/xlink" version="1.1" viewBox="-10 0 1020 1000">
  <g transform="matrix(1 0 0 -1 0 800)">
   <path fill="currentColor"
d="M287 375q34 0 34 -32t-34 -32h-55v64h55zM500 800q136 0 251 -66.5t182 -182t67 -251.5t-67 -251t-182 -182t-251 -67t-251.5 67t-182 182t-66.5 251q0 102 39.5 194.5t106.5 159.5t159.5 106.5t194.5 39.5zM328 188h49q-6 8 -9 53q-4 46 -33 53q35 15 35 57q0 26 -18 44
t-47 18h-122v-225h49v88h50q18 0 26.5 -8t11.5 -26q5 -48 8 -54zM582 188v41h-121v56h109v38h-109v49h119v41h-169v-225h171zM717 182q41 0 68 25t31 68h-48q-7 -51 -51 -51q-31 0 -46 22t-15 54q0 33 15 55t46 22q19 0 33 -11.5t16 -28.5h48q-4 39 -31 60.5t-66 21.5
q-51 0 -81 -33.5t-30 -85.5q0 -51 30 -84.5t81 -33.5z" />
  </g>

</svg>
