<?xml version="1.0" standalone="no"?>
<!DOCTYPE svg PUBLIC "-//W3C//DTD SVG 1.1//EN" "http://www.w3.org/Graphics/SVG/1.1/DTD/svg11.dtd" >
<svg xmlns="http://www.w3.org/2000/svg" xmlns:xlink="http://www.w3.org/1999/xlink" version="1.1" viewBox="-10 0 1010 1000">
  <g transform="matrix(1 0 0 -1 0 800)">
   <path fill="currentColor"
d="M625 648q0 23 -16.5 39.5t-39.5 16.5t-39.5 -16.5t-16.5 -39.5t16.5 -39.5t39.5 -16.5t39.5 16.5t16.5 39.5zM486 648q0 23 -16.5 39.5t-39.5 16.5t-39 -16.5t-16 -39.5t16 -39.5t39 -16.5t39.5 16.5t16.5 39.5zM667 687v-69q0 -8 -5.5 -13t-12.5 -5h-10v-51
q0 -15 -11 -26t-26 -11h-204q-16 0 -26.5 11t-10.5 26v51h-10q-7 0 -12.5 5t-5.5 13v69q0 7 5.5 12.5t12.5 5.5h12q9 24 35 24h14v71h22v-71h131v71h22v-71h15q25 0 34 -24h13q7 0 12.5 -5.5t5.5 -12.5zM716 502q15 0 26 -10.5t11 -26.5v-230q0 -15 -11 -26t-26 -11h-51v166
q0 26 -18.5 44.5t-44.5 18.5h-204q-26 0 -45 -18.5t-19 -44.5v-166h-50q-16 0 -26.5 11t-10.5 26v230q0 16 10.5 26.5t26.5 10.5h432zM640 32v-194q0 -16 -11 -27t-27 -11h-34q-15 0 -26 11t-11 27v194q0 16 11 26.5t26 10.5h34q16 0 27 -10.5t11 -26.5zM469 32v-194
q0 -16 -11 -27t-27 -11h-34q-15 0 -26 11t-11 27v194q0 16 11 26.5t26 10.5h34q16 0 27 -10.5t11 -26.5zM639 133q0 -15 -11 -26t-26 -11h-204q-16 0 -26.5 11t-10.5 26v231q0 15 10.5 26t26.5 11h204q15 0 26 -11t11 -26v-231z" />
  </g>

</svg>
