<?xml version="1.0" standalone="no"?>
<!DOCTYPE svg PUBLIC "-//W3C//DTD SVG 1.1//EN" "http://www.w3.org/Graphics/SVG/1.1/DTD/svg11.dtd" >
<svg xmlns="http://www.w3.org/2000/svg" xmlns:xlink="http://www.w3.org/1999/xlink" version="1.1" viewBox="-10 0 1010 1000">
  <g transform="matrix(1 0 0 -1 0 800)">
   <path fill="currentColor"
d="M616 698q-4 25 20 52q11 12 21 21t15 12l5 3q-46 -25 -59 -49q-5 -11 -5.5 -21t1.5 -14zM680 800q-6 -40 -3 -66t1.5 -54.5t-13.5 -51.5q-12 -24 -32.5 -30t-35.5 0l-15 5q-2 1 -5.5 3.5t-13 10t-13 16t-6 22.5t7.5 29q11 24 31 40t48 35.5t49 40.5zM717 409q-5 30 24 62
q13 14 25 25t18 15l6 4q-55 -30 -70 -60q-7 -13 -7.5 -24.5t1.5 -16.5zM863 593q-7 -49 -3.5 -80t2 -65.5t-15.5 -62.5t-39 -35.5t-43 -1.5l-18 7q-1 1 -3.5 2t-9 6t-12 10t-11 14t-8 18t-1.5 22t8 26q14 28 38 47.5t57.5 43t58.5 49.5zM208 522q-8 46 35 94q20 21 38.5 38
t27.5 23l9 6q-84 -46 -107 -91q-10 -20 -10.5 -37.5t3.5 -24.5zM428 800q-11 -73 -5.5 -120.5t3 -99t-23.5 -93.5q-13 -27 -33.5 -41.5t-40.5 -16t-37.5 0.5t-28.5 7l-11 5q-2 1 -5.5 3t-13.5 9t-18.5 15t-16.5 21t-12 27t-2 33t12 39q21 42 57 72t87 65t89 74zM226 30
q-4 5 -8 14t-3.5 41t17.5 67t63.5 74t84.5 61l37 22q-54 -33 -129 -116q-33 -37 -48.5 -77.5t-14.5 -63.5zM609 513q-54 -56 -121 -106.5t-113.5 -79.5t-94 -76t-75.5 -105q-23 -51 -22 -91.5t20 -71t40.5 -51t39.5 -30.5l18 -11q4 -2 10.5 -5t26.5 -9t40 -9t46.5 -0.5
t50 12t47.5 32.5t41 57q28 58 36.5 123t3 123t-5.5 136t12 162v0z" />
  </g>

</svg>
