<?xml version="1.0" standalone="no"?>
<!DOCTYPE svg PUBLIC "-//W3C//DTD SVG 1.1//EN" "http://www.w3.org/Graphics/SVG/1.1/DTD/svg11.dtd" >
<svg xmlns="http://www.w3.org/2000/svg" xmlns:xlink="http://www.w3.org/1999/xlink" version="1.1" viewBox="-10 0 1019 1000">
  <g transform="matrix(1 0 0 -1 0 800)">
   <path fill="currentColor"
d="M997 -5q5 -10 -5 -16q-189 -98 -413 -98q-125 0 -258 31q-82 20 -161 50t-114.5 48.5t-38.5 21.5q-10 5 -4 16q5 10 16 4l7 -4l23 -11.5l34 -17t46.5 -21t55.5 -21.5l30 143q-67 33 -77 43q-10 8 -3 16q7 10 16 3l8 -5q8 -5 25 -14.5t36 -18.5l62 302q2 11 13 9l43 -6
l9 43q2 11 14 9l358 -59l-7 -23l-344 57l-6 -30l436 -58l93 293q3 12 15 8t8 -15l-139 -438l22 -158q50 11 107 33q11 4 15 -7t-7 -15q-48 -19 -112 -35l16 -118q84 21 165 64q10 6 16 -5zM753 226l-426 52l-35 -165q240 -91 482 -41zM303 430l-26 -122l478 -58l36 115
l-434 58l-4 -20l-24 4l5 19zM273 285l-31 -151q18 -8 28 -12l33 159zM327 -65q248 -58 466 -5l-16 119q-90 -18 -173 -18q-187 0 -367 79l-29 -141q63 -21 119 -34zM264 395l-12 -56q-5 17 -3 32q3 15 15 24zM717 262l-430 52l18 88l391 -57l8 24l78 -11l-22 -69
q-10 -27 -37 -27h-6zM795 396l-79 11l92 282q5 15 19.5 22.5t29.5 2.5q16 -5 23 -19.5t2 -30.5z" />
  </g>

</svg>
