<?xml version="1.0" standalone="no"?>
<!DOCTYPE svg PUBLIC "-//W3C//DTD SVG 1.1//EN" "http://www.w3.org/Graphics/SVG/1.1/DTD/svg11.dtd" >
<svg xmlns="http://www.w3.org/2000/svg" xmlns:xlink="http://www.w3.org/1999/xlink" version="1.1" viewBox="-10 0 1010 1000">
  <g transform="matrix(1 0 0 -1 0 800)">
   <path fill="currentColor"
d="M254 -139h491v-61h-491v61zM733 800h59v-203h-586v203h59v-144h468v144zM295 770h408v-85h-177v37h-54v-37h-177v85zM847 539q107 -128 107 -289q0 -97 -40 -183t-110 -149v1h-59h-491h-60v-1q-70 63 -109.5 149t-39.5 183q0 162 106 289h55h586h55zM707 177l-79 125
l-8 -23l-4 -15l-16 1l-34 3l80 -125q26 4 49 24zM509 425q-30 0 -67 -20q45 -12 64 -40q6 -8 15.5 -23t13.5 -20l10 -14q1 -1 1 -3l-2 -2l-18 -12l76 -7l22 72l-19 -12q-4 -2 -5 1q-1 1 -5.5 7t-7.5 11q-3 6 -22 33q-20 29 -56 29zM431 389l-74 -122l34 4l16 1l5 -15l7 -23
l72 119l-1 1q-16 23 -53 33zM340 60q-6 45 14 74q12 19 23 34q3 4 15 22q1 3 5 1l18 -12l-22 73l-76 -8l19 -12l2 -2q0 -2 -1 -3q-5 -6 -12 -18q-1 -2 -9.5 -14t-13.5 -20q-36 -53 38 -115zM360 56h160l-18 21l-10 13l10 12l19 23h-150q0 -1 -0.5 -1t-0.5 -1
q-14 -21 -11 -61zM632 57q64 0 76 96q-36 -30 -70 -30h-70q-3 0 -3 3v21l-48 -57l48 -59v23q0 3 3 3h64z" />
  </g>

</svg>
