<?xml version="1.0" standalone="no"?>
<!DOCTYPE svg PUBLIC "-//W3C//DTD SVG 1.1//EN" "http://www.w3.org/Graphics/SVG/1.1/DTD/svg11.dtd" >
<svg xmlns="http://www.w3.org/2000/svg" xmlns:xlink="http://www.w3.org/1999/xlink" version="1.1" viewBox="-10 0 1010 1000">
  <g transform="matrix(1 0 0 -1 0 800)">
   <path fill="currentColor"
d="M612 101q-17 -35 -25.5 -102.5t-8.5 -125.5q0 -25 -10 -41t-26.5 -22t-25.5 -7.5t-17 -1.5q-10 -1 -25.5 1.5t-34.5 20.5t-19 50q0 58 -8.5 125.5t-25.5 102.5q47 -4 88 -4h25h25q40 0 88 4zM525 509v-92q0 -11 -7.5 -18.5t-18.5 -7.5t-18.5 7.5t-7.5 18.5v92
q0 11 7.5 18.5t18.5 7.5t18.5 -7.5t7.5 -18.5zM466 509v-70q-18 15 -18 39q0 26 20 41q-2 -6 -2 -10zM530 519q20 -15 20 -41q0 -25 -19 -39v70q0 7 -1 10zM561 556q0 -11 -11 -11h-102q-11 0 -11 11q0 12 11 12h102q11 0 11 -12zM920 454q41 -49 41 -117q0 -48 -23.5 -87
t-60.5 -61.5t-84 -40t-94 -23.5t-89.5 -11.5t-71 -3.5t-39.5 0q-11 2 -39.5 0t-71 3.5t-89.5 11.5t-94 23.5t-84 40t-60.5 61.5t-23.5 87q0 30 10.5 59.5t20.5 43.5l10 14h362q4 -9 14 -21q-155 -3 -275 -21t-120 -52q0 -37 139.5 -55.5t300.5 -18.5t300.5 18.5t139.5 55.5
q0 34 -120 52t-275 21q10 12 14 21h362zM499 378q24 -24 24 -41q0 -21 -24 -21v0q-25 0 -25 21q0 16 25 41v0zM79 709v91h102v-91h-102zM79 679h102v-91h-102v91zM211 466v91h91v-91h-91zM211 679h91v-91h-91v91zM211 709v91h91v-91h-91zM461 529q-2 -1 -4.5 -3t-3.5 -3v9
h11zM79 466v91h102v-91h-102zM332 466v91h91v-91h-91zM544 800v-91h-91v91h91zM544 588h-91v91h91v-91zM534 532h10v-9q-5 5 -7 6zM696 709v91h91v-91h-91zM817 466v91h101v-91h-101zM332 679h91v-91h-91v91zM696 679h91v-91h-91v91zM817 679h101v-91h-101v91zM817 800h101
v-91h-101v91zM696 466v91h91v-91h-91zM575 466v91h91v-91h-91zM332 709v91h91v-91h-91zM575 679h91v-91h-91v91zM575 709v91h91v-91h-91z" />
  </g>

</svg>
