<?xml version="1.0" standalone="no"?>
<!DOCTYPE svg PUBLIC "-//W3C//DTD SVG 1.1//EN" "http://www.w3.org/Graphics/SVG/1.1/DTD/svg11.dtd" >
<svg xmlns="http://www.w3.org/2000/svg" xmlns:xlink="http://www.w3.org/1999/xlink" version="1.1" viewBox="-10 0 1020 1000">
  <g transform="matrix(1 0 0 -1 0 800)">
   <path fill="currentColor"
d="M681 399q0 -17 -11.5 -28.5t-28.5 -11.5q-16 0 -27.5 12t-11.5 28t11.5 28t27.5 12q17 0 28.5 -11.5t11.5 -28.5zM530 532h223v-462h-223v462zM641 132q30 0 51 21t21 50q0 30 -21 51t-51 21q-29 0 -50 -21t-21 -51q0 -29 21 -50t50 -21zM641 328q30 0 51 21t21 50
t-21 50t-51 21q-29 0 -50 -21t-21 -50t21 -50t50 -21zM681 203q0 -16 -12 -27.5t-28 -11.5t-27.5 11.5t-11.5 27.5t11.5 28t27.5 12q17 0 28.5 -11.5t11.5 -28.5zM397 399q0 -16 -11.5 -28t-27.5 -12t-28 11.5t-12 28.5t12 28.5t28 11.5t27.5 -12t11.5 -28zM246 532h223
v-462h-223v462zM358 132q29 0 50 21t21 50q0 30 -21 51t-50 21q-30 0 -51 -21t-21 -51q0 -29 21 -50t51 -21zM358 328q29 0 50 21t21 50t-21 50t-50 21q-30 0 -51 -21t-21 -50t21 -50t51 -21zM397 203q0 -16 -11.5 -27.5t-27.5 -11.5t-28 11.5t-12 27.5q0 17 12 28.5
t28 11.5t27.5 -12t11.5 -28zM815 206q-5 -3 -9 -3q-8 0 -13 6q-9 12 3 22q35 26 35 70q0 45 -35 71q-11 9 -3 21q9 12 22 3q47 -36 47 -95t-47 -95zM864 158q-4 -4 -9 -4q-7 0 -12 6q-10 12 2 21q55 47 55 120t-55 120q-11 9 -2 22q10 12 21 2q67 -56 67 -144
q0 -87 -67 -143zM931 95q-5 -6 -12 -6q-6 0 -9 3q-12 9 -3 21q62 84 62 187q0 107 -65 189q-9 12 3 22q13 9 22 -3q71 -93 71 -208t-69 -205zM193 203q-5 0 -9 3q-47 36 -47 95t47 95q13 9 22 -3q8 -12 -3 -21q-35 -26 -35 -71q0 -44 35 -70q12 -10 3 -22q-4 -6 -13 -6z
M144 154q-5 0 -9 4q-67 56 -67 143q0 88 67 144q11 10 21 -2q9 -13 -2 -22q-55 -47 -55 -120t55 -120q12 -9 2 -21q-4 -6 -12 -6zM80 89q-8 0 -12 6q-68 89 -68 205q0 117 70 208q9 12 22 3q12 -10 3 -22q-65 -82 -65 -189q0 -103 62 -187q9 -12 -3 -21q-3 -3 -9 -3z" />
  </g>

</svg>
