<?xml version="1.0" standalone="no"?>
<!DOCTYPE svg PUBLIC "-//W3C//DTD SVG 1.1//EN" "http://www.w3.org/Graphics/SVG/1.1/DTD/svg11.dtd" >
<svg xmlns="http://www.w3.org/2000/svg" xmlns:xlink="http://www.w3.org/1999/xlink" version="1.1" viewBox="-10 0 1020 1000">
  <g transform="matrix(1 0 0 -1 0 800)">
   <path fill="currentColor"
d="M685 164q-2 -1 -5.5 -3t-5.5 -3q12 5 19 11l1 1q0 2 1 2q-1 -2 -5 -4t-5 -4zM378 326q-36 19 -56 27q1 3 4 4l78 67q-2 36 26 59q18 15 43 17l144 243q9 15 25 20t32 -2l227 -101q17 -8 23.5 -25t-1.5 -34q-7 -17 -24.5 -24t-34.5 1l-190 85l-125 -211l89 -106
q-2 -1 -52 -31q-19 -12 -28 -17t-22.5 -9t-30.5 -4h-3l-51 61l-41 -36q-6 2 -16 7.5t-16 8.5zM323 752q58 0 98.5 -41t40.5 -99t-40.5 -98.5t-98.5 -40.5t-98.5 40.5t-40.5 98.5t40.5 99t98.5 41zM11 179q-7 21 -11 37q116 91 209 91q50 0 136 -45q34 -17 50.5 -24.5t48 -16
t61.5 -8.5q27 0 50 6.5t35.5 13.5t34.5 22q27 17 42 25t48 17.5t71 9.5q50 0 108 -25t106 -63q-2 -6 -6 -18.5t-6 -18.5q-43 37 -99 63t-103 26q-33 0 -61 -7.5t-42 -15t-38 -23.5t-38.5 -24t-42.5 -16t-59 -8q-74 0 -176 53q-78 41 -120 41q-36 0 -81.5 -20.5t-71.5 -38
t-45 -33.5zM47 98q-3 5 -8.5 16l-8.5 17q102 68 179 68q52 0 136 -44q32 -17 50 -25t49 -16.5t61 -8.5q27 0 50 6.5t35.5 13.5t34.5 22q27 17 42 25t48 17.5t71 9.5q82 0 183 -66q-10 -22 -16 -32q-93 62 -167 62q-33 0 -60.5 -7.5t-42.5 -15.5t-38 -23q-24 -16 -38.5 -24
t-42.5 -16t-59 -8q-33 0 -68.5 9.5t-55 18.5t-52.5 26q-80 40 -120 40q-67 0 -162 -65zM84 41q70 37 125 37q50 0 136 -45q34 -17 50.5 -24.5t48 -16t61.5 -8.5q27 0 50 6.5t35.5 13.5t34.5 21q26 17 42 26t48.5 18t70.5 9q56 0 130 -36q-72 -98 -181.5 -154.5t-235.5 -56.5
q-125 0 -234 56.5t-181 153.5v0z" />
  </g>

</svg>
