<?xml version="1.0" standalone="no"?>
<!DOCTYPE svg PUBLIC "-//W3C//DTD SVG 1.1//EN" "http://www.w3.org/Graphics/SVG/1.1/DTD/svg11.dtd" >
<svg xmlns="http://www.w3.org/2000/svg" xmlns:xlink="http://www.w3.org/1999/xlink" version="1.1" viewBox="-10 0 1020 1000">
  <g transform="matrix(1 0 0 -1 0 800)">
   <path fill="currentColor"
d="M500 23q-115 0 -196.5 81t-81.5 196q0 116 81 197t197 81q115 0 196 -81.5t81 -196.5t-81 -196t-196 -81zM530 770v-86q0 -13 -8.5 -22t-21.5 -9t-22 9t-9 22v86q0 13 9 21.5t22 8.5t21.5 -8.5t8.5 -21.5zM530 -83v-86q0 -13 -8.5 -22t-21.5 -9t-22 9t-9 22v86q0 13 9 22
t22 9t21.5 -9t8.5 -22zM30 331h86q13 0 22 -9t9 -22t-9 -21.5t-22 -8.5h-86q-13 0 -21.5 8.5t-8.5 21.5t8.5 22t21.5 9zM883 331h86q13 0 22 -9t9 -22t-9 -21.5t-22 -8.5h-86q-13 0 -22 8.5t-9 21.5t9 22t22 9zM853 610l-61 -60q-9 -9 -21.5 -9t-21.5 9t-9 21.5t9 21.5
l60 61q10 9 22.5 9t21.5 -9t9 -22t-9 -22zM250 8l-60 -61q-9 -9 -22 -9t-22 9t-9 21.5t9 22.5l61 60q9 9 21.5 9t21.5 -9t9 -21.5t-9 -21.5zM190 654l60 -61q9 -9 9 -21.5t-9 -21.5t-21.5 -9t-21.5 9l-61 60q-9 9 -9 22t9 22t22 9t22 -9zM792 51l61 -60q9 -10 9 -22.5
t-9 -21.5t-21.5 -9t-22.5 9l-60 61q-9 9 -9 21.5t9 21.5t21.5 9t21.5 -9z" />
  </g>

</svg>
