<?xml version="1.0" standalone="no"?>
<!DOCTYPE svg PUBLIC "-//W3C//DTD SVG 1.1//EN" "http://www.w3.org/Graphics/SVG/1.1/DTD/svg11.dtd" >
<svg xmlns="http://www.w3.org/2000/svg" xmlns:xlink="http://www.w3.org/1999/xlink" version="1.1" viewBox="-10 0 1018 1000">
  <g transform="matrix(1 0 0 -1 0 800)">
   <path fill="currentColor"
d="M809 420q0 -36 -25.5 -61.5t-61.5 -25.5q-37 0 -62.5 25.5t-25.5 61.5t25.5 62t62.5 26q36 0 61.5 -26t25.5 -62zM615 208q-179 -42 -266 -42q-73 0 -157.5 14t-119 23.5t-52.5 15.5q-10 3 -14.5 12t-1.5 19t12 14.5t19 1.5q2 -2 45 -13.5t121.5 -24t147.5 -12.5
q90 0 254 40q111 29 158 29q43 0 97.5 -9t84 -16.5t36.5 -10.5q10 -3 15 -11.5t2 -18.5t-12 -15t-19 -2l-7 2q-7 2 -18.5 4.5t-27 6t-34.5 7.5t-38 6.5t-40 4.5t-39 2q-42 0 -146 -27zM349 237q-74 0 -158 14q11 12 25 18l300 142l-21 44h-190q-17 0 -29.5 12.5t-12.5 29.5
t12.5 29.5t29.5 12.5h216q27 0 38 -23l69 -139l3 -6l4 -7l35 -70q-65 -15 -67 -16q-168 -41 -254 -41zM602 107q-144 -44 -275 -44q-122 0 -219 39q-9 5 -12 15t1 19q5 9 14.5 12.5t18.5 -1.5q7 -3 21 -8.5t58 -14.5t94 -11.5t127 7.5t158 35q27 8 54.5 13.5t51 8t46.5 3
t42 -1t36 -3.5t30 -4.5t22.5 -4.5t15.5 -4l6 -2q22 -9 15 -32q-4 -10 -13 -14.5t-19 -0.5h-1q-128 38 -272 -6z" />
  </g>

</svg>
