<?xml version="1.0" standalone="no"?>
<!DOCTYPE svg PUBLIC "-//W3C//DTD SVG 1.1//EN" "http://www.w3.org/Graphics/SVG/1.1/DTD/svg11.dtd" >
<svg xmlns="http://www.w3.org/2000/svg" xmlns:xlink="http://www.w3.org/1999/xlink" version="1.1" viewBox="-10 0 1010 1000">
  <g transform="matrix(1 0 0 -1 0 800)">
   <path fill="currentColor"
d="M499 469q-138 0 -235.5 48.5t-97.5 117.5q0 68 97.5 116.5t235.5 48.5t235.5 -48.5t97.5 -116.5q0 -69 -97.5 -117.5t-235.5 -48.5zM499 763q-122 0 -209 -40.5t-87 -87.5q0 -48 87 -88t209 -40t208.5 40t86.5 88q0 47 -86.5 87.5t-208.5 40.5zM532 65q0 -61 8 -111
t20 -77.5t24 -46t20 -24.5l8 -6h-113h-113q3 2 8.5 6.5t19.5 24t24.5 46.5t19 77t8.5 111q0 30 -4 43t-13.5 23.5t-14.5 18.5q42 -4 65 -4q24 0 64 4q-4 -8 -13.5 -18.5t-13.5 -23.5t-4 -43zM499 184q-135 0 -215.5 48t-80.5 120h591q0 -72 -80.5 -120t-214.5 -48zM445 389
h-38v49q14 -2 38 -4v-45zM590 389h-37v45q26 2 37 4v-49z" />
  </g>

</svg>
