<?xml version="1.0" standalone="no"?>
<!DOCTYPE svg PUBLIC "-//W3C//DTD SVG 1.1//EN" "http://www.w3.org/Graphics/SVG/1.1/DTD/svg11.dtd" >
<svg xmlns="http://www.w3.org/2000/svg" xmlns:xlink="http://www.w3.org/1999/xlink" version="1.1" viewBox="-10 0 1010 1000">
  <g transform="matrix(1 0 0 -1 0 800)">
   <path fill="currentColor"
d="M725 112q0 93 -66 159t-159 66q-94 0 -160 -66t-66 -159q0 -94 66 -160t160 -66q93 0 159 66t66 160zM335 413q0 -9 6.5 -15.5t15.5 -6.5q10 0 16.5 6.5t6.5 15.5q0 10 -6.5 16.5t-16.5 6.5q-9 0 -15.5 -6.5t-6.5 -16.5zM335 692q0 -10 6.5 -16.5t15.5 -6.5
q10 0 16.5 6.5t6.5 16.5q0 9 -6.5 16t-16.5 7q-9 0 -15.5 -7t-6.5 -16zM391 553q0 -46 31.5 -77.5t77.5 -31.5q45 0 76.5 31.5t31.5 77.5q0 45 -31.5 76.5t-76.5 31.5q-46 0 -77.5 -31.5t-31.5 -76.5zM619 413q0 -9 6.5 -15.5t16.5 -6.5q9 0 15.5 6.5t6.5 15.5
q0 10 -6.5 16.5t-15.5 6.5q-10 0 -16.5 -6.5t-6.5 -16.5zM619 692q0 -10 6.5 -16.5t16.5 -6.5q9 0 15.5 6.5t6.5 16.5q0 9 -6.5 16t-15.5 7q-10 0 -16.5 -7t-6.5 -16zM829 725v-849q0 -32 -22.5 -54t-53.5 -22h-507q-31 0 -53 22t-22 54v849q0 31 21.5 53t53.5 22h507
q32 0 54 -22t22 -53zM500 525q-12 0 -20 8t-8 20q0 11 8 19t20 8q11 0 19 -8t8 -19q0 -12 -8 -20t-19 -8zM563 112q0 -26 -18.5 -45t-44.5 -19t-45 19t-19 45t19 44.5t45 18.5t44.5 -18.5t18.5 -44.5v0z" />
  </g>

</svg>
