<?xml version="1.0" standalone="no"?>
<!DOCTYPE svg PUBLIC "-//W3C//DTD SVG 1.1//EN" "http://www.w3.org/Graphics/SVG/1.1/DTD/svg11.dtd" >
<svg xmlns="http://www.w3.org/2000/svg" xmlns:xlink="http://www.w3.org/1999/xlink" version="1.1" viewBox="-10 0 1020 1000">
  <g transform="matrix(1 0 0 -1 0 800)">
   <path fill="currentColor"
d="M571 140q-6 -5 -15 -5q-14 0 -21 10q-6 8 -4.5 18.5t9.5 16.5q59 45 59 119q0 75 -59 118q-8 7 -9.5 17.5t4.5 18.5q7 8 17.5 9.5t18.5 -4.5q79 -60 79 -159t-79 -159zM654 59q-8 -6 -16 -6q-12 0 -20 9q-16 18 3 36q93 79 93 201t-93 201q-19 16 -3 36q16 19 36 3
q111 -94 111 -240t-111 -240zM765 -47q-8 -11 -20 -11q-9 0 -15 6q-8 6 -10 16.5t5 18.5q104 139 104 313q0 178 -108 318q-16 20 5 36q8 7 18.5 5t16.5 -10q119 -154 119 -349q0 -191 -115 -343zM298 587q82 0 140.5 -84.5t58.5 -203.5t-58.5 -203.5t-140.5 -84.5
q-83 0 -141.5 84.5t-58.5 203.5t58.5 203.5t141.5 84.5zM272 539q-17 0 -29 -4q-48 -27 -78 -91.5t-30 -144.5q0 -81 30 -145t78 -91q12 -4 29 -4q68 0 116 70t48 170q0 99 -48 169.5t-116 70.5zM298 48q67 0 115.5 75.5t48.5 179.5q0 103 -48.5 175t-115.5 72q-12 0 -18 -1
q69 -5 117.5 -77.5t48.5 -172.5t-48.5 -172.5t-117.5 -77.5q6 -1 18 -1zM89 299q0 -153 87 -242q-28 15 -53.5 33.5t-54 47.5t-47 69.5t-21.5 86.5v7v8q3 48 23.5 90.5t51 72t57.5 48t55 31.5q-45 -40 -71.5 -107t-26.5 -145zM217 481q3 1 10 1q55 0 92 -53t37 -130
t-37 -130t-92 -53h-10q-30 23 -49 66t-22 96q-1 7 -1 21t1 21q3 53 22 95.5t49 65.5zM830 744q14 0 21 -10q149 -194 149 -436q0 -238 -143 -430q-9 -11 -22 -11q-9 0 -16 5q-10 8 -11 18t5 20q132 176 132 398q0 224 -136 403q-16 22 5 38q5 5 16 5v0z" />
  </g>

</svg>
