<?xml version="1.0" standalone="no"?>
<!DOCTYPE svg PUBLIC "-//W3C//DTD SVG 1.1//EN" "http://www.w3.org/Graphics/SVG/1.1/DTD/svg11.dtd" >
<svg xmlns="http://www.w3.org/2000/svg" xmlns:xlink="http://www.w3.org/1999/xlink" version="1.1" viewBox="-10 0 1010 1000">
  <g transform="matrix(1 0 0 -1 0 800)">
   <path fill="currentColor"
d="M780 152q0 116 -82.5 198.5t-198.5 82.5t-198.5 -82.5t-82.5 -198.5t82.5 -198.5t198.5 -82.5t198.5 82.5t82.5 198.5zM385 613q0 -47 33.5 -80.5t80.5 -33.5t80.5 33.5t33.5 80.5t-33.5 80.5t-80.5 33.5t-80.5 -33.5t-33.5 -80.5zM850 690v-779q0 -46 -32.5 -78.5
t-78.5 -32.5h-480q-46 0 -78 32.5t-32 78.5v779q0 46 32 78t78 32h480q46 0 78.5 -32t32.5 -78zM565 152q0 27 -19.5 46.5t-46.5 19.5t-46.5 -19.5t-19.5 -46.5t19.5 -46t46.5 -19t46.5 19t19.5 46zM715 152q0 -89 -63.5 -152.5t-152.5 -63.5t-152.5 63.5t-63.5 152.5
t63.5 153t152.5 64t152.5 -64t63.5 -153zM449 613q0 21 15 35.5t35 14.5t35 -14.5t15 -35.5q0 -20 -15 -34.5t-35 -14.5t-35 14.5t-15 34.5v0z" />
  </g>

</svg>
