<?xml version="1.0" standalone="no"?>
<!DOCTYPE svg PUBLIC "-//W3C//DTD SVG 1.1//EN" "http://www.w3.org/Graphics/SVG/1.1/DTD/svg11.dtd" >
<svg xmlns="http://www.w3.org/2000/svg" xmlns:xlink="http://www.w3.org/1999/xlink" version="1.1" viewBox="-10 0 1010 1000">
  <g transform="matrix(1 0 0 -1 0 800)">
   <path fill="currentColor"
d="M827 602v-237h-41v-430v-5q0 -53 -38 -91.5t-92 -38.5q-38 0 -69.5 20.5t-47.5 53.5l-361 354q-12 12 -1 25q13 13 26 0l323 -316q3 51 40.5 87t89.5 36q56 0 94 -40v345h-320v237q0 82 58 140t140 58t140.5 -58t58.5 -140zM656 -164q39 0 66.5 28t27.5 67q0 38 -27.5 66
t-66.5 28t-66.5 -28t-27.5 -66q0 -39 27.5 -67t66.5 -28zM604 525q12 -5 24 -5t25 5h1q1 1 4 2.5l5 2.5q1 1 2 1q3 2 8 7l1 1q3 3 7 9h1l2.5 5l2.5 5l1 2l3 9v3q1 4 1 12t-1 12v2l-3 9v1l-1 2l-2.5 5t-2.5 4h-1q-3 6 -7 10h-1q-2 3 -8 7q-1 1 -2 1q-6 4 -9 5l-1 1
q-13 5 -25 5t-24 -5q-1 0 -1 -1q-5 -2 -10 -5q-1 0 -1 -1q-6 -4 -8 -7h-1q-2 -2 -8 -10q-4 -6 -5 -9v-1q-1 -1 -1 -2l-3 -9q0 -2 -1 -2q0 -2 -0.5 -6t-0.5 -6t0.5 -6t0.5 -6q1 -1 1 -3l3 -9q1 -1 1 -2q2 -5 5 -10q2 -2 4.5 -5t3.5 -4q0 -1 1 -1q5 -5 8 -7q1 0 1 -1
q2 -1 5.5 -2.5t4.5 -2.5h1zM791 401v201q0 68 -47.5 115.5t-115.5 47.5q-67 0 -114.5 -48t-47.5 -115v-201h144v84q-3 1 -8.5 2.5t-8.5 2.5q-1 1 -2 1l-10 5q-1 0 -2.5 1t-2.5 2l-2 1q-3 2 -5 3l-3 3q-4 3 -9 8l-3 3q-1 1 -3 4t-3 4l-2 2q-1 2 -7 11l-1 1v2q-1 2 -4 11
q-1 1 -1 2l-3 12q0 3 -1 4q0 2 -0.5 6.5t-0.5 6.5v1v0v1q0 2 0.5 6t0.5 6q1 2 1 4t1 6.5t2 6.5q0 1 1 1q2 8 4 11v1q1 1 1 2q4 8 7 11q0 2 2 2q4 6 6 8l3 3q7 7 9 8q2 2 4 3q4 4 6 5q1 1 2.5 2t2.5 1t4.5 1.5t5.5 2.5l2 2v-1q19 7 35 7t35 -7v1q1 0 1 -1l2 -1q2 0 5 -2t5 -2
q2 -1 4 -3q3 -1 7 -5q2 -1 4 -3q3 -2 9 -8l3 -3q2 -2 6 -8l2 -2q2 -3 6 -11l1 -1q0 -2 1 -2q0 -1 1.5 -5t2.5 -6l1 -1q0 -2 1 -6.5t2 -6.5v-4q1 -4 1 -12v-1v0v-1q0 -9 -1 -13v-4l-3 -12v-1l-1 -1q-1 -2 -2 -5.5t-2 -5.5l-1 -1q0 -2 -1 -2q-2 -3 -6 -11l-2 -2q-1 -1 -3 -4
t-3 -4l-3 -3q-1 -2 -4 -4.5t-5 -3.5q-2 -2 -4 -3l-3 -1q-2 -2 -4 -3q-2 -2 -4 -3t-5.5 -2.5t-4.5 -2.5l-1 -1h-2q-3 -1 -8.5 -2.5t-8.5 -2.5v-84h11h134z" />
  </g>

</svg>
