<?xml version="1.0" standalone="no"?>
<!DOCTYPE svg PUBLIC "-//W3C//DTD SVG 1.1//EN" "http://www.w3.org/Graphics/SVG/1.1/DTD/svg11.dtd" >
<svg xmlns="http://www.w3.org/2000/svg" xmlns:xlink="http://www.w3.org/1999/xlink" version="1.1" viewBox="-10 0 1019 1000">
  <g transform="matrix(1 0 0 -1 0 800)">
   <path fill="currentColor"
d="M674 222q0 -6 -9 -6q-8 0 -8 6q0 7 8 7q9 0 9 -7zM999 171v-54q0 -8 -6 -14t-14 -6h-348q-8 0 -14 6t-6 14v54q0 7 4 11q-4 5 -4 13l31 291q2 18 19 18h286q17 0 19 -18l33 -290q0 -9 -4 -14q4 -4 4 -11zM628 194q0 -2 1 -3h2h348q2 0 2 1q1 0 1 2l-33 290q0 3 -2 3h-286
q-2 0 -2 -3zM628 117q0 -3 3 -3h348q3 0 3 3v54q0 2 -3 2h-348q-3 0 -3 -2v-54zM637 128v32q0 6 6 6h325q5 0 5 -6v-32q0 -5 -5 -5h-325q-6 0 -6 5zM643 128h325v32h-325v-32zM956 144q0 -13 -13 -13t-13 13q0 14 13 14t13 -14zM951 144q0 9 -8 9t-8 -9q0 -8 8 -8t8 8z
M910 131v25h11v-25h-11zM895 131v25h11v-25h-11zM881 131v25h11v-25h-11zM866 131v25h11v-25h-11zM653 131v25h147v-25h-147zM707 412l-1 1l5 49q0 1 2 1h146q2 0 2 -1l5 -49v-1h-1h-158zM714 419h144l-4 37h-136zM639 201q-2 2 -1 5l28 268q0 6 7 6h262q7 0 8 -6l29 -268
q1 -3 -1 -5t-6 -2h-320q-4 0 -6 2zM645 206h320l-30 267h-262zM917 344q17 -19 17 -42q0 -34 -38 -58.5t-91 -24.5t-91 24.5t-38 58.5q0 35 38 59.5t91 24.5q24 0 45 -6l59 71zM925 302q0 20 -15 36q-2 4 -2 6l-6 85l-45 -54q-3 -3 -7 -3h-2q-23 5 -43 5q-52 0 -87 -23
q-34 -23 -34 -52q0 -28 34 -51q35 -23 87 -23t87 23q33 22 33 51zM845 320q0 -11 -12 -18.5t-28 -7.5t-28 7.5t-12 18.5t12 18.5t28 7.5t28 -7.5t12 -18.5zM836 320q0 6 -8.5 11.5t-22.5 5.5t-22.5 -5.5t-8.5 -11.5t8.5 -11.5t22.5 -5.5t22.5 5.5t8.5 11.5zM945 227
q8 0 8 -6q0 -7 -8 -7q-9 0 -9 7q0 6 9 6zM923 457q-8 0 -8 7q0 6 8 6q9 0 9 -6q0 -7 -9 -7zM687 457q-9 0 -9 7q0 6 9 6q8 0 8 -6q0 -7 -8 -7zM925 352q0 7 8 7q9 0 9 -7q0 -6 -9 -6q-8 0 -8 6zM677 346q-9 0 -9 6q0 7 9 7q8 0 8 -7q0 -6 -8 -6zM54 229q8 0 8 -7q0 -6 -8 -6
q-9 0 -9 6q0 7 9 7zM387 171v-54q0 -8 -5.5 -14t-13.5 -6h-348q-8 0 -14 6t-6 14v54q0 7 3 11q-3 6 -3 13l31 291q2 18 19 18h285q18 0 20 -18l32 -290q2 -8 -3 -14q3 -4 3 -11zM17 194v-3h3h348q1 0 2 1t1 2l-33 290q0 3 -3 3h-285q-2 0 -3 -3zM17 117q0 -3 3 -3h348
q3 0 3 3v54q0 2 -3 2h-348q-3 0 -3 -2v-54zM26 128v32q0 6 5 6h325q5 0 5 -6v-32q0 -5 -5 -5h-325q-5 0 -5 5zM31 128h325v32h-325v-32zM345 144q0 -13 -13 -13q-14 0 -14 13q0 14 14 14q13 0 13 -14zM340 144q0 9 -8 9q-9 0 -9 -9q0 -8 9 -8q8 0 8 8zM298 131v25h11v-25
h-11zM284 131v25h11v-25h-11zM269 131v25h11v-25h-11zM254 131v25h11v-25h-11zM42 131v25h147v-25h-147zM95 412v1l5 49l1 1h147q1 0 1 -1l6 -49v-1h-1h-158h-1zM103 419h144l-4 37h-136zM28 201q-2 2 -2 5l28 268q2 6 7 6h263q7 0 7 -6l30 -268q0 -4 -2 -5q-1 -2 -5 -2
h-321q-4 0 -5 2zM33 206h321l-30 267h-263zM306 344q17 -19 17 -42q0 -34 -38 -58.5t-91 -24.5q-54 0 -92 24.5t-38 58.5q0 35 38 59.5t92 24.5q24 0 45 -6l59 71zM314 302q0 20 -15 36q-2 4 -2 6l-7 85l-44 -54q-3 -3 -7 -3h-2q-23 5 -43 5q-52 0 -87 -23q-34 -22 -34 -52
q0 -29 34 -51q35 -23 87 -23q51 0 86 23q34 22 34 51zM234 320q0 -11 -12 -18.5t-28 -7.5q-17 0 -29 7.5t-12 18.5t12 18.5t29 7.5q16 0 28 -7.5t12 -18.5zM225 320q0 6 -9 11.5t-22 5.5q-14 0 -23 -5.5t-9 -11.5t9 -11.5t23 -5.5q13 0 22 5.5t9 11.5zM333 227q9 0 9 -6
q0 -7 -9 -7q-8 0 -8 7q0 6 8 6zM312 457q-8 0 -8 7q0 6 8 6q9 0 9 -6q0 -7 -9 -7zM75 457q-8 0 -8 7q0 6 8 6q9 0 9 -6q0 -7 -9 -7zM314 352q0 7 8 7q9 0 9 -7q0 -6 -9 -6q-8 0 -8 6zM65 346q-8 0 -8 6q0 7 8 7q9 0 9 -7q0 -6 -9 -6zM274 559q1 3 2 8t6 20.5t12 30t20 33
t28.5 33.5t38.5 28.5t49.5 20t63 5t77.5 -12.5l8 66q2 7 8 9q7 0 10 -5l112 -185q3 -3 1 -8q-1 -4 -5 -6l-200 -79q-5 -1 -10 2l-1 1q-4 4 -1 11l35 62q-27 12 -56 19.5t-68 11t-74 -12.5t-56 -52zM725 42q-1 -3 -2 -8t-6 -20.5t-12 -30t-20 -33t-28.5 -33.5t-38.5 -28.5
t-49.5 -20t-63 -5t-77.5 12.5l-9 -67q0 -6 -7 -8q-4 -1 -8 2q-2 2 -2 3l-113 185q-2 3 0 8q0 4 5 6l200 79q6 2 11 -3q4 -6 1 -11l-36 -63q57 -24 110 -29q101 -9 145 64z" />
  </g>

</svg>
