<?xml version="1.0" standalone="no"?>
<!DOCTYPE svg PUBLIC "-//W3C//DTD SVG 1.1//EN" "http://www.w3.org/Graphics/SVG/1.1/DTD/svg11.dtd" >
<svg xmlns="http://www.w3.org/2000/svg" xmlns:xlink="http://www.w3.org/1999/xlink" version="1.1" viewBox="-10 0 1020 1000">
  <g transform="matrix(1 0 0 -1 0 800)">
   <path fill="currentColor"
d="M824 10q-41 35 -80 56q30 96 33 203h157q-10 -148 -110 -259zM649 -109q43 51 72 114q32 -19 57 -40q-57 -46 -129 -74zM526 -134q-18 -2 -26 -2h-2l-2 1q-92 54 -144 175q70 26 148 26q87 0 165 -32q-49 -112 -139 -168zM221 -35q35 29 74 50q34 -78 85 -134
q-88 25 -159 84zM65 269h178q3 -101 30 -193q-54 -28 -98 -66q-100 111 -110 259zM184 601q47 -37 94 -60q-31 -92 -35 -209h-178q10 156 119 269zM384 721q-49 -50 -82 -121q-41 22 -69 45q67 52 151 76zM508 736h2q91 -46 146 -154q-75 -29 -156 -29q-72 0 -138 23
q33 67 74.5 106.5t71.5 53.5zM766 645q-24 -19 -52 -35q-29 57 -69 101q68 -25 121 -66zM715 269q-4 -98 -28 -175q-91 36 -187 36q-88 0 -169 -29q-22 74 -25 168h409zM306 332q3 99 31 184q76 -27 163 -27q94 0 181 34q30 -85 34 -191h-409zM934 332h-157q-4 123 -38 218
q39 22 76 51q109 -113 119 -269zM500 800q-102 0 -194.5 -39.5t-159.5 -106.5t-106.5 -159.5t-39.5 -194.5q0 -136 66.5 -251t182 -182t251.5 -67t251 67t182 182t67 251t-67 251.5t-182 182t-251 66.5v0z" />
  </g>

</svg>
