<?xml version="1.0" standalone="no"?>
<!DOCTYPE svg PUBLIC "-//W3C//DTD SVG 1.1//EN" "http://www.w3.org/Graphics/SVG/1.1/DTD/svg11.dtd" >
<svg xmlns="http://www.w3.org/2000/svg" xmlns:xlink="http://www.w3.org/1999/xlink" version="1.1" viewBox="-10 0 1010 1000">
  <g transform="matrix(1 0 0 -1 0 800)">
   <path fill="currentColor"
d="M319 315q-94 84 -94 208q0 115 80.5 196t193.5 81t193.5 -81t80.5 -196q0 -125 -93 -208q-21 -56 -70.5 -91.5t-110.5 -35.5t-110 35.5t-70 91.5zM617 502q-30 0 -51.5 -21.5t-21.5 -51.5q0 -31 21.5 -52.5t51.5 -21.5t51.5 21.5t21.5 52.5q0 30 -21.5 51.5t-51.5 21.5z
M457 318v-31h84v31q0 17 -12.5 30t-29.5 13t-29.5 -13t-12.5 -30zM381 502q-30 0 -51.5 -21.5t-21.5 -51.5q0 -31 21.5 -52.5t51.5 -21.5q31 0 52 21.5t21 52.5q0 30 -21 51.5t-52 21.5zM879 -61q0 -29 -23 -44q9 -18 9 -32q0 -26 -18 -44.5t-44 -18.5t-44 18.5t-18 44.5
q0 12 5 25l-247 88l-247 -88q5 -13 5 -25q0 -26 -18 -44.5t-44 -18.5q-25 0 -43 18.5t-18 44.5q0 17 9 32q-23 15 -23 44q0 22 15 37.5t37 15.5q19 0 33 -12t18 -30l530 189q-12 15 -12 33q0 22 15.5 37.5t36.5 15.5q22 0 37.5 -15.5t15.5 -37.5q0 -8 -4 -18q37 -17 37 -57
q0 -26 -18 -44.5t-44 -18.5q-39 0 -56 36l-161 -57l175 -63q4 18 18 30t33 12q22 0 37.5 -15.5t15.5 -37.5zM120 97q0 40 36 57q-4 10 -4 18q0 22 15.5 37.5t37.5 15.5t37 -15.5t15 -37.5q0 -20 -12 -33l187 -66l-101 -36l-94 33q-13 -30 -46 -35q-12 2 -19 2q-4 0 -6 -1
q-20 6 -33 22.5t-13 38.5z" />
  </g>

</svg>
