<?xml version="1.0" standalone="no"?>
<!DOCTYPE svg PUBLIC "-//W3C//DTD SVG 1.1//EN" "http://www.w3.org/Graphics/SVG/1.1/DTD/svg11.dtd" >
<svg xmlns="http://www.w3.org/2000/svg" xmlns:xlink="http://www.w3.org/1999/xlink" version="1.1" viewBox="-10 0 1010 1000">
  <g transform="matrix(1 0 0 -1 0 800)">
   <path fill="currentColor"
d="M703 498l-204 -267l-204 267h122v302h164v-302h122zM686 334q1 0 3 1.5t5 1.5q2 0 4 1t3 2t1 0q0 -2 -1.5 -3.5t-4.5 -3l-5 -2.5q-3 -4 -6 1q-1 2 1 2zM693 367q1 -4 1 -7q0 -1 1.5 -5t0.5 -6q-2 -1 -5 -1t-4 -1l-8 4l3 10q0 1 2 2t5 2t4 2zM704 369l7 7q-2 -3 -2 -8
q0 -3 3 -1l2 1q1 -1 -3 -4l-2 -1l1 -7l-3 -2l-1 -1q0 -3 -2 -1v17zM669 323q-4 1 -6 0t-5 5q-5 5 -6.5 7.5t-2.5 3.5q-3 6 1 9q10 -14 18 -18q5 -2 7 -5q1 -2 -2 -3q-1 0 -4 1zM598 609q24 -16 0 -23v23zM499 128q-117 0 -200 82.5t-83 198.5q0 90 51 162t133 102v-17
q-57 -23 -98 -68q28 5 41 -5q4 -3 13.5 -8.5t13 -8.5t8 -9t6.5 -13q1 -6 2 -15.5t3 -13.5h-94h-34l21 -27l32 -42l-9 3q-12 6 -21 13.5t-12 11.5l-3 4q-3 -2 -6.5 -3.5t-12.5 -4.5t-11 2q-7 -28 -7 -63q0 -22 3 -43q20 26 48 -6q6 -6 13 -14.5t9.5 -11.5t7 -7.5t6 -5.5
t5.5 -2t7 -0.5l9 1.5q50 10 53 2q1 -1 1 -3q-1 -6 1.5 -16t-1.5 -13q-3 -4 -3 -9t-4 -9q-13 -13 9 -25q7 -4 16 -5.5t11.5 -4t0.5 -11.5q-3 -14 -2.5 -18.5t11.5 -12.5q30 -21 59 -14q6 1 31.5 13t35.5 7q6 -3 8.5 -5t2 -3t2 -4.5t8.5 -9.5q12 -11 7 -20q74 25 123 88
q-2 2 -16 -16t-18 -4q-4 4 -1.5 11.5t2 10t4.5 9t6 7.5t7 7.5t7 7.5q6 7 7 24t11 23q8 6 15 7t10.5 -1t4.5 -6v-12q18 47 18 94q0 44 -17 93q0 -1 -2.5 -5.5t-4.5 -9.5t-2 -9q0 -5 -9.5 -6t-10.5 -3t2 -5t10 -10.5t13 -15.5q10 -14 -5.5 -28.5t-33.5 -10.5q-31 7 -43 6
q-13 -1 -17.5 -24.5t-6.5 -24.5q-7 -1 -13 -6.5t-6 -11.5q0 -10 -6.5 -26t-15.5 -21q-6 -3 -17 2t-16 -7q-6 -9 -13 -12l163 214l21 27h-34h-94q2 4 4 7q7 9 16 9t10 1q2 2 4.5 19t9.5 25q5 7 18.5 7t23 -3t12.5 -4q-43 54 -109 80v17q82 -30 133 -102t51 -162
q0 -116 -83 -198.5t-200 -82.5zM718 390q4 -4 -1 -6q-2 0 1 6zM862 -102q0 -41 -29 -69.5t-70 -28.5h-528q-41 0 -69.5 28.5t-28.5 69.5t28.5 69t69.5 28h528q41 0 70 -28.5t29 -68.5zM247 -102q0 12 -8.5 20t-20.5 8q-11 0 -19.5 -8t-8.5 -20t8.5 -20t19.5 -8q12 0 20.5 8
t8.5 20zM332 -102q0 12 -8.5 20t-19.5 8q-12 0 -20.5 -8t-8.5 -20t8.5 -20t20.5 -8q11 0 19.5 8t8.5 20zM723 -102q0 12 -8.5 20t-20.5 8q-11 0 -19.5 -8t-8.5 -20t8.5 -20t19.5 -8q12 0 20.5 8t8.5 20zM808 -102q0 12 -8.5 20t-19.5 8q-12 0 -20.5 -8t-8.5 -20t8.5 -20
t20.5 -8q11 0 19.5 8t8.5 20zM758 13h-529q-42 0 -74 -27l77 288q38 -74 109.5 -118.5t157.5 -44.5q85 0 156 43.5t109 115.5l79 -295q-35 38 -85 38zM714 347q-3 0 2 3q1 0 2 1q6 6 6 8l1.5 -1.5t1 -3t-1.5 -4.5q-3 -3 -11 -3zM705 338q-2 2 3 4q2 -2 1 -3.5t-4 -0.5z
M729 368q-6 0 1 7q1 1 1.5 3.5t0.5 4.5t1 2q2 0 5.5 -4t4.5 -4l9 2q1 -11 1 -16q0 -1 -7 -1q-6 0 -6 7q-3 1 -11 -1z" />
  </g>

</svg>
