<?xml version="1.0" standalone="no"?>
<!DOCTYPE svg PUBLIC "-//W3C//DTD SVG 1.1//EN" "http://www.w3.org/Graphics/SVG/1.1/DTD/svg11.dtd" >
<svg xmlns="http://www.w3.org/2000/svg" xmlns:xlink="http://www.w3.org/1999/xlink" version="1.1" viewBox="-10 0 1017 1000">
  <g transform="matrix(1 0 0 -1 0 800)">
   <path fill="currentColor"
d="M994 463q9 -46 -22 -76q-22 -24 -58 -24q-50 0 -96 43q-5 -10 -12 -17q-25 -23 -59 -23q-55 0 -103 50q-40 39 -48 84q-8 49 22 77q7 7 16 13q-36 40 -41.5 83t22.5 71q23 23 58 23q53 0 104 -49q60 -61 47 -122q62 13 122 -48q40 -38 48 -85zM656 703q-10 -11 -2.5 -34
t28.5 -45q22 -22 45 -29.5t34 3.5t3.5 33.5t-29.5 44.5t-45 29.5t-34 -2.5zM764 431q11 11 3.5 34t-29.5 45t-45 29.5t-34 -3.5t-3.5 -34t29.5 -45t45 -29.5t34 3.5zM931 428q11 11 3.5 34t-29.5 45t-45 29.5t-34 -3.5t-3.5 -34t29.5 -45t45 -29.5t34 3.5zM113 -135
q81 0 296.5 147t425.5 344q20 -10 29 -14q-211 -199 -434.5 -353t-316.5 -154q-25 0 -37 12q-36 36 30.5 169t192.5 299.5t271 320.5q2 -5 14 -29q-210 -224 -360 -450q-39 -58 -66.5 -107.5t-40.5 -80t-19 -53.5t-5.5 -33.5t4.5 -13.5q3 -4 16 -4zM295 67
q-33 33 50.5 170.5t219.5 294.5q-2 -20 1 -37q9 -55 57 -101q58 -58 124 -58q9 0 13 1q-155 -136 -293.5 -219.5t-171.5 -50.5zM559 260q14 15 14 35.5t-14 34.5q-14 15 -35 15t-35 -15q-14 -14 -14 -34.5t14 -35.5q14 -14 35 -14t35 14z" />
  </g>

</svg>
