<?xml version="1.0" standalone="no"?>
<!DOCTYPE svg PUBLIC "-//W3C//DTD SVG 1.1//EN" "http://www.w3.org/Graphics/SVG/1.1/DTD/svg11.dtd" >
<svg xmlns="http://www.w3.org/2000/svg" xmlns:xlink="http://www.w3.org/1999/xlink" version="1.1" viewBox="-10 0 1010 1000">
  <g transform="matrix(1 0 0 -1 0 800)">
   <path fill="currentColor"
d="M550 632v-174q0 -20 -14.5 -34.5t-35.5 -14.5q-20 0 -34.5 14.5t-14.5 34.5v174q0 20 14.5 34.5t34.5 14.5q21 0 35.5 -14.5t14.5 -34.5zM501 383q1 -1 12 -21.5t22.5 -49t11.5 -43.5q0 -17 -12.5 -27t-20 -11t-13.5 -1h-1q-6 0 -13.5 1t-20 11t-12.5 27q0 15 11.5 43.5
t22.5 49t12 21.5v1zM415 675h20l-7 -5q-8 -6 -13 -12v17zM404 574q0 49 39 77q-4 -12 -4 -19v-133q-35 30 -35 75zM645 743q9 0 15.5 -6.5t6.5 -15.5t-6.5 -15.5t-15.5 -6.5h-289q-9 0 -15.5 6.5t-6.5 15.5t6.5 15.5t15.5 6.5h111v23q0 14 9.5 24t23.5 10t24 -10t10 -24v-23
h111zM586 658q-6 7 -14 12l-6 5h20v-17zM558 651q39 -29 39 -77q0 -46 -36 -75v133q0 10 -3 19zM313 152q-11 4 -16.5 15t-1.5 22q5 11 15.5 16.5t21.5 1.5l83 -30q-18 -22 -7 -47q2 -2 2 -3l9 -12zM611 4l154 -40l-42 -164l-150 39q-29 -7 -49.5 -6t-55 8t-41.5 7l-152 -9
q-12 -1 -20.5 7t-9.5 20t7 21t20 10l109 7q-1 1 -1 3t-1 3l-157 6q-12 0 -20 9t-7 21q0 12 8.5 20t20.5 8l152 -6q0 2 0.5 5.5t0.5 4.5l-177 25q-11 2 -18 11.5t-6 21.5q2 12 11 19t21 5l177 -24q1 1 1 3.5t1 4.5l-134 47q-11 4 -16.5 15t-1.5 22t15 16.5t22 1.5l194 -68
l-43 58q-5 11 -1 22.5t15 16.5t22.5 0.5t15.5 -15.5l80 -105q43 -15 56 -51zM672 65l153 -40l-41 -164l-27 7l23 92q2 8 -1 13q-6 6 -10 7l-146 38q-16 34 -58 51l-59 77l21 -8l-44 59q-4 11 -1 19q12 -2 18 -2h1q18 0 34 8l1 -1l80 -105q43 -15 56 -51zM248 76l23 -8l-26 3
q-3 3 -7 9q1 0 4.5 -1.5t5.5 -2.5z" />
  </g>

</svg>
