<?xml version="1.0" standalone="no"?>
<!DOCTYPE svg PUBLIC "-//W3C//DTD SVG 1.1//EN" "http://www.w3.org/Graphics/SVG/1.1/DTD/svg11.dtd" >
<svg xmlns="http://www.w3.org/2000/svg" xmlns:xlink="http://www.w3.org/1999/xlink" version="1.1" viewBox="-10 0 1020 1000">
  <g transform="matrix(1 0 0 -1 0 800)">
   <path fill="currentColor"
d="M588 131h-60v-64q0 -12 -8.5 -20.5t-19.5 -8.5q-12 0 -20.5 8.5t-8.5 20.5v64h-60l89 102zM784 68q0 -12 -8.5 -21t-21.5 -9h-209q8 14 8 29v39h35q16 0 23 15q7 13 -4 26l-89 103q-6 8 -19 8q-12 0 -18 -8l-89 -103q-11 -13 -4 -26q7 -15 23 -15h35v-39q0 -15 8 -29
h-209q-13 0 -21.5 9t-8.5 21q0 117 83.5 199.5t201.5 82.5t201 -82.5t83 -199.5zM530 534v-92q0 -12 -9 -21t-21 -9q-13 0 -22 9t-9 21v92q0 12 9 20.5t22 8.5q12 0 21 -8.5t9 -20.5zM877 98h92q13 0 22 -8.5t9 -21.5q0 -12 -9 -21t-22 -8h-92q-13 0 -21.5 8.5t-8.5 20.5
q0 13 8.5 21.5t21.5 8.5zM30 98h92q13 0 21.5 -8.5t8.5 -21.5q0 -12 -8.5 -21t-21.5 -9h-92q-13 0 -21.5 9t-8.5 21q0 13 8.5 21.5t21.5 8.5zM191 419l63 -67q8 -9 8 -21.5t-10 -20.5q-9 -9 -21.5 -8.5t-20.5 9.5l-63 67q-9 9 -8.5 21.5t9.5 20.5q9 9 22 8.5t21 -9.5z
M745 352l63 67q8 9 20.5 9.5t22.5 -8.5q9 -8 9.5 -20.5t-8.5 -21.5l-63 -67q-8 -9 -20.5 -9.5t-21.5 8.5q-10 8 -10 20.5t8 21.5z" />
  </g>

</svg>
