<?xml version="1.0" standalone="no"?>
<!DOCTYPE svg PUBLIC "-//W3C//DTD SVG 1.1//EN" "http://www.w3.org/Graphics/SVG/1.1/DTD/svg11.dtd" >
<svg xmlns="http://www.w3.org/2000/svg" xmlns:xlink="http://www.w3.org/1999/xlink" version="1.1" viewBox="-10 0 1010 1000">
  <g transform="matrix(1 0 0 -1 0 800)">
   <path fill="currentColor"
d="M769 59q11 0 11 -10v-29q0 -11 -11 -11h-3v-66q0 -11 -10 -11q-11 0 -11 11v66h-5q-1 0 -2.5 0.5t-2.5 0.5l-100 -76v-18q0 -11 -11 -11h-3v-94q0 -11 -10 -11q-11 0 -11 11v94h-5q-11 0 -11 11v6l-146 28v-7q0 -11 -11 -11q-10 0 -10 11v11l-147 28v-1q0 -11 -11 -11h-5
v-111q0 -10 -10 -10q-11 0 -11 10v111h-4q-10 0 -10 11v29q0 10 10 10h4v499h-5q-10 0 -10 11v29q0 10 10 10h5v138q0 10 11 10q10 0 10 -10v-138h4q8 0 10 -9l149 28v202q0 10 10 10q11 0 11 -10v-201l162 -5v123q0 10 10 10q11 0 11 -10v-124l124 -4v211q0 10 11 10
q10 0 10 -10v-731h3zM740 59h5v97l-71 7l-23 -101l79 -10q2 7 10 7zM621 26l4 18l-4 1v-19zM621 65l9 -1l23 101l-32 4v-104zM269 12l132 66v16q0 10 11 10h5v92q-1 1 -1 3l1 1v173l-35 4l-120 -357q7 -2 7 -8zM254 389v-326l107 316zM743 555l-107 -31v-10q0 -10 -10 -10
h-5v-61l95 -4zM438 371v-163l162 -16v164zM438 431v-39l162 -15v46zM621 422v-233l37 -3l53 232zM733 417l-54 -233l66 -7v240h-12zM745 437v35l-8 -34zM596 504q-11 0 -11 10v6l-147 7v-76l162 -7v60h-4zM417 448v31l-28 -82l28 -3v41q-3 3 -3 7t3 6zM441 104q11 0 11 -10
v-7l148 -19v103l-162 16v-83h3zM686 560l-65 2v-8h5q8 0 10 -8zM600 563l-162 5v-21l147 -6v2q0 11 11 11h4v9zM417 567l-80 -15l80 -4v19zM258 519h-4v-109l113 -11l44 129l-143 6v-4q0 -11 -10 -11zM291 0l126 -25v79h-5q-4 0 -7 3zM438 -29l146 -28v2q0 10 11 10h5v92
l-148 19v-1q0 -11 -11 -11h-3v-83zM628 -45l100 76l-82 10l-20 -86h2z" />
  </g>

</svg>
