<?xml version="1.0" standalone="no"?>
<!DOCTYPE svg PUBLIC "-//W3C//DTD SVG 1.1//EN" "http://www.w3.org/Graphics/SVG/1.1/DTD/svg11.dtd" >
<svg xmlns="http://www.w3.org/2000/svg" xmlns:xlink="http://www.w3.org/1999/xlink" version="1.1" viewBox="-10 0 1020 1000">
  <g transform="matrix(1 0 0 -1 0 800)">
   <path fill="currentColor"
d="M752 726q120 0 184 -84.5t64 -215.5v-252q0 -131 -64 -215.5t-184 -84.5h-505q-119 0 -183 84.5t-64 215.5v252q0 131 64 215.5t183 84.5h505zM376 283v195q0 14 -10.5 24.5t-25.5 10.5h-11q-15 0 -25.5 -10.5t-10.5 -24.5v-195q0 -14 10.5 -24.5t25.5 -10.5h11
q15 0 25.5 10.5t10.5 24.5zM586 28v54q0 14 -10.5 24.5t-25.5 10.5h-91q-14 0 -24.5 -10.5t-10.5 -24.5v-54q0 -14 10.5 -24.5t24.5 -10.5h91q15 0 25.5 10.5t10.5 24.5zM717 283v195q0 14 -10.5 24.5t-25.5 10.5h-12q-14 0 -24.5 -10.5t-10.5 -24.5v-195q0 -14 10.5 -24.5
t24.5 -10.5h12q15 0 25.5 10.5t10.5 24.5z" />
  </g>

</svg>
