<?xml version="1.0" standalone="no"?>
<!DOCTYPE svg PUBLIC "-//W3C//DTD SVG 1.1//EN" "http://www.w3.org/Graphics/SVG/1.1/DTD/svg11.dtd" >
<svg xmlns="http://www.w3.org/2000/svg" xmlns:xlink="http://www.w3.org/1999/xlink" version="1.1" viewBox="-10 0 1010 1000">
  <g transform="matrix(1 0 0 -1 0 800)">
   <path fill="currentColor"
d="M896 296q-1 -46 -59 -194t-58 -189h-2v-89q0 -10 -6.5 -17t-16.5 -7h-328q-10 0 -16.5 7t-6.5 17v103q-2 2 -3 2l-277 278q-17 17 -17 41t17 40l20 20q17 17 41 17t40 -17l125 -124v559q0 24 16.5 40.5t40.5 16.5h29q23 0 40 -16.5t17 -40.5v-260q34 50 85 50
q32 0 51.5 -19.5t23.5 -38.5l4 -19q9 4 23 8.5t46.5 5.5t51.5 -14q19 -16 28 -36t9 -32v-13q1 -1 9 0.5t20.5 -2.5t24.5 -10.5t20.5 -24t7.5 -42.5z" />
  </g>

</svg>
