<?xml version="1.0" standalone="no"?>
<!DOCTYPE svg PUBLIC "-//W3C//DTD SVG 1.1//EN" "http://www.w3.org/Graphics/SVG/1.1/DTD/svg11.dtd" >
<svg xmlns="http://www.w3.org/2000/svg" xmlns:xlink="http://www.w3.org/1999/xlink" version="1.1" viewBox="-10 0 1020 1000">
  <g transform="matrix(1 0 0 -1 0 800)">
   <path fill="currentColor"
d="M975 510l3 -13l-21 -8l7 -15l-43 -6l7 -12l-7 1l5 -17l-15 5l-2 -3v-2l-1 1l-6 -8l7 -3l-32 -23l9 -2l32 9l-7 -11l29 -5l-4 -9l25 -9l-27 -5l-1 -14l-22 -1l2 -17l-42 6l3 -13l-7 3l1 -12l4 -4h-4v-2l-2 1l-11 -1l1 -8l-14 3l3 -11l-25 7h-12l22 -15l-5 -2l18 -10l-5 -1
l9 -13h-13l-11 6l4 -6l11 -14l1 -12l-8 4l6 -12l3 -15l-14 8l-8 3l-5 -7l-23 18l-1 -11l-11 13l-5 -7l-16 37l-3 -9l2 -33l-10 9l-2 -5l2 -4h-4l-7 -18l-7 5l-14 -22v28l-13 3l1 6l-10 4l1 -11l-14 9l-3 -7l-25 30l-1 -9l11 -31l-12 6l-2 -30l-8 3l-8 -25l-7 27l-14 -1
l-3 22l-16 -4l1 33l-9 -23l-4 28l-14 1v4v1l-1 17l-16 -2l7 43l-8 -2l1 -5l-8 4l6 -12l3 -16l-14 8l-9 4l-4 -8l-23 18l-1 -11l-11 13l-5 -6l-16 37l-4 -9l3 -34l-10 10l-1 -3l8 -12l-11 4l-3 -6l3 -3l-4 -3l12 -17l-10 2l-1 -26l-12 11l-6 -7l-7 13l-7 -9l-10 23l-9 9
l4 -27l-4 3l4 -20l-4 2l-4 -14l-8 9l-3 12l-3 -7l-2 -17l-9 -9l-2 9l-4 -13l-10 -13l-3 16l-3 9l-9 -2l-2 29l-9 -6l2 17l-8 -1l16 36l-8 -2l-7 -7v-5l-3 1l-3 -3l-3 -19l-5 11l-3 -3l1 7l-3 6h-1l-1 -17l-5 1l-4 -20l-6 8l-19 -17v17l-9 -1l5 14l-12 -1l5 12l-4 -1l6 6l2 6
l1 13l-17 -21l-1 4l-11 -16l-1 4l-13 -7l1 12l7 11l-7 -3l-14 -10h-12l4 8l-12 -6l-16 -2l9 14l5 8l-7 5l13 15q-7 0 -9 2l-35 -32v8l-22 -11l2 8l-21 -8l10 22h-20l2 6l-23 5l23 9l-17 3l1 5l-20 5l9 5l-16 21l17 -1v9l14 -6l-1 12l23 -11l12 -2l-20 19h5l-15 13l4 1l-6 13
l12 -1l10 -8l-2 7l-9 15l1 12l7 -5l-5 12l-8 1l8 7l-13 12l-10 -6l2 8l-23 -7l3 8l-23 -5l14 20l-19 4l3 5l-22 9l24 5l-17 5l3 5l-19 9l10 3l-12 23l16 -3l1 8l13 -8l1 12l21 -14l11 -4l-16 21h5l-13 15h4l-4 15l12 -4l9 -10l-1 8l-7 16l3 12l6 -6l-2 13l2 15l11 -11l7 -7
l6 6l17 -24l4 10l6 -14l7 7l-5 1l25 23q2 2 5.5 4t12 4.5t13.5 0.5l25 31l-6 5h10l1 1v-1h11h1l-14 8l3 5l-16 12l10 1l-7 25l15 -6l4 8l10 -11l4 11l17 -18l11 -6l-12 24l5 -1l-10 17l5 -1l-1 15l11 -6l6 -11v8l-2 16l5 12l5 -8v14l5 14l9 -13l5 -8l8 4l10 -27l7 9l3 -17
l8 3l-6 -40l8 6l15 30l4 -13l23 18l4 -8l23 12l-15 -24l10 -9l-5 -7l6 -9l1 2v-3l1 -1l5 10l14 -21l9 -8l-7 26l5 -2l-7 18l4 -1l2 15l10 -8l4 -12l2 8v17l7 10l3 -8l3 13l8 14l5 -15l5 -9l8 3l6 -28l8 7v-17l8 1l-12 -38l9 5l20 27l1 -14l8 4l-11 12l11 -1l-3 26l14 -9l4 7
l9 -12l5 11l14 -22l10 -7l-7 25l4 -1l-7 18l5 -1l1 15l10 -8l4 -12l2 7v17l7 10l4 -8l2 13l8 14l6 -15l4 -8l8 3l6 -29l8 7l1 -16l7 1l-12 -38l9 4l20 27l1 -14l26 15l2 -9l25 8l-18 -21l8 -11l-17 -15l4 -3l12 -10l6 6l7 -13l6 10l12 -23l8 -9l-4 27l4 -2l-4 19l4 -2l3 15
l9 -9l3 -13l2 7l2 17l9 9l2 -8l4 13l9 13l4 -16l4 -9l8 2l3 -29l9 6l-2 -16h8l-16 -36l9 3l23 25l-1 -14l28 11l1 -9l26 5l-21 -19l7 -12l-18 -13l10 -13l-17 -7l4 -23l6 -11l3 27l4 -4v20l4 -3l7 13l6 -11v-13l4 7l6 15l11 7v-9l7 12l12 9v-16l1 -9h8l-5 -29l11 3l-6 -15
l7 -2l-25 -31l10 1l28 18l-4 -14l30 4l-1 -9l26 -2zM506 631l4 -3l1 4l3 -4l2 9zM570 583l-18 -15h2l22 9zM653 474l-5 5l-2 -3l6 -3q0 1 1 1zM652 472l-33 -22l10 -2l25 7q-4 9 -2 17zM656 449q2 -4 2 -5l-5 1zM591 524l1 1l-1 -2v1zM610 528l-4 -13l6 5l3 4l-2 4l5 -1l2 3
l-5 9h-3l1 -11h-3zM735 485l-4 4l-4 -2zM778 526l-2 9l-12 -14l2 -4l5 -1l-3 -3l1 -2l8 -9l-3 26zM750 566h9q-1 1 -1 2l-22 -2v-2l-2 -3l3 -4zM534 640zM532 634v-3l2 2zM573 509v-3l2 -12l6 15h-8zM714 424l4 3l-13 6v-7q5 0 9 -2zM780 553q-2 0 -3 1v-1l-5 -8l2 -1v1
l4 -2zM758 559l5 2q-2 2 -2 3zM689 598l5 4l-7 6l-5 -8l5 5v-7h2zM686 642l1 1l-1 1v-2zM687 656zM621 616v5h-4zM195 552l-3 7l-7 -9v-8l6 -13l3 -1l2 6zM400 611l-3 -5l-3 1l3 4h3zM255 567h2l-2 -1v1zM268 530v-2l5 11l-3 3h4v1l-1 5l-5 -1l1 -9l-8 4zM270 519l8 -6l2 8
l5 -6l1 3l-7 9h4l-3 4l-12 -5zM272 608v1l4 -1h-4zM388 573v5l-5 -3l3 -9zM368 566q-6 -3 -17 -5v-2l1 1l11 -19l6 23l1 -2zM344 559l3 2q-1 0 -2 0.5t-2 0.5zM169 413zM342 432l9 -8l-6 23l-9 -6zM347 449h1l1 -1zM443 432l21 11h-22zM421 420l19 23h-10q-3 0 -8 1l-10 -28
zM447 555l-3 -7l8 3zM433 570l3 2l-5 4zM401 605zM187 568l1 -1v2zM470 444l-1 1l-4 -2l-3 4l11 1zM445 527l11 15l-12 5l-8 -24zM518 445l-5 -2l1 5zM539 427l-6 -4h11zM550 421v-3h1v2zM837 582l4 4l-5 -2zM795 550l-7 1l2 -2l3 -13l2 7l1 5zM441 613l-27 -5l1 -4l4 -9
l8 3l3 -14h18l-9 18h6l-2 9zM126 568l7 18h-12l1 -16h1zM121 589l2 3h-2v-3zM109 485l-3 -2h3v2zM499 452l7 4l-6 6l8 1l-15 17l24 -2l-6 19h4l-10 6q-4 3 -8 8l-5 -5l11 -12l-37 -21l11 -8l-7 -2l7 -10l2 2v-4l2 -2h-2l1 -3l20 14zM512 441l1 -1h-1v1zM532 346l2 -3l1 1z
M536 339l-1 1h2zM553 368q12 12 23 14l-10 8h-2l1 -9l-14 4l3 -12l-25 8l-12 -1l22 -15l-5 -1l11 -6zM569 -185q2 -5 0 -10q-3 -5 -8 -5h-48h-42h-48q-5 0 -8 5t0 10q37 66 37 250q0 66 -52 155q2 2 4 6l1 4q1 1 2 1q3 2 5 9h1h1h4q4 -4 8 -4h2q2 0 6 2l3 -3q3 -3 7 -3
q18 -31 22 -42q2 -3 5 -3h1q3 1 3 5v100h2h2h4l2 -2q5 -5 10 -5q3 0 4 1q2 0 4 2l5 -4v-92q0 -3 4 -5h1q4 0 4 3q20 45 32 69v-3v-2q0 -11 13 -13h3l2 -16q2 -8 8 -10q-43 -92 -43 -150q0 -187 37 -250z" />
  </g>

</svg>
