<?xml version="1.0" standalone="no"?>
<!DOCTYPE svg PUBLIC "-//W3C//DTD SVG 1.1//EN" "http://www.w3.org/Graphics/SVG/1.1/DTD/svg11.dtd" >
<svg xmlns="http://www.w3.org/2000/svg" xmlns:xlink="http://www.w3.org/1999/xlink" version="1.1" viewBox="-10 0 1010 1000">
  <g transform="matrix(1 0 0 -1 0 800)">
   <path fill="currentColor"
d="M637 594q-2 -3 -6 -7.5t-18 -17t-28.5 -22t-37.5 -18t-47 -9.5q-38 -2 -72.5 7t-50.5 19l-16 11l-17 -601q1 -5 4 -13t15 -28.5t27.5 -36.5t44.5 -29t64 -13q174 0 174 210q0 58 -9 195t-18 245zM720 743v-39h-47v-730q0 -72 -51 -123t-123 -51q-71 0 -122 51t-51 123
v727v3h-46v39h46h28h7v-769q0 -57 40.5 -97.5t97.5 -40.5t97.5 40.5t40.5 97.5v769h8h28h47zM500 754q0 -20 -14 -33.5t-33 -13.5t-32.5 13.5t-13.5 33.5t13.5 33t32.5 13q20 0 33.5 -13.5t13.5 -32.5zM575 715q0 -12 -8 -20.5t-20 -8.5t-20.5 8.5t-8.5 20.5t8.5 20t20.5 8
t20 -8t8 -20zM500 617q0 -10 -7 -16.5t-17 -6.5q-9 0 -16 6.5t-7 16.5t7 16.5t16 6.5q10 0 17 -6.5t7 -16.5zM518 408h136v-31h-136v31zM518 61h136v-31h-136v31zM518 231h136v-32h-136v32v0z" />
  </g>

</svg>
