<?xml version="1.0" standalone="no"?>
<!DOCTYPE svg PUBLIC "-//W3C//DTD SVG 1.1//EN" "http://www.w3.org/Graphics/SVG/1.1/DTD/svg11.dtd" >
<svg xmlns="http://www.w3.org/2000/svg" xmlns:xlink="http://www.w3.org/1999/xlink" version="1.1" viewBox="-10 0 1010 1000">
  <g transform="matrix(1 0 0 -1 0 800)">
   <path fill="currentColor"
d="M873 386q33 -35 32 -91q-1 -49 -58 -193q-48 -126 -48 -149q0 -9 -2 -14v-66q0 -30 -21 -51.5t-51 -21.5h-294q-30 0 -51 21.5t-21 51.5v71l-236 236q-30 30 -30 73q0 45 30 73l18 18q31 31 73 31q44 0 73 -31l23 -22v375q0 43 30 73t73 30h26q43 0 73 -30t30 -73v-138
q16 2 24 2q67 0 103 -58q20 2 32 2q48 0 77 -25q33 -27 46 -66q26 -7 49 -28zM747 -47q0 37 52.5 169.5t53.5 173.5q1 63 -55 71q-5 -19 -24 -19q-10 0 -17.5 7t-7.5 18v64l-3 3q-18 14 -45 14q-12 0 -30 -4v-46q0 -10 -7.5 -17.5t-17.5 -7.5t-17.5 7.5t-7.5 17.5v76v1
q-19 28 -55 28q-10 0 -26 -4v-113q0 -10 -7 -17.5t-18 -7.5t-18 7.5t-7 17.5v191v4v110q0 22 -15 37t-36 15h-26q-21 0 -36 -15t-15 -37v-501l-112 112q-15 15 -36 15t-36 -15l-19 -19q-15 -15 -15 -36t15 -36l249 -249l1 -1q1 -1 2 -1v-93q0 -8 6 -14.5t14 -6.5h294
q8 0 14.5 6.5t6.5 14.5v80h1z" />
  </g>

</svg>
