<?xml version="1.0" standalone="no"?>
<!DOCTYPE svg PUBLIC "-//W3C//DTD SVG 1.1//EN" "http://www.w3.org/Graphics/SVG/1.1/DTD/svg11.dtd" >
<svg xmlns="http://www.w3.org/2000/svg" xmlns:xlink="http://www.w3.org/1999/xlink" version="1.1" viewBox="-10 0 1010 1000">
  <g transform="matrix(1 0 0 -1 0 800)">
   <path fill="currentColor"
d="M652 341q5 -10 5 -19q0 -28 -26 -41q-16 -8 -34 -1.5t-25 23.5q-21 44 -70 44t-69 -44q-8 -17 -25.5 -23.5t-34.5 1.5t-23 25.5t2 34.5q20 44 61 70t89 26t89 -26t61 -70zM781 483q9 -12 9 -27q0 -22 -18 -36q-15 -11 -33.5 -8.5t-29.5 16.5q-37 49 -91 76.5t-116 27.5
q-128 0 -207 -104q-11 -14 -29.5 -16.5t-33.5 8.5q-14 11 -16.5 29.5t8.5 33.5q50 66 123 102.5t155 36.5t155.5 -36.5t123.5 -102.5zM923 605q10 -13 10 -29q0 -22 -15 -34q-14 -12 -32.5 -10.5t-30.5 15.5q-66 78 -158.5 121t-194.5 43t-194 -43t-158 -121
q-12 -14 -30.5 -16t-32.5 11q-14 12 -15.5 30.5t9.5 32.5q80 93 190 144t231 51q122 0 232 -51t189 -144zM560 197q0 -24 -17 -41t-41 -17t-41 17t-17 41t17 41t41 17t41 -17t17 -41zM784 34h-576q-46 0 -80 -29l103 392q16 -7 28 -7q31 0 52 26q6 9 22 25h94
q-65 -29 -93 -92q-11 -24 -2.5 -49.5t33.5 -36.5q12 -6 27 -6q40 0 59 37q15 33 51 33t51 -33q18 -37 59 -37q15 0 27 6q38 18 38 59q0 15 -6 27q-31 64 -94 92h95q18 -21 21 -25q21 -26 52 -26q14 0 26 6l106 -403q-38 41 -93 41zM502 275q-32 0 -55 -23t-23 -55t23 -55
t55 -23t55 23t23 55t-23 55t-55 23zM790 15q44 0 75.5 -31.5t31.5 -75.5t-31.5 -76t-75.5 -32h-576q-44 0 -75.5 32t-31.5 76t31.5 75.5t75.5 31.5h576zM196 -123q13 0 22 9t9 22t-9 22t-22 9t-22 -9t-9 -22t9 -22t22 -9zM289 -123q13 0 22 9t9 22t-9 22t-22 9t-22 -9
t-9 -22t9 -22t22 -9zM715 -123q13 0 22 9t9 22t-9 22t-22 9t-22 -9t-9 -22t9 -22t22 -9zM808 -123q13 0 22 9t9 22t-9 22t-22 9t-22 -9t-9 -22t9 -22t22 -9z" />
  </g>

</svg>
