<?xml version="1.0" standalone="no"?>
<!DOCTYPE svg PUBLIC "-//W3C//DTD SVG 1.1//EN" "http://www.w3.org/Graphics/SVG/1.1/DTD/svg11.dtd" >
<svg xmlns="http://www.w3.org/2000/svg" xmlns:xlink="http://www.w3.org/1999/xlink" version="1.1" viewBox="-10 0 1010 1000">
  <g transform="matrix(1 0 0 -1 0 800)">
   <path fill="currentColor"
d="M677 198q31 30 76 25q36 -4 37 -29q0 -18 -22 -42q-16 -17 -34.5 -36t-25.5 -26t-15.5 -17t-13 -18t-9.5 -20q-3 -13 -10 -32.5t-29.5 -59.5t-47.5 -55q-24 -15 -42 -37t-23 -37l-6 -14h-249q-5 45 -43 84q-13 14 -21.5 38t-12 44.5t-8.5 62.5t-9 68q-10 64 16 99
q9 12 21 14t20 -2l7 -4q9 29 29 44q9 7 21.5 7t20.5 -3l9 -4q19 40 46 40q12 0 24 -5t19 -10l6 -5q13 7 14 125q2 158 18 227q1 3 2.5 6.5t10.5 8.5t21 2q45 -10 36 -164q-6 -101 19 -277q3 -23 6.5 -36.5t14 -28t27.5 -16.5q19 -2 32 7.5t32 34.5t36 41zM347 748
q0 -22 -15.5 -37t-37.5 -15t-37.5 15t-15.5 37t15.5 37t37.5 15t37.5 -15t15.5 -37zM347 571q0 -22 -15.5 -37t-37.5 -15t-37.5 15t-15.5 37t15.5 37.5t37.5 15.5t37.5 -15.5t15.5 -37.5zM347 394q0 -22 -15.5 -37t-37.5 -15t-37.5 15t-15.5 37t15.5 37.5t37.5 15.5
t37.5 -15.5t15.5 -37.5zM525 748q0 -22 -15 -37t-37 -15t-37.5 15t-15.5 37t15.5 37t37.5 15t37 -15t15 -37zM704 748q0 -22 -15.5 -37t-37.5 -15t-37.5 15t-15.5 37t15.5 37t37.5 15t37.5 -15t15.5 -37zM704 571q0 -22 -15.5 -37t-37.5 -15t-37.5 15t-15.5 37t15.5 37.5
t37.5 15.5t37.5 -15.5t15.5 -37.5zM704 394q0 -22 -15.5 -37t-37.5 -15t-37.5 15t-15.5 37t15.5 37.5t37.5 15.5t37.5 -15.5t15.5 -37.5v0z" />
  </g>

</svg>
