<?xml version="1.0" standalone="no"?>
<!DOCTYPE svg PUBLIC "-//W3C//DTD SVG 1.1//EN" "http://www.w3.org/Graphics/SVG/1.1/DTD/svg11.dtd" >
<svg xmlns="http://www.w3.org/2000/svg" xmlns:xlink="http://www.w3.org/1999/xlink" version="1.1" viewBox="-10 0 1010 1000">
  <g transform="matrix(1 0 0 -1 0 800)">
   <path fill="currentColor"
d="M907 -139q0 -25 -17.5 -43t-43.5 -18h-724q-25 0 -42.5 17.5t-17.5 43.5q0 25 17.5 42.5t42.5 17.5h724q25 0 43 -17.5t18 -42.5zM481 622q0 -7 -7 -7t-7 7t7 7t7 -7zM425 719q0 -8 -8 -8t-8 8t8 8t8 -8zM300 713q7 0 7 -7t-7 -7t-7 7t7 7zM599 573q0 7 7 7t7 -7t-7 -7
t-7 7zM299 612q0 10 9 10q10 0 10 -10q0 -9 -10 -9q-9 0 -9 9zM520 704q0 -6 -4.5 -10t-9.5 -4q-14 0 -14 14t14 14q5 0 9.5 -4t4.5 -10zM218 505v57q-23 38 -23 81q0 65 46.5 111t111.5 46h262q65 0 111.5 -46t46.5 -111q0 -46 -23 -81v-57q-12 8 -28 16v41v7l4 7
q19 32 19 67q0 53 -38 91t-92 38h-262q-53 0 -91.5 -38t-38.5 -91q0 -35 19 -67l4 -7v-7v-41q-16 -8 -28 -16zM399 675q0 -13 -13 -13q-14 0 -14 13t14 13q13 0 13 -13zM577 657q9 0 9 -10q0 -9 -9 -9q-10 0 -10 9q0 10 10 10zM623 704q0 -9 -8 -9q-9 0 -9 9t9 9q8 0 8 -9z
M676 622q0 -9 -9 -9t-9 9t9 9t9 -9zM894 345q18 0 30.5 -12.5t12.5 -29.5t-12.5 -29.5t-30.5 -12.5h-13q-6 57 -17 84h30zM854 217v-269q-2 0 -4 0.5t-3 0.5h-725q-2 0 -4 -0.5t-4 -0.5v269q0 142 72.5 225t208.5 83h178q136 0 208.5 -83t72.5 -225zM763 114q0 14 -10 24
t-24 10t-24 -10t-10 -24t10 -24t24 -10t24 10t10 24zM763 268q0 14 -10 24t-24 10t-24 -10t-10 -24t10 -24t24 -10t24 10t10 24z" />
  </g>

</svg>
