<?xml version="1.0" standalone="no"?>
<!DOCTYPE svg PUBLIC "-//W3C//DTD SVG 1.1//EN" "http://www.w3.org/Graphics/SVG/1.1/DTD/svg11.dtd" >
<svg xmlns="http://www.w3.org/2000/svg" xmlns:xlink="http://www.w3.org/1999/xlink" version="1.1" viewBox="-10 0 1010 1000">
  <g transform="matrix(1 0 0 -1 0 800)">
   <path fill="currentColor"
d="M534 -200h-254q-16 0 -18 17q-5 40 -38 75q-16 16 -25.5 42t-13 46.5t-8.5 63.5q-8 59 -10 74q-12 74 20 115q17 22 42 22q3 0 11 -2q9 21 28 37q14 11 34 11q3 0 21 -3q25 37 54 37q21 0 41 -11q6 48 6 100q2 161 19 236q2 11 13 21.5t29 10.5q4 0 14 -2q60 -15 51 -186
q-6 -107 18 -273l1 -6q9 -65 33 -67q12 -1 21 5.5t24 26.5q22 28 42 48q32 30 80 30q47 0 62 -31q13 -33 -24 -72q-7 -8 -21.5 -22.5t-20.5 -21.5q-26 -27 -35 -38.5t-18 -30.5q-42 -127 -97 -159q-22 -13 -38 -33t-21 -33l-5 -13q-3 -14 -17 -14zM295 -163h226q25 56 76 87
q27 16 49 60t31 78l1 1v2q7 17 16 29.5t16.5 21.5t28.5 30q6 7 20.5 21.5t21.5 22.5q22 22 17 32q-4 10 -29 10q-33 0 -55 -20q-18 -18 -38 -44q-14 -17 -21.5 -25.5t-23 -15.5t-33.5 -5q-24 2 -39 21.5t-18.5 35t-7.5 41.5l-1 6q-25 174 -19 280q3 53 -1 89t-10 47.5
t-11 12.5h-6l-7 -3q-16 -72 -18 -229q-1 -131 -25 -143q-10 -5 -20 3q-18 15 -38 15q-15 0 -29 -30q-4 -7 -11 -10q-7 -2 -14 1q-10 5 -21 5q-8 0 -12 -3q-15 -11 -23 -36q-2 -8 -11 -12q-8 -3 -16 2q-3 3 -11 3t-13 -7q-23 -28 -13 -87q1 -5 10 -76q4 -37 7.5 -56.5t11 -41
t18.5 -33.5q32 -35 45 -80zM713 564q-3 0 -5 1q-7 1 -11 7.5t-2 13.5q14 63 -21 115q-37 53 -100 62q-17 4 -15 21q3 17 21 15q79 -13 124 -78q45 -67 26 -143q-4 -14 -17 -14zM274 564q-14 0 -18 14q-17 77 27 143q44 65 124 78q18 2 20 -15q3 -17 -15 -21q-62 -9 -99 -62
q-36 -54 -21 -115q4 -17 -14 -21q-1 -1 -4 -1z" />
  </g>

</svg>
