<?xml version="1.0" standalone="no"?>
<!DOCTYPE svg PUBLIC "-//W3C//DTD SVG 1.1//EN" "http://www.w3.org/Graphics/SVG/1.1/DTD/svg11.dtd" >
<svg xmlns="http://www.w3.org/2000/svg" xmlns:xlink="http://www.w3.org/1999/xlink" version="1.1" viewBox="-10 0 1010 1000">
  <g transform="matrix(1 0 0 -1 0 800)">
   <path fill="currentColor"
d="M168 739q41 0 70 -29.5t29 -70.5q0 -58 -52 -86v-48q0 -20 -14 -34t-34 -14t-34 14t-14 34v49q-50 27 -50 85q0 41 29 70.5t70 29.5zM110 639q0 -17 9 -30v44q0 6 1 9v3q0 1 1 3t1 3q1 1 1 2l3 6q1 1 1 2q-17 -19 -17 -42zM174 505v31v117q0 8 -7 8t-7 -8v-117v-31
q0 -7 7 -7t7 7zM215 606q11 14 11 33q0 29 -24 48l2 -4l3 -3q1 -1 3 -5v-1l1 -2q2 -4 2 -6q1 -1 1 -3q1 -3 1 -10v-47zM982 312q0 -40 -35 -60q-36 -89 -102 -156.5t-151 -105.5l121 -190h-685l65 257q-33 27 -65 64h-114v679h310v-516h6v96h582q28 0 48 -20t20 -48z
M373 339v-55h541q11 0 19 8t8 20q0 11 -8 19t-19 8h-541zM56 162h40h189v122v475h-229v-597zM740 -158l-85 133q-35 -13 -76 -19l-1 -1q-6 -1 -17.5 -2.5t-17.5 -1.5q-3 0 -5 -1q-13 -1 -39 -1q-22 0 -32 1q-2 0 -5.5 0.5t-5.5 0.5q-4 1 -11 1t-11 1q-2 1 -5.5 1t-5.5 1
q-10 1 -25 5q-4 0 -6 1q-13 2 -30 8l-9 3q-8 2 -24 8q-1 1 -3.5 1.5t-3.5 0.5q-52 21 -91 49l-48 -189h557zM672 25q74 32 132.5 88t93.5 130h-566h-6v-122h-141q23 -23 53 -45l21 -15q5 -2 11 -7q2 -1 31 -17l24 -12q3 -1 14 -5q4 -2 12.5 -5t12.5 -4q11 -3 14 -4
q22 -6 26 -6q2 -1 6.5 -2t6.5 -1q5 -1 14.5 -2.5t14.5 -2.5q2 0 6 -0.5t6 -0.5q26 -2 41 -2q13 0 37 2q6 0 8 1q22 2 32 4q3 0 5 1q37 8 75 21z" />
  </g>

</svg>
