<?xml version="1.0" standalone="no"?>
<!DOCTYPE svg PUBLIC "-//W3C//DTD SVG 1.1//EN" "http://www.w3.org/Graphics/SVG/1.1/DTD/svg11.dtd" >
<svg xmlns="http://www.w3.org/2000/svg" xmlns:xlink="http://www.w3.org/1999/xlink" version="1.1" viewBox="-10 0 1010 1000">
  <g transform="matrix(1 0 0 -1 0 800)">
   <path fill="currentColor"
d="M335 -17q0 -64 -45 -109t-109 -45t-109 45t-45 109t45 109.5t109 45.5t109 -45.5t45 -109.5zM599 226q79 -31 113 -109.5t2 -158.5t-110 -113.5t-157 -1.5l-104 41q28 45 28 99q0 79 -55.5 135t-134.5 56q-89 0 -146 -69q-13 64 10 120q32 80 110 113.5t157 2.5z
M838 -153h133v-36h-133v36zM348 455q-153 62 -151 156q0 47 36 86.5t85 57.5q91 34 188.5 -10.5t234.5 -181.5q52 -52 88.5 -104.5t54.5 -91t27 -87t10.5 -74.5t1.5 -73v-250h-37v250q0 45 -1 70.5t-9.5 70.5t-25.5 81t-51 84.5t-83 97.5q-128 129 -217.5 171.5t-168.5 12.5
q-38 -14 -67.5 -45.5t-29.5 -64.5q-1 -34 32 -65t97 -57q69 -28 120.5 -61t78.5 -65.5t40.5 -57.5t18.5 -49q-4 3 -8 4l-37 15q-49 110 -227 180z" />
  </g>

</svg>
