<?xml version="1.0" standalone="no"?>
<!DOCTYPE svg PUBLIC "-//W3C//DTD SVG 1.1//EN" "http://www.w3.org/Graphics/SVG/1.1/DTD/svg11.dtd" >
<svg xmlns="http://www.w3.org/2000/svg" xmlns:xlink="http://www.w3.org/1999/xlink" version="1.1" viewBox="-10 0 1010 1000">
  <g transform="matrix(1 0 0 -1 0 800)">
   <path fill="currentColor"
d="M188 150q71 0 122 -51t51 -123t-51 -123t-122 -51q-72 0 -123 51t-51 123t51 123t123 51zM188 -162q56 0 96.5 40.5t40.5 97.5t-40.5 97t-96.5 40q-57 0 -97 -40t-40 -97t40 -97.5t97 -40.5zM616 238q86 -35 123 -121t3 -174q-26 -65 -83 -104t-127 -39q-41 0 -83 17
l-91 36q7 10 19 32l85 -34q36 -14 70 -14q59 0 106.5 32.5t69.5 87.5q29 73 -2 145.5t-104 101.5l-289 115q-36 14 -70 14q-59 0 -106.5 -32.5t-69.5 -87.5q-15 -35 -13 -75q-15 -11 -33 -35q-11 66 12 124q26 65 83.5 104t126.5 39q41 0 83 -17zM850 -162h134v-37h-134v37z
M356 452q-155 62 -153 157q1 48 37 88t85 58q92 34 190.5 -10.5t237.5 -183.5q53 -53 89 -106t54 -91.5t27.5 -88t10.5 -75t1 -74.5v-251h-36v251q0 58 -3 91.5t-18 89t-52.5 111t-98.5 117.5q-130 130 -219.5 172.5t-169.5 13.5q-38 -14 -68 -46t-31 -66q0 -71 131 -123
q204 -82 253 -212l-51 21q-59 94 -216 157z" />
  </g>

</svg>
