<?xml version="1.0" standalone="no"?>
<!DOCTYPE svg PUBLIC "-//W3C//DTD SVG 1.1//EN" "http://www.w3.org/Graphics/SVG/1.1/DTD/svg11.dtd" >
<svg xmlns="http://www.w3.org/2000/svg" xmlns:xlink="http://www.w3.org/1999/xlink" version="1.1" viewBox="-10 0 1010 1000">
  <g transform="matrix(1 0 0 -1 0 800)">
   <path fill="currentColor"
d="M544 111q27 -1 46 -20t19 -46v-179q0 -27 -19.5 -46.5t-47.5 -19.5q-27 0 -46.5 19.5t-19.5 46.5v19h-319v-19q0 -27 -19.5 -46.5t-46.5 -19.5q-28 0 -47 19.5t-19 46.5v179q0 27 18.5 46t45.5 20q4 222 118 301l6 4q1 0 1 1h1q15 9 20 10q3 2 9 4l7.5 2.5t6.5 2.5
q8 2 11 3h5v-21q-4 -2 -16 -4l-1 -1q-1 -1 -2 -1q-5 -1 -23 -9q0 -1 -1 -1q11 -34 34.5 -54.5t51.5 -20.5t51.5 20.5t33.5 54.5q-1 0 -1 1q-18 8 -23 9l-1 1q-1 1 -2 1q-12 2 -16 4v21h5q2 -1 5.5 -2t5.5 -1q2 -1 6.5 -2.5l7.5 -2.5q6 -2 9 -4q14 -6 20 -10h1l1 -1l7 -4h-1
q114 -79 118 -301zM136 -134v23h-1l-4 4q-1 1 -2 1q-1 2 -4 5v2q-1 1 -5 7q-25 49 -30 155q-1 9 -1 27q-18 -1 -30.5 -14t-12.5 -31v-179q0 -18 13 -31t32 -13t32 13t13 31zM317 -10h151q13 0 24.5 39.5t15.5 98t-4 124.5q-24 94 -84 139q-14 -39 -41.5 -62t-61.5 -23
t-62 23t-42 62q-57 -43 -84 -139q-8 -66 -4 -124.5t15.5 -98t24.5 -39.5h152zM587 -134v179q0 18 -12.5 31t-30.5 14q0 -18 -1 -27q-5 -106 -30 -155q-1 -2 -2.5 -4t-1.5 -3q-1 -1 -1 -2t-2 -2.5t-2 -2.5h-1l-1 -1q-1 -3 -4 -4v-23q0 -18 13 -31t31 -13q19 0 32 13t13 31z
M975 -55v-10h-12q-4 -23 -22 -38.5t-42 -15.5h-206q-25 0 -42.5 15.5t-21.5 38.5h-12v10q0 31 22 53t54 22h29v60h55v460q0 90 -64.5 154t-155.5 64t-155 -64t-64 -154v-161h-43v161q0 108 77 184t185 76q109 0 185.5 -76t76.5 -184v-460h55v-60h25q32 0 54 -22t22 -53z
M743 59v-39h109v39h-109zM693 -1q-20 0 -35 -12.5t-19 -30.5h313q-4 18 -19 30.5t-34 12.5h-25h-152h-29zM243 80h147v-21h-147v21v0z" />
  </g>

</svg>
