<?xml version="1.0" standalone="no"?>
<!DOCTYPE svg PUBLIC "-//W3C//DTD SVG 1.1//EN" "http://www.w3.org/Graphics/SVG/1.1/DTD/svg11.dtd" >
<svg xmlns="http://www.w3.org/2000/svg" xmlns:xlink="http://www.w3.org/1999/xlink" version="1.1" viewBox="-10 0 1010 1000">
  <g transform="matrix(1 0 0 -1 0 800)">
   <path fill="currentColor"
d="M642 128l56 -83q-27 -106 -115 -175.5t-201 -69.5q-135 0 -230.5 96t-95.5 231q0 93 48 171t128 119v-78q-51 -36 -80.5 -91.5t-29.5 -120.5q0 -107 76.5 -183.5t183.5 -76.5t183.5 76.5t76.5 183.5v1zM933 75q8 -12 5.5 -26.5t-14.5 -22.5l-98 -66q-19 -14 -40 0
q-5 5 -8 9l-138 202h-306h-7q-31 3 -52 26t-21 54v270q0 33 23.5 56.5t56.5 23.5t56 -23.5t23 -56.5v-80h173q16 0 27 -11t11 -26q0 -16 -11 -27t-27 -11h-173v-68h217q34 0 54 -30l149 -219l51 34q12 8 26.5 6t22.5 -14zM424 711q0 -37 -26.5 -63.5t-63.5 -26.5
q-38 0 -64 26.5t-26 63.5t26.5 63t63.5 26t63.5 -26t26.5 -63v0z" />
  </g>

</svg>
