<?xml version="1.0" standalone="no"?>
<!DOCTYPE svg PUBLIC "-//W3C//DTD SVG 1.1//EN" "http://www.w3.org/Graphics/SVG/1.1/DTD/svg11.dtd" >
<svg xmlns="http://www.w3.org/2000/svg" xmlns:xlink="http://www.w3.org/1999/xlink" version="1.1" viewBox="-10 0 1020 1000">
  <g transform="matrix(1 0 0 -1 0 800)">
   <path fill="currentColor"
d="M548 101q14 -9 5 -24q-5 -9 -15 -9q-6 0 -10 3l-28 18l-42 -21q10 -37 -7 -67l38 -29l31 12q16 7 23 -10q7 -15 -10 -23l-11 -4l11 -8q14 -12 3 -26q-5 -7 -14 -7q-5 0 -11 4l-11 8l-1 -11q-4 -16 -18 -16h-3q-7 1 -11.5 7t-3.5 13l4 32l-38 29q-10 -8 -19 -12
q-17 -9 -32 -10l-5 -47l27 -19q15 -11 4 -25q-4 -7 -14 -7q-5 0 -11 3l-9 7l-2 -14q0 -7 -5 -11.5t-12 -4.5h-2q-18 2 -16 20l1 13l-11 -5q-4 -2 -8 -2q-11 0 -16 11q-3 6 -0.5 13t9.5 10l30 14l4 47q-30 9 -48 32l-42 -21l-2 -33q-2 -16 -18 -16h-1q-7 0 -12.5 5.5
t-4.5 13.5l1 11l-13 -6q-4 -2 -8 -2q-11 0 -16 10q-8 17 8 24l12 6l-10 7q-14 9 -5 24q8 15 25 6l28 -18l42 21q-8 28 1 55q1 2 2.5 6t2.5 6l-37 29l-31 -12q-4 -2 -7 -2q-11 0 -16 12q-7 16 10 23l11 4l-11 9q-14 10 -3 25q10 14 25 3l11 -8l1 11q1 7 7 12t13 4
q18 -2 16 -20l-4 -33l38 -28q5 5 19 13q15 7 32 9l5 47l-27 19q-14 11 -5 25q11 15 25 4l10 -7l1 14q2 18 20 16q7 -1 12 -6.5t4 -12.5l-1 -14l11 5q16 7 24 -8q7 -17 -9 -24l-30 -14l-4 -47q30 -9 48 -32l42 21l2 33q2 18 19 16q7 0 12.5 -5.5t4.5 -12.5l-1 -12l13 6
q15 8 24 -8q8 -17 -8 -24l-12 -6zM394 -8q21 11 28.5 33t-3.5 43q-16 32 -51 32q-14 0 -26 -6q-21 -11 -29 -34q-6 -22 3 -43h1v-1q16 -31 51 -31q15 0 26 7zM675 18h-63q-9 0 -15.5 6t-6.5 15t6.5 15.5t15.5 6.5h63q40 0 68.5 28t28.5 68q0 36 -23 63t-58 33q-9 2 -14 8.5
t-4 14.5q0 4 0.5 13t0.5 13q0 100 -71 170.5t-172 70.5q-83 0 -148 -50t-86 -129q-6 -15 -20 -15q-56 -5 -95 -46.5t-39 -97.5q0 -51 31 -90t81 -51q8 -2 13 -9.5t3 -15.5q-5 -21 -26 -16q-64 14 -104.5 65t-40.5 117q0 69 45.5 121.5t113.5 63.5q29 87 104 141.5t168 54.5
q119 0 202.5 -83t83.5 -201v-11q44 -14 71 -51t27 -83q0 -58 -41 -98.5t-99 -40.5zM718 751v-51q0 -8 -6 -13.5t-13 -5.5t-12.5 5.5t-5.5 13.5v51q0 7 5.5 12.5t12.5 5.5q8 0 13.5 -5.5t5.5 -12.5zM929 489h52q8 0 13.5 -5.5t5.5 -12.5t-6 -13t-13 -6h-52q-7 0 -12.5 5.5
t-5.5 13.5q0 7 5.5 12.5t12.5 5.5zM911 656l-36 -36q-5 -6 -13 -6t-13 6q-13 13 0 26l36 36q14 12 26 0q6 -5 6 -13t-6 -13zM513 682l36 -36q6 -5 6 -13t-6 -13q-5 -6 -13 -6t-13 6l-36 36q-6 5 -6 13t6 13q13 13 26 0zM875 322l36 -36q6 -5 6 -13t-6 -13q-12 -12 -26 0
l-36 36q-13 13 0 26t26 0zM803 345q-7 -5 -13 -5q-11 0 -17 8q-6 7 -5 16t8 14q47 38 47 97q0 51 -36.5 87t-88.5 36q-44 0 -77 -27q-7 -5 -16 -4t-14 8q-6 7 -5 16t8 14q45 36 104 36q70 0 119 -48.5t49 -117.5q0 -80 -63 -130z" />
  </g>

</svg>
