<?xml version="1.0" standalone="no"?>
<!DOCTYPE svg PUBLIC "-//W3C//DTD SVG 1.1//EN" "http://www.w3.org/Graphics/SVG/1.1/DTD/svg11.dtd" >
<svg xmlns="http://www.w3.org/2000/svg" xmlns:xlink="http://www.w3.org/1999/xlink" version="1.1" viewBox="-10 0 1020 1000">
  <g transform="matrix(1 0 0 -1 0 800)">
   <path fill="currentColor"
d="M471 682q0 -49 -34.5 -83.5t-83.5 -34.5t-83.5 34.5t-34.5 83.5t34.5 83.5t83.5 34.5t83.5 -34.5t34.5 -83.5zM962 -90q16 0 27 -11t11 -26q0 -16 -11 -27t-27 -11h-115q-21 0 -32 18l-169 280h-292q-16 0 -26.5 11t-10.5 27v360q18 -5 36 -5q17 0 39 5v-66l107 -165h191
q11 0 19.5 -8.5t8.5 -19.5q0 -12 -8.5 -20t-19.5 -8h-206q-15 0 -24 12l-68 106v-154h275q21 0 32 -18l169 -280h94zM354 -162q102 0 184 58.5t115 152.5l24 -40q-43 -94 -130 -151.5t-193 -57.5q-147 0 -250.5 104.5t-103.5 251.5q0 127 79 224t200 123v-39
q-105 -26 -173.5 -111.5t-68.5 -196.5q0 -131 93 -224.5t224 -93.5z" />
  </g>

</svg>
