<?xml version="1.0" standalone="no"?>
<!DOCTYPE svg PUBLIC "-//W3C//DTD SVG 1.1//EN" "http://www.w3.org/Graphics/SVG/1.1/DTD/svg11.dtd" >
<svg xmlns="http://www.w3.org/2000/svg" xmlns:xlink="http://www.w3.org/1999/xlink" version="1.1" viewBox="-10 0 1020 1000">
  <g transform="matrix(1 0 0 -1 0 800)">
   <path fill="currentColor"
d="M384 499l616 -611l-26 -25l-615 611zM82 759l108 -107l-83 -81l-107 107zM50 678l57 -57l32 31l-57 57zM385 89q49 0 84 -36.5t35 -86.5q0 -51 -35 -87t-84 -36t-83.5 36t-34.5 87q0 50 34.5 86.5t83.5 36.5zM385 -122q34 0 58.5 26t24.5 62t-24.5 61.5t-58.5 25.5
t-58.5 -25.5t-24.5 -61.5t24.5 -62t58.5 -26zM186 599l202 -200l557 -553h-385l-41 40q10 19 14 35l41 -39h284l-478 474l-8 9l-61 -234l19 -18q-17 -6 -33 -17l-25 24l71 274l-182 180z" />
  </g>

</svg>
