<?xml version="1.0" standalone="no"?>
<!DOCTYPE svg PUBLIC "-//W3C//DTD SVG 1.1//EN" "http://www.w3.org/Graphics/SVG/1.1/DTD/svg11.dtd" >
<svg xmlns="http://www.w3.org/2000/svg" xmlns:xlink="http://www.w3.org/1999/xlink" version="1.1" viewBox="-10 0 1020 1000">
  <g transform="matrix(1 0 0 -1 0 800)">
   <path fill="currentColor"
d="M915 173q31 0 54.5 -19.5t30.5 -49.5l-31 -6q-4 19 -19.5 31.5t-34.5 12.5t-34.5 -12.5t-19.5 -31.5l-2 -7q-8 -28 -31 -44.5t-52 -16.5t-51.5 16.5t-30.5 43.5l-2 7q-4 19 -19 32t-35 13q-19 0 -34.5 -12.5t-19.5 -31.5l-2 -6q-7 -28 -30.5 -45t-52.5 -17t-52.5 18
t-30.5 46l-1 4q-4 19 -19.5 31.5t-34.5 12.5t-34.5 -12.5t-19.5 -31.5l-2 -7q-8 -28 -31 -44.5t-52 -16.5t-52 17t-30 44l-2 6q-4 19 -19 32t-35 13q-19 0 -34.5 -12.5t-19.5 -31.5l-30 6q6 30 29.5 49.5t54.5 19.5t54.5 -19.5t29.5 -49.5l2 -5q4 -16 19 -27t33 -11
q41 0 53 38l2 6q6 29 29.5 48.5t54.5 19.5t54.5 -19.5t29.5 -49.5l1 -3q5 -17 20 -28.5t34 -11.5q18 0 33 11t19 28l2 5q6 29 29.5 48.5t54.5 19.5t54.5 -19.5t29.5 -49.5l2 -5q12 -38 52 -38q41 0 53 38l2 6q6 29 29.5 48.5t54.5 19.5zM829 -121l2 5l30 -7l-2 -7
q-8 -27 -31 -44t-52 -17q-28 0 -51 17t-31 44l-2 7q-4 19 -19 31.5t-35 12.5t-35 -12.5t-19 -31.5l-2 -6q-7 -28 -30.5 -45t-52.5 -17t-52 18t-31 46l-1 4q-4 19 -19 31.5t-35 12.5t-35 -12.5t-19 -31.5l-2 -7q-8 -28 -31 -44.5t-52 -16.5t-52 17t-30 45l-2 6l30 7l2 -5
q4 -17 19 -28t33 -11q19 0 33.5 11t19.5 28l2 5q6 29 29.5 48.5t54.5 19.5t54.5 -19.5t29.5 -48.5l1 -3q4 -18 19 -29.5t34 -11.5t34 11t19 28l2 5q6 29 29.5 48.5t54.5 19.5t54.5 -19.5t29.5 -48.5l2 -6q5 -17 19.5 -27.5t32.5 -10.5q19 0 33.5 11t19.5 28zM143 395
l-82 -63l-61 79l228 174v205h103v-126l169 128l499 -381l-61 -79l-82 63v-208q-45 -26 -56 -75l-1 -4q-5 -16 -23 -16q-17 0 -22 15l-1 4q-9 40 -41.5 66t-73.5 26t-73.5 -25.5t-41.5 -65.5l-1 -4q-5 -16 -23 -16t-23 17v2q-8 40 -41 66t-74 26t-73.5 -25.5t-41.5 -65.5
l-1 -4q-5 -16 -23 -16q-17 0 -22 16l-1 3q-11 50 -56 76v208zM267 589l-238 -182l35 -46l436 332l356 -272l79 -60l35 46l-470 359l-169 -128z" />
  </g>

</svg>
