<?xml version="1.0" standalone="no"?>
<!DOCTYPE svg PUBLIC "-//W3C//DTD SVG 1.1//EN" "http://www.w3.org/Graphics/SVG/1.1/DTD/svg11.dtd" >
<svg xmlns="http://www.w3.org/2000/svg" xmlns:xlink="http://www.w3.org/1999/xlink" version="1.1" viewBox="-10 0 1020 1000">
  <g transform="matrix(1 0 0 -1 0 800)">
   <path fill="currentColor"
d="M818 346h59v-162h-59v162zM881 388q0 -12 -10 -20.5t-24 -8.5t-24 8.5t-10 20.5t10 20.5t24 8.5t24 -8.5t10 -20.5zM601 405h55h131v-50h-131v-54h116v-51h-116v-66h-55v66v51v54v50zM847 519q63 0 108 -44.5t45 -107.5v-130q0 -63 -45 -108t-108 -45h-77
q-49 -61 -119.5 -95.5t-151.5 -34.5q-80 0 -151 35t-119 95h-77q-63 0 -107.5 45t-44.5 108v130q0 63 44.5 107.5t107.5 44.5h77q49 60 119.5 94.5t151.5 34.5q80 0 150.5 -34.5t119.5 -94.5h77zM410 359q14 0 23.5 8.5t9.5 20.5t-9.5 20.5t-23.5 8.5t-24 -8.5t-10 -20.5
t10 -20.5t24 -8.5zM439 346h-59v-162h59v162zM138 184h56l26 111l23 -111h61l50 221h-60l-21 -118l-24 118h-56l-26 -118l-15 118h-66zM957 237v130q0 46 -32 78t-78 32h-219q-98 0 -98 -131v-119q0 -22 -2.5 -36t-11 -31t-31 -25.5t-57.5 -8.5h419q46 0 78 32.5t32 78.5z
" />
  </g>

</svg>
