<?xml version="1.0" standalone="no"?>
<!DOCTYPE svg PUBLIC "-//W3C//DTD SVG 1.1//EN" "http://www.w3.org/Graphics/SVG/1.1/DTD/svg11.dtd" >
<svg xmlns="http://www.w3.org/2000/svg" xmlns:xlink="http://www.w3.org/1999/xlink" version="1.1" viewBox="-10 0 1020 1000">
  <g transform="matrix(1 0 0 -1 0 800)">
   <path fill="currentColor"
d="M360 551l640 -641l-1 -52l-639 641v52zM479 -47q0 -46 -30.5 -78t-74.5 -32t-74.5 32t-30.5 78t30.5 78t74.5 32t74.5 -32t30.5 -78zM277 121l74 287l560 -561h-347l-57 54q10 27 10 52q0 61 -42 104.5t-101 43.5q-29 0 -61 -15zM59 759l86 -86l-60 -59l-85 86zM52 700
l33 -33l7 6l-33 34zM326 459l-11 -42l-187 187l26 27z" />
  </g>

</svg>
