<?xml version="1.0" standalone="no"?>
<!DOCTYPE svg PUBLIC "-//W3C//DTD SVG 1.1//EN" "http://www.w3.org/Graphics/SVG/1.1/DTD/svg11.dtd" >
<svg xmlns="http://www.w3.org/2000/svg" xmlns:xlink="http://www.w3.org/1999/xlink" version="1.1" viewBox="-10 0 1010 1000">
  <g transform="matrix(1 0 0 -1 0 800)">
   <path fill="currentColor"
d="M499 520q-90 0 -154 -64.5t-64 -155.5q0 -90 64 -154.5t154 -64.5t154 64.5t64 154.5q0 91 -64 155.5t-154 64.5zM499 555q104 0 178.5 -74.5t74.5 -180.5q0 -105 -74.5 -179.5t-178.5 -74.5q-105 0 -179 74.5t-74 179.5q0 106 74 180.5t179 74.5zM439 800v-100h-396v100
h396zM456 800h499v-918h-912v801h413v117zM670 763q-14 0 -23 -9.5t-9 -23.5t9.5 -23.5t22.5 -9.5q14 0 23.5 9.5t9.5 23.5t-9.5 23.5t-23.5 9.5zM499 11q119 0 203 85t84 204q0 120 -84 205t-203 85t-203.5 -85t-84.5 -205q0 -119 84.5 -204t203.5 -85zM775 697
q13 0 23 9.5t10 23.5t-9.5 23.5t-23.5 9.5t-23.5 -9.5t-9.5 -23.5t10 -23.5t23 -9.5zM880 697q14 0 23.5 9.5t9.5 23.5t-9.5 23.5t-23.5 9.5t-23.5 -9.5t-9.5 -23.5t9.5 -23.5t23.5 -9.5zM955 -141v-59h-912v59h912z" />
  </g>

</svg>
