<?xml version="1.0" standalone="no"?>
<!DOCTYPE svg PUBLIC "-//W3C//DTD SVG 1.1//EN" "http://www.w3.org/Graphics/SVG/1.1/DTD/svg11.dtd" >
<svg xmlns="http://www.w3.org/2000/svg" xmlns:xlink="http://www.w3.org/1999/xlink" version="1.1" viewBox="-10 0 1010 1000">
  <g transform="matrix(1 0 0 -1 0 800)">
   <path fill="currentColor"
d="M499 800l25 -52l57 -8l-41 -40l10 -58l-51 27l-50 -27l9 58l-41 40l57 8zM669 469q0 -12 -8 -20t-20 -8q-11 0 -19 8t-8 20q0 11 8 19.5t19 8.5q12 0 20 -8.5t8 -19.5zM356 497q11 0 19 -8.5t8 -19.5q0 -12 -8 -20t-19 -8t-19.5 8t-8.5 20q0 11 8.5 19.5t19.5 8.5z
M734 320q0 -12 -8 -20t-19 -8q-12 0 -20 8t-8 20q0 11 8 19.5t20 8.5q11 0 19 -8.5t8 -19.5zM296 348q11 0 19.5 -8.5t8.5 -19.5q0 -12 -8.5 -20t-19.5 -8t-19 8t-8 20q0 11 8 19.5t19 8.5zM810 134q0 -12 -8 -20t-20 -8q-11 0 -19 8t-8 20q0 11 8 19.5t19 8.5q12 0 20 -8.5
t8 -19.5zM218 162q11 0 19.5 -8.5t8.5 -19.5q0 -12 -8.5 -20t-19.5 -8t-19 8t-8 20q0 11 8 19.5t19 8.5zM863 -23q0 -11 -8.5 -19.5t-19.5 -8.5t-19 8.5t-8 19.5q0 12 8 20t19 8t19.5 -8t8.5 -20zM163 5q11 0 19.5 -8t8.5 -20q0 -11 -8.5 -19.5t-19.5 -8.5t-19 8.5t-8 19.5
q0 12 8 20t19 8zM459 -47h81v-153h-81v153zM686 141l123 -135q-13 -11 -13 -29h-593q0 19 -13 30l121 134h-54q-3 17 -18 27l136 152h-39q0 19 -14 30l103 119h-29q0 18 -15 30l118 143l118 -143q-15 -12 -15 -30h-29l105 -122q-10 -12 -10 -27h-45l137 -154
q-13 -10 -16 -25h-58zM349 32q8 0 14 6t6 14q0 9 -6 15t-14 6t-14 -6t-6 -15q0 -8 6 -14t14 -6zM403 172q11 0 18 7t7 18t-7 18.5t-18 7.5t-18.5 -7.5t-7.5 -18.5q0 -10 7.5 -17.5t18.5 -7.5zM474 473q10 0 17 7.5t7 17.5t-7 17t-17 7t-17 -7t-7 -17q0 -11 7 -18t17 -7z
M599 245q-7 0 -12.5 -5.5t-5.5 -12.5t5.5 -12.5t12.5 -5.5t12 5.5t5 12.5t-5 12.5t-12 5.5zM561 346q9 0 15 6t6 15t-6 15.5t-15 6.5t-15 -6.5t-6 -15.5t6 -15t15 -6zM600 64q8 0 13.5 6t5.5 13q0 8 -5.5 14t-13.5 6t-13.5 -6t-5.5 -14t5.5 -13.5t13.5 -5.5z" />
  </g>

</svg>
