<?xml version="1.0" standalone="no"?>
<!DOCTYPE svg PUBLIC "-//W3C//DTD SVG 1.1//EN" "http://www.w3.org/Graphics/SVG/1.1/DTD/svg11.dtd" >
<svg xmlns="http://www.w3.org/2000/svg" xmlns:xlink="http://www.w3.org/1999/xlink" version="1.1" viewBox="-10 0 1034 1000">
  <g transform="matrix(1 0 0 -1 0 800)">
   <path fill="currentColor"
d="M506 425q7 -2 14.5 -2t14.5 2l116 -240q-5 -5 -9 -10.5t-7 -11.5t-6 -14h-215q-7 21 -23 37zM881 504q-11 0 -21 -2.5t-19.5 -6.5t-17.5 -11t-14 -15t-11 -17q-5 -10 -7 -19q-3 -11 -3 -22q0 -35 25 -62l-77 -139q-10 3 -19 3q-4 0 -8 -0.5t-7 -0.5l-117 238q27 28 27 67
t-27 66.5t-65.5 27.5t-65.5 -27.5t-27 -67.5q0 -39 29 -66l-116 -238h-7q-4 1 -7 1h-6q-3 0 -5.5 -0.5t-5.5 -1.5t-5 -1l-77 137q24 27 24 64q0 39 -27 66t-65 27q-16 0 -30 -4t-25 -13t-19.5 -20.5t-13.5 -25.5t-5 -30q0 -38 27 -65.5t66 -27.5h6q3 0 6 1h7l78 -139
q-22 -26 -22 -60q0 -39 27 -66.5t65 -27.5q12 0 23.5 3.5t22 9t19 14t14.5 18.5t9 21h214q9 -29 33.5 -47.5t55.5 -18.5q38 0 65 27.5t27 66.5q0 35 -24 62l77 139q5 -2 10 -2.5t9 -0.5q38 0 65 27.5t27 65.5q0 26 -12 47.5t-33.5 33.5t-46.5 12z" />
  </g>

</svg>
