<?xml version="1.0" standalone="no"?>
<!DOCTYPE svg PUBLIC "-//W3C//DTD SVG 1.1//EN" "http://www.w3.org/Graphics/SVG/1.1/DTD/svg11.dtd" >
<svg xmlns="http://www.w3.org/2000/svg" xmlns:xlink="http://www.w3.org/1999/xlink" version="1.1" viewBox="-10 0 1034 1000">
  <g transform="matrix(1 0 0 -1 0 800)">
   <path fill="currentColor"
d="M966 240v15v275l-5 7q-90 99 -211 110q-2 13 -15 13h-18q-13 0 -15 -13q-66 -9 -111.5 -30t-95.5 -74q-5 -4 -5 -6v-7h-2q-11 0 -11 -9h-215q-5 0 -7 -3q-2 -4 -2 -6v-61h-174q-38 0 -38 -38q0 -8 5.5 -17t13.5 -13.5t19 -4.5h174v-55q0 -4 2 -6v-16q-2 -2 -2 -6v-53
h-174q-16 0 -27 -11t-11 -27q0 -8 5.5 -17t13.5 -13.5t19 -4.5h174v-61q0 -11 9 -11h215q2 -9 9 -9h4v-5q0 -6 5 -8q9 -9 15 -14q66 -63 137 -79q4 -2 8.5 -3l9 -2t8.5 -2.5t8.5 -1.5t10 -1t10.5 -1q4 -11 15 -11h18q4 0 8.5 3.5t6.5 7.5q119 11 209 106v2l4 2q3 2 3 7v152z
M752 -9v77v114v136v133v17v39v51q0 23 -1 44t-1 25q110 -11 196 -101v-40v-66v-81v-84v-103v-60l-2 -2q-86 -86 -192 -99zM730 640v-660h-11v660h11zM510 530q49 49 89.5 68.5t102.5 28.5v-636q-33 4 -51 9q-62 17 -128 75l-13 13v442zM477 123v-7h-204v7h204zM451 314v-11
h-176v11h176zM477 475v-141h-204v141h204zM477 284v-141h-204v141h204zM477 314v-11h-6v11h6zM477 501v-6h-204v6h204zM79 431h174v-33h-174q-18 0 -18 16.5t18 16.5zM79 222h174v-33h-174q-18 0 -18 16.5t18 16.5z" />
  </g>

</svg>
