<?xml version="1.0" standalone="no"?>
<!DOCTYPE svg PUBLIC "-//W3C//DTD SVG 1.1//EN" "http://www.w3.org/Graphics/SVG/1.1/DTD/svg11.dtd" >
<svg xmlns="http://www.w3.org/2000/svg" xmlns:xlink="http://www.w3.org/1999/xlink" version="1.1" viewBox="-10 0 1034 1000">
  <g transform="matrix(1 0 0 -1 0 800)">
   <path fill="currentColor"
d="M573 288q-13 0 -13 -14q0 -4 1 -6t1 -4l-10 -19h-4h-2l-15 35q4 4 4 8q0 13 -14 13q-6 0 -10 -4t-4 -8.5t4 -8.5l-15 -35h-3h-3l-12 19q4 4 4 10q0 4 -4 8t-10 4q-11 0 -11 -12q0 -6 3.5 -10t7.5 -4h4l10 -19l-2 -10q0 -6 4 -10t10 -4q10 0 11 10h32q2 -10 11 -10
q14 0 14 14q0 4 -1 6t-3 4l12 19h2q6 0 10 4t4 10q0 14 -13 14zM519 276h2h2l18 -35q-2 0 -3 -2l-1 -2h-32q0 2 -1 4zM630 282q28 0 28 -28q2 -13 -7 -22t-21 -9q-7 0 -14 4t-11 11t-4 13.5t3 13.5t10 12t15 5h1zM630 288h-1q-16 -2 -26 -12t-9 -24.5t11 -24.5t25 -10
q16 2 26 12t8 25q0 6 -3 13t-7 11t-11 7t-13 3zM414 282q11 0 20 -8t9 -20q0 -13 -8 -22t-19 -9h-2q-8 0 -14 4t-10 11t-4 12q2 28 28 32zM414 288v0q-16 -2 -26 -12t-9 -24.5t11 -24.5t24 -10h2q13 2 23 12t10 25q0 8 -5 16t-13 13t-17 5zM535 57v-33h-24v33h24zM535 63
h-24q-4 0 -4 -6v-33q0 -6 4 -6h24q4 0 4 6v33q0 6 -4 6zM533 479v-31h-22v31h22zM533 485h-22q-6 0 -6 -6v-31q0 -6 6 -6h22q6 0 6 6v31q0 6 -6 6zM523 18q-35 0 -67.5 10t-52 21.5t-36.5 27.5q-33 29 -47 58h-2v80h-29v73h31v76v2q16 31 47 60q64 59 156 59t156 -59
q32 -27 47 -58v-78h30v-71h-30v-82v-2q-15 -29 -47 -58q-17 -16 -36.5 -27.5t-52 -21.5t-67.5 -10zM324 137q17 -31 47 -56q64 -57 152 -57t152 57q32 29 45 58v86h30v59h-30v82q-13 29 -45 56q-62 59 -152 59q-51 0 -88 -17.5t-64 -43.5q-32 -27 -45 -56v-80h-30v-63h28
v-84zM523 -5q-107 0 -182.5 75t-75.5 182.5t75.5 182.5t182.5 75t182.5 -75t75.5 -182.5t-75.5 -182.5t-182.5 -75zM523 501q-102 0 -175 -73.5t-73 -175t73 -175t175 -73.5t175 73.5t73 175t-73 175t-175 73.5zM521 -111q-74 0 -140.5 29.5t-115.5 78t-77 115t-28 140.5
q0 151 105.5 256.5t255.5 105.5q98 0 182 -48t132 -132t48 -182q0 -150 -105.5 -256.5t-256.5 -106.5zM521.5 606q-146.5 0 -250 -103.5t-103.5 -250t103.5 -251t250 -104.5t250 104.5t103.5 251t-103.5 250t-250 103.5z" />
  </g>

</svg>
