<?xml version="1.0" standalone="no"?>
<!DOCTYPE svg PUBLIC "-//W3C//DTD SVG 1.1//EN" "http://www.w3.org/Graphics/SVG/1.1/DTD/svg11.dtd" >
<svg xmlns="http://www.w3.org/2000/svg" xmlns:xlink="http://www.w3.org/1999/xlink" version="1.1" viewBox="-10 0 1020 1000">
  <g transform="matrix(1 0 0 -1 0 800)">
   <path fill="currentColor"
d="M499 800q102 0 194.5 -39.5t159.5 -106t107 -159t40 -194.5t-40 -194.5t-107 -159.5t-159.5 -107t-194.5 -40t-194.5 40t-159 107t-106 159.5t-39.5 194.5t39.5 194.5t106 159t159 106t194.5 39.5zM499 -50q145 0 248 103t103 248t-103 247.5t-248 102.5t-247.5 -102.5
t-102.5 -247.5t102.5 -248t247.5 -103zM764 316q0 -28 -20.5 -48t-48.5 -20h-127v-128q0 -28 -20 -48t-49 -20t-48.5 20t-19.5 48v128h-128q-28 0 -48.5 20t-20.5 48t20 48.5t49 20.5h128v128q0 28 20 48t48 20t48.5 -20t20.5 -48v-128h127q29 0 49 -20.5t20 -48.5z" />
  </g>

</svg>
