<?xml version="1.0" standalone="no"?>
<!DOCTYPE svg PUBLIC "-//W3C//DTD SVG 1.1//EN" "http://www.w3.org/Graphics/SVG/1.1/DTD/svg11.dtd" >
<svg xmlns="http://www.w3.org/2000/svg" xmlns:xlink="http://www.w3.org/1999/xlink" version="1.1" viewBox="-10 0 1020 1000">
  <g transform="matrix(1 0 0 -1 0 800)">
   <path fill="currentColor"
d="M179 21h1l11 -38h-24zM308 33q19 0 19 -12q0 -13 -17 -13h-20v25h18zM942 439q24 0 41 -16.5t17 -40.5v-505q0 -24 -17 -41t-41 -17h-885q-24 0 -40.5 17t-16.5 41v505q0 24 16.5 40.5t40.5 16.5h885zM637 320h-70l63 -232h70l24 141h1l25 -141h70l65 232h-71l-29 -145
l-28 145h-63l-28 -143h-1zM359 320v-232h196v59h-125v29h110v56h-110v29h121v59h-192zM55 -148q12 0 20.5 8t8.5 20t-8.5 20.5t-20.5 8.5t-20 -8.5t-8 -20.5t8 -20t20 -8zM55 356q12 0 20.5 8.5t8.5 19.5q0 12 -8.5 20.5t-20.5 8.5t-20 -8.5t-8 -20.5q0 -11 8 -19.5t20 -8.5
zM204 -61h39l-45 123h-37l-46 -123h39l5 17h39zM180 215l72 -127h69v232h-67v-124h-1l-68 124h-73v-232h68v127zM330 -61h39q-1 1 -5 26q-2 25 -18 31q19 7 19 31q0 17 -12 26t-29 9h-72v-123h38v43h20q15 0 17 -24q3 -18 3 -19zM459 -61h38q-4 7 -4 26q-3 25 -18 31
q18 7 18 31q0 16 -11.5 25.5t-28.5 9.5h-73v-123h38v43h21q15 0 17 -24q0 -10 3 -19zM547 -61v123h-39v-123h39zM590 -61h43l39 123h-40l-20 -75l-20 75h-39zM746 -61h40l-45 123h-38l-45 -123h38l6 17h39zM887 -61v31h-55v92h-38v-123h93zM946 -148q11 0 19.5 8t8.5 20
t-8.5 20.5t-19.5 8.5q-12 0 -20.5 -8.5t-8.5 -20.5t8.5 -20t20.5 -8zM946 356q11 0 19.5 8.5t8.5 19.5q0 12 -8.5 20.5t-19.5 8.5q-12 0 -20.5 -8.5t-8.5 -20.5q0 -11 8.5 -19.5t20.5 -8.5zM722 21l11 -38h-23zM436 33q19 0 19 -12q0 -13 -17 -13h-20v25h18zM289 469h-59
l248 301q1 1 3 3.5t3 4.5q8 4 12 4h3h4q4 0 12 -4q1 -2 3 -4.5t3 -3.5l248 -301h-59l-210 254z" />
  </g>

</svg>
