<?xml version="1.0" standalone="no"?>
<!DOCTYPE svg PUBLIC "-//W3C//DTD SVG 1.1//EN" "http://www.w3.org/Graphics/SVG/1.1/DTD/svg11.dtd" >
<svg xmlns="http://www.w3.org/2000/svg" xmlns:xlink="http://www.w3.org/1999/xlink" version="1.1" viewBox="-10 0 1020 1000">
  <g transform="matrix(1 0 0 -1 0 800)">
   <path fill="currentColor"
d="M500 800q136 0 251 -66.5t182 -181.5t67 -251t-67 -251.5t-182 -182t-251 -66.5q-102 0 -194.5 39.5t-159.5 106.5t-106.5 159.5t-39.5 194.5t39.5 194.5t106.5 159t159.5 106t194.5 39.5zM381 129l47 19l-78 198l-41 -16l23 -58q20 -51 36 -81l-1 -1q-28 30 -59 56
l-70 56l-52 -21l78 -198l41 16l-23 60q-9 23 -36 86h1q25 -26 62 -56zM467 163l127 50l-15 37l-81 -32l-19 47l73 28l-14 37l-73 -29l-16 41l77 31l-15 37l-122 -49zM764 281l49 19l-27 218l-46 -18l16 -87q9 -48 16 -74h-1q-13 25 -36 62l-49 77l-48 -18l15 -88
q10 -52 15 -75h-1q-24 41 -39 65l-47 75l-48 -19l125 -179l49 19l-14 93q-6 32 -13 65l1 1q14 -28 33 -58z" />
  </g>

</svg>
