<?xml version="1.0" standalone="no"?>
<!DOCTYPE svg PUBLIC "-//W3C//DTD SVG 1.1//EN" "http://www.w3.org/Graphics/SVG/1.1/DTD/svg11.dtd" >
<svg xmlns="http://www.w3.org/2000/svg" xmlns:xlink="http://www.w3.org/1999/xlink" version="1.1" viewBox="-10 0 677 512">
  <g transform="matrix(1 0 0 -1 0 448)">
   <path fill="currentColor"
d="M401 448q90 0 160 -56.5t89.5 -144t-20 -168.5t-121.5 -119t-169.5 -16.5t-141.5 92.5h-98q-4 0 -7.5 3.5t-3.5 7.5q0 3 1.5 5.5t4 4t5.5 1.5h82q-19 32 -28 67h-143q-4 0 -7.5 3.5t-3.5 8t3.5 7.5t7.5 3h138q-17 96 33 179h-82q-4 0 -7.5 3t-3.5 8q0 3 1.5 5.5t4 4
t5.5 1.5h98q24 31 56 53.5t69.5 34.5t77.5 12zM552 183q5 3 5 9t-5 9l-223 145q-6 4 -11.5 0.5t-5.5 -9.5v-290q0 -6 5.5 -9.5t11.5 0.5zM11 237q-4 0 -7.5 3t-3.5 7.5t3.5 8t7.5 3.5h89q5 0 8 -3.5t3 -8t-3 -7.5t-8 -3h-89z" />
  </g>

</svg>
