<?xml version="1.0" standalone="no"?>
<!DOCTYPE svg PUBLIC "-//W3C//DTD SVG 1.1//EN" "http://www.w3.org/Graphics/SVG/1.1/DTD/svg11.dtd" >
<svg xmlns="http://www.w3.org/2000/svg" xmlns:xlink="http://www.w3.org/1999/xlink" version="1.1" viewBox="-10 0 533 512">
  <g transform="matrix(1 0 0 -1 0 448)">
   <path fill="currentColor"
d="M7 16q-7 7 -7 18t7 18l37 36l66 67l-12 12q-5 5 -5 12t5 12l48 48q5 5 12 5t12 -5l12 -12l35 35l24 94v1q1 2 2 3l42 42q5 5 12 5t12 -5l157 -157q5 -5 5 -12t-5 -12l-42 -42q-1 -1 -3 -2h-1l-94 -24l-174 -173l-36 -37q-7 -7 -18 -7t-18 7zM297 390l-36 -36l157 -157
l36 36zM253 337l-19 -77l90 -90l77 19zM110 179l12 -12l48 48l-12 12zM128 149l-66 -67l84 -84l163 163l-84 84l-36 -36h-1zM20 40q-6 -6 0 -12l72 -72q6 -7 12 0l30 30l-84 84zM20 40zM219 194q-6 0 -8 5.5t2 9.5l6 6q3 4 8 2.5t6 -6.5t-2 -8l-6 -6q-3 -3 -6 -3zM219 194z
M201 185q6 -6 0 -12l-97 -97q-3 -3 -8 -2t-6.5 6t2.5 8l97 97q6 6 12 0zM201 185zM420 356q-6 6 0 12l77 77q4 4 8.5 2.5t6 -6t-2.5 -8.5l-77 -77q-6 -6 -12 0zM420 356zM371 441q1 5 5.5 6.5t8.5 -2t2 -8.5l-12 -46q-2 -5 -6.5 -6.5t-8 2t-2.5 8.5zM371 441zM512 321
q1 -3 -1 -6.5t-5 -4.5l-50 -13q-5 -1 -8.5 2.5t-2 8t6.5 6.5l49 13q4 1 7 -1t4 -5zM512 321z" />
  </g>

</svg>
