<?xml version="1.0" standalone="no"?>
<!DOCTYPE svg PUBLIC "-//W3C//DTD SVG 1.1//EN" "http://www.w3.org/Graphics/SVG/1.1/DTD/svg11.dtd" >
<svg xmlns="http://www.w3.org/2000/svg" xmlns:xlink="http://www.w3.org/1999/xlink" version="1.1" viewBox="-10 0 532 512">
  <g transform="matrix(1 0 0 -1 0 448)">
   <path fill="currentColor"
d="M374 206v0q7 -58 -35 -99q-28 -27 -28 -66v-14h-110v14q0 39 -29 67q-25 25 -32.5 60.5t6.5 69t44 53.5t66 20q7 0 14 -1q41 -5 70 -34t34 -70zM256 -64q-19 0 -26 18h52q-7 -18 -26 -18zM210 -18v27h92v-27q0 -9 -9 -9h-74q-9 0 -9 9zM256 366q-8 0 -13 5t-5 13v46
q0 7 5 12.5t13 5.5t13 -5.5t5 -12.5v-46q0 -8 -5 -13t-13 -5zM102 320l-33 33q-5 5 -5 12.5t5.5 13t13 5.5t12.5 -5l33 -33q5 -5 5 -12.5t-5.5 -13t-13 -5.5t-12.5 5zM82 192q0 -8 -5 -13t-13 -5h-46q-7 0 -12.5 5t-5.5 13t5.5 13t12.5 5h46q8 0 13 -5t5 -13zM119.5 68.5
q10.5 -2.5 13 -13t-4.5 -17.5l-33 -33q-13 -12 -26 0q-5 6 -5 13.5t5 12.5l33 33q7 7 17.5 4.5zM410 64l33 -33q5 -5 5 -12.5t-5 -13.5q-13 -12 -26 0l-33 33q-7 7 -4.5 17.5t13 13t17.5 -4.5zM494 210q7 0 12.5 -5t5.5 -13q0 -5 -2.5 -9t-6.5 -6.5t-9 -2.5h-46q-8 0 -13 5
t-5 13t5 13t13 5h46zM410 320q-13 -12 -26 0q-5 6 -5 13.5t5 12.5l33 33q7 7 17.5 4.5t13 -13t-4.5 -17.5z" />
  </g>

</svg>
