<?xml version="1.0" standalone="no"?>
<!DOCTYPE svg PUBLIC "-//W3C//DTD SVG 1.1//EN" "http://www.w3.org/Graphics/SVG/1.1/DTD/svg11.dtd" >
<svg xmlns="http://www.w3.org/2000/svg" xmlns:xlink="http://www.w3.org/1999/xlink" version="1.1" viewBox="-10 0 522 512">
  <g transform="matrix(1 0 0 -1 0 448)">
   <path fill="currentColor"
d="M485 446.5q8 -5.5 3 -13.5l-34 -51q17 -12 17 -25v-4q-5 -27 -62 -107q-1 -4 -5 -7q-35 -48 -86 -112q-9 -11 -23 -15v-108q108 -2 108 -34q0 -11 -14.5 -18.5t-37.5 -10.5t-38 -4t-27.5 -1t-27.5 1t-38 4t-37.5 10.5t-14.5 18.5q0 32 108 34v108q-14 3 -23 14
q-54 63 -93 114l-4 6q-13 18 -24 33q-13 -5 -27 -5q-34 0 -58.5 24.5t-24.5 58.5t24.5 58t58.5 24q42 0 67 -34q50 11 109 11q99 0 156 -25l35 53q5 8 13 2.5zM182 387v-1l2 -6l0.5 -0.5l0.5 -0.5q1 -4 1 -6v-2v-1q1 -4 1 -5q1 -4 1 -8q0 -5 -1 -11l-1 -3q0 -4 -2 -8v-1v-1
q43 -5 97 -5q71 0 119 9l25 38q-56 21 -144 21q-54 0 -99 -9zM398 265q27 37 41 61q-12 -4 -27 -7l-32 -48q11 -3 18 -6zM359 275l26 39q-46 -6 -104 -6q-59 0 -105 6l-7 1l-13 2v1q-7 1 -14 3q-11 2 -18 5l4 -8q1 0 1.5 -0.5t0.5 -1.5q2 -3 5 -7q1 -2 2 -3q2 -3 5 -8l1 -1
v-1h1q10 -15 23 -32q28 15 118 15q45 0 74 -4zM382 -30q-20 14 -87 15v-11q0 -10 -9.5 -10t-9.5 10v11q-67 -1 -87 -15q22 -14 96.5 -14t96.5 14zM452 357q0 4 -9 9l-15 -23q24 8 24 14z" />
  </g>

</svg>
