<?xml version="1.0" standalone="no"?>
<!DOCTYPE svg PUBLIC "-//W3C//DTD SVG 1.1//EN" "http://www.w3.org/Graphics/SVG/1.1/DTD/svg11.dtd" >
<svg xmlns="http://www.w3.org/2000/svg" xmlns:xlink="http://www.w3.org/1999/xlink" version="1.1" viewBox="-12 0 524 512">
  <g transform="matrix(1 0 0 -1 0 448)">
   <path fill="currentColor"
d="M279 435l59 -59l-83 -82l-58 58q-5 5 -5 12t5 12l58 59q5 4 12 4t12 -4zM279 435zM445 327q8 -4 9.5 -12.5t-4.5 -14.5l-119 -118q-6 -7 -14.5 -5.5t-12.5 9.5l-41 91l91 92zM417 303q1 3 0 6.5t-4 4.5l-65 30q-3 1 -6 0t-4.5 -4.5t-0.5 -6.5t4 -4l65 -30q1 -1 3 -1
q6 0 8 5zM417 303zM238 440l-47 -46q-9 9 -9 22.5t9.5 23t23 9.5t23.5 -9zM238 440zM296 409q-5 0 -7 5t2 9l11 12q4 3 8.5 2t6 -6t-2.5 -8l-12 -12q-2 -2 -6 -2zM296 409zM90 19h199q17 0 29 -12t12 -30v-8h-282v8q0 18 12 30t30 12zM90 19zM166 35h-56l-37 67q26 3 46 20z
M166 35zM224 302l-86 -77q-13 22 -36 34l86 78zM224 302zM65 251q18 0 33 -8.5t24 -24t9 -33.5q0 -28 -19.5 -47.5t-47 -19.5t-47 19.5t-19.5 47t19.5 47t47.5 19.5zM64 160q7 0 13 3.5t9 9t3 12.5q0 10 -7 17.5t-18 7.5q-6 0 -12 -3.5t-9.5 -9t-3.5 -12.5q0 -10 7.5 -17.5
t17.5 -7.5zM64 160zM73 185q0 -8 -8.5 -8t-8.5 8t8.5 8t8.5 -8zM73 185z" />
  </g>

</svg>
