<?xml version="1.0" standalone="no"?>
<!DOCTYPE svg PUBLIC "-//W3C//DTD SVG 1.1//EN" "http://www.w3.org/Graphics/SVG/1.1/DTD/svg11.dtd" >
<svg xmlns="http://www.w3.org/2000/svg" xmlns:xlink="http://www.w3.org/1999/xlink" version="1.1" viewBox="-10 0 533 512">
  <g transform="matrix(1 0 0 -1 0 448)">
   <path fill="currentColor"
d="M213 158q10 0 17.5 -4.5t12 -12.5t4.5 -17q0 -14 -10 -24t-24 -10t-24 10t-10 24t10 24t24 10zM213 107q7 0 12 5t5 12t-5 12t-12 5t-12 -5t-5 -12t5 -12t12 -5zM213 107zM57 326q23 12 27 20h-16q-10 0 -17.5 7.5t-7.5 17.5v68q0 9 8 9h324q9 0 9 -9v-68
q0 -10 -7.5 -17.5t-18.5 -7.5h-111v-17h18q7 0 12 -5t5 -13v-53l71 -24v0l113 -37q8 -2 13.5 -7.5t8 -13t2.5 -14.5q13 -8 19 -22t1 -29l-43 -130q-5 -15 -18 -23t-28 -6q-4 -6 -11 -10.5t-14 -5.5t-15 2l-251 82q-37 13 -54.5 47.5t-5.5 71.5l6 18q-76 30 -76 95
q0 21 11 37t20 22.5t26 14.5zM179 346h-43q-1 -12 -5.5 -21.5t-9.5 -15.5t-13.5 -12.5t-13.5 -9.5t-14 -7q-18 -9 -23.5 -14t-5.5 -14q0 -29 41 -47l5 15q12 38 48 55v36q0 8 5 13t12 5h17v17zM494 116q5 17 -9 28l-38 -114l-20 -61q18 0 24 18zM471 172.5q-3 6.5 -10 8.5
l-105 35l-75 -227l105 -35q7 -2 13.5 1t8.5 10l29 90l35 104q2 7 -1 13.5zM282 124q0 -29 -20 -49t-48.5 -20t-48.5 20t-20 49v132q-23 -15 -32 -41l-8 -23v-1l-19 -57q-10 -31 4.5 -59t44.5 -38l130 -43l74 227l-57 19v-116zM265 124v187h-103v-187q0 -14 7 -26t18.5 -18.5
t25.5 -6.5q22 0 37 15t15 36zM230 329v17h-34v-17h34zM60 371q0 -8 8 -8h290q9 0 9 8v60h-307v-60zM119 346h-17q-2 -9 -8 -16t-12 -10.5t-18 -8.5q-10 -6 -16 -9.5t-14.5 -10.5t-12.5 -17t-4 -22q0 -54 64 -79l5 16q-52 22 -52 63q0 11 6 20t12.5 13t19.5 10.5t20.5 11
t16 15t10.5 24.5zM119 346z" />
  </g>

</svg>
