<?xml version="1.0" standalone="no"?>
<!DOCTYPE svg PUBLIC "-//W3C//DTD SVG 1.1//EN" "http://www.w3.org/Graphics/SVG/1.1/DTD/svg11.dtd" >
<svg xmlns="http://www.w3.org/2000/svg" xmlns:xlink="http://www.w3.org/1999/xlink" version="1.1" viewBox="-11 0 523 512">
  <g transform="matrix(1 0 0 -1 0 448)">
   <path fill="currentColor"
d="M90 409h298l-40 -40h-218zM191 353h40v-32h-40v32zM247 353h40v-32h-40v32zM135 353h40v-32h-40v32zM191 305v-32h40v32h-40zM191 353v-32h40v32h-40zM247 353v-32h40v32h-40zM135 353h40v-32h-40v32zM90 409l40 -40h218l40 40h-298zM191 353h40v-32h-40v32zM247 353h40
v-32h-40v32zM135 353v-32h40v32h-40zM359 358v-138l40 -40v218zM303 305h40v-32h-40v32zM247 273v32h40v-32h-40zM191 353v-32h40v32h-40zM303 353v-32h40v32h-40zM247 321h40v32h-40v-32zM135 353h40v-32h-40v32zM303 257h40v-32h-40v32zM90 409h298l-40 -40h-218zM90 409
l40 -40h218l40 40h-298zM348 209l40 -40h-298l40 40h218zM359 358l40 40v-218l-40 40v138zM191 257v-32h40v32h-40zM303 257v-32h40v32h-40zM247 225h40v32h-40v-32zM135 257h40v-32h-40v32zM191 305h40v-32h-40v32zM303 305v-32h40v32h-40zM247 273h40v32h-40v-32zM191 353
h40v-32h-40v32zM303 353h40v-32h-40v32zM247 321v32h40v-32h-40zM135 305h40v-32h-40v32zM135 353v-32h40v32h-40zM90 409h298l-40 -40h-218zM79 398l40 -40v-138l-40 -40v218zM348 209h-218l-40 -40h298zM359 358l40 40v-218l-40 40v138zM191 257h40v-32h-40v32zM303 257
h40v-32h-40v32zM247 225v32h40v-32h-40zM135 257v-32h40v32h-40zM191 305h40v-32h-40v32zM303 305h40v-32h-40v32zM247 273v32h40v-32h-40zM191 353v-32h40v32h-40zM303 353v-32h40v32h-40zM247 321h40v32h-40v-32zM135 305h40v-32h-40v32zM135 353h40v-32h-40v32zM90 409
l40 -40h218l40 40h-298zM79 398l40 -40v-138l-40 -40v218zM359 358v-138l40 -40v218zM191 257v-32h40v32h-40zM303 257v-32h40v32h-40zM247 225h40v32h-40v-32zM135 257h40v-32h-40v32zM191 305v-32h40v32h-40zM303 305v-32h40v32h-40zM247 273h40v32h-40v-32zM191 353h40
v-32h-40v32zM303 353h40v-32h-40v32zM247 321v32h40v-32h-40zM135 305v-32h40v32h-40zM135 353v-32h40v32h-40zM348 209l40 -40h-298l40 40h218zM90 409h298l-40 -40h-218zM79 398v-218l40 40v138zM359 358l40 40v-218l-40 40v138zM191 257h40v-32h-40v32zM303 257h40v-32
h-40v32zM247 225v32h40v-32h-40zM135 257v-32h40v32h-40zM191 305h40v-32h-40v32zM303 305h40v-32h-40v32zM247 273v32h40v-32h-40zM191 353v-32h40v32h-40zM303 353v-32h40v32h-40zM247 321h40v32h-40v-32zM135 305h40v-32h-40v32zM135 353h40v-32h-40v32zM348 209h-218
l-40 -40h298zM90 409l40 -40h218l40 40h-298zM79 398l40 -40v-138l-40 -40v218zM359 358v-138l40 -40v218zM191 305v-32h40v32h-40zM303 305v-32h40v32h-40zM247 273h40v32h-40v-32zM191 353h40v-32h-40v32zM303 353h40v-32h-40v32zM247 321v32h40v-32h-40zM191 257v-32h40
v32h-40zM303 257v-32h40v32h-40zM247 225h40v32h-40v-32zM135 257h40v-32h-40v32zM135 305v-32h40v32h-40zM135 353v-32h40v32h-40zM348 209l40 -40h-298l40 40h218zM90 409h298l-40 -40h-218zM79 398v-218l40 40v138zM359 358l40 40v-218l-40 40v138zM191 305h40v-32h-40
v32zM303 305h40v-32h-40v32zM247 273v32h40v-32h-40zM191 353v-32h40v32h-40zM303 353v-32h40v32h-40zM247 321h40v32h-40v-32zM191 257h40v-32h-40v32zM303 257h40v-32h-40v32zM247 225v32h40v-32h-40zM135 257v-32h40v32h-40zM135 305h40v-32h-40v32zM135 353h40v-32h-40
v32zM348 209h-218l-40 -40h298zM90 409l40 -40h218l40 40h-298zM79 398l40 -40v-138l-40 -40v218zM359 358v-138l40 -40v218zM191 353h40v-32h-40v32zM303 353h40v-32h-40v32zM247 321v32h40v-32h-40zM191 305v-32h40v32h-40zM303 305v-32h40v32h-40zM247 273h40v32h-40v-32
zM191 257v-32h40v32h-40zM303 257v-32h40v32h-40zM247 225h40v32h-40v-32zM135 305v-32h40v32h-40zM135 353v-32h40v32h-40zM135 257h40v-32h-40v32zM348 209l40 -40h-298l40 40h218zM90 409h298l-40 -40h-218zM79 398v-218l40 40v138zM359 358l40 40v-218l-40 40v138z
M191 353v-32h40v32h-40zM303 353v-32h40v32h-40zM247 321h40v32h-40v-32zM191 305h40v-32h-40v32zM303 305h40v-32h-40v32zM247 273v32h40v-32h-40zM191 257h40v-32h-40v32zM303 257h40v-32h-40v32zM247 225v32h40v-32h-40zM135 305h40v-32h-40v32zM135 353h40v-32h-40v32z
M135 257v-32h40v32h-40zM348 209h-218l-40 -40h298zM90 409l40 -40h218l40 40h-298zM79 398l40 -40v-138l-40 -40v218zM359 358v-138l40 -40v218zM343 353v-32h-40v32h40zM343 305h-40v-32h40v32zM303 225h40v32h-40v-32zM247 225h40v32h-40v-32zM287 305h-40v-32h40v32z
M287 353v-32h-40v32h40zM231 353v-32h-40v32h40zM231 305h-40v-32h40v32zM191 225h40v32h-40v-32zM175 353h-40v-32h40v32zM175 305h-40v-32h40v32zM135 225v32h40v-32h-40zM130 209h218l40 -40h-298zM348 369h-218l-40 40h298zM119 358l-40 40v-218l40 40v138zM359 220v138
l40 40v-218zM343 353h-40v-32h40v32zM343 305v-32h-40v32h40zM303 225v32h40v-32h-40zM247 225v32h40v-32h-40zM287 305v-32h-40v32h40zM287 353h-40v-32h40v32zM231 353h-40v-32h40v32zM231 305v-32h-40v32h40zM191 225v32h40v-32h-40zM175 353v-32h-40v32h40zM175 305v-32
h-40v32h40zM135 225h40v32h-40v-32zM130 209l-40 -40h298l-40 40h-218zM348 369l40 40h-298l40 -40h218zM119 358v-138l-40 -40v218zM407 449q13 0 22.5 -9.5t9.5 -22.5v-256q0 -13 -9.5 -22.5t-22.5 -9.5h-336q-13 0 -22.5 9.5t-9.5 22.5v256q0 13 9.5 22.5t22.5 9.5h336z
M415 169v240q0 6 -3 10q-1 2 -3 2v1q-4 3 -10 3h-320q-6 0 -10 -3v-1q-1 0 -2 -2q-4 -4 -4 -10v-240q0 -5 3 -10h1l2 -2v-1q5 -3 10 -3h320q6 0 10 3v1q2 1 3 2v0q3 5 3 10zM79 398v-218l40 40v138zM90 409h298l-40 -40h-218zM348 209h-218l-40 -40h298zM135 257h40v-32h-40
v32zM135 305v-32h40v32h-40zM135 353v-32h40v32h-40zM191 353h40v-32h-40v32zM191 305v-32h40v32h-40zM191 257v-32h40v32h-40zM303 257v-32h40v32h-40zM247 225h40v32h-40v-32zM303 305v-32h40v32h-40zM247 273h40v32h-40v-32zM303 353h40v-32h-40v32zM247 321v32h40v-32
h-40zM359 358v-138l40 -40v218zM79 398l40 -40v-138l-40 -40v218zM90 409l40 -40h218l40 40h-298zM348 209l40 -40h-298l40 40h218zM135 257v-32h40v32h-40zM135 305h40v-32h-40v32zM135 353h40v-32h-40v32zM191 353v-32h40v32h-40zM191 305h40v-32h-40v32zM191 257h40v-32
h-40v32zM303 257h40v-32h-40v32zM247 225v32h40v-32h-40zM303 305h40v-32h-40v32zM247 273v32h40v-32h-40zM303 353v-32h40v32h-40zM247 321h40v32h-40v-32zM359 358l40 40v-218l-40 40v138zM79 398v-218l40 40v138zM90 409h298l-40 -40h-218zM348 209h-218l-40 -40h298z
M135 257h40v-32h-40v32zM135 305v-32h40v32h-40zM135 353v-32h40v32h-40zM191 257v-32h40v32h-40zM303 257v-32h40v32h-40zM247 225h40v32h-40v-32zM191 353h40v-32h-40v32zM303 353h40v-32h-40v32zM247 321v32h40v-32h-40zM191 305v-32h40v32h-40zM303 305v-32h40v32h-40z
M247 273h40v32h-40v-32zM359 358v-138l40 -40v218zM79 398l40 -40v-138l-40 -40v218zM90 409l40 -40h218l40 40h-298zM348 209l40 -40h-298l40 40h218zM135 257v-32h40v32h-40zM135 305h40v-32h-40v32zM135 353h40v-32h-40v32zM191 257h40v-32h-40v32zM303 257h40v-32h-40
v32zM247 225v32h40v-32h-40zM191 353v-32h40v32h-40zM303 353v-32h40v32h-40zM247 321h40v32h-40v-32zM191 305h40v-32h-40v32zM303 305h40v-32h-40v32zM247 273v32h40v-32h-40zM359 358l40 40v-218l-40 40v138zM79 398v-218l40 40v138zM90 409h298l-40 -40h-218zM348 209
h-218l-40 -40h298zM191 257v-32h40v32h-40zM303 257v-32h40v32h-40zM247 225h40v32h-40v-32zM135 257h40v-32h-40v32zM191 305v-32h40v32h-40zM303 305v-32h40v32h-40zM247 273h40v32h-40v-32zM191 353h40v-32h-40v32zM303 353h40v-32h-40v32zM247 321v32h40v-32h-40z
M135 305v-32h40v32h-40zM135 353v-32h40v32h-40zM359 358v-138l40 -40v218zM79 398l40 -40v-138l-40 -40v218zM90 409l40 -40h218l40 40h-298zM348 209l40 -40h-298l40 40h218zM191 257h40v-32h-40v32zM303 257h40v-32h-40v32zM247 225v32h40v-32h-40zM135 257v-32h40v32
h-40zM191 305h40v-32h-40v32zM303 305h40v-32h-40v32zM247 273v32h40v-32h-40zM191 353v-32h40v32h-40zM303 353v-32h40v32h-40zM247 321h40v32h-40v-32zM135 305h40v-32h-40v32zM135 353h40v-32h-40v32zM359 358l40 40v-218l-40 40v138zM79 398v-218l40 40v138zM90 409h298
l-40 -40h-218zM348 209h-218l-40 -40h298zM359 358v-138l40 -40v218zM191 257v-32h40v32h-40zM303 257v-32h40v32h-40zM247 225h40v32h-40v-32zM135 257h40v-32h-40v32zM191 305v-32h40v32h-40zM303 305v-32h40v32h-40zM247 273h40v32h-40v-32zM191 353h40v-32h-40v32z
M303 353h40v-32h-40v32zM247 321v32h40v-32h-40zM135 305v-32h40v32h-40zM135 353v-32h40v32h-40zM79 398l40 -40v-138l-40 -40v218zM90 409l40 -40h218l40 40h-298zM348 209l40 -40h-298l40 40h218zM359 358l40 40v-218l-40 40v138zM191 257h40v-32h-40v32zM303 257h40v-32
h-40v32zM247 225v32h40v-32h-40zM135 257v-32h40v32h-40zM191 305h40v-32h-40v32zM303 305h40v-32h-40v32zM247 273v32h40v-32h-40zM191 353v-32h40v32h-40zM303 353v-32h40v32h-40zM247 321h40v32h-40v-32zM135 305h40v-32h-40v32zM135 353h40v-32h-40v32zM90 409h298
l-40 -40h-218zM348 209h-218l-40 -40h298zM359 358v-138l40 -40v218zM191 257v-32h40v32h-40zM303 257v-32h40v32h-40zM247 225h40v32h-40v-32zM135 257h40v-32h-40v32zM191 305v-32h40v32h-40zM303 305v-32h40v32h-40zM247 273h40v32h-40v-32zM191 353h40v-32h-40v32z
M303 353h40v-32h-40v32zM247 321v32h40v-32h-40zM135 305v-32h40v32h-40zM135 353v-32h40v32h-40zM79 398v-218l40 40v138zM90 409l40 -40h218l40 40h-298zM348 209l40 -40h-298l40 40h218zM359 358l40 40v-218l-40 40v138zM191 257h40v-32h-40v32zM303 257h40v-32h-40v32z
M247 225v32h40v-32h-40zM135 257v-32h40v32h-40zM191 305h40v-32h-40v32zM303 305h40v-32h-40v32zM247 273v32h40v-32h-40zM191 353v-32h40v32h-40zM303 353v-32h40v32h-40zM247 321h40v32h-40v-32zM135 353h40v-32h-40v32zM90 409h298l-40 -40h-218zM90 409l40 -40h218
l40 40h-298zM191 353h40v-32h-40v32zM247 353h40v-32h-40v32zM135 353v-32h40v32h-40zM303 353h40v-32h-40v32zM303 353zM-1 313q0 10 7 17t17 7v-96q-7 0 -12.5 3t-8.5 9t-3 12v48zM-1 313zM455 337q10 0 17 -7t7 -17v-48q0 -10 -7 -17t-17 -7v96zM455 337zM69 421
q-1 0 -2 -2q0 1 0.5 1.5t1.5 0.5zM69 421zM412 419q-1 2 -3 2q1 0 1.5 -0.5zM412 419zM412 159l-1 -1l-2 -1q2 1 3 2zM412 159zM69 157l-1 1q-1 0 -1 1zM69 157zM479 281v-256q0 -20 -14 -34t-34 -14h-384q-20 0 -34 14t-14 34v248q0 8 8 8t8 -8v-248q0 -13 9.5 -22.5
t22.5 -9.5h384q13 0 22.5 9.5t9.5 22.5v256q0 8 8 8t8 -8zM479 281zM463 45v-20q0 -9 -4 -16.5t-11.5 -11.5t-16.5 -4h-384q-7 0 -12.5 2.5t-10 7t-7 10t-2.5 12.5v20q14 -12 32 -12h384q19 0 32 12zM463 45zM479 81q0 -20 -14 -34t-34 -14h-384q-20 0 -34 14t-14 34
q0 8 8 8t8 -8q0 -13 9.5 -22.5t22.5 -9.5h384q13 0 22.5 9.5t9.5 22.5q0 8 8 8t8 -8zM479 81z" />
  </g>

</svg>
