<?xml version="1.0" standalone="no"?>
<!DOCTYPE svg PUBLIC "-//W3C//DTD SVG 1.1//EN" "http://www.w3.org/Graphics/SVG/1.1/DTD/svg11.dtd" >
<svg xmlns="http://www.w3.org/2000/svg" xmlns:xlink="http://www.w3.org/1999/xlink" version="1.1" viewBox="-10 0 522 512">
  <g transform="matrix(1 0 0 -1 0 448)">
   <path fill="currentColor"
d="M146 114q27 -32 56 -31.5t54 31.5v-32q0 -2 -0.5 -4.5t-3.5 -8.5t-8 -11t-16.5 -8.5t-26.5 -3.5t-26 3.5t-16 8t-8.5 10.5t-4 9t-0.5 5v32zM338 119v13q19 -13 25.5 -34.5t-2.5 -42.5l-87 34v52q9 16 16 33h30v-55q0 -9 9 -9t9 9zM275 186q-8 -20 -18 -39
q-25 -43 -51.5 -46t-53.5 36h15q5 -9 16 -9h36q5 0 9.5 2.5t7 6.5t2.5 9v19q0 7 -5.5 12.5t-13.5 5.5h-36q-8 0 -13 -5.5t-5 -12.5v-10h-24q-8 16 -14 31q-7 15 -8 31v55q-1 0 4.5 3.5t15 9.5t20.5 12.5t22.5 14.5t19.5 14q29 -21 60 -40q18 -10 20 -12t2 -3q0 -10 0.5 -23
t0.5 -17t-0.5 -11.5t-0.5 -9t-1.5 -6.5t-2.5 -7.5t-4 -10.5zM190 341q-10 -8 -25 -18t-27 -17t-21.5 -13.5t-11.5 -9.5h-23v19q0 45 32.5 77t77.5 32h18q46 0 78 -32t32 -77v-19h-22q-3 4 -18 13t-35.5 22t-32.5 23q-11 9 -22 0zM183 165h36v-19h-36v19zM73 192q-9 0 -9 9
v55q0 9 9 9h28q0 -9 -0.5 -19t0 -14.5t0 -10t0 -8t0.5 -5.5t1 -5.5t1.5 -4.5t2.5 -6h-33zM297 192q1 5 2 7t1.5 6t1 5.5t0.5 8v10.5v15.5v20.5h27q9 0 9 -9v-55q0 -9 -9 -9h-32zM82 174h30q4 -9 9 -19h-20q-8 0 -13.5 5.5t-5.5 13.5zM192 430q-64 0 -102 -52q17 45 64 62.5
t94 0t65 -62.5q-39 52 -103 52h-18zM402 -27l1 -37h-403v36q1 21 7 35t10 17t6 4l107 42q13 -43 71 -43t71 43q5 -2 51 -20t57 -22q2 -1 5.5 -3.5t9.5 -17t7 -34.5zM128 89l-86 -34q-9 21 -3 42.5t25 34.5v-13q0 -9 9 -9t9 9v23q4 -2 6.5 -3t7.5 -1.5t7.5 -0.5h11h13.5v-48z
" />
  </g>

</svg>
