<?xml version="1.0" standalone="no"?>
<!DOCTYPE svg PUBLIC "-//W3C//DTD SVG 1.1//EN" "http://www.w3.org/Graphics/SVG/1.1/DTD/svg11.dtd" >
<svg xmlns="http://www.w3.org/2000/svg" xmlns:xlink="http://www.w3.org/1999/xlink" version="1.1" viewBox="-11 0 533 512">
  <g transform="matrix(1 0 0 -1 0 448)">
   <path fill="currentColor"
d="M308 -19q2 0 5.5 -2.5t9.5 -14t8 -28.5h-331v67l40 12q19 -34 76.5 -34t77.5 34zM117 349h11t23.5 -3t30.5 -7.5t27 -14t17 -23.5q12 -33 5 -69q-5 0 -9 -1q-9 40 -29 52q-28 18 -131 11q-13 -1 -22 -10q-21 -23 -28 -53q-4 1 -9 1q-9 46 7 68q8 12 22 13q9 1 14 10
q13 26 71 26zM131 26q9 0 17 4t11.5 7.5t10.5 14t10 13.5v-38q-7 -18 -35 -25t-56 0t-35 25v38q3 -5 8 -12q4 -6 7.5 -10t6 -7t7 -5t6.5 -3t8.5 -1.5t8.5 -0.5h11.5h13.5zM224 212q4 3 9 2q1 -15 -3 -29q-5 -9 -12 -16q4 21 6 43zM4 185q-5 14 -4 29q6 1 10 -2q2 -22 6 -43
q-8 7 -12 16zM206 217q-1 -17 -4 -33q-5 -19 -3 -39v-18t-4.5 -17t-13.5 -18q-14 -13 -25 -29q-2 -4 -4 -6.5t-4.5 -5l-3.5 -3.5t-4 -2t-4 -1.5t-5.5 -1t-7 0t-9 0.5h-11.5q-10 0 -16 6t-15 19.5t-19 22.5q-6 5 -9.5 10.5t-5.5 9t-3 11t-1 10t0.5 12.5t0.5 13q0 10 -3.5 27
t-3.5 32q7 37 24 54q5 5 11 5q91 6 121 -8q16 -13 22 -51zM493 448q8 0 13.5 -5.5t5.5 -13.5v-169q0 -8 -5.5 -13.5t-13.5 -5.5h-111l-69 -52q-2 -2 -5 -1t-3 4v49h-8q-5 0 -9.5 2.5t-7 7t-2.5 9.5v169q0 8 5.5 13.5t13.5 5.5h196zM368 286q9 0 9 9t-9 9h-45q-9 0 -9 -9
t9 -9h45zM467 322q9 0 9 9t-9 9h-144q-9 0 -9 -9t9 -9h144zM467 358q9 0 9 9t-9 9h-144q-9 0 -9 -9t9 -9h144zM467 394q9 0 9 9t-9 9h-144q-9 0 -9 -9t9 -9h144z" />
  </g>

</svg>
