<?xml version="1.0" standalone="no"?>
<!DOCTYPE svg PUBLIC "-//W3C//DTD SVG 1.1//EN" "http://www.w3.org/Graphics/SVG/1.1/DTD/svg11.dtd" >
<svg xmlns="http://www.w3.org/2000/svg" xmlns:xlink="http://www.w3.org/1999/xlink" version="1.1" viewBox="-10 0 532 512">
  <g transform="matrix(1 0 0 -1 0 448)">
   <path fill="currentColor"
d="M304 83q0 7 5 12.5t12 5.5t12 -5.5t5 -12.5t-5 -12t-12 -5q-5 0 -9 2.5t-6 6.5t-2 8zM364 22.5q0 7.5 5.5 12.5t12.5 5q5 0 9 -2.5t6 -6.5t2 -8q0 -8 -5 -13t-12 -5t-12.5 5t-5.5 12.5zM364 144q0 7 5.5 12t12.5 5q5 0 9 -2t6 -6t2 -9q0 -7 -5 -12t-12 -5t-12.5 5
t-5.5 12zM156 109q0 -8 9 -8h26v-35h-26q-9 0 -9 -9v-26h-35v26q0 9 -8 9h-26v35h26q8 0 8 8v26h35v-26zM384 213q53 0 90.5 -38t37.5 -91q0 -57 -34 -93.5t-77 -36.5h-1q-39 0 -82 11q-61 17 -122 0q-44 -11 -82 -11h-2q-48 0 -80 40t-32 90q0 53 38 91t92 38h122v100
q0 20 14 34t33.5 14t33.5 -14t14 -34v-30q0 -11 7.5 -18.5t18.5 -7.5t18.5 7.5t7.5 18.5v139q0 8 9 8t9 -8v-139q0 -18 -13 -31t-31 -13t-30.5 13t-12.5 31v30q0 13 -9 22t-21.5 9t-21.5 -9t-9 -22v-100h115zM381.5 179q-14.5 0 -24.5 -10.5t-10 -24.5t10 -24.5t24.5 -10.5
t25 10.5t10.5 24.5t-10.5 24.5t-25 10.5zM208 57v52q0 9 -8 9h-26v26q0 9 -9 9h-52q-9 0 -9 -9v-26h-26q-9 0 -9 -9v-52q0 -8 9 -8h26v-26q0 -9 9 -9h52q9 0 9 9v26h26q8 0 8 8zM243 161h40q9 0 9 9t-9 9h-40q-9 0 -9 -9t9 -9zM321 49q14 0 24.5 10t10.5 24.5t-10.5 24.5
t-24.5 10t-24.5 -10t-10.5 -24.5t10.5 -24.5t24.5 -10zM381.5 -12q14.5 0 25 10t10.5 24.5t-10.5 24.5t-25 10t-24.5 -10t-10 -24.5t10 -24.5t24.5 -10zM442.5 49q14.5 0 24.5 10t10 24.5t-10 24.5t-24.5 10t-24.5 -10t-10 -24.5t10 -24.5t24.5 -10zM425 83q0 5 2.5 9
t6.5 6.5t9 2.5q7 0 12 -5.5t5 -12.5t-5 -12t-12.5 -5t-12.5 5t-5 12z" />
  </g>

</svg>
