<?xml version="1.0" standalone="no"?>
<!DOCTYPE svg PUBLIC "-//W3C//DTD SVG 1.1//EN" "http://www.w3.org/Graphics/SVG/1.1/DTD/svg11.dtd" >
<svg xmlns="http://www.w3.org/2000/svg" xmlns:xlink="http://www.w3.org/1999/xlink" version="1.1" viewBox="-11 0 523 512">
  <g transform="matrix(1 0 0 -1 0 448)">
   <path fill="currentColor"
d="M-1 449h25q10 0 17.5 -7t7.5 -18v-149q0 -10 -7.5 -17.5t-17.5 -7.5h-25v199zM-1 449zM65 399h9q10 0 17 -7t7 -17v-50q0 -7 -3 -12.5t-9 -9t-12 -3.5h-9v99zM65 399zM256 349.5q0 -8.5 3 -16.5h-144v33h144q-3 -8 -3 -16.5zM256 350zM337 38q-13 -13 -32 -11
q-18 -2 -31 11q-14 16 -9 54q7 47 20 92h12v-87l-14 -14q-4 -4 -2.5 -8.5t6 -6t8.5 2.5l10 11l11 -11q6 -6 12 0t0 12l-14 14v87h12q12 -45 19 -92q6 -38 -8 -54zM337 38zM461 -31h-312q-9 0 -14.5 7.5t-1.5 16.5l105 191h30q-12 -44 -18.5 -89.5t11.5 -66.5q18 -19 44 -18
q26 -1 44 18q19 21 12.5 66.5t-18.5 89.5h29l105 -191q4 -9 -1 -16.5t-15 -7.5zM461 -31zM264 234h83q6 0 11 -5t5 -12v-16h-116v16q0 7 5 12t12 5zM264 234zM337 292h-64q2 5 5 9.5t7 8t9.5 5.5t11 2t10.5 -2t9.5 -5.5t7.5 -8t4 -9.5zM337 292zM272 275h66v-25h-66v25z
M272 275zM338 350q0 -14 -9.5 -23.5t-23 -9.5t-23.5 9.5t-10 23t10 23.5t23 10q9 0 17 -4.5t12 -12t4 -16.5zM338 350z" />
  </g>

</svg>
