<?xml version="1.0" standalone="no"?>
<!DOCTYPE svg PUBLIC "-//W3C//DTD SVG 1.1//EN" "http://www.w3.org/Graphics/SVG/1.1/DTD/svg11.dtd" >
<svg xmlns="http://www.w3.org/2000/svg" xmlns:xlink="http://www.w3.org/1999/xlink" version="1.1" viewBox="-10 0 522 512">
  <g transform="matrix(1 0 0 -1 0 448)">
   <path fill="currentColor"
d="M155 251q10 0 17 -7.5t7 -17.5q0 -4 -1 -7.5t-3.5 -6.5t-5.5 -5t-6.5 -3.5t-7.5 -1.5q-7 0 -12.5 3.5t-9 9t-3.5 11.5q0 10 7.5 17.5t17.5 7.5zM155 216q4 0 7 3t3 7q0 3 -1 5.5t-3.5 4t-5.5 1.5q-5 0 -8 -3t-3 -8q0 -2 1.5 -4.5t4 -4t5.5 -1.5zM265 286q-8 10 -12 22
l-55 -51q9 -14 9 -31q0 -25 -19 -41l74 -120h40v13q0 7 7 7t7 -7v-13h21q25 0 43 -18t18 -44q0 -7 -7 -7h-266q-7 0 -7 7q0 26 18 44t44 18h66l-70 113q-10 -4 -21 -4q-22 0 -37.5 15.5t-15.5 37t15.5 37t37.5 15.5q19 0 33 -12l62 57q0 27 18 46q18 17 41.5 18t42.5 -15
l55 -47q3 -2 3 -5t-2 -5l-86 -86q-2 -2 -5 -2t-5 3zM384 10q-3 17 -16 29t-31 12h-157q-12 0 -22.5 -5.5t-17 -15t-8.5 -20.5h252zM155 187q16 0 27.5 11.5t11.5 28t-11.5 27.5t-27.5 11t-27.5 -11t-11.5 -27.5t11.5 -28t27.5 -11.5zM278 360q-13 -13 -14 -31.5t11 -33.5
l43 -50l75 75l-50 43q-14 11 -31 11q-20 0 -34 -14zM288 339q-2 0 -4 2q-5 4 -1 9q11 15 30 15q7 0 7 -7t-7 -7q-12 0 -19 -9q-2 -3 -6 -3z" />
  </g>

</svg>
