<?xml version="1.0" standalone="no"?>
<!DOCTYPE svg PUBLIC "-//W3C//DTD SVG 1.1//EN" "http://www.w3.org/Graphics/SVG/1.1/DTD/svg11.dtd" >
<svg xmlns="http://www.w3.org/2000/svg" xmlns:xlink="http://www.w3.org/1999/xlink" version="1.1" viewBox="-10 0 522 512">
  <g transform="matrix(1 0 0 -1 0 448)">
   <path fill="currentColor"
d="M291 147l36 -143q2 -5 2 -11q0 -18 -13 -30.5t-31 -12.5h-58q-18 0 -31 12.5t-13 30.5q0 6 2 11l36 143h70zM221 159l-14 44h98l-14 -44h-70zM264 373.5q0 -7.5 -8 -7.5t-8 7.5t8 7.5t8 -7.5zM248 234q-21 1 -36.5 16t-15.5 36v7q0 6 6 6h7q10 -1 22.5 -7.5t18.5 -14.5
v37q-14 3 -18 17q-3 -1 -6 -1q-11 0 -18.5 7.5t-7.5 18.5q0 10 7 17q-7 8 -7 18q0 7 3.5 13t9.5 9.5t13 3.5q3 0 6 -1q2 7 9 12.5t15 5.5t15 -5.5t9 -12.5q3 1 6 1q11 0 18.5 -7.5t7.5 -18.5q0 -10 -7 -18q7 -7 7 -17q0 -11 -7.5 -18.5t-18.5 -7.5q-3 0 -6 1q-4 -14 -18 -17
v-12q6 9 18.5 15.5t22.5 6.5l7 1q6 0 6 -6v-1v-7q0 -10 -4.5 -19.5t-11.5 -16.5t-16 -11t-20 -4h-2v-51h-12v25h-2zM236 373.5q0 -8.5 6 -14t14 -5.5t14 5.5t6 14t-6 14t-14 5.5t-14 -5.5t-6 -14z" />
  </g>

</svg>
