<?xml version="1.0" standalone="no"?>
<!DOCTYPE svg PUBLIC "-//W3C//DTD SVG 1.1//EN" "http://www.w3.org/Graphics/SVG/1.1/DTD/svg11.dtd" >
<svg xmlns="http://www.w3.org/2000/svg" xmlns:xlink="http://www.w3.org/1999/xlink" version="1.1" viewBox="-10 0 532 512">
  <g transform="matrix(1 0 0 -1 0 448)">
   <path fill="currentColor"
d="M47 243q-3 0 -4 -2v11v1.5v1.5q1 -3 4 -3q4 0 4 4t-4 4q-3 0 -4 -3q0 8 1 13q1 -1 3 -1q4 0 4 4t-4 4h-2q1 5 2 9q4 0 4 4q0 3 -2 4q3 10 6 18v-1q5 0 5 5q0 2 -2 3l1 1.5t1 2.5q1 -3 4 -3q4 0 4 4.5t-4 4.5l-0.5 -0.5l-0.5 -0.5q21 36 57 57l-0.5 -0.5l-0.5 -0.5
q0 -4 4.5 -4t4.5 4q0 3 -3 4q1 0 2.5 1l1.5 1q1 -2 3 -2q5 0 5 5h-1q8 3 18 6q1 -2 4 -2q4 0 4 4q4 1 9 2v-2q0 -4 4 -4t4 4q0 2 -1 3q5 1 13 1q-3 -1 -3 -4q0 -4 4 -4t4 4q0 3 -3 4h1.5h1.5h11q-2 -1 -2 -4q0 -4 4 -4t4 4q0 2 -2 4q4 -1 11 -2v-2q0 -4 4 -4t4 4l10 -2
q1 -2 3 -2h2l4 -1q-2 -2 -2 -3q0 -5 4.5 -5t4.5 5q8 -3 17 -9q0 -4 4 -4q2 0 3 1l1 -1l2 -2q-1 -1 -1 -3q0 -4 4 -4q2 0 4 2l1 -1t2 -1q-3 -1 -3 -4q0 -4 4 -4t4 3q3 -3 4 -3q-3 -1 -3 -5t4 -4t4 4l4 -4q-4 -1 -4 -4q0 -4 4 -4q3 0 4 2q1 0 2 -1.5l1 -1.5q-2 -1 -2 -4
q0 -4 4 -4q2 0 3 1l1 -1t1 -2q-1 -1 -1 -2q0 -4 5 -4q6 -10 9 -18h-1q-4 0 -4 -4t4 -4q2 0 3 2q4 -10 6 -19q-5 0 -5 -4.5t5 -4.5q1 0 1 1q2 -8 2 -11q-1 2 -3 2q-5 0 -5 -4.5t5 -4.5q2 0 3 3q1 -8 1 -11v-2v-2q-1 4 -4 4q-5 0 -5 -4.5t5 -4.5q3 0 4 3q-1 -7 -1 -13
q-2 2 -3 2q-5 0 -5 -4.5t5 -4.5q1 0 2 1q-1 -6 -2 -9q-5 0 -5 -5q0 -2 3 -4q-3 -10 -6 -17h-1q-4 0 -4 -4q0 -2 1 -3q0 -1 -0.5 -2t-1.5 -2q-1 2 -3 2q-5 0 -5 -4t5 -4v0q-11 -19 -27 -34q-2 -1 -3 -3q-12 -11 -26 -19v0q0 5 -4 5t-4 -5q0 -2 2 -3q-1 -1 -2 -1.5t-2 -0.5
q-1 1 -3 1q-4 0 -4 -4v-1q-16 -7 -35 -10q1 1 1 2q0 5 -4.5 5t-4.5 -5q0 -1 2 -3q-6 0 -13 -1q3 1 3 4q0 5 -4.5 5t-4.5 -5q0 -3 4 -4h-2h-2q-3 0 -11 1q3 1 3 3q0 5 -4.5 5t-4.5 -5q0 -2 2 -3q-3 0 -11 2q1 0 1 1q0 5 -4.5 5t-4.5 -5q-9 2 -19 6q2 1 2 3q0 4 -4 4t-4 -4v-1
l-18 9q0 5 -4 5q-1 0 -2 -1q-1 0 -1 1l-2 1q1 1 1 3q0 4 -4 4q-3 0 -4 -2l-1.5 1t-1.5 2q2 1 2 4q0 4 -4 4q-3 0 -4 -4l-4 4q4 0 4 4t-4 4t-5 -3q0 1 -3 4q3 0 3 4t-4 4q-3 0 -4 -3q0 1 -1 2l-1 1q2 2 2 4q0 4 -4 4q-2 0 -3 -1q-1 1 -1.5 2t-1.5 1q1 1 1 3q0 4 -4 4
q-6 9 -9 17v0q5 0 5 4.5t-5 4.5q-1 0 -3 -2q-3 10 -5 19q4 0 4 4t-4 4h-2q-1 7 -2 11q2 -2 4 -2q4 0 4 4t-4 4zM55.5 235q-4.5 0 -4.5 -4.5t4.5 -4.5t4.5 4.5t-4.5 4.5zM72.5 201q-4.5 0 -4.5 -4.5t4.5 -4.5t4.5 4.5t-4.5 4.5zM64 201q4 0 4 4t-4 4t-4 -4t4 -4zM64 277
q-4 0 -4 -4t4 -4t4 4t-4 4zM60 290q0 -4 4 -4t4 4t-4 4t-4 -4zM64 260q-4 0 -4 -4t4 -4t4 4t-4 4zM64 243q-4 0 -4 -4t4 -4t4 4t-4 4zM64 226q-4 0 -4 -4t4 -4t4 4t-4 4zM55.5 209q4.5 0 4.5 4.5t-4.5 4.5t-4.5 -4.5t4.5 -4.5zM64 183q4 0 4 4.5t-4 4.5t-4 -4.5t4 -4.5z
M72.5 175q4.5 0 4.5 4t-4.5 4t-4.5 -4t4.5 -4zM81 166q4 0 4 4.5t-4 4.5t-4 -4.5t4 -4.5zM77 324.5q0 -4.5 4 -4.5t4 4.5t-4 4.5t-4 -4.5zM89.5 158q4.5 0 4.5 4t-4.5 4t-4.5 -4t4.5 -4zM85 333q0 -4 4.5 -4t4.5 4t-4.5 4t-4.5 -4zM98 149q4 0 4 4.5t-4 4.5t-4 -4.5t4 -4.5z
M94 341.5q0 -4.5 4 -4.5t4 4.5t-4 4.5t-4 -4.5zM106.5 141q4.5 0 4.5 4t-4.5 4t-4.5 -4t4.5 -4zM102 350q0 -4 4.5 -4t4.5 4t-4.5 4t-4.5 -4zM115 132q4 0 4 4.5t-4 4.5t-4 -4.5t4 -4.5zM111 358.5q0 -4.5 4 -4.5t4 4.5t-4 4.5t-4 -4.5zM123.5 124q4.5 0 4.5 4t-4.5 4
t-4.5 -4t4.5 -4zM132.5 115q4.5 0 4.5 4.5t-4.5 4.5t-4.5 -4.5t4.5 -4.5zM141 124q4 0 4 4t-4 4t-4 -4t4 -4zM149.5 115q4.5 0 4.5 4.5t-4.5 4.5t-4.5 -4.5t4.5 -4.5zM158 107q4 0 4 4t-4 4t-4 -4t4 -4zM154 251.5q0 -17.5 12.5 -30t30 -12.5t30 12.5t12.5 30t-12.5 30
t-30 12.5t-30 -12.5t-12.5 -30zM166.5 115q4.5 0 4.5 4.5t-4.5 4.5t-4.5 -4.5t4.5 -4.5zM175 107q4 0 4 4t-4 4t-4 -4t4 -4zM183.5 115q4.5 0 4.5 4.5t-4.5 4.5t-4.5 -4.5t4.5 -4.5zM192 107q4 0 4 4t-4 4t-4 -4t4 -4zM200.5 115q4.5 0 4.5 4.5t-4.5 4.5t-4.5 -4.5t4.5 -4.5
zM209 107q4 0 4 4t-4 4t-4 -4t4 -4zM217.5 115q4.5 0 4.5 4.5t-4.5 4.5t-4.5 -4.5t4.5 -4.5zM226 107q4 0 4 4t-4 4t-4 -4t4 -4zM234.5 115q4.5 0 4.5 4.5t-4.5 4.5t-4.5 -4.5t4.5 -4.5zM243 107q4 0 4 4t-4 4t-4 -4t4 -4zM251.5 115q4.5 0 4.5 4.5t-4.5 4.5t-4.5 -4.5
t4.5 -4.5zM260.5 124q4.5 0 4.5 4t-4.5 4t-4.5 -4t4.5 -4zM269 132q4 0 4 4.5t-4 4.5t-4 -4.5t4 -4.5zM277.5 124q4.5 0 4.5 4t-4.5 4t-4.5 -4t4.5 -4zM273 145q0 -4 4.5 -4t4.5 4t-4.5 4t-4.5 -4zM286 132q4 0 4 4.5t-4 4.5t-4 -4.5t4 -4.5zM282 153.5q0 -4.5 4 -4.5t4 4.5
t-4 4.5t-4 -4.5zM294.5 141q4.5 0 4.5 4t-4.5 4t-4.5 -4t4.5 -4zM290 162q0 -4 4.5 -4t4.5 4t-4.5 4t-4.5 -4zM303 149q4 0 4 4.5t-4 4.5t-4 -4.5t4 -4.5zM299 170.5q0 -4.5 4 -4.5t4 4.5t-4 4.5t-4 -4.5zM311.5 158q4.5 0 4.5 4t-4.5 4t-4.5 -4t4.5 -4zM307 179
q0 -4 4.5 -4t4.5 4t-4.5 4t-4.5 -4zM320 166q4 0 4 4.5t-4 4.5t-4 -4.5t4 -4.5zM320 183q4 0 4 4.5t-4 4.5t-4 -4.5t4 -4.5zM328.5 226q4.5 0 4.5 4.5t-4.5 4.5t-4.5 -4.5t4.5 -4.5zM333 213.5q0 4.5 -4.5 4.5t-4.5 -4.5t4.5 -4.5t4.5 4.5zM328.5 243q4.5 0 4.5 4.5
t-4.5 4.5t-4.5 -4.5t4.5 -4.5zM328.5 260q4.5 0 4.5 4.5t-4.5 4.5t-4.5 -4.5t4.5 -4.5zM328.5 277q4.5 0 4.5 4.5t-4.5 4.5t-4.5 -4.5t4.5 -4.5zM328.5 294q4.5 0 4.5 4.5t-4.5 4.5t-4.5 -4.5t4.5 -4.5zM320 303q4 0 4 4t-4 4t-4 -4t4 -4zM328.5 192q4.5 0 4.5 4.5t-4.5 4.5
t-4.5 -4.5t4.5 -4.5zM337 201q4 0 4 4t-4 4t-4 -4t4 -4zM337 218q4 0 4 4t-4 4t-4 -4t4 -4zM337 235q4 0 4 4t-4 4t-4 -4t4 -4zM337 252q4 0 4 4t-4 4t-4 -4t4 -4zM337 269q4 0 4 4t-4 4t-4 -4t4 -4zM337 294q-4 0 -4 -4t4 -4t4 4t-4 4zM328.5 320q-4.5 0 -4.5 -4.5
t4.5 -4.5t4.5 4.5t-4.5 4.5zM320 329q-4 0 -4 -4.5t4 -4.5t4 4.5t-4 4.5zM311.5 337q-4.5 0 -4.5 -4t4.5 -4t4.5 4t-4.5 4zM303 346q-4 0 -4 -4.5t4 -4.5t4 4.5t-4 4.5zM294.5 354q-4.5 0 -4.5 -4t4.5 -4t4.5 4t-4.5 4zM286 363q-4 0 -4 -4.5t4 -4.5t4 4.5t-4 4.5z
M277.5 371q-4.5 0 -4.5 -4t4.5 -4t4.5 4t-4.5 4zM269 380q-4 0 -4 -4.5t4 -4.5t4 4.5t-4 4.5zM260.5 388q-4.5 0 -4.5 -4t4.5 -4t4.5 4t-4.5 4zM251.5 380q-4.5 0 -4.5 -4.5t4.5 -4.5t4.5 4.5t-4.5 4.5zM243 388q-4 0 -4 -4t4 -4t4 4t-4 4zM234.5 397q-4.5 0 -4.5 -4.5
t4.5 -4.5t4.5 4.5t-4.5 4.5zM226 388q-4 0 -4 -4t4 -4t4 4t-4 4zM217.5 397q-4.5 0 -4.5 -4.5t4.5 -4.5t4.5 4.5t-4.5 4.5zM209 388q-4 0 -4 -4t4 -4t4 4t-4 4zM200.5 397q-4.5 0 -4.5 -4.5t4.5 -4.5t4.5 4.5t-4.5 4.5zM192 388q-4 0 -4 -4t4 -4t4 4t-4 4zM183.5 397
q-4.5 0 -4.5 -4.5t4.5 -4.5t4.5 4.5t-4.5 4.5zM175 388q-4 0 -4 -4t4 -4t4 4t-4 4zM166.5 397q-4.5 0 -4.5 -4.5t4.5 -4.5t4.5 4.5t-4.5 4.5zM158 388q-4 0 -4 -4t4 -4t4 4t-4 4zM149.5 397q-4.5 0 -4.5 -4.5t4.5 -4.5t4.5 4.5t-4.5 4.5zM141 388q-4 0 -4 -4t4 -4t4 4t-4 4z
M132.5 380q-4.5 0 -4.5 -4.5t4.5 -4.5t4.5 4.5t-4.5 4.5zM123.5 371q-4.5 0 -4.5 -4t4.5 -4t4.5 4t-4.5 4zM115 380q-4 0 -4 -4.5t4 -4.5t4 4.5t-4 4.5zM106.5 371q-4.5 0 -4.5 -4t4.5 -4t4.5 4t-4.5 4zM98 363q-4 0 -4 -4.5t4 -4.5t4 4.5t-4 4.5zM89.5 354q-4.5 0 -4.5 -4
t4.5 -4t4.5 4t-4.5 4zM81 346q-4 0 -4 -4.5t4 -4.5t4 4.5t-4 4.5zM72.5 337q-4.5 0 -4.5 -4t4.5 -4t4.5 4t-4.5 4zM72.5 320q-4.5 0 -4.5 -4.5t4.5 -4.5t4.5 4.5t-4.5 4.5zM64 311q-4 0 -4 -4t4 -4t4 4t-4 4zM55.5 303q-4.5 0 -4.5 -4.5t4.5 -4.5t4.5 4.5t-4.5 4.5z
M55.5 286q-4.5 0 -4.5 -4.5t4.5 -4.5t4.5 4.5t-4.5 4.5zM55.5 269q-4.5 0 -4.5 -4.5t4.5 -4.5t4.5 4.5t-4.5 4.5zM55.5 252q-4.5 0 -4.5 -4.5t4.5 -4.5t4.5 4.5t-4.5 4.5zM358 435v13h116q15 0 26.5 -11.5t11.5 -26.5v-116h-13q-26 0 -50 10q2 17 3 34q7 1 13.5 5t11 9.5
t7 12.5t2.5 15q0 17 -12.5 29.5t-30 12.5t-30 -12.5t-12.5 -29.5q0 -16 9.5 -27.5t24.5 -14.5q-1 -13 -2 -27q-34 18 -54.5 51.5t-20.5 72.5zM512 21h-512v389q0 15 11.5 26.5t26.5 11.5h303v-13q0 -46 24.5 -84t64.5 -57q-15 -82 -69 -145q-10 -2 -18.5 -7.5t-13.5 -15
t-5 -19.5v-9h51v41q55 65 71 148q26 -10 53 -10h13v-256zM427 107v-43h17v-17q0 -9 8.5 -9t8.5 9v17h17v43h-17v17h8q9 0 9 8.5t-9 8.5h-8v8h8q9 0 9 8.5t-9 8.5h-8v9h8q9 0 9 8.5t-9 8.5h-8v9q0 8 -8.5 8t-8.5 -8v-94h-17zM137 55v18q0 3 -3 6l-8 8q-3 3 -7 3h-17
q-3 0 -6 -3l-8 -8q-3 -3 -3 -6v-18q0 -3 3 -6l8 -8q3 -3 6 -3h17q4 0 7 3l8 8q3 3 3 6zM196.5 422q-70.5 0 -120.5 -50t-50 -120.5t50 -120.5t120.5 -50t120.5 50t50 120.5t-50 120.5t-120.5 50zM26 73v-18q0 -3 2 -6l9 -8q2 -3 6 -3h17q3 0 6 3l8 8q3 3 3 6v18q0 3 -3 6
l-8 8q-3 3 -6 3h-17q-4 0 -6 -3l-9 -8q-2 -3 -2 -6zM0 4h512v-30q0 -15 -11.5 -26.5t-26.5 -11.5h-436q-15 0 -26.5 11.5t-11.5 26.5v30z" />
  </g>

</svg>
