<?xml version="1.0" standalone="no"?>
<!DOCTYPE svg PUBLIC "-//W3C//DTD SVG 1.1//EN" "http://www.w3.org/Graphics/SVG/1.1/DTD/svg11.dtd" >
<svg xmlns="http://www.w3.org/2000/svg" xmlns:xlink="http://www.w3.org/1999/xlink" version="1.1" viewBox="-10 0 532 512">
  <g transform="matrix(1 0 0 -1 0 448)">
   <path fill="currentColor"
d="M347 439v-137h-182v137q0 9 9 9h164q9 0 9 -9zM437 326l63 -70h-488l63 70q11 12 28 12h43v-36h-9q-9 0 -9 -9.5t9 -9.5h238q9 0 9 9.5t-9 9.5h-9v36h43q17 0 28 -12zM393 43l-18 24v15q0 12 -8 20t-20 8h-182q-12 0 -20 -8t-8 -20v-15l-18 -24v67q0 26 18.5 45t45.5 19
h146q27 0 45.5 -19t18.5 -45v-67zM165 91h182q10 0 10 -9v-9h-202v9q0 9 10 9zM166 -64q-5 0 -8 4t-1 9l32 69h134l32 -69q2 -5 -0.5 -9t-7.5 -4h-181zM219 0q-9 0 -9 -9t9 -9h74q9 0 9 9t-9 9h-74zM201 -27q-9 0 -9 -9.5t9 -9.5h110q9 0 9 9.5t-9 9.5h-110zM101 -37
q-6 0 -8.5 5.5t0.5 9.5l58 77h210l58 -77q3 -4 0.5 -9.5t-8.5 -5.5h-43l-30 68h-1q0 2 -1 3h-1l-2 2h-1q-1 1 -3 1h-146q-2 0 -3 -1h-1l-2 -2h-1q-1 -1 -1 -3h-1l-30 -68h-43zM37 37q-16 0 -26.5 10.5t-10.5 25.5v165h512v-165q0 -15 -10.5 -25.5t-26.5 -10.5h-64v73
q0 34 -24 58t-58 24h-146q-22 0 -41 -11t-30 -30t-11 -41v-73h-64zM466 64q9 0 9 9t-9 9t-9 -9t9 -9zM466 91q9 0 9 9.5t-9 9.5t-9 -9.5t9 -9.5zM466 119q9 0 9 9t-9 9t-9 -9t9 -9zM466.5 210q-11.5 0 -19.5 -8t-8 -19.5t8 -19.5t19.5 -8t19.5 8t8 19.5t-8 19.5t-19.5 8z
M18 210v-9q0 -9 9.5 -9t9.5 9v9q0 9 -9.5 9t-9.5 -9zM18 165v-55q0 -9 9.5 -9t9.5 9v55q0 9 -9.5 9t-9.5 -9zM457 183q0 9 9 9t9 -9t-9 -9t-9 9z" />
  </g>

</svg>
