<?xml version="1.0" standalone="no"?>
<!DOCTYPE svg PUBLIC "-//W3C//DTD SVG 1.1//EN" "http://www.w3.org/Graphics/SVG/1.1/DTD/svg11.dtd" >
<svg xmlns="http://www.w3.org/2000/svg" xmlns:xlink="http://www.w3.org/1999/xlink" version="1.1" viewBox="-11 0 533 512">
  <g transform="matrix(1 0 0 -1 0 448)">
   <path fill="currentColor"
d="M512 -49l-12 -12l-57 56q-11 -7 -23 -7q-18 0 -31 13l-78 78q-9 10 -12 13q-6 2 -11 2q-22 0 -41 -18q-14 -15 -17 -32.5t6 -29.5l5 -5l-26 -32q-30 -39 -80 -39q-31 0 -57 17l45 44l-61 61l-44 -44q-20 29 -18 63q3 46 39 74l31 26l6 -5q9 -7 22 -7q22 0 40 18
q12 12 16 26.5t0 26.5l-87 85q-13 13 -13 30q0 13 7 24l-13 13l12 12l13 -12l114 -114h1q28 22 63 22q30 0 56 -17l86 86l-7 6q-5 5 -5 12t5 12l1 1l-12 12l12 12l12 -12l12 12l-12 12l12 12l15 -14q8 3 16 3q17 0 30 -13l12 -12q20 -20 10 -46l14 -15l-12 -12l-12 12
l-12 -12l12 -12l-12 -13l-12 13l-1 -1q-5 -5 -12 -5t-11 5l-7 6l-86 -86q16 -27 14.5 -59t-20.5 -57l-1 -1l120 -120zM72 353q0 -10 7 -18l83 -81l6 6l6 5l-100 99q-2 -5 -2 -11zM116 97l36 36q6 6 12 0t12.5 0t-0.5 12q-7 8 -18 8t-18 -8l-37 -36q-6 -6 -12 0t-12 0t0 -12
q8 -8 18.5 -8t18.5 8zM207 79q7 7 7 18t-7 18q-6 6 -12 0t0 -12t0 -12l-37 -37q-7 -7 -7 -18t7 -18q3 -3 6.5 -3t5.5 3q6 6 0 12q-2 2 -2 6t2 6zM401 13q13 -13 30 -5l-106 106l-8 -10l-3 -3q18 -19 87 -88zM62 36l36 -37l-33 -33q-8 -7 -18 -7q-6 0 -11 2l-21 -21
q-3 -2 -6.5 -2t-5.5 2q-7 6 0 12l20 21q-7 17 5 30z" />
  </g>

</svg>
