<?xml version="1.0" standalone="no"?>
<!DOCTYPE svg PUBLIC "-//W3C//DTD SVG 1.1//EN" "http://www.w3.org/Graphics/SVG/1.1/DTD/svg11.dtd" >
<svg xmlns="http://www.w3.org/2000/svg" xmlns:xlink="http://www.w3.org/1999/xlink" version="1.1" viewBox="-10 0 522 512">
  <g transform="matrix(1 0 0 -1 0 448)">
   <path fill="currentColor"
d="M340.5 443q2.5 -5 -1.5 -9l-22 -27q-1 -2 -3 -2h-116q-2 0 -3 2l-22 27q-4 4 -1.5 9t7.5 5h154q5 0 7.5 -5zM265 8q20 -1 37 -5t28 -12t11 -19q0 -17 -25.5 -26.5t-59.5 -9.5q-22 0 -41 4t-31.5 12.5t-12.5 19.5q0 16 22.5 25.5t53.5 10.5v335l-31 38q-2 2 -1 4.5t4 2.5
h74q3 0 4 -2.5t-1 -4.5l-31 -38v-335zM256 -47q21 0 37.5 3.5t23.5 8t7 7.5q0 2 -2.5 4t-7.5 4.5t-11.5 4.5t-16.5 3.5t-21 2.5v-12q0 -9 -9 -9t-9 9v12q-17 -1 -31.5 -4.5t-21 -7.5t-6.5 -7t7 -7.5t23.5 -8t37.5 -3.5z" />
  </g>

</svg>
