<?xml version="1.0" standalone="no"?>
<!DOCTYPE svg PUBLIC "-//W3C//DTD SVG 1.1//EN" "http://www.w3.org/Graphics/SVG/1.1/DTD/svg11.dtd" >
<svg xmlns="http://www.w3.org/2000/svg" xmlns:xlink="http://www.w3.org/1999/xlink" version="1.1" viewBox="-10 0 522 512">
  <g transform="matrix(1 0 0 -1 0 448)">
   <path fill="currentColor"
d="M343 319q-23 -12 -87 -12t-86 12l15 22q35 -7 71 -6q36 -1 72 6zM170 319zM316 358q-30 -5 -60 -5t-60 5l21 32q19 -2 39 -2t39 2zM256 288q31 0 61 5l19 -28q-40 -6 -80 -5q-40 -1 -79 5l18 28q30 -5 61 -5zM283 408q-14 -1 -27 -1q-14 0 -27 1l27 40zM404 64l18 -27
q-8 -9 -53.5 -18t-112.5 -9t-112.5 9t-53.5 18l18 27q54 -17 148 -17t148 17zM284 -8v-47q1 -8 -7 -9h-32q-8 1 -7 9v47h18h28zM256 221q-52 0 -102 10l11 17q45 -7 91 -7t91 7l11 -17q-50 -10 -102 -10zM256 66q-69 -1 -137 14l22 32q57 -9 115 -9t115 9l22 -32
q-68 -15 -137 -14zM256 159q40 0 80 5v-1l24 -34q-52 -8 -104 -7q-52 -1 -103 7l23 34v1q40 -5 80 -5zM382 196q-8 -7 -42.5 -13t-83.5 -6t-83 6t-43 13l13 19q56 -13 113 -12q57 -1 113 12z" />
  </g>

</svg>
