<?xml version="1.0" standalone="no"?>
<!DOCTYPE svg PUBLIC "-//W3C//DTD SVG 1.1//EN" "http://www.w3.org/Graphics/SVG/1.1/DTD/svg11.dtd" >
<svg xmlns="http://www.w3.org/2000/svg" xmlns:xlink="http://www.w3.org/1999/xlink" version="1.1" viewBox="-10 0 522 512">
  <g transform="matrix(1 0 0 -1 0 448)">
   <path fill="currentColor"
d="M364 -12q8 0 14 -3.5t9.5 -9.5t3.5 -13q0 -11 -8 -18.5t-19 -7.5h-208q-11 0 -18.5 7.5t-7.5 18.5t7.5 18.5t18.5 7.5h5q-5 8 -5 17q0 15 10.5 25t24.5 10h139q14 0 24 -10t10 -25q0 -9 -4 -17h4zM154 221q-26 0 -32 42q-1 4 2 7l73 87v82q0 7 6.5 9t9.5 -4l33 -46l22 45
q4 8 12 4q17 -8 38 -27q29 -24 45 -58l-45 -45q-6 -6 0 -13q3 -2 6.5 -2t5.5 2l41 41q5 -15 8 -31l-72 -72q-6 -7 0 -13q3 -2 6.5 -2t6.5 2l63 64q1 -13 1 -28l-77 -77q-6 -6 0 -12q3 -3 6.5 -3t6.5 3l63 63q-2 -17 -5 -34l-71 -71q-6 -6 0 -12q3 -3 6.5 -3t6.5 3l51 51
q-16 -74 -18 -124h-191q-14 92 35 135q1 0 2 1q6 3 15.5 9.5t24.5 26.5t15 40q-30 -24 -52 -24q-6 0 -12 2q-19 -18 -36 -18z" />
  </g>

</svg>
