<?xml version="1.0" standalone="no"?>
<!DOCTYPE svg PUBLIC "-//W3C//DTD SVG 1.1//EN" "http://www.w3.org/Graphics/SVG/1.1/DTD/svg11.dtd" >
<svg xmlns="http://www.w3.org/2000/svg" xmlns:xlink="http://www.w3.org/1999/xlink" version="1.1" viewBox="-10 0 522 512">
  <g transform="matrix(1 0 0 -1 0 448)">
   <path fill="currentColor"
d="M9 -30q-9 0 -9 9v239q0 8 9 8h8q18 0 30.5 -12.5t12.5 -30.5v-59h34q18 0 34 -9.5t25 -25t9 -34.5v-12q0 -23 15.5 -39t38 -17t39 14t18.5 37h-17q-18 0 -24 17.5t9 28.5l-25 25l-0.5 1l-0.5 1l-1 1v1l-50 190h-14q-10 0 -15 9l-8 17q-5 9 0 17t15 8h29q2 26 16.5 47.5
t37 34t48.5 12.5h51q26 0 49 -12.5t37 -34t16 -47.5h30q9 0 14 -8t1 -17l-9 -17q-4 -9 -15 -9h-14l-49 -190l-1 -1v-1l-0.5 -1t-1.5 -1l-24 -25q14 -11 8.5 -28.5t-24.5 -17.5h-17q-2 -43 -33.5 -73t-75 -29t-74 32t-30.5 75v12q0 5 -2.5 9t-6 6.5t-8.5 2.5h-34v-60
q0 -18 -12.5 -30.5t-30.5 -12.5h-8zM316 124v51q0 7 -5 12t-12 5t-12 -5t-5 -12v-51h34zM273 107h-31l18 -17h78l17 17h-82zM273 431q-33 0 -57.5 -22t-27.5 -55h221q-3 33 -27.5 55t-57.5 22h-51zM142 337l8 -17h297l9 17h-314zM265 303h-83l46 -179h37v51q0 14 10 24
t24 10t24 -10t10 -24v-51h36l47 179h-151zM247 64q0 -9 9 -9h85q9 0 9 9t-9 9h-85q-9 0 -9 -9zM94 107h-34v-17h34q14 0 24 -10t10 -25v-12q0 -37 25.5 -63t62 -27t63 24t28.5 61h-17q-2 -29 -23.5 -49t-51 -19t-50 22t-20.5 51v12q0 22 -15 37t-36 15zM17 209v-222
q11 0 18.5 7.5t7.5 18.5v170q0 11 -7.5 18.5t-18.5 7.5zM17 209zM298.5 235q-8.5 0 -8.5 8v17q0 9 8.5 9t8.5 -9v-17q0 -8 -8.5 -8zM299 235zM241 237q-5 6 0.5 12t11.5 0l18 -17q5 -6 -0.5 -12t-12.5 0zM241 237zM333 218q-6 0 -8 5t2 9l17 17q6 6 12 0t0 -12l-17 -17
q-3 -2 -6 -2zM333 218zM239 388q8 0 8 -8.5t-8 -8.5h-9q-8 0 -8 8.5t8 8.5h9zM239 388zM358 388q9 0 9 -8.5t-9 -8.5h-85q-8 0 -8 8.5t8 8.5h85zM358 388z" />
  </g>

</svg>
