<?xml version="1.0" standalone="no"?>
<!DOCTYPE svg PUBLIC "-//W3C//DTD SVG 1.1//EN" "http://www.w3.org/Graphics/SVG/1.1/DTD/svg11.dtd" >
<svg xmlns="http://www.w3.org/2000/svg" xmlns:xlink="http://www.w3.org/1999/xlink" version="1.1" viewBox="-10 0 532 512">
  <g transform="matrix(1 0 0 -1 0 448)">
   <path fill="currentColor"
d="M247 226v34h18v-34h-18zM196 124v17h26v-17h-26zM290 124v17h26v-17h-26zM145 81v222h222v-222h-222zM333 149q0 9 -9 9h-42q-9 0 -9 -9v-34q0 -8 9 -8h42q9 0 9 8v34zM230 269v-51q0 -9 9 -9h34q9 0 9 9v51q0 8 -9 8h-34q-9 0 -9 -8zM179 149v-34q0 -8 9 -8h42q9 0 9 8
v34q0 9 -9 9h-42q-9 0 -9 -9zM461 448q21 0 36 -15t15 -36v-410q0 -21 -15 -36t-36 -15h-410q-21 0 -36 15t-15 36v410q0 21 15 36t36 15h410zM478 0v384q0 12 -9 21t-21 9h-384q-12 0 -21 -9t-9 -21v-384q0 -12 9 -21t21 -9h384q12 0 21 9t9 21zM448 397q5 0 9 -4t4 -9
v-384q0 -5 -4 -9t-9 -4h-384q-5 0 -9 4t-4 9v384q0 5 4 9t9 4h384zM384 73v238q0 9 -9 9h-238q-9 0 -9 -9v-238q0 -9 9 -9h238q9 0 9 9z" />
  </g>

</svg>
