<?xml version="1.0" standalone="no"?>
<!DOCTYPE svg PUBLIC "-//W3C//DTD SVG 1.1//EN" "http://www.w3.org/Graphics/SVG/1.1/DTD/svg11.dtd" >
<svg xmlns="http://www.w3.org/2000/svg" xmlns:xlink="http://www.w3.org/1999/xlink" version="1.1" viewBox="-10 0 532 512">
  <g transform="matrix(1 0 0 -1 0 448)">
   <path fill="currentColor"
d="M400.5 306q0.5 -1 0.5 -2t-0.5 -1.5t-1 -1.5l-1 -2t-0.5 -2q-3 -3 -7 -3q-1 0 -2 0.5l-2 1l-2 1t-1.5 1t-1 1.5l-1 2t-0.5 2v1.5v1.5t0.5 2l1 2t1 1.5t1.5 1l2 1t2 0.5q5 1 9 -2q0 -1 0.5 -2l1 -2zM502 91q10 0 10 -10v-68q0 -10 -10 -10h-25l-25 -44q-3 -5 -9 -5h-26
q-6 0 -9 5l-25 44h-254l-25 -44q-3 -5 -9 -5h-26q-6 0 -9 5l-25 44h-25q-10 0 -10 10v68q0 10 10 10h63l-10 64h-12q-10 0 -10 10v44q0 10 10 10h42q-8 14 -8 30v20q0 19 -11 43q-1 3 -2 5q-2 5 1 10t8 5h31q1 14 11.5 24t25 10t25 -10t10.5 -24h31q6 0 9 -5t1 -10
q-1 -2 -3 -5q-11 -24 -11 -43v-20q0 -16 -7 -30h41q10 0 10 -10v-44q0 -10 -10 -10h-11l-11 -64h75l-12 70h-13q-10 0 -10 10v48q0 10 10 10h27v83h-4q-17 0 -29.5 12.5t-12.5 29.5t12.5 29t29.5 12h5q4 15 16.5 25t28.5 10q19 0 32 -13.5t13 -32.5v-24q19 0 32 -13.5
t13 -32.5v-85h25q10 0 10 -10v-48q0 -10 -10 -10h-13l-12 -70h66zM390.5 340q-10.5 0 -18 -7.5t-7.5 -18.5v-85h16v42q0 10 10 10t10 -10v-42h15v85q0 11 -7.5 18.5t-18 7.5zM320 325v-96h25v85q0 29 26 42v28q0 11 -7.5 18.5t-18 7.5t-18 -7.5t-7.5 -18.5v-2v-56v-1z
M296 332h4v43h-4q-6 0 -11 -2.5t-8 -7.5t-3 -11q0 -9 6.5 -15.5t15.5 -6.5zM283 181h168v28h-168v-28zM427 161h-121l12 -70h98zM200 312h-53q28 -25 28 -63q0 -16 -4 -30h8q12 12 12 30v20q0 22 9 43zM148 346q-6 0 -10.5 -4t-5.5 -10h32q0 4 -2.5 7t-6 5t-7.5 2zM111 312
h-14q8 -21 8 -43v-20q0 -18 12 -30h33q5 14 5 30q0 22 -10.5 36t-33.5 27zM61 175h174v24h-174v-24zM214 155h-131l11 -64h109zM89 -26l17 29h-48l17 -29h14zM437 -26l17 29h-48l17 -29h14zM492 23v48h-472v-48h472zM466 53q3 -3 3 -7v-2t-0.5 -2t-1 -1.5t-1 -1.5t-1.5 -1.5
t-2 -0.5t-2 -0.5t-2 -0.5t-2 0.5t-2 0.5t-1.5 0.5l-1.5 1.5l-1.5 1.5t-0.5 1.5t-0.5 2t-0.5 2t0.5 2t0.5 2t0.5 1.5l1.5 1.5l1.5 1.5t1.5 1t2 0.5h4q1 0 2 -0.5l2 -1t1 -1.5zM417 56q10 0 10 -10t-10 -10h-364q-10 0 -10 10t10 10h364z" />
  </g>

</svg>
