<?xml version="1.0" standalone="no"?>
<!DOCTYPE svg PUBLIC "-//W3C//DTD SVG 1.1//EN" "http://www.w3.org/Graphics/SVG/1.1/DTD/svg11.dtd" >
<svg xmlns="http://www.w3.org/2000/svg" xmlns:xlink="http://www.w3.org/1999/xlink" version="1.1" viewBox="-10 0 525 512">
  <g transform="matrix(1 0 0 -1 0 448)">
   <path fill="currentColor"
d="M51 122.5q0 7.5 5.5 13t13 5.5t12.5 -5.5t5 -13t-5 -12.5t-12.5 -5t-13 5t-5.5 12.5zM150 -2q11 0 19 -9t7 -21q-2 -10 -10 -16.5t-18 -6.5q-26 0 -44 10.5t-26.5 26.5t-12 28t-4.5 24h-5q-20 0 -34.5 14.5t-14.5 34.5v316q0 20 14.5 34.5t34.5 14.5h26q20 0 34.5 -14.5
t14.5 -34.5v-316q0 -19 -12.5 -33t-30.5 -16q30 -33 62 -36zM78 390v-18h18v18h-18zM78 354v-18h18v18h-18zM78 318v-17h18v17h-18zM78 283v-18h18v18h-18zM78 247v-17h18v17h-18zM78 212v-18h18v18h-18zM43 390v-18h17v18h-17zM43 354v-18h17v18h-17zM43 318v-17h17v17h-17
zM43 283v-18h17v18h-17zM43 247v-17h17v17h-17zM43 212v-18h17v18h-17zM34 123q0 -15 10 -25.5t25 -10.5t25.5 10.5t10.5 25.5t-10.5 25t-25.5 10t-25 -10t-10 -25zM148 -37q9 0 10 7q1 4 -2 7t-7 3q-3 0 -10 1.5t-24.5 10t-32.5 22.5q14 -51 66 -51v-9v9zM256 -2q0 9 9 9
t9 -9t-9 -9t-9 9zM499 371q6 -2 6 -8v-356q0 -6 -6 -8l-187 -63h-3h-89q-8 0 -8 9v489q0 9 8 9h89h1q1 0 3 -1zM256 354v-302q0 -9 9 -9t9 9v302q0 9 -9 9t-9 -9zM265 -28q11 0 19 7.5t8 18.5t-8 19t-19 8t-19 -8t-8 -19t8 -18.5t19 -7.5z" />
  </g>

</svg>
