<?xml version="1.0" standalone="no"?>
<!DOCTYPE svg PUBLIC "-//W3C//DTD SVG 1.1//EN" "http://www.w3.org/Graphics/SVG/1.1/DTD/svg11.dtd" >
<svg xmlns="http://www.w3.org/2000/svg" xmlns:xlink="http://www.w3.org/1999/xlink" version="1.1" viewBox="-10 0 532 512">
  <g transform="matrix(1 0 0 -1 0 448)">
   <path fill="currentColor"
d="M327 43l27 -27q-23 -13 -49 -19q-16 -4 -20 -20l-9 -41h-40l-9 40q-4 17 -20 21q-29 7 -55 23q-14 8 -28 -1l-35 -22l-28 28l22 35q9 14 1 28q-16 26 -23 55q-4 16 -21 20l-40 9v40l40 9q17 4 21 20q7 29 23 55q8 14 -1 28l-22 35l28 28l35 -22q14 -9 28 -1q26 16 55 23
q16 4 20 21l9 40h40l9 -40q4 -17 20 -21q29 -7 55 -23q14 -8 28 1l35 22l28 -28l-22 -35q-9 -14 -1 -28q16 -26 23 -55q4 -16 21 -20l40 -9v-40l-41 -9q-16 -4 -20 -20q-6 -26 -19 -49l-28 27q26 54 11 112.5t-64 93t-109 29.5t-102.5 -47.5t-47.5 -102.5t29.5 -109
t92.5 -64t113 10zM448 201v-18q0 -9 9 -9t9 9v18q0 9 -9 9t-9 -9zM385.5 347.5q-6.5 -6.5 -0.5 -13.5l13 -13q4 -4 9 -2.5t6.5 7t-2.5 8.5l-13 13q-6 7 -12.5 0.5zM247 402q-9 0 -9 -9t9 -9h18q9 0 9 9t-9 9h-18zM101 334q-6 -6 0 -12.5t13 -0.5l13 13q6 7 -0.5 13t-12.5 0z
M64 183v18q0 9 -9 9t-9 -9v-18q0 -9 9 -9t9 9zM126.5 36.5q6.5 6.5 0.5 13.5l-13 13q-7 6 -13 -0.5t0 -12.5l13 -13q6 -7 12.5 -0.5zM265 -18q9 0 9 9t-9 9h-18q-9 0 -9 -9t9 -9h18zM391 135l-29 28q8 30 -0.5 59t-30 49.5t-51 27t-58.5 -2.5q-5 -1 -6 -6t3 -9l58 -58
l-9 -43l-43 -9l-58 58q-4 4 -9 3t-6 -6q-10 -29 -3 -58.5t27.5 -51t49.5 -30t58 -0.5l29 -29q-48 -20 -98.5 -5t-80 58.5t-24.5 95.5t42.5 89.5t89.5 42.5t95.5 -24.5t58.5 -80t-5 -98.5zM448 -9q0 9 9 9t9 -9t-9 -9t-9 9zM343 160q0 -2 9.5 -12t66.5 -67l64 -64
q15 -15 10 -36t-26 -26.5t-36 10.5q-32 32 -76 77q-49 49 -58 56.5t-12 6.5h-1q-48 -16 -87 17t-32 83l51 -51q3 -3 8 -2l53 12q6 1 7 7l12 53q1 4 -3 8l-50 50q50 8 83 -31t17 -87v-2v-2zM421 18q6 0 8 6t-2 10l-101 100q-6 7 -12.5 0.5t0.5 -12.5l100 -101q3 -3 7 -3z
M457.5 -37q11.5 0 19.5 8t8 19.5t-8 19.5t-19.5 8t-19.5 -8t-8 -19.5t8 -19.5t19.5 -8z" />
  </g>

</svg>
