<?xml version="1.0" standalone="no"?>
<!DOCTYPE svg PUBLIC "-//W3C//DTD SVG 1.1//EN" "http://www.w3.org/Graphics/SVG/1.1/DTD/svg11.dtd" >
<svg xmlns="http://www.w3.org/2000/svg" xmlns:xlink="http://www.w3.org/1999/xlink" version="1.1" viewBox="-10 0 522 512">
  <g transform="matrix(1 0 0 -1 0 448)">
   <path fill="currentColor"
d="M215 -46q9 0 9 -9t-9 -9h-37q-9 0 -9 9t9 9h37zM69 -9q9 0 9 -9t-9 -9h-37q-9 0 -9 9t9 9h37zM462 -46q9 0 9 -9t-9 -9h-37q-9 0 -9 9t9 9h37zM59 169q0 25 9 48t26 41t39 29v-236q-22 11 -39 29t-26 41t-9 48zM361 430h-202q-11 0 -18.5 -8t-7.5 -19v-95
q-42 -18 -67 -56t-25 -83t25 -82.5t67 -55.5v-31h-103q-7 0 -7 7v286h36q10 0 10 9t-10 9h-36v18h36q10 0 10 9t-10 9h-36v19h36q10 0 10 9t-10 9h-36v18h36q10 0 10 9.5t-10 9.5h-36v19q0 8 8 8h322q8 0 8 -8v-10zM408 232l8 -8q37 -38 37 -91q0 -55 -39 -94t-94 -39
t-94 39t-39 94q0 50 34 88t84 43l6 1h9q14 0 28 -3l2 -1h1q7 -1 15 -4l1 -0.5t2 -0.5l5 -2.5t6 -3.5h1h0.5t1 -0.5t1 -0.5t5.5 -3.5t6 -4t2 -1.5l1 -1q5 -3 8 -5q0 -1 1 -1.5zM320 82q21 0 35.5 15t14.5 35.5t-14.5 35.5t-35.5 15t-35.5 -15t-14.5 -35.5t14.5 -35.5
t35.5 -15zM367 276l-1 0.5t-2 0.5t-6 1q-6 9 -6 19q0 13 9.5 22.5t22.5 9.5t22.5 -9.5t9.5 -22.5q0 -11 -7.5 -20t-18.5 -11q-3 2 -9 5q-1 0 -1.5 0.5t-1.5 0.5q-5 2 -11 4zM320 165q13 0 22.5 -9.5t9.5 -23t-9.5 -22.5t-22.5 -9t-22.5 9t-9.5 22.5t9.5 23t22.5 9.5z
M384 366q28 0 48.5 -20t20.5 -49q0 -35 -29 -55l-1 0.5t-1 1.5q-5 4 -8 6q0 1 -5 4q25 15 25 43q0 21 -14.5 35.5t-35.5 14.5t-35.5 -14.5t-14.5 -35.5q0 -7 2 -14h-1h-15h-3q-2 7 -2 14q0 29 20.5 49t48.5 20zM481 411q8 0 8 -8v-432q0 -8 -7 -8h-324q-7 0 -7 8v285h36
q10 0 10 9t-10 9h-36v19h36q10 0 10 9t-10 9h-36v18h36q10 0 10 9t-10 9h-36v19h36q10 0 10 9t-10 9h-36v19q0 8 8 8h322zM471 133q0 53 -34 95q34 26 34 69q0 36 -25.5 61.5t-61.5 25.5t-61.5 -25.5t-25.5 -61.5q0 -7 2 -15q-56 -8 -93 -50.5t-37 -98.5q0 -63 44.5 -107
t106.5 -44t106.5 44t44.5 107z" />
  </g>

</svg>
