<?xml version="1.0" standalone="no"?>
<!DOCTYPE svg PUBLIC "-//W3C//DTD SVG 1.1//EN" "http://www.w3.org/Graphics/SVG/1.1/DTD/svg11.dtd" >
<svg xmlns="http://www.w3.org/2000/svg" xmlns:xlink="http://www.w3.org/1999/xlink" version="1.1" viewBox="-10 0 522 512">
  <g transform="matrix(1 0 0 -1 0 448)">
   <path fill="currentColor"
d="M466 318q23 -50 23 -126q0 -27 -17 -89.5t-29 -82.5q-1 -2 -2 -3l-7 -36q-1 -7 -8 -7l-35 -3l-2 -10q-1 -7 -5.5 -13t-11 -9t-13.5 -3q-3 0 -6 1l-12 2q-12 2 -19 12.5t-5 23.5l34 177q2 12 12.5 19.5t23.5 4.5l11 -2q13 -2 20 -12.5t5 -23.5l-7 -34l31 -14q2 -1 3 -2
q21 74 21 105q1 71 -21 117q-21 45 -54 74q-63 -13 -135 -13q-78 0 -144 15q-34 -29 -55 -76q-22 -46 -21 -117q0 -35 14 -103l29 14l-6 34q-2 13 5 23.5t19 12.5l12 2q13 3 23.5 -4.5t12.5 -19.5l34 -177q2 -13 -5 -23.5t-20 -12.5l-11 -2q-3 -1 -6 -1q-11 0 -19.5 7
t-10.5 18l-2 10l-35 3q-7 0 -8 7l-7 36q-1 2 -2 3q-12 19 -23.5 80.5t-11.5 91.5q0 76 23 126q54 117 176 129h1q10 1 19 1h6h7h12h4h5h1h1h4h1q22 -2 43 -7.5t47.5 -18.5t51 -40t41.5 -64z" />
  </g>

</svg>
