<?xml version="1.0" standalone="no"?>
<!DOCTYPE svg PUBLIC "-//W3C//DTD SVG 1.1//EN" "http://www.w3.org/Graphics/SVG/1.1/DTD/svg11.dtd" >
<svg xmlns="http://www.w3.org/2000/svg" xmlns:xlink="http://www.w3.org/1999/xlink" version="1.1" viewBox="-10 0 522 512">
  <g transform="matrix(1 0 0 -1 0 448)">
   <path fill="currentColor"
d="M432 151.5q2 -2.5 1 -5.5l-15 -82q-2 -5 -7 -5h-21q-5 -24 -24.5 -39.5t-44.5 -15.5q-21 0 -38 11t-26 29q-6 -12 -15.5 -21t-21.5 -14t-25 -5q-25 0 -43.5 15.5t-23.5 39.5h-27q-5 0 -7 5l-15 82q-1 3 1 5.5t5 2.5h89q3 0 5 -2.5t2 -5.5l-16 -82q-1 -5 -7 -5h-16
q4 -18 19 -29.5t34 -11.5q16 0 30 9.5t20 24.5h-21q-6 0 -7 6l-15 82q-1 3 1 5.5t5 2.5h41v170h-27q-23 0 -39 16t-16 39q0 7 7 7h164q7 0 7 -7q0 -23 -16 -39t-39 -16h-27v-170h34q3 0 5 -2.5t2 -5.5l-16 -82q-1 -6 -7 -6h-13q7 -15 21.5 -24.5t31.5 -9.5q19 0 34.5 11.5
t20.5 29.5h-22q-6 0 -7 5l-16 82q0 3 2 5.5t5 2.5h89q3 0 5 -2.5zM181 366q3 -15 14.5 -24.5t26.5 -9.5h68q15 0 26.5 9.5t14.5 24.5h-150zM94 141l13 -68h46l13 68h-72zM216 134l14 -68h45l14 68h-73zM405 73l13 68h-72l13 -68h46z" />
  </g>

</svg>
