<?xml version="1.0" standalone="no"?>
<!DOCTYPE svg PUBLIC "-//W3C//DTD SVG 1.1//EN" "http://www.w3.org/Graphics/SVG/1.1/DTD/svg11.dtd" >
<svg xmlns="http://www.w3.org/2000/svg" xmlns:xlink="http://www.w3.org/1999/xlink" version="1.1" viewBox="-10 0 522 512">
  <g transform="matrix(1 0 0 -1 0 448)">
   <path fill="currentColor"
d="M55 375q0 10 5 18.5t13 13t18 4.5q16 0 26.5 -10.5t10.5 -25.5q0 -10 -5 -18.5t-13.5 -13.5t-18.5 -5q-15 0 -25.5 11t-10.5 26zM119 105q0 -23 8 -45t22.5 -39.5t35.5 -29.5h-167q-7 0 -12.5 5.5t-5.5 12.5v421q0 7 5.5 12.5t12.5 5.5h329q8 0 13.5 -5.5t5.5 -12.5v-258
q-15 26 -39.5 42.5t-52.5 21t-57 -2.5q-44 -12 -71 -47.5t-27 -80.5zM265 411q-9 0 -9 -9t9 -9h64q9 0 9 9t-9 9h-64zM192 411q-9 0 -9 -9t9 -9h37q9 0 9 9t-9 9h-37zM192 366q-9 0 -9 -9.5t9 -9.5h137q9 0 9 9.5t-9 9.5h-137zM338 311q0 9 -9 9h-36q-10 0 -10 -9t10 -9h36
q9 0 9 9zM192 320q-9 0 -9 -9t9 -9h64q9 0 9 9t-9 9h-64zM192 274q-9 0 -9 -9t9 -9h137q9 0 9 9t-9 9h-137zM23 245q2 -3 4 -4h1v-0.5t1 -0.5q62 -24 125 0l0.5 0.5l0.5 0.5h1q2 1 4 4v1q9 25 2 51t-28 44q14 17 12.5 38.5t-17.5 36t-37.5 14.5t-37.5 -14.5t-17.5 -36
t12.5 -38.5q-21 -18 -28 -44t2 -51v-1zM91 128q10 0 10 9t-10 9h-54q-10 0 -10 -9t10 -9h54zM101 91.5q0 9.5 -10 9.5h-54q-10 0 -10 -9.5t10 -9.5h54q10 0 10 9.5zM101 37q9 0 9 9t-9 9h-64q-10 0 -10 -9t10 -9h64zM110 174q9 0 9 9t-9 9h-73q-10 0 -10 -9t10 -9h73z
M144 256q-53 -19 -105 0q-9 33 11 61q5 6 12 11q14 -8 29.5 -8t29.5 8q16 -13 22 -32.5t1 -39.5zM251 219q31 0 57.5 -15t42 -41.5t15.5 -57.5q0 -47 -33.5 -80.5t-81 -33.5t-81 33.5t-33.5 80.5t33.5 80.5t80.5 33.5zM251.5 9q39.5 0 67.5 28t28 68t-28 68t-67.5 28
t-68 -28t-28.5 -68t28.5 -68t68 -28zM418 -48q3 -3 3 -7t-3 -6q-7 -7 -13 0l-67 66q7 6 13 13zM174 105q0 32 22.5 55t55 23t55 -23t22.5 -55t-22.5 -55t-55 -23t-55 23t-22.5 55z" />
  </g>

</svg>
