<?xml version="1.0" standalone="no"?>
<!DOCTYPE svg PUBLIC "-//W3C//DTD SVG 1.1//EN" "http://www.w3.org/Graphics/SVG/1.1/DTD/svg11.dtd" >
<svg xmlns="http://www.w3.org/2000/svg" xmlns:xlink="http://www.w3.org/1999/xlink" version="1.1" viewBox="-10 0 532 512">
  <g transform="matrix(1 0 0 -1 0 448)">
   <path fill="currentColor"
d="M427 222q0 -30 -23 -51q-6 51 0 101q23 -20 23 -50zM290 222q0 30 23 50q6 -50 0 -101q-23 21 -23 51zM179 171q0 8 -8 8h-34q-9 0 -9 -8v-12q-19 7 -31 24.5t-12 38.5t12 38t31 25v-12q0 -8 9 -8h34q8 0 8 8v12q19 -8 31 -25t12 -38t-12 -38.5t-31 -24.5v12zM128 205
q7 0 12 5t5 12t-5 12t-12 5t-12 -5t-5 -12t5 -12t12 -5zM162 222q0 -7 5 -12t12 -5t12 5t5 12t-5 12t-12 5t-12 -5t-5 -12zM461 410q21 0 36 -15t15 -37v-273q0 -21 -15 -36t-36 -15h-94q0 -9 3 -17q6 -13 20 -18.5t30 0.5q16 7 38 4.5t34 -14.5q6 -6 0 -12q-2 -3 -5.5 -3
t-6.5 3q-8 8 -25 9.5t-29 -3.5q-22 -9 -42.5 -0.5t-29.5 28.5q-4 11 -4 23h-299q-21 0 -36 15t-15 36v273q0 22 15 37t36 15h410zM350 137v17q-8 1 -14 4h-1l-6 2l-1 1q9 61 0 122h1q3 2 6 3h1q22 8 45 0q4 -1 7 -3q-8 -61 0 -122v-1q-3 -1 -7 -2q-6 -3 -14 -4v-17h1h1l2 1
q5 0 9 1l0.5 0.5t1.5 0.5q10 3 20 8v1q42 25 42 73t-42 73v0q-21 12 -44 12t-43 -12v0q-42 -25 -42 -73t42 -73v-1q10 -5 20 -8l1 -0.5l1 -0.5q4 -1 9 -1q1 -1 1.5 -1h1.5h1zM350 213h17q8 0 8 8.5t-8 8.5h-17q-9 0 -9 -8.5t9 -8.5zM478 98v248q0 12 -9 20.5t-21 8.5h-384
q-12 0 -21 -8.5t-9 -20.5v-248q0 -12 9 -21t21 -9h286v17h-286q-5 0 -9 4t-4 9v248q0 5 4 8.5t9 3.5h384q5 0 9 -3.5t4 -8.5v-248q0 -5 -4 -9t-9 -4h-81v-17h81q12 0 21 9t9 21zM145 162h17v-15q0 -4 3 -7q3 -2 6 -2q1 0 2 1q29 6 47.5 29.5t18.5 53.5q0 20 -8.5 37.5
t-23.5 29.5t-34 16q-4 1 -7.5 -1.5t-3.5 -6.5v-15h-17v15q0 4 -3 6.5t-7 1.5q-30 -7 -48.5 -30t-18.5 -53t18.5 -53.5t48.5 -29.5q4 -1 7 1.5t3 6.5v15z" />
  </g>

</svg>
