<?xml version="1.0" standalone="no"?>
<!DOCTYPE svg PUBLIC "-//W3C//DTD SVG 1.1//EN" "http://www.w3.org/Graphics/SVG/1.1/DTD/svg11.dtd" >
<svg xmlns="http://www.w3.org/2000/svg" xmlns:xlink="http://www.w3.org/1999/xlink" version="1.1" viewBox="-10 0 522 512">
  <g transform="matrix(1 0 0 -1 0 448)">
   <path fill="currentColor"
d="M20 36q-21 15 -19 41q0 22 15 34.5t35 12.5t35.5 -11t15.5 -30q0 -16 10 -29q12 -16 32 -16l-6 36q-19 6 -18 26q1 8 6.5 15t14.5 8l-80 168v0v3q-1 0 -1 1q1 2 2 5h1l97 106q-6 7 -6 16q0 11 7.5 18.5t18.5 7.5h34q11 0 18.5 -7.5t7.5 -18.5q0 -9 -7 -16l98 -106v0h1
q1 -3 1 -5v-1v-3v0l-80 -168q6 -1 10.5 -4.5t7 -8.5t3.5 -10q1 -20 -18 -26l-6 -36q20 0 32 16q10 13 10 29q0 19 15.5 30t35.5 11t35 -12.5t15 -34.5q2 -26 -19 -41q-15 -10 -30 -1q-14 6 -14 22q0 8 8.5 8t8.5 -8q1 -5 5 -7q7 -4 13 0q13 10 11 27q1 14 -10 22
q-10 8 -23 8q-9 0 -16.5 -3t-12.5 -8.5t-5 -12.5q0 -22 -13 -39q-17 -23 -46 -23h-3l-6 -36q19 -8 15 -28q-2 -9 -9 -15t-16 -6h-68q-9 0 -16.5 6t-8.5 15q-4 20 15 28l-6 36h-3q-29 0 -46 23q-13 17 -13 39q-1 11 -10 17q-11 7 -24 7q-2 0 -5.5 -0.5t-8.5 -2t-9 -4.5t-7 -9
t-3 -14q-2 -17 11 -27q6 -4 13 0q4 2 4 7q0 8 9 8t9 -8q-1 -16 -14 -22q-16 -9 -30 1zM224 -13l14 86h-82l14 -86h54zM231 -47q9 0 9 8.5t-9 8.5h-68q-9 0 -9 -8.5t9 -8.5h68zM197 124h10l31 179h-82l31 -179h10zM139 301l-58 -13l79 -164h10zM186 397l-28 -77h78l-28 77
h-22zM255 301l-31 -177h10l79 164zM255 319l45 -10l-69 75zM180 431q-9 0 -9 -8.5t9 -8.5h34q9 0 9 8.5t-9 8.5h-34zM163 384l-69 -75l45 10zM146 107q-9 0 -9 -8.5t9 -8.5h102q9 0 9 8.5t-9 8.5h-102zM146 107zM214 285.5q0 -8.5 -9 -8.5h-17q-8 0 -8 8.5t8 8.5h17
q9 0 9 -8.5zM214 286z" />
  </g>

</svg>
