<?xml version="1.0" standalone="no"?>
<!DOCTYPE svg PUBLIC "-//W3C//DTD SVG 1.1//EN" "http://www.w3.org/Graphics/SVG/1.1/DTD/svg11.dtd" >
<svg xmlns="http://www.w3.org/2000/svg" xmlns:xlink="http://www.w3.org/1999/xlink" version="1.1" viewBox="-10 0 522 512">
  <g transform="matrix(1 0 0 -1 0 448)">
   <path fill="currentColor"
d="M242 420q10 0 10 -10v-41q0 -10 -10 -10h-137q-10 0 -10 10v41q0 10 10 10h137zM232 379v21h-117v-21h117zM397 315q3 -3 3 -7q0 -1 -0.5 -2t-0.5 -2t-0.5 -2t-1.5 -1.5t-1.5 -1t-1.5 -1t-2 -0.5h-2q-4 0 -7 3q-1 0 -1.5 1l-1 2t-0.5 2v2v2t0.5 1.5t1 1.5t1 1.5t1.5 1
l2 1t2 0.5q2 1 4 0q1 0 2 -0.5t1.5 -1t1.5 -0.5zM444 448q10 0 10 -10v-492q0 -10 -10 -10h-376q-10 0 -10 10v492q0 10 10 10h376zM434 -44v375h-356v-13h270q10 0 10 -10t-10 -10h-270v-342h356zM434 351v77h-356v-77h356zM363 173q2 -4 0 -8t-6 -5q-12 -4 -20 -14t-8 -22
q0 -27 25 -36q4 -1 5.5 -5.5t-0.5 -8.5q-8 -15 -21 -28q-34 -34 -82 -34t-82 34q-22 21 -30 51t0 60.5t30 53t52.5 30.5t60.5 -1h1q29 -8 50 -29q17 -17 25 -38zM188 196q-32 -31 -28 -76l104 104q-4 1 -8 1q-40 0 -68 -29zM165 97q5 -16 16 -29l136 135q-14 11 -30 16z
M309 124q0 35 31 51q-4 7 -9 14l-136 -136q27 -21 61 -21q40 0 68 28q7 7 12 15q-27 17 -27 49zM256 288q66 0 112.5 -47t46.5 -113q0 -26 -8 -50t-22.5 -44t-34 -34.5t-44 -22.5t-50.5 -8q-66 0 -112.5 46.5t-46.5 112.5t46.5 113t112.5 47zM256 -11q58 0 98.5 41
t40.5 98.5t-40.5 98.5t-98.5 41t-98.5 -41t-40.5 -98.5t40.5 -98.5t98.5 -41zM407 420q10 0 10 -10v-41q0 -10 -10 -10h-94q-10 0 -10 10v41q0 10 10 10h94zM350 379v21h-27v-21h27zM397 379v21h-27v-21h27z" />
  </g>

</svg>
