<?xml version="1.0" standalone="no"?>
<!DOCTYPE svg PUBLIC "-//W3C//DTD SVG 1.1//EN" "http://www.w3.org/Graphics/SVG/1.1/DTD/svg11.dtd" >
<svg xmlns="http://www.w3.org/2000/svg" xmlns:xlink="http://www.w3.org/1999/xlink" version="1.1" viewBox="-10 0 532 512">
  <g transform="matrix(1 0 0 -1 0 448)">
   <path fill="currentColor"
d="M274.5 335q11.5 0 20 -8.5t8.5 -20t-8.5 -20t-20 -8.5t-19.5 8.5t-8 20t8 20t19.5 8.5zM275 298q8 0 8 8.5t-8 8.5t-8 -8.5t8 -8.5zM218 284q11 0 19.5 -8t8.5 -20q0 -6 -2 -11t-6 -9t-9 -6t-11 -2q-12 0 -20 8t-8 20q0 6 2 11t6 9t9 6t11 2zM218 248q8 0 8 8t-8 8t-8 -8
t8 -8zM286.5 86q0.5 -1 0.5 -2t-0.5 -2t-0.5 -2t-0.5 -2t-1.5 -1.5t-1.5 -1t-1.5 -1t-2 -0.5h-2h-2t-2 0.5l-2 1t-1.5 1t-1 1.5l-1 2t-0.5 2v2v2t0.5 1.5t1 1.5t1 1.5t1.5 1l2 1t2 0.5q2 1 4 0q1 0 2 -0.5t1.5 -1t1.5 -1t1.5 -1.5t0.5 -1.5t0.5 -1.5zM503 166q9 -1 9 -10
v-65q0 -46 -33 -79t-79 -33h-287q-46 0 -79 33t-33 79v59v2q-1 3 -1 5v2q0 20 14 34t34 14q11 0 21 -5q11 21 35 21q14 0 25 -9q12 19 35 19q25 0 36 -22q20 10 42 10q26 0 48 -15t31 -40h96v22q0 10 10 10h23v177q0 10 -10 10h-43q-10 0 -10 -10v-15q21 -1 36 -16.5
t15 -37.5q0 -10 -10 -10h-101q-10 0 -10 10q0 22 14.5 37.5t35.5 16.5v15q0 12 9 21t21 9h43q12 0 21 -9t9 -21v-177h23q10 0 10 -10v-22zM416 316q-3 11 -12 18t-21 7h-12q-11 0 -20 -7t-13 -18h78zM437 178v-12h46v12h-46zM322 146v-94q0 -8 8 -8h68q8 0 8 8v94h-84z
M302 146h-209q-3 -11 -10 -19h219v19zM20 157v-1q1 -10 9 -17.5t19 -7.5t18.5 7.5t8.5 17.5t10 10h214q-8 16 -23.5 25.5t-33.5 9.5q-23 0 -41 -14q-5 -4 -10.5 -1.5t-5.5 8.5q-1 8 -7 13.5t-14 5.5q-9 0 -15 -6t-6 -15v-1q0 -5 -4.5 -8.5t-9.5 -1.5t-6 7q-3 15 -19 15
q-7 0 -13 -5.5t-6 -12.5q-1 -7 -7 -9t-10 2q-8 9 -20 9t-20 -8t-8 -20v-2zM492 91v16h-66v-55q0 -12 -8.5 -20t-19.5 -8h-68q-12 0 -20 8t-8 20v55h-281v-13h213q10 0 10 -10t-10 -10h-211q6 -32 31.5 -53.5t58.5 -21.5h287q38 0 65 27t27 65zM492 127v19h-66v-19h66z" />
  </g>

</svg>
