<?xml version="1.0" standalone="no"?>
<!DOCTYPE svg PUBLIC "-//W3C//DTD SVG 1.1//EN" "http://www.w3.org/Graphics/SVG/1.1/DTD/svg11.dtd" >
<svg xmlns="http://www.w3.org/2000/svg" xmlns:xlink="http://www.w3.org/1999/xlink" version="1.1" viewBox="-11 0 533 512">
  <g transform="matrix(1 0 0 -1 0 448)">
   <path fill="currentColor"
d="M358 448q16 0 29 -7.5t21.5 -20t9.5 -27.5q0 -5 -4 -5h-111q-5 0 -4 5q0 6 2 12h-46q-3 -11 -12 -18t-21 -7q-17 0 -28 14l-128 -80q2 -6 2 -11q0 -13 -9 -23l49 -81q16 5 30 -4q15 -11 16 -28q0 -8 -3.5 -15t-9.5 -12t-13 -7v-18h9q5 0 7 -5l10 -23q2 -6 -4 -6h-39
q-9 0 -9 -8v-52q0 -8 9 -8h47q4 0 4 -4v-13h9q8 0 8 -8.5t-8 -8.5h-9v-26h9q8 0 8 -8.5t-8 -8.5h-34q-9 0 -9 8.5t9 8.5h8v26h-60q-8 0 -8 8v77v2v1l17 43q3 5 8 5h9v18q-11 3 -18.5 12.5t-7.5 20.5q0 13 9 23l-49 82q-6 -2 -11 -2q-16 0 -26.5 12.5t-6.5 29.5q4 19 23 25
q19 5 33 -8l131 82v4q0 14 10 24t24 10q8 0 14.5 -3.5t11.5 -9t7 -13.5h52q18 26 51 26zM503 64q9 0 9 -9v-17q0 -8 -9 -8h-375q-9 0 -9 8v17q0 9 9 9h375zM376 -30q8 0 8 -8v-17q0 -9 -9 -9h-69q-7 0 -7 9v17q0 8 7 8h70zM503 13q9 0 9 -7v-12q0 -7 -9 -7h-238q-9 0 -9 7
q0 8 -7 13q-2 2 -1 4t4 2h251zM414 371q4 0 4 -4v-17q0 -4 -4 -4h-111q-4 0 -4 4v17q0 4 4 4h111z" />
  </g>

</svg>
