<?xml version="1.0" standalone="no"?>
<!DOCTYPE svg PUBLIC "-//W3C//DTD SVG 1.1//EN" "http://www.w3.org/Graphics/SVG/1.1/DTD/svg11.dtd" >
<svg xmlns="http://www.w3.org/2000/svg" xmlns:xlink="http://www.w3.org/1999/xlink" version="1.1" viewBox="-11 0 534 512">
  <g transform="matrix(1 0 0 -1 0 448)">
   <path fill="currentColor"
d="M9 107q-5 0 -7.5 3t-1.5 7l26 111q1 7 8 7h68q7 0 9 -7l25 -111q1 -4 -1.5 -7t-6.5 -3h-34v-17q8 0 8 -9v-17q0 -12 -7 -21t-18 -12v-27q0 -14 10 -24t24 -10q9 0 17 4.5t12.5 12.5t4.5 17v77q0 14 10 24t24 10t24 -10t10 -24v-60h10l23 155q-7 3 -12.5 7.5t-8.5 11.5
t-3 15q0 11 7 20t18 12v95h-42q-11 0 -18.5 7.5t-7.5 18.5v17h-8q-25 0 -42.5 17.5t-17.5 41.5q0 9 8 9h274q8 0 8 -9q0 -24 -17.5 -41.5t-42.5 -17.5h-8v-17q0 -7 -3.5 -13t-9.5 -9.5t-13 -3.5h-42v-95q5 -1 9.5 -4.5t8 -7.5t5.5 -9.5t2 -10.5q0 -12 -6.5 -21t-17.5 -13
l23 -155h10v60q0 14 10 24t24 10t24 -10t10 -24v-77q0 -14 10 -24t24 -10t24 10t10 24v27q-11 3 -18 12t-7 21v17q0 9 8 9v17h-34q-4 0 -6.5 3t-1.5 7l25 111q2 7 9 7h68q7 0 8 -7l26 -111q1 -4 -1.5 -7t-7.5 -3h-34v-17q9 0 9 -9v-17q0 -8 -3.5 -14.5t-9 -11.5t-13.5 -7
v-27q0 -21 -15 -36t-36 -15t-36 15t-15 36v77q0 7 -5 12t-12 5t-12 -5t-5 -12v-60h8q9 0 9 -8q0 -32 -22.5 -54.5t-54.5 -22.5t-54.5 22.5t-22.5 54.5q0 8 9 8h8v60q0 7 -5 12t-12 5t-12 -5t-5 -12v-77q0 -21 -15 -36t-36 -15t-36 15t-15 36v27q-12 3 -19 12t-7 21v17
q0 9 9 9v17h-34zM416 218l-21 -94h98l-22 94h-55zM435 107v-17h17v17h-17zM427 64q0 -7 5 -12t12 -5t12 5t5 12v9h-34v-9zM316 363v17h-86v-26h77q9 0 9 9zM129 431q3 -15 14.5 -24.5t27.5 -9.5h170q16 0 27.5 9.5t14.5 24.5h-254zM196 363q0 -9 9 -9h8v26h-17v-17zM256 -47
q22 0 39 14.5t20 36.5h-118q3 -22 20 -36.5t39 -14.5zM239 209q0 -7 5 -12t12 -5t12 5t5 12t-5 12t-12 5t-12 -5t-5 -12zM256 126l-16 -105h32zM85 64v9h-34v-9q0 -7 5 -12t12 -5t12 5t5 12zM77 90v17h-17v-17h17zM41 218l-22 -94h98l-21 94h-55zM41 218z" />
  </g>

</svg>
