<?xml version="1.0" standalone="no"?>
<!DOCTYPE svg PUBLIC "-//W3C//DTD SVG 1.1//EN" "http://www.w3.org/Graphics/SVG/1.1/DTD/svg11.dtd" >
<svg xmlns="http://www.w3.org/2000/svg" xmlns:xlink="http://www.w3.org/1999/xlink" version="1.1" viewBox="-10 0 522 512">
  <g transform="matrix(1 0 0 -1 0 448)">
   <path fill="currentColor"
d="M443.5 372q0.5 -5 -3.5 -8l-145 -102q-2 -2 -5 -2q-2 0 -4 1q-4 3 -4 8v71q0 5 3 8l81 54q4 2 8 0l64 -23q5 -2 5.5 -7zM344 416q3 -4 -1 -6l-58 -39q-3 -3 -6 1l-5 7l-120 -81v-262q26 -1 46 -9.5t22 -22.5v-38q0 -16 -24.5 -23t-52.5 -7t-52.5 7t-24.5 23v38
q2 14 22 22.5t47 9.5v267q0 5 3 7l124 82l-6 8q-3 3 -2 6.5t4 5.5l51 35q7 4 12 -2zM205 3q0 2 -5.5 5.5t-18 6.5t-27.5 4v-6q0 -9 -8.5 -9t-8.5 9v6q-16 -1 -28.5 -4t-18 -6.5t-5.5 -5.5q0 -1 2.5 -3t7.5 -4t12 -4t17 -3.5t21 -1.5q18 0 32.5 3.5t21 7t6.5 5.5z" />
  </g>

</svg>
