<?xml version="1.0" standalone="no"?>
<!DOCTYPE svg PUBLIC "-//W3C//DTD SVG 1.1//EN" "http://www.w3.org/Graphics/SVG/1.1/DTD/svg11.dtd" >
<svg xmlns="http://www.w3.org/2000/svg" xmlns:xlink="http://www.w3.org/1999/xlink" version="1.1" viewBox="-10 0 532 512">
  <g transform="matrix(1 0 0 -1 0 448)">
   <path fill="currentColor"
d="M367 260q25 -4 42.5 -23t17.5 -45t-17.5 -45t-42.5 -23v8q0 9 -8.5 9t-8.5 -9v-8q-26 4 -43 23t-17 45t17 45t43 23v-8q0 -9 8.5 -9t8.5 9v8zM333 175q7 0 12 5t5 12t-5 12t-12 5t-12 -5t-5 -12t5 -12t12 -5zM384 175q7 0 12 5t5 12t-5 12t-12 5t-12 -5t-5 -12t5 -12
t12 -5zM162 260q26 -4 43 -23t17 -45q0 -13 -4.5 -24.5t-12.5 -20.5t-19 -15t-24 -8v8q0 9 -8.5 9t-8.5 -9v-8q-25 4 -42.5 23t-17.5 45t17.5 45t42.5 23v-8q0 -9 8.5 -9t8.5 9v8zM128 175q7 0 12 5t5 12t-5 12t-12 5t-12 -5t-5 -12t5 -12t12 -5zM179 175q5 0 9 2.5t6 6
t2 8.5q0 7 -5 12t-12 5t-12 -5t-5 -12t5 -12t12 -5zM461 380q21 0 36 -15t15 -36v-274q0 -21 -15 -36t-36 -15h-410q-21 0 -36 15t-15 36v274q0 21 15 36t36 15h410zM478 68v248q0 12 -9 21t-21 9h-384q-12 0 -21 -9t-9 -21v-248q0 -12 9 -21t21 -9h384q12 0 21 9t9 21z
M448 329q5 0 9 -4t4 -9v-248q0 -5 -4 -9t-9 -4h-384q-5 0 -9 4t-4 9v248q0 5 4 9t9 4h384zM153.5 107q35.5 0 60.5 25t25 60t-25 60t-60.5 25t-60.5 -25t-25 -60t25 -60t60.5 -25zM358 107q36 0 61 25t25 60t-25 60t-60.5 25t-60.5 -25t-25 -60q0 -23 11.5 -42.5t31 -31
t42.5 -11.5z" />
  </g>

</svg>
