<?xml version="1.0" standalone="no"?>
<!DOCTYPE svg PUBLIC "-//W3C//DTD SVG 1.1//EN" "http://www.w3.org/Graphics/SVG/1.1/DTD/svg11.dtd" >
<svg xmlns="http://www.w3.org/2000/svg" xmlns:xlink="http://www.w3.org/1999/xlink" version="1.1" viewBox="-10 0 522 512">
  <g transform="matrix(1 0 0 -1 0 448)">
   <path fill="currentColor"
d="M366 259v-2v-2t-0.5 -1.5t-1 -1.5t-1.5 -2q-3 -3 -7 -3q-1 0 -2 0.5t-1.5 0.5t-1.5 1l-1.5 1.5l-1.5 1.5t-1 1.5t-0.5 1.5t-0.5 2t0.5 2t0.5 2t1 2l1.5 1.5t1.5 1t1.5 1t1.5 0.5q6 1 9 -3q1 0 1.5 -1l1 -2t0.5 -2zM360 295q3 -9 -6.5 -12.5t-12.5 6.5q-10 26 -33.5 42.5
t-51.5 16.5h-1q-35 -1 -62 -27.5t-27 -61.5q-1 -28 15 -52q15 -23 41 -33q9 -4 5 -13q-2 -7 -9 -7q-2 0 -4 1q-31 13 -50 41q-19 29 -18 63q0 43 33 75.5t75 33.5h2q23 0 43.5 -9t36.5 -25.5t24 -38.5zM390 393q57 -56 57 -136q0 -59 -33 -107q-31 -44 -79 -66v-36
q0 -10 -10 -10v-40q0 -10 -10 -10h-6v-42q0 -10 -10 -10h-86q-10 0 -10 10v42h-6q-10 0 -10 10v40q-10 0 -10 10v36q-49 22 -80 67q-33 50 -32 110q2 75 57.5 130.5t130.5 56.5q80 1 137 -55zM289 -44v32h-66v-32h66zM305 8v30h-98v-30h98zM231 126q6 -2 6 -9v-59h38v59
q0 7 6 9l25 11q37 15 59 47.5t22 72.5q0 54 -38.5 92.5t-92.5 38.5h-2q-51 -1 -89.5 -39t-39.5 -89q0 -41 22 -75q23 -33 59 -48zM321 99q48 20 77 63t29 95q0 72 -51 122t-122 49q-68 -1 -118 -50.5t-51 -117.5q-1 -53 28 -96.5t78 -64.5q6 -2 6 -9v-32h20v52l-18 8
q-43 18 -68 56q-26 39 -26 86q2 59 46 103t103 45h2q62 0 106.5 -44t44.5 -107q0 -30 -11.5 -57.5t-33 -48.5t-49.5 -33l-18 -8v-52h20v32q0 7 6 9z" />
  </g>

</svg>
