<?xml version="1.0" standalone="no"?>
<!DOCTYPE svg PUBLIC "-//W3C//DTD SVG 1.1//EN" "http://www.w3.org/Graphics/SVG/1.1/DTD/svg11.dtd" >
<svg xmlns="http://www.w3.org/2000/svg" xmlns:xlink="http://www.w3.org/1999/xlink" version="1.1" viewBox="-11 0 523 512">
  <g transform="matrix(1 0 0 -1 0 448)">
   <path fill="currentColor"
d="M7 449h464q8 0 8 -8v-17q0 -10 -7 -17.5t-18 -7.5h-430q-10 0 -17.5 7.5t-7.5 17.5v17q0 8 8 8zM7 449zM134 82q31 -25 31 -64q0 -27 -17 -49h-132q-17 22 -17 49q0 18 7 34t20.5 28t30.5 17q12 4 24.5 4t25.5 -4q15 -5 27 -15zM82 60q8 0 8 8t-8 8q-30 0 -47.5 -24.5
t-7.5 -52.5q2 -5 8 -6q1 1 3 1q7 3 5 11q-3 6 -3 13q0 17 12.5 29.5t29.5 12.5zM82 60zM107 97h-50v12q0 11 7 18t17.5 7t18 -7t7.5 -18v-12zM107 97zM292 198q30 -25 30 -64q0 -27 -17 -49h-132q-17 22 -17 49t16 49t42 30q25 8 50 0q15 -5 28 -15zM239 176q8 0 8 8t-8 8
q-30 0 -47 -24.5t-8 -52.5q2 -6 8 -6q2 0 3 1q8 3 5 10q-2 7 -2 14q0 17 12 29.5t29 12.5zM239 176zM264 213h-50v12q0 11 7.5 18t17.5 7q5 0 9.5 -2t8 -5t5.5 -8t2 -10v-12zM264 213zM421 329q26 -8 42 -30t16 -49t-16 -49h-133q-16 22 -16 49t16 49t42 30q24 8 49 0z
M396 292q9 0 9 8t-9 8q-30 0 -47 -24.5t-7 -52.5q2 -6 8 -6q1 0 2 1q8 3 5 10q-2 7 -2 14q0 11 5.5 21t15 15.5t20.5 5.5zM396 292zM421 329h-49v12q0 11 7 18t17 7q7 0 13 -3.5t9 -9t3 -12.5v-12zM421 329zM98 399v-252q-16 8 -33 0v252h33zM98 399zM256 399v-136
q-17 7 -33 0v136h33zM256 399zM413 399v-20q-17 7 -33 0v20h33zM413 399z" />
  </g>

</svg>
