<?xml version="1.0" standalone="no"?>
<!DOCTYPE svg PUBLIC "-//W3C//DTD SVG 1.1//EN" "http://www.w3.org/Graphics/SVG/1.1/DTD/svg11.dtd" >
<svg xmlns="http://www.w3.org/2000/svg" xmlns:xlink="http://www.w3.org/1999/xlink" version="1.1" viewBox="-10 0 529 512">
  <g transform="matrix(1 0 0 -1 0 448)">
   <path fill="currentColor"
d="M467 29v-2q0 -4 -3 -7q-1 0 -1.5 -0.5t-1.5 -1l-2 -1t-2 -0.5q-4 0 -7 3q-1 1 -1.5 2l-1 2t-0.5 1.5v1.5v2t0.5 2l1 2t1.5 1q4 4 9 3q1 0 2 -0.5t1.5 -1t1.5 -1t1.5 -1.5l1 -2t0.5 -2zM415 37q10 0 10 -10t-10 -10h-360q-10 0 -10 10t10 10h360zM328 348v-2v-2t-0.5 -2
l-1 -2t-1.5 -1.5t-1.5 -1t-1.5 -1t-2 -0.5h-2q-4 0 -7 3q-1 0 -1.5 1l-1 2t-0.5 2v2v2t0.5 1.5t1 1.5t1.5 1.5t1.5 1.5t1.5 1h2q2 1 4 0h2t1.5 -1t1.5 -1.5t1.5 -1.5t1 -1.5t0.5 -1.5zM499 72q10 0 10 -10v-67q0 -10 -10 -10h-24l-25 -44q-3 -5 -9 -5h-26q-5 0 -8 5l-26 44
h-250l-26 -44q-3 -5 -8 -5h-26q-6 0 -9 5l-25 44h-24q-10 0 -10 10v67q0 10 10 10h159v28q0 10 10 10h64v154h-85q-4 0 -7 3t-3 8l10 164q1 9 10 9h170q9 0 10 -9l10 -164q0 -5 -3 -8t-7 -3h-85v-154h8v16q0 10 10 10h31q10 0 10 -10v-16h5q10 0 10 -10v-28h159zM294 116v-6
h11v6h-11zM175 336l-1 -14h164l-7 106h-150l-5 -72h100q10 0 10 -10t-10 -10h-101zM172 284h168l-1 18h-166zM192 90v-18h128v18h-128zM91 -44l16 29h-47l17 -29h14zM435 -44l17 29h-47l16 -29h14zM23 5h466v47h-466v-47z" />
  </g>

</svg>
