<?xml version="1.0" standalone="no"?>
<!DOCTYPE svg PUBLIC "-//W3C//DTD SVG 1.1//EN" "http://www.w3.org/Graphics/SVG/1.1/DTD/svg11.dtd" >
<svg xmlns="http://www.w3.org/2000/svg" xmlns:xlink="http://www.w3.org/1999/xlink" version="1.1" viewBox="-10 0 532 512">
  <g transform="matrix(1 0 0 -1 0 448)">
   <path fill="currentColor"
d="M213 47v34h34v-34h-34zM111 47v34h34v-34h-34zM265 47v34h34v-34h-34zM162 47v34h34v-34h-34zM418 98v34h34v-34h-34zM316 47v34h34v-34h-34zM367 47v34h34v-34h-34zM418 47v34h34v-34h-34zM60 47v34h34v-34h-34zM213 98v34h34v-34h-34zM316 -4v34h34v-34h-34zM162 -4v34
h34v-34h-34zM213 -4v34h34v-34h-34zM265 -4v34h34v-34h-34zM367 -4v34h34v-34h-34zM367 98v34h34v-34h-34zM418 -4v34h34v-34h-34zM469 448q18 0 30.5 -12.5t12.5 -30.5v-426q0 -18 -12.5 -30.5t-30.5 -12.5h-426q-18 0 -30.5 12.5t-12.5 30.5v426q0 18 12.5 30.5t30.5 12.5
h426zM431 397q-8 0 -15 -4t-11 -11t-4 -15q0 -12 9 -21t21 -9t21 9t9 21t-9 21t-21 9zM431 320q-8 0 -15 -4t-11 -11t-4 -15q0 -12 9 -21t21 -9t21 9t9 21t-9 21t-21 9zM431 243q-12 0 -21 -8.5t-9 -21t9 -21.5t21 -9t21 9t9 21.5t-9 21t-21 8.5zM307 388v-51q0 -8 9 -8h17
v-128q0 -9 8.5 -9t8.5 9v128h17q8 0 8 8v51q0 9 -8 9h-51q-9 0 -9 -9zM222 311v-51q0 -8 8 -8h17v-51q0 -9 9 -9t9 9v51h17q8 0 8 8v51q0 9 -8 9h-17v68q0 9 -9 9t-9 -9v-68h-17q-8 0 -8 -9zM137 252v-51q0 -9 8 -9h51q9 0 9 9v51q0 8 -9 8h-17v128q0 9 -8.5 9t-8.5 -9v-128
h-17q-8 0 -8 -8zM51 388v-51q0 -8 9 -8h17v-128q0 -9 8.5 -9t8.5 9v128h17q8 0 8 8v51q0 9 -8 9h-51q-9 0 -9 -9zM469 90v51q0 8 -8 8h-51h-52h-51h-51h-51h-51h-52h-51q-8 0 -8 -8v-51v-52v-51q0 -8 8 -8h51h52h51h51h51h51h52h51q8 0 8 8v51v52zM111 -4v34h34v-34h-34z
M265 98v34h34v-34h-34zM162 98v34h34v-34h-34zM316 98v34h34v-34h-34zM111 98v34h34v-34h-34zM60 98v34h34v-34h-34zM60 -4v34h34v-34h-34z" />
  </g>

</svg>
