<?xml version="1.0" standalone="no"?>
<!DOCTYPE svg PUBLIC "-//W3C//DTD SVG 1.1//EN" "http://www.w3.org/Graphics/SVG/1.1/DTD/svg11.dtd" >
<svg xmlns="http://www.w3.org/2000/svg" xmlns:xlink="http://www.w3.org/1999/xlink" version="1.1" viewBox="-10 0 532 512">
  <g transform="matrix(1 0 0 -1 0 448)">
   <path fill="currentColor"
d="M512 81h-222v-52q111 -8 111 -42q0 -22 -47 -32t-98 -10t-98 10t-47 32q0 34 111 42v52h-222v358h512v-358zM222 98h68h205v324h-478v-324h205zM478 405v-290h-444v290h444zM156 360l-26 -25q-6 -6 0 -13q3 -2 6.5 -2t6.5 2l25 26q6 6 0 12t-12 0zM79 326q-6 -6 0 -12
q3 -3 6.5 -3t5.5 3l35 34q6 6 -0.5 12t-12.5 0zM128 311.5q0 3.5 -2 6.5q-6 6 -13 0q-2 -3 -2 -6.5t2.5 -6t6 -2.5t6 2.5t2.5 6zM79 283q-6 -6 0 -12q3 -2 6.5 -2t5.5 2l17 17q6 6 0 12t-12 0zM168 305q6 6 0 12.5t-12 0.5l-77 -77q-6 -6 0 -12q3 -3 6.5 -3t5.5 3z
M185.5 322.5q2.5 2.5 2.5 6t-3 6.5q-6 6 -12 0q-2 -3 -2 -6.5t2.5 -6t6 -2.5t6 2.5zM211 348q6 6 0 12t-12 0l-9 -8q-6 -6 0 -12q3 -3 6.5 -3t5.5 3z" />
  </g>

</svg>
