<?xml version="1.0" standalone="no"?>
<!DOCTYPE svg PUBLIC "-//W3C//DTD SVG 1.1//EN" "http://www.w3.org/Graphics/SVG/1.1/DTD/svg11.dtd" >
<svg xmlns="http://www.w3.org/2000/svg" xmlns:xlink="http://www.w3.org/1999/xlink" version="1.1" viewBox="-10 0 532 512">
  <g transform="matrix(1 0 0 -1 0 448)">
   <path fill="currentColor"
d="M46 9q0 -11 8 -19t19 -8h439v-37q0 -9 -9 -9h-494q-4 0 -6.5 2.5t-2.5 6.5v494q0 9 9 9h28q9 0 9 -9v-430zM457 380l55 -55v-56l-48 48q-7 7 -13 0l-168 -167l-53 53q-6 7 -12 0l-95 -94l-59 59v57l53 -53q6 -7 13 0l94 94l53 -53q6 -7 13 0zM290 131l167 167l55 -55
v-243h-439q-9 0 -9 9v134l53 -53q6 -7 13 0l94 94l53 -53q6 -7 13 0z" />
  </g>

</svg>
