<?xml version="1.0" standalone="no"?>
<!DOCTYPE svg PUBLIC "-//W3C//DTD SVG 1.1//EN" "http://www.w3.org/Graphics/SVG/1.1/DTD/svg11.dtd" >
<svg xmlns="http://www.w3.org/2000/svg" xmlns:xlink="http://www.w3.org/1999/xlink" version="1.1" viewBox="-10 0 532 512">
  <g transform="matrix(1 0 0 -1 0 448)">
   <path fill="currentColor"
d="M213.5 166q-28.5 0 -48.5 20t-20 48.5t20 48.5t48.5 20t48.5 -20t20 -48.5t-20 -48.5t-48.5 -20zM213.5 277q-17.5 0 -30 -12.5t-12.5 -29.5q0 -9 3 -17t9 -13.5t14 -9t16 -3.5q18 0 30.5 12.5t12.5 30t-12.5 30t-30 12.5zM213 73q-67 0 -114.5 47.5t-47.5 114.5
t47.5 114.5t114.5 47.5t114.5 -47.5t47.5 -114.5q0 -25 -7 -48l-45 -45l13 -13q-48 -56 -123 -56zM213.5 320q-35.5 0 -60.5 -25t-25 -60.5t25 -60.5t60.5 -25t60.5 25t25 60.5t-25 60.5t-60.5 25zM512 38h-512v372q0 15 11.5 26.5t26.5 11.5h436q15 0 26.5 -11.5
t11.5 -26.5v-372zM478 90v42h-26v17q0 9 -8.5 9t-8.5 -9v-17h-25v-42h25v-35q0 -8 8.5 -8t8.5 8v35h26zM213 414q-74 0 -126.5 -52.5t-52.5 -126.5t52.5 -127t126.5 -53q82 0 135 62l12 -11l54 54l-12 12l50 51v124q11 3 18.5 12t7.5 21q0 14 -10 24t-24 10t-24 -10t-10 -24
q0 -8 3 -15t9 -11.5t13 -6.5v-117l-45 -46l-4 4q7 23 7 47q0 74 -53 126.5t-127 52.5zM0 21h512v-47q0 -15 -11.5 -26.5t-26.5 -11.5h-436q-15 0 -26.5 11.5t-11.5 26.5v47zM85 -21v17q0 3 -2 6l-9 8q-2 3 -6 3h-17q-3 0 -6 -3l-8 -8q-3 -3 -3 -6v-17q0 -4 3 -6l8 -9
q3 -2 6 -2h17q4 0 6 2l9 9q2 2 2 6zM145 -21v17q0 3 -2 6l-9 8q-2 3 -6 3h-17q-4 0 -6 -3l-9 -8q-2 -3 -2 -6v-17q0 -4 2 -6l9 -9q2 -2 6 -2h17q4 0 6 2l9 9q2 2 2 6zM205 -21v17q0 3 -3 6l-8 8q-3 3 -6 3h-17q-4 0 -6 -3l-9 -8q-2 -3 -2 -6v-17q0 -4 2 -6l9 -9q2 -2 6 -2
h17q3 0 6 2l8 9q3 2 3 6zM265 -21v17q0 3 -3 6l-8 8q-3 3 -7 3h-17q-3 0 -6 -3l-8 -8q-3 -3 -3 -6v-17q0 -4 3 -6l8 -9q3 -2 6 -2h17q4 0 7 2l8 9q3 2 3 6z" />
  </g>

</svg>
