<?xml version="1.0" standalone="no"?>
<!DOCTYPE svg PUBLIC "-//W3C//DTD SVG 1.1//EN" "http://www.w3.org/Graphics/SVG/1.1/DTD/svg11.dtd" >
<svg xmlns="http://www.w3.org/2000/svg" xmlns:xlink="http://www.w3.org/1999/xlink" version="1.1" viewBox="-10 0 522 512">
  <g transform="matrix(1 0 0 -1 0 448)">
   <path fill="currentColor"
d="M435 286q9 0 9 -9v-34q0 -8 -9 -8h-8v-43q0 -12 -7.5 -21t-18.5 -12v-1q0 -44 -119 -51v-26h-17v-17h17v-10l104 -24q0 -1 1 -1l1 -0.5t1.5 -1l1 -1l1 -1t0.5 -1.5v-2l1 -1v-9q14 -1 24 -12t10 -26t-11.5 -26.5t-27.5 -11.5t-27 11.5t-11 26.5q0 27 25 36v5l-93 21v-3
l20 -20h1q16 0 27 -11.5t11 -27t-11 -27t-27 -11.5t-27 11.5t-11 26.5q0 22 19 33l-14 14h-28l-14 -14q19 -11 19 -33q0 -10 -5 -19t-14 -14t-19 -5q-16 0 -27 11.5t-11 27t11 27t27 11.5h1l20 20v3l-93 -21v-5q25 -9 25 -36q0 -15 -11 -26.5t-27 -11.5t-27.5 11.5
t-11.5 26.5t10 26t24 12v9l1 1v2t0.5 1.5l1 1l1 1t1.5 1l1 0.5q1 0 1 1l104 24v10h17v17h-17v26q-119 7 -119 51v1q-11 3 -18.5 12t-7.5 21v43h-8q-9 0 -9 8v34q0 9 9 9h34q8 0 8 -9v-34q0 -8 -8 -8h-9v-43q0 -14 14 -17q12 17 38 17h93v17h-53q-20 0 -34 14.5t-13 34.5
l5 144q1 20 14.5 33t33.5 13h112q20 0 33.5 -13t14.5 -33l5 -144q1 -20 -13 -34.5t-34 -14.5h-53v-17h95q24 0 36 -17q14 3 14 17v43h-9q-8 0 -8 8v34q0 9 8 9h34z" />
  </g>

</svg>
