<?xml version="1.0" standalone="no"?>
<!DOCTYPE svg PUBLIC "-//W3C//DTD SVG 1.1//EN" "http://www.w3.org/Graphics/SVG/1.1/DTD/svg11.dtd" >
<svg xmlns="http://www.w3.org/2000/svg" xmlns:xlink="http://www.w3.org/1999/xlink" version="1.1" viewBox="-10 0 522 512">
  <g transform="matrix(1 0 0 -1 0 448)">
   <path fill="currentColor"
d="M406 235q8 0 14.5 -6.5t6.5 -14.5v-44q0 -8 -6.5 -14.5t-14.5 -6.5h-13v-82q0 -19 -13.5 -32.5t-32.5 -13.5h-1l-6 -10q-8 -14 -8 -31q0 -18 -14.5 -31t-35.5 -13h-87q-20 0 -34.5 13t-14.5 31q0 17 -9 31l-5 10h-1q-19 0 -32.5 13.5t-13.5 32.5v250q0 19 13.5 32.5
t32.5 13.5h1l5 10q9 14 9 31q0 18 14.5 31t34.5 13h87q21 0 35.5 -13t14.5 -31q0 -17 8 -31l6 -10h1q19 0 32.5 -13.5t13.5 -32.5v-82h13zM375 67v82v86v82q0 8 -3.5 14.5t-10 10.5t-14.5 4h-216q-12 0 -20.5 -8.5t-8.5 -20.5v-250q0 -12 8.5 -20.5t20.5 -8.5h216
q12 0 20 8.5t8 20.5zM136.5 269q-3.5 0 -6.5 2q-6 6 0 12l35 35q6 6 12 -0.5t0 -12.5l-34 -34q-3 -2 -6.5 -2zM136.5 226q-3.5 0 -6.5 3q-6 6 0 12l18 17q6 6 12 0t0 -12l-17 -17q-3 -3 -6.5 -3zM165 275q6 6 12 0q2 -3 2 -6.5t-2.5 -6t-6 -2.5t-6 2.5t-2.5 6t3 6.5z
M182 280q-6 6 0 12l25 26q6 6 12 -0.5t0 -12.5l-25 -25q-3 -3 -6.5 -3t-5.5 3zM207 275q6 6 12 0t0 -12l-76 -77q-3 -3 -6.5 -3t-6.5 3q-6 6 0 12zM224 292q6 6 12 0q3 -3 3 -6.5t-2.5 -6t-6 -2.5t-6 2.5t-2.5 6.5t2 6zM250 318q6 6 12 -0.5t0 -12.5l-8 -8q-3 -3 -6.5 -3
t-6.5 3q-6 6 0 12z" />
  </g>

</svg>
