<?xml version="1.0" standalone="no"?>
<!DOCTYPE svg PUBLIC "-//W3C//DTD SVG 1.1//EN" "http://www.w3.org/Graphics/SVG/1.1/DTD/svg11.dtd" >
<svg xmlns="http://www.w3.org/2000/svg" xmlns:xlink="http://www.w3.org/1999/xlink" version="1.1" viewBox="-10 0 524 512">
  <g transform="matrix(1 0 0 -1 0 448)">
   <path fill="currentColor"
d="M188 397q53 0 90.5 -37.5t37.5 -90.5t-37.5 -90.5t-90.5 -37.5t-90.5 37.5t-37.5 90.5t37.5 90.5t90.5 37.5zM290 268.5q0 3.5 -2 6.5l-94 94q-3 2 -6.5 2t-5.5 -2l-94 -94q-6 -6 0 -12l25 -26q3 -2 6.5 -2t6.5 2l2 3v-39q0 -9 9 -9h102q8 0 8 9v39l3 -3q2 -2 6 -2t6 2
l26 26q2 2 2 5.5zM145 257l43 42l42 -42v-48h-85v48zM106 269l82 82l82 -82l-14 -14l-62 62q-1 2 -3 2l-1 1h-2v0v0q-4 0 -6 -3l-63 -62zM501 2q6 -6 0 -12l-51 -52q-3 -2 -6.5 -2t-5.5 3l-170 170q-38 -19 -80 -19q-49 0 -90 24t-65 65t-24 89.5t24 90t65 65.5t90 24
q74 0 126.5 -52.5t52.5 -126.5q0 -56 -32 -102zM188 124q60 0 102.5 42.5t42.5 102.5t-42.5 102.5t-102.5 42.5t-102.5 -42.5t-42.5 -102.5q0 -40 19.5 -73t52.5 -52.5t73 -19.5z" />
  </g>

</svg>
