<?xml version="1.0" standalone="no"?>
<!DOCTYPE svg PUBLIC "-//W3C//DTD SVG 1.1//EN" "http://www.w3.org/Graphics/SVG/1.1/DTD/svg11.dtd" >
<svg xmlns="http://www.w3.org/2000/svg" xmlns:xlink="http://www.w3.org/1999/xlink" version="1.1" viewBox="-10 0 522 512">
  <g transform="matrix(1 0 0 -1 0 448)">
   <path fill="currentColor"
d="M174 362v-44l-42 -20l-52 35q-1 1 -3 1t-4 -1l-32 -24v53h133zM128.5 316q8.5 0 14.5 6t6 14.5t-6 14.5t-14.5 6t-14.5 -6t-6 -14.5t6 -14.5t14.5 -6zM128.5 345q8.5 0 8.5 -8.5t-8.5 -8.5t-8.5 8.5t8.5 8.5zM108 427l29 -29h-58zM186 273v92l16 14v-120zM178 374h-140
l-15 12h169zM128 286q2 -1 3 -1q2 0 3 1l40 18v-28h-133v18l36 27zM178 264l14 -12h-168l14 12h140zM29 365v-92l-15 -13v119zM395 349l17 -58h-84l17 58h50zM364 285h12v-76h-12v76zM148 120q-4 0 -7 3t-3 7q0 10 10 10t10 -10t-10 -10zM258 120q-4 0 -7 3t-3 7q0 10 10 10
t10 -10t-10 -10zM61 176q0 7 3.5 13.5t10 10t13.5 3.5h1h344h1q7 0 13.5 -3.5t10 -10t3.5 -13.5v-60q-12 -3 -21 -14t-9 -24v-19h-340v19q0 13 -9 24t-21 14v60zM340.5 158q-1.5 -2 -1.5 -4.5t1 -4.5l9 -8q-3 -5 -3 -11t3 -11l-9 -8q-2 -2 -2 -4q0 -6 6 -6q3 0 5 1l8 9
q5 -3 11 -3t11 3l8 -9q2 -1 5 -1q6 0 6 6q0 2 -2 4l-9 8q3 5 3 11t-3 11l9 8q2 2 2 5q0 6 -6 6q-3 0 -5 -2l-8 -9q-5 3 -11 3t-11 -3l-8 9q-2 2 -4.5 2t-4 -2zM230.5 158q-1.5 -2 -1.5 -4.5t1 -4.5l9 -8q-3 -5 -3 -11t3 -11l-9 -8q-1 -2 -1 -4q0 -6 6 -6q2 0 4 1l8 9
q5 -3 11 -3t11 3l8 -9q2 -1 5 -1q6 0 6 6q0 2 -2 4l-9 8q3 5 3 11t-3 11l9 8q2 2 2 5q0 6 -6 6q-3 0 -5 -2l-8 -9q-5 3 -11 3t-11 -3l-8 9q-2 2 -4.5 2t-4 -2zM120.5 158q-1.5 -2 -1.5 -4.5t1 -4.5l9 -8q-3 -5 -3 -11t3 -11l-9 -8q-1 -2 -1 -4q0 -6 6 -6q2 0 4 1l8 9
q5 -3 11 -3t11 3l8 -9q2 -1 5 -1q6 0 6 6q0 2 -2 4l-9 8q3 5 3 11t-3 11l9 8q2 2 2 5q0 6 -6 6q-3 0 -5 -2l-8 -9q-5 3 -11 3t-11 -3l-8 9q-2 2 -4.5 2t-4 -2zM368 120q-4 0 -7 3t-3 7q0 10 10 10t10 -10t-10 -10zM419 -20h56v-24h-56v24zM470 106q12 0 20 -8.5t8 -19.5v-86
h-474v86q0 11 8 19t19.5 8t19.5 -8t8 -19v-24q0 -7 6 -7h352q6 0 6 7v24q0 8 3.5 14t10 10t13.5 4zM47 -20h56v-24h-56v24z" />
  </g>

</svg>
