<?xml version="1.0" standalone="no"?>
<!DOCTYPE svg PUBLIC "-//W3C//DTD SVG 1.1//EN" "http://www.w3.org/Graphics/SVG/1.1/DTD/svg11.dtd" >
<svg xmlns="http://www.w3.org/2000/svg" xmlns:xlink="http://www.w3.org/1999/xlink" version="1.1" viewBox="-10 0 522 512">
  <g transform="matrix(1 0 0 -1 0 448)">
   <path fill="currentColor"
d="M265 362q16 -2 29.5 -11.5t21.5 -24.5t8 -32q0 -26 -17 -45t-42 -22v8q0 8 -9 8t-9 -8v-8q-25 3 -42 22t-17 45t17 45.5t42 22.5v-8q0 -8 9 -8t9 8v8zM230 277q7 0 12 5t5 12t-5 12t-12 5t-12 -5t-5 -12t5 -12t12 -5zM282 277q3 0 6 1.5t5.5 4t4 5.5t1.5 6q0 7 -5 12
t-12 5t-12 -5t-5 -12t5 -12t12 -5zM380 397q5 0 9 -4t4 -9v-384q0 -5 -4 -9t-9 -4h-248q-5 0 -9 4t-4 9v384q0 5 4 9t9 4h248zM256 4q35 0 60 25t25 60.5t-25 60.5t-60 25t-60 -25t-25 -60.5t25 -60.5t60 -25zM256 209q35 0 60 25t25 60q0 24 -11.5 43.5t-31 31t-42.5 11.5
q-35 0 -60 -25t-25 -60.5t25 -60.5t60 -25zM265 157q25 -3 42 -22t17 -45q0 -17 -8 -32t-21.5 -24.5t-29.5 -11.5v8q0 8 -9 8t-9 -8v-8q-25 3 -42 22.5t-17 45.5q0 17 8 31.5t21.5 24t29.5 11.5v-8q0 -8 9 -8t9 8v8zM230 73q7 0 12 5t5 12t-5 12t-12 5t-12 -5t-5 -12t5 -12
t12 -5zM282 73q7 0 12 5t5 12t-5 12t-12 5t-12 -5t-5 -12t5 -12t12 -5zM393 448q21 0 36 -15t15 -36v-410q0 -21 -15 -36t-36 -15h-274q-13 0 -25 7t-19 18.5t-7 25.5v410q0 21 15 36t36 15h274zM410 0v384q0 8 -4 15t-11 11t-15 4h-248q-12 0 -21 -9t-9 -21v-384
q0 -12 9 -21t21 -9h248q12 0 21 9t9 21z" />
  </g>

</svg>
