<?xml version="1.0" standalone="no"?>
<!DOCTYPE svg PUBLIC "-//W3C//DTD SVG 1.1//EN" "http://www.w3.org/Graphics/SVG/1.1/DTD/svg11.dtd" >
<svg xmlns="http://www.w3.org/2000/svg" xmlns:xlink="http://www.w3.org/1999/xlink" version="1.1" viewBox="-11 0 523 512">
  <g transform="matrix(1 0 0 -1 0 448)">
   <path fill="currentColor"
d="M153 400q-13 0 -24 6.5t-17.5 18t-6.5 24.5h260q0 -20 -14.5 -34.5t-34.5 -14.5h-163zM153 400zM194 360h-8q-7 0 -11.5 4.5t-4.5 11.5v8h24v-24zM194 360zM243 360v-98v-1q25 -3 41.5 -22t15.5 -44.5t-19 -43.5t-43 -19h-3q-17 0 -31.5 8t-23.5 22t-10 31
q-2 26 14.5 45.5t42.5 22.5v1v98h-17v24h90v-8q0 -7 -5 -11.5t-11 -4.5h-41zM243 229.5q0 8.5 -8 8.5q-17 0 -29 -12t-12 -29q0 -8 8 -8t8 8q0 10 7.5 17t17.5 7q8 0 8 8.5zM243 229zM406 262q26 0 45 -18.5t20 -44.5q0 -13 -4.5 -25.5t-13 -21t-20 -14t-24.5 -6.5h-3
q-27 0 -46 19t-19 46q0 18 8.5 33t23.5 23.5t33 8.5zM406 221q8 0 8 8.5t-8 8.5q-17 0 -29 -12t-12 -29q0 -8 8 -8t8 8q0 10 7.5 17t17.5 7zM406 221zM67 132h-3q-27 0 -46 18.5t-19 45.5t18.5 46t45 20t46 -17.5t20.5 -45t-17 -46.5t-45 -21zM40 197q0 10 7 17t17 7
q8 0 8 8.5t-8 8.5q-17 0 -29 -12t-12 -29q0 -8 8.5 -8t8.5 8zM40 197zM381 119q25 -7 49 0v-12q0 -17 -17 -23q1 0 1 -1v-20q0 -34 -21 -59.5t-53.5 -32.5t-62 8t-42.5 46q-14 -31 -43.5 -46t-62 -8t-53 32.5t-20.5 59.5v20v1q-16 6 -16 23v12q24 -7 48 0v-12q0 -17 -16 -23
v-1v-20q0 -21 10.5 -39t28 -28.5t38.5 -10.5q32 0 55 23t23 55v20v1q-17 6 -17 23v12q25 -7 49 0v-12q0 -17 -16 -23v-1v-20q0 -32 22.5 -55t54.5 -23t54.5 23t22.5 55v20l1 1q-17 6 -17 23v12zM381 119z" />
  </g>

</svg>
