<?xml version="1.0" standalone="no"?>
<!DOCTYPE svg PUBLIC "-//W3C//DTD SVG 1.1//EN" "http://www.w3.org/Graphics/SVG/1.1/DTD/svg11.dtd" >
<svg xmlns="http://www.w3.org/2000/svg" xmlns:xlink="http://www.w3.org/1999/xlink" version="1.1" viewBox="-10 0 522 512">
  <g transform="matrix(1 0 0 -1 0 448)">
   <path fill="currentColor"
d="M224 112q10 0 10 -10v-11q0 -10 -10 -10t-10 10v11q0 10 10 10zM288 112q10 0 10 -10v-11q0 -10 -10 -10t-10 10v11q0 10 10 10zM422 194v-2q0 -4 -3 -7l-1.5 -1.5t-1.5 -1t-2 -0.5h-2h-2t-2 0.5t-1.5 1l-1.5 1.5q-3 3 -3 7v2t0.5 2t1 1.5l1.5 1.5l1.5 1.5t1.5 1t2 0.5h4
q1 0 2 -0.5t1.5 -1l1.5 -1.5l1.5 -1.5t1 -1.5t0.5 -2zM465 233q10 0 10 -10v-63q0 -10 -10 -10h-20v-204q0 -10 -10 -10h-52q-10 0 -10 10v35h-234v-35q0 -10 -10 -10h-52q-10 0 -10 10v204h-20q-10 0 -10 10v63q0 10 10 10h7v42q0 10 10 10h12v41q0 10 10 10h161
q10 0 10 -10v-51q0 -10 -10 -10h-12v-32h123v50h-53q-4 0 -7 3t-3 8l8 116q1 16 12.5 27t27.5 11h82q16 0 28 -11t13 -27l7 -116q0 -5 -3 -8t-7 -3h-53v-50h55zM323 409l-5 -73h132l-4 73q-1 8 -7 13.5t-14 5.5h-82q-5 0 -10 -2.5t-7.5 -7t-2.5 -9.5zM316 303h136l-1 13
h-134zM390 283h-12v-50h12v50zM225 316v-31h12v31h-12zM96 316v-31h109v31h-109zM215 265h-109v-32h109v32zM74 265v-32h12v32h-12zM425 -44v71h-338v-71h32v35q0 10 10 10h254q10 0 10 -10v-35h32zM87 47h159v103h-159v-103zM425 47v103h-159v-103h159zM455 170v43h-398
v-11h313q10 0 10 -10t-10 -10h-313v-12h398z" />
  </g>

</svg>
