<?xml version="1.0" standalone="no"?>
<!DOCTYPE svg PUBLIC "-//W3C//DTD SVG 1.1//EN" "http://www.w3.org/Graphics/SVG/1.1/DTD/svg11.dtd" >
<svg xmlns="http://www.w3.org/2000/svg" xmlns:xlink="http://www.w3.org/1999/xlink" version="1.1" viewBox="-10 0 532 512">
  <g transform="matrix(1 0 0 -1 0 448)">
   <path fill="currentColor"
d="M371 72q10 0 10 -10t-10 -10h-72q-10 0 -10 10t10 10h72zM454 -14v-2v-2t-0.5 -2t-1 -1.5l-1.5 -1.5l-1.5 -1.5t-1.5 -1t-2 -0.5h-2h-2t-2 0.5t-1.5 1l-1.5 1.5l-1.5 1.5t-1 1.5t-0.5 2v2v2t0.5 2t1 1.5l1.5 1.5l1.5 1.5t1.5 1t2 0.5h4q1 0 2 -0.5t1.5 -1l1.5 -1.5
l1.5 -1.5t1 -1.5t0.5 -2zM502 109q10 0 10 -10v-146q0 -10 -10 -10h-492q-10 0 -10 10v77q0 10 10 10h8v37q0 10 10 10h44l5 38q-11 11 -11 27q0 4 1 7l-38 56q-13 4 -21 14.5t-8 24.5q0 13 7.5 23.5t19.5 15.5l67 70q-2 3 -2 6q0 4 3 7l63 62q3 3 7 3t7 -3l29 -28l4 3
q5 6 12 2l102 -67q4 -3 4.5 -7.5t-2.5 -7.5l-31 -31q11 -12 10.5 -28.5t-12.5 -28.5t-28 -12t-28 11l-31 -31q-3 -3 -7 -3h-1q-5 0 -8 4l-61 94l-43 -46q1 -4 1 -8t-1 -8l37 -54q13 -4 21.5 -15t8.5 -25q0 -16 -12 -28l-4 -37h33q10 0 10 -10v-37h27v59q0 10 10 10h290z
M422 89v-49h24v49h-24zM265 40h137v49h-137v-49zM222 89v-49h23v49h-23zM128 152.5q0 8.5 -6 14.5t-15 6t-15 -6t-6 -15q0 -6 3 -10.5t7.5 -7.5t10.5 -3q9 0 15 6.5t6 15zM115 112q-4 -1 -8 -1q-6 0 -11 2l-3 -26h19zM274 259q6 6 6.5 14t-5.5 14l-29 -29q6 -5 14 -5t14 6z
M213 393l-73 -73l55 -84l103 102zM165 417l-49 -48l22 -22l49 48zM108 349l-53 -56q9 -4 16 -12l51 54zM20 254q0 -6 3 -10.5t7.5 -7.5t10.5 -3q8 0 14.5 6t6.5 15t-6.5 15t-15 6t-14.5 -6t-6 -15zM53 215l24 -35q7 7 17 11l-24 35q-7 -8 -17 -11zM38 67v-27h117v27h-117z
M492 -37v57h-472v-26h382q10 0 10 -10t-10 -10h-382v-11h472zM492 40v49h-26v-49h26z" />
  </g>

</svg>
