<?xml version="1.0" standalone="no"?>
<!DOCTYPE svg PUBLIC "-//W3C//DTD SVG 1.1//EN" "http://www.w3.org/Graphics/SVG/1.1/DTD/svg11.dtd" >
<svg xmlns="http://www.w3.org/2000/svg" xmlns:xlink="http://www.w3.org/1999/xlink" version="1.1" viewBox="-10 0 522 512">
  <g transform="matrix(1 0 0 -1 0 448)">
   <path fill="currentColor"
d="M322 246q-36 26 -61 50v-10l136 -338q3 -8 -5 -11q-2 -1 -3 -1q-6 0 -8 5l-129 316q-2 4 -5 3t-3 -4v-235q0 -8 -8.5 -8t-8.5 8v235q0 3 -3.5 4t-5.5 -3l-129 -316q-2 -5 -8 -5q-1 0 -3 1q-8 3 -4 11l135 338v76q-16 35 1 59q23 33 87.5 25.5t128.5 -50.5q1 0 3 -2
q14 -12 9 -40t-26 -59q-17 -25 -37 -39.5t-37 -14.5q-6 0 -11 3q-2 0 -5 2zM328 286q-4 -20 4 -26q9 -6 28.5 6.5t37.5 38.5t23 49.5t-4 27.5h-1q-2 2 -5 2q-11 0 -27.5 -12.5t-32.5 -34.5q-18 -27 -23 -51z" />
  </g>

</svg>
