<?xml version="1.0" standalone="no"?>
<!DOCTYPE svg PUBLIC "-//W3C//DTD SVG 1.1//EN" "http://www.w3.org/Graphics/SVG/1.1/DTD/svg11.dtd" >
<svg xmlns="http://www.w3.org/2000/svg" xmlns:xlink="http://www.w3.org/1999/xlink" version="1.1" viewBox="-10 0 532 512">
  <g transform="matrix(1 0 0 -1 0 448)">
   <path fill="currentColor"
d="M474 435q15 0 26.5 -11t11.5 -27v-316q0 -16 -11.5 -27t-26.5 -11h-153q-2 -25 18 -39l15 -10q1 -1 2 -3q6 0 10 -3t6.5 -7.5t2.5 -10.5q0 -9 -6 -15t-15 -6h-196q-9 0 -15 6t-6 15q0 8 5.5 14t13.5 7q1 2 2 3l15 10q20 14 18 39h-153q-15 0 -26.5 11t-11.5 27v316
q0 10 5 19t14 14t19 5h436zM495 81v316q0 6 -3 10.5t-8 7.5t-10 3h-436q-8 0 -14.5 -6t-6.5 -15v-316q0 -9 6.5 -15t14.5 -6h149h138h149q8 0 14.5 6t6.5 15zM469 410q7 0 12 -5t5 -12v-308q0 -7 -5 -12t-12 -5h-426q-7 0 -12 5t-5 12v308q0 7 5 12t12 5h426zM130 382
l-25 -26q-6 -6 0 -12q2 -3 5.5 -3t6.5 3l26 25q6 6 0 12.5t-13 0.5zM54 347q-6 -6 0 -12q2 -2 5.5 -2t6.5 2l34 34q6 6 0 12.5t-12 0.5zM102 332.5q0 3.5 -2 6.5q-6 6 -12 0q-3 -3 -3 -6.5t2.5 -6t6 -2.5t6 2.5t2.5 6zM54 305q-6 -6 0 -12q2 -3 5.5 -3t6.5 3l17 17q6 6 0 12
t-12 0zM143 327q6 6 0 12t-13 0l-76 -77q-6 -6 0 -12q2 -3 5.5 -3t6.5 3zM159.5 343.5q2.5 2.5 2.5 6t-2 6.5q-6 6 -12 0q-3 -3 -3 -6.5t2.5 -6t6 -2.5t6 2.5zM185 369q6 6 0 12.5t-12 0.5l-8 -9q-6 -6 0 -12q2 -3 5.5 -3t6.5 3z" />
  </g>

</svg>
