<?xml version="1.0" standalone="no"?>
<!DOCTYPE svg PUBLIC "-//W3C//DTD SVG 1.1//EN" "http://www.w3.org/Graphics/SVG/1.1/DTD/svg11.dtd" >
<svg xmlns="http://www.w3.org/2000/svg" xmlns:xlink="http://www.w3.org/1999/xlink" version="1.1" viewBox="-10 0 530 512">
  <g transform="matrix(1 0 0 -1 0 448)">
   <path fill="currentColor"
d="M404 380q16 -8 31 -19.5t33.5 -31.5t30 -49t11.5 -62q0 -24 -2 -44.5t-7 -45t-15 -44.5t-25.5 -39.5t-39 -34.5t-53.5 -25q14 -3 22.5 -14.5t8.5 -25.5q0 -9 -8 -9h-273q-9 0 -9 9q0 15 9.5 26.5t24.5 14.5v18q0 15 15 19l21 6q9 3 16 -3q8 -6 8 -16v-23h27q-1 4 -1 9
q0 10 7.5 17.5t17.5 7.5q62 0 103.5 13.5t63 41t30 61t8.5 81.5q0 24 -9 46t-24 36.5t-26 22.5t-21 13l-4 -6q10 -25 14 -52q0 -3 -2.5 -6t-6.5 -3h-126q-4 -22 -20.5 -36.5t-39 -14.5t-39 14.5t-20.5 36.5h-126q-4 0 -6.5 3t-2.5 6q7 51 38 92t77.5 61.5t97.5 15.5t93 -34
l6 9q10 16 28.5 21.5t36 -2.5t25.5 -25t2 -36zM326 413l-6 -11q28 -23 46 -55l18 29l2 4q6 11 2 23.5t-14 19.5q-12 8 -26 5t-22 -15zM194 235q10 0 19 4t15 12t8 18h-83q3 -15 14.5 -24.5t26.5 -9.5zM246 286h124q-12 63 -61.5 104t-114 41t-114 -41t-61.5 -104h16
q4 11 9.5 23.5t19 32.5t30 35t43.5 26t57 11q9 0 9 -8.5t-9 -8.5q-32 0 -58.5 -12.5t-43 -32.5t-25.5 -35.5t-14 -30.5h193zM160 4v-17h26v23q0 1 -1 2t-2 1l-21 -6q-2 -1 -2 -3zM357 -30h-205q-18 0 -24 -17h253q-6 17 -24 17zM254 -13q61 0 105.5 13.5t70 34.5t40 53
t19 61.5t4.5 68.5q0 30 -10 56t-27 44t-31 28.5t-28 18.5l-9 -15q12 -6 24.5 -15.5t28 -25.5t25.5 -40t10 -51q0 -36 -4 -63.5t-18 -57t-37 -49t-64.5 -32t-98.5 -12.5q-8 0 -8 -8.5t8 -8.5zM254 -13z" />
  </g>

</svg>
