<?xml version="1.0" standalone="no"?>
<!DOCTYPE svg PUBLIC "-//W3C//DTD SVG 1.1//EN" "http://www.w3.org/Graphics/SVG/1.1/DTD/svg11.dtd" >
<svg xmlns="http://www.w3.org/2000/svg" xmlns:xlink="http://www.w3.org/1999/xlink" version="1.1" viewBox="-10 0 532 512">
  <g transform="matrix(1 0 0 -1 0 448)">
   <path fill="currentColor"
d="M247 73h18v-18h-18v18zM247 73zM292 84l12 12l12 -12l-12 -12zM292 84zM316 141h17v-17h-17v17zM316 141zM179 141h17v-17h-17v17zM179 141zM196 84l12 12l12 -12l-12 -12zM196 84zM427 4h17v-17h-17v17zM427 4zM471 16l12 12l13 -12l-13 -12zM471 16zM495 73h17v-18h-17
v18zM495 73zM358 73h17v-18h-17v18zM358 73zM375 16l12 12l12 -12l-12 -12zM375 16zM68 38h17v-17h-17v17zM68 38zM16 50l13 12l12 -12l-12 -12zM16 50zM0 107h17v-17h-17v17zM0 107zM137 107h17v-17h-17v17zM137 107zM113 50l12 12l12 -12l-12 -12zM113 50zM503 448
q9 0 9 -9v-34q0 -8 -9 -8h-59v-256h8q9 0 9 -9v-34q24 -18 15 -48q-5 -13 -16 -21t-25 -8t-25 8t-15 21q-10 30 15 48v34q0 9 8 9h9v256h-162v-188h8q9 0 9 -8v-35q24 -18 14 -47q-2 -7 -6 -12.5t-9 -9t-11.5 -6t-13.5 -2.5q-14 0 -25 8.5t-16 21.5q-9 29 15 47v35q0 8 9 8
h8v188h-162v-222h9q8 0 8 -9v-34q25 -18 15 -48q-4 -13 -15 -21t-25 -8t-25 8t-16 21q-9 30 15 48v34q0 9 9 9h8v222h-59q-9 0 -9 8v34q0 9 9 9h494zM77 73q10 0 17.5 7.5t7.5 18t-7.5 18t-17.5 7.5q-7 0 -13 -3.5t-9.5 -9.5t-3.5 -13q0 -5 2 -10t5.5 -8t8.5 -5t10 -2z
M68 141h17v17h-17v-17zM256 107q11 0 18.5 7.5t7.5 18t-7.5 18t-18.5 7.5t-18.5 -7.5t-7.5 -18t7.5 -18t18.5 -7.5zM247 175h18v17h-18v-17zM435.5 38q10.5 0 18 7.5t7.5 18.5t-7.5 18.5t-18 7.5t-18 -7.5t-7.5 -18.5t7.5 -18.5t18 -7.5zM427 107h17v17h-17v-17zM495 414v17
h-478v-17h478zM495 414z" />
  </g>

</svg>
