<?xml version="1.0" standalone="no"?>
<!DOCTYPE svg PUBLIC "-//W3C//DTD SVG 1.1//EN" "http://www.w3.org/Graphics/SVG/1.1/DTD/svg11.dtd" >
<svg xmlns="http://www.w3.org/2000/svg" xmlns:xlink="http://www.w3.org/1999/xlink" version="1.1" viewBox="-10 0 532 512">
  <g transform="matrix(1 0 0 -1 0 448)">
   <path fill="currentColor"
d="M468 13v-2v-2t-0.5 -2t-1 -1.5t-0.5 -1.5q-3 -3 -7.5 -3t-7.5 3t-3 7q0 1 0.5 2l1 2t1 1.5t1 1.5t1.5 1.5l2 1t2 0.5h3q1 0 2 -0.5l2 -1t1.5 -1.5t1 -1.5t1 -1.5t0.5 -2zM502 383q10 0 10 -10v-359q0 -10 -10 -10t-10 10v105h-133v-98h57q10 0 10 -10t-10 -10h-406
q-10 0 -10 10v2v1v359q0 10 10 10h23q17 0 29.5 -12.5t12.5 -29.5v-151h64q14 0 24 -10.5t10 -24.5v-134h17v22q0 10 10 10h26v150h-126q-10 0 -10 10v53q0 10 10 10h48v30h-10q-8 0 -9 9l-10 56q-1 4 2 7.5t7 3.5h59q5 0 8 -3.5t2 -7.5l-10 -56q-1 -9 -10 -9h-9v-30h176v30
h-9q-9 0 -10 9l-10 56q-1 4 2 7.5t8 3.5h59q4 0 7 -3.5t2 -7.5l-10 -56q-1 -9 -9 -9h-10v-30h48q10 0 10 -10v-53q0 -10 -10 -10h-126v-150h26q10 0 10 -10v-22h17v134q0 14 10 24.5t24 10.5h64v151q0 17 12.5 29.5t29.5 12.5h23zM20 363v-173h35v151q0 6 -3 11t-8 8t-11 3
h-13zM153 21v98h-133v-98h133zM153 139v16q0 6 -4 10.5t-10 4.5h-119v-31h133zM343 326h22l7 36h-36zM147 326h22l7 36h-36zM110 223h292v33h-292v-33zM266 203h-20v-150h20v150zM302 21v12h-92v-12h92zM492 139v31h-119q-6 0 -10 -4.5t-4 -10.5v-16h133zM492 190v173h-13
q-9 0 -15.5 -6.5t-6.5 -15.5v-151h35z" />
  </g>

</svg>
