<?xml version="1.0" standalone="no"?>
<!DOCTYPE svg PUBLIC "-//W3C//DTD SVG 1.1//EN" "http://www.w3.org/Graphics/SVG/1.1/DTD/svg11.dtd" >
<svg xmlns="http://www.w3.org/2000/svg" xmlns:xlink="http://www.w3.org/1999/xlink" version="1.1" viewBox="-10 0 532 512">
  <g transform="matrix(1 0 0 -1 0 448)">
   <path fill="currentColor"
d="M251 395h10l4 -4v-10l-4 -4h-10l-4 4v10zM313 271h10l4 -3v-11l-4 -3h-10l-4 3v11zM251 333h10l4 -3v-11l-4 -3h-10l-4 3v11zM313 333h10l4 -3v-11l-4 -3h-10l-4 3v11zM189 333h10l4 -3v-11l-4 -3h-10l-4 3v11zM251 271h10l4 -3v-11l-4 -3h-10l-4 3v11zM189 395h10l4 -4
v-10l-4 -4h-10l-4 4v10zM436 395h11l3 -4v-10l-3 -4h-11l-3 4v10zM436 271h11l3 -3v-11l-3 -3h-11l-3 3v11zM436 333h11l3 -3v-11l-3 -3h-11l-3 3v11zM189 271h10l4 -3v-11l-4 -3h-10l-4 3v11zM374 395h11l3 -4v-10l-3 -4h-11l-3 4v10zM374 271h11l3 -3v-11l-3 -3h-11l-3 3
v11zM313 395h10l4 -4v-10l-4 -4h-10l-4 4v10zM374 333h11l3 -3v-11l-3 -3h-11l-3 3v11zM127 271h11l3 -3v-11l-3 -3h-11l-3 3v11zM127 333h11l3 -3v-11l-3 -3h-11l-3 3v11zM65 395h11l3 -4v-10l-3 -4h-11l-3 4v10zM65 333h11l3 -3v-11l-3 -3h-11l-3 3v11zM65 271h11l3 -3
v-11l-3 -3h-11l-3 3v11zM0 166v35h512v-35v-18v-212h-71h-17h-53h-18h-53h-18h-52h-18h-53h-18h-53h-17h-71v212v18zM71 -46v53h-18v141h-35v-194h53zM141 -46v53h-17v141h-18v-141h-18v-53h53zM212 -46v53h-18v141h-17v-141h-18v-53h53zM282 -46v53h-17v141h-18v-141h-17
v-53h52zM353 -46v53h-18v141h-17v-141h-18v-53h53zM424 -46v53h-18v141h-18v-141h-17v-53h53zM494 -46v194h-35v-141h-18v-53h53zM127 395h11l3 -4v-10l-3 -4h-11l-3 4v10zM0 448h512v-230h-512v230zM97 254v17q0 4 -2 7l-9 9q-3 2 -7 2h-17q-4 0 -6 -2l-9 -9q-3 -3 -3 -7
v-17q0 -4 3 -6l9 -9q2 -3 6 -3h17q4 0 7 3l9 9q2 2 2 6zM97 316v17q0 4 -2 6l-9 9q-3 3 -7 3h-17q-4 0 -6 -3l-9 -9q-3 -2 -3 -6v-17q0 -4 3 -7l9 -8q2 -3 6 -3h17q4 0 7 3l9 8q2 3 2 7zM97 377v18q0 4 -2 6l-9 9q-3 3 -7 3h-17q-4 0 -6 -3l-9 -9q-3 -2 -3 -6v-18q0 -3 3 -6
l9 -9q2 -2 6 -2h17q4 0 7 2l9 9q2 3 2 6zM159 254v17q0 4 -3 7l-9 9q-2 2 -6 2h-17q-4 0 -7 -2l-8 -9q-3 -3 -3 -7v-17q0 -4 3 -6l8 -9q3 -3 7 -3h17q4 0 6 3l9 9q3 2 3 6zM159 316v17q0 4 -3 6l-9 9q-2 3 -6 3h-17q-4 0 -7 -3l-8 -9q-3 -2 -3 -6v-17q0 -4 3 -7l8 -8
q3 -3 7 -3h17q4 0 6 3l9 8q3 3 3 7zM159 377v18q0 4 -3 6l-9 9q-2 3 -6 3h-17q-4 0 -7 -3l-8 -9q-3 -2 -3 -6v-18q0 -3 3 -6l8 -9q3 -2 7 -2h17q4 0 6 2l9 9q3 3 3 6zM221 254v17q0 4 -3 7l-9 9q-2 2 -6 2h-18q-3 0 -6 -2l-9 -9q-2 -3 -2 -7v-17q0 -4 2 -6l9 -9q3 -3 6 -3
h18q4 0 6 3l9 9q3 2 3 6zM221 316v17q0 4 -3 6l-9 9q-2 3 -6 3h-18q-3 0 -6 -3l-9 -9q-2 -2 -2 -6v-17q0 -4 2 -7l9 -8q3 -3 6 -3h18q4 0 6 3l9 8q3 3 3 7zM221 377v18q0 4 -3 6l-9 9q-2 3 -6 3h-18q-3 0 -6 -3l-9 -9q-2 -2 -2 -6v-18q0 -3 2 -6l9 -9q3 -2 6 -2h18q4 0 6 2
l9 9q3 3 3 6zM282 254v17q0 4 -2 7l-9 9q-3 2 -6 2h-18q-3 0 -6 -2l-9 -9q-2 -3 -2 -7v-17q0 -4 2 -6l9 -9q3 -3 6 -3h18q3 0 6 3l9 9q2 2 2 6zM282 316v17q0 4 -2 6l-9 9q-3 3 -6 3h-18q-3 0 -6 -3l-9 -9q-2 -2 -2 -6v-17q0 -4 2 -7l9 -8q3 -3 6 -3h18q3 0 6 3l9 8q2 3 2 7
zM282 377v18q0 4 -2 6l-9 9q-3 3 -6 3h-18q-3 0 -6 -3l-9 -9q-2 -2 -2 -6v-18q0 -3 2 -6l9 -9q3 -2 6 -2h18q3 0 6 2l9 9q2 3 2 6zM344 254v17q0 4 -2 7l-9 9q-3 2 -6 2h-18q-4 0 -6 -2l-9 -9q-3 -3 -3 -7v-17q0 -4 3 -6l9 -9q2 -3 6 -3h18q3 0 6 3l9 9q2 2 2 6zM344 316v17
q0 4 -2 6l-9 9q-3 3 -6 3h-18q-4 0 -6 -3l-9 -9q-3 -2 -3 -6v-17q0 -4 3 -7l9 -8q2 -3 6 -3h18q3 0 6 3l9 8q2 3 2 7zM344 377v18q0 4 -2 6l-9 9q-3 3 -6 3h-18q-4 0 -6 -3l-9 -9q-3 -2 -3 -6v-18q0 -3 3 -6l9 -9q2 -2 6 -2h18q3 0 6 2l9 9q2 3 2 6zM406 254v17q0 4 -3 7
l-8 9q-3 2 -7 2h-17q-4 0 -6 -2l-9 -9q-3 -3 -3 -7v-17q0 -4 3 -6l9 -9q2 -3 6 -3h17q4 0 7 3l8 9q3 2 3 6zM406 316v17q0 4 -3 6l-8 9q-3 3 -7 3h-17q-4 0 -6 -3l-9 -9q-3 -2 -3 -6v-17q0 -4 3 -7l9 -8q2 -3 6 -3h17q4 0 7 3l8 8q3 3 3 7zM406 377v18q0 4 -3 6l-8 9
q-3 3 -7 3h-17q-4 0 -6 -3l-9 -9q-3 -2 -3 -6v-18q0 -3 3 -6l9 -9q2 -2 6 -2h17q4 0 7 2l8 9q3 3 3 6zM468 254v17q0 4 -3 7l-9 9q-2 2 -6 2h-17q-4 0 -7 -2l-9 -9q-2 -3 -2 -7v-17q0 -4 2 -6l9 -9q3 -3 7 -3h17q4 0 6 3l9 9q3 2 3 6zM468 316v17q0 4 -3 6l-9 9q-2 3 -6 3
h-17q-4 0 -7 -3l-9 -9q-2 -2 -2 -6v-17q0 -4 2 -7l9 -8q3 -3 7 -3h17q4 0 6 3l9 8q3 3 3 7zM468 377v18q0 4 -3 6l-9 9q-2 3 -6 3h-17q-4 0 -7 -3l-9 -9q-2 -2 -2 -6v-18q0 -3 2 -6l9 -9q3 -2 7 -2h17q4 0 6 2l9 9q3 3 3 6z" />
  </g>

</svg>
