<?xml version="1.0" standalone="no"?>
<!DOCTYPE svg PUBLIC "-//W3C//DTD SVG 1.1//EN" "http://www.w3.org/Graphics/SVG/1.1/DTD/svg11.dtd" >
<svg xmlns="http://www.w3.org/2000/svg" xmlns:xlink="http://www.w3.org/1999/xlink" version="1.1" viewBox="-10 0 533 512">
  <g transform="matrix(1 0 0 -1 0 448)">
   <path fill="currentColor"
d="M512 -54q2 -8 -7 -10h-2q-6 0 -8 7l-34 164l-35 -164q-1 -7 -8 -7h-2q-8 2 -6 10l40 195h-6q-7 0 -9 7l-7 44h-240v-68h-171v68h-8q-9 0 -9 9v34q0 8 9 8h17v26q0 8 8 8h9v17h-9q-8 0 -8 9v34q0 9 8 9h111q9 0 9 -9v-26h8q9 0 9 -8v-34q0 -9 -9 -9h-8v-17h136v6q0 8 6 14
t14 6h6v8h-86q-7 0 -12 5t-5 12v17h256v-17q0 -7 -5 -12t-12 -5h-85v-8h6q8 0 14 -6t6 -14v-6h110q9 0 9 -8v-34q0 -9 -9 -9h-9l-8 -44q-1 -7 -8 -7h-7zM111 149q8 0 8 8.5t-8 8.5h-17q-9 0 -9 -8.5t9 -8.5h17zM137 243v17h-86h-8v-17h94zM137 311v18h-94v-18h8h86zM17 38
v69h171v-69h-171zM94 81q-9 0 -9 -8.5t9 -8.5h17q8 0 8 8.5t-8 8.5h-17zM17 -55v76h171v-76q0 -9 -9 -9h-153q-9 0 -9 9zM94 -4q-9 0 -9 -8.5t9 -8.5h17q8 0 8 8.5t-8 8.5h-17zM469 431v-102h-256v102q0 7 5 12t12 5h222q7 0 12 -5t5 -12zM241 403q-6 -6 0 -12q3 -3 6.5 -3
t5.5 3l18 17q6 6 0 12t-13 0zM305 399q6 6 0 12t-12 0l-43 -42q-6 -6 0 -12q2 -3 6 -3t6 3z" />
  </g>

</svg>
