<?xml version="1.0" standalone="no"?>
<!DOCTYPE svg PUBLIC "-//W3C//DTD SVG 1.1//EN" "http://www.w3.org/Graphics/SVG/1.1/DTD/svg11.dtd" >
<svg xmlns="http://www.w3.org/2000/svg" xmlns:xlink="http://www.w3.org/1999/xlink" version="1.1" viewBox="-10 0 532 512">
  <g transform="matrix(1 0 0 -1 0 448)">
   <path fill="currentColor"
d="M177 101q-33 46 -59 95q-27 52 -27 83q0 68 48.5 116t116.5 48t116 -48v0q48 -48 49 -116q0 -31 -27 -83q-26 -49 -59 -95q-27 -38 -59 -77q-3 -4 -9 -11l-4 -5q-3 -3 -7 -3t-7 3l-4 5q-6 7 -9 11q-32 39 -59 77zM191 353q-19 -20 -24.5 -47t5 -53t33.5 -41t51 -15t51 15
t33.5 41t5 53t-24.5 47q-4 3 -9 2t-6.5 -6.5t2.5 -8.5q18 -19 20.5 -45t-12 -47.5t-39.5 -29.5t-49 2t-36.5 33.5t-7.5 49t25.5 42t46.5 16.5q9 0 9 9t-9 9q-38 1 -65 -26zM511 -46q2 -4 0 -9q-3 -5 -9 -4h-492q-6 -1 -9 5q-2 4 0 8l56 100q3 6 9 5h119q18 -24 37 -47
q2 -2 6 -7h-45q-9 0 -9 -9.5t9 -9.5h73v0h73q9 0 9 9.5t-9 9.5h-45q4 5 6 7q20 24 37 47h119q6 1 9 -5zM128 -41q9 0 9 9t-9 9h-73q-9 0 -9 -9t9 -9h73zM154 -0.5q2 3.5 1.5 7t-4.5 5.5l-27 18q-2 2 -5 2h-37q-9 0 -9 -9t9 -9h34l25 -17q3 -2 7 -1.5t6 4zM366 -5q2 0 5 2
l25 17h34q9 0 9 9t-9 9h-37q-3 0 -5 -2l-27 -18q-6 -4 -4 -10.5t9 -6.5zM457 -41q9 0 9 9t-9 9h-73q-9 0 -9 -9t9 -9h73z" />
  </g>

</svg>
