<?xml version="1.0" standalone="no"?>
<!DOCTYPE svg PUBLIC "-//W3C//DTD SVG 1.1//EN" "http://www.w3.org/Graphics/SVG/1.1/DTD/svg11.dtd" >
<svg xmlns="http://www.w3.org/2000/svg" xmlns:xlink="http://www.w3.org/1999/xlink" version="1.1" viewBox="-10 0 532 512">
  <g transform="matrix(1 0 0 -1 0 448)">
   <path fill="currentColor"
d="M489 420q10 0 16.5 -7t6.5 -16v-106v-4h-512v4v106q0 9 6.5 16t16.5 7h466zM85 306q16 0 27 11t11 26.5t-11 27t-26.5 11.5t-27 -11.5t-11.5 -26.5q0 -8 3 -15t8.5 -12t12.5 -8t14 -3zM293.5 315q9.5 0 9.5 9.5t-9.5 9.5t-9.5 -9.5t9.5 -9.5zM312.5 353q9.5 0 9.5 9.5
t-9.5 9.5t-9.5 -9.5t9.5 -9.5zM331.5 315q9.5 0 9.5 9.5t-9.5 9.5t-9.5 -9.5t9.5 -9.5zM350.5 353q9.5 0 9.5 9.5t-9.5 9.5t-9.5 -9.5t9.5 -9.5zM369.5 315q9.5 0 9.5 9.5t-9.5 9.5t-9.5 -9.5t9.5 -9.5zM388.5 353q9.5 0 9.5 9.5t-9.5 9.5t-9.5 -9.5t9.5 -9.5zM407.5 315
q9.5 0 9.5 9.5t-9.5 9.5t-9.5 -9.5t9.5 -9.5zM426.5 353q9.5 0 9.5 9.5t-9.5 9.5t-9.5 -9.5t9.5 -9.5zM445.5 315q9.5 0 9.5 9.5t-9.5 9.5t-9.5 -9.5t9.5 -9.5zM464.5 353q9.5 0 9.5 9.5t-9.5 9.5t-9.5 -9.5t9.5 -9.5zM66 344q0 8 5.5 13.5t13.5 5.5t13.5 -5.5t5.5 -13.5
t-5.5 -13.5t-13.5 -5.5t-13.5 5.5t-5.5 13.5zM66 211q0 8 5.5 13.5t13.5 5.5t13.5 -5.5t5.5 -13.5t-5.5 -13.5t-13.5 -5.5t-13.5 5.5t-5.5 13.5zM0 268h512v-4v-106v-4h-512v4v106v4zM85.5 173q15.5 0 26.5 11t11 27t-11 27t-26.5 11t-27 -11t-11.5 -27t11.5 -27t27 -11z
M293.5 183q9.5 0 9.5 9t-9.5 9t-9.5 -9t9.5 -9zM312.5 220q9.5 0 9.5 9.5t-9.5 9.5t-9.5 -9.5t9.5 -9.5zM331.5 183q9.5 0 9.5 9t-9.5 9t-9.5 -9t9.5 -9zM350.5 220q9.5 0 9.5 9.5t-9.5 9.5t-9.5 -9.5t9.5 -9.5zM369.5 183q9.5 0 9.5 9t-9.5 9t-9.5 -9t9.5 -9zM388.5 220
q9.5 0 9.5 9.5t-9.5 9.5t-9.5 -9.5t9.5 -9.5zM407.5 183q9.5 0 9.5 9t-9.5 9t-9.5 -9t9.5 -9zM426.5 220q9.5 0 9.5 9.5t-9.5 9.5t-9.5 -9.5t9.5 -9.5zM445.5 183q9.5 0 9.5 9t-9.5 9t-9.5 -9t9.5 -9zM464.5 220q9.5 0 9.5 9.5t-9.5 9.5t-9.5 -9.5t9.5 -9.5zM66 78
q0 8 5.5 13.5t13.5 5.5q5 0 9.5 -2.5t7 -7t2.5 -9.5q0 -8 -5.5 -13.5t-13.5 -5.5t-13.5 5.5t-5.5 13.5zM0 135h512v-4v-106q0 -9 -6.5 -16t-16.5 -7h-5q0 -15 -11.5 -26.5t-27 -11.5t-26.5 11.5t-11 26.5h-304q0 -15 -11 -26.5t-26.5 -11.5t-27 11.5t-11.5 26.5h-5
q-10 0 -16.5 7t-6.5 16v106v4zM464.5 107q-9.5 0 -9.5 -9.5t9.5 -9.5t9.5 9.5t-9.5 9.5zM445.5 69q-9.5 0 -9.5 -9.5t9.5 -9.5t9.5 9.5t-9.5 9.5zM426.5 107q-9.5 0 -9.5 -9.5t9.5 -9.5t9.5 9.5t-9.5 9.5zM66.5 -17q7.5 0 13 6t5.5 13h-38q0 -7 6 -13t13.5 -6zM85 40
q16 0 27 11.5t11 27t-11 26.5t-26.5 11t-27 -11t-11.5 -27q0 -7 3 -14.5t8.5 -12.5t12.5 -8t14 -3zM293.5 50q9.5 0 9.5 9.5t-9.5 9.5t-9.5 -9.5t9.5 -9.5zM312.5 88q9.5 0 9.5 9.5t-9.5 9.5t-9.5 -9.5t9.5 -9.5zM331.5 50q9.5 0 9.5 9.5t-9.5 9.5t-9.5 -9.5t9.5 -9.5z
M350.5 88q9.5 0 9.5 9.5t-9.5 9.5t-9.5 -9.5t9.5 -9.5zM369.5 50q9.5 0 9.5 9.5t-9.5 9.5t-9.5 -9.5t9.5 -9.5zM388.5 88q9.5 0 9.5 9.5t-9.5 9.5t-9.5 -9.5t9.5 -9.5zM398 59.5q0 -9.5 9.5 -9.5t9.5 9.5t-9.5 9.5t-9.5 -9.5zM445.5 -17q7.5 0 13.5 6t6 13h-38q0 -7 5.5 -13
t13 -6z" />
  </g>

</svg>
