<?xml version="1.0" standalone="no"?>
<!DOCTYPE svg PUBLIC "-//W3C//DTD SVG 1.1//EN" "http://www.w3.org/Graphics/SVG/1.1/DTD/svg11.dtd" >
<svg xmlns="http://www.w3.org/2000/svg" xmlns:xlink="http://www.w3.org/1999/xlink" version="1.1" viewBox="-11 0 523 512">
  <g transform="matrix(1 0 0 -1 0 448)">
   <path fill="currentColor"
d="M178 -6h-30q-31 0 -53 22t-22 52v3q8 -3 16.5 -3t16.5 3v-3q0 -17 12 -29t30 -12h21q2 -5 4 -15q3 -12 5 -18zM178 -6zM388 71v-3q0 -12 -4 -23t-11 -20.5t-16 -16.5t-20.5 -10.5t-23.5 -3.5h-30q2 6 5 18l3 15h22q17 0 29 12t12 29v3q17 -5 34 0zM388 71zM181 449h99v-8
q0 -17 -12 -29.5t-29 -12.5h-17q-8 0 -16 3.5t-13.5 9t-8.5 13t-3 16.5v8zM181 449zM305 126h-150q-14 0 -18 14l-6 36h199l-7 -36q-3 -14 -18 -14zM305 126zM312 110q-5 -45 -24 -58q-8 -5 -12.5 -19.5t-7 -28t-12 -24.5t-26.5 -11q-21 0 -30 17t-13.5 38.5t-14.5 27.5
q-19 13 -24 58h7h150h7zM312 110zM158 242h-137q-14 0 -16 14l-6 36h182l-6 -36q-3 -14 -17 -14zM158 242zM164 192h-53l10 -55q2 -8 7 -15q-4 -18 -12.5 -27.5t-25.5 -9.5q-22 0 -31 16.5t-13.5 38t-13.5 28.5q-19 12 -24 60q6 -2 13 -2h137q7 0 13 2q-2 -18 -7 -36z
M164 192zM440 242h-138q-14 0 -16 14l-6 36h182l-6 -36q-2 -14 -16 -14zM440 242zM452 228q-5 -48 -23 -60q-8 -6 -12.5 -20.5t-7 -28t-12 -24t-26.5 -10.5q-12 0 -20.5 5.5t-12 13t-6.5 18.5q6 7 7 15l10 55h-52q-6 18 -7 36q6 -2 12 -2h138q6 0 12 2zM452 228zM214 383h33
v-191h-33v191zM214 383z" />
  </g>

</svg>
