<?xml version="1.0" standalone="no"?>
<!DOCTYPE svg PUBLIC "-//W3C//DTD SVG 1.1//EN" "http://www.w3.org/Graphics/SVG/1.1/DTD/svg11.dtd" >
<svg xmlns="http://www.w3.org/2000/svg" xmlns:xlink="http://www.w3.org/1999/xlink" version="1.1" viewBox="-10 0 522 512">
  <g transform="matrix(1 0 0 -1 0 448)">
   <path fill="currentColor"
d="M317.5 282q0.5 -1 0.5 -2t-0.5 -2t-1 -1.5t-1 -1.5t-1 -1.5t-1.5 -1t-1.5 -1t-1.5 -1t-2 -0.5t-2 0.5l-2 1l-2 1t-1.5 1t-1 1.5t-1 1.5t-0.5 1.5v2v2t0.5 2l1 2t1 1.5t1.5 1l2 1t2 0.5q2 1 4 0q1 0 1.5 -0.5t1.5 -1t1.5 -1t1 -1.5l1 -2zM303 321q5 -8 -3.5 -13.5
t-13.5 3.5q-3 5 -6 9q-17 19 -38.5 19t-37.5 -19q-19 -23 -19 -56q0 -20 7 -37q4 -9 -5 -13q-2 -1 -4 -1q-7 0 -9 6q-9 21 -9 45q0 41 24 69q22 26 52.5 26t53.5 -26zM431 399q10 0 10 -10t-10 -10h-41v-132q0 -10 -10 -10h-24q-4 -26 -16 -47h6q14 0 24.5 -10.5t10.5 -24.5
t-9.5 -24.5t-23.5 -11.5q-4 -53 -49 -81l9 -40h31q10 0 10 -10v-42q0 -10 -10 -10h-193q-10 0 -10 10v42q0 10 10 10h30l9 42q-41 29 -45 79h-2q-15 0 -25 10.5t-10 25t10 25t25 10.5h6q-12 21 -17 47h-24q-10 0 -10 10v132h-12q-10 0 -10 10v49q0 10 10 10h322q10 0 10 -10
v-39h18zM125 264q0 36 15 66.5t40 48.5h-67v-122h12v7zM242 379q-40 0 -68.5 -33.5t-28.5 -81.5q0 -42 23 -74h148q23 32 23 74q0 48 -28.5 81.5t-68.5 33.5zM329 -22h-173v-22h173v22zM196 -2h91l-7 31q-17 -7 -36 -7q-21 0 -40 8zM244 42q33 0 57 22.5t27 54.5h-168
q3 -32 27 -54.5t57 -22.5zM346 170h-208q-4 0 -7.5 -2t-5.5 -5.5t-2 -7.5q0 -7 4.5 -11.5t10.5 -4.5h208q6 0 10.5 4.5t4.5 11t-4.5 11t-10.5 4.5zM370 257v122h-67q26 -18 41 -48.5t15 -66.5v-7h11zM393 399v29h-302v-29h302z" />
  </g>

</svg>
