<?xml version="1.0" standalone="no"?>
<!DOCTYPE svg PUBLIC "-//W3C//DTD SVG 1.1//EN" "http://www.w3.org/Graphics/SVG/1.1/DTD/svg11.dtd" >
<svg xmlns="http://www.w3.org/2000/svg" xmlns:xlink="http://www.w3.org/1999/xlink" version="1.1" viewBox="-10 0 522 512">
  <g transform="matrix(1 0 0 -1 0 448)">
   <path fill="currentColor"
d="M444 380q8 0 8 -9v-163q0 -44 -12.5 -86t-36.5 -78t-58 -62q-40 -32 -87 -46h-2h-2q-46 14 -87 46q-51 40 -79 100t-28 126v163q0 9 8 9q35 0 67 7t51 15.5t35.5 19.5t21 15.5t6.5 7.5q3 3 7 3t7 -3q2 -3 6.5 -7.5t21 -15.5t35.5 -19.5t51 -15.5t67 -7zM435 208v155
q-47 1 -88.5 14.5t-59.5 25.5t-31 24q-13 -12 -31 -24t-59.5 -25.5t-88.5 -14.5v-155q0 -62 26.5 -118.5t73.5 -94.5q37 -29 79 -42q42 13 79 42q47 38 73.5 94.5t26.5 118.5zM251 380q4 3 9 0.5t5 -7.5v-374q0 -5 -4 -7q-2 -2 -5 -2q-2 0 -3 1q-29 11 -55 31q-41 33 -64 82
t-23 104v115q0 8 7 9q77 10 133 48z" />
  </g>

</svg>
