<?xml version="1.0" standalone="no"?>
<!DOCTYPE svg PUBLIC "-//W3C//DTD SVG 1.1//EN" "http://www.w3.org/Graphics/SVG/1.1/DTD/svg11.dtd" >
<svg xmlns="http://www.w3.org/2000/svg" xmlns:xlink="http://www.w3.org/1999/xlink" version="1.1" viewBox="-10 0 532 512">
  <g transform="matrix(1 0 0 -1 0 448)">
   <path fill="currentColor"
d="M503 65l9 -60q0 -4 -2.5 -6.5t-6.5 -2.5h-494q-4 0 -6.5 2.5t-2.5 6.5l9 60q0 2 1 3v0q1 1 1 2l20 19h-22q-4 0 -6.5 3t-2.5 7l9 60q0 2 1 3v1l1 1l1 1h1h1l76 35h4h136q-2 3 -3 5q-8 17 -4 35t17 32q8 7 16 11q24 13 43 32t32 43q4 8 8 12q13 14 31.5 17.5t34.5 -4.5
q8 -3 18.5 -12.5t15 -15.5t7.5 -13q3 -4 11 -12l27 -23q11 -11 11.5 -27t-11 -27t-26.5 -11q-10 0 -18 4l-34 13l-54 -54q1 -2 2 -5h64h4l76 -35h1h1l1 -1l1 -1v-1q1 -1 1 -3l9 -60q0 -4 -2.5 -7t-6.5 -3h-22l20 -19q0 -1 1 -2v0q1 -1 1 -3zM416 183h-56l4 -13l2 -4h89z
M357 126q-11 -11 -26.5 -11t-26.5 11l-20 23h-122v-43h299h33l-6 43h-120q0 -3 -1 -6l-2 -6t-3 -5v-1q-2 -3 -5 -5zM361 347q-10 -10 -10 -24t10 -24t24.5 -10t24 10t9.5 24t-9 24q-10 10 -24.5 10t-24.5 -10zM307 281q-6 -6 0 -12l6 -6q2 -3 6 -3t6 3l24 24q6 6 0 12l-6 6
q-6 6 -12 0t0 -12l-12 -12q-6 6 -12 0zM264 250q-10 -10 -10 -24t10 -24t24 -10t24 10t10 24t-10 24q-9 10 -23.5 10t-24.5 -10zM191 183l-17 -17h91h-1l-2 2t-2 1q-2 2 -4 3t-3 3q-1 0 -2 1l-2 2l-1 1q-1 0 -2.5 1.5t-1.5 2.5h-53zM145 13v42h-121l-6 -42h127zM145 106v43
h-121l-6 -43h33h94zM57 166h93l17 17h-71zM162 13h332l-6 42h-326v-42zM392.5 115q-8.5 0 -8.5 9v8q0 9 8.5 9t8.5 -9v-8q0 -9 -8.5 -9zM418.5 115q-8.5 0 -8.5 9v8q0 9 8.5 9t8.5 -9v-8q0 -9 -8.5 -9zM443.5 115q-8.5 0 -8.5 9v8q0 9 8.5 9t8.5 -9v-8q0 -9 -8.5 -9z
M397.5 311q-4.5 -5 -12 -5t-12.5 5t-5 12t5 12t12 5t12 -5t5 -12t-4.5 -12zM300 214q-5 -5 -12 -5t-12 5t-5 12t5 12t12 5t12 -5t5 -12t-5 -12z" />
  </g>

</svg>
