<?xml version="1.0" standalone="no"?>
<!DOCTYPE svg PUBLIC "-//W3C//DTD SVG 1.1//EN" "http://www.w3.org/Graphics/SVG/1.1/DTD/svg11.dtd" >
<svg xmlns="http://www.w3.org/2000/svg" xmlns:xlink="http://www.w3.org/1999/xlink" version="1.1" viewBox="-10 0 532 512">
  <g transform="matrix(1 0 0 -1 0 448)">
   <path fill="currentColor"
d="M154 13q-33 3 -55 27.5t-22 57.5t22 57.5t55 27.5v-25q0 -9 8.5 -9t8.5 9v25q32 -3 54 -27.5t22 -57.5t-22 -57.5t-54 -27.5v25q0 9 -8.5 9t-8.5 -9v-25zM188 115q-7 0 -12 -5t-5 -12q0 -5 2 -8.5t6 -6t9 -2.5q7 0 12 5t5 12q0 5 -2.5 9t-6.5 6t-8 2zM137 115
q-8 0 -13 -5t-5 -12q0 -5 2.5 -8.5t6.5 -6t9 -2.5q7 0 12 5t5 12q0 5 -2.5 9t-6.5 6t-8 2zM503 337q9 0 9 -8v-65q0 -67 -45 -116q-40 -45 -40 -105v-22q0 -17 -12.5 -29.5t-30.5 -12.5h-9v-34q0 -9 -8.5 -9t-8.5 9v34h-8q-14 0 -26 8q0 -21 -15 -36t-36 -15h-222
q-21 0 -36 15t-15 36v222q0 21 15 36t36 15h171v2v2v65q0 8 8 8h26v85q0 11 7.5 18.5t18 7.5t18 -7.5t7.5 -18.5v-85h120v85q0 11 7.5 18.5t18 7.5t18 -7.5t7.5 -18.5v-85h25zM273 422v-85h17v85q0 9 -8.5 9t-8.5 -9zM231 209h-167q-5 0 -9 -3.5t-4 -9.5v-196q0 -5 4 -9
t9 -4h196q6 0 9.5 4t3.5 9v140q-4 6 -6 8q-5 5 -10 11q-1 2 -1 2.5t-1 1t-1 1.5q-3 5 -5 7q-1 2 -3 5l-0.5 1l-0.5 1l-2 4q-3 5 -5 9q0 1 -0.5 2l-0.5 1q-3 7 -5 13q-1 1 -1 1.5v0.5zM307 21v22q0 38 -17 71v-114q0 -12 -8.5 -21t-21.5 -9h-196q-12 0 -21 9t-9 21v196
q0 13 9 21.5t21 8.5h162q-1 8 -3 16v1h-172q-14 0 -24 -10t-10 -24v-222q0 -14 10 -24t24 -10h222q14 0 24 10t10 24v34zM427 209q8 0 8 8.5t-8 8.5h-120q-8 0 -8 -8.5t8 -8.5h120zM427 243q8 0 8 8.5t-8 8.5h-120q-8 0 -8 -8.5t8 -8.5h120zM461 337v85q0 9 -8.5 9t-8.5 -9
v-85h17z" />
  </g>

</svg>
