<?xml version="1.0" standalone="no"?>
<!DOCTYPE svg PUBLIC "-//W3C//DTD SVG 1.1//EN" "http://www.w3.org/Graphics/SVG/1.1/DTD/svg11.dtd" >
<svg xmlns="http://www.w3.org/2000/svg" xmlns:xlink="http://www.w3.org/1999/xlink" version="1.1" viewBox="-10 0 532 512">
  <g transform="matrix(1 0 0 -1 0 448)">
   <path fill="currentColor"
d="M503 157q9 0 9 -9t-9 -9h-9v-9q0 -9 -8.5 -9t-8.5 9v9h-18v-97q0 -7 -5 -12.5t-13 -5.5h-17v-9q0 -4 -2.5 -8t-6.5 -6.5t-9 -2.5h-71q-7 0 -12 5t-5 12v124h-18v-9q0 -9 -9 -9t-9 9v9h-8q-9 0 -9 9t9 9h8v9q0 8 9 8t9 -8v-9h18v9q0 10 7.5 18t18.5 8h89q11 0 18.5 -8
t7.5 -18v-9h18v9q0 8 8.5 8t8.5 -8v-9h9zM406 166q0 4 2 8h-64q-9 0 -9 -8v-151h71v151zM441 157v9q0 8 -8.5 8t-8.5 -8v-9h17zM441 157zM132.5 236q8.5 0 8.5 9q0 11 -7.5 18.5t-18.5 7.5h-9q-7 0 -13 -3.5t-10 -9.5t-4 -13v-37q-31 13 -50.5 45t-19.5 71q0 52 31 88t75 36
t75 -36t31 -88q0 -33 -14.5 -61.5t-39 -45t-52.5 -16.5q-9 0 -18 2v42q0 9 9 9h9q9 0 9 -9t8.5 -9zM47 384q-4 -4 -2.5 -9t6.5 -6.5t8 2.5l36 35q3 4 2 9t-6 6.5t-9 -2.5zM50 309l97 97q4 4 3 9t-6 6.5t-9 -2.5l-97 -97q-6 -6 0 -12.5t12 -0.5zM50 309zM87 95h55l16 -141
h-86zM87 95zM2 166q-2 8 -2 17h230q-1 -29 -21.5 -49.5t-49.5 -20.5h-88q-41 0 -61 35h34q9 0 9 9t-9 9h-42zM79 166q-8 0 -8 -9t8 -9h9q9 0 9 9t-9 9h-9zM79 166zM300 271h194v-35h-194v35zM300 271zM300 289v159h88v-159h-88zM362 377q-9 0 -9 -8.5t9 -8.5h9q9 0 9 8.5
t-9 8.5h-9zM362 377zM406 448h88v-159h-88v159zM433 360q8 0 8 8.5t-8 8.5h-9q-9 0 -9 -8.5t9 -8.5h9zM433 360z" />
  </g>

</svg>
