<?xml version="1.0" standalone="no"?>
<!DOCTYPE svg PUBLIC "-//W3C//DTD SVG 1.1//EN" "http://www.w3.org/Graphics/SVG/1.1/DTD/svg11.dtd" >
<svg xmlns="http://www.w3.org/2000/svg" xmlns:xlink="http://www.w3.org/1999/xlink" version="1.1" viewBox="-10 0 522 512">
  <g transform="matrix(1 0 0 -1 0 448)">
   <path fill="currentColor"
d="M251 308q-10 2 -17 10t-7 19q0 10 6.5 18t16.5 10v61q0 6 6 6t6 -6v-61q6 -1 11.5 -5.5t8.5 -10.5t3 -12q0 -11 -7 -19t-17 -10h-10zM78 258q-11 2 -18 10t-7 19q0 12 8.5 20.5t21 8.5t21 -8.5t8.5 -20.5q0 -11 -7 -19t-18 -10h-9zM425 258q-11 2 -18 10t-7 19
q0 12 8.5 20.5t21.5 8.5q5 0 10.5 -2.5t9.5 -6t6.5 -9t2.5 -11.5q0 -11 -7 -19t-18 -10h-9zM429.5 246h2.5h3h27v-8h-27q1 -1 1 -2v-11q0 -39 -27.5 -66t-65.5 -27q-22 0 -46 14t-35 33v-134q0 -34 24 -57.5t57 -23.5t57 23.5t24 57.5v11v1h-27v8h27h3h3h2h3h27v-8h-26v-1
v-11q0 -39 -27 -66t-66 -27q-27 0 -52.5 18t-34.5 43q-9 -25 -34.5 -43t-52.5 -18q-39 0 -66 27t-27 66v11q0 1 1 2h-27v8h27h3h2.5h2.5h3h27v-8h-27v-2v-11q0 -34 24 -57.5t57 -23.5t57 23.5t24 57.5v134q-11 -19 -35 -33t-46 -14q-38 0 -65.5 27t-27.5 66v11q0 1 1 2h-27
v8h27h3h2.5h2.5h3h27v-8h-27v-2v-11q0 -34 24 -57.5t57 -23.5t57 23.5t24 57.5v61v0.5v1.5h-26v8h26h3h3h3h3h26v-8h-26v-1.5v-0.5v-61q0 -34 24 -57.5t57 -23.5t57 23.5t24 57.5v11v2h-27v8h27h3h2.5zM87 78h-9q-11 2 -18 10t-7 19q0 12 8.5 20.5t21 8.5t21 -8.5t8.5 -20.5
q0 -11 -7 -19t-18 -10zM400 106v0q0 12 8.5 20.5t21 8.5t21 -8.5t8.5 -20.5q0 -11 -7 -19t-18 -10h-9q-11 2 -18 10t-7 19z" />
  </g>

</svg>
