<?xml version="1.0" standalone="no"?>
<!DOCTYPE svg PUBLIC "-//W3C//DTD SVG 1.1//EN" "http://www.w3.org/Graphics/SVG/1.1/DTD/svg11.dtd" >
<svg xmlns="http://www.w3.org/2000/svg" xmlns:xlink="http://www.w3.org/1999/xlink" version="1.1" viewBox="-10 0 522 512">
  <g transform="matrix(1 0 0 -1 0 448)">
   <path fill="currentColor"
d="M311 269q5 0 5 -4v-35q0 -4 -5 -4h-110q-5 0 -5 4v35q0 4 5 4h110zM392 -19q1 -4 -1.5 -7.5t-6.5 -3.5h-34q-6 0 -8 6l-20 63l-40 13v-107q0 -9 -9 -9h-34q-9 0 -9 9v107l-40 -13l-20 -63q-2 -6 -8 -6h-34q-4 0 -6.5 3.5t-1.5 7.5l72 225q1 3 4 3h120q3 0 4 -3zM230 70
v93l-33 -104zM282 70l33 -11l-33 104v-93zM392 297q2 -4 -1 -7.5t-7 -3.5h-256q-4 0 -7 3.5t-1 7.5l51 145q2 6 8 6h154q6 0 8 -6z" />
  </g>

</svg>
