<?xml version="1.0" standalone="no"?>
<!DOCTYPE svg PUBLIC "-//W3C//DTD SVG 1.1//EN" "http://www.w3.org/Graphics/SVG/1.1/DTD/svg11.dtd" >
<svg xmlns="http://www.w3.org/2000/svg" xmlns:xlink="http://www.w3.org/1999/xlink" version="1.1" viewBox="-10 0 532 512">
  <g transform="matrix(1 0 0 -1 0 448)">
   <path fill="currentColor"
d="M336 288v-2v-2t-0.5 -1.5t-1 -1.5t-1.5 -2q-3 -3 -7 -3q-1 0 -2 0.5t-1.5 0.5t-1.5 1l-1.5 1.5l-1.5 1.5t-1 1.5t-0.5 1.5t-0.5 2t0.5 2t0.5 2t1 2l1.5 1.5t1.5 1t1.5 1t1.5 0.5q6 1 9 -3q1 0 1.5 -1l1 -2t0.5 -2zM286 296q10 0 10 -10t-10 -10h-186v-141q0 -10 -10 -10
t-10 10v151q0 10 10 10h196zM439.5 336q13.5 0 23.5 -9.5t10 -23.5t-10 -24t-23.5 -10t-23.5 10t-10 24t10 23.5t23.5 9.5zM439.5 289q5.5 0 9.5 4t4 9.5t-4 9.5t-9.5 4t-9.5 -4t-4 -9.5t4 -9.5t9.5 -4zM439.5 262q13.5 0 23.5 -9.5t10 -23.5t-10 -23.5t-23.5 -9.5
t-23.5 9.5t-10 23.5t10 23.5t23.5 9.5zM440 216q3 0 6 1.5t5 5t2 6.5q0 6 -4 9.5t-9.5 3.5t-9.5 -3.5t-4 -9t4 -9.5t10 -4zM422 168q10 0 10 -10v-63q0 -10 -10 -10t-10 10v63q0 10 10 10zM457 168q10 0 10 -10v-63q0 -10 -10 -10t-10 10v63q0 10 10 10zM479 376
q14 0 23.5 -9.5t9.5 -23.5v-265q0 -13 -8.5 -22t-20.5 -11v-27q0 -10 -10 -10h-69q-10 0 -10 10v27h-276v-27q0 -10 -10 -10h-69q-10 0 -10 10v27q-12 2 -20.5 11t-8.5 22v265q0 14 9.5 23.5t23.5 9.5h446zM98 28v17h-49v-17h49zM463 28v17h-49v-17h49zM492 78v265
q0 3 -1 5.5t-3 4t-4 2.5t-5 1h-446q-5 0 -9 -3.5t-4 -9.5v-265q0 -6 4 -9.5t9 -3.5h446q5 0 9 3.5t4 9.5zM374 336q10 0 10 -10v-231q0 -10 -10 -10h-324q-10 0 -10 10v231q0 10 10 10h324zM364 105v81l-81 -81h81zM364 215v34l-144 -144h34zM364 277v39h-304v-211h131z" />
  </g>

</svg>
