<?xml version="1.0" standalone="no"?>
<!DOCTYPE svg PUBLIC "-//W3C//DTD SVG 1.1//EN" "http://www.w3.org/Graphics/SVG/1.1/DTD/svg11.dtd" >
<svg xmlns="http://www.w3.org/2000/svg" xmlns:xlink="http://www.w3.org/1999/xlink" version="1.1" viewBox="-11 0 534 512">
  <g transform="matrix(1 0 0 -1 0 448)">
   <path fill="currentColor"
d="M414 163v-2v-2t-0.5 -2l-1 -2t-1 -1.5t-1.5 -1l-2 -1t-2 -0.5h-2h-2t-1.5 0.5t-1.5 1t-2 1.5q-3 3 -3 7q0 1 0.5 2t0.5 2t0.5 1.5l1.5 1.5t2 1.5t1.5 0.5t1.5 1h4q1 -1 2 -1t2 -0.5t1.5 -1.5l1 -2t1 -1.5t0.5 -1.5zM512 217q2 -15 -5.5 -28.5t-21.5 -18.5v-95
q0 -10 -10 -10h-22v-30q0 -10 -10 -10h-39q-10 0 -10 10v30h-276v-30q0 -10 -10 -10h-39q-10 0 -10 10v30h-22q-10 0 -10 10v95q-14 5 -21.5 18.5t-5.5 28.5q3 16 15.5 26.5t28.5 10.5h8v37q0 28 20 48t48 20h272q28 0 48 -20t20 -48v-37h8q16 0 28.5 -10.5t15.5 -26.5z
M331 339v-119h95h1q3 14 13 23v48q0 13 -6.5 24t-17.5 17.5t-24 6.5h-61zM365 171q10 0 10 -10t-10 -10h-280v-17h342v66h-1h-340h-1v-29h280zM201 339v-119h110v119h-110zM72 291v-48q10 -9 13 -23h1h95v119h-61q-20 0 -34 -14t-14 -34zM98 45v20h-19v-20h19zM433 45v20
h-19v-20h19zM473 187q9 2 14.5 9.5t4.5 17.5q-2 9 -8.5 14.5t-15.5 5.5q-6 0 -11 -2q-10 -6 -10 -19v-89q0 -10 -10 -10h-362q-10 0 -10 10v89q0 13 -10 19q-5 2 -11 2q-9 0 -15.5 -5.5t-8.5 -14.5q-1 -10 4.5 -17.5t14.5 -9.5q8 -2 8 -10v-92h418v92q0 8 8 10zM270 279
l3 -2q7 -7 0 -14q-3 -3 -7.5 -3t-7.5 3l-2 2l-2 -2q-3 -3 -7.5 -3t-7.5 3q-7 7 0 14l3 2l-3 3q-7 7 0 14t15 0l2 -3l2 3q8 7 15 0t0 -14zM400 279l2 -2q7 -7 0 -14q-3 -3 -7 -3t-7 3l-3 2l-2 -2q-3 -3 -7 -3t-7 3q-7 7 0 14l2 2l-2 3q-7 7 0 14t14 0l2 -3l3 3q7 7 14 0
t0 -14zM141 279l2 -2q7 -7 0 -14q-3 -3 -7 -3t-7 3l-2 2l-3 -2q-3 -3 -7 -3t-7 3q-7 7 0 14l2 2l-2 3q-7 7 0 14t14 0l3 -3l2 3q7 7 14 0t0 -14z" />
  </g>

</svg>
