<?xml version="1.0" standalone="no"?>
<!DOCTYPE svg PUBLIC "-//W3C//DTD SVG 1.1//EN" "http://www.w3.org/Graphics/SVG/1.1/DTD/svg11.dtd" >
<svg xmlns="http://www.w3.org/2000/svg" xmlns:xlink="http://www.w3.org/1999/xlink" version="1.1" viewBox="-10 0 522 512">
  <g transform="matrix(1 0 0 -1 0 448)">
   <path fill="currentColor"
d="M366.5 -38q-5.5 0 -9.5 4t-4 10v154h27v-154q0 -6 -4 -10t-9.5 -4zM424 -24q0 -6 -4 -10t-9.5 -4t-9.5 4t-4 10v154h27v-154zM468 179q0 -6 -4 -9.5t-9 -3.5q-4 0 -7 1.5t-5 4.5t-2 7v110q0 9 -8.5 9t-8.5 -9v-141h-71v141q0 9 -9 9t-9 -9v-110q0 -6 -3.5 -9.5t-9 -3.5
t-9.5 3.5t-4 9.5v110q0 15 10.5 25t24.5 10h89q14 0 24.5 -10t10.5 -25v-110zM83.5 -38q-5.5 0 -9 4t-3.5 10v119h26v-119q0 -6 -4 -10t-9.5 -4zM141 -24q0 -6 -4 -10t-9 -4t-9 4t-4 10v119h26v-119zM198 172q-13 -3 -16 9l-32 111q-2 8 -10.5 5.5t-6.5 -10.5l49 -174h-153
l50 174q2 8 -6.5 10.5t-10.5 -5.5l-32 -111q-4 -12 -16.5 -8.5t-8.5 16.5l31 110q4 11 13 18t21 7h85q13 0 17 -12l35 -123q2 -6 -1 -10.5t-8 -6.5zM238 439q0 7 1.5 8t7.5 1h18q6 0 7.5 -1t1.5 -8v-494q0 -7 -1.5 -8t-7.5 -1h-18q-6 0 -7.5 1t-1.5 8v494zM71 386.5
q0 14.5 10 25t25 10.5t25 -10.5t10 -25t-10 -25t-25 -10.5t-25 10.5t-10 25zM353 386.5q0 14.5 10.5 25t25 10.5t25 -10.5t10.5 -25.5q0 -9 -5 -17.5t-13 -13t-18 -4.5q-14 0 -24.5 10.5t-10.5 25z" />
  </g>

</svg>
