<?xml version="1.0" standalone="no"?>
<!DOCTYPE svg PUBLIC "-//W3C//DTD SVG 1.1//EN" "http://www.w3.org/Graphics/SVG/1.1/DTD/svg11.dtd" >
<svg xmlns="http://www.w3.org/2000/svg" xmlns:xlink="http://www.w3.org/1999/xlink" version="1.1" viewBox="-10 0 532 512">
  <g transform="matrix(1 0 0 -1 0 448)">
   <path fill="currentColor"
d="M327 303.5v-1.5v-2t-0.5 -2l-1 -2t-1.5 -1.5t-1.5 -1t-1.5 -1t-2 -0.5h-2h-2t-2 0.5t-1.5 1t-1.5 1t-1.5 1.5l-1 2t-0.5 2v2v1.5t0.5 1.5l1 2t1.5 1.5t1.5 1t1.5 1t2 0.5q2 1 4 0q1 0 2 -0.5t1.5 -1t1.5 -1t1.5 -1.5l1 -2t0.5 -1.5zM327 72.5v-1.5v-2t-0.5 -2l-1 -2
t-1.5 -1.5t-1.5 -1t-1.5 -1t-2 -0.5h-2h-2t-2 0.5t-1.5 1t-1.5 1t-1.5 1.5l-1 2t-0.5 2v2v1.5t0.5 1.5l1 2t1.5 1.5t1.5 1t1.5 1t2 0.5q2 1 4 0q1 0 2 -0.5t1.5 -1t1.5 -1t1.5 -1.5l1 -2t0.5 -1.5zM502 442q10 0 10 -10v-480q0 -10 -10 -10h-32q-10 0 -10 10v35h-66v-35
q0 -10 -10 -10h-32q-10 0 -10 10v35h-290v-35q0 -10 -10 -10h-32q-10 0 -10 10v480q0 10 10 10h32q10 0 10 -10v-18h56q26 0 45 -18.5t19 -45.5v-7h170v89q0 10 10 10h32q10 0 10 -10v-89h66v89q0 10 10 10h32zM32 -38v460h-12v-460h12zM172 323v-11h103q10 0 10 -10
t-10 -10h-99q8 -14 23 -14h143v45h-170zM52 394v-51h100v7q0 18 -13 31t-31 13h-56zM52 323v-45h109q-9 13 -9 28v17h-100zM52 164v-51h100v7q0 18 -13 31t-31 13h-56zM52 93v-44h109q-9 12 -9 27v17h-100zM342 7v22h-290v-22h290zM275 81q10 0 10 -10t-10 -10h-98
q8 -12 22 -12h143v44h-170v-12h103zM342 113v104h-290v-33h56q26 0 45 -18.5t19 -45.5v-7h170zM342 237v21h-290v-21h290zM374 -38v460h-12v-460h12zM460 7v22h-66v-22h66zM460 49v44h-66v-44h66zM460 113v104h-66v-104h66zM460 237v21h-66v-21h66zM460 278v45h-66v-45h66z
M492 -38v460h-12v-460h12z" />
  </g>

</svg>
