<?xml version="1.0" standalone="no"?>
<!DOCTYPE svg PUBLIC "-//W3C//DTD SVG 1.1//EN" "http://www.w3.org/Graphics/SVG/1.1/DTD/svg11.dtd" >
<svg xmlns="http://www.w3.org/2000/svg" xmlns:xlink="http://www.w3.org/1999/xlink" version="1.1" viewBox="-10 0 532 512">
  <g transform="matrix(1 0 0 -1 0 448)">
   <path fill="currentColor"
d="M499 175q34 -124 -22 -160q-6 -4 -13 -4q-9 0 -16 6l-78 67q-14 13 -34 13h-160q-20 0 -34 -13l-78 -67q-14 -11 -29 -2q-56 36 -22 160q19 71 56 142l2 6q5 22 12 24l66 24q13 5 24 -3q16 -9 21 -10h26v-11q-1 -7 0 -14q5 -22 27 -26q3 -1 6 -1q14 0 24 10t10 24v6v12
h33q5 1 19 10q11 8 24 3l66 -24q7 -2 12 -24q2 -6 2 -7q37 -70 56 -141zM83 267.5q0 -17.5 12.5 -30t30 -12.5t30 12.5t12.5 30t-12.5 30t-30 12.5t-30 -12.5t-12.5 -30zM255 174v22q0 6 -4 10.5t-10 4.5h-20v19q0 6 -4 10.5t-10 4.5h-22q-6 0 -10.5 -4.5t-4.5 -10.5v-19
h-19q-4 0 -7.5 -2t-5.5 -5.5t-2 -7.5v-22q0 -6 4.5 -10.5t10.5 -4.5h19v-19q0 -6 4.5 -10.5t10.5 -4.5h22q6 0 10 4.5t4 10.5v19h20q6 0 10 4.5t4 10.5zM381 318q-7 0 -12 -5t-5 -12t5 -12t12 -5t12 5t5 12t-5 12t-12 5zM347 284q-7 0 -12 -5t-5 -12t5 -12t12 -5t12 5t5 12
t-5 12t-12 5zM321.5 139q17.5 0 30 12.5t12.5 30.5q0 9 -3.5 16.5t-9 13.5t-13.5 9.5t-16.5 3.5t-16.5 -3.5t-13.5 -9.5t-9 -13.5t-3.5 -16.5q0 -18 12.5 -30.5t30 -12.5zM381 216q5 0 8.5 2.5t6 6.5t2.5 8q0 7 -5 12t-12 5t-12 -5t-5 -12t5 -12t12 -5zM415 250q7 0 12 5
t5 12t-5 12t-12 5t-12 -5t-5 -12t5 -12t12 -5zM100 267.5q0 10.5 7.5 18t18 7.5t18 -7.5t7.5 -18.5q0 -7 -3.5 -12.5t-9 -9t-12.5 -3.5q-11 0 -18.5 7.5t-7.5 18zM204 228v-35h34v-17h-34v-34h-17v34h-34v17h34v35h17zM250 323q-11 2 -13 14q-1 3 0 7v14h33v-15v-3
q0 -7 -5 -12q-6 -6 -15 -5zM296 182q0 7 3.5 13t9 9.5t12.5 3.5q11 0 18.5 -7.5t7.5 -18.5t-7.5 -18.5t-18 -7.5t-18 7.5t-7.5 18.5z" />
  </g>

</svg>
