<?xml version="1.0" standalone="no"?>
<!DOCTYPE svg PUBLIC "-//W3C//DTD SVG 1.1//EN" "http://www.w3.org/Graphics/SVG/1.1/DTD/svg11.dtd" >
<svg xmlns="http://www.w3.org/2000/svg" xmlns:xlink="http://www.w3.org/1999/xlink" version="1.1" viewBox="-10 0 522 512">
  <g transform="matrix(1 0 0 -1 0 448)">
   <path fill="currentColor"
d="M457 119q-6 -12 -30 -21q-17 -7 -35 -11q19 33 27 70q19 -1 34 -14q10 -11 4 -24zM457 119zM127 181l-14 2l-1 0.5l-1 0.5q-6 1 -14 2q41 15 132.5 15t132.5 -15l-14 -2l-1 -0.5t-2 -0.5q-7 -1 -13 -2h-4q-1 -1 -2 -1q-6 -1 -11 -1q-2 0 -7 -1q-6 0 -11 -1h-8
q-5 -1 -12 -1q-5 -1 -7 -1h-14h-2.5h-3.5q-11 -1 -20.5 -1t-20.5 1h-4h-2h-14q-1 0 -7 1q-7 0 -12 1h-7q-6 1 -11.5 1.5t-7.5 0.5q-5 0 -11 1l-2.5 0.5t-3.5 0.5zM127 181zM405 182q-8 -74 -58 -124.5t-117 -50.5q-71 0 -119 52q-50 52 -57 123q11 -5 23 -9q57 -16 153 -16
q22 0 44 1q55 2 108 15q12 4 23 9zM88 130q2 0 3 1q6 1 6 8q0 9 -9 9t-9 -9t9 -9zM157.5 54.5q4.5 7.5 -2.5 12.5q-28 18 -46 46q-2 4 -7.5 4t-7.5 -4.5t0 -8.5q20 -32 51 -52q8 -5 12.5 2.5zM157 55zM163 2q67 -27 133 0q37 -5 47 -13q-17 -15 -94 -17h-1q-6 -1 -16 -1h-1
h-1h-1q-9 0 -18 1q-78 2 -95 17q10 8 47 13zM163 2zM97 -11q0 -6 4 -10q-32 4 -55.5 10t-34.5 11.5t-11 10.5q0 3 7 7.5t31.5 12t62.5 12.5q16 -16 36 -28q-40 -9 -40 -26zM97 -11zM404 35q20 -4 33.5 -9.5t17.5 -9t4 -5.5q0 -5 -11 -10.5t-34.5 -11.5t-55.5 -10q4 4 4 10
q0 4 -1.5 7t-11 9t-26.5 10q4 3 9 7q36 4 72 13zM404 35zM423 192q29 -1 51 -19q22 -21 20 -52q0 -44 -92 -68h-1q-19 -5 -43 -9q11 10 20 22q28 5 55 15q31 13 39 30q13 25 -6 45q-19 17 -44 18q1 9 1 18zM423 192zM245 -46h1.5h2.5q114 2 179 21q-68 -39 -198.5 -39
t-198.5 39q65 -19 179 -21h20h6h6h3zM245 -46zM229.5 236q52.5 0 94.5 -5.5t61.5 -12.5t20.5 -13v0q-3 -6 -22 -12q-23 25 -154.5 25t-154.5 -25q-21 7 -22 12q1 6 20.5 13t61.5 12.5t94.5 5.5zM230 236zM179 274q-6 6 0 12q7 9 6 21q1 11 -6 20q-12 14 -11 33q-1 18 11 32
q4 4 9 3t6 -6t-2 -9q-7 -9 -7 -20q0 -12 7 -21q12 -14 11 -32q1 -19 -11 -33q-3 -3 -6.5 -3t-6.5 3zM179 274zM244.5 445.5q2.5 -2.5 2.5 -6t-2 -6.5q-7 -9 -7 -20q0 -12 7 -21q12 -14 11 -32q1 -19 -11 -33q-7 -6 -13 0t0 12q7 9 6 21q1 11 -6 20q-12 14 -11 33
q-1 18 11 32q3 3 6.5 3t6 -2.5zM245 445zM297.5 392.5q2.5 -2.5 2.5 -6t-2 -6.5q-7 -9 -7 -20q0 -12 7 -21q12 -14 11 -32q1 -19 -11 -33q-7 -6 -13 0t0 12q7 9 6 21q1 11 -6 20q-12 14 -11 33q-1 18 11 32q3 3 6.5 3t6 -2.5zM298 392z" />
  </g>

</svg>
