<?xml version="1.0" standalone="no"?>
<!DOCTYPE svg PUBLIC "-//W3C//DTD SVG 1.1//EN" "http://www.w3.org/Graphics/SVG/1.1/DTD/svg11.dtd" >
<svg xmlns="http://www.w3.org/2000/svg" xmlns:xlink="http://www.w3.org/1999/xlink" version="1.1" viewBox="-11 0 534 512">
  <g transform="matrix(1 0 0 -1 0 448)">
   <path fill="currentColor"
d="M205 320l42 -77h-85zM350 243h-85l42 77zM256 405l43 -76h-86zM301 130l-36 -28v-21h8q9 0 9 -8v-35q0 -1 -1 -2l-17 -51q-2 -6 -8 -6t-8 6l-17 51q-1 1 -1 2v35q0 8 9 8h8v21l-36 28l45 100zM162 112q-2 -5 -8 -5h-35q-4 0 -6.5 4t-0.5 8l27 54l-5 5l-51 -52
q-3 -2 -6.5 -2t-5.5 2l-26 26q-3 3 -2.5 7t3.5 6l66 44q0 1 -1 5l-82 -30q-2 -1 -3 -1q-6 0 -8 6l-17 42q-2 4 0 7.5t6 4.5l97 15v1.5v2.5l-71 7q-5 0 -7 5l-25 60q-3 5 1.5 9t9.5 2l101 -44q13 34 34 59q4 5 10.5 1.5t3.5 -10.5q-10 -28 -13.5 -51.5t-2 -37.5t6.5 -25
t9 -15t9 -6q12 -7 18 -18q10 -19 -4 -31q-1 -1 -3 -2zM511 238.5q2 -3.5 0 -7.5l-17 -42q-2 -6 -8 -6q-1 0 -3 1l-82 30q-1 -4 -1 -5l66 -44q3 -2 3.5 -6t-2.5 -7l-26 -26q-2 -2 -5.5 -2t-6.5 2l-51 52l-5 -5l27 -54q2 -4 -0.5 -8t-6.5 -4h-35q-6 0 -8 5l-19 53q-2 1 -3 2
q-14 12 -4 31q6 11 18 18q6 3 11.5 10t10.5 21.5t2 41.5t-15 62q-3 7 3.5 10.5t10.5 -1.5q21 -25 34 -59l101 44q5 2 9.5 -2t1.5 -9l-25 -60q-2 -5 -7 -5l-71 -7v-2.5v-1.5l97 -15q4 -1 6 -4.5zM163 55q37 0 42 -23q1 -9 -7 -10.5t-10 6.5q-2 10 -26 10q-16 1 -18 -3
q-2 -5 8 -17q5 -6 -1 -12q-3 -2 -6 -2q-4 0 -6 3q-18 21 -10 36q7 14 34 12zM190 104q6 6 12 0t0 -12l-25 -26q-3 -2 -6.5 -2t-5.5 2q-6 7 0 13zM349 55q26 2 33 -12q8 -15 -8 -36q-3 -3 -7 -3q-3 0 -5 2q-7 6 -2 12q10 12 7 17q-2 4 -18 3q-23 0 -25 -10q-2 -8 -10 -6.5
t-7 9.5q5 24 42 24zM335 66l-25 26q-6 6 0 12t12 0l25 -25q6 -6 0 -13q-2 -2 -5.5 -2t-6.5 2z" />
  </g>

</svg>
