<?xml version="1.0" standalone="no"?>
<!DOCTYPE svg PUBLIC "-//W3C//DTD SVG 1.1//EN" "http://www.w3.org/Graphics/SVG/1.1/DTD/svg11.dtd" >
<svg xmlns="http://www.w3.org/2000/svg" xmlns:xlink="http://www.w3.org/1999/xlink" version="1.1" viewBox="-10 0 533 512">
  <g transform="matrix(1 0 0 -1 0 448)">
   <path fill="currentColor"
d="M274 178q10 -6 14.5 -17t1.5 -22t-12.5 -18t-21 -7t-20.5 7t-12.5 18t1 22t14.5 17v30h35v-30zM274 178zM453 109q10 -6 14.5 -16.5t1.5 -21.5t-12 -18.5t-21 -7.5t-21 7.5t-12 18.5t1.5 21.5t14.5 16.5v31h34v-31zM453 109zM94 143q10 -5 14.5 -16t1.5 -22t-12 -18
t-21 -7q-8 0 -14.5 3t-11.5 9t-7 13q-3 11 1.5 22t14.5 16v31h34v-31zM94 143zM248 413h17v-188h-17v188zM248 413zM68 413h18v-222h-18v222zM68 413zM428 413h17v-256h-17v256zM428 413zM248 88h17v-17h-17v17zM248 88zM293 100l12 12l12 -12l-12 -12zM293 100zM316 157h17
v-17h-17v17zM316 157zM180 157h17v-17h-17v17zM180 157zM196 100l12 12l12 -12l-12 -12zM196 100zM428 20h17v-17h-17v17zM428 20zM472 31l12 12l13 -12l-13 -12zM472 31zM496 88h17v-17h-17v17zM496 88zM359 88h17v-17h-17v17zM359 88zM376 31l12 12l12 -12l-12 -12z
M376 31zM68 54h18v-17h-18v17zM68 54zM16 66l13 12l12 -12l-12 -12zM16 66zM0 123h17v-18h-17v18zM0 123zM137 123h17v-18h-17v18zM137 123zM113 66l12 12l12 -12l-12 -13zM113 66zM17 447h479v-17h-479v17zM17 447z" />
  </g>

</svg>
