<?xml version="1.0" standalone="no"?>
<!DOCTYPE svg PUBLIC "-//W3C//DTD SVG 1.1//EN" "http://www.w3.org/Graphics/SVG/1.1/DTD/svg11.dtd" >
<svg xmlns="http://www.w3.org/2000/svg" xmlns:xlink="http://www.w3.org/1999/xlink" version="1.1" viewBox="-10 0 522 512">
  <g transform="matrix(1 0 0 -1 0 448)">
   <path fill="currentColor"
d="M439 -27v-37h-439v36q1 21 7.5 35t10.5 17t7 4l116 34q20 -35 78.5 -35t78.5 35l116 -34q3 -1 7 -4t10.5 -16.5t7.5 -34.5zM311 258q-1 -9 -4 -25t-3 -31q0 -3 0.5 -12.5t0 -13t-2 -10.5t-6 -13t-11.5 -12q-9 -8 -16.5 -18.5t-11.5 -16.5t-9.5 -10.5t-13.5 -4.5h-13
h-10.5t-7 0.5t-6.5 1.5t-4.5 2t-4.5 3.5l-4 5l-6 7.5q-6 10 -12 17h19q6 -9 16 -9h37q7 0 12.5 5.5t5.5 12.5v18q0 5 -2.5 9.5t-6.5 7t-9 2.5h-37q-7 0 -12.5 -5.5t-5.5 -13.5v-9h-35q-10 11 -12 21.5t-2 27.5q2 19 -2 38q-6 31 -2 47q6 24 23 43q5 4 11 5q94 6 125 -9
q9 -7 16 -25.5t6 -35.5zM101 174h15q1 -15 9 -28h-6q-4 0 -7.5 1.5t-6 4t-3.5 6t-1 7.5v9zM329 257v8h18q10 0 10 -9v-55q0 -9 -10 -9h-24q-1 17 0 25t3 17.5t3 22.5zM234 73q8 0 14 2t11 6.5t8 8t8.5 11t7.5 11.5v-37q-6 -19 -34.5 -26.5t-57.5 0t-36 26.5v37q4 -5 8 -11
q5 -6 8.5 -10.5t6 -7.5t7 -5t6.5 -3t8.5 -1.5t8.5 -0.5h12h14zM219.5 430q-73.5 0 -112.5 -55q12 35 44.5 54.5t68 19.5t68 -19.5t44.5 -54.5q-39 55 -112.5 55zM140 336q-20 -23 -27 -53h-12v36q8 42 42 68t76 24q28 2 53.5 -9.5t42.5 -33t23 -49.5v-36h-11q-9 40 -29 52
q-29 18 -135 11q-13 -1 -23 -10zM201 155h37v-18h-37v18zM91 192q-9 0 -9 9v55q0 9 9 9h19q-1 -11 3 -30t4 -27q-1 -15 -1 -16h-25z" />
  </g>

</svg>
