<?xml version="1.0" standalone="no"?>
<!DOCTYPE svg PUBLIC "-//W3C//DTD SVG 1.1//EN" "http://www.w3.org/Graphics/SVG/1.1/DTD/svg11.dtd" >
<svg xmlns="http://www.w3.org/2000/svg" xmlns:xlink="http://www.w3.org/1999/xlink" version="1.1" viewBox="-10 0 532 512">
  <g transform="matrix(1 0 0 -1 0 448)">
   <path fill="currentColor"
d="M503 384q9 0 9 -9v-366q0 -9 -9 -9h-494q-9 0 -9 9v366q0 9 9 9h494zM162 158q4 4 2.5 9t-7 6.5t-8.5 -2.5l-128 -137q-4 -4 -2.5 -9t7 -6.5t8.5 2.5zM490.5 21q6.5 6 0.5 13l-128 137q-3 4 -8.5 2.5t-7 -6.5t2.5 -9l128 -137q6 -6 12.5 0zM490 350q7 5 1.5 12t-12.5 2
l-211 -178q-12 -10 -24 0l-211 178q-4 3 -9 1t-5.5 -7t3.5 -8l210 -178q11 -8 24 -8t24 8z" />
  </g>

</svg>
