<?xml version="1.0" standalone="no"?>
<!DOCTYPE svg PUBLIC "-//W3C//DTD SVG 1.1//EN" "http://www.w3.org/Graphics/SVG/1.1/DTD/svg11.dtd" >
<svg xmlns="http://www.w3.org/2000/svg" xmlns:xlink="http://www.w3.org/1999/xlink" version="1.1" viewBox="-10 0 522 512">
  <g transform="matrix(1 0 0 -1 0 448)">
   <path fill="currentColor"
d="M245 431q-39 0 -66.5 -27.5t-27.5 -66.5v-358h52q8 0 8 -9v-25q0 -9 -8 -9h-120q-8 0 -8 9v25q0 9 8 9h51v358q0 46 32.5 78.5t78.5 32.5t78.5 -32.5t32.5 -78.5v-34v-1q29 -3 48.5 -25t19.5 -51q0 -8 -8 -8h-27q-2 -13 -11 -22t-22 -12q-17 -3 -32 6.5t-18 27.5h-27
q-8 0 -8 8q0 29 19.5 51t48.5 25v1v34q0 39 -27.5 66.5t-66.5 27.5zM348 201q18 0 24 17h-49q7 -17 25 -17zM356 285q-24 4 -44 -11t-24 -39h119q-3 19 -17 33t-34 17zM194 -38h-102v-9h102v9zM347.5 175q8.5 0 8.5 -9v-34q0 -8 -8.5 -8t-8.5 8v34q0 9 8.5 9zM402 149
q4 -7 -3.5 -11.5t-11.5 3.5l-17 29q-4 8 3.5 12t11.5 -3zM433 187q8 -5 3.5 -12.5t-11.5 -2.5l-30 17q-7 4 -3 11.5t12 3.5zM303 200.5q4 -7.5 -3 -11.5l-29 -17h-1q-7 -4 -11 3t3 12l30 17q7 4 11 -3.5zM322 181.5q7 -4.5 3 -11.5l-17 -29v-1q-4 -7 -11.5 -2.5t-3.5 11.5
l17 30q5 7 12 2.5z" />
  </g>

</svg>
