<?xml version="1.0" standalone="no"?>
<!DOCTYPE svg PUBLIC "-//W3C//DTD SVG 1.1//EN" "http://www.w3.org/Graphics/SVG/1.1/DTD/svg11.dtd" >
<svg xmlns="http://www.w3.org/2000/svg" xmlns:xlink="http://www.w3.org/1999/xlink" version="1.1" viewBox="-10 0 532 512">
  <g transform="matrix(1 0 0 -1 0 448)">
   <path fill="currentColor"
d="M165 341.5q0 5.5 4 9.5t9 4t9 -4t4 -9.5t-4 -9t-9 -3.5t-9 3.5t-4 9zM295 307q0 5 4 9t9 4t9 -4t4 -9q0 -4 -1.5 -7t-4.5 -4.5t-7 -1.5q-5 0 -9 4t-4 9zM505 186q7 -6 7 -15v-170q0 -8 -5.5 -13.5t-13.5 -5.5h-474q-8 0 -13.5 5.5t-5.5 13.5v170q0 9 7 15q2 3 4 5l79 71
q3 3 8 3h1q6 48 40 113q4 7 11 9l38 14q10 4 18 -2l5 -3q1 -1 2 -1h80q1 0 2 1l5 3q8 6 18 2l38 -14q7 -2 11 -9q34 -65 40 -113h9q4 0 8 -3l77 -71q3 -2 4 -5zM312 372v-17h18v17h-18zM278 363v-17h17v17h-17zM308.5 337q-12.5 0 -21.5 -8.5t-9 -21.5t9 -21.5t21.5 -8.5
t21 8.5t8.5 21.5t-8.5 21.5t-21 8.5zM226 320h-18v-17h-17v-18h17v-17h18v17h17v18h-17v17zM177.5 372q-12.5 0 -21 -9t-8.5 -21.5t8.5 -21.5t21 -9t21.5 9t9 21.5t-9 21.5t-21.5 9zM98 246l-62 -56h441l-63 57h-6v-0.5v-1.5q0 -2 -1 -4v-3t-1 -4v-1v-2q-1 -2 -2 -5
q0 -1 -0.5 -3t-1.5 -3q0 -1 -1 -3q-1 -1 -1.5 -2.5t-1.5 -2.5t-2 -2.5t-2 -1.5q-1 -2 -2 -3q-1 0 -1.5 -0.5l-0.5 -0.5q-2 -2 -5 -4q-2 -1 -5 -2h-1q-2 -1 -3 -1q-7 0 -12 5l-46 39q-2 1 -4 3q-6 3 -13 3h-97h-4h-1q-2 -1 -3 -1t-1 -1q-2 -1 -4 -1l-3 -3l-46 -39
q-10 -9 -21 -2q-3 2 -5 4q-1 0 -1 0.5t-1 0.5l-3 3l-1 1q-1 2 -2 3q0 1 -1 2q-1 2 -2 3t-1 2l-2 4q0 2 -1 2q0 2 -1 5v1q-1 3 -1 7l-0.5 1l-0.5 1v5v1zM234 -1v17h-217v-15q0 -2 2 -2h215zM43 77h131v17h-131v-17zM191 77h17v17h-17v-17zM234 155v14h-215l-1 0.5l-1 0.5v-15
h217zM495 1v15h-243v-17h241q2 0 2 2zM399 85.5q0 -14.5 10.5 -24.5t24.5 -10t24.5 10t10.5 24.5t-10.5 24.5t-24.5 10t-24.5 -10t-10.5 -24.5zM495 155v15l-1 -0.5l-1 -0.5h-241v-14h243zM417 86q0 7 5 12t12 5t12 -5t5 -12t-5 -12.5t-12 -5.5t-12 5.5t-5 12.5z" />
  </g>

</svg>
