<?xml version="1.0" standalone="no"?>
<!DOCTYPE svg PUBLIC "-//W3C//DTD SVG 1.1//EN" "http://www.w3.org/Graphics/SVG/1.1/DTD/svg11.dtd" >
<svg xmlns="http://www.w3.org/2000/svg" xmlns:xlink="http://www.w3.org/1999/xlink" version="1.1" viewBox="-10 0 522 512">
  <g transform="matrix(1 0 0 -1 0 448)">
   <path fill="currentColor"
d="M171 218q-13 0 -21.5 8.5t-8.5 21t8.5 21t21.5 8.5h12l-27 64l46 -11l30 29l24 -39l24 39l30 -29l46 11l-27 -64h12q13 0 21.5 -8.5t8.5 -21t-8.5 -21t-21.5 -8.5h-16l8 -86h-154l8 86h-16zM171 260q-6 0 -9.5 -3.5t-3.5 -9t3.5 -9t9.5 -3.5h17h136h17q6 0 9.5 3.5
t3.5 8.5q0 4 -1.5 7t-4.5 4.5t-7 1.5h-20h-130h-20zM256 363q-18 0 -30.5 12.5t-12.5 30t12.5 30t30.5 12.5t30.5 -12.5t12.5 -30.5q0 -11 -6 -21t-15.5 -15.5t-21.5 -5.5zM375 -4h18v-60h-274v60h18v15q0 10 4.5 18t12.5 13t17 5l3 26h164l3 -26q14 0 24 -10.5t10 -25.5
v-15zM175 90l3 25h156l3 -25h-162z" />
  </g>

</svg>
