<?xml version="1.0" standalone="no"?>
<!DOCTYPE svg PUBLIC "-//W3C//DTD SVG 1.1//EN" "http://www.w3.org/Graphics/SVG/1.1/DTD/svg11.dtd" >
<svg xmlns="http://www.w3.org/2000/svg" xmlns:xlink="http://www.w3.org/1999/xlink" version="1.1" viewBox="-10 0 532 512">
  <g transform="matrix(1 0 0 -1 0 448)">
   <path fill="currentColor"
d="M495 380q7 0 12 -5t5 -12v-34q0 -4 -1.5 -7t-3.5 -5.5t-5.5 -4t-6.5 -1.5h-60v-84q10 -8 12 -20l5 -24l59 -91q2 -4 0 -8.5t-6 -4.5l-26 -5q0 -15 -10 -26.5t-25 -14.5t-28.5 4.5t-18.5 21.5l-26 -4q-1 -1 -2 -1q-4 0 -6.5 3.5t-1.5 7.5l23 106l-4 24q-2 12 4 22v94h-102
v-88q8 -10 8 -22v-24l42 -101q2 -4 -0.5 -8t-7.5 -4h-26q-3 -15 -15 -24.5t-27 -9.5t-27 9.5t-15 24.5h-26q-5 0 -7.5 4t-0.5 8l42 101v24q0 12 8 22v88h-102v-94q6 -10 4 -22l-4 -24l23 -106q1 -4 -1.5 -7.5t-6.5 -3.5q-1 0 -2 1l-26 4q-5 -14 -18.5 -21.5t-28.5 -4.5
t-25 14.5t-10 26.5l-26 5q-4 0 -6 4.5t0 8.5l59 91l5 24q2 12 12 20v84h-60q-7 0 -12 5t-5 13v34q0 4 2.5 8t6 6.5t8.5 2.5h162v51q0 5 2.5 8.5t6.5 6t8 2.5h120q7 0 12 -5t5 -12v-51h162zM196 431v-51h120v51h-120zM115 198q2 10 -5.5 16t-17 3t-11.5 -13l-3 -17l17 -3
l17 -3zM71 50q18 -3 27 12l-48 9q3 -18 21 -21zM111 77l21 -3l-20 90l-39 7l-50 -78l21 -4zM111 233v78h-17v-76q9 1 17 -2zM273 201q0 7 -5 12t-12 5t-12 -5t-5 -12v-18h34v18zM256 47q18 0 24 17h-48q6 -17 24 -17zM290 81h21l-35 85h-40l-35 -85h89zM265 233v78h-18v-78
q9 3 18 0zM423 215q-9 6 -18.5 0t-7.5 -17l3 -17l17 3l17 3l-3 17q-2 7 -8 11zM441 50q18 3 21 21l-48 -9q9 -15 27 -12zM468 89l21 4l-50 78l-39 -7l-20 -90l21 3zM418 235v76h-17v-78q8 3 17 2zM427 329h68v34h-478v-34h410zM427 329zM265 -55q0 -9 -9 -9t-9 9v59q0 9 9 9
t9 -9v-59zM265 -55zM166 -19q-3 -4 -8 -2.5t-6 6.5t3 9l44 39q4 4 9 2.5t6 -6.5t-3 -8zM166 -19zM352 -21q-4 0 -6 2l-44 40q-4 3 -3 8t5.5 6.5t8.5 -2.5l44 -39q5 -4 3 -9.5t-8 -5.5zM352 -21z" />
  </g>

</svg>
