<?xml version="1.0" standalone="no"?>
<!DOCTYPE svg PUBLIC "-//W3C//DTD SVG 1.1//EN" "http://www.w3.org/Graphics/SVG/1.1/DTD/svg11.dtd" >
<svg xmlns="http://www.w3.org/2000/svg" xmlns:xlink="http://www.w3.org/1999/xlink" version="1.1" viewBox="-10 0 526 512">
  <g transform="matrix(1 0 0 -1 0 448)">
   <path fill="currentColor"
d="M147.5 -38q8.5 0 8.5 -9v-8q0 -9 -8.5 -9t-8.5 9v8q0 9 8.5 9zM121.5 -38q8.5 0 8.5 -9v-8q0 -9 -8.5 -9t-8.5 9v8q0 9 8.5 9zM95.5 -38q8.5 0 8.5 -9v-8q0 -9 -8.5 -9t-8.5 9v8q0 9 8.5 9zM70.5 -38q8.5 0 8.5 -9v-8q0 -9 -8.5 -9t-8.5 9v8q0 9 8.5 9zM44.5 -38
q8.5 0 8.5 -9v-8q0 -9 -8.5 -9t-8.5 9v8q0 9 8.5 9zM300.5 -38q8.5 0 8.5 -9v-8q0 -9 -8.5 -9t-8.5 9v8q0 9 8.5 9zM275.5 -38q8.5 0 8.5 -9v-8q0 -9 -8.5 -9t-8.5 9v8q0 9 8.5 9zM249.5 -38q8.5 0 8.5 -9v-8q0 -9 -8.5 -9t-8.5 9v8q0 9 8.5 9zM377.5 -38q8.5 0 8.5 -9v-8
q0 -9 -8.5 -9t-8.5 9v8q0 9 8.5 9zM351.5 -38q8.5 0 8.5 -9v-8q0 -9 -8.5 -9t-8.5 9v8q0 9 8.5 9zM326.5 -38q8.5 0 8.5 -9v-8q0 -9 -8.5 -9t-8.5 9v8q0 9 8.5 9zM454.5 -38q8.5 0 8.5 -9v-8q0 -9 -8.5 -9t-8.5 9v8q0 9 8.5 9zM428.5 -38q8.5 0 8.5 -9v-8q0 -9 -8.5 -9
t-8.5 9v8q0 9 8.5 9zM403.5 -38q8.5 0 8.5 -9v-8q0 -9 -8.5 -9t-8.5 9v8q0 9 8.5 9zM497 397q9 0 9 -8.5t-9 -8.5q-18 0 -30.5 -12.5t-12.5 -30.5q0 -8 -8.5 -8t-8.5 8q0 14 -10 24t-24 10q-8 0 -8 8.5t8 8.5q27 0 42 -22q17 31 52 31zM395 254q0 -20 -19 -28q14 -12 10 -30
q-5 -21 -27 -23q8 -13 2 -27q-3 -6 -8.5 -11t-12.5 -7t-14 0q3 -12 -3 -22q-9 -15 -26 -15q-9 0 -16 4q0 -9 -6 -16q-10 -11 -24 -11q-11 0 -19 6v-138h-68v135q-6 -3 -14 -3q-14 0 -24 11q-6 7 -6 16q-7 -4 -15 -4q-18 0 -27 15q-6 10 -3 22q-11 -2 -21 3t-14 15
q-6 14 2 27q-22 2 -27 23q-4 18 10 30q-19 8 -19 28t19 28q-14 11 -10 29q5 22 27 24q-8 13 -2 26q4 11 14 16t21 3q-3 12 3 22q9 15 27 15q8 0 15 -4q0 9 6 16q10 11 24 11t23 -10q7 18 27.5 18t27.5 -18q9 10 23 10t24 -11q6 -7 6 -16q7 4 16 4q17 0 26 -15q6 -10 3 -22
q11 2 21 -3t14 -16q6 -13 -2 -26q22 -2 27 -24q4 -18 -10 -29q19 -8 19 -28zM284 285.5q0 8.5 -9 8.5t-17 -4.5t-12.5 -12t-4.5 -17.5q0 -8 8.5 -8t8.5 8q0 7 5 12t12 5q9 0 9 8.5zM267 371q-32 0 -54.5 -22.5t-22.5 -54.5q0 -8 8.5 -8t8.5 8q0 25 17.5 42.5t42.5 17.5
q8 0 8 8.5t-8 8.5zM147.5 388q-8.5 0 -8.5 -8q0 -14 10 -24t24 -10q8 0 8 8.5t-8 8.5q-7 0 -12 5t-5 12q0 8 -8.5 8zM122 303q-9 0 -9 -8.5t9 -8.5q16 0 29.5 -8t21.5 -22t8 -30q0 -8 8.5 -8t8.5 8q0 32 -22.5 54.5t-53.5 22.5zM79 235q14 0 24 10t10 24q0 8 -8.5 8t-8.5 -8
q0 -7 -5 -12t-12 -5q-9 0 -9 -8.5t9 -8.5zM104 192q17 0 30.5 -8t21.5 -22t8 -30q0 -8 8.5 -8t8.5 8q0 32 -22.5 54.5t-54.5 22.5q-8 0 -8 -8.5t8 -8.5zM232 158q0 25 17.5 42.5t42.5 17.5q9 0 9 8.5t-9 8.5q-32 0 -54.5 -22.5t-22.5 -54.5q0 -9 8.5 -9t8.5 9zM309 175
q9 0 9 8.5t-9 8.5q-14 0 -24 -10t-10 -24q0 -9 8.5 -9t8.5 9q0 4 2.5 8t6.5 6.5t8 2.5zM326 286q9 0 9 8.5t-9 8.5q-7 0 -12 5t-5 12q0 9 -8.5 9t-8.5 -9q0 -14 10 -24t24 -10z" />
  </g>

</svg>
