<?xml version="1.0" standalone="no"?>
<!DOCTYPE svg PUBLIC "-//W3C//DTD SVG 1.1//EN" "http://www.w3.org/Graphics/SVG/1.1/DTD/svg11.dtd" >
<svg xmlns="http://www.w3.org/2000/svg" xmlns:xlink="http://www.w3.org/1999/xlink" version="1.1" viewBox="-10 0 532 512">
  <g transform="matrix(1 0 0 -1 0 448)">
   <path fill="currentColor"
d="M164.5 -64q-9.5 0 -9.5 9v9h19v-9q0 -9 -9.5 -9zM165 -64zM338 -55v9h19v-9q0 -9 -9.5 -9t-9.5 9zM338 -55zM494 110q0 -57 -40.5 -97t-96.5 -40h-202q-56 0 -96.5 40t-40.5 97v9h476v-9zM494 110zM509 140q-2 -3 -6 -3h-494q-9 0 -9 9q0 4 3 7q2 2 6 2h494q9 0 9 -9
q0 -4 -3 -6zM509 140zM339 390q11 -2 20 -10q3 -2 5 -6q9 -14 5 -30l-61 35q13 14 31 11zM339 390zM361 401q-3 2 -7 3l18 30q8 14 23 14h53q19 0 32.5 -13.5t13.5 -32.5v-228h-19v228q0 12 -8 20t-19 8h-42q-16 0 -24 -14l-12 -21h-1q-4 4 -8 6zM361 401zM324.5 337.5
q7.5 -4.5 3.5 -12.5l-18 -31q-3 -5 -8.5 -5t-8 4.5t0.5 9.5l18 31q5 8 12.5 3.5zM325 338zM265.5 308.5q-7.5 4.5 -3.5 12.5l18 32q5 7 13 2.5t3 -11.5l-18 -32q-5 -8 -12.5 -3.5zM265 308zM329 271.5q-8 4.5 -4 12.5l19 32q4 8 12 3.5t4 -12.5l-19 -32q-4 -8 -12 -3.5z
M329 272zM296 270q4 8 12 3.5t4 -12.5l-19 -32q-4 -8 -12 -3.5t-3 12.5zM296 270zM244 244q-8 5 -3 12l18 32q5 8 13 3.5t3 -12.5l-18 -32q-2 -3 -5.5 -4t-7.5 1zM244 244z" />
  </g>

</svg>
