<?xml version="1.0" standalone="no"?>
<!DOCTYPE svg PUBLIC "-//W3C//DTD SVG 1.1//EN" "http://www.w3.org/Graphics/SVG/1.1/DTD/svg11.dtd" >
<svg xmlns="http://www.w3.org/2000/svg" xmlns:xlink="http://www.w3.org/1999/xlink" version="1.1" viewBox="-10 0 522 512">
  <g transform="matrix(1 0 0 -1 0 448)">
   <path fill="currentColor"
d="M265 353q25 -3 42 -22t17 -45t-17 -45t-42 -23v8q0 9 -9 9t-9 -9v-8q-16 3 -29.5 12t-21.5 24t-8 32q0 25 17 44.5t42 22.5v-7q0 -9 9 -9t9 9v7zM230 269q7 0 12 5t5 12t-5 12t-12 5t-12 -5t-5 -12t5 -12t12 -5zM282 269q7 0 12 5t5 12t-5 12t-12 5t-12 -5t-5 -12t5 -12
t12 -5zM367 448q14 0 25.5 -7t18.5 -18.5t7 -25.5v-222q0 -14 -7 -26t-18.5 -18.5t-25.5 -6.5h-51v-17h8q9 0 9 -9q0 -37 -18 -68q-16 -26 -16 -60q0 -14 -10 -24t-24 -10h-18q-14 0 -24 10t-10 24q0 31 -16 60q-18 32 -18 68q0 9 9 9h8v17h-51q-14 0 -25.5 6.5t-18.5 18.5
t-7 26v222q0 21 15 36t36 15h222zM256 201q35 0 60 25t25 60t-25 60t-60 25t-60 -25t-25 -60t25 -60t60 -25zM212 190q1 0 2 0.5t2 0.5l-1.5 -0.5t-2.5 -0.5zM230 132v34q0 9 -8.5 9t-8.5 -9v-34v-25h17v25zM238 186q1 0 2 -1q-1 0 -2 1zM241 184l2 -2zM246 177q-1 1 -1.5 2
l-0.5 1q0 -1 2 -3zM265 107v17h-18v-17h18zM265 158v8v3.5v3v2.5h-19q1 -5 1 -9v-8h18zM299 132v34q0 9 -8.5 9t-8.5 -9v-34v-25h17v25zM306 186q2 0 2 -1zM309 184l2 -2l-1 1zM314 177q0 1 -0.5 2t-1.5 1q0 -1 2 -3zM384 188v196q0 8 -4 15t-11 11t-15 4h-196q-12 0 -21 -9
t-9 -21v-196q0 -12 9 -21t21 -9h38v8q0 4 2 9h-40q-5 0 -9 4t-4 9v196q0 5 4 9t9 4h196q5 0 9 -4t4 -9v-196q0 -5 -4 -9t-9 -4h-40q2 -5 2 -9v-8h38q12 0 21 9t9 21z" />
  </g>

</svg>
