<?xml version="1.0" standalone="no"?>
<!DOCTYPE svg PUBLIC "-//W3C//DTD SVG 1.1//EN" "http://www.w3.org/Graphics/SVG/1.1/DTD/svg11.dtd" >
<svg xmlns="http://www.w3.org/2000/svg" xmlns:xlink="http://www.w3.org/1999/xlink" version="1.1" viewBox="-10 0 522 512">
  <g transform="matrix(1 0 0 -1 0 448)">
   <path fill="currentColor"
d="M442 360q3 -5 1 -9.5t-8 -4.5h-25q0 -15 -10 -25t-24.5 -10t-24.5 10t-10 25h-25q-6 0 -8 4.5t1 9.5l43 51q2 3 6 3h9v17h-102v-427q31 -1 53.5 -10t22.5 -24q0 -16 -25.5 -25t-59.5 -9t-59.5 9t-25.5 25q0 11 11.5 18.5t28 11t36.5 4.5v325h-102v-18h9q4 0 6 -3l43 -51
q3 -4 1 -9t-8 -5h-25q0 -14 -10 -24t-24.5 -10t-24.5 10t-10 24h-25q-6 0 -8 5t1 9l43 51q2 3 6 3h9v26q0 9 9 9h110v93q0 9 9 9h119q9 0 9 -9v-25h9q4 0 6 -3zM154 243h-35q0 -7 5 -12t12.5 -5t12.5 5t5 12zM324 -30q0 2 -6 5.5t-20.5 7t-32.5 4.5v-8q0 -9 -9 -9t-9 9v8
q-18 -1 -32.5 -4.5t-20.5 -7t-6 -5.5t7 -6t23.5 -7.5t37.5 -3.5t37.5 3.5t23.5 7.5t7 6zM375 329q4 0 7 1t5.5 3.5t4 5.5t1.5 7h-35q0 -5 2.5 -9t6.5 -6t8 -2z" />
  </g>

</svg>
