<?xml version="1.0" standalone="no"?>
<!DOCTYPE svg PUBLIC "-//W3C//DTD SVG 1.1//EN" "http://www.w3.org/Graphics/SVG/1.1/DTD/svg11.dtd" >
<svg xmlns="http://www.w3.org/2000/svg" xmlns:xlink="http://www.w3.org/1999/xlink" version="1.1" viewBox="-11 0 534 512">
  <g transform="matrix(1 0 0 -1 0 448)">
   <path fill="currentColor"
d="M512 397q0 -9 -9 -9q-46 0 -51 -5v-2v0v-1v-51l17 4q6 2 11.5 -1.5t6.5 -8.5l15 -54q1 -6 -2 -11.5t-9 -6.5l-39 -11v-232l58 -57q6 -6 0 -12q-3 -3 -6.5 -3t-6.5 3l-45 45v-39q0 -9 -8.5 -9t-8.5 9v39l-45 -45q-2 -3 -6 -3t-6 3q-6 6 0 12l57 57v228l-69 -18
q52 -48 52 -120q0 -41 -19.5 -77t-53.5 -58l5 -16q2 -8 -7 -11h-2q-6 0 -8 7l-3 11q-35 -18 -74 -18t-74 18l-3 -11q-2 -7 -8 -7h-2q-9 3 -7 11l5 16q-22 15 -38.5 35.5t-25.5 46.5t-9 53q0 71 52 120l-69 18v-228l57 -57q6 -6 0 -12q-2 -3 -6 -3t-6 3l-45 45v-39
q0 -9 -8.5 -9t-8.5 9v39l-45 -45q-3 -3 -6.5 -3t-6.5 3q-6 6 0 12l58 57v232l-39 11q-6 1 -9 6.5t-2 11.5l15 54q1 3 4 6t6.5 4t7.5 0l17 -4v51v1v2q-6 5 -51 5q-9 0 -9 9t9 9q47 0 59 -8q12 8 60 8q9 0 9 -9t-9 -9q-46 0 -51 -5v-2v0v-1v-56l111 -29q6 -2 9 -7t2 -11
l-8 -30q27 12 56 13v52h-51q-8 0 -8 8.5t8 8.5h120q8 0 8 -8.5t-8 -8.5h-51v-52q29 -1 56 -13l-8 30q-1 6 2 11t9 7l111 29v56v1v2q-5 5 -51 5q-9 0 -9 9t9 9q48 0 60 -8q12 8 59 8q9 0 9 -9zM375 98.5q0 49.5 -35 84.5t-84 35t-84 -35t-35 -84.5t35 -84.5t84 -35t84 35
t35 84.5zM384 414q-9 0 -9 8.5t9 8.5q46 0 51 5v3v0q0 9 8.5 9t8.5 -8v-1v-3q6 -5 51 -5q9 0 9 -8.5t-9 -8.5q-47 0 -59 8q-12 -8 -60 -8zM9 414q-9 0 -9 8.5t9 8.5q46 0 51 5v3v0q0 8 8 9q9 0 9 -8v-1v-3q5 -5 51 -5q9 0 9 -8.5t-9 -8.5q-48 0 -60 8q-12 -8 -59 -8z
M294.5 107q15.5 0 27 -11.5t11.5 -27.5q0 -7 -3 -14.5t-8.5 -12.5t-12.5 -8t-15 -3q-15 0 -26.5 11.5t-11.5 27t11.5 27t27 11.5z" />
  </g>

</svg>
