<?xml version="1.0" standalone="no"?>
<!DOCTYPE svg PUBLIC "-//W3C//DTD SVG 1.1//EN" "http://www.w3.org/Graphics/SVG/1.1/DTD/svg11.dtd" >
<svg xmlns="http://www.w3.org/2000/svg" xmlns:xlink="http://www.w3.org/1999/xlink" version="1.1" viewBox="-10 0 528 512">
  <g transform="matrix(1 0 0 -1 0 448)">
   <path fill="currentColor"
d="M333 448q47 0 87.5 -21t64 -57.5t23.5 -79.5q0 -65 -51.5 -111.5t-123.5 -46.5q-37 0 -70 14q-16 -9 -37 -16v-15q0 -15 -11 -24q-8 -29 -31 -48v-24q0 -3 2 -8t5.5 -9.5t6.5 -6.5l36 -23q13 -8 9 -22t-19 -14h-200q-15 0 -19 14t8 22l36 23q5 3 10 11t5 13v24
q-23 19 -31 48q-11 9 -11 24v30q0 13 8 24v23v8t4.5 19t13.5 23q24 27 76 27q19 0 36 -4q-2 13 -2 25q0 65 51 111.5t124 46.5zM209 115v9q-21 -6 -40 -8l-1 -1v0l-26 -3l18 18q19 18 25 71v2.5v2.5q-13 18 -20 39q-17 7 -41 7q-44 0 -64 -22q-16 -17 -13 -37v-31l-3 -3
q-5 -5 -5 -14v-30q0 -7 6 -12l3 -2l1 -3q6 -28 28 -44l4 -2v-33q0 -6 -3.5 -14t-9 -15t-10.5 -10l-36 -22q-1 -1 -0.5 -3t2.5 -2h200q2 0 2.5 2t-1.5 3l-35 22q-9 5 -16 17.5t-7 21.5v33l3 2q22 14 29 44l1 3l3 2q6 5 6 12zM252 346q-9 0 -9 -8.5t9 -8.5h85q9 0 9 8.5
t-9 8.5h-85zM422 226q9 0 9 8.5t-9 8.5h-170q-9 0 -9 -8.5t9 -8.5h170zM422 277q9 0 9 9t-9 9h-170q-9 0 -9 -9t9 -9h170z" />
  </g>

</svg>
