<?xml version="1.0" standalone="no"?>
<!DOCTYPE svg PUBLIC "-//W3C//DTD SVG 1.1//EN" "http://www.w3.org/Graphics/SVG/1.1/DTD/svg11.dtd" >
<svg xmlns="http://www.w3.org/2000/svg" xmlns:xlink="http://www.w3.org/1999/xlink" version="1.1" viewBox="-10 0 522 512">
  <g transform="matrix(1 0 0 -1 0 448)">
   <path fill="currentColor"
d="M282 358q19 -8 30.5 -25t11.5 -38.5t-11.5 -38.5t-30.5 -25v12q0 9 -9 9h-34q-9 0 -9 -9v-12q-19 8 -30.5 25t-11.5 38.5t11.5 38.5t30.5 25v-12q0 -9 9 -9h34q9 0 9 9v12zM230 277q7 0 12 5t5 12t-5 12t-12 5t-12 -5t-5 -12t5 -12t12 -5zM282 277q3 0 6 1.5t5.5 4t4 5.5
t1.5 6q0 7 -5 12t-12 5t-12 -5t-5 -12t5 -12t12 -5zM380 397q5 0 9 -4t4 -9v-384q0 -5 -4 -9t-9 -4h-248q-5 0 -9 4t-4 9v384q0 5 4 9t9 4h248zM275 6q29 7 47.5 30.5t18.5 53.5t-18.5 53t-47.5 30q-4 1 -7 -1.5t-3 -7.5v-15h-18v15q0 5 -3 7.5t-7 1.5q-29 -7 -47.5 -30
t-18.5 -53t18.5 -53.5t47.5 -30.5q4 0 7 2.5t3 6.5v15h18v-15q0 -4 3 -7q2 -2 5 -2h2zM275 211q29 7 47.5 30t18.5 53t-18.5 53.5t-47.5 30.5q-4 0 -7 -2.5t-3 -6.5v-15h-18v15q0 4 -3 6.5t-7 2.5q-29 -7 -47.5 -30.5t-18.5 -53.5t18.5 -53t47.5 -30q4 -1 7 1.5t3 7.5v15h18
v-15q0 -5 3 -7q2 -2 5 -2h2zM282 153q19 -8 30.5 -25t11.5 -38.5t-11.5 -38.5t-30.5 -25v12q0 9 -9 9h-34q-9 0 -9 -9v-12q-19 8 -30.5 25t-11.5 39q0 14 5 26.5t15 22t22 14.5v-12q0 -9 9 -9h34q9 0 9 9v12zM230 73q7 0 12 5t5 12t-5 12t-12 5t-12 -5t-5 -12t5 -12t12 -5z
M282 73q7 0 12 5t5 12t-5 12t-12 5t-12 -5t-5 -12t5 -12t12 -5zM393 448q21 0 36 -15t15 -36v-410q0 -21 -15 -36t-36 -15h-274q-13 0 -25 7t-19 18.5t-7 25.5v410q0 21 15 36t36 15h274zM410 0v384q0 8 -4 15t-11 11t-15 4h-248q-12 0 -21 -9t-9 -21v-384q0 -12 9 -21
t21 -9h248q12 0 21 9t9 21z" />
  </g>

</svg>
