<?xml version="1.0" standalone="no"?>
<!DOCTYPE svg PUBLIC "-//W3C//DTD SVG 1.1//EN" "http://www.w3.org/Graphics/SVG/1.1/DTD/svg11.dtd" >
<svg xmlns="http://www.w3.org/2000/svg" xmlns:xlink="http://www.w3.org/1999/xlink" version="1.1" viewBox="-11 0 533 512">
  <g transform="matrix(1 0 0 -1 0 448)">
   <path fill="currentColor"
d="M482 260q13 -2 21.5 -11.5t8.5 -22.5q0 -12 -8 -21.5t-20 -11.5l-65 -181q33 -13 33 -33t-28.5 -31.5t-65.5 -11.5t-65 11.5t-28 31t28 31t65 11.5q24 0 45 -5l63 178q-22 8 -22 32q0 21 19 31l-105 127q-8 -4 -17 -4q-11 0 -20.5 7t-12.5 18h-190q-5 -19 -24 -24v-27h51
q7 0 8 -6l17 -69q1 -4 -1.5 -7t-6.5 -3h-153q-5 0 -7.5 3t-1.5 7l17 69q2 6 9 6h51v27q-11 3 -18.5 12t-7.5 21q0 14 10 24t24 10q12 0 21 -7t12 -19h190q3 12 12.5 19t20.5 7q10 0 17.5 -4.5t12 -12.5t4.5 -17q0 -10 -5 -18zM435 -21q0 9 -22 17l-4 -12q-2 -5 -8 -5h-3
q-8 3 -5 11l4 10q-18 4 -39 4q-32 0 -54 -8.5t-22 -16.5q0 -6 9 -11.5t27 -10t40 -4.5q33 0 55 8.5t22 17.5z" />
  </g>

</svg>
