<?xml version="1.0" standalone="no"?>
<!DOCTYPE svg PUBLIC "-//W3C//DTD SVG 1.1//EN" "http://www.w3.org/Graphics/SVG/1.1/DTD/svg11.dtd" >
<svg xmlns="http://www.w3.org/2000/svg" xmlns:xlink="http://www.w3.org/1999/xlink" version="1.1" viewBox="-10 0 522 512">
  <g transform="matrix(1 0 0 -1 0 448)">
   <path fill="currentColor"
d="M338 196q14 -4 14 -20q0 -8 -6 -14t-14 -6t-14 6t-6 14q0 16 14 20v43h12v-43zM290 422h36l36 -157l-31 -20l-31 21zM253 232q1 -1 3 -1t3 1l10 7v-246h-26v246zM288 266l-32 -21l-32 21l10 156h44zM275 -19h66v-19h-170v19h104zM212 266l-31 -21l-31 20l36 157h36z" />
  </g>

</svg>
