<?xml version="1.0" standalone="no"?>
<!DOCTYPE svg PUBLIC "-//W3C//DTD SVG 1.1//EN" "http://www.w3.org/Graphics/SVG/1.1/DTD/svg11.dtd" >
<svg xmlns="http://www.w3.org/2000/svg" xmlns:xlink="http://www.w3.org/1999/xlink" version="1.1" viewBox="-10 0 523 512">
  <g transform="matrix(1 0 0 -1 0 448)">
   <path fill="currentColor"
d="M455 5q9 0 15.5 -6.5t6.5 -15.5q0 -17 -19 -21l-118 -8q-5 0 -7 -4q-7 -14 -22 -14h-145q-15 0 -22 14q-2 4 -6 4l-111 8q-18 4 -18 21q0 9 6.5 15.5t15.5 6.5h134q-43 11 -71.5 34.5t-42.5 57.5t-19.5 67t-5.5 76q0 7 5 12t12 5h400q7 0 12 -5t5 -12v-1q12 -3 22 -12.5
t15.5 -24.5t5.5 -32q0 -40 -23.5 -72t-67.5 -39q-33 -39 -91 -54h134zM427 82v-1q30 10 44.5 35.5t14.5 53.5q0 18 -7.5 32.5t-18.5 18.5v-1l-1 -1v-8q0 -8 -1 -16q-2 -30 -8 -54v-1q-2 -8 -5 -17q-1 -3 -1 -4q-2 -4 -3 -8q-2 -6 -5 -11q0 -2 -2 -6q-3 -7 -7 -12zM199 47
q2 9 -7 10q-46 8 -71 35.5t-34 79.5q-2 8 -10.5 6.5t-7.5 -9.5q11 -58 40 -89t80 -40h2q7 0 8 7zM237 376q15 14 15 28t-15 29q-6 6 0 12.5t12 0.5q20 -20 20 -42t-20 -40q-14 -14 -15 -28q0 -14 15 -29q6 -7 0 -13q-2 -2 -6 -2t-6 2q-20 21 -20 42t20 40zM332 376
q15 14 15 28t-15 29q-6 6 0 12.5t13 0.5q20 -20 20 -42q-1 -22 -21 -40q-14 -14 -14 -28q-1 -14 14 -29q7 -7 0 -13q-2 -2 -5.5 -2t-6.5 2q-20 21 -20 42q1 21 20 40zM150 376q15 14 15 28t-15 29q-6 6 0 12.5t12 0.5q21 -20 20 -42q0 -22 -20 -40q-14 -14 -15 -28
q0 -14 15 -29q6 -7 0 -13q-2 -2 -6 -2t-6 2q-20 21 -20 42t20 40z" />
  </g>

</svg>
