<?xml version="1.0" standalone="no"?>
<!DOCTYPE svg PUBLIC "-//W3C//DTD SVG 1.1//EN" "http://www.w3.org/Graphics/SVG/1.1/DTD/svg11.dtd" >
<svg xmlns="http://www.w3.org/2000/svg" xmlns:xlink="http://www.w3.org/1999/xlink" version="1.1" viewBox="-11 0 534 512">
  <g transform="matrix(1 0 0 -1 0 448)">
   <path fill="currentColor"
d="M486 354q11 0 18.5 -7.5t7.5 -18t-7.5 -18t-18.5 -7.5h-76v-67q23 -13 25 -39.5t-18 -43.5q8 -6 13 -15l10 -22l66 -57q6 -5 6 -13t-6 -13v-1q11 -22 2.5 -45t-31 -33.5t-46 -2t-33.5 30.5v1q-8 -1 -14 4t-6 13l-1 88l-9 21q-9 18 2 34q-15 4 -25 15.5t-12 27.5
q-4 33 25 50v67h-76v-67q26 -15 25.5 -44.5t-26.5 -44.5q9 -10 9 -23v-24l37 -80q3 -7 -0.5 -14t-10.5 -10q0 -25 -17.5 -42.5t-42.5 -17.5q-12 0 -23 4.5t-19 12.5t-13 19.5t-5 23.5q-7 3 -10.5 10t-0.5 14l37 80v24q0 13 9 23q-26 15 -26 44.5t25 44.5v67h-76v-67
q29 -17 25 -50q-2 -16 -12 -27.5t-25 -15.5q11 -16 2 -34l-9 -21l-1 -88q0 -8 -6 -13t-14 -4v-1q-10 -22 -33.5 -30.5t-46 2t-31 33.5t2.5 45v1q-3 3 -4.5 6t-1.5 7q0 8 6 13l67 57l9 22q5 9 13 15q-20 17 -18 43.5t25 39.5v67h-76q-11 0 -18.5 7.5t-7.5 18t7.5 18t18.5 7.5
h153v26h-8q-25 0 -42.5 17.5t-17.5 41.5q0 9 8 9h274q8 0 8 -9q0 -24 -17.5 -41.5t-42.5 -17.5h-8v-26h153zM316 354v26h-86v-26h86zM129 431q3 -15 14.5 -24.5t27.5 -9.5h170q16 0 27.5 9.5t14.5 24.5h-254zM196 380v-26h17v26h-17zM129 117q4 9 -1.5 17t-15.5 7t-14 -10
l-7 -16l15 -7l16 -7zM81 101l-64 -55l4 -2l93 -42l3 -2v84l-18 9zM75 -33q16 7 24 23l-77 35h-1q-12 -26 7.5 -46.5t46.5 -11.5zM128 158q7 0 13.5 2.5t11 7t7 11t2.5 13.5q0 14 -10 24t-24 10t-24 -10t-10 -24t10 -24t24 -10zM137 242v61h-18v-61q9 2 18 0zM256 -47
q18 0 30.5 12.5t12.5 30.5h-86q0 -18 12.5 -30.5t30.5 -12.5zM307 13h4l-35 77h-40l-35 -77h106zM273 124q0 7 -5 12t-12 5t-12 -5t-5 -12v-17h34v17zM256 158q14 0 24 10t10 24t-10 24t-24 10t-24 -10t-10 -24t10 -24t24 -10zM265 242v61h-18v-61q9 2 18 0zM492 -7
q6 16 -1 32l-78 -35q12 -26 40.5 -25t38.5 28zM488 43l7 3l-64 55l-18 -8l-18 -9v-84l3 1v1zM390 101l31 14l-7 16q-4 9 -14 10t-15.5 -7t-1.5 -17zM384 158q14 0 24 10t10 24t-10 24t-24 10t-24 -10t-10 -24t10 -24t24 -10zM393 242v61h-18v-61q9 2 18 0zM486 320
q9 0 9 8.5t-9 8.5h-460q-9 0 -9 -8.5t9 -8.5h460zM486 320zM134 198q1 -1 2 -2.5t1 -3.5q0 -1 -0.5 -2t-0.5 -1.5t-0.5 -1l-1.5 -1.5q-4 -4 -9.5 -2t-5.5 8q0 2 1 3.5t2 2.5q6 6 12 0zM134 198zM264 195.5v-1.5q1 -2 0 -4v-1.5t-1 -1.5l-1 -1q-1 -1 -2.5 -2t-3.5 -1
q-1 0 -2 0.5t-1.5 0.5t-1.5 1l-1 1l-1 1q-1 1 -1 1.5v1.5q-1 2 0 4v1t0.5 1.5l1.5 1.5l1 1t1.5 1h1.5q3 1 5 0t3 -2l1.5 -1.5t0.5 -1zM264 195zM392 195.5q0 -0.5 0.5 -1.5t0.5 -2q0 -9 -9 -9t-9 9q0 1 0.5 1.5t0.5 1.5t1 2l1 1t3 2q3 1 6 0q2 -1 3 -2l1 -1t1 -1.5zM392 195
z" />
  </g>

</svg>
