<?xml version="1.0" standalone="no"?>
<!DOCTYPE svg PUBLIC "-//W3C//DTD SVG 1.1//EN" "http://www.w3.org/Graphics/SVG/1.1/DTD/svg11.dtd" >
<svg xmlns="http://www.w3.org/2000/svg" xmlns:xlink="http://www.w3.org/1999/xlink" version="1.1" viewBox="-10 0 541 512">
  <g transform="matrix(1 0 0 -1 0 448)">
   <path fill="currentColor"
d="M502 448q8 0 13.5 -5.5t5.5 -13.5v-169q0 -8 -5.5 -13.5t-13.5 -5.5h-111l-69 -52q-2 -2 -5 -1t-3 4v49h-8q-5 0 -9.5 2.5t-7 7t-2.5 9.5v169q0 8 5.5 13.5t13.5 5.5h196zM377 286q9 0 9 9t-9 9h-45q-9 0 -9 -9t9 -9h45zM476 322q9 0 9 9t-9 9h-144q-9 0 -9 -9t9 -9h144z
M476 358q9 0 9 9t-9 9h-144q-9 0 -9 -9t9 -9h144zM476 394q9 0 9 9t-9 9h-144q-9 0 -9 -9t9 -9h144zM72 57q26 -32 54.5 -31.5t53.5 31.5v-31q0 -1 -0.5 -2.5t-1.5 -5.5t-3 -7t-6 -7t-9.5 -7t-14 -5t-19.5 -2q-15 0 -25.5 3.5t-16 8t-8.5 10.5t-3.5 9t-0.5 5v31zM225 210
q7 6 17 4q1 -15 -4 -29q-4 -11 -13 -18v43zM13 184q-5 15 -3 30q9 2 17 -4v-43q-9 7 -14 17zM135 349q35 0 59.5 -15t36.5 -41t12 -61q-14 2 -25 -5q-2 1 -16.5 10t-34 21.5t-30.5 21.5t-22 0q-28 -21 -58 -38q-24 -15 -23 -15q-12 7 -25 5v9q0 6 1 14t8 26t19 32t37.5 25
t60.5 11zM205 145q-10 -29 -25 -56q-26 -45 -54.5 -45t-54.5 45q-15 27 -24 56q-2 6 -2 13v55q-1 0 4.5 3t15 9t20 12.5t22 14.5t19.5 14q28 -22 59 -40q17 -10 19.5 -11.5t2.5 -3.5q0 -60 -2 -66zM322 -64h-313v56v-6v-8v25l47 12q12 -43 70 -43q57 0 70 42l103 -33
q2 0 5.5 -2.5t9.5 -14t8 -28.5zM9 22v137q9 -8 19 -14q10 -32 26 -61v-51zM260 83q21 -11 26 -34t-9 -42l-79 25q0 52 1 54q15 28 24 59q11 6 20 14v-97q0 -9 8.5 -9t8.5 9v21z" />
  </g>

</svg>
