<?xml version="1.0" standalone="no"?>
<!DOCTYPE svg PUBLIC "-//W3C//DTD SVG 1.1//EN" "http://www.w3.org/Graphics/SVG/1.1/DTD/svg11.dtd" >
<svg xmlns="http://www.w3.org/2000/svg" xmlns:xlink="http://www.w3.org/1999/xlink" version="1.1" viewBox="-10 0 532 512">
  <g transform="matrix(1 0 0 -1 0 448)">
   <path fill="currentColor"
d="M265 302q43 -3 72.5 -34.5t29.5 -75.5q0 -29 -13.5 -53.5t-37 -39.5t-51.5 -17v16q0 9 -9 9t-9 -9v-16q-43 3 -72.5 34.5t-29.5 75.5t29.5 75.5t72.5 34.5v-16q0 -9 9 -9t9 9v16zM196 158q10 0 17.5 4.5t12 12.5t4.5 17q0 14 -10 24t-24 10t-24 -10t-10 -24t10 -24
t24 -10zM256 183q9 0 9 9t-9 9t-9 -9t9 -9zM350 192q0 9 -4.5 17t-12.5 12.5t-17 4.5q-14 0 -24 -10t-10 -24t10 -24t24 -10t24 10t10 24zM299 192q0 7 5 12t12 5t12 -5t5 -12t-5 -12t-12 -5t-12 5t-5 12zM196 209q7 0 12 -5t5 -12t-5 -12t-12 -5t-12 5t-5 12q0 5 2.5 8.5
t6.5 6t8 2.5zM461 448q21 0 36 -15t15 -36v-410q0 -21 -15 -36t-36 -15h-410q-21 0 -36 15t-15 36v410q0 21 15 36t36 15h410zM478 0v384q0 12 -9 21t-21 9h-384q-12 0 -21 -9t-9 -21v-384q0 -12 9 -21t21 -9h384q12 0 21 9t9 21zM448 397q5 0 9 -4t4 -9v-384q0 -5 -4 -9
t-9 -4h-384q-5 0 -9 4t-4 9v384q0 5 4 9t9 4h384zM256 64q53 0 90.5 37.5t37.5 90.5t-37.5 90.5t-90.5 37.5t-90.5 -37.5t-37.5 -90.5t37.5 -90.5t90.5 -37.5z" />
  </g>

</svg>
