<?xml version="1.0" standalone="no"?>
<!DOCTYPE svg PUBLIC "-//W3C//DTD SVG 1.1//EN" "http://www.w3.org/Graphics/SVG/1.1/DTD/svg11.dtd" >
<svg xmlns="http://www.w3.org/2000/svg" xmlns:xlink="http://www.w3.org/1999/xlink" version="1.1" viewBox="-10 0 532 512">
  <g transform="matrix(1 0 0 -1 0 448)">
   <path fill="currentColor"
d="M503 -47q9 0 9 -8.5t-9 -8.5h-85h-119h-290q-9 0 -9 8.5t9 8.5h8v51v69v196v68v102q0 9 8.5 9t8.5 -9v-93h20q-3 6 -3 12v10q0 12 8.5 20.5t20.5 8.5h61q13 0 21.5 -8.5t8.5 -20.5v-10q0 -6 -3 -12h22q-2 6 -2 12v10q0 12 8.5 20.5t20.5 8.5h215q12 0 20.5 -8.5
t8.5 -20.5v-10q0 -6 -3 -12h20v93q0 9 8.5 9t8.5 -9v-102v-68v-196v-69v-51h8zM68 368v-10q0 -5 3.5 -8.5t8.5 -3.5h61q5 0 9 3.5t4 8.5v10q0 3 -2 5.5t-4.5 4.5t-6.5 2h-61q-5 0 -8.5 -3.5t-3.5 -8.5zM290 -47v43h-256v-43h256zM68 93q0 -3 2 -6t4.5 -4.5t5.5 -1.5h61
q4 0 6.5 1.5t4.5 4.5t2 6v10q0 5 -4 8.5t-9 3.5h-61q-5 0 -8.5 -3.5t-3.5 -8.5v-10zM290 81v34h-73q-5 0 -8.5 -3.5t-3.5 -8.5v-10q0 -5 3.5 -8.5t8.5 -3.5h73zM290 132v128h-256v-179h20q-3 6 -3 12v10q0 12 8.5 20.5t20.5 8.5h61q13 0 21.5 -8.5t8.5 -20.5v-10
q0 -6 -3 -12h22q-2 6 -2 12v10q0 12 8.5 20.5t20.5 8.5h73zM410 -47v26h-103v-26h103zM410 4v9h-103v-9v-8h103v8zM410 30v17h-103v-17h103zM410 73v8h-103v-8v-9h103v9zM410 98v17h-103v-17h103zM410 132v17h-103v-17h103zM410 166v17h-103v-17h103zM410 201v17h-103v-17
h103zM410 235v17h-103v-17h103zM410 269v17h-103v-17h103zM410 303v26h-103v-26h103zM299 346h119h14q5 0 8.5 3.5t3.5 8.5v10q0 5 -3.5 8.5t-8.5 3.5h-215q-5 0 -8.5 -3.5t-3.5 -8.5v-10q0 -3 1 -5t2.5 -3.5t3.5 -2.5t5 -1h82zM427 260v-128h5q12 0 20.5 -8.5t8.5 -20.5
v-10q0 -6 -3 -12h20v179h-51zM444 103q0 5 -3.5 8.5t-8.5 3.5h-5v-34h5q5 0 8.5 3.5t3.5 8.5v10zM478 -47v43h-51v-43h51z" />
  </g>

</svg>
