<?xml version="1.0" standalone="no"?>
<!DOCTYPE svg PUBLIC "-//W3C//DTD SVG 1.1//EN" "http://www.w3.org/Graphics/SVG/1.1/DTD/svg11.dtd" >
<svg xmlns="http://www.w3.org/2000/svg" xmlns:xlink="http://www.w3.org/1999/xlink" version="1.1" viewBox="-10 0 522 512">
  <g transform="matrix(1 0 0 -1 0 448)">
   <path fill="currentColor"
d="M265 36q26 -1 46 -9.5t22 -22.5v-38q0 -16 -24.5 -23t-52.5 -7t-52.5 7t-24.5 23v38q2 14 22 22.5t46 9.5v19h-42q-9 0 -9 9v375q0 9 9 9h102q9 0 9 -9v-375q0 -9 -9 -9h-42v-19zM256 -13q18 0 32.5 3.5t21 7t6.5 5.5q0 1 -2 3t-6.5 4t-10.5 3.5t-14.5 3t-17.5 2.5v-6
q0 -9 -9 -9t-9 9v6q-15 -1 -27.5 -4t-18 -6.5t-5.5 -5.5t6.5 -5.5t21 -7t32.5 -3.5z" />
  </g>

</svg>
