<?xml version="1.0" standalone="no"?>
<!DOCTYPE svg PUBLIC "-//W3C//DTD SVG 1.1//EN" "http://www.w3.org/Graphics/SVG/1.1/DTD/svg11.dtd" >
<svg xmlns="http://www.w3.org/2000/svg" xmlns:xlink="http://www.w3.org/1999/xlink" version="1.1" viewBox="-10 0 522 512">
  <g transform="matrix(1 0 0 -1 0 448)">
   <path fill="currentColor"
d="M115.5 60q-8.5 0 -8.5 9v35q0 9 8.5 9t8.5 -9v-35q0 -9 -8.5 -9zM115 60zM151 60q-9 0 -9 9v35q0 9 9 9t9 -9v-35q0 -9 -9 -9zM151 60zM44.5 60q-8.5 0 -8.5 9v35q0 9 8.5 9t8.5 -9v-35q0 -9 -8.5 -9zM45 60zM80 60q-9 0 -9 9v35q0 9 9 9t9 -9v-35q0 -9 -9 -9zM80 60z
M186 60q-9 0 -9 9v35q0 9 9 9t9 -9v-35q0 -9 -9 -9zM186 60zM177 42v-35q0 -9 -8.5 -9t-8.5 9v35q0 9 8.5 9t8.5 -9zM177 42zM213 42v-35q0 -9 -9 -9t-9 9v35q0 9 9 9t9 -9zM213 42zM142 42v-35q0 -9 -9 -9t-9 9v35q0 9 9 9t9 -9zM142 42zM107 42v-35q0 -9 -9 -9t-9 9v35
q0 9 9 9t9 -9zM107 42zM71 42v-35q0 -9 -9 -9t-9 9v35q0 9 9 9t9 -9zM71 42zM36 42v-35q0 -9 -9 -9t-9 9v35q0 9 9 9t9 -9zM36 42zM151 -11q9 0 9 -9v-35q0 -9 -9 -9t-9 9v35q0 9 9 9zM151 -11zM186 -11q9 0 9 -9v-35q0 -9 -9 -9t-9 9v35q0 9 9 9zM186 -11zM222 -11
q9 0 9 -9v-35q0 -9 -9 -9t-9 9v35q0 9 9 9zM222 -11zM115.5 -11q8.5 0 8.5 -9v-35q0 -9 -8.5 -9t-8.5 9v35q0 9 8.5 9zM115 -11zM80 -11q9 0 9 -9v-35q0 -9 -9 -9t-9 9v35q0 9 9 9zM80 -11zM44.5 -11q8.5 0 8.5 -9v-35q0 -9 -8.5 -9t-8.5 9v35q0 9 8.5 9zM45 -11zM9 -11
q9 0 9 -9v-35q0 -9 -9 -9t-9 9v35q0 9 9 9zM9 -11zM346 352v71q0 19 17 25v-121q-17 6 -17 25zM346 352zM107 317v71q0 8 8 8h213v-17h-195q-9 0 -9 -9v-53h-17zM107 317zM18 148h195v-8h-195v8zM18 148zM18 166q4 43 38 69t76 18q8 -1 16 -4q27 -9 44.5 -31.5t19.5 -51.5
h-194zM18 166zM89 269v30h53v-30l-1 0.5t-2 0.5q-4 1 -7 1q-3 1 -5 1h-9h-1.5h-1h-1h-1.5h-9q-1 0 -5 -1q-4 0 -8 -1l-1 -0.5zM89 269z" />
  </g>

</svg>
