<?xml version="1.0" standalone="no"?>
<!DOCTYPE svg PUBLIC "-//W3C//DTD SVG 1.1//EN" "http://www.w3.org/Graphics/SVG/1.1/DTD/svg11.dtd" >
<svg xmlns="http://www.w3.org/2000/svg" xmlns:xlink="http://www.w3.org/1999/xlink" version="1.1" viewBox="-10 0 522 512">
  <g transform="matrix(1 0 0 -1 0 448)">
   <path fill="currentColor"
d="M486 183v-51v-4q0 -37 -34 -59v-26q0 -34 -24 -57.5t-57 -23.5h-89q-7 0 -12 -5t-5 -12q0 -9 -9 -9t-9 9q0 7 -5 12t-12 5h-89q-33 0 -57 23.5t-24 57.5v26q-34 22 -34 59v4v51q0 134 57 199.5t173 65.5q58 0 101.5 -16.5t72 -49t42.5 -82.5t14 -117zM43 128
q0 -21 17 -38v25q0 9 8.5 9t8.5 -9v-37q8 -4 17 -5v110q-21 -3 -36 -19t-15 -36zM435 43v17q-8 -3 -17 -4v-9q0 -14 -7 -26t-18.5 -18.5t-25.5 -6.5q-21 0 -36 15t-15 36v171q0 21 15 36t36 15t36 -15t15 -36v-18q4 0 9 -2v37q0 68 -49.5 115t-121.5 47t-121.5 -47
t-49.5 -115v-37q5 2 9 2v18q0 21 15 36t36 15t36 -15t15 -36v-171q0 -21 -15 -36t-36 -15q-14 0 -25.5 6.5t-18.5 18.5t-7 26v9q-9 1 -17 4v-17q0 -27 19 -45.5t45 -18.5h89q16 0 26 -12q10 12 26 12h89q26 0 45 18.5t19 45.5zM452 90q17 17 17 38q0 20 -15 36t-36 19v-110
q9 1 17 5v37q0 9 8.5 9t8.5 -9v-25z" />
  </g>

</svg>
