<?xml version="1.0" standalone="no"?>
<!DOCTYPE svg PUBLIC "-//W3C//DTD SVG 1.1//EN" "http://www.w3.org/Graphics/SVG/1.1/DTD/svg11.dtd" >
<svg xmlns="http://www.w3.org/2000/svg" xmlns:xlink="http://www.w3.org/1999/xlink" version="1.1" viewBox="-10 0 532 512">
  <g transform="matrix(1 0 0 -1 0 448)">
   <path fill="currentColor"
d="M427 73v-9h-154v9q0 10 7.5 17.5t18.5 7.5h102q11 0 18.5 -7.5t7.5 -17.5zM427 73zM427 124v-18q-12 9 -26 9h-31l20 20q6 6 0 12t-12 0l-20 -20v39q0 9 -8.5 9t-8.5 -9v-39l-19 20q-6 6 -12 0t0 -12l19 -20h-30q-15 0 -26 -9v18q0 18 -17 24v87q0 5 2 9.5t5.5 8t8 5.5
t10.5 2h136q11 0 18.5 -7.5t7.5 -17.5v-87q-17 -6 -17 -24zM427 124zM273 47h154v-34h-154v34zM273 47zM213 132h34q9 0 9 -8v-111h-26q-10 0 -17.5 7.5t-7.5 17.5v86q0 8 8 8zM213 132zM495 38q0 -7 -3.5 -12.5t-9.5 -9t-13 -3.5h-25v111q0 8 8 8h34q9 0 9 -8v-86zM495 38z
M503 -47q9 0 9 -8.5t-9 -8.5h-494q-9 0 -9 8.5t9 8.5h1q4 15 17 22q-1 1 -1 4v17q0 8 8.5 8t8.5 -8v-17h17v401q0 27 18 46.5t45 21.5q13 1 25.5 -3t22 -12t16 -19t8.5 -24l1 -9v-3q7 -4 9 -12l3 -17l36 -32q5 -3 3.5 -8.5t-7.5 -6.5l-82 -14q-5 0 -8 4t0 9l24 42l-3 17
q-2 12 9 17q-1 1 -1 2l-1 8q-3 20 -18.5 32.5t-35.5 11.5q-13 -1 -24 -8t-17 -18.5t-6 -24.5v-401h17q12 0 21 -7.5t12 -18.5h106l12 43h22l-24 -43h214l-24 43h21l13 -43h36zM503 -47z" />
  </g>

</svg>
