<?xml version="1.0" standalone="no"?>
<!DOCTYPE svg PUBLIC "-//W3C//DTD SVG 1.1//EN" "http://www.w3.org/Graphics/SVG/1.1/DTD/svg11.dtd" >
<svg xmlns="http://www.w3.org/2000/svg" xmlns:xlink="http://www.w3.org/1999/xlink" version="1.1" viewBox="-10 0 533 512">
  <g transform="matrix(1 0 0 -1 0 448)">
   <path fill="currentColor"
d="M76 440v-166l-52 -4v157q-2 8 7 9zM433 61q0 7 5 12.5t12 5.5q4 0 7 -1.5t5.5 -4t3.5 -5.5t1 -7q0 -7 -5 -12t-12 -5t-12 5t-5 12zM292 61q0 7 5 12.5t12.5 5.5t12.5 -5.5t5 -12.5t-5 -12t-12.5 -5t-12.5 5t-5 12zM511 46q-1 -8 -3 -15q-1 -5 -1 -16l3 -36
q0 -17 -11.5 -28.5t-27.5 -11.5q-8 0 -15.5 3.5t-13 9.5t-8.5 14l-16 34h-12v-15l23 -46h-141h-120h-20h-148l24 46v267l52 5v-266h18v267l51 4v14v3l245 -33v131l-245 48v-146l-51 -3v165l41 4h1.5h0.5h1l261 -53q8 -1 8 -8v-79v-157v-28q15 2 29 6q8 3 14 3q20 0 36 -10.5
t22 -28.5q7 -19 3 -44zM159 -43h96q-1 2 -3 5v2q-2 3 -2 6l-1 1v3h-99zM250 90q7 18 22.5 28.5t34.5 10.5h1q11 0 19 -3q31 -9 63 -8v110l-245 33v-270h105l1 24q1 11 -1 16q-1 7 -3 15q-4 25 3 44zM275 61q0 -14 10 -24.5t24.5 -10.5t24.5 10.5t10 25t-10 24.5t-25 10
q-9 0 -17 -4.5t-12.5 -12.5t-4.5 -18zM389 0h-48q-2 -2 -2 -3t-1 -2.5t-2 -3.5h53v9zM320 -43h81l-9 17h-64l-4 -8q0 -2 -2 -5q0 -1 -0.5 -1.5l-0.5 -0.5zM406 70v9q0 8 -8.5 8t-8.5 -8h-17q0 8 -9 8t-9 -8v-9q0 -9 9 -9h35q8 0 8 9zM450 26q14 0 24.5 10.5t10.5 25
t-10.5 24.5t-24.5 10t-24.5 -10t-10.5 -24.5t10.5 -25t24.5 -10.5z" />
  </g>

</svg>
