<?xml version="1.0" standalone="no"?>
<!DOCTYPE svg PUBLIC "-//W3C//DTD SVG 1.1//EN" "http://www.w3.org/Graphics/SVG/1.1/DTD/svg11.dtd" >
<svg xmlns="http://www.w3.org/2000/svg" xmlns:xlink="http://www.w3.org/1999/xlink" version="1.1" viewBox="-12 0 524 512">
  <g transform="matrix(1 0 0 -1 0 448)">
   <path fill="currentColor"
d="M6 234q14 0 23.5 -10t9.5 -23v-166q0 -14 -9.5 -23.5t-23.5 -9.5h-8v232h8zM6 234zM205 134h149l-33 -33q7 0 11.5 -4.5t4.5 -11.5q0 -5 -2 -8.5t-6 -6t-8 -2.5h-83q-7 0 -12 5t-5 12t5 11.5t12 4.5zM205 134zM279 209q7 0 12 -5t5 -12v-41h-33v41q0 7 4.5 12t11.5 5z
M279 209zM200 151l-41 157h240l-41 -157h-46v41q0 21 -19 30t-35 -4q-12 -10 -12 -26v-41h-46zM307 248q-6 -6 -0.5 -12t11.5 0l17 17q6 6 0 11.5t-12 0.5zM271 275v-16q0 -4 2.5 -6.5t5.5 -2.5q9 0 9 9v16q0 9 -8.5 9t-8.5 -9zM224 264.5q-6 -5.5 0 -11.5l16 -17q6 -6 12 0
t0 12l-17 17q-5 5 -11 -0.5zM224 265zM431 358q5 0 7.5 -4t0.5 -8l-8 -17q-3 -4 -8 -4h-288q-5 0 -7 4l-8 17q-2 4 0.5 8t6.5 4h304zM431 358zM304 449q16 0 31.5 -5.5t27 -15.5t20 -23.5t11.5 -29.5h-229q4 21 17 38t32 26.5t40 9.5h50zM221 391q9 0 9 8.5t-9 8.5h-8
q-8 0 -8 -8.5t8 -8.5h8zM337 391q9 0 9 8.5t-9 8.5h-83q-8 0 -8 -8.5t8 -8.5h83zM337 391zM201 2q22 0 39 14t21 36h34q-5 -38 -34 -61.5t-66.5 -21t-63.5 30t-26 64.5v13q0 10 -7 17t-17 7h-25v33h25q24 0 41 -16.5t17 -40.5v-13q0 -26 18 -44t44 -18zM201 2z" />
  </g>

</svg>
