<?xml version="1.0" standalone="no"?>
<!DOCTYPE svg PUBLIC "-//W3C//DTD SVG 1.1//EN" "http://www.w3.org/Graphics/SVG/1.1/DTD/svg11.dtd" >
<svg xmlns="http://www.w3.org/2000/svg" xmlns:xlink="http://www.w3.org/1999/xlink" version="1.1" viewBox="-10 0 532 512">
  <g transform="matrix(1 0 0 -1 0 448)">
   <path fill="currentColor"
d="M509 429q7 -19 -8 -36q-9 -10 -27 -13q-4 0 -5 -1l-3 -1q-16 -6 -19 -10q-7 -6 -10 -19q-1 -2 -1 -3q-5 -13 -15 -21q-7 -5 -15 -7l-6 -2l-53 -62l-48 48l52 62q1 8 5 15l-3 3q-2 3 -2 6v17q0 4 2 6l9 9q2 2 6 2h17q3 0 6 -2l4 -4q3 2 7 4v11q0 3 2 6l9 9q2 2 6 2h17
q3 0 6 -2l4 -5q20 6 32 7q24 2 31 -19zM422 431l-3 -4v-10l3 -3h10l4 3v10l-4 4h-10zM371 405l-3 -3v-10l3 -4h10l4 4v10l-4 3h-10zM265 263l22 26l48 -48l-22 -26zM232 224l22 26l48 -47l-22 -26zM272 140q21 0 26 -16q3 -9 -2 -18q-5 -10 -16 -13q-5 -1 -9 -3
q-19 -7 -31.5 -24t-14.5 -40v-2q-3 -38 -31.5 -63t-66.5 -25q-29 0 -54 16q-8 5 -16 11q-26 21 -41 48q-38 67 17 117q20 18 55 27q14 4 27.5 21.5t20.5 33t11 29.5l1 2l1 1q18 23 40 21q16 -1 25 -15t4 -30l-4 -14l7 7l47 -47l-24 -28q4 -1 5 0q14 4 23 4zM213 108
q6 6 0 12t-12 0l-72 -71l-6 6l72 71q6 6 0 12t-13 0l-71 -71l-6 6l80 80q6 6 0 12t-12 0l-80 -80l-12 12q-3 3 -6.5 2.5t-5.5 -2.5l-25 -26q-5 -6 1 -12l72 -72q3 -3 6 -3q4 0 6 3l25 26q5 6 -1 12l-12 12z" />
  </g>

</svg>
