<?xml version="1.0" standalone="no"?>
<!DOCTYPE svg PUBLIC "-//W3C//DTD SVG 1.1//EN" "http://www.w3.org/Graphics/SVG/1.1/DTD/svg11.dtd" >
<svg xmlns="http://www.w3.org/2000/svg" xmlns:xlink="http://www.w3.org/1999/xlink" version="1.1" viewBox="-11 0 531 512">
  <g transform="matrix(1 0 0 -1 0 448)">
   <path fill="currentColor"
d="M94 430q-4 10 -1.5 14t7.5 4h312q5 0 7.5 -4t0.5 -9l-2 -5h-324zM459 238zM70 384l-6 15q-2 4 1 8t8 4h366q5 0 8 -4t1 -8l-6 -15h-372zM464 265l-5 -27h-166v27h171zM54 73h-32l-22 217q-1 12 7 21t20 9h449q13 0 21 -9t7 -21l-23 -217h-234v183q0 11 -8 19t-20 8h-153
q-12 0 -20.5 -8.5t-7.5 -20.5zM448 128q9 0 9 9t-9 9h-37q-9 0 -9 -9t9 -9h37zM457 174q9 0 9 9t-9 9h-119q-9 0 -9 -9t9 -9h119zM274 265v-27q0 -8 5.5 -13.5t13.5 -5.5h166q15 0 18 15l5 28q2 8 -3.5 14.5t-14.5 6.5h-171q-8 0 -13.5 -5t-5.5 -13zM283 192q-9 0 -9 -9
t9 -9h19q9 0 9 9t-9 9h-19zM283 146q-9 0 -9 -9t9 -9h92q9 0 9 9t-9 9h-92zM229 87q-6 7 -43 27q-5 2 -6 7l-1 10q9 11 12 25q6 5 5 13q-2 19 -7 23l-2 19q-1 3 -3 7.5t-7 11.5t-15.5 12t-25.5 5q-22 0 -33.5 -11t-10.5 -28l2 -17q-4 -5 -3 -10l1 -14q1 -8 7 -12
q7 -15 19 -25l1 -11q0 -4 -4 -6l-26 -17q-14 -7 -16 -23l-7 70q-5 62 -9 112q-1 4 2 7t7 3h153q10 0 10 -9v-169zM37 338l-1 5q-3 9 2.5 16t25.5 7h395q9 0 14.5 -7t2.5 -16l-1 -5h-438zM110 18q-9 0 -9 -9t9 -9h393l-8 -64h-478l-8 64h55q9 0 9 9t-9 9h-58l-3 27q-1 4 2 7
q4 4 9 3h486q4 0 7 -3t2 -7l-3 -27h-396zM125 97q14 8 12 24l-2 14q0 4 -3 6q-8 8 -12 13.5t-5 9t-3 4.5l-2 2l-1 10q3 7 3 8t-2 21q0 8 5 13q9 8 21 7q12 0 20 -5t10 -9t3 -7q4 -26 7 -29l2 -11q-3 -2 -4 -5q-2 -14 -12 -23q-2 -3 0 -21q2 -15 15 -22q36 -19 40 -24h-125
q1 5 6 7l1 1t3 2t5 3l7.5 5t10.5 6z" />
  </g>

</svg>
