<?xml version="1.0" standalone="no"?>
<!DOCTYPE svg PUBLIC "-//W3C//DTD SVG 1.1//EN" "http://www.w3.org/Graphics/SVG/1.1/DTD/svg11.dtd" >
<svg xmlns="http://www.w3.org/2000/svg" xmlns:xlink="http://www.w3.org/1999/xlink" version="1.1" viewBox="-10 0 532 512">
  <g transform="matrix(1 0 0 -1 0 448)">
   <path fill="currentColor"
d="M503 431h-59v-137h51q7 0 12 -5t5 -12v-324q0 -7 -5 -12t-12 -5h-461q-7 0 -12 5t-5 12v68h-8q-9 0 -9 8.5t9 8.5h51v197l-34 -31q-9 -7 -9 -19v-27q0 -9 -8.5 -9t-8.5 9v27q0 19 14 32l246 222q10 9 23 9h220q9 0 9 -8.5t-9 -8.5zM154 124v196l-77 -69v-213h25q9 0 9 9
v60h-9q-8 0 -8 8.5t8 8.5h52zM247 209v196l-76 -70v-211h25q9 0 9 8v60h-9q-8 0 -8 8.5t8 8.5h51zM358 431v-137h69v137h-69zM353 137v-15q12 -23 14 -49h8q1 9 3 18v1q0 1 1 1q3 16 11 31q1 4 2 9q1 32 -14 61q-20 -25 -25 -57zM265 420v-211h25q9 0 9 9v59h-9q-8 0 -8 8.5
t8 8.5h51v137h-58q-7 0 -12 -4zM282 159q3 -29 21 -53q19 -22 47 -30q-3 29 -21 52q-10 12 -24 20q-11 7 -23 11zM410 -30v51h-86v-51q0 -4 2.5 -8t6 -6.5t7.5 -2.5h53q7 0 12 5t5 12zM427 38v17h-120v-17h120zM460 159q-28 -9 -47 -31l-7 -10l-8 -18q-2 -6 -3 -12
q-2 -6 -2 -12q27 8 47 30q17 24 20 53zM460 159zM350 -38q-9 0 -9 8.5t9 8.5h34q9 0 9 -8.5t-9 -8.5h-34zM350 -38z" />
  </g>

</svg>
