<?xml version="1.0" standalone="no"?>
<!DOCTYPE svg PUBLIC "-//W3C//DTD SVG 1.1//EN" "http://www.w3.org/Graphics/SVG/1.1/DTD/svg11.dtd" >
<svg xmlns="http://www.w3.org/2000/svg" xmlns:xlink="http://www.w3.org/1999/xlink" version="1.1" viewBox="-10 0 522 512">
  <g transform="matrix(1 0 0 -1 0 448)">
   <path fill="currentColor"
d="M431 405q8 0 8 -8v-51q0 -9 -8 -9h-120q-8 0 -8 9v51q0 8 8 8h52v26q-41 0 -70 -4.5t-61.5 -19t-52.5 -40.5t-33.5 -72.5t-13.5 -111.5v-164q17 2 34 2q37 0 65.5 -11.5t28.5 -31t-28.5 -31t-65.5 -11.5q-23 0 -44 4.5t-35 14.5t-14 24q0 24 42 36v168q0 65 12.5 112
t33.5 76.5t54 46.5t70 23.5t86 6.5q9 0 9 -9v-34h51zM166 4q-18 0 -34 -3v-14q0 -8 -8.5 -8t-8.5 8v10q-25 -8 -25 -18q0 -6 9 -11.5t27 -10t40 -4.5q33 0 55 8.5t22 17.5q0 5 -9 11t-27.5 10t-40.5 4zM418 320q4 0 4 -4v-13q0 -9 -8 -9h-85q-9 0 -9 9v13q0 4 4 4h94z" />
  </g>

</svg>
