<?xml version="1.0" standalone="no"?>
<!DOCTYPE svg PUBLIC "-//W3C//DTD SVG 1.1//EN" "http://www.w3.org/Graphics/SVG/1.1/DTD/svg11.dtd" >
<svg xmlns="http://www.w3.org/2000/svg" xmlns:xlink="http://www.w3.org/1999/xlink" version="1.1" viewBox="-10 0 532 512">
  <g transform="matrix(1 0 0 -1 0 448)">
   <path fill="currentColor"
d="M358 316q21 0 36 -15t15 -36v-180q0 -21 -15 -36t-36 -15h-158l-83 -91q-2 -3 -6 -3q-2 0 -3 1q-6 2 -6 8v85h-51q-21 0 -36 15t-15 36v180q0 21 15 36t36 15h307zM461 443q21 0 36 -15t15 -35v-181q0 -14 -7 -25.5t-18.5 -18t-25.5 -6.5h-9v-86q0 -6 -5 -8h-3q-4 0 -7 2
l-10 12v1.5v1.5v180q0 40 -15 54t-70 14l-214 -1q-4 0 -6.5 2.5t-2.5 6.5v52q0 8 3 16t7.5 14t10.5 11t14 7.5t16 2.5z" />
  </g>

</svg>
