<?xml version="1.0" standalone="no"?>
<!DOCTYPE svg PUBLIC "-//W3C//DTD SVG 1.1//EN" "http://www.w3.org/Graphics/SVG/1.1/DTD/svg11.dtd" >
<svg xmlns="http://www.w3.org/2000/svg" xmlns:xlink="http://www.w3.org/1999/xlink" version="1.1" viewBox="-10 0 523 512">
  <g transform="matrix(1 0 0 -1 0 448)">
   <path fill="currentColor"
d="M53 395q0 9 9 9t9 -9t-9 -9t-9 9zM26 324h-8q-8 0 -13 5.5t-5 12.5v88q0 8 5 13t13 5h88q7 0 12.5 -5t5.5 -13v-88q0 -7 -5.5 -12.5t-12.5 -5.5h-9v27q0 18 -14 28q6 8 5 18.5t-8.5 17.5t-17.5 7t-18 -7t-8.5 -17.5t5.5 -18.5q-14 -10 -15 -28v-27zM247 395q0 9 9 9t9 -9
t-9 -9t-9 9zM212 324q-7 0 -12.5 5.5t-5.5 12.5v88q0 8 5.5 13t12.5 5h88q7 0 12.5 -5t5.5 -13v-88q0 -7 -5.5 -12.5t-12.5 -5.5h-9v27q0 18 -14 28q6 8 5 18.5t-8.5 17.5t-17.5 7t-17.5 -7t-8.5 -17.5t5 -18.5q-14 -10 -14 -28v-27h-9zM433 395q0 9 8.5 9t8.5 -9t-8.5 -9
t-8.5 9zM424 298q9 0 9 9v17h-9v27q0 7 5 12.5t12.5 5.5t12.5 -5.5t5 -12.5v-27h-9v-17q0 -6 -2 -10.5t-5.5 -8.5t-8.5 -6t-10 -2h-62v-26h35q8 0 13 -5.5t5 -12.5v-88q0 -7 -5 -12.5t-13 -5.5h-9v27q0 17 -14 28q6 8 5 18t-8.5 17t-17.5 7t-17.5 -7t-8.5 -17t5 -18
q-14 -11 -14 -28v-27h-9q-7 0 -12.5 5.5t-5.5 12.5v88q0 7 5.5 12.5t12.5 5.5h35v26h-70q-11 0 -18 7q-7 -7 -18 -7h-70v-26h35q7 0 12.5 -5.5t5.5 -12.5v-88q0 -7 -5.5 -12.5t-12.5 -5.5h-9v27q0 17 -14 28q6 8 5 18t-8.5 17t-17.5 7t-17.5 -7t-8.5 -17t5 -18
q-14 -11 -14 -28v-27h-9q-8 0 -13 5.5t-5 12.5v88q0 7 5 12.5t13 5.5h35v26h-71q-11 0 -18.5 8t-7.5 19v17h-9v27q0 7 5 12.5t12.5 5.5t12.5 -5.5t5 -12.5v-27h-8v-17q0 -9 8 -9h159q9 0 9 9v17h-9v27q0 7 5.5 12.5t12.5 5.5t12.5 -5.5t5.5 -12.5v-27h-9v-17q0 -9 9 -9h150z
M486 448q7 0 12 -5t5 -13v-88q0 -7 -5 -12.5t-12 -5.5h-9v27q0 18 -15 28q7 8 6 18.5t-9 17.5q-5 4 -11.5 5.5t-12.5 0t-11 -5.5q-8 -7 -9 -17.5t5 -18.5q-14 -10 -14 -28v-27h-9q-7 0 -12 5.5t-5 12.5v88q0 8 5 13t12 5h89zM150 201q0 9 9 9t9 -9t-9 -9t-9 9zM344 201
q0 9 9 9t9 -9t-9 -9t-9 9zM141 157q0 7 5.5 12t12.5 5t12.5 -5t5.5 -12v-27h-9v-17q0 -9 9 -9h158q9 0 9 9v17h-9v27q0 7 5.5 12t12.5 5t12.5 -5t5.5 -12v-27h-9v-17q0 -11 -8 -19t-19 -8h-70v-26h35q7 0 12.5 -5.5t5.5 -12.5v-88q0 -8 -5.5 -13t-12.5 -5h-9v26q0 18 -14 29
q6 8 5 18t-8.5 17t-17.5 7t-17.5 -7t-8.5 -17t5 -18q-14 -11 -14 -29v-26h-9q-7 0 -12.5 5t-5.5 13v88q0 7 5.5 12.5t12.5 5.5h35v26h-70q-11 0 -19 8t-8 19v17h-9v27zM247 6.5q0 8.5 9 8.5t9 -8.5t-9 -8.5t-9 8.5zM238 -38q0 8 5.5 13t12.5 5t12.5 -5t5.5 -13v-26h-36v26z
" />
  </g>

</svg>
