<?xml version="1.0" standalone="no"?>
<!DOCTYPE svg PUBLIC "-//W3C//DTD SVG 1.1//EN" "http://www.w3.org/Graphics/SVG/1.1/DTD/svg11.dtd" >
<svg xmlns="http://www.w3.org/2000/svg" xmlns:xlink="http://www.w3.org/1999/xlink" version="1.1" viewBox="-11 0 523 512">
  <g transform="matrix(1 0 0 -1 0 448)">
   <path fill="currentColor"
d="M188 416q0 8 -9 8q-34 0 -62.5 -14t-44.5 -30.5t-29 -40t-15.5 -30.5t-5.5 -15v-2h-23q6 44 31.5 80t64.5 56.5t84 20.5q23 0 44.5 -5.5t40.5 -15.5t35 -24t28.5 -31.5t21 -38t11.5 -42.5h-321q3 8 7 18t15.5 29t26 33t39 25t52.5 11q9 0 9 8zM188 416zM373 388
q-1 -3 -3 -5l-15 -23q-21 39 -56 65l1 3q9 14 25 18t30.5 -4t19.5 -23.5t-2 -30.5zM373 388zM477 234q0 -37 -4 -66t-19 -61.5t-40 -54t-70 -36t-107 -14.5q-7 0 -11.5 5t-4.5 12q0 4 2 8t6 6t8 2q53 0 91.5 11.5t60.5 29t34.5 44.5t16.5 53t4 61q0 73 -74 118l14 22
q2 3 3 6q21 -12 38.5 -28t34.5 -48.5t17 -69.5zM477 234zM138 2h199q9 0 16.5 -4.5t12 -12t4.5 -16.5h-265q0 14 9.5 23.5t23.5 9.5zM138 2zM166 52q5 1 9 -1.5t4 -7.5v-24h-41v19q0 8 8 9zM166 52zM130 275h99q0 -13 -6.5 -24.5t-18 -18t-25.5 -6.5q-20 0 -34.5 14.5
t-14.5 34.5zM130 275z" />
  </g>

</svg>
