<?xml version="1.0" standalone="no"?>
<!DOCTYPE svg PUBLIC "-//W3C//DTD SVG 1.1//EN" "http://www.w3.org/Graphics/SVG/1.1/DTD/svg11.dtd" >
<svg xmlns="http://www.w3.org/2000/svg" xmlns:xlink="http://www.w3.org/1999/xlink" version="1.1" viewBox="-12 0 524 512">
  <g transform="matrix(1 0 0 -1 0 448)">
   <path fill="currentColor"
d="M177 408q-6 0 -11 5t-5 12v24h24v-41h-8zM177 408zM55 238v-114h-49v114q0 8 9 8h32q8 0 8 -8zM55 238zM31 270q-10 0 -17.5 7t-7.5 17q0 6 6.5 18.5t12.5 21.5l6 9q24 -35 24 -49q0 -10 -7 -17t-17 -7zM31 270zM161 262v-81h-49v81q0 8 8 8h33q8 0 8 -8zM161 262z
M136.5 294q-10.5 0 -17.5 7.5t-7 17.5q0 4 2.5 10t6 12.5t7.5 12.5t6 10l3 4q24 -36 24 -49q0 -10 -7 -17.5t-17.5 -7.5zM137 294zM389 107h65v-16q0 -7 -5 -11.5t-11 -4.5h-9q0 -38 -23.5 -67t-61 -36.5t-70.5 10t-48 52.5q-9 -23 -27.5 -39t-42.5 -22.5t-48 -1.5
q-37 8 -61 37t-24 67h-8q-7 0 -12 4.5t-5 11.5v16h65v-16q0 -3 -1 -6t-3.5 -5.5t-5.5 -3.5t-6 -1h-8q0 -37 26 -63.5t63.5 -26.5t63.5 26.5t26 63.5v15q-25 -25 -57 -11q-15 6 -24 19.5t-9 29.5v4h-8q-6 0 -11 4.5t-5 11.5v16h65v-16q0 -7 -4.5 -11.5t-11.5 -4.5h-8v-4
q0 -16 10.5 -26.5t25.5 -10.5t26 10.5t11 26.5v280h-16v41h89v-24q0 -7 -4.5 -12t-11.5 -5h-41v-280q0 -16 11 -26.5t26 -10.5t25.5 10.5t10.5 26.5v4h-8q-3 0 -6 1t-5 3.5t-3.5 5.5t-1.5 6v16h65v-16q0 -7 -4.5 -11.5t-11.5 -4.5h-8v-4q0 -16 -9 -29.5t-23 -19.5
q-33 -14 -58 11v-15q0 -37 26.5 -63.5t63.5 -26.5t63 26.5t26 63.5h-8q-4 0 -8 2t-6 6t-2 8v16zM389 107zM446 238v-114h-49v114q0 8 8 8h33q8 0 8 -8zM446 238zM421 270q-10 0 -17 7t-7 17q0 6 6 18.5t12 21.5l6 9q25 -35 25 -49q0 -10 -7.5 -17t-17.5 -7zM421 270z
M299 270h33q8 0 8 -8v-81h-49v81q0 8 8 8zM299 270zM315.5 294q-10.5 0 -17.5 7.5t-7 17.5q0 6 6 18t12 21l7 10q24 -36 24 -49q0 -10 -7 -17.5t-17.5 -7.5zM316 294z" />
  </g>

</svg>
