<?xml version="1.0" standalone="no"?>
<!DOCTYPE svg PUBLIC "-//W3C//DTD SVG 1.1//EN" "http://www.w3.org/Graphics/SVG/1.1/DTD/svg11.dtd" >
<svg xmlns="http://www.w3.org/2000/svg" xmlns:xlink="http://www.w3.org/1999/xlink" version="1.1" viewBox="-10 0 522 512">
  <g transform="matrix(1 0 0 -1 0 448)">
   <path fill="currentColor"
d="M367 -53q2 -9 -6 -11h-3q-6 0 -8 6l-77 303q-1 3 -4.5 2.5t-3.5 -3.5v-223q0 -8 -9 -8t-9 8v223q0 3 -3.5 3.5t-4.5 -2.5l-77 -303q-2 -6 -8 -6h-3q-8 2 -6 11l100 390h-57q-9 0 -9 9v93q0 9 9 9h136q9 0 9 -9v-93q0 -9 -9 -9h-57z" />
  </g>

</svg>
