<?xml version="1.0" standalone="no"?>
<!DOCTYPE svg PUBLIC "-//W3C//DTD SVG 1.1//EN" "http://www.w3.org/Graphics/SVG/1.1/DTD/svg11.dtd" >
<svg xmlns="http://www.w3.org/2000/svg" xmlns:xlink="http://www.w3.org/1999/xlink" version="1.1" viewBox="-10 0 522 512">
  <g transform="matrix(1 0 0 -1 0 448)">
   <path fill="currentColor"
d="M451 233q6 0 6 -7v-34q0 -7 -6 -7h-21v-184q0 -7 -7 -7h-20q-7 0 -7 7v184h-225v-184q0 -7 -7 -7h-82q-7 0 -7 7v184h-14q-6 0 -6 7v34q0 7 6 7h21v14q0 6 7 6h13v14q0 7 7 7h109q7 0 7 -7v-20q0 -7 -7 -7h-20v-7h165v3q0 7 5 12t12 5h9v41h-29q-4 0 -6 3t-1 6l21 82
q2 5 7 5h36q5 0 6 -5l21 -82q1 -3 -1 -6t-5 -3h-8v-9q0 -6 -7 -6t-7 6v9h-13v-41h9q5 0 9 -2t6.5 -6.5t2.5 -8.5v-3h21zM386 376l-18 -68h61l-18 68h-25zM376 236v-3h40v3q0 4 -4 4h-32q-4 0 -4 -4zM116 260v-7h75h21v7h-96zM96 240v-7h88v7h-88zM157 82v48h-68v-48h68z
M89 8h68v61h-68v-61zM157 144v41h-68v-41h68zM416 8v177h-6v-177h6zM444 199v20h-19h-2h-54h-1h-177h-102h-21v-20h14h82h239h20h21zM116 158q-7 0 -7 7t7 7h14q7 0 7 -7t-7 -7h-14zM116 96q-7 0 -7 7t7 7h14q7 0 7 -7t-7 -7h-14zM130 42q7 0 7 -7t-7 -7h-14q-7 0 -7 7t7 7
h14z" />
  </g>

</svg>
