<?xml version="1.0" standalone="no"?>
<!DOCTYPE svg PUBLIC "-//W3C//DTD SVG 1.1//EN" "http://www.w3.org/Graphics/SVG/1.1/DTD/svg11.dtd" >
<svg xmlns="http://www.w3.org/2000/svg" xmlns:xlink="http://www.w3.org/1999/xlink" version="1.1" viewBox="-10 0 532 512">
  <g transform="matrix(1 0 0 -1 0 448)">
   <path fill="currentColor"
d="M102 276q0 5 2.5 9t7 6.5t9.5 2.5q8 0 13.5 -5.5t5.5 -13t-5.5 -13t-13.5 -5.5t-13.5 5.5t-5.5 13.5zM195 275.5q0 7.5 5.5 13t13.5 5.5t13.5 -5.5t5.5 -13t-5.5 -13t-13.5 -5.5t-13.5 5.5t-5.5 13zM485 201q11 0 19 -7.5t8 -18.5v-102q0 -24 -17 -41t-41 -17h-16v-37
h-29q-4 -16 -16.5 -26.5t-29.5 -10.5h-46q-20 0 -33.5 13.5t-13.5 32.5v10q0 19 -13.5 32.5t-33.5 13.5h-9q-19 0 -32.5 -13.5t-13.5 -32.5q0 -10 -9.5 -10t-9.5 10q0 26 19 45.5t46 19.5h9q27 0 46.5 -19.5t19.5 -45.5v-10q0 -11 8 -19.5t20 -8.5h46q20 0 26 19h-17v37h-16
q-24 0 -41 17t-17 41v35h-298v335h335v-242h9v79q0 10 7 17t16.5 7t16.5 -7t7 -17v-79h28v79q0 10 7 17t16 7q6 0 11.5 -3.5t8.5 -8.5t3 -12v-79h20zM167.5 145q53.5 0 92 38.5t38.5 92.5t-38.5 92t-92 38t-92 -38t-38.5 -92t38.5 -92.5t92 -38.5zM419 -3v18h-28v-18h28z
M493 155v20q0 8 -8 8h-20v-19h-46v19h-28v-19h-47v19h-9h-10q-8 0 -8 -9v-19h176zM177 387q28 -2 51.5 -17.5t37 -40t13.5 -53.5q0 -44 -29.5 -76t-72.5 -35v18q0 9 -9.5 9t-9.5 -9v-18q-28 2 -51.5 17.5t-37 40t-13.5 53.5t13.5 53.5t37 40t51.5 17.5v-18q0 -9 9.5 -9
t9.5 9v18zM121 239q15 0 26 10.5t11 26t-11 26.5t-26 11t-26 -11t-11 -26.5t11 -26t26 -10.5zM214.5 239q15.5 0 26 10.5t10.5 26t-10.5 26.5t-26 11t-26.5 -11t-11 -26.5t11 -26t26.5 -10.5z" />
  </g>

</svg>
