<?xml version="1.0" standalone="no"?>
<!DOCTYPE svg PUBLIC "-//W3C//DTD SVG 1.1//EN" "http://www.w3.org/Graphics/SVG/1.1/DTD/svg11.dtd" >
<svg xmlns="http://www.w3.org/2000/svg" xmlns:xlink="http://www.w3.org/1999/xlink" version="1.1" viewBox="-10 0 532 512">
  <g transform="matrix(1 0 0 -1 0 448)">
   <path fill="currentColor"
d="M466 428l45 -205q3 -12 -5 -21q-8 -10 -20 -10h-68v-51h51q9 0 9 -9v-8q0 -31 -19.5 -54.5t-49.5 -29.5q-2 -44 -34 -74t-76 -30h-52q-45 0 -77.5 32.5t-32.5 78.5v136q-1 19 -19 25q-6 -27 -33 -32v-18q0 -32 -22.5 -54.5t-53.5 -22.5q-9 0 -9 9v307q0 8 9 8
q31 0 53.5 -22.5t22.5 -53.5v-18q13 -3 22 -12t12 -22q36 -3 61 -30t25 -64v-136q0 -18 12.5 -30.5t29.5 -12.5h52q15 0 27 10.5t15 25.5q-30 7 -49 30.5t-19 53.5v8q0 9 9 9h51v51h-68q-13 0 -20 10q-8 9 -5 21l45 205q2 9 9 14.5t16 5.5h131q9 0 16 -5.5t9 -14.5zM68 158
v171q0 22 -14.5 38.5t-36.5 20.5v-289q22 3 36.5 20t14.5 39zM85 193q17 7 17 25v51q0 18 -17 24v-100zM299 -47q36 0 63 24.5t30 60.5h-34v0q-2 -14 -10.5 -25.5t-21.5 -18.5t-27 -7h-52q-24 0 -41.5 17.5t-17.5 42.5v136q0 30 -19.5 51.5t-49.5 25.5v-35q15 -3 25 -14.5
t10 -27.5v-136q0 -39 27.5 -66.5t65.5 -27.5h52zM393 55q28 1 48 20.5t20 48.5h-171q0 -29 20 -48.5t48 -20.5h35zM401 141v51h-51v-51h51zM493 212q3 3 2 7l-46 205q-1 7 -8 7h-131q-7 0 -8 -7l-46 -205q-1 -4 2 -7t7 -3h10l41 164q2 8 10 6t7 -10l-40 -160h193q4 0 7 3z
M493 212z" />
  </g>

</svg>
