<?xml version="1.0" standalone="no"?>
<!DOCTYPE svg PUBLIC "-//W3C//DTD SVG 1.1//EN" "http://www.w3.org/Graphics/SVG/1.1/DTD/svg11.dtd" >
<svg xmlns="http://www.w3.org/2000/svg" xmlns:xlink="http://www.w3.org/1999/xlink" version="1.1" viewBox="-10 0 522 512">
  <g transform="matrix(1 0 0 -1 0 448)">
   <path fill="currentColor"
d="M447 185q7 0 7 -7v-20q0 -7 -7 -7h-7v-164q0 -7 -6.5 -7t-6.5 7v164h-55h-14v-20h7q11 0 19.5 -8.5t8.5 -19.5q0 -7 -7 -7h-10l16 -107q1 -7 -6 -8h-1q-6 0 -7 6l-8 55h-66l-8 -55q-1 -6 -7 -6h-1q-6 1 -5 8l16 107h-9q-7 0 -7 7q0 11 8.5 19.5t19.5 8.5h6v20h-14h-88
h-14v-20h7q11 0 19.5 -8.5t8.5 -19.5q0 -7 -7 -7h-10l16 -107q1 -7 -6 -8h-1q-6 0 -7 6l-8 55h-66l-8 -55q-1 -6 -7 -6h-1q-6 1 -5 8l16 107h-9q-7 0 -7 7q0 11 8.5 19.5t19.5 8.5h6v20h-14h-61v-164q0 -7 -6.5 -7t-6.5 7v164h-7q-7 0 -7 7v20q0 7 7 7h65h1q6 7 15 7h69
q9 0 15 -7h58q6 7 15 7h69q9 0 15 -7h60zM283 172h-47q0 -4 -2 -7h50q-1 3 -1 7zM72 172v-7h55q-1 3 -1 7h-54zM149 55h62l-1 7h-59zM208 76l-3 20h-49l-3 -20h55zM220 109q-4 8 -12 8h-13h-28h-13q-8 0 -12 -8h78zM188 131v20h-14v-20h14zM195 165h20q7 0 7 6.5t-7 6.5h-69
q-7 0 -7 -6.5t7 -6.5h21h28zM307 55h61l-1 7h-59zM365 76l-3 20h-49l-3 -20h55zM377 109q-4 8 -12 8h-13h-28h-13q-8 0 -12 -8h78zM345 131v20h-14v-20h14zM352 165h20q7 0 7 6.5t-7 6.5h-69q-7 0 -7 -6.5t7 -6.5h21h28zM440 165v7h-47q0 -4 -2 -7h49zM347 242l-20 18
q-4 3 -2 8l20 48v6q0 14 13 19v56q0 7 7 7t7 -7v-56q14 -5 14 -19v-6l22 -48q2 -5 -2 -8l-22 -19q-2 -2 -5 -2l-28 1q-2 0 -4 2zM365 329q-7 0 -7 -7h14q0 7 -7 7zM356 308l-17 -41l15 -14h23l8 7h-20q-7 0 -7 7t7 7h25l-16 34h-18zM231 242l-21 18q-3 3 -1 8l20 48v6
q0 14 13 19v56q0 7 7 7t7 -7v-56q14 -5 14 -19v-6l22 -48q2 -5 -2 -8l-22 -19q-2 -2 -5 -2l-28 1q-2 0 -4 2zM249 329q-7 0 -7 -7h14q0 7 -7 7zM240 308l-17 -41l15 -14h23l8 7h-20q-7 0 -7 7t7 7h25l-16 34h-18zM115 242l-21 18q-3 3 -1 8l20 48v6q0 14 13 19v56q0 7 7 7
t7 -7v-56q14 -5 14 -19v-6l22 -48q2 -5 -2 -8l-22 -19q-2 -2 -5 -2l-28 1q-2 0 -4 2zM133 329q-7 0 -7 -7h14q0 7 -7 7zM124 308l-17 -41l15 -14h23l8 7h-20q-7 0 -7 7t7 7h25l-16 34h-18z" />
  </g>

</svg>
