<?xml version="1.0" standalone="no"?>
<!DOCTYPE svg PUBLIC "-//W3C//DTD SVG 1.1//EN" "http://www.w3.org/Graphics/SVG/1.1/DTD/svg11.dtd" >
<svg xmlns="http://www.w3.org/2000/svg" xmlns:xlink="http://www.w3.org/1999/xlink" version="1.1" viewBox="-11 0 533 512">
  <g transform="matrix(1 0 0 -1 0 448)">
   <path fill="currentColor"
d="M504 100q8 0 8 -9v-42q0 -8 -8 -8h-487q-9 0 -9 8v42q0 4 3 6q-12 7 -11 21q1 8 7 13t14 5q3 0 3.5 3t-2.5 5q-17 7 -11 25t24 14q3 -1 4.5 2t-1.5 5q-15 11 -5.5 27t26.5 9q3 -2 5 0.5t0 5.5q-13 14 -0.5 27.5t27.5 2.5q3 -2 5.5 0t0.5 5q-9 17 6 28t27 -3q3 -3 6 -1.5
t2 4.5q-6 19 11 26.5t26 -8.5v-1q2 -3 5 -2t3 4v1q-1 5 1 10t6 8t9 5q18 4 24 -14v-1q1 -3 4.5 -3t3.5 4v1q1 8 7 13t14 5t14 -5t6 -13l1 -1q0 -4 3 -4t4 3l1 1q5 18 24 14q8 -2 12.5 -8.5t3.5 -14.5v-1q-1 -3 2 -4t5 2l1 1q9 16 26 8.5t11 -25.5q-1 -4 2 -5.5t5 0.5v1
q13 14 28 3t6 -27q-2 -4 0 -6t5 0q16 11 28.5 -2.5t-0.5 -27.5q-2 -3 -0.5 -5.5t4.5 -1.5q18 8 27 -8t-6 -27q-2 -2 -1 -5t4 -2q19 4 24.5 -14t-11.5 -25q-3 -2 -2 -5t4 -3q8 0 14 -5t6 -13q2 -11 -7 -18h8zM252 209q-46 0 -80 -31.5t-37 -77.5h16q4 39 32.5 65.5t68 26.5
t68.5 -26.5t32 -65.5h17q-2 30 -18 55t-42.5 39.5t-56.5 14.5zM305 133q6 6 0 12t-12 0t0 -12t12 0zM251.5 125q-11.5 0 -20.5 -7t-12 -18h18q5 8 14.5 8t14.5 -8h18q-3 11 -12 18t-20.5 7zM243 158.5q0 -8.5 8.5 -8.5t8.5 8.5t-8.5 8.5t-8.5 -8.5zM210 133q6 6 0 12t-12 0
t0 -12t12 0zM495 58v25h-11h-115h-235h-109v-25h470z" />
  </g>

</svg>
