<?xml version="1.0" standalone="no"?>
<!DOCTYPE svg PUBLIC "-//W3C//DTD SVG 1.1//EN" "http://www.w3.org/Graphics/SVG/1.1/DTD/svg11.dtd" >
<svg xmlns="http://www.w3.org/2000/svg" xmlns:xlink="http://www.w3.org/1999/xlink" version="1.1" viewBox="-10 0 532 512">
  <g transform="matrix(1 0 0 -1 0 448)">
   <path fill="currentColor"
d="M486 286q11 0 18.5 -7.5t7.5 -18t-7.5 -18t-18.5 -7.5h-68q-18 0 -24 17h-19q0 -11 -7.5 -18.5t-17.5 -7.5h-26v-8q0 -9 -8.5 -9t-8.5 9v8h-34v-8q0 -9 -8.5 -9t-8.5 9v8h-26q-10 0 -17.5 7.5t-7.5 18.5v42h-34q-7 0 -12 -5t-5 -12v-256q0 -7 5 -12t12 -5h60
q-24 15 -38 40t-14 54q0 9 9 9h205q8 0 8 -9q24 -3 32 -18q8 -17 -8 -38q-15 -21 -45 -21h-6h-4q-9 -9 -21 -17h95q14 0 24 -10t10 -24t-10 -24t-24 -10h-410q-9 0 -17 4.5t-12.5 12.5t-4.5 17v17h60q8 0 8 8.5t-8 8.5h-60v17h60q8 0 8 8.5t-8 8.5h-60v17h60q8 0 8 9t-8 9
h-60v17h60q8 0 8 8.5t-8 8.5h-60v307q0 14 10 24t24 10h410q14 0 24 -10t10 -24v-85q0 -15 -10 -25t-24 -10h-69v-25h19q6 17 24 17h68zM389 47q-2 -3 -5 -7v-0.5t-1 -1.5q18 1 28 14t6 20q-3 7 -17 9q0 -1 -0.5 -1t-0.5 -1q0 -4 -1 -8q-1 -2 -1 -3q-1 -3 -3 -7q-1 -3 -1 -4
q-1 -3 -3 -7zM197 90q3 -36 30 -61t63 -25q42 0 70 32q7 8 12 17l0.5 0.5t0.5 1.5q1 1 3 4q0 2 1 3q1 2 2 5v2q1 3 2 5v3l2 6q0 3 1 7h-187zM77 329q17 0 29.5 12.5t12.5 30t-12.5 30t-29.5 12.5q-12 0 -21.5 -6t-15.5 -15.5t-6 -21.5q0 -7 2 -13.5t6 -11.5t9.5 -9t12 -6
t13.5 -2zM179 329q18 0 30.5 12.5t12.5 30t-12.5 30t-30 12.5t-30 -12.5t-12.5 -30.5q0 -11 5.5 -21t15.5 -15.5t21 -5.5zM358 252v42h-136v-42q0 -9 8 -9h35h51h34q8 0 8 9zM273 183v-8q0 -9 -8.5 -9t-8.5 9v8q0 9 8.5 9t8.5 -9zM264.5 149q8.5 0 8.5 -8v-9q0 -8 -8.5 -8
t-8.5 8v9q0 8 8.5 8zM324 183v-8q0 -9 -8.5 -9t-8.5 9v8q0 9 8.5 9t8.5 -9zM315.5 149q8.5 0 8.5 -8v-9q0 -8 -8.5 -8t-8.5 8v9q0 8 8.5 8zM76.5 397q10.5 0 18 -7.5t7.5 -18t-7.5 -18t-18 -7.5t-18 7.5t-7.5 18t7.5 18t18 7.5zM179 397q11 0 18.5 -7.5t7.5 -18t-7.5 -18
t-18 -7.5t-18 7.5t-7.5 17.5q0 7 3 13t9 9.5t13 3.5z" />
  </g>

</svg>
