<?xml version="1.0" standalone="no"?>
<!DOCTYPE svg PUBLIC "-//W3C//DTD SVG 1.1//EN" "http://www.w3.org/Graphics/SVG/1.1/DTD/svg11.dtd" >
<svg xmlns="http://www.w3.org/2000/svg" xmlns:xlink="http://www.w3.org/1999/xlink" version="1.1" viewBox="-10 0 532 512">
  <g transform="matrix(1 0 0 -1 0 448)">
   <path fill="currentColor"
d="M399 395v-2v-2t-0.5 -2t-1 -1.5t-1 -1.5t-1.5 -1.5l-2 -1t-2 -0.5h-2h-1.5t-1.5 0.5l-2 1t-1.5 1.5t-1 1.5t-1 1.5l-1 2t-0.5 2t0.5 2l1 2t1 1.5t1 1.5t1.5 1.5l2 1l1 0.5h4q1 0 2 -0.5l2 -1t1.5 -1.5t1 -1.5t1 -1.5t0.5 -2zM502 307h-19v-296h19q10 0 10 -10v-48
q0 -10 -10 -10h-492q-10 0 -10 10v48q0 10 10 10h19v296h-19q-10 0 -10 10v48q0 10 10 10h43l17 59q2 7 10 7h352q8 0 10 -7l17 -59h43q10 0 10 -10v-48q0 -10 -10 -10zM76 383l-2 -8h364l-13 46h-338l-5 -18h265q10 0 10 -10t-10 -10h-268h-3zM492 -9h-472v-28h472v28z
M84 256h-35v-31h35v31zM49 276h35v31h-35v-31zM84 205h-35v-70h35v70zM84 115h-35v-31h35v31zM84 64h-35v-53h35v53zM256 276q53 0 90 -37t37 -90v-138h25v296h-304v-296h25v138q0 53 37 90t90 37zM264 84q30 -36 30 -55q0 -5 -1 -10q6 3 10 7q19 15 21 38q4 39 -26 74
q-2 -5 -6 -12q-4 -5 -10.5 -4t-8.5 8q-2 13 -12 26q-9 10 -12 25q-20 -23 -20 -56q0 -6 -6 -8.5t-11 1.5q-6 5 -11 14q-19 -40 -11 -77q5 -24 29 -36q-1 5 -1 10q0 19 30 55q3 4 8 4t8 -4zM274 29q0 8 -18 33q-18 -25 -18 -33t5.5 -13t12.5 -5t12.5 5t5.5 13zM344 62
q-3 -31 -28 -51h47v138q0 44 -31.5 75.5t-75.5 31.5t-75.5 -31.5t-31.5 -75.5v-138h47q-20 16 -26 39q-11 50 18 100q0 1 1 2q5 8 14 7q6 -1 10 -6q8 31 31 52q6 6 14 2.5t8 -11.5q2 -17 10 -28q4 -5 8 -11q3 4 7 6q9 2 19 -9q39 -42 34 -92zM428 276h35v31h-35v-31z
M463 256h-35v-31h35v31zM463 205h-35v-70h35v70zM463 115h-35v-31h35v31zM463 64h-35v-53h35v53zM20 327h472v28h-472v-28z" />
  </g>

</svg>
