<?xml version="1.0" standalone="no"?>
<!DOCTYPE svg PUBLIC "-//W3C//DTD SVG 1.1//EN" "http://www.w3.org/Graphics/SVG/1.1/DTD/svg11.dtd" >
<svg xmlns="http://www.w3.org/2000/svg" xmlns:xlink="http://www.w3.org/1999/xlink" version="1.1" viewBox="-15 0 527 512">
  <g transform="matrix(1 0 0 -1 0 448)">
   <path fill="currentColor"
d="M117 318q-26 -26 -41.5 -71t-15.5 -99.5t15.5 -99.5t41.5 -70q-54 18 -88 65t-34 104.5t34 104.5t88 66zM117 318zM154 323q-20 -48 -20 -175t20 -175q-33 12 -55 61.5t-22 113.5t22 113t55 62zM154 323zM199 148q0 -74 -7 -126.5t-17.5 -52.5t-17.5 52.5t-7 126.5
t7 126.5t17.5 52.5t17.5 -52.5t7 -126.5zM199 148zM195 323q22 -8 39.5 -33t27.5 -62.5t10 -80t-10 -79.5t-27.5 -62t-39.5 -33q20 48 20 175t-20 175zM195 323zM232 318q54 -19 88 -66t34 -104.5t-34 -104.5t-88 -65q26 25 41 70t15 99.5t-15 99.5t-41 71zM232 318z
M260 323q-40 20 -85.5 20t-86.5 -20q25 29 62 34v11q0 17 17 23q-1 0 -1 1v49q0 8 8.5 8t8.5 -8v-49l-1 -1q17 -6 17 -23v-11q37 -5 61 -34zM260 323z" />
  </g>

</svg>
