<?xml version="1.0" standalone="no"?>
<!DOCTYPE svg PUBLIC "-//W3C//DTD SVG 1.1//EN" "http://www.w3.org/Graphics/SVG/1.1/DTD/svg11.dtd" >
<svg xmlns="http://www.w3.org/2000/svg" xmlns:xlink="http://www.w3.org/1999/xlink" version="1.1" viewBox="-10 0 522 512">
  <g transform="matrix(1 0 0 -1 0 448)">
   <path fill="currentColor"
d="M95 354q-3 9 4 15l57 42l25 34q2 3 7 3h68q4 0 7 -3l25 -34l57 -42q7 -5 4.5 -13.5t-10.5 -9.5l-49 -140q-1 0 -1 -0.5v-0.5q0 -1 -1 -2l-41 -40v-176h26q18 0 30.5 -12.5t12.5 -29.5q0 -9 -9 -9h-170q-9 0 -9 9q0 17 12.5 29.5t30.5 12.5h25v176l-40 40q-1 1 -1 2
q-1 0 -1 1v0l-49 140q-8 1 -10 8zM235 175l26 26h-78l25 -26h27zM276 218l45 128h-41l-30 -128h26zM232 218l30 128h-81l31 -128h20zM164 346h-41l45 -128h26zM297 -47q-6 17 -24 17h-102q-18 0 -24 -17h150zM213 -13h17v171h-17v-171zM192 431l-13 -17h86l-13 17h-60z
M165 397l-46 -34h205l-45 34h-114zM165 397zM213 311q-8 0 -8 9t8 9h17q9 0 9 -9t-9 -9h-17zM213 311zM230 294q9 0 9 -8.5t-9 -8.5h-17q-8 0 -8 8.5t8 8.5h17zM230 294zM90 319q7 -4 2.5 -11.5t-11.5 -3.5l-60 34q-4 3 -4 8t4.5 7.5t8.5 -0.5zM90 319zM26 201q-7 0 -8.5 6
t3.5 9l60 35q7 4 11.5 -3.5t-2.5 -11.5l-60 -34q-2 -1 -4 -1zM26 201zM9 269q-9 0 -9 8.5t9 8.5h68q8 0 8 -8.5t-8 -8.5h-68zM9 269zM351 307.5q-4 7.5 3 11.5l60 34q7 4 11.5 -3.5t-3.5 -11.5l-59 -34q-8 -4 -12 3.5zM351 307zM354 236q-4 2 -4 7t4 7.5t9 0.5l59 -35
q8 -4 3.5 -11t-11.5 -3zM354 236zM435 286q9 0 9 -8.5t-9 -8.5h-68q-9 0 -9 8.5t9 8.5h68zM435 286z" />
  </g>

</svg>
