<?xml version="1.0" standalone="no"?>
<!DOCTYPE svg PUBLIC "-//W3C//DTD SVG 1.1//EN" "http://www.w3.org/Graphics/SVG/1.1/DTD/svg11.dtd" >
<svg xmlns="http://www.w3.org/2000/svg" xmlns:xlink="http://www.w3.org/1999/xlink" version="1.1" viewBox="-10 0 532 512">
  <g transform="matrix(1 0 0 -1 0 448)">
   <path fill="currentColor"
d="M448 329q3 0 6 -2t5 -5t2 -6v-248q0 -5 -4 -9t-9 -4h-384q-5 0 -9 4t-4 9v248q0 5 4 9t9 4h384zM173 107q28 6 47 30.5t19 54.5t-19 54.5t-47 30.5q-4 1 -7.5 -1.5t-3.5 -6.5v-17h-17v17q0 4 -3 6.5t-7 1.5q-19 -4 -34.5 -16.5t-24 -30.5t-8.5 -38q0 -30 19 -54.5
t48 -30.5q4 -1 7 1.5t3 6.5v17h17v-17q0 -4 3 -6t6 -2h2zM377 107q19 4 34.5 16.5t24 30.5t8.5 38t-8.5 38t-24 30.5t-34.5 16.5q-4 1 -7 -1.5t-3 -6.5v-17h-17v17q0 4 -3.5 6.5t-7.5 1.5q-28 -6 -47 -30.5t-19 -54.5t19 -54.5t47 -30.5q4 -1 7.5 1.5t3.5 6.5v17h17v-17
q0 -4 3 -6q2 -2 5 -2h2zM179 257q19 -8 31 -26t12 -39t-12 -39t-31 -26v14q0 8 -8 8h-34q-9 0 -9 -8v-14q-19 8 -31 26t-12 39t12 39t31 26v-14q0 -8 9 -8h34q8 0 8 8v14zM128 175q7 0 12 5t5 12t-5 12t-12 5t-12 -5t-5 -12t5 -12t12 -5zM179 175q5 0 9 2.5t6 6t2 8.5
q0 7 -5 12t-12 5t-12 -5t-5 -12t5 -12t12 -5zM461 380q21 0 36 -15t15 -36v-274q0 -21 -15 -36t-36 -15h-410q-21 0 -36 15t-15 36v274q0 21 15 36t36 15h410zM478 68v248q0 12 -9 21t-21 9h-384q-12 0 -21 -9t-9 -21v-248q0 -12 9 -21t21 -9h384q12 0 21 9t9 21zM384 257
q19 -8 31 -26t12 -39t-12 -39t-31 -26v14q0 8 -9 8h-34q-8 0 -8 -8v-14q-19 8 -31 26t-12 39q0 14 5.5 27t15 23t22.5 15v-14q0 -8 8 -8h34q9 0 9 8v14zM333 175q7 0 12 5t5 12t-5 12t-12 5t-12 -5t-5 -12t5 -12t12 -5zM384 175q7 0 12 5t5 12t-5 12t-12 5t-12 -5t-5 -12
t5 -12t12 -5z" />
  </g>

</svg>
