<?xml version="1.0" standalone="no"?>
<!DOCTYPE svg PUBLIC "-//W3C//DTD SVG 1.1//EN" "http://www.w3.org/Graphics/SVG/1.1/DTD/svg11.dtd" >
<svg xmlns="http://www.w3.org/2000/svg" xmlns:xlink="http://www.w3.org/1999/xlink" version="1.1" viewBox="-10 0 532 512">
  <g transform="matrix(1 0 0 -1 0 448)">
   <path fill="currentColor"
d="M299 192q0 7 5 12t12 5t12 -5t5 -12t-5 -12t-12 -5t-12 5t-5 12zM196 209q7 0 12 -5t5 -12t-5 -12t-12 -5t-12 5t-5 12q0 5 2.5 8.5t6.5 6t8 2.5zM282 300q37 -9 61 -39.5t24 -68.5t-24 -68.5t-61 -39.5v23q0 8 -9 8h-34q-9 0 -9 -8v-23q-24 6 -43.5 21.5t-30.5 38.5
t-11 48q0 38 24 68.5t61 39.5v-23q0 -8 9 -8h34q9 0 9 8v23zM196 158q10 0 17.5 4.5t12 12.5t4.5 17q0 14 -10 24t-24 10t-24 -10t-10 -24t10 -24t24 -10zM256 183q9 0 9 9t-9 9t-9 -9t9 -9zM350 192q0 9 -4.5 17t-12.5 12.5t-17 4.5q-14 0 -24 -10t-10 -24t10 -24t24 -10
t24 10t10 24zM448 397q5 0 9 -4t4 -9v-384q0 -5 -4 -9t-9 -4h-384q-5 0 -9 4t-4 9v384q0 5 4 9t9 4h384zM274 65q47 7 78.5 43.5t31.5 83.5t-31.5 83.5t-78.5 43.5q-4 0 -6.5 -2.5t-2.5 -6.5v-24h-18v24q0 4 -2.5 6.5t-6.5 2.5q-47 -7 -78.5 -43.5t-31.5 -83.5t31.5 -83.5
t78.5 -43.5q4 0 6.5 2.5t2.5 6.5v24h18v-24q0 -4 2 -7q3 -2 6 -2h1zM461 448q21 0 36 -15t15 -36v-410q0 -21 -15 -36t-36 -15h-410q-21 0 -36 15t-15 36v410q0 21 15 36t36 15h410zM478 0v384q0 12 -9 21t-21 9h-384q-12 0 -21 -9t-9 -21v-384q0 -12 9 -21t21 -9h384
q12 0 21 9t9 21z" />
  </g>

</svg>
