<?xml version="1.0" standalone="no"?>
<!DOCTYPE svg PUBLIC "-//W3C//DTD SVG 1.1//EN" "http://www.w3.org/Graphics/SVG/1.1/DTD/svg11.dtd" >
<svg xmlns="http://www.w3.org/2000/svg" xmlns:xlink="http://www.w3.org/1999/xlink" version="1.1" viewBox="-16 0 528 512">
  <g transform="matrix(1 0 0 -1 0 448)">
   <path fill="currentColor"
d="M24 449h260q0 -20 -14 -34.5t-34 -14.5h-163q-20 0 -34.5 14.5t-14.5 34.5zM24 449zM89 384h25v-24h-9q-16 0 -16 9v15zM89 384zM219 384v-15q0 -9 -16 -9h-73v24h89zM219 384zM154 303q-8 0 -8 8v49q0 8 8 8t8 -8v-49q0 -8 -8 -8zM154 303zM122 311h65q7 0 11.5 -5
t4.5 -12h-98q0 7 5 12t12 5zM122 311zM271 26l-11 -24h-212l-11 24h234zM271 26zM169 42l43 67l47 -67h-90zM169 42zM49 42l48 67l42 -67h-90zM49 42zM42 192l45 -68l-58 -81l-33 72q-4 9 1 16zM42 192zM100 272l44 -65l-47 -69l-45 68zM100 272zM154 222l-38 56h77z
M154 222zM154 193l47 -70l-47 -74l-47 74zM154 193zM256 206l-45 -68l-47 69l44 65zM256 206zM313 115l-34 -72l-58 81l46 68l44 -61q6 -7 2 -16zM313 115zM29 43l1 -1h-1v1zM29 43zM37 26zM37 26zM279 43v-1v1zM279 43zM271 26zM271 26zM56.5 -31q-8.5 0 -8.5 8v25
q0 8 8.5 8t8.5 -8v-25q0 -8 -8.5 -8zM57 -31zM89 -31q-8 0 -8 8v25q0 8 8 8t8 -8v-25q0 -8 -8 -8zM89 -31zM122 -31q-8 0 -8 8v25q0 8 8 8t8 -8v-25q0 -8 -8 -8zM122 -31zM154 -31q-8 0 -8 8v25q0 8 8 8t8 -8v-25q0 -8 -8 -8zM154 -31zM187 -31q-8 0 -8 8v25q0 8 8 8t8 -8
v-25q0 -8 -8 -8zM187 -31zM219 -31q-8 0 -8 8v25q0 8 8 8t8 -8v-25q0 -8 -8 -8zM219 -31zM252 -31q-8 0 -8 8v25q0 8 8 8t8 -8v-25q0 -8 -8 -8zM252 -31z" />
  </g>

</svg>
