<?xml version="1.0" standalone="no"?>
<!DOCTYPE svg PUBLIC "-//W3C//DTD SVG 1.1//EN" "http://www.w3.org/Graphics/SVG/1.1/DTD/svg11.dtd" >
<svg xmlns="http://www.w3.org/2000/svg" xmlns:xlink="http://www.w3.org/1999/xlink" version="1.1" viewBox="-13 0 525 512">
  <g transform="matrix(1 0 0 -1 0 448)">
   <path fill="currentColor"
d="M129 2h149q14 0 23.5 -9.5t9.5 -23.5h-215q0 14 10 23.5t23 9.5zM129 2zM204 168q35 0 59 -24.5t24 -58.5t-24.5 -58t-58.5 -24q-22 0 -41 11t-30 30t-11 41q0 34 24 58.5t58 24.5zM204 126q8 0 8 8.5t-8 8.5q-24 0 -41 -17t-17 -41q0 -8 8.5 -8t8.5 8q0 17 12 29t29 12z
M204 126zM244 201q-2 -15 -13.5 -24t-26.5 -9t-26.5 9t-14.5 24h81zM244 201zM221 424h-35l1 25h33zM221 424zM71 259l33 189q1 0 1 1h24l-20 -190h-38zM71 259zM126 259l20 189v1h25l-1 -25h-16q-8 0 -8 -8t8 -8h15l-5 -149h-38zM126 259zM227 259h-46l5 149h36zM227 259z
M282 259v-3v3zM282 259zM284 242v0.5v1.5v-2zM284 242zM238 424l-1 25h25v-1l20 -189h-38l-5 149h15q8 0 8 8t-8 8h-16zM238 424zM299 259l-21 190h25v-1l34 -189h-38zM299 259zM30 250.5q0 -8.5 8 -8.5h13l-4 -23v-2h-50l58 232h33l-34 -190h-16q-8 0 -8 -8.5zM30 250z
M107 242l-2 -24v-1h-42l5 25h39zM107 242zM163 242v-24v-1h-42l3 25h39zM163 242zM229 217h-50l1 25h48zM229 217zM282 259v-3v3zM282 259zM284 244v-2v0.5v1.5zM284 244zM245 217v1l-1 24h40l3 -25h-42zM245 217zM282 259v-3v3zM282 259zM284 244v-2v0.5v1.5zM284 244z
M345 217h-42v1l-2 24h39zM345 217zM411 217h-50v2l-4 23h12q9 0 9 8.5t-9 8.5h-15l-34 190h33zM411 217zM369.5 149q-8.5 0 -8.5 8v60q0 9 8.5 9t8.5 -9v-60q0 -8 -8.5 -8zM369 149zM394 132q0 -6 -3 -12t-9 -9t-13 -3q-10 0 -17 7t-7 17.5t7 17.5t17 7q5 0 10 -2t8 -5t5 -8
t2 -10zM394 132z" />
  </g>

</svg>
