<?xml version="1.0" standalone="no"?>
<!DOCTYPE svg PUBLIC "-//W3C//DTD SVG 1.1//EN" "http://www.w3.org/Graphics/SVG/1.1/DTD/svg11.dtd" >
<svg xmlns="http://www.w3.org/2000/svg" xmlns:xlink="http://www.w3.org/1999/xlink" version="1.1" viewBox="-11 0 534 512">
  <g transform="matrix(1 0 0 -1 0 448)">
   <path fill="currentColor"
d="M247 -21.5q0 8.5 9 8.5q11 0 18.5 7.5t7.5 18.5q0 8 8.5 8t8.5 -8q0 -18 -12.5 -30.5t-30.5 -12.5q-9 0 -9 8.5zM469.5 183q8.5 0 8.5 -8q0 -18 -12.5 -30.5t-30.5 -12.5q-8 0 -8 8.5t8 8.5q11 0 18.5 7.5t7.5 18.5q0 8 8.5 8zM68 89.5q0 8.5 9 8.5q10 0 17.5 7.5
t7.5 18.5q0 8 8.5 8t8.5 -8q0 -18 -12.5 -30.5t-29.5 -12.5q-9 0 -9 8.5zM508 201q10 -30 -3.5 -59t-43.5 -39.5t-59 3t-39.5 43.5t3.5 59t44 39v22q0 8 8 8h9v128h-162v-290h8q9 0 9 -8v-22q34 -12 46 -47q11 -30 -2.5 -58.5t-43.5 -39t-59 3t-39.5 43.5t3 59t43.5 39v22
q0 8 9 8h8v290h-162v-179h9q8 0 8 -8v-22q35 -12 47 -47q11 -30 -3 -58.5t-44 -39t-58.5 3t-39 43.5t3 59t43.5 39v22q0 8 9 8h8v179h-59q-9 0 -9 9v25q0 9 9 9h494q9 0 9 -9v-25q0 -9 -9 -9h-59v-128h8q9 0 9 -8v-22q34 -12 47 -46zM68 209v-9q9 1 17 0v9h-17zM89 182
q-14 3 -27 0q-13 -4 -23.5 -12.5t-16 -20.5t-5.5 -25q0 -25 17.5 -42.5t42.5 -17.5t42.5 17.5t17.5 42.5q0 20 -12.5 36t-32.5 22h-2h-1zM247 98v-9q9 1 18 0v9h-18zM268 71q-14 3 -27 0q-20 -5 -32.5 -21.5t-12.5 -36.5q0 -25 17.5 -42.5t42.5 -17.5t42.5 17.5t17.5 42.5
q0 20 -12.5 36.5t-32.5 21.5h-2h-1zM17 422h478v9h-478v-9zM427 260v-9q8 1 17 0v9h-17zM435 115q25 0 42.5 17.5t17.5 42.5q0 20 -12.5 36.5t-32.5 21.5h-2h-1q-14 3 -27 0q-20 -5 -32.5 -21.5t-12.5 -36.5q0 -25 17.5 -42.5t42.5 -17.5z" />
  </g>

</svg>
