<?xml version="1.0" standalone="no"?>
<!DOCTYPE svg PUBLIC "-//W3C//DTD SVG 1.1//EN" "http://www.w3.org/Graphics/SVG/1.1/DTD/svg11.dtd" >
<svg xmlns="http://www.w3.org/2000/svg" xmlns:xlink="http://www.w3.org/1999/xlink" version="1.1" viewBox="-10 0 532 512">
  <g transform="matrix(1 0 0 -1 0 448)">
   <path fill="currentColor"
d="M256 448q106 0 181 -75t75 -181t-75 -181t-181 -75t-181 75t-75 181t75 181t181 75zM358 31v331q0 11 -7.5 18.5t-18.5 7.5q-7 0 -14 -3q0 -1 -1 -2l-113 -105q-2 -1 -4 -1h-71q-11 0 -19 -7.5t-8 -18.5v-109q0 -11 8 -19t19 -8h71q2 0 4 -1l113 -105l1 -1q7 -4 14 -4
q11 0 18.5 8t7.5 19z" />
  </g>

</svg>
