<?xml version="1.0" standalone="no"?>
<!DOCTYPE svg PUBLIC "-//W3C//DTD SVG 1.1//EN" "http://www.w3.org/Graphics/SVG/1.1/DTD/svg11.dtd" >
<svg xmlns="http://www.w3.org/2000/svg" xmlns:xlink="http://www.w3.org/1999/xlink" version="1.1" viewBox="-10 0 532 512">
  <g transform="matrix(1 0 0 -1 0 448)">
   <path fill="currentColor"
d="M325 54q6 5 13.5 5t13 -5t5.5 -12.5t-6 -13.5l-73 -73q-5 -5 -12.5 -5t-13.5 5l-73 73q-5 6 -5 13.5t5 12.5t13 5t13 -5l42 -42v177l-42 -42q-5 -5 -13 -5t-13 5t-5 13t5 13l73 73q1 1 3 2q0 1 1 1l2 1l1.5 0.5t2.5 0.5q3 1 7 0l1.5 -0.5l1.5 -0.5l2 -1q1 0 1 -1
q2 -1 3 -2l73 -73q6 -5 6 -13t-5.5 -13t-13 -5t-13.5 5l-42 42v-177zM437 288q32 -6 53.5 -32t21.5 -59q0 -38 -27 -65t-65 -27h-89h-2h-2h-2h-2h-21v40l11 -11q10 -11 25.5 -11t26 11t10.5 26t-11 26l-73 73q-2 3 -5 5q-1 0 -2 1h-1q-3 2 -3.5 2t-3.5 1l-3 1q-8 1 -15 0
l-1.5 -0.5l-1.5 -0.5q-3 -1 -3.5 -1t-3.5 -2l-1 -0.5t-2 -0.5l-5 -5l-74 -73q-10 -11 -10 -26t10.5 -26t25.5 -11t26 11l11 11v-40h-130q-41 0 -70 29t-29 70q0 29 16.5 55.5t42.5 38.5l5 3v5v4v1v2v2q0 27 19 45.5t45 18.5h8q1 0 3 -1q3 0 7 -1h1q3 -1 7 -3q1 -1 2 -1
q4 -2 7 -4q29 -19 29 -54q0 -9 9 -9t9 9q0 39 -29 63q20 26 50 41t62 15q53 0 92 -36.5t44 -90.5q-20 2 -37 -1q-9 -1 -8 -10q1 -8 9 -8h2q20 3 42 0z" />
  </g>

</svg>
