<?xml version="1.0" standalone="no"?>
<!DOCTYPE svg PUBLIC "-//W3C//DTD SVG 1.1//EN" "http://www.w3.org/Graphics/SVG/1.1/DTD/svg11.dtd" >
<svg xmlns="http://www.w3.org/2000/svg" xmlns:xlink="http://www.w3.org/1999/xlink" version="1.1" viewBox="-10 0 522 512">
  <g transform="matrix(1 0 0 -1 0 448)">
   <path fill="currentColor"
d="M169 326q-7 0 -12 5.5t-5 12.5t5 12l87 87q1 1 3 2v1h1q1 1 1.5 1h1.5l0.5 0.5t1.5 0.5h7l1 -1h2l2 -1l0.5 -0.5l0.5 -0.5l2 -2l87 -87q5 -5 5 -12t-5 -12t-12 -5t-12 5l-57 57v-279q0 -8 -5.5 -13t-12.5 -5t-12 5t-5 13v279l-58 -58q-5 -5 -12 -5zM291 309h156v-373
h-382v373h156v-199q0 -15 10.5 -25t24.5 -10t24.5 10t10.5 25v199z" />
  </g>

</svg>
