<?xml version="1.0" standalone="no"?>
<!DOCTYPE svg PUBLIC "-//W3C//DTD SVG 1.1//EN" "http://www.w3.org/Graphics/SVG/1.1/DTD/svg11.dtd" >
<svg xmlns="http://www.w3.org/2000/svg" xmlns:xlink="http://www.w3.org/1999/xlink" version="1.1" viewBox="-10 0 532 512">
  <g transform="matrix(1 0 0 -1 0 448)">
   <path fill="currentColor"
d="M238 192q0 18 18 18t18 -18t-18 -18t-18 18zM256 128q23 0 39 -16t16 -39t-16 -39t-39 -16t-39 16t-16 39t16 39t39 16zM262 67q7 6 0 13l-27 27q-6 6 -12.5 -0.5t-0.5 -12.5l28 -27q2 -3 6 -3t6 3zM466 192q0 -9 10 -9h36q-1 -25 -6 -48l-18 4q-9 3 -11 -6t6 -11l18 -5
q-7 -23 -19 -45l-15 9q-8 5 -12.5 -3t2.5 -13l16 -9q-13 -21 -30 -38l-12 12q-7 7 -13.5 0.5t0.5 -13.5l12 -12q-17 -17 -38 -30l-9 16q-5 7 -13 2.5t-3 -12.5l9 -15q-22 -12 -45 -19l-5 18q-2 8 -11 6t-6 -11l4 -18q-23 -5 -48 -6v36q0 10 -9 10t-9 -10v-36q-25 1 -48 6
l4 18q3 9 -6 11t-11 -6l-5 -18q-23 7 -45 19l9 15q5 8 -3 12.5t-13 -2.5l-9 -16q-21 13 -38 30l12 12q7 7 0.5 13.5t-13.5 -0.5l-12 -12q-17 17 -30 38l16 9q7 5 2.5 13t-12.5 3l-15 -9q-12 22 -19 45l18 5q8 2 6 11t-11 6l-18 -4q-5 23 -6 48h36q10 0 10 9t-10 9h-36
q1 25 6 48l18 -4q1 -1 2 -1q7 0 9 7q2 9 -6 11l-18 5q7 23 19 45l15 -9q2 -1 5 -1q5 0 8 4q4 8 -3 13l-16 9q13 21 30 38l12 -12q3 -3 7 -3t6 3q7 6 0 13l-12 12q17 17 38 30l9 -16q3 -4 8 -4q2 0 5 1q8 5 3 13l-9 15q22 12 45 19l5 -18q1 -6 8 -6h3q9 2 6 11l-4 18
q23 5 48 6v-36q0 -10 9 -10t9 10v36q25 -1 48 -6l-4 -18q-3 -9 6 -11h3q7 0 8 6l5 18q23 -7 45 -19l-9 -15q-5 -8 3 -13q3 -1 5 -1q5 0 8 4l9 16q21 -13 38 -30l-12 -12q-7 -7 0 -13q2 -3 6 -3t7 3l12 12q17 -17 30 -38l-16 -9q-7 -5 -3 -13q3 -4 8 -4q3 0 5 1l15 9
q12 -22 19 -45l-18 -5q-8 -2 -6 -11q2 -7 9 -7q1 0 2 1l18 4q5 -23 6 -48h-36q-10 0 -10 -9zM256 0q30 0 51.5 21.5t21.5 51.5t-21.5 51.5t-51.5 21.5t-51.5 -21.5t-21.5 -51.5t21.5 -51.5t51.5 -21.5zM357 184q9 0 9 9t-9 9h-66q-5 20 -26 25v121q0 9 -9 9t-9 -9v-121
q-12 -3 -20 -12.5t-8 -22.5q0 -15 11 -26t26 -11q12 0 22 8.5t13 20.5h66z" />
  </g>

</svg>
