<?xml version="1.0" standalone="no"?>
<!DOCTYPE svg PUBLIC "-//W3C//DTD SVG 1.1//EN" "http://www.w3.org/Graphics/SVG/1.1/DTD/svg11.dtd" >
<svg xmlns="http://www.w3.org/2000/svg" xmlns:xlink="http://www.w3.org/1999/xlink" version="1.1" viewBox="-10 0 522 512">
  <g transform="matrix(1 0 0 -1 0 448)">
   <path fill="currentColor"
d="M401 414q11 0 18.5 -7.5t7.5 -18.5v-426q0 -11 -7.5 -18.5t-18.5 -7.5h-290q-11 0 -18.5 7.5t-7.5 18.5v426q0 11 7.5 18.5t18.5 7.5h106l-11 22q-4 7 3.5 11t11.5 -4l15 -29h41l23 31q5 6 12 1t2 -12l-15 -20h102zM410 -38v426q0 9 -9 9h-157l5 -10q3 1 7 1q14 0 24 -10
t10 -24t-10 -24t-24 -10t-24 10t-10 24q0 15 12 26l-9 17h-114q-9 0 -9 -9v-426q0 -9 9 -9h290q9 0 9 9zM242 364q-3 -5 -3 -10q0 -7 5 -12t12 -5t12 5t5 12t-4.5 12t-11.5 5l7 -13q3 -8 -4 -12h-4q-5 0 -8 4zM256 252q49 0 84 -35t35 -84.5t-35 -84.5t-84 -35t-84 35
t-35 84.5t35 84.5t84 35zM329 81l6 8l-42 14q5 9 5 19v28q0 17 -12.5 29.5t-29.5 12.5t-29.5 -12.5t-12.5 -29.5v-28q0 -10 5 -19l-42 -14l6 -8q28 -36 73 -36t73 36zM183 285.5q0 8.5 8.5 8.5t8.5 -8.5t-8.5 -8.5t-8.5 8.5zM215 285.5q0 8.5 8.5 8.5t8.5 -8.5t-8.5 -8.5
t-8.5 8.5zM118 285.5q0 8.5 8.5 8.5t8.5 -8.5t-8.5 -8.5t-8.5 8.5zM247 285.5q0 8.5 9 8.5t9 -8.5t-9 -8.5t-9 8.5zM150 285.5q0 8.5 8.5 8.5t8.5 -8.5t-8.5 -8.5t-8.5 8.5zM280 285.5q0 8.5 8.5 8.5t8.5 -8.5t-8.5 -8.5t-8.5 8.5zM345 285.5q0 8.5 8.5 8.5t8.5 -8.5
t-8.5 -8.5t-8.5 8.5zM377 285.5q0 8.5 8.5 8.5t8.5 -8.5t-8.5 -8.5t-8.5 8.5zM312 285.5q0 8.5 8.5 8.5t8.5 -8.5t-8.5 -8.5t-8.5 8.5zM118 -12.5q0 8.5 8.5 8.5t8.5 -8.5t-8.5 -8.5t-8.5 8.5zM345 -12.5q0 8.5 8.5 8.5t8.5 -8.5t-8.5 -8.5t-8.5 8.5zM150 -12.5
q0 8.5 8.5 8.5t8.5 -8.5t-8.5 -8.5t-8.5 8.5zM280 -12.5q0 8.5 8.5 8.5t8.5 -8.5t-8.5 -8.5t-8.5 8.5zM377 -12.5q0 8.5 8.5 8.5t8.5 -8.5t-8.5 -8.5t-8.5 8.5zM312 -12.5q0 8.5 8.5 8.5t8.5 -8.5t-8.5 -8.5t-8.5 8.5zM247 -12.5q0 8.5 9 8.5t9 -8.5t-9 -8.5t-9 8.5z
M183 -12.5q0 8.5 8.5 8.5t8.5 -8.5t-8.5 -8.5t-8.5 8.5zM215 -12.5q0 8.5 8.5 8.5t8.5 -8.5t-8.5 -8.5t-8.5 8.5z" />
  </g>

</svg>
