<?xml version="1.0" standalone="no"?>
<!DOCTYPE svg PUBLIC "-//W3C//DTD SVG 1.1//EN" "http://www.w3.org/Graphics/SVG/1.1/DTD/svg11.dtd" >
<svg xmlns="http://www.w3.org/2000/svg" xmlns:xlink="http://www.w3.org/1999/xlink" version="1.1" viewBox="-10 0 522 512">
  <g transform="matrix(1 0 0 -1 0 448)">
   <path fill="currentColor"
d="M401 414q11 0 18.5 -7.5t7.5 -18.5v-426q0 -11 -7.5 -18.5t-18.5 -7.5h-290q-11 0 -18.5 7.5t-7.5 18.5v426q0 11 7.5 18.5t18.5 7.5h106l-11 22q-4 7 3.5 11t11.5 -4l15 -29h41l23 31q5 6 12 1t2 -12l-15 -20h102zM188 -21q8 0 8 8.5t-8 8.5h-9q-8 0 -8 -8.5t8 -8.5h9z
M239 -21q8 0 8 8.5t-8 8.5h-17q-9 0 -9 -8.5t9 -8.5h17zM282 -21q8 0 8 8.5t-8 8.5h-9q-8 0 -8 -8.5t8 -8.5h9zM333 -21q8 0 8 8.5t-8 8.5h-17q-9 0 -9 -8.5t9 -8.5h17zM333 13q8 0 8 8.5t-8 8.5h-154q-8 0 -8 -8.5t8 -8.5h154zM205 55.5q0 -8.5 8 -8.5h86q8 0 8 8.5t-8 8.5
h-86q-8 0 -8 -8.5zM410 107v281q0 9 -9 9h-157l5 -10q3 1 7 1q14 0 24 -10t10 -24t-10 -24t-24 -10t-24 10t-10 24q0 15 12 26l-9 17h-114q-9 0 -9 -9v-281h70q4 16 18 23l32 16v3q-21 12 -29 38q-14 7 -14 22v9q0 12 10 20q2 12 6 22q1 3 3 7q2 5 1 14q-1 5 -2 11
q-1 4 2.5 7.5t8 3.5t7.5 -4q3 -3 8 -7q11 -7 28 -6h5q59 0 67 -48q10 -8 10 -20v-9q0 -15 -14 -22q-8 -26 -29 -38v-3l31 -16q15 -7 19 -23h70zM242 364q-3 -5 -3 -10q0 -7 5 -12t12 -5t12 5t5 12t-4.5 12t-11.5 5l7 -13q3 -8 -4 -12h-4q-5 0 -8 4z" />
  </g>

</svg>
