<?xml version="1.0" standalone="no"?>
<!DOCTYPE svg PUBLIC "-//W3C//DTD SVG 1.1//EN" "http://www.w3.org/Graphics/SVG/1.1/DTD/svg11.dtd" >
<svg xmlns="http://www.w3.org/2000/svg" xmlns:xlink="http://www.w3.org/1999/xlink" version="1.1" viewBox="-10 0 532 512">
  <g transform="matrix(1 0 0 -1 0 448)">
   <path fill="currentColor"
d="M512 192q0 -77 -43 -142l-1 -2q-36 -51 -91.5 -81t-117.5 -31q-63 -1 -120.5 29t-93.5 82l-2 3q-43 65 -43 142q0 106 75 181t181 75t181 -75t75 -181zM495 192q0 75 -42.5 136t-111.5 87q36 -32 42 -79t-18 -99.5t-64 -67.5q-2 0 -2 -3v-5q0 -3 3 -3h19h32
q39 0 69.5 -23t41.5 -60q31 55 31 117zM218 185q12 -5 12 -19v-5q0 -8 -5.5 -14t-14.5 -6h-2l48 -48l48 48h-2q-9 0 -14.5 6t-5.5 14v5q0 14 13 19q33 13 54.5 60.5t16.5 88.5q0 2 -1 7q-29 31 -71 42q-6 -17 -21.5 -27t-33.5 -10q-13 0 -24 5q-18 8 -37 4.5t-31 -17.5
q-2 -10 -2 -18q0 -39 21.5 -81.5t51.5 -53.5zM171 415q-69 -26 -111.5 -87t-42.5 -136q0 -62 31 -117q9 31 33 53q34 30 78 30h32h19q3 0 3 3v5q0 3 -1 3q-35 13 -59.5 59.5t-24.5 91.5q0 57 43 95zM119 -4q9 -6 18 -11v29v19q0 5 -2 5h-16v-11v-31zM375 -15q2 1 5.5 3t6 3
t4.5 3.5t2 5.5v19v18q0 1 -12 1h-2q-3 1 -3.5 0t-0.5 -4v-18v-31z" />
  </g>

</svg>
