<?xml version="1.0" standalone="no"?>
<!DOCTYPE svg PUBLIC "-//W3C//DTD SVG 1.1//EN" "http://www.w3.org/Graphics/SVG/1.1/DTD/svg11.dtd" >
<svg xmlns="http://www.w3.org/2000/svg" xmlns:xlink="http://www.w3.org/1999/xlink" version="1.1" viewBox="-10 0 522 512">
  <g transform="matrix(1 0 0 -1 0 448)">
   <path fill="currentColor"
d="M247 226.5q0 8.5 9 8.5t9 -8.5t-9 -8.5t-9 8.5zM273 243.5q0 8.5 8.5 8.5t8.5 -8.5t-8.5 -8.5t-8.5 8.5zM222 243.5q0 8.5 8.5 8.5t8.5 -8.5t-8.5 -8.5t-8.5 8.5zM196 260.5q0 8.5 8.5 8.5t8.5 -8.5t-8.5 -8.5t-8.5 8.5zM299 260.5q0 8.5 8.5 8.5t8.5 -8.5t-8.5 -8.5
t-8.5 8.5zM324 277.5q0 8.5 8.5 8.5t8.5 -8.5t-8.5 -8.5t-8.5 8.5zM171 277.5q0 8.5 8.5 8.5t8.5 -8.5t-8.5 -8.5t-8.5 8.5zM247 260.5q0 8.5 9 8.5t9 -8.5t-9 -8.5t-9 8.5zM247 157.5q0 8.5 9 8.5t9 -8.5t-9 -8.5t-9 8.5zM247 132.5q0 8.5 9 8.5t9 -8.5t-9 -8.5t-9 8.5z
M247 106.5q0 8.5 9 8.5t9 -8.5t-9 -8.5t-9 8.5zM247 81.5q0 8.5 9 8.5t9 -8.5t-9 -8.5t-9 8.5zM247 55.5q0 8.5 9 8.5t9 -8.5t-9 -8.5t-9 8.5zM247 29.5q0 8.5 9 8.5t9 -8.5t-9 -8.5t-9 8.5zM461 -47q8 0 8 -8.5t-8 -8.5h-26h-8h-342h-8h-26q-8 0 -8 8.5t8 8.5h26v34h42v87
q0 37 31 58l91 60l-91 60q-31 21 -31 58v87h-42v34h-26q-8 0 -8 8.5t8 8.5h26h8h342h8h26q8 0 8 -8.5t-8 -8.5h-26v-34h-42v-87q0 -37 -31 -58l-91 -60l91 -60q31 -21 31 -58v-87h42v-34h26zM160 267l96 -65l96 65q23 15 23 43v87h-238v-87q0 -28 23 -43zM137 74v-87h238v87
q0 28 -23 43l-96 65l-96 -65q-23 -15 -23 -43z" />
  </g>

</svg>
