<?xml version="1.0" standalone="no"?>
<!DOCTYPE svg PUBLIC "-//W3C//DTD SVG 1.1//EN" "http://www.w3.org/Graphics/SVG/1.1/DTD/svg11.dtd" >
<svg xmlns="http://www.w3.org/2000/svg" xmlns:xlink="http://www.w3.org/1999/xlink" version="1.1" viewBox="-10 0 532 512">
  <g transform="matrix(1 0 0 -1 0 448)">
   <path fill="currentColor"
d="M433 377q79 -76 79 -185q0 -106 -75 -181t-181 -75t-181 75t-75 181q0 109 79 185v0q1 1 2.5 2t1.5 2l1 0.5l1 0.5q4 4 8 7q0 1 1 1q4 4 8 7h1q5 4 10 7v0q5 4 10 7h1l10 6v0q5 3 11 5v1h1q4 2 10 4q0 1 0.5 1h0.5l10 4l0.5 0.5t1.5 0.5q4 1 9 3q2 1 3 1q4 1 9 2l3 1
q3 1 9 2l1.5 0.5t2.5 0.5q2 1 8 1q0 1 1.5 1h2.5q2 1 8 1l2 0.5t3 0.5h8q1 0 2 0.5t2 0.5h13h13q1 0 2 -0.5t2 -0.5h8q1 0 3 -0.5l2 -0.5q5 0 8 -1l4 -1q6 0 8 -1q1 0 2.5 -0.5l1.5 -0.5q5 -1 9 -2l3 -1q5 -1 9 -2q1 0 1.5 -0.5t1.5 -0.5q5 -2 9 -3l1 -0.5l1 -0.5l10 -4h0.5
t0.5 -1q6 -2 10 -4h1v-1q6 -2 11 -5v0l10 -6h1q5 -3 10 -7v0q5 -3 10 -7h1q4 -4 8 -7l1 -1q4 -4 8 -7q1 -1 2 -1l1.5 -1.5l2.5 -2.5v0zM333 397v-86q0 -8 8.5 -8t8.5 8v86q0 8 -8.5 8t-8.5 -8zM247 422v-171q0 -8 9 -8t9 8v171q0 9 -9 9t-9 -9zM162 397v-86q0 -8 8.5 -8
t8.5 8v86q0 8 -8.5 8t-8.5 -8zM171 275l-74 -59l80 -100q33 33 79 33t79 -33l80 100l-74 59l-79 -64q-3 -2 -6 -2t-6 2zM256 -47q99 0 169 70t70 169q0 90 -60 158v-128v-4q0 -3 -2 -6l-91 -114l-79 -99q0 -1 -1 -1v0q-1 -1 -2 -1l-0.5 -0.5l-0.5 -0.5h-3h-3l-0.5 0.5
l-0.5 0.5q-1 0 -2 1v0q-1 0 -1 1l-79 99l-91 114q-2 3 -2 6v4v128q-60 -68 -60 -158q0 -99 70 -169t169 -70z" />
  </g>

</svg>
