<?xml version="1.0" standalone="no"?>
<!DOCTYPE svg PUBLIC "-//W3C//DTD SVG 1.1//EN" "http://www.w3.org/Graphics/SVG/1.1/DTD/svg11.dtd" >
<svg xmlns="http://www.w3.org/2000/svg" xmlns:xlink="http://www.w3.org/1999/xlink" version="1.1" viewBox="-10 0 532 512">
  <g transform="matrix(1 0 0 -1 0 448)">
   <path fill="currentColor"
d="M456 448q23 0 39.5 -16.5t16.5 -39.5t-16.5 -39.5t-39.5 -16.5q-21 0 -37 15l-90 -90q15 -20 15 -45.5t-15 -45.5l71 -72q9 6 19 6q15 0 26 -11t11 -26.5t-11 -26.5t-26 -11t-26 11t-11 26q0 10 5 19l-71 72q-17 -13 -37 -16v-94q20 -3 33.5 -19t13.5 -36
q0 -23 -16.5 -39.5t-39.5 -16.5t-39.5 16.5t-16.5 39.5q0 20 13.5 36t33.5 19v94q-20 3 -37 16l-119 -120q7 -12 7 -27q0 -23 -16.5 -39t-39.5 -16t-39.5 16t-16.5 39.5t16.5 39.5t39.5 16q21 0 37 -14l118 118q-16 20 -16 45.5t16 45.5l-71 71q-9 -5 -19 -5q-15 0 -26 11
t-11 26.5t11 26t26 10.5t26 -10.5t11 -26.5q0 -10 -5 -19l71 -71q21 16 46 16t46 -16l91 92q-7 12 -7 26q0 23 16.5 39.5t39.5 16.5z" />
  </g>

</svg>
