<?xml version="1.0" standalone="no"?>
<!DOCTYPE svg PUBLIC "-//W3C//DTD SVG 1.1//EN" "http://www.w3.org/Graphics/SVG/1.1/DTD/svg11.dtd" >
<svg xmlns="http://www.w3.org/2000/svg" xmlns:xlink="http://www.w3.org/1999/xlink" version="1.1" viewBox="-10 0 522 512">
  <g transform="matrix(1 0 0 -1 0 448)">
   <path fill="currentColor"
d="M183 177q-38 33 -38 83q0 46 32.5 78.5t78.5 32.5t78.5 -32.5t32.5 -78.5q0 -50 -38 -83l-8 -7h-1q-2 -2 -5 -3q-1 -1 -3 -2q-3 -2 -5 -3q-1 -1 -5 -2q-3 -2 -4 -2q-4 -2 -8 -3q-1 -1 -2 -1h-1q-4 -1 -7 -2q-2 0 -4 -1q-3 0 -7 -1h-3q-5 -1 -10 -1t-10 1h-3q-4 1 -7 1
q-2 1 -4 1q-3 1 -7 2h-1t-2 1q-4 1 -8 3q-1 0 -5 2q-3 1 -4 2q-2 1 -5 3q-2 1 -3 2q-3 1 -5 3h-1zM256 354q-39 0 -66.5 -27.5t-27.5 -66.5q0 -44 34 -72l0.5 0.5l0.5 0.5l28 15q1 0 1 2v9q-7 9 -10 21q-5 5 -5 12v13q0 5 3 10v14q-2 14 8 24q11 13 34.5 13t34.5 -13
q9 -10 8 -24v-14q3 -5 3 -10v-13q0 -9 -8 -15q-4 -9 -9 -17l-2 -2v-8q0 -2 2 -3l29 -14l1 -1h1q34 28 34 72q0 39 -27.5 66.5t-66.5 27.5zM239 -4q0 17 17 17t17 -17t-17 -17t-17 17zM363 448q16 0 27 -11t11 -27v-436q0 -16 -11 -27t-27 -11h-214q-16 0 -27 11t-11 27v436
q0 16 11 27t27 11h214zM282 422q-9 0 -9 -8.5t9 -8.5h8q9 0 9 8.5t-9 8.5h-8zM222 422q-9 0 -9 -8.5t9 -8.5h34q9 0 9 8.5t-9 8.5h-34zM256 -38q14 0 24 10t10 24t-10 24t-24 10t-24 -10t-10 -24t10 -24t24 -10zM384 55v325h-256v-325h256zM145 73v51h51v-51h-51zM213 73v51
h154v-51h-154z" />
  </g>

</svg>
