<?xml version="1.0" standalone="no"?>
<!DOCTYPE svg PUBLIC "-//W3C//DTD SVG 1.1//EN" "http://www.w3.org/Graphics/SVG/1.1/DTD/svg11.dtd" >
<svg xmlns="http://www.w3.org/2000/svg" xmlns:xlink="http://www.w3.org/1999/xlink" version="1.1" viewBox="-10 0 532 512">
  <g transform="matrix(1 0 0 -1 0 448)">
   <path fill="currentColor"
d="M60 229q-25 0 -42.5 18t-17.5 42.5t17.5 42.5t42.5 18h135h122h135q25 0 42.5 -18t17.5 -42.5t-17.5 -42.5t-42.5 -18h-135h-122h-135zM452 155q25 0 42.5 -18t17.5 -42.5t-17.5 -42.5t-42.5 -18h-135h-122h-135q-25 0 -42.5 18t-17.5 42.5t17.5 42.5t42.5 18h135h122
h135z" />
  </g>

</svg>
