<?xml version="1.0" standalone="no"?>
<!DOCTYPE svg PUBLIC "-//W3C//DTD SVG 1.1//EN" "http://www.w3.org/Graphics/SVG/1.1/DTD/svg11.dtd" >
<svg xmlns="http://www.w3.org/2000/svg" xmlns:xlink="http://www.w3.org/1999/xlink" version="1.1" viewBox="-10 0 532 512">
  <g transform="matrix(1 0 0 -1 0 448)">
   <path fill="currentColor"
d="M350 61q20 -10 31.5 -28.5t11.5 -40.5v-35h-393v36q0 22 11 40t29 28l76 42q12 6 12 19v29q-21 28 -30 61q-13 11 -13 27v34q0 13 9 22v46q-3 32 18 56q26 30 84 30t85 -30q21 -24 18 -56v-46q8 -9 8 -22v-34q0 -22 -20 -31q-9 -27 -25 -49q-3 -5 -6 -9v-28q0 -14 12 -21
zM473 51q39 -19 39 -62v-32h-107v35q0 26 -13 47.5t-36 32.5l-82 41q-5 3 -5 9v24q2 3 4 5q15 22 25 48q22 14 22 40v34q0 15 -9 27v40q2 20 -5 39q14 4 29 4q28 0 49 -11.5t31 -25t16 -31t7 -25t1 -11.5q1 -67 54 -142q7 -10 3.5 -21.5t-14.5 -16.5q-14 -6 -34 -6l-8 1
l-56 -1q3 -5 6 -6z" />
  </g>

</svg>
