<?xml version="1.0" standalone="no"?>
<!DOCTYPE svg PUBLIC "-//W3C//DTD SVG 1.1//EN" "http://www.w3.org/Graphics/SVG/1.1/DTD/svg11.dtd" >
<svg xmlns="http://www.w3.org/2000/svg" xmlns:xlink="http://www.w3.org/1999/xlink" version="1.1" viewBox="-10 0 528 512">
  <g transform="matrix(1 0 0 -1 0 448)">
   <path fill="currentColor"
d="M90 433q-68 -68 -68 -165.5t68 -165.5q6 -6 0 -12q-2 -3 -5.5 -3t-6.5 3q-74 73 -74 177.5t74 177.5q6 7 12 0.5t0 -12.5zM434 445q74 -73 74 -177.5t-74 -177.5q-3 -3 -6.5 -3t-5.5 3q-6 6 0 12q68 68 68 165.5t-68 165.5q-6 6 0 12.5t12 -0.5zM127 396
q-53 -53 -53 -128.5t53 -128.5q6 -6 0 -13q-2 -2 -6 -2t-6 2q-58 59 -58 141.5t58 141.5q6 6 12 0t0 -13zM397 409q58 -59 58 -141.5t-58 -141.5q-2 -2 -6 -2t-6 2q-6 7 0 13q53 53 53 128.5t-53 128.5q-6 7 0 13t12 0zM164 372q6 -6 0 -12q-38 -39 -38 -92.5t38 -92.5
q6 -6 0 -12q-3 -2 -6.5 -2t-5.5 2q-43 43 -43 104.5t43 104.5q6 6 12 0zM360 372q43 -43 43 -104.5t-43 -104.5q-2 -2 -5.5 -2t-6.5 2q-6 6 0 12q38 39 38 92.5t-38 92.5q-6 6 0 12t12 0zM256 327q25 0 43 -18t18 -43q0 -23 -15 -40t-37 -20v-261q0 -9 -9 -9t-9 9v261
q-22 3 -37 20t-15 40q0 25 18 43t43 18z" />
  </g>

</svg>
