<?xml version="1.0" standalone="no"?>
<!DOCTYPE svg PUBLIC "-//W3C//DTD SVG 1.1//EN" "http://www.w3.org/Graphics/SVG/1.1/DTD/svg11.dtd" >
<svg xmlns="http://www.w3.org/2000/svg" xmlns:xlink="http://www.w3.org/1999/xlink" version="1.1" viewBox="-10 0 532 512">
  <g transform="matrix(1 0 0 -1 0 448)">
   <path fill="currentColor"
d="M479.5 415.5q32.5 -32.5 32.5 -79t-33 -78.5l-77 -78q-33 -33 -79 -33q-12 0 -25 3q6 -27 -1.5 -55t-28.5 -49l-78 -77q-32 -33 -78.5 -33t-79 32.5t-32.5 79t33 78.5l77 78q33 33 79 33q12 0 25 -3q-6 27 1.5 55t28.5 49l78 77q32 33 78.5 33t79 -32.5zM244 71
q19 19 22 46t-11 49l-67 -66q-5 -5 -12 -5t-12 5t-5 12t5 12l66 67q-18 11 -41 11q-32 0 -54 -22l-78 -78q-23 -23 -23 -55t22.5 -54.5t55 -22.5t54.5 23zM455 282q23 22 23 54.5t-22.5 55t-55 22.5t-54.5 -23l-78 -78q-19 -19 -22 -46t11 -49l67 66q5 5 12 5t12 -5t5 -12
t-5 -12l-66 -67q18 -11 41 -11q32 0 54 22z" />
  </g>

</svg>
