<?xml version="1.0" standalone="no"?>
<!DOCTYPE svg PUBLIC "-//W3C//DTD SVG 1.1//EN" "http://www.w3.org/Graphics/SVG/1.1/DTD/svg11.dtd" >
<svg xmlns="http://www.w3.org/2000/svg" xmlns:xlink="http://www.w3.org/1999/xlink" version="1.1" viewBox="-10 0 532 512">
  <g transform="matrix(1 0 0 -1 0 448)">
   <path fill="currentColor"
d="M307 26v85h145v-85h-145zM401 94q-8 0 -8 -8.5t8 -8.5h9q8 0 8 8.5t-8 8.5h-9zM333 94q-9 0 -9 -8.5t9 -8.5h34q8 0 8 8.5t-8 8.5h-34zM333 60q-9 0 -9 -8.5t9 -8.5h94q8 0 8 8.5t-8 8.5h-94zM486 350q11 0 18.5 -7.5t7.5 -18.5v-51h-512v119q0 11 7.5 18.5t18.5 7.5h187
q11 0 18.5 -7.5t7.5 -18.5v-42h247zM0 -8v264h512v-264q0 -11 -7.5 -18.5t-18.5 -7.5h-460q-11 0 -18.5 7.5t-7.5 18.5zM290 128v-119h179v119h-179z" />
  </g>

</svg>
