<?xml version="1.0" standalone="no"?>
<!DOCTYPE svg PUBLIC "-//W3C//DTD SVG 1.1//EN" "http://www.w3.org/Graphics/SVG/1.1/DTD/svg11.dtd" >
<svg xmlns="http://www.w3.org/2000/svg" xmlns:xlink="http://www.w3.org/1999/xlink" version="1.1" viewBox="-10 0 532 512">
  <g transform="matrix(1 0 0 -1 0 448)">
   <path fill="currentColor"
d="M0 201v247h247v-247h-247zM71 342q-8 0 -13 -5t-5 -12.5t5 -12.5t13 -5h35v-36q0 -7 5 -12t12.5 -5t12.5 5t5 12v36h36q7 0 12 5t5 12.5t-5 12.5t-12 5h-36v35q0 8 -5 13t-12.5 5t-12.5 -5t-5 -13v-35h-35zM265 448h247v-247h-247v247zM441 307q8 0 13 5t5 12.5t-5 12.5
t-13 5h-106q-7 0 -12 -5t-5 -12.5t5 -12.5t12 -5h106zM265 -64v247h247v-247h-247zM335 104q-7 0 -12 -5.5t-5 -12.5t5 -12.5t12 -5.5h106q8 0 13 5.5t5 12.5t-5 12.5t-13 5.5h-106zM335 51q-7 0 -12 -5.5t-5 -12.5t5 -12.5t12 -5.5h106q8 0 13 5.5t5 12.5t-5 12.5t-13 5.5
h-106zM0 -64v247h247v-247h-247zM67 91l32 -31l-32 -32q-5 -5 -5 -12.5t5 -12.5t12.5 -5t12.5 5l32 32l31 -32q5 -5 12.5 -5t12.5 5t5 12.5t-5 12.5l-31 32l31 31q5 5 5 12.5t-5 12.5t-12.5 5t-12.5 -5l-31 -31l-32 31q-5 5 -12.5 5t-12.5 -5t-5 -12.5t5 -12.5z" />
  </g>

</svg>
