<?xml version="1.0" standalone="no"?>
<!DOCTYPE svg PUBLIC "-//W3C//DTD SVG 1.1//EN" "http://www.w3.org/Graphics/SVG/1.1/DTD/svg11.dtd" >
<svg xmlns="http://www.w3.org/2000/svg" xmlns:xlink="http://www.w3.org/1999/xlink" version="1.1" viewBox="-10 0 532 512">
  <g transform="matrix(1 0 0 -1 0 448)">
   <path fill="currentColor"
d="M265 201v97q42 1 82 13q22 -53 24 -110h-106zM357 333q-31 64 -87 111l5 3q94 -6 161 -73l-6 -5q-33 -23 -73 -36zM265 425q47 -42 75 -98q-37 -10 -75 -11v109zM367 75q20 52 21 108h124q-3 -87 -59 -155l-8 6q-35 26 -78 41zM82 369l-6 5q67 67 161 73l5 -3
q-56 -47 -87 -111q-40 13 -73 36zM247 425v-109q-38 1 -75 11q28 56 75 98zM124 183q1 -56 21 -108q-43 -15 -79 -41l-7 -6q-56 68 -59 155h124zM148 316q-23 -55 -24 -115h-124q3 91 63 160l9 -6q35 -24 76 -39zM141 201q2 57 24 110q40 -12 82 -13v-97h-106zM241 -59
l-6 -4q-97 7 -164 78l6 5q34 24 75 39q31 -69 89 -118zM247 94q-44 -1 -85 -13q-19 49 -21 102h106v-89zM435 20l6 -5q-67 -71 -164 -78l-6 4q58 49 89 118q41 -15 75 -39zM441 355l7 6q61 -69 64 -160h-124q-1 60 -24 115q42 15 77 39zM247 -41q-51 44 -78 105q38 12 78 13
v-118zM371 183q-2 -53 -21 -102q-41 12 -85 13v89h106zM343 64q-27 -61 -78 -105v118q40 -1 78 -13z" />
  </g>

</svg>
