<?xml version="1.0" standalone="no"?>
<!DOCTYPE svg PUBLIC "-//W3C//DTD SVG 1.1//EN" "http://www.w3.org/Graphics/SVG/1.1/DTD/svg11.dtd" >
<svg xmlns="http://www.w3.org/2000/svg" xmlns:xlink="http://www.w3.org/1999/xlink" version="1.1" viewBox="-10 0 522 512">
  <g transform="matrix(1 0 0 -1 0 448)">
   <path fill="currentColor"
d="M496 171q1 -6 1.5 -15t-1 -33t-5.5 -46t-15.5 -48.5t-28.5 -45.5q4 220 -18 282q-17 52 -66.5 90.5t-101.5 40.5q-40 1 -77 -14q-64 -27 -94 -89t-11 -129q5 -17 6 -27q3 -21 3 -133q-36 38 -56 94q-21 69 -17 128q3 48 26.5 92.5t64.5 77.5q18 14 34 23q11 6 24 11
q43 18 90 18q71 0 129.5 -39t86.5 -104q17 -41 26 -134zM412 260q22 -64 17 -293q-17 -13 -36 -20q8 253 -20 317q-15 37 -47.5 58.5t-72.5 21.5q-14 0 -27 -3q-9 -2 -7 -10.5t10 -6.5q12 3 24 3q35 0 63 -19t41 -50q26 -62 18 -317q-16 -4 -35 -5q1 38 0 70q-1 19 -1 25
q0 9 -8.5 9t-8.5 -8v-27q1 -31 1 -69h-18h-25q2 78 -3 148.5t-9 97.5t-6 34q-3 8 -11 6t-6 -11q2 -5 6 -31.5t9 -96.5t3 -147h-17q-14 0 -28 2q0 77 -3.5 158.5t-9.5 98.5q-7 20 1 39.5t27 27.5q10 4 20 4q16 0 29 -9t19 -23q20 -46 23 -159q0 -9 8 -9h1q8 0 8 9
q-3 116 -24 166q-8 19 -25.5 30.5t-38.5 11.5q-13 0 -26 -5q-26 -11 -36.5 -36.5t-1.5 -52.5q4 -14 7.5 -91.5t4.5 -156.5q-19 3 -35 10v63q-1 99 -19 161q-10 38 1.5 74.5t40.5 56.5q7 5 2 12t-12 2q-33 -23 -46.5 -64.5t-1.5 -85.5q17 -59 17 -156q1 -1 1 -56
q-24 12 -44 29q0 129 -3 152q-2 11 -7 30q-17 60 10 116.5t85 80.5q33 14 70 12q46 -1 91 -36.5t61 -81.5z" />
  </g>

</svg>
