<?xml version="1.0" standalone="no"?>
<!DOCTYPE svg PUBLIC "-//W3C//DTD SVG 1.1//EN" "http://www.w3.org/Graphics/SVG/1.1/DTD/svg11.dtd" >
<svg xmlns="http://www.w3.org/2000/svg" xmlns:xlink="http://www.w3.org/1999/xlink" version="1.1" viewBox="-10 0 532 512">
  <g transform="matrix(1 0 0 -1 0 448)">
   <path fill="currentColor"
d="M128 -4q0 17 17 17t17 -17t-17 -17t-17 17zM461 115v-8q0 -9 -8.5 -9t-8.5 9v8q0 9 8.5 9t8.5 -9zM461 81v-8q0 -9 -8.5 -9t-8.5 9v8q0 9 8.5 9t8.5 -9zM461 47v-9q0 -8 -8.5 -8t-8.5 8v9q0 8 8.5 8t8.5 -8zM461 149v-8q0 -9 -8.5 -9t-8.5 9v8q0 9 8.5 9t8.5 -9z
M452.5 -13q8.5 0 8.5 -8v-9q0 -8 -8.5 -8t-8.5 8v9q0 8 8.5 8zM461 13v-9q0 -8 -8.5 -8t-8.5 8v9q0 8 8.5 8t8.5 -8zM461 183v-8q0 -9 -8.5 -9t-8.5 9v8q0 9 8.5 9t8.5 -9zM325 -47q8 0 8 -8.5t-8 -8.5h-9q-8 0 -8 8.5t8 8.5h9zM291 -47q8 0 8 -8.5t-8 -8.5h-9q-7 0 -8 7
q-6 -5 -14 -6q-1 -1 -3 -1h-4h-215q-16 0 -27 11t-11 27v436q0 16 11 27t27 11h215q15 0 26 -11t11 -27v-194q4 -2 4 -7t-4 -7v-21v-7v-24v-7v-24v-8v-23v-8v-23v-8v-23v-8v-23v-8v-13q0 -6 -2 -12v-1t-0.5 -1t-0.5 -0.5v-1.5q-1 -3 -3 -5h7zM171 422q-9 0 -9 -8.5t9 -8.5h8
q9 0 9 8.5t-9 8.5h-8zM111 422q-9 0 -9 -8.5t9 -8.5h34q9 0 9 8.5t-9 8.5h-34zM145 -38q14 0 24 10t10 24t-10 24t-24 10t-24 -10t-10 -24t10 -24t24 -10zM273 218v162h-256v-325h256v2v23v8v23v8v24v7v24v7v24v13zM359 -47q8 0 8 -8.5t-8 -8.5h-9q-8 0 -8 8.5t8 8.5h9z
M388 201h-9q-8 0 -8 8.5t8 8.5h9q8 0 8 -8.5t-8 -8.5zM392 -47q9 0 9 -8.5t-9 -8.5h-8q-9 0 -9 8.5t9 8.5h8zM354 201h-9q-8 0 -8 8.5t8 8.5h9q8 0 8 -8.5t-8 -8.5zM422 201h-9q-8 0 -8 8.5t8 8.5h9q8 0 8 -8.5t-8 -8.5zM320 201h-9q-8 0 -8 8.5t8 8.5h9q8 0 8 -8.5t-8 -8.5
zM503.5 58q8.5 0 8.5 -9v-8q0 -9 -8.5 -9t-8.5 9v8q0 9 8.5 9zM503.5 92q8.5 0 8.5 -9v-8q0 -9 -8.5 -9t-8.5 9v8q0 9 8.5 9zM503.5 24q8.5 0 8.5 -8v-9q0 -8 -8.5 -8t-8.5 8v9q0 8 8.5 8zM503.5 -10q8.5 0 8.5 -8v-8q0 -9 -8.5 -9t-8.5 8v9q0 8 8.5 8zM511 187q1 -4 1 -7
v-3q0 -9 -8.5 -9t-8.5 9v3v4q-2 8 6.5 9.5t9.5 -6.5zM503.5 160q8.5 0 8.5 -9v-8q0 -9 -8.5 -9t-8.5 9v8q0 9 8.5 9zM503.5 126q8.5 0 8.5 -9v-8q0 -9 -8.5 -9t-8.5 9v8q0 9 8.5 9zM456 201h-9q-8 0 -8 8.5t8 8.5h9q8 0 8 -8.5t-8 -8.5zM487 -42q7 5 12.5 -1.5t-1.5 -12.5
q-4 -3 -9 -5q-2 -1 -4 -1q-5 0 -7 5q-4 8 4 12q3 1 5 3zM426 -47q9 0 9 -8.5t-9 -8.5h-8q-9 0 -9 8.5t9 8.5h8zM460 -47q9 0 9 -8.5t-9 -8.5h-8q-9 0 -9 8.5t9 8.5h8zM485 198l-6 2q-8 2 -6 10.5t10 6.5l10 -4q7 -5 3 -12q-2 -4 -7 -4q-2 0 -4 1zM443.5 269q-1.5 0 -3 0.5
t-2.5 1.5l-52 51q-6 7 0.5 13t12.5 0l36 -37v22q0 39 -27.5 66.5t-66.5 27.5q-8 0 -8 8.5t8 8.5q46 0 78.5 -32.5t32.5 -78.5v-22l37 37q6 6 12 0t0 -13l-51 -51q-1 -1 -3 -1.5t-3.5 -0.5z" />
  </g>

</svg>
