<?xml version="1.0" standalone="no"?>
<!DOCTYPE svg PUBLIC "-//W3C//DTD SVG 1.1//EN" "http://www.w3.org/Graphics/SVG/1.1/DTD/svg11.dtd" >
<svg xmlns="http://www.w3.org/2000/svg" xmlns:xlink="http://www.w3.org/1999/xlink" version="1.1" viewBox="-10 0 528 512">
  <g transform="matrix(1 0 0 -1 0 448)">
   <path fill="currentColor"
d="M303 243q-9 0 -9 8.5t9 8.5h17q8 0 8 -8.5t-8 -8.5h-17zM273 183h3q9 0 9 -8.5t-9 -8.5h-3q-9 0 -17 3.5t-5 11t11 4.5q5 -2 11 -2zM253 237q-5 0 -7 4q-5 8 2 12q9 6 20 7q8 1 9 -7.5t-7 -9.5q-7 -1 -13 -4q-2 -2 -4 -2zM307 107h15q9 0 9 -8.5t-9 -8.5h-16h-1
q-8 0 -8 8q-1 8 8 9h2zM371 243h-17q-8 0 -8 8.5t8 8.5h17q9 0 9 -8.5t-9 -8.5zM408 107h17q8 0 8 -8.5t-8 -8.5h-17q-9 0 -9 8.5t9 8.5zM438 174.5q0 -8.5 -8 -8.5h-17q-9 0 -9 8.5t9 8.5h17q8 0 8 -8.5zM357 90q-9 0 -9 8.5t9 8.5h17q8 0 8 -8.5t-8 -8.5h-17zM387 174.5
q0 -8.5 -9 -8.5h-17q-8 0 -8 8.5t8 8.5h17q9 0 9 -8.5zM310 183h17q9 0 9 -8.5t-9 -8.5h-17q-8 0 -8 8.5t8 8.5zM205 -47q9 0 9 -8.5t-9 -8.5h-17q-8 0 -8 8.5t8 8.5h17zM154 -47q9 0 9 -8.5t-9 -8.5h-17q-8 0 -8 8.5t8 8.5h17zM449 -17q8 -2 6 -10q-2 -11 -9 -19
q-2 -3 -6 -3q-3 0 -6 1q-6 6 -1 12q4 6 6 12q2 9 10 7zM440 -2q-4 0 -7 3q-4 6 -10 9q-8 3 -4 11t11 4q10 -5 16 -13q6 -7 -1 -12q-2 -2 -5 -2zM402 21.5q0 -8.5 -9 -8.5h-17q-9 0 -9 8.5t9 8.5h17q9 0 9 -8.5zM410 -47q8 0 8 -8.5t-8 -8.5v9v-9h-17q-8 0 -8 8.5t8 8.5h17z
M507 144q1 -4 1 -8q0 -6 -2 -13q-2 -6 -8 -6q-2 0 -3 1q-8 2 -6 10q2 4 2 9q0 2 -1 4q-1 9 7.5 10t9.5 -7zM239 193h-2q-7 0 -9 6q-2 7 -2 14v6q1 9 9.5 8t7.5 -10v-4q0 -4 2 -9q2 -8 -6 -11zM484 177q8 -4 3 -11q-2 -5 -7 -5q-2 0 -4 1q-6 4 -13 4q-8 1 -7.5 9.5t8.5 7.5
q11 -1 20 -6zM472 109q8 3 11.5 -4.5t-4.5 -11.5q-9 -3 -18 -3h-2q-9 0 -9 8.5t9 8.5h2q6 0 11 2zM278 65q-2 -7 -9 -7l-1 1q-9 1 -7 10q2 10 8 19q5 6 12 1t2 -12q-4 -5 -5 -12zM291 16q-2 0 -3 1q-10 4 -17 13q-5 6 1.5 11.5t11.5 -0.5t11 -8q7 -4 4 -12q-2 -5 -8 -5z
M257 -47q8 0 8 -8.5t-8 -8.5h-18q-8 0 -8 8.5t8 8.5h18zM308 -47q8 0 8 -8.5t-8 -8.5h-17q-9 0 -9 8.5t9 8.5h17zM350 21.5q0 -8.5 -8 -8.5h-17q-9 0 -9 8.5t9 8.5h17q8 0 8 -8.5zM359 -47q8 0 8 -8.5t-8 -8.5h-17q-9 0 -9 8.5t9 8.5h17zM179 201q30 -34 30 -81t-30 -81
l-72 -82l-73 82q-30 34 -30 81t30 81t72.5 34t72.5 -34zM106.5 81q21.5 0 36.5 15t15 36t-15 36t-36.5 15t-36.5 -15t-15 -36t15 -36t36.5 -15zM416 239l-55 62q-22 25 -22 60.5t22 60.5q23 26 55 26t55 -26q22 -25 22 -60.5t-22 -60.5zM418 414q-19 0 -33 -14t-14 -33
t14 -33t33 -14t33 14t14 33t-14 33t-33 14z" />
  </g>

</svg>
