<?xml version="1.0" standalone="no"?>
<!DOCTYPE svg PUBLIC "-//W3C//DTD SVG 1.1//EN" "http://www.w3.org/Graphics/SVG/1.1/DTD/svg11.dtd" >
<svg xmlns="http://www.w3.org/2000/svg" xmlns:xlink="http://www.w3.org/1999/xlink" version="1.1" viewBox="-10 0 532 512">
  <g transform="matrix(1 0 0 -1 0 448)">
   <path fill="currentColor"
d="M185 -1q8 0 8 -8.5t-8 -8.5h-177q-8 0 -8 8.5t8 8.5h177zM504 -1q8 0 8 -8.5t-8 -8.5h-185q-8 0 -8 8.5t8 8.5h185zM212 56l-12 12l32 32h-193q-16 0 -27.5 11t-11.5 27v99q0 12 7 22h490q7 -10 7 -22v-99q0 -16 -11.5 -27t-27.5 -11h-210zM436.5 184q-8.5 0 -8.5 -8.5
t8.5 -8.5t8.5 8.5t-8.5 8.5zM419.5 209q-8.5 0 -8.5 -8.5t8.5 -8.5t8.5 8.5t-8.5 8.5zM402.5 184q-8.5 0 -8.5 -8.5t8.5 -8.5t8.5 8.5t-8.5 8.5zM386 209q-8 0 -8 -8.5t8 -8.5t8 8.5t-8 8.5zM369.5 184q-8.5 0 -8.5 -8.5t8.5 -8.5t8.5 8.5t-8.5 8.5zM352.5 209
q-8.5 0 -8.5 -8.5t8.5 -8.5t8.5 8.5t-8.5 8.5zM335.5 184q-8.5 0 -8.5 -8.5t8.5 -8.5t8.5 8.5t-8.5 8.5zM319 209q-8 0 -8 -8.5t8 -8.5t8 8.5t-8 8.5zM302.5 184q-8.5 0 -8.5 -8.5t8.5 -8.5t8.5 8.5t-8.5 8.5zM285.5 209q-8.5 0 -8.5 -8.5t8.5 -8.5t8.5 8.5t-8.5 8.5z
M88.5 150q15.5 0 26.5 11t11 26.5t-11 27t-26.5 11.5t-27 -11.5t-11.5 -27t11.5 -26.5t27 -11zM292 76l12 -12l-35 -35q25 -11 25 -38q0 -18 -12.5 -30t-30 -12t-29.5 12t-12 30q0 16 11 28t27 13zM277 -9.5q0 10.5 -7.5 18t-18 7.5t-17.5 -7.5t-7 -18t7 -18t17.5 -7.5
t18 7.5t7.5 18zM497 276h-490q-7 10 -7 22v99q0 16 11.5 27t27.5 11h426q16 0 27.5 -11t11.5 -27v-99q0 -12 -7 -22zM436.5 343q-8.5 0 -8.5 -8.5t8.5 -8.5t8.5 8.5t-8.5 8.5zM419.5 368q-8.5 0 -8.5 -8.5t8.5 -8.5t8.5 8.5t-8.5 8.5zM402.5 343q-8.5 0 -8.5 -8.5t8.5 -8.5
t8.5 8.5t-8.5 8.5zM386 368q-8 0 -8 -8.5t8 -8.5t8 8.5t-8 8.5zM369.5 343q-8.5 0 -8.5 -8.5t8.5 -8.5t8.5 8.5t-8.5 8.5zM352.5 368q-8.5 0 -8.5 -8.5t8.5 -8.5t8.5 8.5t-8.5 8.5zM335.5 343q-8.5 0 -8.5 -8.5t8.5 -8.5t8.5 8.5t-8.5 8.5zM319 368q-8 0 -8 -8.5t8 -8.5
t8 8.5t-8 8.5zM302.5 343q-8.5 0 -8.5 -8.5t8.5 -8.5t8.5 8.5t-8.5 8.5zM285.5 368q-8.5 0 -8.5 -8.5t8.5 -8.5t8.5 8.5t-8.5 8.5zM88.5 385q-15.5 0 -27 -11t-11.5 -26.5t11.5 -26.5t27 -11t26.5 11t11 26.5t-11 26.5t-26.5 11z" />
  </g>

</svg>
