<?xml version="1.0" standalone="no"?>
<!DOCTYPE svg PUBLIC "-//W3C//DTD SVG 1.1//EN" "http://www.w3.org/Graphics/SVG/1.1/DTD/svg11.dtd" >
<svg xmlns="http://www.w3.org/2000/svg" xmlns:xlink="http://www.w3.org/1999/xlink" version="1.1" viewBox="-10 0 532 512">
  <g transform="matrix(1 0 0 -1 0 448)">
   <path fill="currentColor"
d="M229 385q11 0 19 -8t8 -19v-338q0 -12 -8 -19.5t-19 -7.5q-7 0 -13 3q-1 1 -1 2l-116 106h-90q-4 0 -6.5 2.5t-2.5 5.5v162q0 9 9 9h90l116 98h1q6 4 13 4zM111 121v34q0 8 -8.5 8t-8.5 -8v-34q0 -9 8.5 -9t8.5 9zM111 232v34q0 8 -8.5 8t-8.5 -8v-34q0 -9 8.5 -9t8.5 9z
M444 193.5q0 -53.5 -31 -97t-82 -60.5q-1 -1 -2 -1q-7 0 -9 6q-2 8 6 11q45 15 73 54t28 87t-28 87t-73 54q-9 3 -6 11t11 6q51 -18 82 -61t31 -96.5zM379 394q61 -26 97 -80.5t36 -120.5q0 -68 -38 -123t-101 -80h-3q-6 0 -8 5q-3 8 5 11q58 23 93 74t35 113
q0 61 -33.5 111t-88.5 74q-8 3 -5 11t11 5zM367 193q0 -38 -23 -69t-60 -41q-1 -1 -2 -1q-7 0 -9 6q-2 9 6 11q32 9 51.5 35.5t19.5 59t-19.5 58.5t-51.5 35q-8 3 -5.5 11t10.5 6q37 -11 60 -42t23 -69z" />
  </g>

</svg>
