<?xml version="1.0" standalone="no"?>
<!DOCTYPE svg PUBLIC "-//W3C//DTD SVG 1.1//EN" "http://www.w3.org/Graphics/SVG/1.1/DTD/svg11.dtd" >
<svg xmlns="http://www.w3.org/2000/svg" xmlns:xlink="http://www.w3.org/1999/xlink" version="1.1" viewBox="-10 0 532 512">
  <g transform="matrix(1 0 0 -1 0 448)">
   <path fill="currentColor"
d="M0 368q0 7 6 9l165 54v-275q-7 -2 -12 -3q-9 -2 -7 -12q2 -7 9 -7q1 0 2.5 0.5t4 1t3.5 0.5v-132l-159 -53h-3q-3 0 -5 1q-4 3 -4 8v408zM86 68q4 9 -4.5 13t-12.5 -5q-10 -22 -12 -39q-1 -9 8 -10l1 -1q9 0 10 9q1 12 10 33zM79 209l12 -12l-12 -12q-7 -7 0 -14
q2 -2 6 -2t7 2l12 13l13 -13q2 -2 6 -2t7 2q7 7 0 14l-12 12l12 12q7 7 0 13.5t-13 0.5l-13 -13l-12 13q-7 6 -13.5 -0.5t0.5 -13.5zM131 121q9 5 3.5 13t-13.5 3q-17 -11 -30 -27q-6 -7 1 -13q3 -2 6 -2q4 0 7 3q12 14 26 23zM104.5 358q-19.5 0 -33.5 -14t-14 -33
q0 -17 10.5 -30t27.5 -17v-20q0 -9 9.5 -9t9.5 9v20q16 4 27 17t11 30q0 19 -14 33t-33.5 14zM76 310.5q0 28.5 28.5 28.5t28.5 -28.5t-28.5 -28.5t-28.5 28.5zM277 146q8 -4 5 -13q-3 -6 -9 -6q-2 0 -4 1q-3 2 -7 3q-14 4 -27 6q-9 1 -8 10.5t11 8.5q14 -3 30 -7h2
q2 -1 7 -3zM427 181q-8 4 -5 12q6 16 10 35q1 9 11 8q9 -2 7 -11q-4 -21 -10 -38q-3 -6 -9 -6h-4zM383 124q-6 0 -8 5q-5 8 4 13q15 7 26 21q6 7 13.5 1.5t1.5 -13.5q-14 -17 -32 -26q-2 -1 -5 -1zM445 255q-10 0 -9 10q1 13 1 27v10q0 9 9 9q10 0 10 -9v-10q0 -15 -1 -29
q-1 -8 -9 -8h-1zM190 3v427l142 -75v-411zM209 399v-384l104 -42v371zM351 355l161 85v-428l-161 -68v411zM493 25v383l-123 -64v-371z" />
  </g>

</svg>
