<?xml version="1.0" standalone="no"?>
<!DOCTYPE svg PUBLIC "-//W3C//DTD SVG 1.1//EN" "http://www.w3.org/Graphics/SVG/1.1/DTD/svg11.dtd" >
<svg xmlns="http://www.w3.org/2000/svg" xmlns:xlink="http://www.w3.org/1999/xlink" version="1.1" viewBox="-10 0 522 512">
  <g transform="matrix(1 0 0 -1 0 448)">
   <path fill="currentColor"
d="M332 448l125 -124v-388h-402v512h277zM277 252q-8 0 -8 -8.5t8 -8.5h60q9 0 9 8.5t-9 8.5h-60zM286 183.5q0 8.5 -9 8.5h-85q-9 0 -9 -8.5t9 -8.5h85q9 0 9 8.5zM241 249q-6 6 -12 0q-3 -2 -3 -5.5t2.5 -6t6 -2.5t6 2.5t2.5 6t-2 5.5zM149 320q-8 0 -8 -8.5t8 -8.5h77
q9 0 9 8.5t-9 8.5h-77zM149 252q-8 0 -8 -8.5t8 -8.5h43q9 0 9 8.5t-9 8.5h-43zM143 190q-2 -3 -2 -6.5t2.5 -6t6 -2.5t6 2.5t2.5 6t-3 6.5q-6 6 -12 0zM155.5 58q2.5 3 2.5 6t-3 6q-6 6 -12 0q-2 -2 -2 -6t2.5 -6.5t6 -2.5t6 3zM277 55q9 0 9 9t-9 9h-85q-9 0 -9 -9t9 -9
h85zM294 115q9 0 9 8.5t-9 8.5h-145q-8 0 -8 -8.5t8 -8.5h145zM380 55q8 0 8 9t-8 9h-60q-9 0 -9 -9t9 -9h60zM329 123.5q0 -3.5 2 -6t6 -2.5t6.5 2.5t2.5 6t-3 6.5q-6 6 -12 0q-2 -3 -2 -6.5zM385.5 117.5q2.5 2.5 2.5 6t-2 6.5q-6 6 -12 0q-3 -3 -3 -6.5t2.5 -6t6 -2.5
t6 2.5zM380 175q8 0 8 8.5t-8 8.5h-60q-9 0 -9 -8.5t9 -8.5h60zM385.5 237.5q2.5 2.5 2.5 6t-2 5.5q-6 6 -12 0q-3 -2 -3 -5.5t2.5 -6t6 -2.5t6 2.5zM320 311h119l-119 120v-120z" />
  </g>

</svg>
