<?xml version="1.0" standalone="no"?>
<!DOCTYPE svg PUBLIC "-//W3C//DTD SVG 1.1//EN" "http://www.w3.org/Graphics/SVG/1.1/DTD/svg11.dtd" >
<svg xmlns="http://www.w3.org/2000/svg" xmlns:xlink="http://www.w3.org/1999/xlink" version="1.1" viewBox="-10 0 522 512">
  <g transform="matrix(1 0 0 -1 0 448)">
   <path fill="currentColor"
d="M452 269q0 -69 -47 -121l25 -24l-6 -6q-59 -59 -142 -62v-77h85v-43h-188v43h86v77q-84 3 -143 62q-62 62 -62 150.5t62 151.5l6 6l25 -25q8 7 16 13v1l3 2q7 4 15 9l1 0.5l1 0.5q6 3 13 6q2 1 3 1q15 7 31 10l4 1l12 2h5q9 1 16 1t16 -1h5l12 -2l2 -0.5l2 -0.5
q8 -2 15 -4q1 0 2.5 -0.5t2.5 -0.5l10 -4q3 -1 5 -2q5 -2 10 -5l1.5 -1t2.5 -1q7 -4 12 -7l2 -2h1v-1q36 -24 57 -63t21 -84zM170 394q-59 -49 -59 -125q0 -67 47.5 -114.5t114.5 -47.5t114.5 47.5t47.5 114.5q0 39 -17.5 73t-47.5 56q-3 -3 -6 -4q-34 -12 -55 -39
q-1 0 -1 -1q4 -11 -1 -18q-6 -7 -18 -5h-1q2 -4 0 -8q10 -4 13 -13q2 -5 6 -2q5 4 12 4q5 0 14 -4q7 -4 12 -5q6 0 10 -5q6 -6 14 -19q9 -15 14 -17q18 -10 2 -52q-2 -4 -2 -6l-1 -3l-2 -2q-8 -5 -18 -20q-11 -15 -20 -22q-18 -16 -37 -23q-3 -1 -6 -1q-10 0 -15 9
q-5 8 0 17q21 38 11 46q-16 14 -21.5 32.5t1.5 36.5l-2 1q-6 4 -8 17q-1 8 -3 10v1h-1q-5 2 -16 4q-12 2 -18 4q-12 5 -22.5 18t-16 23t-13.5 29q-3 8 -5 12v1zM134 130q56 -56 135 -57.5t137 51.5l-13 12q-51 -46 -120 -46q-74 0 -126.5 52.5t-52.5 126.5q0 69 47 120
l-13 12q-51 -56 -51 -132q0 -82 57 -139z" />
  </g>

</svg>
