<?xml version="1.0" standalone="no"?>
<!DOCTYPE svg PUBLIC "-//W3C//DTD SVG 1.1//EN" "http://www.w3.org/Graphics/SVG/1.1/DTD/svg11.dtd" >
<svg xmlns="http://www.w3.org/2000/svg" xmlns:xlink="http://www.w3.org/1999/xlink" version="1.1" viewBox="-11 0 534 512">
  <g transform="matrix(1 0 0 -1 0 448)">
   <path fill="currentColor"
d="M509 202q7 -7 0.5 -13t-12.5 0q-71 72 -169 93q43 -35 43 -90q0 -47 -33.5 -81t-81 -34t-81.5 34t-34 81q0 55 43 89q-97 -21 -167 -92l-2 -2q-2 -2 -6 -2t-6 2q-7 6 0 13l2 2q103 104 251 105v0h1q72 0 137 -27t115 -78zM256 236q9 0 9 9t-9 9q-25 0 -43.5 -18
t-18.5 -44q0 -9 9 -9t9 9q0 18 13 31t31 13z" />
  </g>

</svg>
