<?xml version="1.0" standalone="no"?>
<!DOCTYPE svg PUBLIC "-//W3C//DTD SVG 1.1//EN" "http://www.w3.org/Graphics/SVG/1.1/DTD/svg11.dtd" >
<svg xmlns="http://www.w3.org/2000/svg" xmlns:xlink="http://www.w3.org/1999/xlink" version="1.1" viewBox="-10 0 532 512">
  <g transform="matrix(1 0 0 -1 0 448)">
   <path fill="currentColor"
d="M507 370.5q5 -2.5 5 -7.5v-342q0 -5 -5 -8q-2 -1 -4 -1q-3 0 -5 2l-238 167v-160q0 -5 -4 -8q-2 -1 -4 -1q-3 0 -6 2l-242 171q-4 2 -4 7t4 7l242 171q5 3 9.5 0.5t4.5 -7.5v-160l238 167q4 3 9 0.5z" />
  </g>

</svg>
