<?xml version="1.0" standalone="no"?>
<!DOCTYPE svg PUBLIC "-//W3C//DTD SVG 1.1//EN" "http://www.w3.org/Graphics/SVG/1.1/DTD/svg11.dtd" >
<svg xmlns="http://www.w3.org/2000/svg" xmlns:xlink="http://www.w3.org/1999/xlink" version="1.1" viewBox="-10 0 532 512">
  <g transform="matrix(1 0 0 -1 0 448)">
   <path fill="currentColor"
d="M448 448q26 0 45 -19t19 -45v-384q0 -26 -19 -45t-45 -19h-384q-26 0 -45 19t-19 45v384q0 26 19 45t45 19h384zM495 0v384q0 19 -14 33t-33 14h-384q-19 0 -33 -14t-14 -33v-384q0 -19 14 -33t33 -14h384q19 0 33 14t14 33zM137 209q-39 0 -66.5 27.5t-27.5 66.5
t27.5 66.5t66.5 27.5h238q39 0 66.5 -27.5t27.5 -66.5t-27.5 -66.5t-66.5 -27.5h-238zM375.5 363q-24.5 0 -42 -17.5t-17.5 -42.5t17.5 -42.5t42 -17.5t42 17.5t17.5 42.5t-17.5 42.5t-42 17.5zM136.5 149q28.5 0 48.5 -20t20 -48t-20 -48t-48.5 -20t-48.5 20t-20 48t20 48
t48.5 20zM136.5 30q21.5 0 36.5 15t15 36t-15 36t-36.5 15t-36.5 -15t-15 -36t15 -36t36.5 -15zM375 183q43 0 73 -30t30 -72t-30 -72t-73 -30h-238q-43 0 -73 30t-30 72t30 72t73 30h238zM375 -4q36 0 61 25t25 60t-25 60t-61 25h-238q-36 0 -61 -25t-25 -60t25 -60t61 -25
h238z" />
  </g>

</svg>
