<?xml version="1.0" standalone="no"?>
<!DOCTYPE svg PUBLIC "-//W3C//DTD SVG 1.1//EN" "http://www.w3.org/Graphics/SVG/1.1/DTD/svg11.dtd" >
<svg xmlns="http://www.w3.org/2000/svg" xmlns:xlink="http://www.w3.org/1999/xlink" version="1.1" viewBox="-10 0 532 512">
  <g transform="matrix(1 0 0 -1 0 448)">
   <path fill="currentColor"
d="M226 358h286v-59v-17v-316h-512v452h184zM162 205q-8 0 -8 -8.5t8 -8.5h120q8 0 8 8.5t-8 8.5h-120zM350 85q8 0 8 8.5t-8 8.5h-188q-8 0 -8 -8.5t8 -8.5h188zM350 137q8 0 8 8.5t-8 8.5h-188q-8 0 -8 -8.5t8 -8.5h188zM495 299v42h-257l31 -42h226z" />
  </g>

</svg>
