<?xml version="1.0" standalone="no"?>
<!DOCTYPE svg PUBLIC "-//W3C//DTD SVG 1.1//EN" "http://www.w3.org/Graphics/SVG/1.1/DTD/svg11.dtd" >
<svg xmlns="http://www.w3.org/2000/svg" xmlns:xlink="http://www.w3.org/1999/xlink" version="1.1" viewBox="-10 0 522 512">
  <g transform="matrix(1 0 0 -1 0 448)">
   <path fill="currentColor"
d="M438 421q6 -2 6 -8v-256q0 -4 -4 -6.5t-8 -1.5q-40 16 -86 16q-40 0 -69 -15q-33 -18 -86 -18q-50 0 -106 14v-201q0 -9 -8.5 -9t-8.5 9v212v9v247v1v25q0 9 8.5 9t8.5 -9v-19q56 -15 106 -15q49 0 78 16q33 17 77 17q50 0 92 -17z" />
  </g>

</svg>
