<?xml version="1.0" standalone="no"?>
<!DOCTYPE svg PUBLIC "-//W3C//DTD SVG 1.1//EN" "http://www.w3.org/Graphics/SVG/1.1/DTD/svg11.dtd" >
<svg xmlns="http://www.w3.org/2000/svg" xmlns:xlink="http://www.w3.org/1999/xlink" version="1.1" viewBox="-10 0 532 512">
  <g transform="matrix(1 0 0 -1 0 448)">
   <path fill="currentColor"
d="M503 -47q9 0 9 -8.5t-9 -8.5q-31 0 -55.5 20.5t-29.5 51.5q-71 -63 -166 -63q-104 0 -178 73.5t-74 177.5t74 178t178 74t177.5 -74t73.5 -178q0 -100 -69 -173q0 -29 20.5 -49.5t48.5 -20.5zM17 196q0 -97 69 -165.5t166 -68.5t165.5 68.5t68.5 165.5t-68.5 166
t-165.5 69t-166 -69t-69 -166zM251.5 413q89.5 0 153.5 -63.5t64 -153t-64 -153.5t-153.5 -64t-153 64t-63.5 153.5t63.5 153t153 63.5zM252 361q-25 0 -43 -17.5t-18 -43t18 -43t43 -17.5t42.5 17.5t17.5 43t-17.5 43t-42.5 17.5zM147.5 136q25.5 0 43 17.5t17.5 42.5
t-17.5 43t-43 18t-43 -18t-17.5 -43t17.5 -42.5t43 -17.5zM252 31q25 0 42.5 18t17.5 43t-17.5 43t-42.5 18t-43 -18t-18 -43t18 -43t43 -18zM356 136q25 0 43 17.5t18 42.5t-18 43t-43 18t-43 -18t-18 -43t18 -42.5t43 -17.5zM252 257q-18 0 -32 11t-19 28q24 13 51 13
t50 -13q-4 -17 -18 -28t-32 -11zM252 136q18 0 32 -11t18 -28q-23 -13 -50 -13t-51 13q5 17 19 28t32 11zM312 196q0 18 11 32t28 19q13 -24 13 -51t-13 -50q-17 4 -28 18t-11 32zM152 247q17 -5 28 -19t11 -32t-11 -32t-28 -18q-13 23 -13 50t13 51z" />
  </g>

</svg>
