<?xml version="1.0" standalone="no"?>
<!DOCTYPE svg PUBLIC "-//W3C//DTD SVG 1.1//EN" "http://www.w3.org/Graphics/SVG/1.1/DTD/svg11.dtd" >
<svg xmlns="http://www.w3.org/2000/svg" xmlns:xlink="http://www.w3.org/1999/xlink" version="1.1" viewBox="-11 0 534 512">
  <g transform="matrix(1 0 0 -1 0 448)">
   <path fill="currentColor"
d="M153.5 226q14.5 0 24.5 -10t10 -24t-10 -24t-24.5 -10t-24.5 10t-10 24t10 24t24.5 10zM256 226q14 0 24 -10t10 -24t-10 -24t-24 -10t-24 10t-10 24t10 24t24 10zM393 192q0 -14 -10 -24t-24.5 -10t-24.5 10t-10 24t10 24t24.5 10t24.5 -10t10 -24zM21 192l113 -113
q6 -6 0 -13q-2 -2 -6 -2t-6 2l-120 120q-6 6 0 12l120 120q6 6 12 -0.5t0 -12.5zM510 198q6 -6 0 -12l-120 -120q-2 -2 -6 -2t-6 2q-6 7 0 13l113 113l-113 113q-6 6 0 12.5t12 0.5z" />
  </g>

</svg>
