<?xml version="1.0" standalone="no"?>
<!DOCTYPE svg PUBLIC "-//W3C//DTD SVG 1.1//EN" "http://www.w3.org/Graphics/SVG/1.1/DTD/svg11.dtd" >
<svg xmlns="http://www.w3.org/2000/svg" xmlns:xlink="http://www.w3.org/1999/xlink" version="1.1" viewBox="-10 0 532 512">
  <g transform="matrix(1 0 0 -1 0 448)">
   <path fill="currentColor"
d="M491 218q9 0 15 -7.5t6 -18.5v-1l-87 -240q-4 -15 -21 -15h-382q-11 0 -17 9q-3 3 -5 8v386q0 10 7 17t16 7h45v85h209l133 -124v-21h27q10 0 17 -7t7 -16v-62h30zM265 428v-117h125q1 0 1 1v1l-125 116q0 1 -0.5 0.5t-0.5 -1.5zM137 405q-9 0 -9 -8.5t9 -8.5h85
q8 0 8 8.5t-8 8.5h-85zM137 346q-9 0 -9 -8.5t9 -8.5h85q8 0 8 8.5t-8 8.5h-85zM137 286q-9 0 -9 -8.5t9 -8.5h204q9 0 9 8.5t-9 8.5h-204zM88 202q4 16 21 16h292h43v62q0 6 -7 6h-27v-60h-17h-300q-8 0 -11 -7l-14 -36v163h-45q-6 0 -6 -7v-331z" />
  </g>

</svg>
