<?xml version="1.0" standalone="no"?>
<!DOCTYPE svg PUBLIC "-//W3C//DTD SVG 1.1//EN" "http://www.w3.org/Graphics/SVG/1.1/DTD/svg11.dtd" >
<svg xmlns="http://www.w3.org/2000/svg" xmlns:xlink="http://www.w3.org/1999/xlink" version="1.1" viewBox="-11 0 534 512">
  <g transform="matrix(1 0 0 -1 0 448)">
   <path fill="currentColor"
d="M509 270q7 -7 0 -13q-2 -3 -6 -3t-7 3q-99 99 -240 99t-240 -100q-7 -6 -13.5 0.5t0.5 13.5q50 50 115.5 77t137.5 27t137.5 -27t115.5 -77zM58 215q82 82 198 82t198 -82q7 -7 0.5 -13.5t-13.5 0.5q-76 76 -185 76t-185 -76q-3 -3 -7 -3t-6 3q-7 6 0 13zM256 219
q84 0 144 -59q6 -7 0 -13q-3 -3 -7 -3t-7 3q-54 54 -130 54t-130 -54q-7 -7 -13.5 -0.5t-0.5 13.5q60 59 144 59zM256 132q25 0 43 -18t18 -43.5t-18 -43t-43 -17.5t-43 17.5t-18 43t18 43.5t43 18z" />
  </g>

</svg>
