<?xml version="1.0" standalone="no"?>
<!DOCTYPE svg PUBLIC "-//W3C//DTD SVG 1.1//EN" "http://www.w3.org/Graphics/SVG/1.1/DTD/svg11.dtd" >
<svg xmlns="http://www.w3.org/2000/svg" xmlns:xlink="http://www.w3.org/1999/xlink" version="1.1" viewBox="-10 0 531 512">
  <g transform="matrix(1 0 0 -1 0 448)">
   <path fill="currentColor"
d="M404 278q-8 -4 -3 -12q2 -4 7 -4q3 0 5 1l7 4q18 -35 20 -76h-8q-9 0 -9 -8.5t9 -8.5h8q-2 -41 -20 -76l-7 4q-8 5 -12.5 -3t3.5 -12l7 -4q-21 -34 -55 -56l-4 7q-5 8 -12.5 3.5t-3.5 -11.5l5 -8q-36 -18 -76 -20v8q0 9 -9 9t-9 -9v-8q-40 2 -76 20l5 8q4 7 -3.5 11.5
t-12.5 -3.5l-4 -7q-34 22 -55 56l7 4q8 4 3.5 12t-12.5 3l-7 -4q-19 35 -20 76h8q9 0 9 8.5t-9 8.5h-8q1 41 20 76l7 -4q2 -1 5 -1q5 0 7 4q5 8 -3 12l-7 4q21 34 55 56l4 -7q3 -5 8 -5q2 0 4 1q8 5 4 12l-5 8l9 3q23 10 47 14l20 3v-8q0 -9 9 -9t9 9v8q40 -2 76 -20l-5 -8
q-4 -7 4 -12q2 -1 4 -1q5 0 8 5l4 7q34 -22 55 -56zM353 174q9 0 9 8.5t-9 8.5h-63q-5 20 -25 25v90q0 9 -9 9t-9 -9v-90q-11 -3 -18.5 -12t-7.5 -21q0 -15 10 -25.5t25 -10.5q12 0 21.5 7.5t12.5 19.5h63zM238 182.5q0 17.5 18 17.5t18 -17.5t-18 -17.5t-18 17.5zM442 362
l-15 -15q67 -69 67 -164q0 -65 -32 -119.5t-86 -85.5l27 -27q6 -6 0 -12q-2 -3 -6 -3t-6 3l-31 30q-49 -24 -104 -24t-104 24l-31 -30q-2 -3 -6 -3t-6 3q-6 6 0 12l27 27q-54 31 -86 85.5t-32 119.5q0 95 67 164l-15 15l-36 -36q-2 -3 -6 -3t-6 3q-21 21 -21 50.5t21 50.5
t50.5 21t50.5 -21q2 -3 2 -6.5t-2 -5.5l-40 -41l15 -14q67 60 158 60t158 -60l15 14l-40 41q-2 2 -2 5.5t2 6.5q21 21 50.5 21t50.5 -21t21 -50.5t-21 -50.5q-2 -3 -6 -3t-6 3zM431 284q-27 47 -73 74h-1q-47 27 -101 27t-101 -27h-1q-46 -28 -73 -74l-1 -1
q-26 -47 -26 -100.5t26 -100.5l1 -1v0q27 -47 73 -74h1v0q47 -27 101 -27t101 27v0h1q46 27 73 74v0l1 1q26 47 26 100.5t-26 100.5z" />
  </g>

</svg>
