<?xml version="1.0" standalone="no"?>
<!DOCTYPE svg PUBLIC "-//W3C//DTD SVG 1.1//EN" "http://www.w3.org/Graphics/SVG/1.1/DTD/svg11.dtd" >
<svg xmlns="http://www.w3.org/2000/svg" xmlns:xlink="http://www.w3.org/1999/xlink" version="1.1" viewBox="-10 0 532 512">
  <g transform="matrix(1 0 0 -1 0 448)">
   <path fill="currentColor"
d="M441 377q6 -6 0 -12l-358 -358q-3 -3 -6.5 -3t-5.5 3q-6 6 0 12l358 358q6 6 12 0zM451 358q61 -72 61 -166q0 -106 -75 -181t-181 -75q-94 0 -166 61l116 116l111 -104l1 -1q7 -4 14 -4q11 0 18.5 8t7.5 19v234zM129 115h21l-89 -89q-61 72 -61 166q0 106 75 181t181 75
q94 0 166 -61l-64 -63v38q0 11 -7.5 18.5t-18.5 7.5q-7 0 -14 -3q0 -1 -1 -2l-113 -105q-2 -1 -4 -1h-71q-11 0 -19 -7.5t-8 -18.5v-109q0 -11 8 -19t19 -8z" />
  </g>

</svg>
