<?xml version="1.0" standalone="no"?>
<!DOCTYPE svg PUBLIC "-//W3C//DTD SVG 1.1//EN" "http://www.w3.org/Graphics/SVG/1.1/DTD/svg11.dtd" >
<svg xmlns="http://www.w3.org/2000/svg" xmlns:xlink="http://www.w3.org/1999/xlink" version="1.1" viewBox="-10 0 522 512">
  <g transform="matrix(1 0 0 -1 0 448)">
   <path fill="currentColor"
d="M459 448q15 0 25 -10.5t10 -24.5v-442q0 -14 -10 -24.5t-25 -10.5h-291h-18h-97v35v10q-15 3 -25 15t-10 28t10 28t25 16v-19q-18 -6 -18 -24.5t18 -25.5v8v8v34q5 2 9 2q11 0 18.5 -8t7.5 -19q0 -9 9 -9t9 9q0 19 -13 31.5t-31 12.5h-9v34q5 2 9 2q11 0 18.5 -8t7.5 -19
q0 -9 9 -9t9 9q0 18 -13 31t-31 13q-5 0 -9 -1v35q5 2 9 2q11 0 18.5 -8t7.5 -19q0 -9 9 -9t9 9q0 18 -13 31t-31 13q-5 0 -9 -1v35q5 2 9 2q11 0 18.5 -8t7.5 -19q0 -9 9 -9t9 9q0 18 -13 31t-31 13q-5 0 -9 -1v35q5 2 9 2q11 0 18.5 -8t7.5 -19q0 -9 9 -9t9 9q0 18 -13 31
t-31 13q-5 0 -9 -1v35q5 2 9 2q11 0 18.5 -8t7.5 -19q0 -9 9 -9t9 9q0 18 -13 31t-31 13q-5 0 -9 -1v35q5 2 9 2q11 0 18.5 -8t7.5 -19q0 -9 9 -9t9 9q0 18 -13 31t-31 13q-5 0 -9 -1v63h115h291zM168 -46h229v476h-229v-476zM477 -29v442q0 7 -5.5 12t-12.5 5h-35v-476h35
q7 0 12.5 5t5.5 12zM18 342q0 16 10 28t25 15v-18q-18 -6 -18 -25q0 -9 -8.5 -9t-8.5 9zM18 289q0 16 10 28t25 15v-18q-18 -6 -18 -25q0 -9 -8.5 -9t-8.5 9zM18 236q0 16 10 28t25 15v-18q-18 -6 -18 -25q0 -9 -8.5 -9t-8.5 9zM18 183q0 16 10 28t25 15v-18q-18 -6 -18 -25
q0 -9 -8.5 -9t-8.5 9zM18 130q0 16 10 28t25 15v-18q-18 -6 -18 -25q0 -9 -8.5 -9t-8.5 9zM18 77q0 16 10 28t25 15v-18q-18 -6 -18 -25q0 -9 -8.5 -9t-8.5 9z" />
  </g>

</svg>
