<?xml version="1.0" standalone="no"?>
<!DOCTYPE svg PUBLIC "-//W3C//DTD SVG 1.1//EN" "http://www.w3.org/Graphics/SVG/1.1/DTD/svg11.dtd" >
<svg xmlns="http://www.w3.org/2000/svg" xmlns:xlink="http://www.w3.org/1999/xlink" version="1.1" viewBox="-10 0 528 512">
  <g transform="matrix(1 0 0 -1 0 448)">
   <path fill="currentColor"
d="M276 86q-6 6 0 12l28 29l-28 28q-6 7 0 13t12 0l29 -29l28 29q6 6 12.5 0t0.5 -13l-29 -28l29 -29q6 -6 0 -12q-3 -2 -6.5 -2t-6.5 2l-28 29l-29 -29q-2 -2 -6 -2t-6 2zM230 448q16 0 27.5 -10t14.5 -25h-18q-6 18 -24 18q-9 0 -9 8.5t9 8.5zM282 448q16 0 27.5 -10
t15.5 -25h-19q-6 18 -24 18q-9 0 -9 8.5t9 8.5zM334 448q16 0 28 -10t15 -25h-18q-7 18 -25 18q-9 0 -9 8.5t9 8.5zM377 413h131v-95v-122v-17v-104v-18v-121h-122h-17h-104h-18h-104h-17h-122v121v18v104v17v122v95h122h9q3 15 15 25t27.5 10t27.5 -10t15 -25h-18
q-6 18 -24 18t-25 -18h8h41q2 -4 2 -8q0 -11 -7.5 -18.5t-18.5 -7.5q-9 0 -9 -9t9 -9q18 0 30.5 13t12.5 31q0 4 -1 8h34q2 -4 2 -8q0 -11 -7.5 -18.5t-18.5 -7.5q-9 0 -9 -9t9 -9q18 0 30.5 13t12.5 31q0 4 -1 8h34q2 -4 2 -8q0 -11 -7.5 -18.5t-18.5 -7.5q-9 0 -9 -9t9 -9
q18 0 30.5 13t12.5 31v8h34q1 -4 1 -8q0 -11 -7.5 -18.5t-18.5 -7.5q-9 0 -9 -9t9 -9q18 0 30.5 13t12.5 31v8zM126 -47v104h-104v-104h104zM126 75v104h-104v-104h104zM126 196v104h-104v-104h104zM247 -47v104h-104v-104h104zM247 75v104h-104v-104h104zM247 196v104h-104
v-104h104zM369 -47v104h-104v-104h104zM369 75v104h-104v-104h104zM369 196v104h-104v-104h104zM490 -47v104h-104v-104h104zM490 75v104h-104v-104h104zM490 196v104h-104v-104h104z" />
  </g>

</svg>
