<?xml version="1.0" standalone="no"?>
<!DOCTYPE svg PUBLIC "-//W3C//DTD SVG 1.1//EN" "http://www.w3.org/Graphics/SVG/1.1/DTD/svg11.dtd" >
<svg xmlns="http://www.w3.org/2000/svg" xmlns:xlink="http://www.w3.org/1999/xlink" version="1.1" viewBox="-10 0 522 512">
  <g transform="matrix(1 0 0 -1 0 448)">
   <path fill="currentColor"
d="M324 269h-133l-46 -46v88q0 18 12.5 30.5t30.5 12.5h136q18 0 30.5 -12.5t12.5 -30t-12.5 -30t-30.5 -12.5zM188 124q-18 0 -30.5 12.5t-12.5 30t12.5 30t30.5 12.5h136q18 0 30.5 -12.5t12.5 -30.5v-88l-46 46h-133zM239 -4q0 17 17 17t17 -17t-17 -17t-17 17zM363 448
q16 0 27 -11t11 -27v-436q0 -16 -11 -27t-27 -11h-214q-16 0 -27 11t-11 27v436q0 16 11 27t27 11h214zM282 422q-9 0 -9 -8.5t9 -8.5h8q9 0 9 8.5t-9 8.5h-8zM222 422q-9 0 -9 -8.5t9 -8.5h34q9 0 9 8.5t-9 8.5h-34zM256 -38q14 0 24 10t10 24t-10 24t-24 10t-24 -10
t-10 -24t10 -24t24 -10zM384 55v325h-256v-325h256z" />
  </g>

</svg>
