<?xml version="1.0" standalone="no"?>
<!DOCTYPE svg PUBLIC "-//W3C//DTD SVG 1.1//EN" "http://www.w3.org/Graphics/SVG/1.1/DTD/svg11.dtd" >
<svg xmlns="http://www.w3.org/2000/svg" xmlns:xlink="http://www.w3.org/1999/xlink" version="1.1" viewBox="-10 0 522 512">
  <g transform="matrix(1 0 0 -1 0 448)">
   <path fill="currentColor"
d="M119 47h274v-81q0 -13 -9 -21.5t-21 -8.5h-214q-12 0 -21 8.5t-9 21.5v81zM393 64h-274v320q0 13 9 21.5t21 8.5h56v34h102v-34h56q12 0 21 -8.5t9 -21.5v-320zM137 384v-303h238v303q0 5 -3.5 9t-8.5 4h-56h-102h-56q-5 0 -8.5 -4t-3.5 -9z" />
  </g>

</svg>
