<?xml version="1.0" standalone="no"?>
<!DOCTYPE svg PUBLIC "-//W3C//DTD SVG 1.1//EN" "http://www.w3.org/Graphics/SVG/1.1/DTD/svg11.dtd" >
<svg xmlns="http://www.w3.org/2000/svg" xmlns:xlink="http://www.w3.org/1999/xlink" version="1.1" viewBox="-10 0 532 512">
  <g transform="matrix(1 0 0 -1 0 448)">
   <path fill="currentColor"
d="M486 249q11 0 18.5 -8t7.5 -18v-62q0 -10 -7.5 -18t-18.5 -8h-48q-13 0 -17.5 -11.5t4.5 -19.5l34 -34q7 -8 7 -19t-7 -18l-44 -44q-7 -7 -18 -7t-19 7l-34 34q-5 6 -12.5 6t-13 -5t-5.5 -14v-48q0 -11 -8 -18.5t-18 -7.5h-62q-10 0 -18 7.5t-8 18.5v48q0 9 -5.5 14
t-13 5t-12.5 -6l-34 -34q-8 -7 -19 -7t-18 7l-44 44q-7 7 -7 18t7 19l34 34q9 8 4.5 19.5t-17.5 11.5h-48q-11 0 -18.5 8t-7.5 18v62q0 10 7.5 18t18.5 8h48q13 0 17.5 11.5t-4.5 19.5l-34 34q-7 8 -7 19t7 18l44 44q7 7 18 7t19 -7l34 -34q5 -6 12.5 -6t13 5t5.5 14v48
q0 11 8 18.5t18 7.5h62q10 0 18 -7.5t8 -18.5v-48q0 -8 5.5 -13.5t13 -5.5t12.5 6l34 34q8 7 19 7t18 -7l44 -44q7 -7 7 -18t-7 -19l-34 -34q-9 -8 -4.5 -19.5t17.5 -11.5h48zM322 192q0 27 -19.5 46.5t-46.5 19.5t-46.5 -19.5t-19.5 -46.5t19.5 -46.5t46.5 -19.5t46.5 19.5
t19.5 46.5z" />
  </g>

</svg>
