<?xml version="1.0" standalone="no"?>
<!DOCTYPE svg PUBLIC "-//W3C//DTD SVG 1.1//EN" "http://www.w3.org/Graphics/SVG/1.1/DTD/svg11.dtd" >
<svg xmlns="http://www.w3.org/2000/svg" xmlns:xlink="http://www.w3.org/1999/xlink" version="1.1" viewBox="-10 0 522 512">
  <g transform="matrix(1 0 0 -1 0 448)">
   <path fill="currentColor"
d="M278 187q11 -8 12 -22t-9 -24q-9 -9 -21 -9q-16 0 -25 12l-80 111q-4 5 1 10.5t11 1.5zM478 225q8 -29 8 -59t-8 -59v-1q-8 -28 -23 -54v-1v-0.5v-0.5q-15 -25 -36 -46v-1h-1q-21 -21 -47 -36v0q-1 0 -1 -1q-26 -14 -54 -22h-1q-29 -8 -59 -8t-59 8h-1q-28 8 -54 22
q0 1 -1 1v0q-26 15 -47 36h-1v1q-21 21 -36 46v1v0v1q-15 26 -23 54v1q-8 29 -8 59t8 59v1q8 28 23 54v0.5v0.5q13 22 31 41l-19 19l-12 -12l-36 36l36 36l36 -36l-12 -12l19 -19q18 18 41 31v0h1q26 15 54 23h1q16 5 33 6v11h-12q-9 0 -15.5 6.5t-6.5 15.5t6.5 15t15.5 6
h76q9 0 15.5 -6t6.5 -15t-6.5 -15.5t-15.5 -6.5h-12v-11q17 -1 33 -6h1q28 -8 54 -23h1v0q23 -13 41 -31l19 19l-12 12l36 36l36 -36l-36 -36l-12 12l-19 -19q18 -18 31 -41v0v-1q15 -26 23 -54v-1zM443 107q-8 2 -6 10.5t10 5.5l17 -4q4 19 5 38h-17q-9 0 -9 8.5t9 8.5h17
q-1 20 -5 39l-17 -5h-2q-6 0 -8 6q-2 9 6 11l16 4q-5 18 -15 36l-14 -9q-2 -1 -4 -1q-5 0 -8 5q-4 7 3 11l15 9q-11 16 -24 30l-11 -12q-3 -2 -6.5 -2t-6.5 2q-6 6 0 12l12 12q-14 13 -30 24l-9 -15q-2 -4 -7 -4q-2 0 -4 1q-8 4 -3 12l8 14q-17 10 -36 15l-4 -16
q-2 -6 -8 -6h-2q-9 2 -7 10l5 17q-19 4 -38 5v-17q0 -9 -9 -9t-9 9v17q-19 -1 -38 -5l5 -17q2 -8 -6 -10h-3q-6 0 -8 6l-4 16q-19 -5 -36 -15l8 -14q5 -8 -3 -12q-2 -1 -4 -1q-5 0 -7 4l-9 15q-16 -11 -30 -24l12 -12q6 -6 0 -12q-3 -2 -6.5 -2t-6.5 2l-11 12
q-13 -14 -24 -30l15 -9q7 -4 3 -11q-3 -5 -8 -5q-2 0 -4 1l-14 9q-10 -18 -15 -36l16 -4q8 -2 6 -11q-2 -6 -8 -6h-2l-17 5q-4 -19 -5 -39h17q9 0 9 -8.5t-9 -8.5h-17q1 -19 5 -38l17 4q8 3 10 -5.5t-6 -10.5l-16 -4q5 -19 15 -36l14 8q7 5 11.5 -2.5t-2.5 -11.5l-15 -9
q11 -16 24 -30l11 11q7 6 13 0t0 -12l-12 -11q14 -13 30 -24l9 15q4 7 11.5 2.5t2.5 -11.5l-8 -14q17 -10 36 -15l4 16q2 8 10.5 6t6.5 -10l-5 -17q19 -4 38 -5v17q0 9 9 9t9 -9v-17q19 1 38 5l-5 17q-2 8 6.5 10t10.5 -6l4 -16q19 5 36 15l-8 14q-5 7 2.5 11.5t11.5 -2.5
l9 -15q16 11 30 24l-12 11q-6 6 0.5 12t12.5 0l11 -11q13 14 24 30l-15 9q-7 4 -2.5 11.5t11.5 2.5l14 -8q10 17 15 36z" />
  </g>

</svg>
