<?xml version="1.0" standalone="no"?>
<!DOCTYPE svg PUBLIC "-//W3C//DTD SVG 1.1//EN" "http://www.w3.org/Graphics/SVG/1.1/DTD/svg11.dtd" >
<svg xmlns="http://www.w3.org/2000/svg" xmlns:xlink="http://www.w3.org/1999/xlink" version="1.1" viewBox="-10 0 522 512">
  <g transform="matrix(1 0 0 -1 0 448)">
   <path fill="currentColor"
d="M332 448l125 -124v-388h-402v512h277zM206 91q7 6 1.5 12.5t-12.5 1.5l-37 -30l-11 12q-6 6 -12 0t0 -12l17 -17q2 -3 6 -3q3 0 5 2zM206 185q7 6 1.5 12.5t-12.5 1.5l-37 -30l-11 12q-6 6 -12 0t0 -12l17 -17q2 -3 6 -3q3 0 5 2zM206 279q7 6 1.5 12.5t-12.5 1.5
l-37 -30l-11 12q-6 6 -12 0t0 -12l17 -17q2 -3 6 -3q3 0 5 2zM363 64q8 0 8 8.5t-8 8.5h-137q-8 0 -8 -8.5t8 -8.5h137zM363 158q8 0 8 8.5t-8 8.5h-137q-8 0 -8 -8.5t8 -8.5h137zM363 252q8 0 8 8.5t-8 8.5h-137q-8 0 -8 -8.5t8 -8.5h137zM320 311h119l-119 120v-120z" />
  </g>

</svg>
