<?xml version="1.0" standalone="no"?>
<!DOCTYPE svg PUBLIC "-//W3C//DTD SVG 1.1//EN" "http://www.w3.org/Graphics/SVG/1.1/DTD/svg11.dtd" >
<svg xmlns="http://www.w3.org/2000/svg" xmlns:xlink="http://www.w3.org/1999/xlink" version="1.1" viewBox="-10 0 532 512">
  <g transform="matrix(1 0 0 -1 0 448)">
   <path fill="currentColor"
d="M290.5 -5q8.5 0 8.5 -8q0 -6 -2 -11q-1 -7 -8 -7q-1 0 -2 1q-8 2 -6 10q1 3 1 7q0 8 8.5 8zM230 -13q0 -9 -8.5 -9t-8.5 8h9h-9q0 6 2 11q2 9 10 6.5t6 -10.5q-1 -3 -1 -6zM269 -36q7 5 11.5 -2.5t-3.5 -11.5q-4 -3 -10 -5h-2q-7 0 -8 6q-3 9 6 11zM243 -36q8 -4 3 -11
q-2 -5 -7 -5q-2 0 -4 2q-5 2 -9 6q-6 6 0 12t12 0q2 -2 5 -4zM269 9q-8 4 -3.5 11.5t11.5 3.5q5 -3 9 -7q6 -6 0 -12q-3 -3 -6.5 -3t-6 2.5zM245 28q8 2 10 -6t-6 -11l-6 -2q-2 -1 -4 -1q-5 0 -8 4q-4 7 3 11q5 3 11 5zM51 -5q9 0 9 -8.5t-9 -8.5h-8q-9 0 -9 8.5t9 8.5h8z
M85 -5q9 0 9 -8.5t-9 -8.5h-8q-9 0 -9 8.5t9 8.5h8zM17 -5q9 0 9 -8.5t-9 -8.5h-8q-9 0 -9 8.5t9 8.5h8zM119 -5q9 0 9 -8.5t-9 -8.5h-8q-9 0 -9 8.5t9 8.5h8zM154 -5q8 0 8 -8.5t-8 -8.5h-9q-8 0 -8 8.5t8 8.5h9zM188 -5q8 0 8 -8.5t-8 -8.5h-9q-8 0 -8 8.5t8 8.5h9z
M367 -5q8 0 8 -8.5t-8 -8.5h-9q-8 0 -8 8.5t8 8.5h9zM503 -5q9 0 9 -8.5t-9 -8.5h-8q-9 0 -9 8.5t9 8.5h8zM469 -5q9 0 9 -8.5t-9 -8.5h-8q-9 0 -9 8.5t9 8.5h8zM435 -5q9 0 9 -8.5t-9 -8.5h-8q-9 0 -9 8.5t9 8.5h8zM401 -5q9 0 9 -8.5t-9 -8.5h-8q-9 0 -9 8.5t9 8.5h8z
M333 -5q8 0 8 -8.5t-8 -8.5h-9q-8 0 -8 8.5t8 8.5h9zM247 89q0 9 9 9t9 -9v-9q0 -8 -9 -8t-9 8v9zM265 46q0 -8 -9 -8t-9 8v9q0 8 9 8t9 -8v-9zM7 260h498q7 -10 7 -23v-100q0 -16 -11.5 -27.5t-27.5 -11.5h-217h-217q-16 0 -27.5 11.5t-11.5 27.5v100q0 13 7 23zM89.5 149
q15.5 0 27 11t11.5 27t-11.5 27.5t-27 11.5t-27 -11.5t-11.5 -27.5t11.5 -27t27 -11zM290.5 191q8.5 0 8.5 8.5t-8.5 8.5t-8.5 -8.5t8.5 -8.5zM307.5 166q8.5 0 8.5 8.5t-8.5 8.5t-8.5 -8.5t8.5 -8.5zM324.5 191q8.5 0 8.5 8.5t-8.5 8.5t-8.5 -8.5t8.5 -8.5zM341.5 166
q8.5 0 8.5 8.5t-8.5 8.5t-8.5 -8.5t8.5 -8.5zM358.5 191q8.5 0 8.5 8.5t-8.5 8.5t-8.5 -8.5t8.5 -8.5zM375.5 166q8.5 0 8.5 8.5t-8.5 8.5t-8.5 -8.5t8.5 -8.5zM392.5 191q8.5 0 8.5 8.5t-8.5 8.5t-8.5 -8.5t8.5 -8.5zM409.5 166q8.5 0 8.5 8.5t-8.5 8.5t-8.5 -8.5t8.5 -8.5
zM426.5 191q8.5 0 8.5 8.5t-8.5 8.5t-8.5 -8.5t8.5 -8.5zM443.5 166q8.5 0 8.5 8.5t-8.5 8.5t-8.5 -8.5t8.5 -8.5zM473 439q16 0 27.5 -11.5t11.5 -27.5v-101q0 -12 -7 -22h-498q-7 10 -7 22v101q0 16 11.5 27.5t27.5 11.5h434zM89.5 311q15.5 0 27 11t11.5 27t-11.5 27.5
t-27 11.5t-27 -11.5t-11.5 -27.5t11.5 -27t27 -11zM290.5 354q8.5 0 8.5 8.5t-8.5 8.5t-8.5 -8.5t8.5 -8.5zM307.5 328q8.5 0 8.5 8.5t-8.5 8.5t-8.5 -8.5t8.5 -8.5zM324.5 354q8.5 0 8.5 8.5t-8.5 8.5t-8.5 -8.5t8.5 -8.5zM341.5 328q8.5 0 8.5 8.5t-8.5 8.5t-8.5 -8.5
t8.5 -8.5zM358.5 354q8.5 0 8.5 8.5t-8.5 8.5t-8.5 -8.5t8.5 -8.5zM375.5 328q8.5 0 8.5 8.5t-8.5 8.5t-8.5 -8.5t8.5 -8.5zM392.5 354q8.5 0 8.5 8.5t-8.5 8.5t-8.5 -8.5t8.5 -8.5zM409.5 328q8.5 0 8.5 8.5t-8.5 8.5t-8.5 -8.5t8.5 -8.5zM426.5 354q8.5 0 8.5 8.5
t-8.5 8.5t-8.5 -8.5t8.5 -8.5zM443.5 328q8.5 0 8.5 8.5t-8.5 8.5t-8.5 -8.5t8.5 -8.5z" />
  </g>

</svg>
