<?xml version="1.0" standalone="no"?>
<!DOCTYPE svg PUBLIC "-//W3C//DTD SVG 1.1//EN" "http://www.w3.org/Graphics/SVG/1.1/DTD/svg11.dtd" >
<svg xmlns="http://www.w3.org/2000/svg" xmlns:xlink="http://www.w3.org/1999/xlink" version="1.1" viewBox="-11 0 534 512">
  <g transform="matrix(1 0 0 -1 0 448)">
   <path fill="currentColor"
d="M509 202q7 -7 0.5 -13t-12.5 0q-71 72 -170 93q44 -35 44 -90q0 -48 -33.5 -81.5t-81 -33.5t-81.5 33.5t-34 81.5q0 55 43 89q-97 -21 -167 -92l-2 -2q-2 -2 -6 -2t-6 2q-7 6 0 13l2 2q103 104 250 105h1v0h1q72 0 137 -27t115 -78zM256 121q29 0 50 21t21 50q0 9 -9 9
t-9 -9q0 -22 -15.5 -37.5t-37.5 -15.5t-37.5 15.5t-15.5 37.5t15.5 37.5t37.5 15.5q9 0 9 9t-9 9q-29 0 -49.5 -21t-20.5 -50t20.5 -50t49.5 -21z" />
  </g>

</svg>
