<?xml version="1.0" standalone="no"?>
<!DOCTYPE svg PUBLIC "-//W3C//DTD SVG 1.1//EN" "http://www.w3.org/Graphics/SVG/1.1/DTD/svg11.dtd" >
<svg xmlns="http://www.w3.org/2000/svg" xmlns:xlink="http://www.w3.org/1999/xlink" version="1.1" viewBox="-10 0 532 512">
  <g transform="matrix(1 0 0 -1 0 448)">
   <path fill="currentColor"
d="M0 -30v444h85v-444h-85zM102 414h410v-444h-410v444zM435 320v9q0 3 -3 6t-7 2l-162 -26q-7 -1 -7 -8v-28v-23v-117q-16 14 -38 14q-23 0 -39.5 -15t-16.5 -36t16.5 -36t39.5 -15q22 0 38 14.5t17 35.5v147l145 23v-81q-16 15 -38 15q-23 0 -39.5 -15t-16.5 -36.5
t16.5 -36.5t39.5 -15t39 15t16 36v128v43z" />
  </g>

</svg>
