<?xml version="1.0" standalone="no"?>
<!DOCTYPE svg PUBLIC "-//W3C//DTD SVG 1.1//EN" "http://www.w3.org/Graphics/SVG/1.1/DTD/svg11.dtd" >
<svg xmlns="http://www.w3.org/2000/svg" xmlns:xlink="http://www.w3.org/1999/xlink" version="1.1" viewBox="-10 0 522 512">
  <g transform="matrix(1 0 0 -1 0 448)">
   <path fill="currentColor"
d="M230 448q16 0 27.5 -10t14.5 -25h-18q-6 18 -24 18q-9 0 -9 8.5t9 8.5zM282 448q16 0 27.5 -10t15.5 -25h-19q-6 18 -24 18q-9 0 -9 8.5t9 8.5zM334 448q16 0 28 -10t15 -25h-18q-7 18 -25 18q-9 0 -9 8.5t9 8.5zM377 413h105v-43v-70v-86v-87v-43v-27v-121h-122l122 121
h-122v-121h-330v52v52v87v87v86v44v69h96h9q3 15 15 25t27.5 10t27.5 -10t15 -25h-18q-6 18 -24 18t-25 -18h8h41q2 -4 2 -8q0 -11 -7.5 -18.5t-18.5 -7.5q-9 0 -9 -9t9 -9q18 0 30.5 13t12.5 31q0 4 -1 8h34q2 -4 2 -8q0 -11 -7.5 -18.5t-18.5 -7.5q-9 0 -9 -9t9 -9
q18 0 30.5 13t12.5 31q0 4 -1 8h34q2 -4 2 -8q0 -11 -7.5 -18.5t-18.5 -7.5q-9 0 -9 -9t9 -9q18 0 30.5 13t12.5 31v8h34q1 -4 1 -8q0 -11 -7.5 -18.5t-18.5 -7.5q-9 0 -9 -9t9 -9q18 0 30.5 13t12.5 31v8zM117 213.5q0 8.5 -9 8.5v70q9 0 9 8.5t-9 8.5v35q0 9 -8.5 9
t-8.5 -9v-35q-9 0 -9 -8.5t9 -8.5v-70q-9 0 -9 -8.5t9 -8.5v-69q-9 0 -9 -9t9 -9v-69q-9 0 -9 -9t9 -9v-43q0 -9 8.5 -9t8.5 9v43q9 0 9 9t-9 9v69q9 0 9 9t-9 9v69q9 0 9 8.5zM161 31q8 0 8 9t-8 9h-18q-8 0 -8 -9t8 -9h18zM161 118q8 0 8 9t-8 9h-18q-8 0 -8 -9t8 -9h18z
M161 205q8 0 8 8.5t-8 8.5h-18q-8 0 -8 -8.5t8 -8.5h18zM161 292q8 0 8 8.5t-8 8.5h-18q-8 0 -8 -8.5t8 -8.5h18zM213 31q8 0 8 9t-8 9h-18q-8 0 -8 -9t8 -9h18zM213 118q8 0 8 9t-8 9h-18q-8 0 -8 -9t8 -9h18zM213 205q8 0 8 8.5t-8 8.5h-18q-8 0 -8 -8.5t8 -8.5h18z
M213 292q8 0 8 8.5t-8 8.5h-18q-8 0 -8 -8.5t8 -8.5h18zM265 31q8 0 8 9t-8 9h-18q-8 0 -8 -9t8 -9h18zM265 118q8 0 8 9t-8 9h-18q-8 0 -8 -9t8 -9h18zM265 205q8 0 8 8.5t-8 8.5h-18q-8 0 -8 -8.5t8 -8.5h18zM265 292q8 0 8 8.5t-8 8.5h-18q-8 0 -8 -8.5t8 -8.5h18z
M317 31q8 0 8 9t-8 9h-18q-8 0 -8 -9t8 -9h18zM317 118q8 0 8 9t-8 9h-18q-8 0 -8 -9t8 -9h18zM317 205q8 0 8 8.5t-8 8.5h-18q-8 0 -8 -8.5t8 -8.5h18zM317 292q8 0 8 8.5t-8 8.5h-18q-8 0 -8 -8.5t8 -8.5h18zM369 118q8 0 8 9t-8 9h-18q-8 0 -8 -9t8 -9h18zM369 205
q8 0 8 8.5t-8 8.5h-18q-8 0 -8 -8.5t8 -8.5h18zM369 292q8 0 8 8.5t-8 8.5h-18q-8 0 -8 -8.5t8 -8.5h18zM421 118q9 0 9 9t-9 9h-17q-9 0 -9 -9t9 -9h17zM421 205q9 0 9 8.5t-9 8.5h-17q-9 0 -9 -8.5t9 -8.5h17zM421 292q9 0 9 8.5t-9 8.5h-17q-9 0 -9 -8.5t9 -8.5h17z" />
  </g>

</svg>
