<?xml version="1.0" standalone="no"?>
<!DOCTYPE svg PUBLIC "-//W3C//DTD SVG 1.1//EN" "http://www.w3.org/Graphics/SVG/1.1/DTD/svg11.dtd" >
<svg xmlns="http://www.w3.org/2000/svg" xmlns:xlink="http://www.w3.org/1999/xlink" version="1.1" viewBox="-11 0 534 512">
  <g transform="matrix(1 0 0 -1 0 448)">
   <path fill="currentColor"
d="M501 215l-90 -87q-6 -6 -4 -15l21 -123q3 -17 -8 -30t-28 -13q-9 0 -18 4l-110 58q-8 4 -16 0l-110 -58q-12 -6 -24.5 -3.5t-21.5 12.5q-11 13 -8 30l21 123q2 9 -4 15l-90 87q-16 16 -9 37.5t29 25.5l124 18q9 1 13 8l55 113q10 20 33 20t33 -20l55 -113q4 -7 13 -8
l124 -18q22 -4 29 -25.5t-9 -37.5z" />
  </g>

</svg>
