<?xml version="1.0" standalone="no"?>
<!DOCTYPE svg PUBLIC "-//W3C//DTD SVG 1.1//EN" "http://www.w3.org/Graphics/SVG/1.1/DTD/svg11.dtd" >
<svg xmlns="http://www.w3.org/2000/svg" xmlns:xlink="http://www.w3.org/1999/xlink" version="1.1" viewBox="-10 0 532 512">
  <g transform="matrix(1 0 0 -1 0 448)">
   <path fill="currentColor"
d="M338.5 114q-7.5 0 -13.5 6l-42 42v-167q0 -7 -5 -12.5t-12.5 -5.5t-13 5.5t-5.5 12.5v167l-42 -42q-5 -6 -13 -6t-13 5.5t-5 13t5 12.5l73 74q1 1 3 2l0.5 0.5l0.5 0.5l2 1l1.5 0.5t2.5 0.5h7l1.5 -0.5t1.5 -1t2 -0.5l0.5 -0.5l0.5 -0.5q2 -1 3 -2l73 -74q6 -5 6 -12.5
t-5.5 -13t-13 -5.5zM437 261q32 -6 53.5 -32.5t21.5 -59.5q0 -38 -27 -64.5t-65 -26.5h-89h-2h-2h-2h-2h-21v39l11 -10q10 -11 25.5 -11t26 10.5t10.5 26t-11 25.5l-73 74q-2 2 -5 4q-1 1 -2 1t-1 1q-3 1 -3.5 1.5t-3.5 1.5l-3 1q-8 1 -15 0q0 -1 -1.5 -1h-1.5
q-3 -1 -3.5 -1.5t-3.5 -1.5l-1 -1t-2 -1q-3 -2 -5 -4l-74 -74q-10 -10 -10 -25.5t10.5 -26t25.5 -10.5t26 11l11 10v-39h-130q-41 0 -70 29t-29 70q0 28 16.5 54.5t42.5 39.5l5 2v6v3v2v2v2q0 26 19 45t45 19q4 0 8 -1h3q3 -1 7 -2h1q3 -1 7 -3q1 0 2 -1q4 -1 7 -3
q29 -19 29 -54q0 -9 9 -9t9 9q0 38 -29 63q20 26 50 41t62 15q53 0 92 -37t44 -90q-20 1 -37 -1q-9 -2 -8 -11q1 -7 9 -7h2q20 3 42 0z" />
  </g>

</svg>
