<?xml version="1.0" standalone="no"?>
<!DOCTYPE svg PUBLIC "-//W3C//DTD SVG 1.1//EN" "http://www.w3.org/Graphics/SVG/1.1/DTD/svg11.dtd" >
<svg xmlns="http://www.w3.org/2000/svg" xmlns:xlink="http://www.w3.org/1999/xlink" version="1.1" viewBox="-10 0 532 512">
  <g transform="matrix(1 0 0 -1 0 448)">
   <path fill="currentColor"
d="M41 253.5q6 -6.5 0 -12.5q-24 -23 -24 -57t24 -58q6 -6 0 -12q-3 -3 -6.5 -3t-5.5 3q-29 29 -29 70t29 70q6 6 12 -0.5zM70.5 131q-3.5 0 -5.5 2q-22 21 -22 51.5t22 51.5q6 6 12 0t0 -12q-16 -16 -16 -39t16 -40q6 -6 0 -12q-3 -2 -6.5 -2zM483 254q29 -29 29 -70
t-29 -70q-2 -3 -5.5 -3t-6.5 3q-6 6 0 12q24 24 24 58t-24 57q-6 6 0 12.5t12 0.5zM435 236q6 6 12 0q22 -21 22 -51t-22 -52q-2 -2 -5.5 -2t-6.5 2q-6 6 0 12q16 17 16 40t-16 39q-6 6 0 12zM401 179q0 -79 60 -139q4 -3 2.5 -8t-6.5 -6l-81 -14q-22 -4 -42 -7
q-12 -22 -32.5 -35t-44 -13t-44 13t-32.5 35q-20 3 -42 7l-81 14q-5 1 -6.5 6t2.5 8q57 57 57 139v77q0 38 22.5 68t52.5 45q12 5 27 9v6q0 18 12.5 30.5t30.5 12.5t30.5 -12.5t12.5 -30.5v-5q16 -4 29 -10q30 -14 52 -43.5t21 -69.5v-77zM230 384v-2q26 4 52 0v2
q0 11 -7.5 18.5t-18.5 7.5t-18.5 -7.5t-7.5 -18.5zM162.5 247.5q8.5 -0.5 8.5 8.5q0 21 13 36.5t28 21.5q45 22 92 0q7 -3 11 4.5t-4 11.5q-54 24 -107 0q-18 -9 -34 -28t-16 -46q0 -8 8.5 -8.5zM312 3q-3 -1 -9 -1l-5 -1h-2.5h-2.5q-36 -2 -72 0h-1.5h-2t-2.5 0.5l-2 0.5
q-6 0 -10 1q21 -29 54.5 -29t54.5 29z" />
  </g>

</svg>
