<?xml version="1.0" standalone="no"?>
<!DOCTYPE svg PUBLIC "-//W3C//DTD SVG 1.1//EN" "http://www.w3.org/Graphics/SVG/1.1/DTD/svg11.dtd" >
<svg xmlns="http://www.w3.org/2000/svg" xmlns:xlink="http://www.w3.org/1999/xlink" version="1.1" viewBox="-10 0 532 512">
  <g transform="matrix(1 0 0 -1 0 448)">
   <path fill="currentColor"
d="M43 81q0 17 17 17t17 -17t-17 -17t-17 17zM435 397h9q8 0 8 -8.5t-8 -8.5h-9q-8 0 -8 8.5t8 8.5zM375 397q9 0 9 -8.5t-9 -8.5h-8q-9 0 -9 8.5t9 8.5h8zM307 397q9 0 9 -8.5t-9 -8.5h-8q-9 0 -9 8.5t9 8.5h8zM273 397q9 0 9 -8.5t-9 -8.5h-8q-9 0 -9 8.5t9 8.5h8z
M469 397h9q8 0 8 -8.5t-8 -8.5h-9q-8 0 -8 8.5t8 8.5zM401 397h9q8 0 8 -8.5t-8 -8.5h-9q-8 0 -8 8.5t8 8.5zM341 397q9 0 9 -8.5t-9 -8.5h-8q-9 0 -9 8.5t9 8.5h8zM503.5 269q8.5 0 8.5 -8v-9q0 -8 -8.5 -8t-8.5 8v9q0 8 8.5 8zM503.5 235q8.5 0 8.5 -8v-9q0 -7 -7 -8
q5 -6 6 -14q1 -1 1 -3v-4v-215q0 -16 -11 -27t-27 -11h-436q-16 0 -27 11t-11 27v215q0 15 11 26t27 11h194q2 4 7 4t7 -4h21h7h24h7h24h8h23h8h23h8h23h8h23h8h13q6 0 12 -2h1q1 0 1 -0.5t0.5 -0.5h1.5q2 -1 5 -3v7q0 8 8.5 8zM60 47q14 0 24 10t10 24t-10 24t-24 10
t-24 -10t-10 -24t10 -24t24 -10zM444 -47v256h-14h-8h-23h-8h-23h-8h-23h-8h-24h-7h-24h-7h-24h-13h-111v-256h325zM486 47v8q0 9 -8.5 9t-8.5 -9v-8q0 -9 8.5 -9t8.5 9zM486 81v34q0 9 -8.5 9t-8.5 -9v-34q0 -8 8.5 -8t8.5 8zM297 431q-9 0 -9 8.5t9 8.5h8q9 0 9 -8.5
t-9 -8.5h-8zM493 418q-1 3 -3 5q-5 7 1.5 12.5t12.5 -1.5q3 -4 5 -9q3 -8 -4 -11q-2 -1 -4 -1q-5 0 -8 5zM365 431q-9 0 -9 8.5t9 8.5h8q9 0 9 -8.5t-9 -8.5h-8zM432 431q-8 0 -8 8.5t8 8.5h9q8 0 8 -8.5t-8 -8.5h-9zM331 431q-9 0 -9 8.5t9 8.5h8q9 0 9 -8.5t-9 -8.5h-8z
M466 431q-8 0 -8 8.5t8 8.5h8q9 0 9 -8.5t-8 -8.5h-9zM399 431q-9 0 -9 8.5t9 8.5h8q9 0 9 -8.5t-9 -8.5h-8zM503.5 371q8.5 0 8.5 -9v-8q0 -9 -8.5 -9t-8.5 9v8q0 9 8.5 9zM503.5 405q8.5 0 8.5 -9v-8q0 -9 -8.5 -9t-8.5 9v8q0 9 8.5 9zM503.5 303q8.5 0 8.5 -8v-9
q0 -8 -8.5 -8t-8.5 8v9q0 8 8.5 8zM503.5 337q8.5 0 8.5 -9v-8q0 -9 -8.5 -9t-8.5 9v8q0 9 8.5 9zM238.5 239q-8.5 0 -8.5 8v9q0 8 8.5 8t8.5 -8v-9q0 -8 -8.5 -8zM238.5 341q-8.5 0 -8.5 8v9q0 8 8.5 8t8.5 -8v-9q0 -8 -8.5 -8zM238.5 375q-8.5 0 -8.5 8v9q0 8 8.5 8
t8.5 -8v-9q0 -8 -8.5 -8zM238 409q-9 2 -7 10l4 10q5 7 12 3t3 -11l-2 -6q-2 -7 -8 -7q-1 0 -2 1zM263 430q-7 0 -9 8q-1 8 7 9q4 1 7 1h3q9 0 9 -8.5t-9 -8.5h-3h-4q0 -1 -1 -1zM238.5 273q-8.5 0 -8.5 8v9q0 8 8.5 8t8.5 -8v-9q0 -8 -8.5 -8zM238.5 307q-8.5 0 -8.5 8v9
q0 8 8.5 8t8.5 -8v-9q0 -8 -8.5 -8zM34.5 260q-8.5 0 -8.5 9q0 46 32.5 78.5t78.5 32.5h22l-37 36q-6 6 0 12t12 0l51 -51q1 -1 2 -3q1 -3 0 -6q-1 -2 -2 -3l-51 -51q-2 -3 -6 -3t-6 3q-6 6 0 12l37 37h-22q-39 0 -66.5 -27.5t-27.5 -66.5q0 -9 -8.5 -9z" />
  </g>

</svg>
