<?xml version="1.0" standalone="no"?>
<!DOCTYPE svg PUBLIC "-//W3C//DTD SVG 1.1//EN" "http://www.w3.org/Graphics/SVG/1.1/DTD/svg11.dtd" >
<svg xmlns="http://www.w3.org/2000/svg" xmlns:xlink="http://www.w3.org/1999/xlink" version="1.1" viewBox="-10 0 532 512">
  <g transform="matrix(1 0 0 -1 0 448)">
   <path fill="currentColor"
d="M186 390v-381l140 -25v373zM177 411h2l158 -38q7 -1 7 -9v-391q0 -4 -3 -7q-2 -2 -6 -2h-1l-159 28q-7 1 -7 9v400q0 5 3 8q3 2 6 2zM508 427.5q4 -2.5 4 -7.5v-382q0 -6 -6 -8l-168 -65q-1 -1 -3 -1q-3 0 -5 2q-4 2 -4 7v391q0 7 6 9l168 56q4 1 8 -1.5zM175 411
q4 0 7.5 -2.5t3.5 -7.5v-400q0 -7 -7 -9l-168 -37h-2q-3 0 -6 2t-3 7v400q0 8 7 9z" />
  </g>

</svg>
