<?xml version="1.0" standalone="no"?>
<!DOCTYPE svg PUBLIC "-//W3C//DTD SVG 1.1//EN" "http://www.w3.org/Graphics/SVG/1.1/DTD/svg11.dtd" >
<svg xmlns="http://www.w3.org/2000/svg" xmlns:xlink="http://www.w3.org/1999/xlink" version="1.1" viewBox="-10 0 532 512">
  <g transform="matrix(1 0 0 -1 0 448)">
   <path fill="currentColor"
d="M121 387h391v-451h-452q-25 0 -42.5 17.5t-17.5 42.5v1v390q0 25 18 43t43 18t42.5 -18t17.5 -43zM495 -47v417h-374v-373h-17q0 18 -12.5 30.5t-30.5 12.5t-31 -12.5t-13 -30.5t12.5 -31t30.5 -13h435zM357 296l-14 10q-7 5 -2 12t12 2l14 -10q7 -5 2 -12q-3 -4 -7 -4
q-3 0 -5 2zM321 92.5q0 8.5 9 8.5h17q9 0 9 -8.5t-9 -8.5h-17q-9 0 -9 8.5zM399 266l-14 10q-7 5 -2 12t12 2l14 -10q7 -5 2 -12q-2 -4 -7 -4q-2 0 -5 2zM314 326l-14 10q-7 5 -2 12t12 2l14 -10q7 -5 2 -12q-2 -4 -7 -4q-2 0 -5 2zM442 236l-14 10q-7 5 -2 12t12 2l14 -10
q7 -5 2 -12q-3 -4 -7 -4q-3 0 -5 2zM252 92.5q0 -8.5 -9 -8.5h-17q-9 0 -9 8.5t9 8.5h17q9 0 9 -8.5zM443 210q0 9 8.5 9t8.5 -9v-17q0 -9 -8.5 -9t-8.5 9v17zM373 92.5q0 8.5 9 8.5h17q9 0 9 -8.5t-9 -8.5h-17q-9 0 -9 8.5zM269 92.5q0 8.5 9 8.5h17q9 0 9 -8.5t-9 -8.5
h-17q-9 0 -9 8.5zM451.5 132q-8.5 0 -8.5 9v17q0 9 8.5 9t8.5 -9v-17q0 -9 -8.5 -9zM443 101v5q0 9 8.5 9t8.5 -9v-22h-26q-9 0 -9 8.5t9 8.5h9zM263 306q-5 0 -8 4q-5 7 3 12l14 10q7 5 12 -2t-2 -12l-14 -10q-3 -2 -5 -2zM174 84q-9 0 -9 8.5t9 8.5h17q9 0 9 -8.5t-9 -8.5
h-17zM156.5 153q-8.5 0 -8.5 9v17q0 9 8.5 9t8.5 -9v-17q0 -9 -8.5 -9zM177 246q-4 0 -7 4q-5 7 2 12l15 10q7 5 12 -2t-2 -12l-15 -10q-2 -2 -5 -2zM156.5 101q-8.5 0 -8.5 9v17q0 9 8.5 9t8.5 -9v-17q0 -9 -8.5 -9zM156.5 205q-8.5 0 -8.5 9v17q0 9 8.5 9t8.5 -9v-17
q0 -9 -8.5 -9zM220 276q-4 0 -7 4q-5 7 2 12l14 10q7 5 12 -2t-2 -12l-14 -10q-2 -2 -5 -2zM356 -21v70h113v-70h-113zM226 135.5q0 -8.5 -9 -8.5h-17q-9 0 -9 8.5t9 8.5h17q9 0 9 -8.5zM269 214q9 0 9 -9v-17q0 -9 -9 -9t-9 9v17q0 9 9 9zM191 188q0 8 8.5 8t8.5 -8v-18
q0 -8 -8.5 -8t-8.5 8v18zM252 127q-9 0 -9 8.5t9 8.5h8v9q0 9 9 9t9 -9v-17q0 -9 -9 -9h-17zM217 196q-9 0 -9 9t9 9h17q9 0 9 -9t-9 -9h-17zM338 127q-8 0 -8 8.5t8 8.5h18q8 0 8 -8.5t-8 -8.5h-18zM399 205q0 9 9 9t9 -9v-17q0 -9 -9 -9t-9 9v17zM347 205q0 9 9 9h17
q9 0 9 -9t-9 -9h-17q-9 0 -9 9zM408 127h-17q-9 0 -9 8.5t9 8.5h8v9q0 9 9 9t9 -9v-17q0 -9 -9 -9zM338.5 162q-8.5 0 -8.5 8v18q0 8 8.5 8t8.5 -8v-18q0 -8 -8.5 -8zM330 49q8 0 8 -9t-8 -9h-44q-8 0 -8 9t8 9h44zM330 23q8 0 8 -9t-8 -9h-61q-9 0 -9 9t9 9h61zM330 -3
q8 0 8 -9t-8 -9h-87q-9 0 -9 9t9 9h87z" />
  </g>

</svg>
