<?xml version="1.0" standalone="no"?>
<!DOCTYPE svg PUBLIC "-//W3C//DTD SVG 1.1//EN" "http://www.w3.org/Graphics/SVG/1.1/DTD/svg11.dtd" >
<svg xmlns="http://www.w3.org/2000/svg" xmlns:xlink="http://www.w3.org/1999/xlink" version="1.1" viewBox="-10 0 522 512">
  <g transform="matrix(1 0 0 -1 0 448)">
   <path fill="currentColor"
d="M256 391q-9 0 -9 10v38q0 9 9 9t9 -9v-38q0 -10 -9 -10zM484 220q9 0 9 -9.5t-9 -9.5h-38q-10 0 -10 9.5t10 9.5h38zM66 220q10 0 10 -9.5t-10 -9.5h-38q-9 0 -9 9.5t9 9.5h38zM410 379q7 6 13.5 -0.5t0.5 -13.5l-27 -27q-3 -2 -7 -2t-7 2q-6 7 0 14zM115 84
q7 6 13.5 -0.5t0.5 -13.5l-27 -27q-3 -2 -7 -2t-7 2q-6 7 0 14zM397 84l27 -27q6 -7 0 -14q-3 -2 -7 -2t-7 2l-27 27q-6 7 0.5 13.5t13.5 0.5zM115 338l-27 27q-6 7 0.5 13.5t13.5 0.5l27 -27q6 -7 0 -14q-3 -2 -7 -2t-7 2zM256 325q9 0 9 -9.5t-9 -9.5q-39 0 -67 -28
t-28 -67q0 -10 -9.5 -10t-9.5 10q0 47 33.5 80.5t80.5 33.5zM256 372q67 0 114 -47t47 -114q0 -51 -28.5 -92t-75.5 -59v-20v-66q0 -10 -10 -10h-9v-19q0 -9 -10 -9h-56q-10 0 -10 9v19h-9q-10 0 -10 10v66v20q-47 18 -75.5 59t-28.5 92q0 67 47 114t114 47zM300 76
q44 14 71 51.5t27 83.5q0 59 -41.5 100.5t-100.5 41.5t-100.5 -41.5t-41.5 -100.5q0 -46 27 -83.5t71 -51.5q6 -2 6 -9v-17h76v17q0 7 6 9z" />
  </g>

</svg>
