<?xml version="1.0" standalone="no"?>
<!DOCTYPE svg PUBLIC "-//W3C//DTD SVG 1.1//EN" "http://www.w3.org/Graphics/SVG/1.1/DTD/svg11.dtd" >
<svg xmlns="http://www.w3.org/2000/svg" xmlns:xlink="http://www.w3.org/1999/xlink" version="1.1" viewBox="-10 0 532 512">
  <g transform="matrix(1 0 0 -1 0 448)">
   <path fill="currentColor"
d="M503 261q9 -34 9 -69t-9 -69h-1q-8 -29 -23 -55q3 2 7 2q8 0 8 -9v-8q0 -9 -8.5 -9t-8.5 9v8v1v1q-2 -4 -4 -7l-1 -1q-8 -13 -18 -25v-1l-6 -6v0q-11 -12 -23 -23v0l-6 -6h-1h-1q-11 -10 -24 -18l-0.5 -0.5l-0.5 -0.5q-3 -2 -7 -4h0.5h1.5h8q9 0 9 -8.5t-9 -8.5h-8
q-9 0 -9 8q0 4 2 6q-27 -14 -55 -22v-1q-34 -9 -69 -9t-69 9v1q-29 8 -55 23q2 -3 2 -7q0 -8 -9 -8h-8q-9 0 -9 8.5t9 8.5h8h1.5h0.5q-3 2 -7 4l-1 1q-13 8 -24 18h-0.5h-1.5l-6 6v0q-12 11 -23 23v0l-6 6v1q-10 12 -18 25l-1 1q-2 3 -4 7v-0.5v-1.5v-8q0 -9 -8.5 -9t-8.5 9
v8q0 9 8 9q4 0 6 -2q-14 26 -22 55h-1q-9 34 -9 69t9 69h1q8 29 23 55q-3 -2 -7 -2q-8 0 -8 9v8q0 9 8.5 9t8.5 -9v-8v-2q2 4 4 7l1 1q8 13 18 25v1l6 6v0q11 12 23 23v0l6 6h1q12 10 25 18l0.5 0.5l0.5 0.5q3 2 7 4h-0.5h-1.5h-8q-9 0 -9 8.5t9 8.5h8q9 0 9 -8q0 -4 -2 -6
q27 14 55 22v0q34 10 69 10t69 -10v0q29 -8 55 -23q-2 3 -2 7q0 8 9 8h8q9 0 9 -8.5t-9 -8.5h-8h-1h-1q3 -2 7 -4l1 -1q13 -8 25 -18h1l6 -6v0q12 -11 23 -23v0l6 -6v-1q10 -12 18 -25l0.5 -0.5l0.5 -0.5q2 -3 4 -7v0.5v1.5v8q0 9 8.5 9t8.5 -9v-8q0 -9 -8 -9q-4 0 -6 2
q14 -26 22 -55h1zM256 430q-28 0 -56 -6l24 -98q16 3 32 3t32 -3l24 98q-28 6 -56 6zM18 192q0 -28 6 -56l98 24q-3 16 -3 32t3 32l-98 24q-6 -28 -6 -56zM256 -46q28 0 56 6l-24 98q-16 -3 -32 -3t-32 3l-24 -98q28 -6 56 -6zM256 72q50 0 85 35t35 85t-35 85t-85 35
t-85 -35t-35 -85t35 -85t85 -35zM488 136q6 28 6 56t-6 56l-98 -24q3 -16 3 -32t-3 -32zM35 398q-3 0 -6 2q-6 6 -1 13q3 4 8 7q6 6 11.5 -1t-0.5 -13q-3 -2 -5 -4q-3 -4 -7 -4zM74 413q-9 0 -9 8.5t9 8.5h8q9 0 9 -8.5t-9 -8.5h-8zM26.5 357q-8.5 0 -8.5 9v9q0 8 8.5 8
t8.5 -8v-9q0 -9 -8.5 -9zM430 413q-9 0 -9 8.5t9 8.5h8q9 0 9 -8.5t-9 -8.5h-8zM470 401q-2 3 -4 5q-7 6 -1.5 12.5t12.5 1.5q4 -3 7 -8q6 -6 -1 -12q-3 -2 -6 -2q-4 0 -7 3zM477 374q0 9 8.5 9t8.5 -9v-8q0 -9 -8.5 -9t-8.5 9v8zM485.5 27q8.5 0 8.5 -9v-9q0 -8 -8.5 -8
t-8.5 8v9q0 9 8.5 9zM438 -29q9 0 9 -8.5t-9 -8.5h-8q-9 0 -9 8.5t9 8.5h8zM470 -18q6 7 12.5 1.5t1.5 -12.5q-3 -4 -8 -7q-2 -2 -5 -2q-4 0 -7 3q-5 7 1 13q3 2 5 4zM82 -29q9 0 9 -8.5t-9 -8.5h-8q-9 0 -9 8.5t9 8.5h8zM35 10q0 -9 -8.5 -9t-8.5 9v8q0 9 8.5 9t8.5 -9v-8z
M42 -17q2 -3 4 -5q7 -6 2 -13q-3 -3 -7 -3q-3 0 -6 2q-4 3 -7 8q-6 6 1 11.5t13 -0.5z" />
  </g>

</svg>
