<?xml version="1.0" standalone="no"?>
<!DOCTYPE svg PUBLIC "-//W3C//DTD SVG 1.1//EN" "http://www.w3.org/Graphics/SVG/1.1/DTD/svg11.dtd" >
<svg xmlns="http://www.w3.org/2000/svg" xmlns:xlink="http://www.w3.org/1999/xlink" version="1.1" viewBox="-10 0 532 512">
  <g transform="matrix(1 0 0 -1 0 448)">
   <path fill="currentColor"
d="M512 192q0 -28 -16.5 -50.5t-43.5 -30.5q10 -19 10 -40q0 -35 -25 -60t-60 -25q-21 0 -40 10q-8 -27 -30.5 -43.5t-50.5 -16.5t-50.5 16.5t-30.5 43.5q-19 -10 -40 -10q-35 0 -60 25q-20 20 -24 48t9 52q-27 8 -43.5 30.5t-16.5 50.5t16.5 50.5t43.5 30.5q-13 24 -9 52
t24 48q25 25 60 25q21 0 40 -10q8 27 30.5 43.5t50.5 16.5t50.5 -16.5t30.5 -43.5q19 10 40 10q35 0 60 -25t25 -60q0 -21 -10 -40q27 -8 43.5 -30.5t16.5 -50.5zM256 431q-24 0 -42.5 -15t-23.5 -38q3 -2 6 -5l60 -60l60 60q3 3 6 5q-5 23 -23.5 38t-42.5 15zM17 192
q0 -24 15 -42.5t38 -23.5q2 3 5 6l60 60l-60 60q-3 3 -5 6q-23 -5 -38 -23.5t-15 -42.5zM256 -47q24 0 42.5 15t23.5 38q-3 2 -6 5l-60 60l-60 -60q-3 -3 -6 -5q5 -23 23.5 -38t42.5 -15zM442 126q23 5 38 23.5t15 42.5t-15 42.5t-38 23.5q-2 -3 -5 -6l-60 -60l60 -60
q3 -3 5 -6z" />
  </g>

</svg>
