<?xml version="1.0" standalone="no"?>
<!DOCTYPE svg PUBLIC "-//W3C//DTD SVG 1.1//EN" "http://www.w3.org/Graphics/SVG/1.1/DTD/svg11.dtd" >
<svg xmlns="http://www.w3.org/2000/svg" xmlns:xlink="http://www.w3.org/1999/xlink" version="1.1" viewBox="-10 0 522 512">
  <g transform="matrix(1 0 0 -1 0 448)">
   <path fill="currentColor"
d="M427 -13q10 0 17.5 -7.5t7.5 -18t-7.5 -18t-17.5 -7.5h-342q-10 0 -17.5 7.5t-7.5 18t7.5 18t17.5 7.5h43v51q0 49 24.5 90t66.5 64q-42 23 -66.5 64t-24.5 90v51h-43q-10 0 -17.5 7.5t-7.5 18t7.5 18t17.5 7.5h342q10 0 17.5 -7.5t7.5 -18t-7.5 -18t-17.5 -7.5h-43v-51
q0 -49 -24.5 -90t-66.5 -64q42 -23 66.5 -64t24.5 -90v-51h43zM145 346q0 -48 26 -87.5t70 -57.5h30q44 18 70 57.5t26 87.5v51h-222v-51zM145 38v-51q0 9 8.5 9t8.5 -9h17q0 9 8.5 9t8.5 -9h17q0 9 8.5 9t8.5 -9h17q0 9 9 9t9 -9h17q0 9 8.5 9t8.5 -9h17q0 9 8.5 9t8.5 -9
h17q0 9 8.5 9t8.5 -9v51q0 48 -26 87.5t-70 57.5h-30q-44 -18 -70 -57.5t-26 -87.5zM162 4.5q0 8.5 8.5 8.5t8.5 -8.5t-8.5 -8.5t-8.5 8.5zM196 4.5q0 8.5 8.5 8.5t8.5 -8.5t-8.5 -8.5t-8.5 8.5zM230 4.5q0 8.5 8.5 8.5t8.5 -8.5t-8.5 -8.5t-8.5 8.5zM265 4.5q0 8.5 8.5 8.5
t8.5 -8.5t-8.5 -8.5t-8.5 8.5zM299 4.5q0 8.5 8.5 8.5t8.5 -8.5t-8.5 -8.5t-8.5 8.5zM333 4.5q0 8.5 8.5 8.5t8.5 -8.5t-8.5 -8.5t-8.5 8.5zM179 21.5q0 8.5 8.5 8.5t8.5 -8.5t-8.5 -8.5t-8.5 8.5zM213 21.5q0 8.5 8.5 8.5t8.5 -8.5t-8.5 -8.5t-8.5 8.5zM247 166.5
q0 8.5 9 8.5t9 -8.5t-9 -8.5t-9 8.5zM196 260.5q0 8.5 8.5 8.5t8.5 -8.5t-8.5 -8.5t-8.5 8.5zM230 260.5q0 8.5 8.5 8.5t8.5 -8.5t-8.5 -8.5t-8.5 8.5zM265 260.5q0 8.5 8.5 8.5t8.5 -8.5t-8.5 -8.5t-8.5 8.5zM299 260.5q0 8.5 8.5 8.5t8.5 -8.5t-8.5 -8.5t-8.5 8.5z
M282 277.5q0 8.5 8.5 8.5t8.5 -8.5t-8.5 -8.5t-8.5 8.5zM299 294.5q0 8.5 8.5 8.5t8.5 -8.5t-8.5 -8.5t-8.5 8.5zM213 277.5q0 8.5 8.5 8.5t8.5 -8.5t-8.5 -8.5t-8.5 8.5zM247 277.5q0 8.5 9 8.5t9 -8.5t-9 -8.5t-9 8.5zM196 294.5q0 8.5 8.5 8.5t8.5 -8.5t-8.5 -8.5
t-8.5 8.5zM213 243.5q0 8.5 8.5 8.5t8.5 -8.5t-8.5 -8.5t-8.5 8.5zM230 226.5q0 8.5 8.5 8.5t8.5 -8.5t-8.5 -8.5t-8.5 8.5zM265 226.5q0 8.5 8.5 8.5t8.5 -8.5t-8.5 -8.5t-8.5 8.5zM247 243.5q0 8.5 9 8.5t9 -8.5t-9 -8.5t-9 8.5zM282 243.5q0 8.5 8.5 8.5t8.5 -8.5
t-8.5 -8.5t-8.5 8.5zM247 140.5q0 8.5 9 8.5t9 -8.5t-9 -8.5t-9 8.5zM247 115.5q0 8.5 9 8.5t9 -8.5t-9 -8.5t-9 8.5zM247 89.5q0 8.5 9 8.5t9 -8.5t-9 -8.5t-9 8.5zM247 64q0 9 9 9t9 -9t-9 -9t-9 9zM247 38.5q0 8.5 9 8.5t9 -8.5t-9 -8.5t-9 8.5zM282 21.5q0 8.5 8.5 8.5
t8.5 -8.5t-8.5 -8.5t-8.5 8.5zM316 21.5q0 8.5 8.5 8.5t8.5 -8.5t-8.5 -8.5t-8.5 8.5z" />
  </g>

</svg>
