<?xml version="1.0" standalone="no"?>
<!DOCTYPE svg PUBLIC "-//W3C//DTD SVG 1.1//EN" "http://www.w3.org/Graphics/SVG/1.1/DTD/svg11.dtd" >
<svg xmlns="http://www.w3.org/2000/svg" xmlns:xlink="http://www.w3.org/1999/xlink" version="1.1" viewBox="-10 0 523 512">
  <g transform="matrix(1 0 0 -1 0 448)">
   <path fill="currentColor"
d="M496 -18q7 -8 7 -19.5t-8 -18.5q-8 -8 -19 -8t-19 8l-123 128q-53 -37 -118 -37q-86 0 -146.5 60.5t-60.5 146t60.5 146t146 60.5t146 -60.5t60.5 -146.5q0 -75 -48 -133zM215.5 394q-63.5 0 -108 -45t-44.5 -108t44.5 -108t108 -45t108 45t44.5 108t-44.5 108t-108 45z
" />
  </g>

</svg>
