<?xml version="1.0" standalone="no"?>
<!DOCTYPE svg PUBLIC "-//W3C//DTD SVG 1.1//EN" "http://www.w3.org/Graphics/SVG/1.1/DTD/svg11.dtd" >
<svg xmlns="http://www.w3.org/2000/svg" xmlns:xlink="http://www.w3.org/1999/xlink" version="1.1" viewBox="-10 0 532 512">
  <g transform="matrix(1 0 0 -1 0 448)">
   <path fill="currentColor"
d="M476.5 412.5q35.5 -35.5 35.5 -85.5t-35 -86l-112 -112q-36 -35 -86 -35t-86 35q-5 6 -5 13.5t5.5 13t13 5.5t13.5 -5q24 -25 59 -25t59 25l112 112q25 24 25 59t-24.5 59.5t-59.5 24.5t-59 -25l-86 -85q-5 -6 -13 -6t-13.5 5.5t-5.5 13.5t6 13l85 86q36 35 86 35
t85.5 -35.5zM253 70q5 6 13 6t13 -5.5t5 -13.5t-5 -13l-72 -73q-36 -35 -86 -35t-85.5 35.5t-35.5 85.5t35 86l106 105q35 35 85.5 35t85.5 -35q5 -6 5 -13.5t-5 -13t-13 -5.5t-13 6q-25 24 -59.5 24t-59.5 -24l-105 -106q-25 -24 -25 -59t24.5 -59.5t59.5 -24.5t59 25z
M316.5 38q7.5 0 13 -5.5t5.5 -13.5v-55q0 -8 -5.5 -13.5t-13 -5.5t-13 5.5t-5.5 13.5v55q0 8 5.5 13.5t13 5.5zM384 51l39 -39q5 -6 5 -13.5t-5 -13t-13 -5.5t-13 5l-40 40q-5 5 -5 13t5.5 13.5t13 5.5t13.5 -6zM428 113q8 0 13.5 -5.5t5.5 -13.5t-5.5 -13.5t-13.5 -5.5h-56
q-7 0 -12.5 5.5t-5.5 13.5t5.5 13.5t12.5 5.5h56zM167.5 327q-7.5 0 -13 5.5t-5.5 12.5v56q0 8 5.5 13.5t13 5.5t13 -5.5t5.5 -13.5v-56q0 -7 -5.5 -12.5t-13 -5.5zM99 314l-40 39q-5 6 -5 13.5t5.5 13t13 5.5t12.5 -5l40 -40q5 -5 5 -13t-5 -13.5t-13 -5.5t-13 6zM56 252
q-8 0 -13.5 5.5t-5.5 13.5t5.5 13.5t13.5 5.5h55q8 0 13.5 -5.5t5.5 -13.5t-5.5 -13.5t-13.5 -5.5h-55z" />
  </g>

</svg>
