<?xml version="1.0" standalone="no"?>
<!DOCTYPE svg PUBLIC "-//W3C//DTD SVG 1.1//EN" "http://www.w3.org/Graphics/SVG/1.1/DTD/svg11.dtd" >
<svg xmlns="http://www.w3.org/2000/svg" xmlns:xlink="http://www.w3.org/1999/xlink" version="1.1" viewBox="-10 0 523 512">
  <g transform="matrix(1 0 0 -1 0 448)">
   <path fill="currentColor"
d="M85 209q-8 0 -8 8.5t8 8.5h188q9 0 9 -8.5t-9 -8.5h-188zM427 90q8 0 8 -8.5t-8 -8.5h-128q-9 0 -9 8.5t9 8.5h128zM85 141q-8 0 -8 8.5t8 8.5h86q8 0 8 -8.5t-8 -8.5h-86zM427 21q8 0 8 -8.5t-8 -8.5h-86q-8 0 -8 8.5t8 8.5h86zM247 149.5q0 8.5 9 8.5h128q9 0 9 -8.5
t-9 -8.5h-128q-9 0 -9 8.5zM219.5 143.5q-2.5 -2.5 -6 -2.5t-6 2.5t-2.5 6t2 5.5q6 6 12 0q3 -2 3 -5.5t-2.5 -6zM119 81.5q0 8.5 9 8.5h128q9 0 9 -8.5t-9 -8.5h-128q-9 0 -9 8.5zM85.5 73q-3.5 0 -6 2.5t-2.5 6t2 5.5q6 6 12 0q3 -2 3 -5.5t-2.5 -6t-6 -2.5zM426.5 141
q-3.5 0 -6 2.5t-2.5 6t3 5.5q6 6 12 0q2 -2 2 -5.5t-2.5 -6t-6 -2.5zM85 4q-8 0 -8 8.5t8 8.5h214q8 0 8 -8.5t-8 -8.5h-214zM230 448q16 0 27.5 -9.5t14.5 -24.5h-18q-6 17 -24 17q-8 0 -8 8.5t8 8.5zM282 448q15 0 26.5 -9.5t14.5 -24.5h-17q-6 17 -24 17q-9 0 -9 8.5
t9 8.5zM333 448q15 0 27 -9.5t15 -24.5h-18q-6 17 -24 17q-9 0 -9 8.5t9 8.5zM375 414h128v-120v-358h-494v358v120h119h9q3 15 15 24.5t27.5 9.5t27 -9.5t14.5 -24.5h-18q-6 17 -24 17t-24 -17h7h41q2 -5 2 -9q0 -10 -7.5 -17.5t-18.5 -7.5q-8 0 -8 -8.5t8 -8.5
q18 0 30.5 12.5t12.5 29.5q0 5 -1 9h33q2 -5 2 -9q0 -10 -7.5 -17.5t-18.5 -7.5q-8 0 -8 -8.5t8 -8.5q18 0 30.5 12.5t12.5 29.5q0 5 -1 9h34q1 -5 1 -9q0 -10 -7.5 -17.5t-17.5 -7.5q-9 0 -9 -8.5t9 -8.5q17 0 29.5 12.5t12.5 29.5q0 5 -1 9h34q1 -5 1 -9q0 -10 -7.5 -17.5
t-17.5 -7.5q-9 0 -9 -8.5t9 -8.5q17 0 29.5 12.5t12.5 29.5v9zM486 -47v324h-460v-324h460z" />
  </g>

</svg>
