<?xml version="1.0" standalone="no"?>
<!DOCTYPE svg PUBLIC "-//W3C//DTD SVG 1.1//EN" "http://www.w3.org/Graphics/SVG/1.1/DTD/svg11.dtd" >
<svg xmlns="http://www.w3.org/2000/svg" xmlns:xlink="http://www.w3.org/1999/xlink" version="1.1" viewBox="-10 0 532 512">
  <g transform="matrix(1 0 0 -1 0 448)">
   <path fill="currentColor"
d="M442 262l70 -71l-69 -69q-77 -77 -186 -77t-187 77l-70 71l69 69q77 77 186 77t187 -77zM431 135l57 56l-59 58q-72 72 -174 72t-174 -72l-57 -56l59 -58q72 -72 174 -72t174 72zM255.5 305q46.5 0 79.5 -33t33 -79.5t-33 -79.5t-79.5 -33t-79.5 33t-33 79.5t33 79.5
t79.5 33zM256 236q8 0 8 8.5t-8 8.5q-25 0 -43 -18t-18 -43q0 -8 9 -8t9 8q0 18 12.5 31t30.5 13z" />
  </g>

</svg>
