<?xml version="1.0" standalone="no"?>
<!DOCTYPE svg PUBLIC "-//W3C//DTD SVG 1.1//EN" "http://www.w3.org/Graphics/SVG/1.1/DTD/svg11.dtd" >
<svg xmlns="http://www.w3.org/2000/svg" xmlns:xlink="http://www.w3.org/1999/xlink" version="1.1" viewBox="-10 0 532 512">
  <g transform="matrix(1 0 0 -1 0 448)">
   <path fill="currentColor"
d="M491 448q9 0 15 -6t6 -15v-98h-512v98q0 9 6 15t15 6h470zM26 -26v337h460v-337q0 -16 -11 -27t-26 -11h-386q-15 0 -26 11t-11 27zM469 38q-35 0 -60 -25t-25 -60h56q12 0 20.5 8.5t8.5 20.5v56zM179 209v-13q0 -12 9 -21t21 -9h94q12 0 21 9t9 21v13q0 9 -8.5 9
t-8.5 -9v-13q0 -5 -4 -9t-9 -4h-94q-5 0 -9 4t-4 9v13q0 9 -8.5 9t-8.5 -9zM43 38v-56q0 -12 8.5 -20.5t20.5 -8.5h56q0 35 -25 60t-60 25z" />
  </g>

</svg>
