<?xml version="1.0" standalone="no"?>
<!DOCTYPE svg PUBLIC "-//W3C//DTD SVG 1.1//EN" "http://www.w3.org/Graphics/SVG/1.1/DTD/svg11.dtd" >
<svg xmlns="http://www.w3.org/2000/svg" xmlns:xlink="http://www.w3.org/1999/xlink" version="1.1" viewBox="-10 0 532 512">
  <g transform="matrix(1 0 0 -1 0 448)">
   <path fill="currentColor"
d="M256 448q106 0 181 -75t75 -181t-75 -181t-181 -75t-181 75t-75 181t75 181t181 75zM366 73q7 0 12.5 5.5t5.5 13t-5.5 13t-12.5 5.5h-220q-7 0 -12.5 -5.5t-5.5 -13t5.5 -13t12.5 -5.5h220zM366 174q7 0 12.5 5t5.5 13t-5.5 13t-12.5 5h-220q-7 0 -12.5 -5t-5.5 -13
t5.5 -13t12.5 -5h220zM366 274q7 0 12.5 5.5t5.5 13t-5.5 13t-12.5 5.5h-220q-7 0 -12.5 -5.5t-5.5 -13t5.5 -13t12.5 -5.5h220z" />
  </g>

</svg>
