<?xml version="1.0" standalone="no"?>
<!DOCTYPE svg PUBLIC "-//W3C//DTD SVG 1.1//EN" "http://www.w3.org/Graphics/SVG/1.1/DTD/svg11.dtd" >
<svg xmlns="http://www.w3.org/2000/svg" xmlns:xlink="http://www.w3.org/1999/xlink" version="1.1" viewBox="-10 0 532 512">
  <g transform="matrix(1 0 0 -1 0 448)">
   <path fill="currentColor"
d="M358.5 363q14.5 0 24.5 -10t10 -24v-274q0 -14 -10 -24t-24.5 -10t-24.5 10t-10 24v11l-99 32q1 -8 -1 -14q-7 -20 -28 -20q-4 0 -9 1l-97 32q-11 4 -16.5 14.5t-2.5 22.5q2 5 7 10l-19 6q-1 -11 -9.5 -18.5t-19.5 -7.5q-12 0 -21 8.5t-9 21.5v76q0 13 9 21.5t21 8.5
q11 0 19.5 -7.5t9.5 -18.5l265 84v11q0 14 10 24t24.5 10zM208 89q1 5 -1 9.5t-7 5.5l-97 32q-2 1 -4 1q-9 0 -11 -9q-4 -11 7 -15l98 -31q11 -4 15 7zM43 154v1v74v1q0 6 -4 9.5t-9 3.5t-9 -3.5t-4 -9.5v-76q0 -6 4 -9.5t9 -3.5t9 3.5t4 9.5zM375 55v274q0 7 -5 12t-12 5
t-12 -5t-5 -12v-6v-262v-6q0 -7 5 -12t12 -5t12 5t5 12zM427 183q-9 0 -9 9t9 9h8q9 0 9 -9t-9 -9h-8zM469 201q9 0 9 -9t-9 -9h-8q-9 0 -9 9t9 9h8zM503 201q9 0 9 -9t-9 -9h-8q-9 0 -9 9t9 9h8zM474.5 331q-3.5 0 -5.5 3q-6 6 0 12l6 6q6 6 12 0t0 -12l-6 -6
q-3 -3 -6.5 -3zM450.5 307q-3.5 0 -5.5 2q-6 6 0 12l6 6q6 7 12 0.5t0 -12.5l-6 -6q-3 -2 -6.5 -2zM426.5 283q-3.5 0 -5.5 2q-6 6 0 12l6 6q6 6 12 0t0 -12l-6 -6q-3 -2 -6.5 -2zM459 242q-6 0 -8 6q-3 8 5 11l8 3q9 2 11.5 -6t-5.5 -11l-8 -2q-2 -1 -3 -1zM432 251
q8 3 11 -5.5t-6 -10.5l-8 -3h-2q-6 0 -8 5q-3 8 5 11zM483 259q-2 8 6 11l8 2q8 3 10.5 -5t-5.5 -11l-8 -2q-1 -1 -3 -1q-6 0 -8 6zM433 99l6 -6q6 -6 0 -12q-3 -3 -6.5 -3t-5.5 3l-6 6q-6 6 0 12t12 0zM457 75l6 -6q6 -6 0 -12q-3 -3 -6.5 -3t-5.5 3l-6 6q-6 6 0 12t12 0z
M481 50l6 -6q6 -6 0 -12q-2 -2 -6 -2t-6 2l-6 6q-6 6 0 12t12 0zM437 149q9 -2 6 -10q-2 -6 -8 -6h-3l-8 3q-8 3 -5.5 11t10.5 5zM456 125q-8 3 -5 11t11 5l8 -2q8 -3 5 -11q-2 -6 -8 -6h-3zM502 128q8 -3 6 -11q-2 -6 -8 -6q-2 0 -3 1l-8 2q-8 3 -5.5 11t10.5 5z" />
  </g>

</svg>
