<?xml version="1.0" standalone="no"?>
<!DOCTYPE svg PUBLIC "-//W3C//DTD SVG 1.1//EN" "http://www.w3.org/Graphics/SVG/1.1/DTD/svg11.dtd" >
<svg xmlns="http://www.w3.org/2000/svg" xmlns:xlink="http://www.w3.org/1999/xlink" version="1.1" viewBox="-10 0 532 512">
  <g transform="matrix(1 0 0 -1 0 448)">
   <path fill="currentColor"
d="M69 354v-119h-34v198q0 6 4 10.5t11 4.5h117q9 0 13 -7l21 -36h262q6 0 10.5 -4.5t4.5 -10.5v-155h-34v119h-375zM86 235v34h341v-34h-341zM94 277v26h325v-26h-325zM103 311v26h307v-26h-307zM384 98v-85h-145v85h145zM333 81q-8 0 -8 -8.5t8 -8.5h9q8 0 8 8.5t-8 8.5
h-9zM265 81q-9 0 -9 -8.5t9 -8.5h34q9 0 9 8.5t-9 8.5h-34zM359 30q8 0 8 8.5t-8 8.5h-94q-9 0 -9 -8.5t9 -8.5h94zM509 214q3 -4 2 -9l-41 -260q-2 -9 -11 -9h-406q-9 0 -11 9l-41 260q-1 5 2 9t8 4h490q5 0 8 -4zM401 -4v119h-179v-119h179z" />
  </g>

</svg>
