<?xml version="1.0" standalone="no"?>
<!DOCTYPE svg PUBLIC "-//W3C//DTD SVG 1.1//EN" "http://www.w3.org/Graphics/SVG/1.1/DTD/svg11.dtd" >
<svg xmlns="http://www.w3.org/2000/svg" xmlns:xlink="http://www.w3.org/1999/xlink" version="1.1" viewBox="-10 0 522 512">
  <g transform="matrix(1 0 0 -1 0 448)">
   <path fill="currentColor"
d="M353 260q37 -24 58.5 -63t21.5 -84q0 -73 -52 -125t-125 -52t-125 52t-52 125q0 45 21.5 84t58.5 63v98q0 37 28.5 63.5t68.5 26.5t68.5 -26.5t28.5 -63.5v-98zM177 270l5 2q5 3 10 5q3 1 7 3q5 1 7 2q5 1 12 3q3 0 5 1l14 2h1.5h1.5q9 1 16 1t16 -1h1.5h1.5l14 -2
q3 -1 5 -1q7 -2 12 -3q2 -1 7 -2q3 -2 7 -3q5 -2 10 -5l5 -2v88q0 30 -23 51t-56 21t-56 -21t-23 -51v-88zM291 95v53q0 14 -10 24.5t-25 10.5t-25 -10.5t-10 -24.5v-53q0 -15 10 -25t25 -10t25 10t10 25z" />
  </g>

</svg>
