<?xml version="1.0" standalone="no"?>
<!DOCTYPE svg PUBLIC "-//W3C//DTD SVG 1.1//EN" "http://www.w3.org/Graphics/SVG/1.1/DTD/svg11.dtd" >
<svg xmlns="http://www.w3.org/2000/svg" xmlns:xlink="http://www.w3.org/1999/xlink" version="1.1" viewBox="-10 0 532 512">
  <g transform="matrix(1 0 0 -1 0 448)">
   <path fill="currentColor"
d="M476 380q15 0 25.5 -10.5t10.5 -25.5v-304q0 -15 -10.5 -25.5t-25.5 -10.5h-440q-15 0 -25.5 10.5t-10.5 25.5v304q0 15 10.5 25.5t25.5 10.5h440zM495 40v304q0 8 -5.5 13.5t-13.5 5.5h-440q-8 0 -13.5 -5.5t-5.5 -13.5v-304q0 -8 5.5 -13.5t13.5 -5.5h440q8 0 13.5 5.5
t5.5 13.5zM193 139q20 -10 20 -33v-11q0 -3 -0.5 -5t-5 -5.5t-12.5 -6t-25.5 -4t-41.5 -1.5t-41.5 1.5t-25.5 4t-12.5 6t-5 5.5t-0.5 5v12q0 21 19 32l32 16v3q-21 11 -29 37q-14 7 -14 23v8q0 12 10 20q2 12 6 23q1 2 3 7t1 13q-1 6 -2 11t2.5 8.5t8 3t7.5 -3.5q3 -4 8 -7
q11 -8 28 -6h5q59 0 67 -49q10 -8 10 -20v-8q0 -16 -14 -23q-8 -26 -29 -37v-3zM256 252q-9 0 -9 8.5t9 8.5h85q9 0 9 -8.5t-9 -8.5h-85zM375 252q-8 0 -8 8.5t8 8.5h9q9 0 9 -8.5t-9 -8.5h-9zM265 124q8 0 8 -8.5t-8 -8.5h-9q-9 0 -9 8.5t9 8.5h9zM316 124q8 0 8 -8.5
t-8 -8.5h-17q-9 0 -9 8.5t9 8.5h17zM358 124q9 0 9 -8.5t-9 -8.5h-8q-9 0 -9 8.5t9 8.5h8zM410 124q8 0 8 -8.5t-8 -8.5h-17q-9 0 -9 8.5t9 8.5h17zM438 121q6 6 12 0q2 -2 2 -5.5t-2.5 -6t-6 -2.5t-6 2.5t-2.5 6t3 5.5zM444 218q8 0 8 -8.5t-8 -8.5h-188q-9 0 -9 8.5t9 8.5
h188zM444 166q8 0 8 -8.5t-8 -8.5h-188q-9 0 -9 8.5t9 8.5h188z" />
  </g>

</svg>
