<?xml version="1.0" standalone="no"?>
<!DOCTYPE svg PUBLIC "-//W3C//DTD SVG 1.1//EN" "http://www.w3.org/Graphics/SVG/1.1/DTD/svg11.dtd" >
<svg xmlns="http://www.w3.org/2000/svg" xmlns:xlink="http://www.w3.org/1999/xlink" version="1.1" viewBox="-10 0 522 512">
  <g transform="matrix(1 0 0 -1 0 448)">
   <path fill="currentColor"
d="M393 337l-86 85h-230v-418h-26v444h342v-111zM458 -49q6 -6 0 -13q-2 -2 -5.5 -2t-6.5 2l-104 105q-28 -24 -65 -24q-42 0 -71.5 29.5t-29.5 71.5t29.5 71.5t71.5 29.5t71.5 -29.5t29.5 -71.5q0 -37 -24 -65zM193 120q0 -35 24.5 -59.5t59.5 -24.5t59.5 24.5t24.5 59.5
t-24.5 59.5t-59.5 24.5t-59.5 -24.5t-24.5 -59.5zM324 107q9 0 9 -8.5t-9 -8.5h-94q-8 0 -8 8.5t8 8.5h94zM230 141q-8 0 -8 8.5t8 8.5h52q8 0 8 -8.5t-8 -8.5h-52zM277 2q34 0 63 18l59 -58h-305v443h208l133 -133v-274l-59 59q19 29 19 63q0 49 -34.5 83.5t-83.5 34.5
t-83.5 -34.5t-34.5 -83.5t34.5 -83.5t83.5 -34.5zM290 386v-126h126l0.5 1t-0.5 1l-124 125q-1 0 -1.5 -0.5z" />
  </g>

</svg>
