<?xml version="1.0" standalone="no"?>
<!DOCTYPE svg PUBLIC "-//W3C//DTD SVG 1.1//EN" "http://www.w3.org/Graphics/SVG/1.1/DTD/svg11.dtd" >
<svg xmlns="http://www.w3.org/2000/svg" xmlns:xlink="http://www.w3.org/1999/xlink" version="1.1" viewBox="-10 0 532 512">
  <g transform="matrix(1 0 0 -1 0 448)">
   <path fill="currentColor"
d="M256 277q35 0 60 -25t25 -60t-25 -60t-60 -25t-60 25t-25 60t25 60t60 25zM486 249q11 0 18.5 -8t7.5 -18v-62q0 -10 -7.5 -18t-18.5 -8h-19q-8 -27 -22 -52l14 -13q7 -8 7 -19t-7 -18l-44 -44q-7 -7 -18 -7t-19 7l-13 14q-25 -14 -52 -22v-19q0 -11 -8 -18.5t-18 -7.5
h-62q-10 0 -18 7.5t-8 18.5v19q-27 8 -52 22l-13 -14q-8 -7 -19 -7t-18 7l-44 44q-7 7 -7 18t7 19l14 13q-14 25 -22 52h-19q-11 0 -18.5 8t-7.5 18v62q0 10 7.5 18t18.5 8h19q8 27 22 52l-14 13q-7 8 -7 19t7 18l44 44q7 7 18 7t19 -7l13 -14q25 14 52 22v19q0 11 8 18.5
t18 7.5h62q10 0 18 -7.5t8 -18.5v-19q27 -8 52 -22l13 14q8 7 19 7t18 -7l44 -44q7 -7 7 -18t-7 -19l-14 -13q14 -25 22 -52h19zM370 192q0 47 -33.5 80.5t-80.5 33.5t-80.5 -33.5t-33.5 -80.5t33.5 -80.5t80.5 -33.5t80.5 33.5t33.5 80.5z" />
  </g>

</svg>
