<?xml version="1.0" standalone="no"?>
<!DOCTYPE svg PUBLIC "-//W3C//DTD SVG 1.1//EN" "http://www.w3.org/Graphics/SVG/1.1/DTD/svg11.dtd" >
<svg xmlns="http://www.w3.org/2000/svg" xmlns:xlink="http://www.w3.org/1999/xlink" version="1.1" viewBox="-10 0 527 512">
  <g transform="matrix(1 0 0 -1 0 448)">
   <path fill="currentColor"
d="M441 261l66 -66l-68 -68q-76 -76 -184 -76t-184 76l-66 66l68 68q76 76 184 76t184 -76zM427 139l56 56l-54 54q-71 71 -172 71t-172 -71l-56 -56l54 -54q71 -71 172 -71t172 71zM253 303q45 0 77.5 -32t32.5 -77t-32.5 -77t-77.5 -32t-77 32t-32 77t32 77t77 32z
M220.5 397q-3.5 0 -5.5 2q-6 6 0 12l34 35q1 1 3 1q3 2 6 0q2 0 3 -1l34 -35q6 -6 0 -12q-3 -2 -6.5 -2t-5.5 2l-20 20v-65q0 -8 -8.5 -8t-8.5 8v65l-19 -20q-3 -2 -6.5 -2zM283 -15q6 6 12 0t0 -12l-34 -35q-1 -1 -3 -1.5t-3.5 -0.5t-3 0.5t-2.5 1.5l-34 35q-6 6 0 12t12 0
l19 -20v65q0 8 8.5 8t8.5 -8v-65z" />
  </g>

</svg>
