<?xml version="1.0" standalone="no"?>
<!DOCTYPE svg PUBLIC "-//W3C//DTD SVG 1.1//EN" "http://www.w3.org/Graphics/SVG/1.1/DTD/svg11.dtd" >
<svg xmlns="http://www.w3.org/2000/svg" xmlns:xlink="http://www.w3.org/1999/xlink" version="1.1" viewBox="-10 0 532 512">
  <g transform="matrix(1 0 0 -1 0 448)">
   <path fill="currentColor"
d="M476 380q15 0 25.5 -10.5t10.5 -25.5v-7v-85v-212q0 -15 -10.5 -25.5t-25.5 -10.5h-440q-15 0 -25.5 10.5t-10.5 25.5v212v85v7q0 15 10.5 25.5t25.5 10.5h440zM495 40v212h-478v-212q0 -8 5.5 -13.5t13.5 -5.5h440q8 0 13.5 5.5t5.5 13.5zM17 337h478v7q0 8 -5.5 13.5
t-13.5 5.5h-440q-8 0 -13.5 -5.5t-5.5 -13.5v-7zM432 47h-113h-37v188h187v-188h-37zM299 218v-154h17q0 16 14 24l19 9q-13 8 -18 24q-10 6 -10 17v6q0 8 7 14q1 8 4 15q1 2 2 5l1 2v5l-2 8q0 4 3 7t7.5 3t7.5 -3q1 -2 4 -4q7 -5 17 -4h3q41 0 48 -33q7 -6 7 -15v-6
q0 -11 -10 -17q-5 -16 -18 -24l18 -9q15 -7 15 -24h17v154h-153zM51 201q-8 0 -8 8.5t8 8.5h77q9 0 9 -8.5t-9 -8.5h-77zM162 201q-8 0 -8 8.5t8 8.5h77q8 0 8 -8.5t-8 -8.5h-77zM51 158q-8 0 -8 8.5t8 8.5h9q8 0 8 -8.5t-8 -8.5h-9zM111 158h-17q-9 0 -9 8.5t9 8.5h17
q8 0 8 -8.5t-8 -8.5zM145 158q-8 0 -8 8.5t8 8.5h9q8 0 8 -8.5t-8 -8.5h-9zM205 158h-17q-9 0 -9 8.5t9 8.5h17q8 0 8 -8.5t-8 -8.5zM233 172q6 7 12 0q2 -2 2 -5.5t-2.5 -6t-6 -2.5t-6 2.5t-2.5 6t3 5.5zM99 129q5 2 9 -0.5t4 -7t-4 -7.5q-19 -10 -20 -50q0 -6 -5 -8t-10 2
q-8 7 -24 20q-3 3 -1.5 7.5t5.5 6t9 -1.5q9 -8 10 -9q4 36 27 48zM215 103q7 0 14 -9q3 -4 0.5 -8t-7 -4.5t-8.5 3.5q-1 1 -8.5 -1.5t-16.5 -5t-12 -0.5q-9 3 -14 9q-35 -19 -55 2q-4 4 -2 8.5t6 5.5t8 -2q6 -6 14 -6t12.5 2.5t14.5 7.5q7 5 11 -3q7 -7 12.5 -6.5t16 4.5
t14.5 3z" />
  </g>

</svg>
