<?xml version="1.0" standalone="no"?>
<!DOCTYPE svg PUBLIC "-//W3C//DTD SVG 1.1//EN" "http://www.w3.org/Graphics/SVG/1.1/DTD/svg11.dtd" >
<svg xmlns="http://www.w3.org/2000/svg" xmlns:xlink="http://www.w3.org/1999/xlink" version="1.1" viewBox="-10 0 522 512">
  <g transform="matrix(1 0 0 -1 0 448)">
   <path fill="currentColor"
d="M418 269h-165v-17h176q12 0 20.5 -8.5t8.5 -20.5v-96q0 -12 -8.5 -20.5t-20.5 -8.5h-176v-153q0 -9 -8.5 -9t-8.5 9v153h-142l-76 69q-4 3 -4 8t4 8l76 69h142v17h-150q-12 0 -20.5 8.5t-8.5 20.5v95q0 12 8.5 20.5t20.5 8.5h150v17q0 9 8.5 9t8.5 -9v-17h165l76 -69
q4 -3 4 -7.5t-4 -7.5z" />
  </g>

</svg>
