<?xml version="1.0" standalone="no"?>
<!DOCTYPE svg PUBLIC "-//W3C//DTD SVG 1.1//EN" "http://www.w3.org/Graphics/SVG/1.1/DTD/svg11.dtd" >
<svg xmlns="http://www.w3.org/2000/svg" xmlns:xlink="http://www.w3.org/1999/xlink" version="1.1" viewBox="-10 0 523 512">
  <g transform="matrix(1 0 0 -1 0 448)">
   <path fill="currentColor"
d="M500 -48q6 -7 0 -13q-3 -3 -7 -3t-7 3l-144 150q-56 -47 -130 -47q-83 0 -142.5 59.5t-59.5 143.5t59.5 143.5t143 59.5t143 -59.5t59.5 -143.5t-59 -143zM280 226q8 0 14 5.5t6 13.5t-6 13.5t-14 5.5h-135q-8 0 -13.5 -5.5t-5.5 -13.5t5.5 -13.5t13.5 -5.5h135z" />
  </g>

</svg>
