<?xml version="1.0" standalone="no"?>
<!DOCTYPE svg PUBLIC "-//W3C//DTD SVG 1.1//EN" "http://www.w3.org/Graphics/SVG/1.1/DTD/svg11.dtd" >
<svg xmlns="http://www.w3.org/2000/svg" xmlns:xlink="http://www.w3.org/1999/xlink" version="1.1" viewBox="-10 0 522 512">
  <g transform="matrix(1 0 0 -1 0 448)">
   <path fill="currentColor"
d="M333 286q11 0 19 -8t8 -19v-49q0 -11 -8 -19t-19 -8h-75v-162h42v-34h26v-51h-154v51h26v34h43v162h-123l-52 52l52 51h215zM283 -13v17h-68v-17h68zM403 354l43 -43l-43 -42h-34v16q0 7 -5.5 12.5t-13.5 5.5h-178v33q0 7 5.5 12.5t13.5 5.5h50v10q-15 3 -24.5 14.5
t-9.5 26.5q0 18 12.5 30.5t30 12.5t30 -12.5t12.5 -30.5q0 -15 -10 -26.5t-24 -14.5v-10h145zM224 405.5q0 -10.5 7.5 -18t18 -7.5t18 7.5t7.5 18t-7.5 18t-18 7.5t-18 -7.5t-7.5 -18z" />
  </g>

</svg>
