<?xml version="1.0" standalone="no"?>
<!DOCTYPE svg PUBLIC "-//W3C//DTD SVG 1.1//EN" "http://www.w3.org/Graphics/SVG/1.1/DTD/svg11.dtd" >
<svg xmlns="http://www.w3.org/2000/svg" xmlns:xlink="http://www.w3.org/1999/xlink" version="1.1" viewBox="-10 0 522 512">
  <g transform="matrix(1 0 0 -1 0 448)">
   <path fill="currentColor"
d="M386 196q9 0 9 -8v-52q0 -55 -38 -95t-92 -44v-44h43q9 0 9 -8.5t-9 -8.5h-104q-9 0 -9 8.5t9 8.5h43v44q-54 4 -92 44t-38 95v52q0 8 9 8t9 -8v-52q0 -51 35.5 -86.5t85.5 -35.5t85.5 35.5t35.5 86.5v52q0 8 9 8zM256 31q-43 0 -73.5 31t-30.5 74v208q0 43 30.5 73.5
t73.5 30.5t73.5 -30.5t30.5 -73.5v-208q0 -43 -30.5 -74t-73.5 -31q9 0 9 9t-9 9t-9 -9t9 -9zM334 387q-9 0 -9 -8.5t9 -8.5t9 8.5t-9 8.5zM334 335q-9 0 -9 -8.5t9 -8.5t9 8.5t-9 8.5zM334 283q-9 0 -9 -8.5t9 -8.5t9 8.5t-9 8.5zM334 231q-9 0 -9 -8.5t9 -8.5t9 8.5
t-9 8.5zM334 179q-9 0 -9 -8.5t9 -8.5t9 8.5t-9 8.5zM334 127q-9 0 -9 -8.5t9 -8.5t9 8.5t-9 8.5zM308 413q-9 0 -9 -8.5t9 -8.5t9 8.5t-9 8.5zM308 361q-9 0 -9 -8.5t9 -8.5t9 8.5t-9 8.5zM308 309q-9 0 -9 -8.5t9 -8.5t9 8.5t-9 8.5zM308 257q-9 0 -9 -8.5t9 -8.5t9 8.5
t-9 8.5zM308 205q-9 0 -9 -8.5t9 -8.5t9 8.5t-9 8.5zM308 153q-9 0 -9 -8.5t9 -8.5t9 8.5t-9 8.5zM308 101q-9 0 -9 -8.5t9 -8.5t9 8.5t-9 8.5zM282 439q-9 0 -9 -8.5t9 -8.5t9 8.5t-9 8.5zM282 387q-9 0 -9 -8.5t9 -8.5t9 8.5t-9 8.5zM282 335q-9 0 -9 -8.5t9 -8.5t9 8.5
t-9 8.5zM282 283q-9 0 -9 -8.5t9 -8.5t9 8.5t-9 8.5zM282 231q-9 0 -9 -8.5t9 -8.5t9 8.5t-9 8.5zM282 179q-9 0 -9 -8.5t9 -8.5t9 8.5t-9 8.5zM282 127q-9 0 -9 -8.5t9 -8.5t9 8.5t-9 8.5zM282 75q-9 0 -9 -9t9 -9t9 9t-9 9zM256 413q-9 0 -9 -8.5t9 -8.5t9 8.5t-9 8.5z
M256 361q-9 0 -9 -8.5t9 -8.5t9 8.5t-9 8.5zM256 309q-9 0 -9 -8.5t9 -8.5t9 8.5t-9 8.5zM256 257q-9 0 -9 -8.5t9 -8.5t9 8.5t-9 8.5zM256 205q-9 0 -9 -8.5t9 -8.5t9 8.5t-9 8.5zM256 153q-9 0 -9 -8.5t9 -8.5t9 8.5t-9 8.5zM256 101q-9 0 -9 -8.5t9 -8.5t9 8.5t-9 8.5z
M230 439q-9 0 -9 -8.5t9 -8.5t9 8.5t-9 8.5zM230 387q-9 0 -9 -8.5t9 -8.5t9 8.5t-9 8.5zM230 335q-9 0 -9 -8.5t9 -8.5t9 8.5t-9 8.5zM230 283q-9 0 -9 -8.5t9 -8.5t9 8.5t-9 8.5zM230 231q-9 0 -9 -8.5t9 -8.5t9 8.5t-9 8.5zM230 179q-9 0 -9 -8.5t9 -8.5t9 8.5t-9 8.5z
M230 127q-9 0 -9 -8.5t9 -8.5t9 8.5t-9 8.5zM230 75q-9 0 -9 -9t9 -9t9 9t-9 9zM204 413q-9 0 -9 -8.5t9 -8.5t9 8.5t-9 8.5zM204 361q-9 0 -9 -8.5t9 -8.5t9 8.5t-9 8.5zM204 309q-9 0 -9 -8.5t9 -8.5t9 8.5t-9 8.5zM204 257q-9 0 -9 -8.5t9 -8.5t9 8.5t-9 8.5zM204 205
q-9 0 -9 -8.5t9 -8.5t9 8.5t-9 8.5zM204 153q-9 0 -9 -8.5t9 -8.5t9 8.5t-9 8.5zM204 101q-9 0 -9 -8.5t9 -8.5t9 8.5t-9 8.5zM178 387q-9 0 -9 -8.5t9 -8.5t9 8.5t-9 8.5zM178 335q-9 0 -9 -8.5t9 -8.5t9 8.5t-9 8.5zM178 283q-9 0 -9 -8.5t9 -8.5t9 8.5t-9 8.5zM178 231
q-9 0 -9 -8.5t9 -8.5t9 8.5t-9 8.5zM178 179q-9 0 -9 -8.5t9 -8.5t9 8.5t-9 8.5zM169 118.5q0 -8.5 9 -8.5t9 8.5t-9 8.5t-9 -8.5z" />
  </g>

</svg>
