<?xml version="1.0" standalone="no"?>
<!DOCTYPE svg PUBLIC "-//W3C//DTD SVG 1.1//EN" "http://www.w3.org/Graphics/SVG/1.1/DTD/svg11.dtd" >
<svg xmlns="http://www.w3.org/2000/svg" xmlns:xlink="http://www.w3.org/1999/xlink" version="1.1" viewBox="-10 0 532 512">
  <g transform="matrix(1 0 0 -1 0 448)">
   <path fill="currentColor"
d="M162 64q-14 0 -24 10t-10 24t10 24t24 10t24 -10t10 -24t-10 -24t-24 -10zM162 115q-7 0 -12 -5t-5 -12t5 -12t12 -5t12 5t5 12t-5 12t-12 5zM375.5 346q14.5 0 24.5 -10t10 -24.5t-10 -24.5t-24.5 -10t-24.5 10t-10 24.5t10 24.5t24.5 10zM375.5 294q7.5 0 12.5 5
t5 12.5t-5 12.5t-12.5 5t-12.5 -5t-5 -12.5t5 -12.5t12.5 -5zM162 30q-28 0 -48 20t-20 48t20 48t48 20t48 -20t20 -48t-20 -48t-48 -20zM162 149q-21 0 -36 -15t-15 -36t15 -36t36 -15t36 15t15 36t-15 36t-36 15zM303 239zM303 384zM448 239h-1h1zM492 291q20 -47 20 -99
q0 -22 -4 -45v-1q-1 -6 -3 -13v-1q-4 -15 -9 -30q-1 -2 -3 -7l-0.5 -1t-0.5 -2q-17 -39 -45 -71h-1q-5 -6 -12 -13q-1 0 -1 -1q-4 -4 -9 -8l-2 -2l-8 -6q-3 -2 -3 -3q-3 -2 -7 -5q-1 0 -2.5 -1.5t-2.5 -1.5q-5 -4 -10 -7q-1 0 -6 -3t-6 -4q-1 0 -1.5 -0.5l-0.5 -0.5h-1
q-55 -29 -118 -29q-38 0 -73 11h-1h-1q-7 2 -13 5q-1 0 -3 1l-2 1q-6 2 -8 3q-3 1 -8 3q-2 2 -3 2q-79 39 -118 117q0 1 -2 4q-2 5 -3 8t-3 8q-1 0 -1.5 2t-0.5 3q-3 6 -5 13v1v0q-11 36 -11 74q0 92 59 163v1q17 20 39 37v0q5 4 10 7v1q1 1 5 3v1q5 2 9 5l2 2q4 2 4.5 2
t3.5 2q2 1 3 2q3 1 4 2h0.5h1.5v1h1q4 2 5 2q1 1 5 3q5 2 6 2q0 1 1.5 1.5l1.5 0.5q20 8 40 12v0q5 1 11 2v0q22 4 44 4q52 0 99 -20h1q35 -15 65 -40q17 -15 31 -32q25 -29 40 -64v-1zM247 320q-8 0 -8 -8.5t8 -8.5h26q3 -33 24 -58l-18 -18q-6 -6 0 -12q2 -3 5.5 -3t6.5 3
l18 18q25 -21 58 -23v-27q0 -8 8.5 -8t8.5 8v26q32 3 57 24l19 -18q2 -3 6 -3t6 3q6 6 0 12l-18 18q15 19 21 42q-11 25 -27 47l-1 1q-2 2 -5 7l-1 1t-1 1.5t-4 4.5l-1.5 1.5t-1.5 2.5q-1 0 -1.5 0.5l-0.5 0.5q-6 7 -12 13q-1 0 -1.5 0.5t-0.5 1.5q-1 0 -2.5 1.5l-1.5 1.5
q-4 3 -5 4l-1 1l-1 1q-4 3 -7 5l-0.5 0.5l-0.5 0.5q-22 16 -47 27q-23 -6 -42 -21l-18 18q-6 6 -12 0t0 -12l18 -19q-21 -25 -24 -57h-26zM111 382v-2q0 -11 7.5 -18.5t18 -7.5t18 7.5t7.5 18.5q0 18 -17 24q-1 -1 -2.5 -2t-2.5 -1q-7 -4 -11 -6v-1q-1 -1 -4 -2l-1 -1
q-7 -5 -11 -8l-1 -0.5zM71 320l-3 -5l7 -6l4 3q9 7 20 7q13 0 22 -8t12 -20l1 -5h9v2q2 12 11.5 20t22.5 8q11 0 20 -6l1 -1l7 6l-3 5q-11 15 -3.5 32.5t26.5 19.5l5 1v10l-5 1q-18 3 -25 20q-4 10 -2 20q-8 -2 -17 -5l-1 -1q-9 -2 -16 -6q15 -12 15 -32q0 -18 -12.5 -30.5
t-29.5 -12.5q-15 0 -26.5 9t-15.5 23q-2 -3 -3 -3q-4 -4 -7 -8q-4 -3 -7 -7l-1 -1t-1 -2q4 -15 -5 -28zM324 26q3 8 -5 12l-29 13q9 23 9 47q0 21 -7 41l27 11q8 3 5 11t-11 5l-27 -11q-20 43 -62 64q4 7 5 8l9 21q4 8 -4 11.5t-11 -4.5l-10 -21q-1 -4 -3 -8q-24 9 -48 9
q-21 0 -41 -7l-11 27q-3 8 -11 5t-5 -11l11 -27q-35 -16 -56 -48l-21 12q-7 4 -11.5 -3t3.5 -12l20 -12q-9 -18 -12 -38q1 -5 4 -12q1 -2 2 -6q2 -3 3 -6q2 -4 3 -7q1 -1 1 -3q37 -73 110 -110l1 -0.5t2 -0.5q3 -2 7 -3q3 -1 6 -3q5 -2 6 -2q7 -3 12 -4q18 3 35 11l10 -17
q3 -4 7 -4q3 0 5 2q7 4 2 12l-9 15q31 19 48 52l29 -13q2 -1 4 -1q5 0 8 5zM473 91q0 2 3 7h-2q-16 0 -27.5 -11t-11.5 -27q0 -11 5 -20q19 24 32 50q0 1 1 1zM482 115q5 15 8 30q-8 9 -9 21l-2 9h-15l-2 -13q-3 -14 -14.5 -23.5t-25.5 -9.5q-12 0 -22 7l-11 8l-11 -11l5 -7
q13 -18 5 -38.5t-30 -25.5l-8 -1v-15l9 -2q22 -3 31 -23q5 -13 2 -25l4 2l4 4q1 0 4 3q4 3 5 4l3 2l6 6q1 0 1 1q5 4 10 9q-11 15 -11 33q0 23 16.5 39t39.5 16h8zM289 147v1v-1z" />
  </g>

</svg>
