<?xml version="1.0" standalone="no"?>
<!DOCTYPE svg PUBLIC "-//W3C//DTD SVG 1.1//EN" "http://www.w3.org/Graphics/SVG/1.1/DTD/svg11.dtd" >
<svg xmlns="http://www.w3.org/2000/svg" xmlns:xlink="http://www.w3.org/1999/xlink" version="1.1" viewBox="-11 0 533 512">
  <g transform="matrix(1 0 0 -1 0 448)">
   <path fill="currentColor"
d="M443 367q70 -75 68.5 -179t-74.5 -177q-75 -75 -181 -75t-181 75q-66 66 -74 159.5t46 168.5q-12 13 -11.5 30.5t12.5 30.5q13 13 31 13q17 0 30 -12q66 47 147 47q101 0 175 -69l22 22q6 7 12 0.5t0 -12.5zM424 23q68 68 70 164.5t-63 166.5l-32 -31q28 -30 41 -68
q17 -1 28 -13q13 -13 13 -31.5t-13 -30.5q-8 -9 -20 -12q-8 -66 -55 -113q-57 -57 -137.5 -57t-137 56.5t-56.5 137.5t56.5 137.5t137.5 56.5q75 0 131 -51l31 32q-68 63 -162 63q-76 0 -137 -43q1 -2 2 -5q1 -1 1 -2q1 -3 1 -5v-1.5v-0.5q1 -8 -1 -16q-1 -2 -1 -3l-2 -4
l-2 -4l-1 -2q-3 -4 -5 -7q-13 -13 -32 -13l-0.5 0.5t-1.5 0.5h-4q-3 0 -7 2h-1q-3 1 -4 2q-50 -71 -42.5 -157.5t68.5 -148.5q70 -69 169 -69t168 69zM422 252q-12 32 -35 58l-125 -124q-2 -3 -6 -3t-6 3q-7 6 0 12l124 125q-50 45 -118 45q-73 0 -125 -51.5t-52 -124.5
t52 -124.5t125 -51.5t125 51q41 42 50 100h-1q-2 1 -5 1q-1 1 -3 1q-2 1 -3.5 1.5t-4 2l-2.5 1.5q-4 3 -6 6l-6 6v1l-1 1q-2 3 -3 6q-3 8 -3 16.5t3 16.5q1 3 3 7q1 0 1 0.5v0.5q3 4 6 7t7 6h0.5t0.5 1q4 2 8 3zM275 173l85 86q19 -31 19 -67q0 -51 -36 -87.5t-87 -36.5
t-87.5 36.5t-36.5 87.5t36.5 87.5t87.5 36.5q36 0 67 -20l-86 -85q-8 -8 -8 -19t8 -18.5t19 -7.5t19 7z" />
  </g>

</svg>
