<?xml version="1.0" standalone="no"?>
<!DOCTYPE svg PUBLIC "-//W3C//DTD SVG 1.1//EN" "http://www.w3.org/Graphics/SVG/1.1/DTD/svg11.dtd" >
<svg xmlns="http://www.w3.org/2000/svg" xmlns:xlink="http://www.w3.org/1999/xlink" version="1.1" viewBox="-11 0 534 512">
  <g transform="matrix(1 0 0 -1 0 448)">
   <path fill="currentColor"
d="M509.5 222.5q3.5 -3.5 2.5 -8.5l-42 -261q-2 -9 -11 -9h-406q-9 0 -11 9l-42 261q-1 5 2.5 8.5t8.5 3.5h490q5 0 8.5 -3.5zM68 320v-77h-34v182q0 6 4.5 10.5t10.5 4.5h118q9 0 13 -8l21 -35h262q7 0 11.5 -4.5t4.5 -10.5v-139h-35v77h-376z" />
  </g>

</svg>
