<?xml version="1.0" standalone="no"?>
<!DOCTYPE svg PUBLIC "-//W3C//DTD SVG 1.1//EN" "http://www.w3.org/Graphics/SVG/1.1/DTD/svg11.dtd" >
<svg xmlns="http://www.w3.org/2000/svg" xmlns:xlink="http://www.w3.org/1999/xlink" version="1.1" viewBox="-10 0 522 512">
  <g transform="matrix(1 0 0 -1 0 448)">
   <path fill="currentColor"
d="M111 448h337v-77v-17v-418h-341q-18 0 -30.5 12.5t-12.5 30.5v418q-2 20 12 35q14 16 35 16zM81 -21q0 -11 7.5 -18.5t18.5 -7.5v401q-15 0 -26 9v-384zM431 -47v401h-162v-215v-3h-1v-2q-1 -1 -1.5 -2t-1.5 -2v0q-2 -2 -4 -3q-3 -1 -5 -1q-4 0 -7 3q-3 1 -4 3l-36 60
l-36 -59q-1 -2 -2 -3q-3 -4 -9 -4q-5 0 -8 4h-1q-1 1 -1.5 2t-0.5 2h-1v2q-1 2 -1 3v215h-25v-401h307zM274 371h157v9h-34q-9 0 -9 8.5t9 8.5h34v8h-43q-8 0 -8 8.5t8 8.5h43v9h-320q-13 0 -22 -10t-8 -23q1 -11 10.5 -19t21.5 -8h40l17 34h121z" />
  </g>

</svg>
