<?xml version="1.0" standalone="no"?>
<!DOCTYPE svg PUBLIC "-//W3C//DTD SVG 1.1//EN" "http://www.w3.org/Graphics/SVG/1.1/DTD/svg11.dtd" >
<svg xmlns="http://www.w3.org/2000/svg" xmlns:xlink="http://www.w3.org/1999/xlink" version="1.1" viewBox="-10 0 532 512">
  <g transform="matrix(1 0 0 -1 0 448)">
   <path fill="currentColor"
d="M256 448q106 0 181 -75t75 -181t-75 -181t-181 -75t-181 75t-75 181t75 181t181 75zM474 185q4 2 4 7t-4 7l-188 128q-4 3 -8.5 0.5t-4.5 -7.5v-112l-174 119q-5 3 -9.5 0.5t-4.5 -7.5v-256q0 -5 5 -8q2 -1 4 -1q3 0 5 2l174 119v-112q0 -5 5 -8q1 -1 4 -1q2 0 4 2z" />
  </g>

</svg>
