<?xml version="1.0" standalone="no"?>
<!DOCTYPE svg PUBLIC "-//W3C//DTD SVG 1.1//EN" "http://www.w3.org/Graphics/SVG/1.1/DTD/svg11.dtd" >
<svg xmlns="http://www.w3.org/2000/svg" xmlns:xlink="http://www.w3.org/1999/xlink" version="1.1" viewBox="-10 0 522 512">
  <g transform="matrix(1 0 0 -1 0 448)">
   <path fill="currentColor"
d="M313 163.5q0 9.5 9.5 9.5t9.5 -9.5t-9.5 -9.5t-9.5 9.5zM332 267.5q0 9.5 9.5 9.5t9.5 -9.5t-9.5 -9.5t-9.5 9.5zM370 267.5q0 9.5 9.5 9.5t9.5 -9.5t-9.5 -9.5t-9.5 9.5zM351 286.5q0 9.5 9.5 9.5t9.5 -9.5t-9.5 -9.5t-9.5 9.5zM370 305.5q0 9.5 9.5 9.5t9.5 -9.5
t-9.5 -9.5t-9.5 9.5zM332 229.5q0 9.5 9.5 9.5t9.5 -9.5t-9.5 -9.5t-9.5 9.5zM313 248.5q0 9.5 9.5 9.5t9.5 -9.5t-9.5 -9.5t-9.5 9.5zM351 248.5q0 9.5 9.5 9.5t9.5 -9.5t-9.5 -9.5t-9.5 9.5zM313 135.5q0 9.5 9.5 9.5t9.5 -9.5t-9.5 -9.5t-9.5 9.5zM313 106.5
q0 9.5 9.5 9.5t9.5 -9.5t-9.5 -9.5t-9.5 9.5zM313 78.5q0 9.5 9.5 9.5t9.5 -9.5t-9.5 -9.5t-9.5 9.5zM313 49.5q0 9.5 9.5 9.5t9.5 -9.5t-9.5 -9.5t-9.5 9.5zM313 21.5q0 9.5 9.5 9.5t9.5 -9.5t-9.5 -9.5t-9.5 9.5zM237 382q8 0 13.5 -5.5t5.5 -13.5t-5.5 -13.5t-13.5 -5.5
h-47q-8 0 -13.5 5.5t-5.5 13.5t5.5 13.5t13.5 5.5h47zM237 315q8 0 13.5 -5.5t5.5 -13.5t-5.5 -13.5t-13.5 -5.5h-95q-8 0 -13.5 5.5t-5.5 13.5t5.5 13.5t13.5 5.5h95zM237 249q8 0 13.5 -5.5t5.5 -13.5t-5.5 -13.5t-13.5 -5.5h-142q-8 0 -13.5 5.5t-5.5 13.5t5.5 13.5
t13.5 5.5h142zM237 183q8 0 13.5 -6t5.5 -13.5t-5.5 -13t-13.5 -5.5h-180q-8 0 -13.5 5.5t-5.5 13t5.5 13.5t13.5 6h180zM237 116q8 0 13.5 -5.5t5.5 -13.5t-5.5 -13.5t-13.5 -5.5h-123q-8 0 -13.5 5.5t-5.5 13.5t5.5 13.5t13.5 5.5h123zM237 50q8 0 13.5 -5.5t5.5 -13.5
t-5.5 -13.5t-13.5 -5.5h-66q-8 0 -13.5 5.5t-5.5 13.5t5.5 13.5t13.5 5.5h66zM474 363q0 -52 -24.5 -97.5t-67.5 -73.5q43 -28 67.5 -73.5t24.5 -97.5v-85h-180q-8 0 -13.5 5.5t-5.5 13.5t5.5 13.5t13.5 5.5h142v47q0 51 -27.5 92.5t-74.5 60.5q-1 1 -3 2v0q-2 1 -4 3
q0 1 -1 1q-1 3 -2 5v0q-1 1 -1 3v1.5v0.5l-1 2v1l1 1v1v1q0 2 1 3v1q1 2 2 3l1 1l0.5 0.5l0.5 0.5l2 2l1 1q1 1 3 2q47 19 74.5 60.5t27.5 92.5v47h-142q-8 0 -13.5 5.5t-5.5 13.5t5.5 13.5t13.5 5.5h180v-85z" />
  </g>

</svg>
