<?xml version="1.0" standalone="no"?>
<!DOCTYPE svg PUBLIC "-//W3C//DTD SVG 1.1//EN" "http://www.w3.org/Graphics/SVG/1.1/DTD/svg11.dtd" >
<svg xmlns="http://www.w3.org/2000/svg" xmlns:xlink="http://www.w3.org/1999/xlink" version="1.1" viewBox="-10 0 532 512">
  <g transform="matrix(1 0 0 -1 0 448)">
   <path fill="currentColor"
d="M177 377q-9 0 -9 9t9 9h167q9 0 9 -9t-9 -9h-167zM482 360q13 0 21.5 -9t8.5 -21v-311q0 -13 -8.5 -21.5t-21.5 -8.5h-452q-13 0 -21.5 8.5t-8.5 21.5v311q0 12 8.5 21t21.5 9h452zM265 24q62 0 106 44t44 106t-44 106t-106 44t-106 -44t-44 -106t44 -106t106 -44z" />
  </g>

</svg>
