<?xml version="1.0" standalone="no"?>
<!DOCTYPE svg PUBLIC "-//W3C//DTD SVG 1.1//EN" "http://www.w3.org/Graphics/SVG/1.1/DTD/svg11.dtd" >
<svg xmlns="http://www.w3.org/2000/svg" xmlns:xlink="http://www.w3.org/1999/xlink" version="1.1" viewBox="-10 0 532 512">
  <g transform="matrix(1 0 0 -1 0 448)">
   <path fill="currentColor"
d="M185 232q0 9 9 9t9 -9t-9 -9t-9 9zM247 232q0 9 9 9t9 -9t-9 -9t-9 9zM309 232q0 9 9 9t9 -9t-9 -9t-9 9zM371 232q0 9 8.5 9t8.5 -9t-8.5 -9t-8.5 9zM433 232q0 9 8.5 9t8.5 -9t-8.5 -9t-8.5 9zM62 161q0 9 8.5 9t8.5 -9t-8.5 -9t-8.5 9zM124 161q0 9 8.5 9t8.5 -9
t-8.5 -9t-8.5 9zM185 161q0 9 9 9t9 -9t-9 -9t-9 9zM247 161q0 9 9 9t9 -9t-9 -9t-9 9zM309 161q0 9 9 9t9 -9t-9 -9t-9 9zM371 161q0 9 8.5 9t8.5 -9t-8.5 -9t-8.5 9zM433 161q0 9 8.5 9t8.5 -9t-8.5 -9t-8.5 9zM62 99q0 9 8.5 9t8.5 -9t-8.5 -9t-8.5 9zM124 99q0 9 8.5 9
t8.5 -9t-8.5 -9t-8.5 9zM185 99q0 9 9 9t9 -9t-9 -9t-9 9zM247 99q0 9 9 9t9 -9t-9 -9t-9 9zM309 99q0 9 9 9t9 -9t-9 -9t-9 9zM371 99q0 9 8.5 9t8.5 -9t-8.5 -9t-8.5 9zM433 99q0 9 8.5 9t8.5 -9t-8.5 -9t-8.5 9zM62 29q0 9 8.5 9t8.5 -9t-8.5 -9t-8.5 9zM124 29
q0 9 8.5 9t8.5 -9t-8.5 -9t-8.5 9zM185 29q0 9 9 9t9 -9t-9 -9t-9 9zM247 29q0 9 9 9t9 -9t-9 -9t-9 9zM309 29q0 9 9 9t9 -9t-9 -9t-9 9zM230 444q15 0 27.5 -10.5t15.5 -25.5h-19q-6 18 -24 18q-9 0 -9 9t9 9zM282 444q16 0 28.5 -10.5t15.5 -25.5h-19q-6 18 -25 18
q-8 0 -8 9t8 9zM335 444q16 0 28.5 -10.5t15.5 -25.5h-19q-6 18 -25 18q-8 0 -8 9t8 9zM379 408h133v-97v-17v-354h-512v354v17v97h124h9q3 16 15.5 26t28 10t28 -10t15.5 -26h-19q-6 18 -24.5 18t-24.5 -18h7h42q2 -4 2 -9q0 -11 -7.5 -18.5t-18.5 -7.5q-9 0 -9 -9t9 -9
q18 0 31 13t13 31q0 5 -1 9h34q2 -4 2 -9q0 -11 -8 -18.5t-18 -7.5q-9 0 -9 -9t9 -9q18 0 31 13t13 31q0 5 -1 9h34q2 -4 2 -9q0 -11 -8 -18.5t-19 -7.5q-8 0 -8 -9t8 -9q19 0 32 13t13 31q0 5 -1 9h34q2 -4 2 -9q0 -11 -8 -18.5t-19 -7.5q-8 0 -8 -9t8 -9q19 0 32 13t13 31
q0 5 -1 9zM494 -42v336h-476v-336h476z" />
  </g>

</svg>
