<?xml version="1.0" standalone="no"?>
<!DOCTYPE svg PUBLIC "-//W3C//DTD SVG 1.1//EN" "http://www.w3.org/Graphics/SVG/1.1/DTD/svg11.dtd" >
<svg xmlns="http://www.w3.org/2000/svg" xmlns:xlink="http://www.w3.org/1999/xlink" version="1.1" viewBox="-10 0 522 512">
  <g transform="matrix(1 0 0 -1 0 448)">
   <path fill="currentColor"
d="M409 74q20 -10 31.5 -28.5t11.5 -40.5v-18q0 -18 -36.5 -30.5t-77.5 -16.5t-82 -4t-82 4t-77.5 16.5t-36.5 30.5v19q0 21 10.5 39.5t29.5 28.5l79 46q2 1 6 4h-63q-3 -1 -6 -1q-18 0 -31 8q-10 6 -12 17q-3 11 3 21q48 79 53 151q2 33 12 56q32 71 112 72
q32 0 55.5 -12.5t34.5 -28t18 -35t8 -28t1 -12.5q1 -76 61 -161q8 -11 4 -23.5t-16 -17.5q-15 -7 -38 -7l-9 1h-65q5 -8 9 -10z" />
  </g>

</svg>
