<?xml version="1.0" standalone="no"?>
<!DOCTYPE svg PUBLIC "-//W3C//DTD SVG 1.1//EN" "http://www.w3.org/Graphics/SVG/1.1/DTD/svg11.dtd" >
<svg xmlns="http://www.w3.org/2000/svg" xmlns:xlink="http://www.w3.org/1999/xlink" version="1.1" viewBox="-10 0 532 512">
  <g transform="matrix(1 0 0 -1 0 448)">
   <path fill="currentColor"
d="M457 35q37 -59 53 -85q4 -7 -1.5 -11.5t-11.5 0.5q-2 2 -8 7q-41 36 -42 36q-29 26 -89.5 79.5t-91.5 80.5l80 71q22 -35 62 -99.5t49 -78.5zM17 360q-12 12 -16 24q-2 7 0 14q2 11 11 20q19 18 58 26q42 8 86 1q40 -7 61 -26q2 -2 16 -23q2 -4 7.5 -13t7.5 -13l-85 -138
q-27 23 -73 64q-10 8 -28.5 24.5t-26.5 24.5l-7.5 6t-10.5 9zM91 430q-8 -1 -20.5 -4t-29 -9t-21.5 -14.5t1 -20.5q37 -35 119 -27q35 4 56 17q21 12 17 24q-5 14 -31 24q-28 11 -67 11q-12 0 -24 -1zM475 343q-28 -26 -78 -69l-1 -1l-1 -1h-1l-1 -1l-1 -1l-1 -1l-1 -1
l-1 -1l-1 -1l-1 -1h-1l-1 -1l-1 -1l-1 -1l-1 -1l-1 -1l-1 -1l-1 -1h-1l-1 -1l-1 -1l-1 -1l-1 -2h-1l-1 -1l-1 -1l-1 -1l-1 -1l-1 -1l-1 -1l-1 -1h-1l-1 -1l-1 -1l-1 -1l-1 -1l-1 -1l-1 -1l-1 -1l-1 -1h-1l-1 -1l-1 -1l-1 -1l-1 -1l-1 -1l-1 -1l-1 -1h-1l-1 -1l-1 -1l-1 -1
l-1 -1l-1 -1l-1 -1l-1 -1h-1l-1 -1l-1 -1l-1 -1l-1 -1l-1 -1l-1 -1l-1 -1h-1l-1 -1l-1 -1l-1 -1l-1 -1l-1 -1l-1 -1l-1 -1h-1l-1 -1l-1 -1l-1 -1l-1 -1l-1 -1l-1 -1l-1 -1h-1l-1 -1l-1 -1l-1 -1l-1 -1l-1 -1l-1 -1l-1 -1h-1l-1 -1l-1 -1l-1 -1l-1 -1l-1 -1l-1 -1l-1 -1
l-1 -1h-1l-1 -1l-1 -1l-1 -1l-1 -1l-1 -1l-1 -1l-1 -1h-1l-1 -1l-1 -1l-1 -1l-1 -1l-1 -1l-1 -1l-1 -1h-1l-1 -1l-1 -1l-1 -1l-1 -1l-1 -1l-1 -1l-1 -1h-1l-1 -1l-1 -1l-1 -1l-1 -1l-1 -1l-1 -1l-1 -1h-1l-1 -1l-1 -1l-1 -1l-1 -1l-1 -1l-1 -1l-1 -1h-1l-1 -1l-1 -1l-1 -1
l-1 -1l-1 -1l-1 -1l-1 -1h-1l-1 -1l-1 -1l-1 -1l-1 -1l-1 -1l-1 -1l-1 -1l-1 -1h-1l-1 -1l-1 -1l-1 -1l-1 -1l-1 -1l-1 -1l-1 -1h-1l-1 -1l-1 -1l-1 -1l-1 -1l-1 -1l-1 -1l-1 -1h-1l-1 -1l-1 -1l-1 -1l-1 -1l-1 -1l-1 -1l-1 -1h-1l-1 -1l-1 -1l-1 -1l-1 -1l-1 -1l-1 -1
l-1 -1h-1l-1 -1l-1 -1l-1 -1l-1 -1l-1 -1l-1 -1l-1 -1h-1l-1 -1l-1 -1l-1 -1l-1 -1l-1 -1l-1 -1l-1 -1h-1l-1 -1l-1 -1l-1 -1l-1 -1l-1 -1l-1 -1l-1 -1l-1 -1h-1l-1 -1l-1 -1l-1 -1l-1 -1l-1 -1l-1 -1l-1 -1h-1l-1 -1l-1 -1l-1 -1l-1 -1l-1 -1l-1 -1l-1 -1h-1l-1 -1l-1 -1
l-1 -1l-1 -1l-1 -1l-1 -1l-1 -1h-1l-1 -1l-1 -1l-1 -1l-1 -1l-1 -1l-1 -1l-1 -1l-2 -1q-16 -14 -49 -42.5t-49 -43.5q-4 -4 -12 -11.5t-14.5 -13t-13.5 -10.5q-6 -5 -11 0.5t-1 11.5q1 2 2.5 4.5t2.5 3.5q13 21 21 34q12 19 36.5 58.5t37.5 59.5q49 80 159 256q10 16 19 30
q14 23 23 29q42 29 126 21q29 -3 56 -16t27 -38q0 -8 -5 -15v-1q-7 -11 -15 -18zM300 387q5 -13 32 -23q30 -11 68 -10q34 1 60 10q9 3 16 6.5t14 11t4 15.5q-5 13 -31 23q-28 11 -66 11q-14 0 -28 -2q-34 -4 -55 -17q-19 -12 -14 -25z" />
  </g>

</svg>
