<?xml version="1.0" standalone="no"?>
<!DOCTYPE svg PUBLIC "-//W3C//DTD SVG 1.1//EN" "http://www.w3.org/Graphics/SVG/1.1/DTD/svg11.dtd" >
<svg xmlns="http://www.w3.org/2000/svg" xmlns:xlink="http://www.w3.org/1999/xlink" version="1.1" viewBox="-10 0 532 512">
  <g transform="matrix(1 0 0 -1 0 448)">
   <path fill="currentColor"
d="M7 260h498q7 -10 7 -22v-101q0 -16 -11.5 -27.5t-27.5 -11.5h-208v-69q12 -3 21 -12t12 -21h205q9 0 9 -8.5t-9 -8.5h-205q-3 -15 -15 -24.5t-27 -9.5t-27 9.5t-15 24.5h-205q-9 0 -9 8.5t9 8.5h205q3 12 12 21t21 12v69h-208q-16 0 -27.5 11.5t-11.5 27.5v101q0 12 7 22
zM89.5 149q15.5 0 27 11.5t11.5 27.5t-11.5 27t-27 11t-27 -11t-11.5 -27t11.5 -27.5t27 -11.5zM282 -12.5q0 10.5 -7.5 18t-18.5 7.5t-18.5 -7.5t-7.5 -18t7.5 -18t18.5 -7.5t18.5 7.5t7.5 18zM290.5 192q8.5 0 8.5 8.5t-8.5 8.5t-8.5 -8.5t8.5 -8.5zM307.5 166
q8.5 0 8.5 8.5t-8.5 8.5t-8.5 -8.5t8.5 -8.5zM324.5 192q8.5 0 8.5 8.5t-8.5 8.5t-8.5 -8.5t8.5 -8.5zM341.5 166q8.5 0 8.5 8.5t-8.5 8.5t-8.5 -8.5t8.5 -8.5zM358.5 192q8.5 0 8.5 8.5t-8.5 8.5t-8.5 -8.5t8.5 -8.5zM375.5 166q8.5 0 8.5 8.5t-8.5 8.5t-8.5 -8.5t8.5 -8.5
zM392.5 192q8.5 0 8.5 8.5t-8.5 8.5t-8.5 -8.5t8.5 -8.5zM409.5 166q8.5 0 8.5 8.5t-8.5 8.5t-8.5 -8.5t8.5 -8.5zM426.5 192q8.5 0 8.5 8.5t-8.5 8.5t-8.5 -8.5t8.5 -8.5zM443.5 166q8.5 0 8.5 8.5t-8.5 8.5t-8.5 -8.5t8.5 -8.5zM473 439q16 0 27.5 -11.5t11.5 -27.5v-100
q0 -13 -7 -23h-498q-7 10 -7 23v100q0 16 11.5 27.5t27.5 11.5h434zM89.5 311q15.5 0 27 11.5t11.5 27.5t-11.5 27t-27 11t-27 -11t-11.5 -27t11.5 -27.5t27 -11.5zM290.5 354q8.5 0 8.5 8.5t-8.5 8.5t-8.5 -8.5t8.5 -8.5zM307.5 329q8.5 0 8.5 8.5t-8.5 8.5t-8.5 -8.5
t8.5 -8.5zM324.5 354q8.5 0 8.5 8.5t-8.5 8.5t-8.5 -8.5t8.5 -8.5zM341.5 329q8.5 0 8.5 8.5t-8.5 8.5t-8.5 -8.5t8.5 -8.5zM358.5 354q8.5 0 8.5 8.5t-8.5 8.5t-8.5 -8.5t8.5 -8.5zM375.5 329q8.5 0 8.5 8.5t-8.5 8.5t-8.5 -8.5t8.5 -8.5zM392.5 354q8.5 0 8.5 8.5
t-8.5 8.5t-8.5 -8.5t8.5 -8.5zM409.5 329q8.5 0 8.5 8.5t-8.5 8.5t-8.5 -8.5t8.5 -8.5zM426.5 354q8.5 0 8.5 8.5t-8.5 8.5t-8.5 -8.5t8.5 -8.5zM443.5 329q8.5 0 8.5 8.5t-8.5 8.5t-8.5 -8.5t8.5 -8.5z" />
  </g>

</svg>
