<?xml version="1.0" standalone="no"?>
<!DOCTYPE svg PUBLIC "-//W3C//DTD SVG 1.1//EN" "http://www.w3.org/Graphics/SVG/1.1/DTD/svg11.dtd" >
<svg xmlns="http://www.w3.org/2000/svg" xmlns:xlink="http://www.w3.org/1999/xlink" version="1.1" viewBox="-10 0 532 512">
  <g transform="matrix(1 0 0 -1 0 448)">
   <path fill="currentColor"
d="M256 236q18 0 31 -13t13 -31t-13 -31t-31 -13t-31 13t-13 31t13 31t31 13zM494 210q8 0 13 -5.5t5 -12.5t-5 -12.5t-13 -5.5h-18q-6 -71 -52 -125l13 -13q5 -5 5 -12.5t-5 -12.5t-12.5 -5t-12.5 5l-13 13q-54 -46 -125 -52v-18q0 -8 -5.5 -13t-12.5 -5t-12.5 5t-5.5 13
v18q-71 6 -125 52l-13 -13q-5 -5 -12.5 -5t-12.5 5t-5 12.5t5 12.5l13 13q-46 54 -52 125h-18q-8 0 -13 5.5t-5 12.5t5 12.5t13 5.5h18q6 71 52 125l-13 13q-5 5 -5 12.5t5 12.5t12.5 5t12.5 -5l13 -13q54 46 125 52v18q0 8 5.5 13t12.5 5t12.5 -5t5.5 -13v-18
q71 -6 125 -52l13 13q5 5 12.5 5t12.5 -5t5 -12.5t-5 -12.5l-13 -13q46 -54 52 -125h18zM256 7q77 0 131 54t54 131t-54 131t-131 54t-131 -54t-54 -131t54 -131t131 -54z" />
  </g>

</svg>
