<?xml version="1.0" standalone="no"?>
<!DOCTYPE svg PUBLIC "-//W3C//DTD SVG 1.1//EN" "http://www.w3.org/Graphics/SVG/1.1/DTD/svg11.dtd" >
<svg xmlns="http://www.w3.org/2000/svg" xmlns:xlink="http://www.w3.org/1999/xlink" version="1.1" viewBox="-10 0 522 512">
  <g transform="matrix(1 0 0 -1 0 448)">
   <path fill="currentColor"
d="M490 445.5q3 -2.5 3 -6.5v-56v-40v-231q0 -35 -27.5 -59t-65.5 -24t-65.5 24.5t-27.5 59.5t27.5 59.5t65.5 24.5q47 0 75 -34v170l-270 -35v-270v-1l-1 -1q1 -4 1 -6q0 -35 -27.5 -59.5t-66 -24.5t-65.5 24.5t-27 59t27 59.5t66 25q46 0 74 -34v236v39v56q0 9 8 10
l289 37q4 0 7 -2.5z" />
  </g>

</svg>
