<?xml version="1.0" standalone="no"?>
<!DOCTYPE svg PUBLIC "-//W3C//DTD SVG 1.1//EN" "http://www.w3.org/Graphics/SVG/1.1/DTD/svg11.dtd" >
<svg xmlns="http://www.w3.org/2000/svg" xmlns:xlink="http://www.w3.org/1999/xlink" version="1.1" viewBox="-10 0 532 512">
  <g transform="matrix(1 0 0 -1 0 448)">
   <path fill="currentColor"
d="M372 341q58 0 99 -43.5t41 -105.5t-41 -105.5t-99 -43.5t-99 43q-7 8 -7 18.5t7 18.5q7 7 17 7t17 -7q27 -29 65 -29t65 28.5t27 69.5t-27 69.5t-65 28.5t-65 -28.5t-27 -69.5q0 -62 -41 -105.5t-99 -43.5t-99 43.5t-41 105.5t41 105.5t99 43.5q43 0 78 -25q11 -8 21 -19
q7 -7 7 -17.5t-7 -18.5q-7 -7 -17 -7t-17 7q-6 7 -14 13q-23 16 -51 16q-38 0 -65 -28.5t-27 -69.5t27 -69.5t65 -28.5t65 28.5t27 69.5q0 62 41 105.5t99 43.5z" />
  </g>

</svg>
