<?xml version="1.0" standalone="no"?>
<!DOCTYPE svg PUBLIC "-//W3C//DTD SVG 1.1//EN" "http://www.w3.org/Graphics/SVG/1.1/DTD/svg11.dtd" >
<svg xmlns="http://www.w3.org/2000/svg" xmlns:xlink="http://www.w3.org/1999/xlink" version="1.1" viewBox="-10 0 532 512">
  <g transform="matrix(1 0 0 -1 0 448)">
   <path fill="currentColor"
d="M0 439q0 9 9 9h494q9 0 9 -9v-494q0 -9 -9 -9h-494q-9 0 -9 9v494zM427 81h-103q-8 0 -8 -8v-35h-265q-8 0 -8 -8.5t8 -8.5h265v-34q0 -8 8 -8h103q8 0 8 8v34h26q8 0 8 8.5t-8 8.5h-26v35q0 8 -8 8zM307 243h-102q-9 0 -9 -8v-34h-145q-8 0 -8 -9t8 -9h145v-34
q0 -8 9 -8h102q9 0 9 8v34h145q8 0 8 9t-8 9h-145v34q0 8 -9 8zM188 405h-103q-8 0 -8 -8v-34h-26q-8 0 -8 -8.5t8 -8.5h26v-35q0 -8 8 -8h103q8 0 8 8v35h265q8 0 8 8.5t-8 8.5h-265v34q0 8 -8 8z" />
  </g>

</svg>
