<?xml version="1.0" standalone="no"?>
<!DOCTYPE svg PUBLIC "-//W3C//DTD SVG 1.1//EN" "http://www.w3.org/Graphics/SVG/1.1/DTD/svg11.dtd" >
<svg xmlns="http://www.w3.org/2000/svg" xmlns:xlink="http://www.w3.org/1999/xlink" version="1.1" viewBox="-10 0 522 512">
  <g transform="matrix(1 0 0 -1 0 448)">
   <path fill="currentColor"
d="M363 414q12 0 21 -8.5t9 -21.5v-418q0 -13 -9 -21.5t-21 -8.5h-214q-12 0 -21 8.5t-9 21.5v418q0 13 9 21.5t21 8.5h56v34h102v-34h56zM375 -34v418q0 5 -3.5 9t-8.5 4h-56h-102h-56q-5 0 -8.5 -4t-3.5 -9v-418q0 -6 3.5 -9.5t8.5 -3.5h214q5 0 8.5 3.5t3.5 9.5zM316 201
q5 0 7.5 -4.5t-0.5 -8.5l-76 -145q0 -1 -1 -1q-2 -4 -6.5 -4t-7.5 4q-2 2 -2 6v110h-34q-5 0 -7.5 4.5t0.5 8.5l84 136l1 1q3 3 7.5 3t6.5 -3t2 -6v-101h26z" />
  </g>

</svg>
