<?xml version="1.0" standalone="no"?>
<!DOCTYPE svg PUBLIC "-//W3C//DTD SVG 1.1//EN" "http://www.w3.org/Graphics/SVG/1.1/DTD/svg11.dtd" >
<svg xmlns="http://www.w3.org/2000/svg" xmlns:xlink="http://www.w3.org/1999/xlink" version="1.1" viewBox="-10 0 532 512">
  <g transform="matrix(1 0 0 -1 0 448)">
   <path fill="currentColor"
d="M512 192q0 -85 -51 -153v-1l-2 -2v0h-1q-35 -47 -88 -73.5t-114 -26.5q-67 0 -124 32t-92 87l-1 1.5l-1 1.5l-2 3v1q-36 60 -36 130q0 100 67.5 173t165.5 82h7q4 1 10 1v0h3h3q106 0 181 -75t75 -181zM131 139q-15 -3 -29 -11l137 -122v7q0 28 -20 48t-48 20
q-9 0 -9 8.5t9 8.5q25 0 45.5 -13t30.5 -35q11 22 31.5 35t45.5 13q9 0 9 -8.5t-9 -8.5q-28 0 -48 -20t-20 -48v-7l136 122q-13 7 -27 11q-5 1 -10 1h-1q-5 1 -10 1h-51q-8 0 -14 6t-6 14v5q0 14 13 19l8 4l6 4l0.5 0.5t1.5 0.5q24 17 40 54t16 71v1v2v2v-1q-25 35 -70 50
q-19 -36 -60 -36q-14 0 -27 6q-16 7 -32.5 4t-27.5 -16l-4 -5v-6q0 -39 21.5 -81.5t50.5 -53.5q13 -5 13 -19v-5q0 -8 -6 -14t-14 -6h-51q-5 0 -10 -1h-1h-1q-4 -1 -8 -1zM111 30v-28q8 -6 17 -12v40h-17zM367 30v-50q9 5 17 10v40h-17zM495 192q0 79 -47 142t-121 86
q41 -33 48 -84v-7v-9v-167q17 -4 31 -13l6 -4l0.5 -0.5l0.5 -0.5q4 -3 7 -6q1 -1 3 -2l6 -6q1 -2 2 -3q3 -3 6 -7q1 0 1 -0.5t1 -1.5q14 -20 19 -44q37 58 37 127zM156 409q-63 -29 -101 -87.5t-38 -129.5q0 -57 26 -107q0 1 2 4q1 4 2 5q1 2 3 5t2 4q1 2 3 5l3 3q2 3 4 5
q1 2 2 3l5 5l3 3l4 4q1 0 3 2q1 0 2 1.5t2 1.5l6 4q14 9 30 13v167q0 51 37 89z" />
  </g>

</svg>
