<?xml version="1.0" standalone="no"?>
<!DOCTYPE svg PUBLIC "-//W3C//DTD SVG 1.1//EN" "http://www.w3.org/Graphics/SVG/1.1/DTD/svg11.dtd" >
<svg xmlns="http://www.w3.org/2000/svg" xmlns:xlink="http://www.w3.org/1999/xlink" version="1.1" viewBox="-10 0 532 512">
  <g transform="matrix(1 0 0 -1 0 448)">
   <path fill="currentColor"
d="M512 370l-310 -198q-2 -1 -4 -1q-5 0 -7 4q-5 7 2 12l310 197zM512 370l-186 -367q-2 -4 -7 -4h-1q-4 0 -7 3l-58 84l-67 -51q-2 -2 -5 -2t-5 1q-5 3 -4 9l16 130l-182 60q-6 2 -6 8.5t6 8.5l499 135q-2 0 -2 -1l-310 -197q-3 -2 -4 -6q0 -2 0.5 -3.5t1.5 -2.5q2 -4 7 -4
q2 0 4 1l8 5zM192 61l51 39l-39 56z" />
  </g>

</svg>
