<?xml version="1.0" standalone="no"?>
<!DOCTYPE svg PUBLIC "-//W3C//DTD SVG 1.1//EN" "http://www.w3.org/Graphics/SVG/1.1/DTD/svg11.dtd" >
<svg xmlns="http://www.w3.org/2000/svg" xmlns:xlink="http://www.w3.org/1999/xlink" version="1.1" viewBox="-10 0 532 512">
  <g transform="matrix(1 0 0 -1 0 448)">
   <path fill="currentColor"
d="M481 234l31 -289h-512l36 289h102q9 0 9 -9.5t-9 -9.5h-85l-32 -251h470l-27 251h-84q-10 0 -10 9.5t10 9.5h101zM163 28q8 4 12 -4.5t-4 -12.5l-18 -8h-3q-7 0 -9 6q-4 8 5 12q9 3 17 7zM341 98q-1 10 9 10l18 1q4 0 7 -2.5t3 -6.5q0 -9 -9 -10l-19 -1q-9 0 -9 9z
M292.5 102q9.5 2 19.5 3q9 2 10 -7.5t-8 -10.5t-18 -3h-2q-7 0 -9 7q-2 9 7.5 11zM208.5 55.5q7.5 5.5 13 -2t-1.5 -12.5q-8 -6 -16 -11q-2 -2 -5 -2q-5 0 -8 4q-5 8 3 13q7 5 14.5 10.5zM93 -7q-9 3 -6.5 12t11.5 6h3q6 -1 12 0q9 1 10 -8t-8 -11h-9h-7q-3 1 -6 1zM434 143
q1 3 1 5v1q0 3 -1 6q-3 9 5.5 12.5t12.5 -5.5q2 -7 2 -13v-2q0 -5 -2 -9q-2 -7 -9 -7h-2q-9 3 -7 12zM95 66q-6 0 -8 5q-5 8 3 13q8 4 16 5h8q9 -2 8 -11t-10 -8h-4q-5 0 -9 -2q-2 -2 -4 -2zM404 112q8 2 12 5q8 6 13.5 -1.5t-1.5 -12.5l-1 -1q-8 -6 -20 -8h-1q-8 0 -10 7
q-1 9 8 11zM82 44q-1 -4 -1 -9v-2v-4q1 -9 -8 -10h-1q-9 0 -9 8q-1 3 -1 6v3q1 6 2 13q3 9 12 6.5t6 -11.5zM416 189q9 -1 8 -10t-11 -8q-7 1 -14 -1q-1 -1 -3 -1q-7 0 -9 7q-2 9 7 12q11 3 22 1zM248 85q-14 15 -28.5 35t-36 65.5t-31.5 95.5q-8 34 -4 64q13 94 110.5 94
t109.5 -94q4 -30 -3 -64q-11 -51 -32.5 -97t-36 -65.5t-28.5 -33.5q3 -8 -5 -12q-5 -3 -9 -6q-3 -1 -5.5 -3t-5.5 -2q-4 0 -7 4q-6 7 2 13l6 4q1 0 2.5 1zM258.5 399q-28.5 0 -48.5 -20t-20 -48t20 -48t48.5 -20t48.5 20t20 48t-20 48t-48.5 20z" />
  </g>

</svg>
