<?xml version="1.0" standalone="no"?>
<!DOCTYPE svg PUBLIC "-//W3C//DTD SVG 1.1//EN" "http://www.w3.org/Graphics/SVG/1.1/DTD/svg11.dtd" >
<svg xmlns="http://www.w3.org/2000/svg" xmlns:xlink="http://www.w3.org/1999/xlink" version="1.1" viewBox="-10 0 522 512">
  <g transform="matrix(1 0 0 -1 0 448)">
   <path fill="currentColor"
d="M353 260q37 -24 58.5 -63t21.5 -84q0 -73 -52 -125t-125 -52t-125 52t-52 125q0 45 21.5 84t58.5 63v98q0 37 28.5 63.5t68.5 26.5t68.5 -26.5t28.5 -63.5v-98zM356 200q6 6 0 12.5t-13 -0.5l-25 -25q-6 -6 0 -12q3 -3 6.5 -3t6.5 3zM247 245v-35q0 -9 9 -9t9 9v35
q0 9 -9 9t-9 -9zM177 270l5 2q5 3 10 5q3 1 7 3q5 1 7 2q5 1 12 3q3 0 5 1l14 2h1.5h1.5q9 1 16 1t16 -1h1.5h1.5l14 -2q3 -1 5 -1q7 -2 12 -3q2 -1 7 -2q3 -2 7 -3q5 -2 10 -5l5 -2v88q0 30 -23 51t-56 21t-56 -21t-23 -51v-88zM156 212.5q-6 -6.5 0 -12.5l25 -25
q3 -3 6.5 -3t6.5 3q6 6 0 12l-25 25q-7 7 -13 0.5zM124 104h35q9 0 9 8.5t-9 8.5h-35q-9 0 -9 -8.5t9 -8.5zM194 38q6 6 -0.5 12t-12.5 0l-25 -25q-6 -6 0 -12q3 -3 6.5 -3t6.5 3zM265 -20v35q0 9 -9 9t-9 -9v-35q0 -9 9 -9t9 9zM256 33q33 0 56 23.5t23 56t-23 56t-56 23.5
t-56 -23.5t-23 -56t23 -56t56 -23.5zM356 13q6 6 0 12l-25 25q-6 6 -12.5 0t-0.5 -12l25 -25q3 -3 6.5 -3t6.5 3zM388 104q9 0 9 8.5t-9 8.5h-35q-9 0 -9 -8.5t9 -8.5h35z" />
  </g>

</svg>
