<?xml version="1.0" standalone="no"?>
<!DOCTYPE svg PUBLIC "-//W3C//DTD SVG 1.1//EN" "http://www.w3.org/Graphics/SVG/1.1/DTD/svg11.dtd" >
<svg xmlns="http://www.w3.org/2000/svg" xmlns:xlink="http://www.w3.org/1999/xlink" version="1.1" viewBox="-10 0 522 512">
  <g transform="matrix(1 0 0 -1 0 448)">
   <path fill="currentColor"
d="M138 210q-23 0 -39 16t-16 39t16 39t39 16t39 -16t16 -39t-16 -39t-39 -16zM10 448h492v-394v-118h-492v118v394zM30 428v-374h6l164 145q7 6 14 0l47 -47l37 -36q3 -3 7 -3t7 3q7 7 0 14l-37 38l82 90q3 3 7 3t7 -3l111 -102v272h-452zM482 -44v78h-452v-78h452z" />
  </g>

</svg>
