<?xml version="1.0" standalone="no"?>
<!DOCTYPE svg PUBLIC "-//W3C//DTD SVG 1.1//EN" "http://www.w3.org/Graphics/SVG/1.1/DTD/svg11.dtd" >
<svg xmlns="http://www.w3.org/2000/svg" xmlns:xlink="http://www.w3.org/1999/xlink" version="1.1" viewBox="-10 0 532 512">
  <g transform="matrix(1 0 0 -1 0 448)">
   <path fill="currentColor"
d="M330 180.5q-8 -30.5 -36 -46.5q-17 -10 -38 -10q-44 0 -67 38q-15 28 -7 58q4 16 14 28l-65 65q-43 -48 -43 -113q0 -9 -8.5 -9t-8.5 9q0 20 4 40l-19 5q-8 3 -6 11t10 6l20 -5q5 15 12 28l-18 11q-7 4 -2.5 11.5t11.5 2.5l17 -10q9 13 19 25l-14 14q-6 6 0 12t12 0
l14 -14q12 11 25 19l-10 18q-4 7 3.5 11.5t11.5 -3.5l10 -17q15 7 29 12l-5 19q-2 8 6 10.5t10 -5.5l5 -20q15 4 31 4v20q0 9 9 9t9 -9v-20q15 -1 31 -4l5 20q2 8 10 5.5t6 -10.5l-5 -19q15 -5 29 -12l10 17q4 8 11.5 3.5t3.5 -11.5l-10 -18q13 -8 25 -19l14 14q6 6 12 0
t0 -12l-14 -14q10 -11 19 -25l17 10q7 5 11.5 -2.5t-2.5 -11.5l-18 -10q8 -14 12 -29l20 5q8 2 10 -6.5t-6 -10.5l-19 -5q4 -20 4 -40q0 -9 -8.5 -9t-8.5 9q0 45 -22 85q-9 15 -21 28l-65 -65q4 -4 7 -9q15 -28 7 -58.5zM256 277q27 0 48 -17l65 65q-40 36 -94 42.5
t-103 -21.5q-15 -9 -29 -21l65 -65q5 4 10 7q17 10 38 10zM230 43q9 0 9 -8.5t-9 -8.5h-10q-2 -19 -8 -35l-65 29q7 22 -5 42q-2 3 -5 7l47 53q7 -7 14 -18l10 6q7 4 11.5 -3.5t-3.5 -11.5l-9 -5q11 -23 13 -47h10zM164 139q5 -3 8 -6l-48 -52q-14 9 -30 9q-10 0 -20 -4
l-36 61q22 11 47 13v11q0 8 8.5 8t8.5 -8v-11q25 -2 47 -13l6 10q4 7 11.5 2.5t3.5 -11.5zM370 62q-12 -20 -5 -42l-65 -29q-6 16 -8 35h-10q-9 0 -9 8.5t9 8.5h10q2 24 13 47l-9 5q-8 4 -3.5 11.5t11.5 3.5l10 -6q7 11 14 18l47 -53q-3 -4 -5 -7zM427 171v-11q25 -2 47 -13
l-36 -61q-10 4 -20 4q-16 0 -30 -9l-48 52q3 3 8 6l-6 9q-4 8 3.5 12t11.5 -3l6 -10q22 11 47 13v11q0 8 8.5 8t8.5 -8zM486 80q-2 -4 -5 -9v-2q-40 -72 -114 -108l-10 -4q-1 -1 -4 -2q-5 -2 -8 -3q-2 -1 -7 -3q-1 0 -2.5 -0.5t-2.5 -0.5q-38 -12 -77 -12t-77 12
q-1 0 -2.5 0.5t-2.5 0.5q-5 2 -7 3q-3 1 -8 3q-3 1 -4 2l-10 4q-74 36 -114 108v2q-3 5 -5 9q-1 1 -3 6l-3 6q-2 6 -5 14l-0.5 1l-0.5 1l-4 12v1.5v0.5q-10 34 -10 70q0 106 75 181t181 75t181 -75t75 -181q0 -36 -10 -70v-1v-1l-4 -12l-0.5 -1l-0.5 -1q-3 -8 -5 -14l-3 -6
q-2 -5 -3 -6zM44 49v0q0 -1 1 -2.5t2 -1.5zM69 17q4 -4 6 -5q-2 1 -6 5zM54 35q4 -5 6 -8q-2 3 -6 8zM107 -16l-0.5 0.5t-1.5 0.5q1 0 3 -1h-1zM87 0q3 -2 4 -4q-1 2 -4 4zM196 -39q30 -8 60 -8t60 8q-6 7 -9 14l64 29q5 -8 13 -14q48 31 77 79q-4 5 -8 8l35 62h1q6 26 6 53
q0 99 -70 169t-169 70t-169 -70t-70 -169q0 -27 6 -53h1l35 -62q-4 -3 -8 -8q29 -48 77 -79q8 6 13 14l64 -29q-3 -7 -9 -14zM404 -16q1 0 1.5 0.5t1.5 0.5q-1 0 -1.5 -0.5l-0.5 -0.5h-1zM425 0l-4 -4q1 2 4 4zM437 12q2 1 6 5q-4 -4 -6 -5zM468 48.5v0.5l-3 -4q1 0 2 1.5
t1 2zM452 27q2 3 6 8q-4 -5 -6 -8z" />
  </g>

</svg>
