<?xml version="1.0" standalone="no"?>
<!DOCTYPE svg PUBLIC "-//W3C//DTD SVG 1.1//EN" "http://www.w3.org/Graphics/SVG/1.1/DTD/svg11.dtd" >
<svg xmlns="http://www.w3.org/2000/svg" xmlns:xlink="http://www.w3.org/1999/xlink" version="1.1" viewBox="-10 0 532 512">
  <g transform="matrix(1 0 0 -1 0 448)">
   <path fill="currentColor"
d="M154 371q-9 0 -9 8.5t9 8.5h153q9 0 9 -8.5t-9 -8.5h-153zM358 346q9 0 9 -8.5t-9 -8.5h-204q-9 0 -9 8.5t9 8.5h204zM358 81q9 0 9 -8.5t-9 -8.5h-204q-9 0 -9 8.5t9 8.5h204zM358 38q9 0 9 -8.5t-9 -8.5h-204q-9 0 -9 8.5t9 8.5h204zM435 303h77v-290h-51v-26h-26v-51
h-358v51h-26v26h-51v290h77v145h358v-145zM94 431v-128h324v128h-324zM196 209q9 0 9 8.5t-9 8.5h-25q-9 0 -9 -8.5t9 -8.5h25zM205 183.5q0 8.5 -9 8.5h-25q-9 0 -9 -8.5t9 -8.5h25q9 0 9 8.5zM196 243q9 0 9 8.5t-9 8.5h-25q-9 0 -9 -8.5t9 -8.5h25zM137 209q8 0 8 8.5
t-8 8.5h-26q-9 0 -9 -8.5t9 -8.5h26zM145 183.5q0 8.5 -8 8.5h-26q-9 0 -9 -8.5t9 -8.5h26q8 0 8 8.5zM137 243q8 0 8 8.5t-8 8.5h-26q-9 0 -9 -8.5t9 -8.5h26zM77 175q8 0 8 8.5t-8 8.5h-26q-8 0 -8 -8.5t8 -8.5h26zM77 209q8 0 8 8.5t-8 8.5h-26q-8 0 -8 -8.5t8 -8.5h26z
M77 243q8 0 8 8.5t-8 8.5h-26q-8 0 -8 -8.5t8 -8.5h26zM418 -13v145h-324v-145v-34h324v34zM426.5 175q17.5 0 30 12.5t12.5 30t-12.5 30t-30 12.5t-30 -12.5t-12.5 -30t12.5 -30t30 -12.5zM401 217.5q0 25.5 25.5 25.5t25.5 -25.5t-25.5 -25.5t-25.5 25.5z" />
  </g>

</svg>
