<?xml version="1.0" standalone="no"?>
<!DOCTYPE svg PUBLIC "-//W3C//DTD SVG 1.1//EN" "http://www.w3.org/Graphics/SVG/1.1/DTD/svg11.dtd" >
<svg xmlns="http://www.w3.org/2000/svg" xmlns:xlink="http://www.w3.org/1999/xlink" version="1.1" viewBox="-10 0 522 512">
  <g transform="matrix(1 0 0 -1 0 448)">
   <path fill="currentColor"
d="M296 136q-9 -12 -24 -12q-13 0 -22 9q-10 10 -8.5 23.5t12.5 22.5l110 80q6 4 11.5 -1t0.5 -11zM465 281q31 -53 31 -114.5t-31 -114.5v-1v0q-31 -53 -84 -84v0h-1q-52 -31 -113 -31v0h-1q-26 0 -52 6q-8 2 -6.5 10t10.5 7q20 -5 41 -6v17q0 9 8.5 9t8.5 -9v-17
q47 3 89 25l-9 14q-4 8 3.5 12t11.5 -3l9 -15q40 26 66 67l-15 8q-7 4 -3 11.5t12 3.5l14 -9q23 43 25 91h-17q-9 0 -9 8.5t9 8.5h17q-2 48 -25 91l-14 -9q-2 -1 -4 -1q-5 0 -8 4q-4 8 3 12l15 8q-26 41 -66 67l-9 -15q-2 -4 -7 -4q-3 0 -5 1q-7 4 -3 12l9 14q-42 22 -89 24
v-16q0 -9 -9 -9t-9 9v17q-3 -1 -7 -1l-9 -1q-12 -1 -24 -4q-9 -2 -10.5 6.5t6.5 10.5q13 3 27 4v10h-12q-9 0 -15.5 6.5t-6.5 15t6.5 15t15.5 6.5h76q9 0 15.5 -6.5t6.5 -15t-6.5 -15t-15.5 -6.5h-12v-10q46 -5 87 -29h0.5h0.5q22 -13 41 -31l19 18l-12 13l36 36l36 -36
l-36 -37l-12 12l-19 -18q18 -19 31 -41v0v-1zM190 337q7 0 12 -5t5 -12t-5 -12t-12 -5h-42q-7 0 -12.5 5t-5.5 12t5.5 12t12.5 5h42zM190 277q7 0 12 -5t5 -12t-5 -12t-12 -5h-85q-7 0 -12 5t-5 12t5 12t12 5h85zM190 218q7 0 12 -5t5 -12.5t-5 -12.5t-12 -5h-128
q-7 0 -12 5t-5 12.5t5 12.5t12 5h128zM190 158q7 0 12 -5t5 -12t-5 -12t-12 -5h-162q-7 0 -12 5t-5 12t5 12t12 5h162zM190 98q7 0 12 -5t5 -12t-5 -12t-12 -5h-111q-7 0 -12 5t-5 12t5 12t12 5h111zM190 38q7 0 12 -5t5 -12t-5 -12t-12 -5h-60q-7 0 -12 5t-5 12t5 12t12 5
h60z" />
  </g>

</svg>
