<?xml version="1.0" standalone="no"?>
<!DOCTYPE svg PUBLIC "-//W3C//DTD SVG 1.1//EN" "http://www.w3.org/Graphics/SVG/1.1/DTD/svg11.dtd" >
<svg xmlns="http://www.w3.org/2000/svg" xmlns:xlink="http://www.w3.org/1999/xlink" version="1.1" viewBox="-10 0 532 512">
  <g transform="matrix(1 0 0 -1 0 448)">
   <path fill="currentColor"
d="M256 218q7 0 12 -5t5 -12t-5 -12t-12 -5t-12 5t-5 12t5 12t12 5zM256 447q106 0 181 -75t75 -181q0 -103 -73 -177q-34 26 -84 42t-100 16q-49 0 -99 -16t-83 -42q-73 74 -73 177q0 106 75 181t181 75zM247 405v-17q0 -9 9 -9t9 9v17q0 8 -9 8t-9 -8zM38 183h17
q9 0 9 8.5t-9 8.5h-17q-8 0 -8 -8.5t8 -8.5zM84 84q8 4 3.5 11.5t-11.5 2.5l-15 -8q-7 -4 -3 -12q2 -4 7 -4q3 0 5 1zM90 283q4 8 -3 12l-15 8q-8 5 -12 -2.5t3 -11.5l15 -9q2 -1 4 -1q5 0 8 4zM160 354q7 4 3 11l-8 15q-5 8 -12 3.5t-3 -11.5l8 -15q3 -4 8 -4q2 0 4 1z
M359 289q6 6 0 12t-12 0l-72 -72q-10 7 -22.5 6t-20.5 -10q-10 -10 -10 -24t10 -24t24 -10t24 10t10 24q0 8 -4 16zM372 371q4 8 -3 12t-12 -3l-8 -15q-4 -7 3 -12q2 -1 4 -1q5 0 8 5zM423 299q-7 -4 -3 -12q3 -4 8 -4q2 0 4 1l15 9q7 4 2.5 11.5t-11.5 2.5zM452 74
q4 8 -3 12l-15 8q-7 5 -11.5 -2.5t2.5 -11.5l15 -9q2 -1 4 -1q5 0 8 4zM474 183q8 0 8 8.5t-8 8.5h-17q-9 0 -9 -8.5t9 -8.5h17zM85 2q31 24 78 38.5t92 14.5q46 0 93 -14.5t79 -38.5q-73 -65 -171 -65t-171 65z" />
  </g>

</svg>
