<?xml version="1.0" standalone="no"?>
<!DOCTYPE svg PUBLIC "-//W3C//DTD SVG 1.1//EN" "http://www.w3.org/Graphics/SVG/1.1/DTD/svg11.dtd" >
<svg xmlns="http://www.w3.org/2000/svg" xmlns:xlink="http://www.w3.org/1999/xlink" version="1.1" viewBox="-10 0 522 512">
  <g transform="matrix(1 0 0 -1 0 448)">
   <path fill="currentColor"
d="M450 194.5q0 -11.5 -9 -20.5l-5 -4q14 -19 14 -42q0 -33 -26 -55v-26h17v-111h-68h-154v111h17v15l-92 92l-2 2q-17 11 -17 32q0 22 20 33l-37 36l145 145l1 -1q12 13 29 13q16 0 27.5 -11t11.5 -27q0 -2 -1 -5h5q16 0 27 -11t11 -27v-5q3 1 4 1q16 0 27.5 -11.5
t11.5 -27.5v-4h4q16 0 27.5 -11t11.5 -27q0 -18 -13 -29l4 -5q9 -8 9 -19.5zM313 166.5q0 -14.5 10 -24.5t24 -10t24 10t10 24.5t-10 24.5t-24 10t-24 -10t-10 -24.5zM433 248q0 8 -6.5 14.5t-15.5 6.5q-10 0 -16 -8l30 -30q8 6 8 17zM390 290q0 9 -6.5 15.5t-15.5 6.5
q-10 0 -16 -8l30 -30q8 6 8 16zM347 333q0 9 -6 15t-15 6q-10 0 -17 -8l30 -30q8 7 8 17zM283 397q-10 0 -17 -8l30 -30q8 6 8 17q0 9 -6 15t-15 6zM159 209q-17 -4 -17 -21q0 -9 6.5 -15t15.5 -6h35h24h26q9 0 15 6t6 15t-6 15t-15 6h-85h-1h-4zM308.5 -38q12.5 0 21.5 8.5
t9 21t-9 21t-21.5 8.5t-21 -8.5t-8.5 -21t8.5 -21t21 -8.5zM424 -47v77h-72q21 -19 21 -48v-29h51zM424 157l-88 -88q-8 -8 -19.5 -8t-20.5 8l-80 80h-43l76 -75l1 -1l3 -3v-23h55h99v34l3 3q23 17 23 44q0 16 -9 29zM216 440l25 -26l-145 -145l-25 26q-9 8 -9 20t9 20
l105 105q8 8 20 8t20 -8zM165 365q6 6 0 12.5t-12 -0.5l-17 -17q-6 -6 0 -12q3 -2 6.5 -2t5.5 2z" />
  </g>

</svg>
