<?xml version="1.0" standalone="no"?>
<!DOCTYPE svg PUBLIC "-//W3C//DTD SVG 1.1//EN" "http://www.w3.org/Graphics/SVG/1.1/DTD/svg11.dtd" >
<svg xmlns="http://www.w3.org/2000/svg" xmlns:xlink="http://www.w3.org/1999/xlink" version="1.1" viewBox="-10 0 532 512">
  <g transform="matrix(1 0 0 -1 0 448)">
   <path fill="currentColor"
d="M43 21v342h25v-342h-25zM444 21v342h25v-342h-25zM486 55v274h26v-274h-26zM0 55v274h26v-274h-26zM85 -13v410h342v-410h-342zM166 141q-23 0 -39 -15t-16 -36.5t16 -36.5t39 -15t39 15t17 35v1v147l145 23v-81q-16 14 -38 14q-23 0 -39.5 -15t-16.5 -36t16.5 -36
t39 -15t39 15t16.5 36v128v42v9q0 4 -3 6.5t-7 1.5l-162 -25q-7 -1 -7 -9v-28v-23v-117q-16 15 -39 15z" />
  </g>

</svg>
