<?xml version="1.0" standalone="no"?>
<!DOCTYPE svg PUBLIC "-//W3C//DTD SVG 1.1//EN" "http://www.w3.org/Graphics/SVG/1.1/DTD/svg11.dtd" >
<svg xmlns="http://www.w3.org/2000/svg" xmlns:xlink="http://www.w3.org/1999/xlink" version="1.1" viewBox="-10 0 522 512">
  <g transform="matrix(1 0 0 -1 0 448)">
   <path fill="currentColor"
d="M162 -4q0 17 17 17t17 -17t-17 -17t-17 17zM324 346h154v-180h-154v-192q0 -16 -11 -27t-26 -11h-215q-16 0 -27 11t-11 27v436q0 16 11 27t27 11h215q15 0 26 -11t11 -27v-64zM205 422q-9 0 -9 -8.5t9 -8.5h8q9 0 9 8.5t-9 8.5h-8zM145 422q-8 0 -8 -8.5t8 -8.5h34
q9 0 9 8.5t-9 8.5h-34zM179 -38q14 0 24 10t10 24t-10 24t-24 10t-24 -10t-10 -24t10 -24t24 -10zM307 55v111h-40l-79 -59v59h-34v180h153v34h-256v-325h256zM307 277.5q0 8.5 -8 8.5h-86q-8 0 -8 -8.5t8 -8.5h86q8 0 8 8.5zM418 226q9 0 9 8.5t-9 8.5h-205q-8 0 -8 -8.5
t8 -8.5h205z" />
  </g>

</svg>
