<?xml version="1.0" standalone="no"?>
<!DOCTYPE svg PUBLIC "-//W3C//DTD SVG 1.1//EN" "http://www.w3.org/Graphics/SVG/1.1/DTD/svg11.dtd" >
<svg xmlns="http://www.w3.org/2000/svg" xmlns:xlink="http://www.w3.org/1999/xlink" version="1.1" viewBox="-10 0 522 512">
  <g transform="matrix(1 0 0 -1 0 448)">
   <path fill="currentColor"
d="M410 82q19 -10 30.5 -28.5t11.5 -40.5v-26q0 -18 -36.5 -30.5t-77.5 -16.5t-82 -4t-82 4t-77.5 16.5t-36.5 30.5v28q0 21 10.5 39t29.5 28l76 42q12 6 12 20v28q-22 28 -30 62q-13 10 -13 26v34q0 13 9 23v45q-4 32 17 56q27 30 85 30t85 -30q21 -24 17 -56v-45
q9 -10 9 -23v-34q0 -21 -20 -31q-9 -27 -25 -49q-3 -5 -6 -8v-29q0 -14 12 -20z" />
  </g>

</svg>
