<?xml version="1.0" standalone="no"?>
<!DOCTYPE svg PUBLIC "-//W3C//DTD SVG 1.1//EN" "http://www.w3.org/Graphics/SVG/1.1/DTD/svg11.dtd" >
<svg xmlns="http://www.w3.org/2000/svg" xmlns:xlink="http://www.w3.org/1999/xlink" version="1.1" viewBox="-10 0 532 512">
  <g transform="matrix(1 0 0 -1 0 448)">
   <path fill="currentColor"
d="M0 83q63 -45 213.5 -45t213.5 45v-70q0 -2 -1 -4q-8 -32 -68.5 -52.5t-144.5 -20.5t-144 21t-68 52q-1 2 -1 4v70zM452 22v78l60 28v-70q0 -2 -1 -4q-8 -31 -66 -51q4 7 6 14q1 2 1 5zM236 141q89 3 148 23q26 9 43 20v-60v-5v-4v-11q-20 -20 -78.5 -34.5t-135.5 -14.5
t-135.5 14.5t-77.5 34.5v11v4v5v60q16 -11 43 -20q59 -20 148 -23h22h23zM444 201l25 8q26 9 43 21v-61v-4v-5v-11q-18 -18 -68 -32v2v5v4v73zM0 286q30 -21 89 -32.5t124.5 -11.5t124.5 11.5t89 32.5v-61v-4v-4v-11q-18 -19 -69.5 -32.5t-121.5 -16.5h-1h-1h-9h-11.5h-11.5
h-9h-1h-2q-69 3 -120.5 16.5t-69.5 32.5v11v4v4v61zM213 403q92 0 148.5 -21.5t64.5 -51.5q1 -2 1 -4v-4v-16q-20 -20 -78 -34t-135.5 -14t-136 14t-77.5 34v16v4q0 2 1 4q8 30 64.5 51.5t147.5 21.5zM444 239v65q44 11 68 27v-60v-5v-4v-11q-18 -19 -68 -32v10v5v5z
M511 375q1 -2 1 -4v-4v-15q-18 -19 -68 -32v9v5q0 2 -1 4q-9 34 -67.5 58t-153.5 24q-58 0 -105 -10q59 38 182 38q91 0 147.5 -21.5t64.5 -51.5z" />
  </g>

</svg>
