<?xml version="1.0" standalone="no"?>
<!DOCTYPE svg PUBLIC "-//W3C//DTD SVG 1.1//EN" "http://www.w3.org/Graphics/SVG/1.1/DTD/svg11.dtd" >
<svg xmlns="http://www.w3.org/2000/svg" xmlns:xlink="http://www.w3.org/1999/xlink" version="1.1" viewBox="-10 0 532 512">
  <g transform="matrix(1 0 0 -1 0 448)">
   <path fill="currentColor"
d="M265 439v-25h-18v25q0 9 9 9t9 -9zM265 285v129q20 -1 40 -6l7 25q2 8 10.5 6t5.5 -10l-6 -25q19 -6 37 -16l13 23q5 7 12 2.5t3 -11.5l-13 -22q18 -11 33 -25l18 18q6 6 12 0t0 -12l-18 -18q14 -15 25 -33l22 13q7 4 11.5 -3t-2.5 -12l-23 -13q5 -9 10 -20l-120 -46
q-10 24 -31 39t-46 17zM256 269q32 0 54.5 -22.5t22.5 -54.5t-22.5 -54.5t-54.5 -22.5t-54.5 22.5t-22.5 54.5t22.5 54.5t54.5 22.5zM256 175q7 0 12 5t5 12t-5 12t-12 5t-12 -5t-5 -12t5 -12t12 -5zM503 183h-25q-1 -20 -6 -40l25 -7q8 -2 6 -10q-1 -7 -8 -7q-1 0 -2 1
l-25 6q-6 -19 -16 -37l23 -13q7 -5 3 -12q-3 -4 -8 -4q-2 0 -4 1l-22 13q-11 -18 -25 -33l18 -18q6 -6 0 -12q-2 -3 -6 -3t-6 3l-18 18q-6 -5 -14 -11l-75 103q32 29 32 71q0 10 -3 21l120 46q1 0 1 -1l25 6q8 2 10 -6t-6 -10l-25 -7q5 -20 6 -40h25q9 0 9 -9t-9 -9z
M247 285q-25 -2 -46 -17.5t-31 -38.5l-120 45q5 12 10 21l-23 13q-7 5 -2.5 12t11.5 3l22 -13q11 18 25 33l-18 18q-6 6 0 12t12 0l18 -18q15 14 33 25l-13 22q-4 7 3 11.5t12 -2.5l13 -23q18 10 37 16l-6 25q-3 8 5.5 10t10.5 -6l7 -25q20 5 40 6v-129zM19 264l25 -6
l30 -11.5t60 -22.5l31 -11q-3 -11 -3 -21q0 -42 32 -71l-75 -103q-8 6 -14 11l-18 -18q-2 -3 -6 -3t-6 3q-6 6 0 12l18 18q-14 15 -25 33l-22 -13q-2 -1 -4 -1q-5 0 -8 4q-4 7 3 12l23 13q-10 18 -16 37l-25 -6q-1 -1 -2 -1q-7 0 -8 7q-2 8 6 10l25 7q-5 20 -6 40h-25
q-9 0 -9 9t9 9h25q1 20 6 40l-25 7q-8 2 -6 10t10 6zM374 4l13 -22q4 -7 -3 -12q-2 -1 -4 -1q-5 0 -8 4l-13 23q-18 -10 -37 -16l6 -25q3 -8 -6 -10q-1 -1 -2 -1q-6 0 -8 7l-7 25q-20 -5 -40 -6v-25q0 -9 -9 -9t-9 9v25q-20 1 -40 6l-7 -25q-1 -7 -8 -7q-1 0 -2 1
q-8 2 -6 10l6 25q-19 6 -37 16l-13 -23q-3 -4 -8 -4q-2 0 -4 1q-7 5 -3 12l13 22q-1 1 -3 2t-2 2l75 103q22 -13 48 -13t48 13l75 -103q0 -1 -2 -2t-3 -2z" />
  </g>

</svg>
