<?xml version="1.0" standalone="no"?>
<!DOCTYPE svg PUBLIC "-//W3C//DTD SVG 1.1//EN" "http://www.w3.org/Graphics/SVG/1.1/DTD/svg11.dtd" >
<svg xmlns="http://www.w3.org/2000/svg" xmlns:xlink="http://www.w3.org/1999/xlink" version="1.1" viewBox="-10 0 532 512">
  <g transform="matrix(1 0 0 -1 0 448)">
   <path fill="currentColor"
d="M446 70q6 6 12 0q3 -3 3 -6t-2.5 -6t-6 -3t-6 2.5t-2.5 6t2 6.5zM202 87q20 -10 20 -32v-11q0 -3 -0.5 -5t-5 -6t-13 -6t-25.5 -4t-41.5 -2t-41.5 2t-25.5 4t-13 6t-5 6t-0.5 5v11q0 22 19 32l32 16v4q-21 11 -29 37q-13 7 -13 22v9q0 12 9 20q2 12 6 22q2 3 4 8t0 13
q-1 5 -1 11q-1 4 2 7.5t8 3.5t8 -4q2 -3 8 -6q11 -8 27 -7h6q58 0 67 -48q9 -8 9 -20v-9q0 -15 -13 -22q-8 -26 -29 -37v-4zM265 200q-9 0 -9 8.5t9 8.5h85q8 0 8 -8.5t-8 -8.5h-85zM273 72q9 0 9 -8.5t-9 -8.5h-8q-9 0 -9 8.5t9 8.5h8zM324 72q9 0 9 -8.5t-9 -8.5h-17
q-8 0 -8 8.5t8 8.5h17zM367 72q8 0 8 -8.5t-8 -8.5h-9q-8 0 -8 8.5t8 8.5h9zM418 72q9 0 9 -8.5t-9 -8.5h-17q-8 0 -8 8.5t8 8.5h17zM452 166q9 0 9 -8.5t-9 -8.5h-187q-9 0 -9 8.5t9 8.5h187zM452 115q9 0 9 -8.5t-9 -8.5h-187q-9 0 -9 8.5t9 8.5h187zM472 329
q17 0 28.5 -12t11.5 -28v-279q0 -16 -11.5 -28t-28.5 -12h-432q-17 0 -28.5 12t-11.5 28v279q0 16 11.5 28t28.5 12h156v65q0 8 6 14t14 6h80q8 0 14 -6t6 -14v-65h156zM256 388q-14 0 -24 -10t-10 -24t10 -24t24 -10t24 10t10 24t-10 24t-24 10zM495 10v279q0 9 -6.5 15.5
t-16.5 6.5h-156v-31q0 -8 -6 -14t-14 -6h-80q-8 0 -14 6t-6 14v31h-156q-10 0 -16.5 -6.5t-6.5 -15.5v-279q0 -9 6.5 -16t16.5 -7h432q10 0 16.5 7t6.5 16z" />
  </g>

</svg>
