<?xml version="1.0" standalone="no"?>
<!DOCTYPE svg PUBLIC "-//W3C//DTD SVG 1.1//EN" "http://www.w3.org/Graphics/SVG/1.1/DTD/svg11.dtd" >
<svg xmlns="http://www.w3.org/2000/svg" xmlns:xlink="http://www.w3.org/1999/xlink" version="1.1" viewBox="-10 0 532 512">
  <g transform="matrix(1 0 0 -1 0 448)">
   <path fill="currentColor"
d="M114.5 170q-3.5 0 -5.5 3q-7 6 0 12l52 53q2 1 3 2q4 1 7 -0.5t5 -4.5q1 -2 1 -3v-221h26q9 0 9 -9t-9 -9h-71q-8 0 -8 9t8 9h27v199l-38 -37q-3 -3 -6.5 -3zM265 64q0 20 10.5 36.5t27.5 25.5q-29 19 -29 53q0 25 18 43.5t43.5 18.5t43.5 -18.5t18 -43.5q0 -34 -29 -53
q17 -9 27.5 -25.5t10.5 -36.5q0 -29 -20.5 -50t-50 -21t-50 21t-20.5 50zM291 179q0 -18 13 -31t31.5 -13t31.5 13t13 31t-13 31t-31.5 13t-31.5 -13t-13 -31zM335.5 117q-21.5 0 -37.5 -15.5t-16 -37.5t16 -37.5t37.5 -15.5t37 15.5t15.5 37.5t-15.5 37.5t-37 15.5z
M230 444q15 0 27.5 -10.5t15.5 -25.5h-19q-6 18 -24 18q-9 0 -9 9t9 9zM282 444q16 0 28.5 -10.5t15.5 -25.5h-19q-6 18 -25 18q-8 0 -8 9t8 9zM335 444q16 0 28.5 -10.5t15.5 -25.5h-19q-6 18 -25 18q-8 0 -8 9t8 9zM379 408h133v-106v-17v-345h-512v345v17v106h124h9
q3 16 15.5 26t28 10t28 -10t15.5 -26h-19q-6 18 -24.5 18t-24.5 -18h7h42q2 -4 2 -9q0 -11 -7.5 -18.5t-18.5 -7.5q-9 0 -9 -9t9 -9q18 0 31 13t13 31q0 5 -1 9h34q2 -4 2 -9q0 -11 -8 -18.5t-18 -7.5q-9 0 -9 -9t9 -9q18 0 31 13t13 31q0 5 -1 9h34q2 -4 2 -9
q0 -11 -8 -18.5t-19 -7.5q-8 0 -8 -9t8 -9q19 0 32 13t13 31q0 5 -1 9h34q2 -4 2 -9q0 -11 -8 -18.5t-19 -7.5q-8 0 -8 -9t8 -9q19 0 32 13t13 31q0 5 -1 9zM494 -42v327h-476v-327h476z" />
  </g>

</svg>
