<?xml version="1.0" standalone="no"?>
<!DOCTYPE svg PUBLIC "-//W3C//DTD SVG 1.1//EN" "http://www.w3.org/Graphics/SVG/1.1/DTD/svg11.dtd" >
<svg xmlns="http://www.w3.org/2000/svg" xmlns:xlink="http://www.w3.org/1999/xlink" version="1.1" viewBox="-10 0 532 512">
  <g transform="matrix(1 0 0 -1 0 448)">
   <path fill="currentColor"
d="M0 242q0 12 7 23h498q7 -11 7 -23v-100q0 -12 -7 -23h-498q-7 11 -7 23v100zM443.5 188q-8.5 0 -8.5 -8.5t8.5 -8.5t8.5 8.5t-8.5 8.5zM426.5 213q-8.5 0 -8.5 -8.5t8.5 -8.5t8.5 8.5t-8.5 8.5zM409.5 188q-8.5 0 -8.5 -8.5t8.5 -8.5t8.5 8.5t-8.5 8.5zM392.5 213
q-8.5 0 -8.5 -8.5t8.5 -8.5t8.5 8.5t-8.5 8.5zM375.5 188q-8.5 0 -8.5 -8.5t8.5 -8.5t8.5 8.5t-8.5 8.5zM358.5 213q-8.5 0 -8.5 -8.5t8.5 -8.5t8.5 8.5t-8.5 8.5zM341.5 188q-8.5 0 -8.5 -8.5t8.5 -8.5t8.5 8.5t-8.5 8.5zM324.5 213q-8.5 0 -8.5 -8.5t8.5 -8.5t8.5 8.5
t-8.5 8.5zM307.5 188q-8.5 0 -8.5 -8.5t8.5 -8.5t8.5 8.5t-8.5 8.5zM290.5 213q-8.5 0 -8.5 -8.5t8.5 -8.5t8.5 8.5t-8.5 8.5zM89.5 230q-15.5 0 -27 -11t-11.5 -27t11.5 -27t27 -11t27 11t11.5 27t-11.5 27t-27 11zM505 282h-498q-7 10 -7 22v100q0 17 11.5 28.5t27.5 11.5
h434q16 0 27.5 -11.5t11.5 -28.5v-100q0 -12 -7 -22zM443.5 350q-8.5 0 -8.5 -8.5t8.5 -8.5t8.5 8.5t-8.5 8.5zM426.5 375q-8.5 0 -8.5 -8.5t8.5 -8.5t8.5 8.5t-8.5 8.5zM409.5 350q-8.5 0 -8.5 -8.5t8.5 -8.5t8.5 8.5t-8.5 8.5zM392.5 375q-8.5 0 -8.5 -8.5t8.5 -8.5
t8.5 8.5t-8.5 8.5zM375.5 350q-8.5 0 -8.5 -8.5t8.5 -8.5t8.5 8.5t-8.5 8.5zM358.5 375q-8.5 0 -8.5 -8.5t8.5 -8.5t8.5 8.5t-8.5 8.5zM341.5 350q-8.5 0 -8.5 -8.5t8.5 -8.5t8.5 8.5t-8.5 8.5zM324.5 375q-8.5 0 -8.5 -8.5t8.5 -8.5t8.5 8.5t-8.5 8.5zM307.5 350
q-8.5 0 -8.5 -8.5t8.5 -8.5t8.5 8.5t-8.5 8.5zM290.5 375q-8.5 0 -8.5 -8.5t8.5 -8.5t8.5 8.5t-8.5 8.5zM89.5 393q-15.5 0 -27 -11.5t-11.5 -27.5t11.5 -27t27 -11t27 11t11.5 27t-11.5 27.5t-27 11.5zM7 102h498q7 -10 7 -22v-100q0 -17 -11.5 -28.5t-27.5 -11.5h-434
q-16 0 -27.5 11.5t-11.5 28.5v100q0 12 7 22zM89.5 -9q15.5 0 27 11.5t11.5 27.5t-11.5 27t-27 11t-27 -11t-11.5 -27t11.5 -27.5t27 -11.5zM290.5 34q8.5 0 8.5 8.5t-8.5 8.5t-8.5 -8.5t8.5 -8.5zM307.5 9q8.5 0 8.5 8.5t-8.5 8.5t-8.5 -8.5t8.5 -8.5zM324.5 34
q8.5 0 8.5 8.5t-8.5 8.5t-8.5 -8.5t8.5 -8.5zM341.5 9q8.5 0 8.5 8.5t-8.5 8.5t-8.5 -8.5t8.5 -8.5zM358.5 34q8.5 0 8.5 8.5t-8.5 8.5t-8.5 -8.5t8.5 -8.5zM375.5 9q8.5 0 8.5 8.5t-8.5 8.5t-8.5 -8.5t8.5 -8.5zM392.5 34q8.5 0 8.5 8.5t-8.5 8.5t-8.5 -8.5t8.5 -8.5z
M409.5 9q8.5 0 8.5 8.5t-8.5 8.5t-8.5 -8.5t8.5 -8.5zM426.5 34q8.5 0 8.5 8.5t-8.5 8.5t-8.5 -8.5t8.5 -8.5zM443.5 9q8.5 0 8.5 8.5t-8.5 8.5t-8.5 -8.5t8.5 -8.5z" />
  </g>

</svg>
