<?xml version="1.0" standalone="no"?>
<!DOCTYPE svg PUBLIC "-//W3C//DTD SVG 1.1//EN" "http://www.w3.org/Graphics/SVG/1.1/DTD/svg11.dtd" >
<svg xmlns="http://www.w3.org/2000/svg" xmlns:xlink="http://www.w3.org/1999/xlink" version="1.1" viewBox="-10 0 532 512">
  <g transform="matrix(1 0 0 -1 0 448)">
   <path fill="currentColor"
d="M512 192q0 -55 -22 -104t-62 -85v-1l-8 -7q-1 0 -1.5 -0.5l-1.5 -1.5q-5 -4 -12 -9q-4 -3 -5 -3q-7 -5 -15 -10q-1 -1 -4 -2q-8 -5 -17 -9l-0.5 -0.5t-1.5 -0.5q-29 -13 -61 -19h-1q-11 -2 -21 -3h-1h-1q-12 -1 -21 -1q-10 0 -21 1h-1h-1q-10 1 -21 3h-2q-32 6 -61 20
h-1.5h-0.5q-8 4 -17 9q-3 2 -4 2q-8 5 -15 10q-2 1 -5 3q-7 6 -13 11l-1 0.5l-1 0.5l-8 7q-39 36 -61 85t-22 104q0 106 75 181t181 75t181 -75t75 -181zM19 192q0 -52 20.5 -97.5t58.5 -79.5q3 3 7 5l73 40q11 6 11 18v27q-21 27 -29 60q-12 10 -12 26v33q0 12 8 22v43
q-3 31 17 55q26 30 83 30t83 -30q20 -24 17 -55v-43q8 -10 8 -22v-33q0 -21 -19 -31q-9 -26 -24 -47q-3 -5 -6 -8v-28q0 -12 11 -18l79 -39q4 -2 8 -5q38 33 59 79t21 98q0 98 -69.5 167.5t-167.5 69.5t-167.5 -69.5t-69.5 -167.5z" />
  </g>

</svg>
