<?xml version="1.0" standalone="no"?>
<!DOCTYPE svg PUBLIC "-//W3C//DTD SVG 1.1//EN" "http://www.w3.org/Graphics/SVG/1.1/DTD/svg11.dtd" >
<svg xmlns="http://www.w3.org/2000/svg" xmlns:xlink="http://www.w3.org/1999/xlink" version="1.1" viewBox="-10 0 532 512">
  <g transform="matrix(1 0 0 -1 0 448)">
   <path fill="currentColor"
d="M461 380q-9 0 -9 8.5t9 8.5h8q9 0 9 -8.5t-9 -8.5h-8zM427 380q-9 0 -9 8.5t9 8.5h8q9 0 9 -8.5t-9 -8.5h-8zM495 380q-9 0 -9 8.5t9 8.5h8q9 0 9 -8.5t-9 -8.5h-8zM469 329q9 0 9 -9t-9 -9h-8q-9 0 -9 9t9 9h8zM427 311q-9 0 -9 9t9 9h8q9 0 9 -9t-9 -9h-8zM503 329
q9 0 9 -9t-9 -9h-8q-9 0 -9 9t9 9h8zM435 354.5q0 8.5 9 8.5h8q9 0 9 -8.5t-9 -8.5h-8q-9 0 -9 8.5zM469 354.5q0 8.5 9 8.5h8q9 0 9 -8.5t-9 -8.5h-8q-9 0 -9 8.5zM469 64q9 0 9 -8.5t-9 -8.5h-8q-9 0 -9 8.5t9 8.5h8zM427 47q-9 0 -9 8.5t9 8.5h8q9 0 9 -8.5t-9 -8.5h-8z
M503 64q9 0 9 -8.5t-9 -8.5h-8q-9 0 -9 8.5t9 8.5h8zM469 -4q9 0 9 -8.5t-9 -8.5h-8q-9 0 -9 8.5t9 8.5h8zM435 -4q9 0 9 -8.5t-9 -8.5h-8q-9 0 -9 8.5t9 8.5h8zM503 -4q9 0 9 -8.5t-9 -8.5h-8q-9 0 -9 8.5t9 8.5h8zM461 21.5q0 -8.5 -9 -8.5h-8q-9 0 -9 8.5t9 8.5h8
q9 0 9 -8.5zM495 21.5q0 -8.5 -9 -8.5h-8q-9 0 -9 8.5t9 8.5h8q9 0 9 -8.5zM316 422h17h77v-136h-77h-17h-86q-38 0 -65.5 -27.5t-27.5 -66.5t27.5 -66.5t65.5 -27.5h86h17h77v-136h-77h-17h-86q-95 0 -162.5 67.5t-67.5 162.5t67.5 162.5t162.5 67.5h86zM333 81v-102h60
v102h-60zM393 405h-60v-102h60v102z" />
  </g>

</svg>
