<?xml version="1.0" standalone="no"?>
<!DOCTYPE svg PUBLIC "-//W3C//DTD SVG 1.1//EN" "http://www.w3.org/Graphics/SVG/1.1/DTD/svg11.dtd" >
<svg xmlns="http://www.w3.org/2000/svg" xmlns:xlink="http://www.w3.org/1999/xlink" version="1.1" viewBox="-10 0 532 512">
  <g transform="matrix(1 0 0 -1 0 448)">
   <path fill="currentColor"
d="M512 192q0 -78 -43 -142l-2 -3q-1 -2 -5 -7l-0.5 -0.5t-0.5 -1.5q-2 -2 -4 -5q-3 -4 -5 -5v-1h-1q-25 -30 -58 -52q-61 -39 -137 -39t-137 39q-46 30 -76 75v0q-43 64 -43 142q0 106 75 181t181 75t181 -75t75 -181zM495 192q0 75 -42.5 136t-111.5 87q36 -32 42 -79
q6 -48 -18 -100t-64 -67q-2 -1 -2 -3v-5q0 -3 3 -3h5h46h5v-1q38 -1 67 -24t39 -58q31 54 31 117zM218 185q12 -5 12 -19v-5q0 -9 -5.5 -14.5t-14.5 -5.5h-5v-52h102v52h-5q-9 0 -14.5 5.5t-5.5 14.5v5q0 14 13 19q31 12 52.5 56t19.5 85q-26 33 -68 47q-19 -36 -60 -36
q-15 0 -28 6q-16 7 -32.5 3.5t-27.5 -15.5l-6 -8v-1.5v-1.5q0 -39 21.5 -81.5t51.5 -53.5zM171 415q-69 -26 -111.5 -87t-42.5 -136q0 -63 31 -117q10 35 39 58t67 24v1h5h46h5q3 0 3 3v5q0 2 -1 3q-35 13 -59.5 59.5t-24.5 91.5q0 57 43 95zM64 49q24 -31 55 -53v93h35v51
q-36 -2 -62.5 -26t-30.5 -59l2 -4l0.5 -1zM393 -4q26 18 46 43q5 5 10 13q1 1 2 3q-4 35 -30.5 59t-62.5 26v-51h35v-93z" />
  </g>

</svg>
