<?xml version="1.0" standalone="no"?>
<!DOCTYPE svg PUBLIC "-//W3C//DTD SVG 1.1//EN" "http://www.w3.org/Graphics/SVG/1.1/DTD/svg11.dtd" >
<svg xmlns="http://www.w3.org/2000/svg" xmlns:xlink="http://www.w3.org/1999/xlink" version="1.1" viewBox="-10 0 531 512">
  <g transform="matrix(1 0 0 -1 0 448)">
   <path fill="currentColor"
d="M442 362l-15 -15q67 -69 67 -164q0 -65 -32 -119.5t-86 -85.5l27 -27q6 -6 0 -12q-2 -3 -6 -3t-6 3l-31 30q-49 -24 -104 -24t-104 24l-31 -30q-2 -3 -6 -3t-6 3q-6 6 0 12l27 27q-54 31 -86 85.5t-32 119.5q0 95 67 164l-15 15l-36 -36q-2 -3 -6 -3t-6 3
q-21 21 -21 50.5t21 50.5t50.5 21t50.5 -21q2 -3 2 -6.5t-2 -5.5l-40 -41l15 -14q67 60 158 60t158 -60l15 14l-40 41q-2 2 -2 5.5t2 6.5q21 21 50.5 21t50.5 -21t21 -50.5t-21 -50.5q-2 -3 -6 -3t-6 3zM71 175q9 0 9 8.5t-9 8.5h-9q-8 0 -8 -8.5t8 -8.5h9zM131 47
q7 6 0.5 12t-12.5 0l-6 -6q-6 -6 0 -13q2 -2 6 -2t6 2zM131 308q7 6 0 13l-6 6q-6 6 -12 0t0 -13l6 -6q3 -2 6.5 -2t5.5 2zM247 377v-9q0 -8 9 -8t9 8v9q0 9 -9 9t-9 -9zM265 -10v9q0 8 -9 8t-9 -8v-9q0 -9 9 -9t9 9zM353 174q9 0 9 8.5t-9 8.5h-63q-5 20 -25 25v90
q0 9 -9 9t-9 -9v-90q-11 -3 -18.5 -12t-7.5 -21q0 -15 10 -25.5t25 -10.5q12 0 21.5 7.5t12.5 19.5h63zM399 40q6 7 0 13l-6 6q-6 6 -12.5 0t0.5 -12l6 -7q2 -2 6 -2t6 2zM399 314q6 7 0 13t-12 0l-6 -6q-7 -7 0 -13q2 -2 5.5 -2t6.5 2zM441 192q-9 0 -9 -8.5t9 -8.5h9
q8 0 8 8.5t-8 8.5h-9zM238 182.5q0 17.5 18 17.5t18 -17.5t-18 -17.5t-18 17.5z" />
  </g>

</svg>
