<?xml version="1.0" standalone="no"?>
<!DOCTYPE svg PUBLIC "-//W3C//DTD SVG 1.1//EN" "http://www.w3.org/Graphics/SVG/1.1/DTD/svg11.dtd" >
<svg xmlns="http://www.w3.org/2000/svg" xmlns:xlink="http://www.w3.org/1999/xlink" version="1.1" viewBox="-10 0 532 512">
  <g transform="matrix(1 0 0 -1 0 448)">
   <path fill="currentColor"
d="M230 448q15 0 27.5 -10t15.5 -25h-19q-6 17 -24 17q-9 0 -9 9t9 9zM282 448q16 0 28.5 -10t15.5 -25h-19q-6 17 -25 17q-8 0 -8 9t8 9zM335 448q16 0 28.5 -10t15.5 -25h-19q-6 17 -25 17q-8 0 -8 9t8 9zM335.5 227q18.5 0 31.5 -13t13 -31t-13 -31t-31.5 -13t-31.5 13
t-13 31t13 31t31.5 13zM512 298h-512v115h124h9q3 15 15.5 25t28 10t28 -10t15.5 -25h-19q-6 17 -24.5 17t-24.5 -17h7h42q2 -5 2 -9q0 -11 -7.5 -19t-18.5 -8q-9 0 -9 -8.5t9 -8.5q18 0 31 13t13 31q0 4 -1 9h34q2 -5 2 -9q0 -11 -8 -19t-18 -8q-9 0 -9 -8.5t9 -8.5
q18 0 31 13t13 31q0 4 -1 9h34q2 -5 2 -9q0 -11 -8 -19t-19 -8q-8 0 -8 -8.5t8 -8.5q19 0 32 13t13 31q0 4 -1 9h34q2 -5 2 -9q0 -11 -8 -19t-19 -8q-8 0 -8 -8.5t8 -8.5q19 0 32 13t13 31q0 4 -1 9h133v-115zM0 280h512v-344h-512v344zM203 -2q9 0 9 8.5t-9 8.5h-26v221
q0 2 -1 4q-2 3 -5 4.5t-7 -0.5q-1 0 -3 -2l-52 -53q-7 -6 0 -12q2 -3 5.5 -3t6.5 3l38 38v-200h-27q-8 0 -8 -8.5t8 -8.5h71zM397 60v123q0 26 -18 44t-43.5 18t-43.5 -18t-18 -43.5t18 -44t43 -18.5q26 0 45 19v-80q0 -19 -13 -32t-31.5 -13t-31.5 13t-13 32q0 8 -8.5 8
t-8.5 -8q0 -26 18 -44t43.5 -18t43.5 18t18 44z" />
  </g>

</svg>
