<?xml version="1.0" standalone="no"?>
<!DOCTYPE svg PUBLIC "-//W3C//DTD SVG 1.1//EN" "http://www.w3.org/Graphics/SVG/1.1/DTD/svg11.dtd" >
<svg xmlns="http://www.w3.org/2000/svg" xmlns:xlink="http://www.w3.org/1999/xlink" version="1.1" viewBox="-10 0 532 512">
  <g transform="matrix(1 0 0 -1 0 448)">
   <path fill="currentColor"
d="M325 68q6 5 13.5 5t13 -5.5t5.5 -13t-6 -12.5l-73 -73q-1 -1 -3 -2q0 -1 -1.5 -1.5l-1.5 -0.5l-2 -1h-1q-2 -1 -4 -1t-3 1h-1h-1l-2 1l-2 1q-1 0 -1 1q-2 1 -3 2l-73 73q-5 5 -5 12.5t5 13t13 5.5t13 -5l42 -42v166q0 8 5.5 13t13 5t12.5 -5t5 -13v-166zM437 274
q32 -6 53.5 -32t21.5 -59q0 -38 -27 -65t-65 -27h-89q-1 0 -2 1h-2h-2q-1 -1 -2 -1h-21v101q0 15 -11 26t-26 11t-25.5 -11t-10.5 -26v-101h-130q-41 0 -70 29.5t-29 70.5q0 28 16.5 54.5t42.5 38.5l5 3v6v3v2v1v3q0 26 19 45t45 19q4 0 8 -1h3q3 -1 7 -2h1q3 -1 7 -3
q1 0 2 -1q4 -2 7 -4q29 -19 29 -53q0 -9 9 -9t9 9q0 38 -29 63q20 25 50 40.5t62 15.5q53 0 92 -37t44 -90q-20 1 -37 -2q-9 -1 -8 -10q1 -8 9 -8h2q20 4 42 0z" />
  </g>

</svg>
