<?xml version="1.0" standalone="no"?>
<!DOCTYPE svg PUBLIC "-//W3C//DTD SVG 1.1//EN" "http://www.w3.org/Graphics/SVG/1.1/DTD/svg11.dtd" >
<svg xmlns="http://www.w3.org/2000/svg" xmlns:xlink="http://www.w3.org/1999/xlink" version="1.1" viewBox="-10 0 532 512">
  <g transform="matrix(1 0 0 -1 0 448)">
   <path fill="currentColor"
d="M204 448q12 0 21 -9t9 -21v-174q0 -12 -9 -21t-21 -9h-174q-12 0 -21 9t-9 21v174q0 12 9 21t21 9h174zM299 214q-12 0 -21 9t-9 21v174q0 12 9 21t21 9h174q12 0 21 -9t9 -21v-174q0 -12 -9 -21t-21 -9h-174zM204 179q12 0 21 -9t9 -21v-174q0 -12 -9 -21t-21 -9h-174
q-12 0 -21 9t-9 21v174q0 12 9 21t21 9h174zM494 80q7 0 12.5 -5.5t5.5 -13t-5.5 -12.5t-12.5 -5h-90v-90q0 -7 -5 -12.5t-12.5 -5.5t-13 5.5t-5.5 12.5v90h-90q-7 0 -12.5 5t-5.5 12.5t5.5 13t12.5 5.5h90v90q0 7 5.5 12.5t13 5.5t12.5 -5.5t5 -12.5v-90h90z" />
  </g>

</svg>
