<?xml version="1.0" standalone="no"?>
<!DOCTYPE svg PUBLIC "-//W3C//DTD SVG 1.1//EN" "http://www.w3.org/Graphics/SVG/1.1/DTD/svg11.dtd" >
<svg xmlns="http://www.w3.org/2000/svg" xmlns:xlink="http://www.w3.org/1999/xlink" version="1.1" viewBox="-10 0 532 512">
  <g transform="matrix(1 0 0 -1 0 448)">
   <path fill="currentColor"
d="M503 209q9 0 9 -8.5t-9 -8.5h-25q0 -39 -27 -66.5t-66 -27.5t-66 26.5t-29 64.5q-17 20 -33 20h-1q-16 0 -34 -20q-2 -38 -28.5 -64.5t-64.5 -26.5q-37 0 -64 24.5t-30 61.5l-1 -1h-25q-9 0 -9 9t9 9h25l1 -1q3 37 30 61.5t64 24.5q34 0 59 -21.5t32 -53.5q18 15 36 15h1
q18 0 35 -15q7 32 33 53.5t60 21.5t59.5 -22t31.5 -55h1h1h25z" />
  </g>

</svg>
