<?xml version="1.0" standalone="no"?>
<!DOCTYPE svg PUBLIC "-//W3C//DTD SVG 1.1//EN" "http://www.w3.org/Graphics/SVG/1.1/DTD/svg11.dtd" >
<svg xmlns="http://www.w3.org/2000/svg" xmlns:xlink="http://www.w3.org/1999/xlink" version="1.1" viewBox="-10 0 522 512">
  <g transform="matrix(1 0 0 -1 0 448)">
   <path fill="currentColor"
d="M94 251.5q0 8.5 8.5 8.5t8.5 -8.5t-8.5 -8.5t-8.5 8.5zM119 277.5q0 8.5 9 8.5t9 -8.5t-9 -8.5t-9 8.5zM119 226.5q0 8.5 9 8.5t9 -8.5t-9 -8.5t-9 8.5zM145 251.5q0 8.5 8.5 8.5t8.5 -8.5t-8.5 -8.5t-8.5 8.5zM171 226.5q0 8.5 8.5 8.5t8.5 -8.5t-8.5 -8.5t-8.5 8.5z
M94 200.5q0 8.5 8.5 8.5t8.5 -8.5t-8.5 -8.5t-8.5 8.5zM94 149.5q0 8.5 8.5 8.5t8.5 -8.5t-8.5 -8.5t-8.5 8.5zM119 174.5q0 8.5 9 8.5t9 -8.5t-9 -8.5t-9 8.5zM119 123.5q0 8.5 9 8.5t9 -8.5t-9 -8.5t-9 8.5zM145 200.5q0 8.5 8.5 8.5t8.5 -8.5t-8.5 -8.5t-8.5 8.5z
M145 149.5q0 8.5 8.5 8.5t8.5 -8.5t-8.5 -8.5t-8.5 8.5zM196 149.5q0 8.5 8.5 8.5t8.5 -8.5t-8.5 -8.5t-8.5 8.5zM171 174.5q0 8.5 8.5 8.5t8.5 -8.5t-8.5 -8.5t-8.5 8.5zM350 132.5q0 8.5 8.5 8.5t8.5 -8.5t-8.5 -8.5t-8.5 8.5zM367 72.5q0 8.5 8.5 8.5t8.5 -8.5t-8.5 -8.5
t-8.5 8.5zM367 106.5q0 8.5 8.5 8.5t8.5 -8.5t-8.5 -8.5t-8.5 8.5zM384 46.5q0 8.5 8.5 8.5t8.5 -8.5t-8.5 -8.5t-8.5 8.5zM393 21.5q0 8.5 8.5 8.5t8.5 -8.5t-8.5 -8.5t-8.5 8.5zM418 -12.5q0 8.5 8.5 8.5t8.5 -8.5t-8.5 -8.5t-8.5 8.5zM401 72.5q0 8.5 8.5 8.5t8.5 -8.5
t-8.5 -8.5t-8.5 8.5zM401 106.5q0 8.5 8.5 8.5t8.5 -8.5t-8.5 -8.5t-8.5 8.5zM418 38.5q0 8.5 8.5 8.5t8.5 -8.5t-8.5 -8.5t-8.5 8.5zM393 -12.5q0 8.5 8.5 8.5t8.5 -8.5t-8.5 -8.5t-8.5 8.5zM435 12.5q0 8.5 8.5 8.5t8.5 -8.5t-8.5 -8.5t-8.5 8.5zM427 -46.5q0 8.5 8.5 8.5
t8.5 -8.5t-8.5 -8.5t-8.5 8.5zM171 123.5q0 8.5 8.5 8.5t8.5 -8.5t-8.5 -8.5t-8.5 8.5zM94 98.5q0 8.5 8.5 8.5t8.5 -8.5t-8.5 -8.5t-8.5 8.5zM94 46.5q0 8.5 8.5 8.5t8.5 -8.5t-8.5 -8.5t-8.5 8.5zM119 72.5q0 8.5 9 8.5t9 -8.5t-9 -8.5t-9 8.5zM119 21.5q0 8.5 9 8.5
t9 -8.5t-9 -8.5t-9 8.5zM145 98.5q0 8.5 8.5 8.5t8.5 -8.5t-8.5 -8.5t-8.5 8.5zM196 98.5q0 8.5 8.5 8.5t8.5 -8.5t-8.5 -8.5t-8.5 8.5zM145 46.5q0 8.5 8.5 8.5t8.5 -8.5t-8.5 -8.5t-8.5 8.5zM196 46.5q0 8.5 8.5 8.5t8.5 -8.5t-8.5 -8.5t-8.5 8.5zM171 72.5q0 8.5 8.5 8.5
t8.5 -8.5t-8.5 -8.5t-8.5 8.5zM222 72.5q0 8.5 8.5 8.5t8.5 -8.5t-8.5 -8.5t-8.5 8.5zM171 21.5q0 8.5 8.5 8.5t8.5 -8.5t-8.5 -8.5t-8.5 8.5zM222 21.5q0 8.5 8.5 8.5t8.5 -8.5t-8.5 -8.5t-8.5 8.5zM303 414q12 0 21 -8.5t9 -21.5v-207l-16 -28l16 -27v-156q0 -13 -9 -21.5
t-21 -8.5h-214q-12 0 -20.5 8.5t-8.5 21.5v418q0 13 8.5 21.5t20.5 8.5h56v34h102v-34h56zM316 181v203q0 5 -4 9t-9 4h-56h-102h-56q-5 0 -8.5 -4t-3.5 -9v-98q8 0 8 -8.5t-8 -8.5v-34q8 0 8 -8.5t-8 -8.5v-35q8 0 8 -8.5t-8 -8.5v-34q8 0 8 -8.5t-8 -8.5v-34q8 0 8 -8.5
t-8 -8.5v-34q8 0 8 -8.5t-8 -8.5v-34q8 0 8 -9q0 -8 -8 -8q3 -9 12 -9h214q5 0 9 3.5t4 9.5v30v51v51v19l-14 24h-16l-21 -37v-14q0 -9 -9 -9t-9 9v8h-8q-9 0 -9 8.5t9 8.5h12l20 33l-19 18h-22q-8 0 -8 8.5t8 8.5h17v18q0 8 9 8t9 -8v-23l20 -20h17zM299 98.5
q0 8.5 8.5 8.5t8.5 -8.5t-8.5 -8.5t-8.5 8.5zM247 46.5q0 8.5 9 8.5t9 -8.5t-9 -8.5t-9 8.5zM299 46.5q0 8.5 8.5 8.5t8.5 -8.5t-8.5 -8.5t-8.5 8.5zM273 72.5q0 8.5 8.5 8.5t8.5 -8.5t-8.5 -8.5t-8.5 8.5zM273 21.5q0 8.5 8.5 8.5t8.5 -8.5t-8.5 -8.5t-8.5 8.5zM94 -4.5
q0 8.5 8.5 8.5t8.5 -8.5t-8.5 -8.5t-8.5 8.5zM119 -29.5q0 8.5 9 8.5t9 -8.5t-9 -8.5t-9 8.5zM145 -4.5q0 8.5 8.5 8.5t8.5 -8.5t-8.5 -8.5t-8.5 8.5zM196 -4.5q0 8.5 8.5 8.5t8.5 -8.5t-8.5 -8.5t-8.5 8.5zM171 -29.5q0 8.5 8.5 8.5t8.5 -8.5t-8.5 -8.5t-8.5 8.5z
M222 -29.5q0 8.5 8.5 8.5t8.5 -8.5t-8.5 -8.5t-8.5 8.5zM247 -4.5q0 8.5 9 8.5t9 -8.5t-9 -8.5t-9 8.5zM299 -4.5q0 8.5 8.5 8.5t8.5 -8.5t-8.5 -8.5t-8.5 8.5zM273 -29.5q0 8.5 8.5 8.5t8.5 -8.5t-8.5 -8.5t-8.5 8.5z" />
  </g>

</svg>
