<?xml version="1.0" standalone="no"?>
<!DOCTYPE svg PUBLIC "-//W3C//DTD SVG 1.1//EN" "http://www.w3.org/Graphics/SVG/1.1/DTD/svg11.dtd" >
<svg xmlns="http://www.w3.org/2000/svg" xmlns:xlink="http://www.w3.org/1999/xlink" version="1.1" viewBox="-10 0 532 512">
  <g transform="matrix(1 0 0 -1 0 448)">
   <path fill="currentColor"
d="M256 448q106 0 181 -75t75 -181t-75 -181t-181 -75t-181 75t-75 181t75 181t181 75zM72 250q11 47 45 81t81 45q8 2 6 10t-10 6q-52 -12 -89 -49t-49 -89q-2 -8 6 -10h2q7 0 8 6zM105 233q7 0 8 6q9 36 34.5 61.5t61.5 34.5q8 2 6 10t-10 6q-41 -9 -70 -38t-38 -70
q-2 -8 6 -10h2zM155 228q5 25 22.5 42.5t42.5 22.5q8 2 6 10.5t-10 6.5q-29 -6 -50.5 -27.5t-27.5 -50.5q-2 -8 6 -10h2q7 0 9 6zM187 192q0 -29 20 -49t49 -20t49 20t20 49t-20 49t-49 20t-49 -20t-20 -49zM294 74h2q29 6 50.5 27.5t27.5 50.5q2 8 -6.5 10t-10.5 -6
q-5 -25 -22.5 -42.5t-42.5 -22.5q-8 -2 -6 -11q1 -6 8 -6zM305 33h2q40 9 69.5 38t38.5 70q2 8 -6 10t-10 -6q-9 -36 -34.5 -61.5t-61.5 -34.5q-8 -2 -6 -10q2 -6 8 -6zM407 41q37 37 49 89q2 8 -6 10t-10 -6q-11 -47 -45 -81t-81 -45q-8 -2 -6 -10q2 -7 8 -7q1 0 2 1
q52 12 89 49z" />
  </g>

</svg>
