<?xml version="1.0" standalone="no"?>
<!DOCTYPE svg PUBLIC "-//W3C//DTD SVG 1.1//EN" "http://www.w3.org/Graphics/SVG/1.1/DTD/svg11.dtd" >
<svg xmlns="http://www.w3.org/2000/svg" xmlns:xlink="http://www.w3.org/1999/xlink" version="1.1" viewBox="-10 0 532 512">
  <g transform="matrix(1 0 0 -1 0 448)">
   <path fill="currentColor"
d="M469 183v1q-1 -20 -5 -39l33 -9q9 -2 6 -10q-1 -7 -8 -7q-1 0 -2 1l-33 9q-6 -19 -15 -36l30 -17q7 -5 3 -12q-3 -4 -8 -4q-2 0 -4 1l-30 17q-10 -17 -23 -31l24 -24q6 -6 0 -12q-2 -3 -6 -3t-6 3l-24 24q-15 -13 -31 -23l17 -30q4 -7 -3 -12q-2 -1 -4 -1q-5 0 -8 4
l-17 30q-17 -9 -36 -15l9 -33q3 -8 -6 -10q-1 -1 -2 -1q-6 0 -8 7l-9 33q-19 -4 -39 -5h1v-34q0 -9 -9 -9t-9 9v34h1q-20 1 -39 5l-9 -33q-1 -7 -8 -7q-1 0 -2 1q-8 2 -6 10l9 33q-19 6 -36 15l-17 -30q-3 -4 -8 -4q-2 0 -4 1q-7 5 -3 12l17 30q-16 10 -31 23l-24 -24
q-2 -3 -6 -3t-6 3q-6 6 0 12l24 24q-13 14 -23 31l-30 -17q-2 -1 -4 -1q-5 0 -8 4q-4 7 3 12l30 17q-9 17 -15 36l-33 -9q-1 -1 -2 -1q-7 0 -8 7q-2 8 6 10l33 9q-4 19 -5 39v-1h-34q-9 0 -9 9t9 9h34v-1q1 20 5 39l-33 9q-8 2 -6 10t10 6l33 -9q6 19 15 36l-30 17
q-7 5 -2.5 12t11.5 3l30 -17q10 17 23 31l-24 24q-6 6 0 12t12 0l24 -24q15 13 31 23l-17 30q-4 7 3 11.5t12 -2.5l17 -30q17 9 36 15l-9 33q-3 8 5.5 10t10.5 -6l9 -33q18 4 37 5l1 1v33q0 9 9 9t9 -9v-33q1 0 1 -1q19 -1 37 -5l9 33q2 8 10.5 6t5.5 -10l-9 -33
q19 -6 36 -15l17 30q5 7 12 2.5t3 -11.5l-17 -30q16 -10 31 -23l24 24q6 6 12 0t0 -12l-24 -24q13 -14 23 -31l30 17q7 4 11.5 -3t-2.5 -12l-30 -17q9 -17 15 -36l33 9q8 2 10 -6t-6 -10l-33 -9q4 -19 5 -39v1h34q9 0 9 -9t-9 -9h-34zM411 282q-22 37 -58.5 60.5t-79.5 27.5
v-93v-1v-1q38 -7 57 -40q18 -31 8 -65q0 -1 -1 -5l1 -1l81 -46q18 37 16 81t-24 83zM256 243q-14 0 -26 -7q-18 -10 -23.5 -30.5t5.5 -39.5q14 -25 44 -25q14 0 26 7q18 10 23.5 30.5t-5.5 39.5q-14 25 -44 25zM166 347q-60 -35 -81 -101t8 -128l81 46l1 1q-8 24 -1 49
q9 34 39 52q12 7 26 9v2v93q-39 -3 -73 -23zM346 37q33 19 56 51l-81 47h-1v1q-9 -11 -21 -18q-20 -11 -43 -11q-38 0 -64 29l-1 -1l-81 -47q25 -35 64 -55t82 -20q48 0 90 24z" />
  </g>

</svg>
