<?xml version="1.0" standalone="no"?>
<!DOCTYPE svg PUBLIC "-//W3C//DTD SVG 1.1//EN" "http://www.w3.org/Graphics/SVG/1.1/DTD/svg11.dtd" >
<svg xmlns="http://www.w3.org/2000/svg" xmlns:xlink="http://www.w3.org/1999/xlink" version="1.1" viewBox="-10 0 522 512">
  <g transform="matrix(1 0 0 -1 0 448)">
   <path fill="currentColor"
d="M119 47h274h-274zM239 -4q0 17 17 17t17 -17t-17 -17t-17 17zM424 413q-8 2 -6 10t10 7l17 -4q8 -2 7 -11q-2 -6 -9 -6h-2zM424 162.5q8 -2.5 6 -10.5l-5 -17q-2 -6 -8 -6q-1 0 -3 1q-8 2 -5 10l5 17q2 8 10 5.5zM482.5 363.5q8.5 -2.5 5.5 -10.5l-4 -17q-2 -6 -9 -6h-2
q-8 2 -6 11l5 16q2 9 10.5 6.5zM468 313q8 -2 6 -11l-5 -16q-2 -6 -8 -6h-3q-8 2 -5 11l4 16q3 8 11 6zM410 113q8 -3 5 -11l-5 -17q-1 -6 -8 -6h-1v-105q0 -16 -11 -27t-27 -11h-214q-16 0 -27 11t-11 27v105h-1q-7 0 -8 6l-5 17q-3 8 5 11q5 1 9 -3v300q0 7 2 13l-2 4
q-2 8 7 10l6 2q11 9 25 9h214q14 0 25 -9l6 -2q9 -2 7 -10l-2 -4q2 -6 2 -13v-300q4 4 9 3zM282 422q-9 0 -9 -8.5t9 -8.5h8q9 0 9 8.5t-9 8.5h-8zM222 422q-9 0 -9 -8.5t9 -8.5h34q9 0 9 8.5t-9 8.5h-34zM256 -38q14 0 24 10t10 24t-10 24t-24 10t-24 -10t-10 -24t10 -24
t24 -10zM128 55h256v325h-256v-325zM492 392q2 -9 -6 -11q-1 -1 -3 -1q-6 0 -8 6q-2 7 -7 12q-5 6 1 12t12 0q7 -8 11 -18zM439 212.5q8 -2.5 6 -10.5l-5 -17q-2 -6 -8 -6q-2 0 -3 1q-8 2 -6 10l5 17q3 8 11 5.5zM453.5 263q8.5 -2 5.5 -11l-5 -16q-1 -7 -8 -7q-1 0 -2 1
q-8 2 -6 10l5 17q2 8 10.5 6zM29 380q-2 0 -3 1q-8 2 -6 11q4 10 11 18q6 6 12 0t1 -12q-5 -5 -7 -12q-2 -6 -8 -6zM69 409q-7 0 -9 6q-1 9 7 11l17 3q8 2 10 -6t-6 -10l-17 -4h-2zM45 341q2 -9 -6 -11h-2q-7 0 -9 6l-4 17q-3 8 5.5 10.5t10.5 -6.5zM103 140q3 -8 -5 -10
q-2 -1 -3 -1q-6 0 -8 6l-5 17q-2 8 6 10.5t10 -5.5zM89 190q2 -8 -6 -10q-1 -1 -3 -1q-6 0 -8 6l-5 17q-2 8 6 10.5t11 -5.5zM59 291q3 -9 -5 -11h-3q-6 0 -8 6l-5 16q-2 9 6 11t11 -6zM74 240q2 -8 -6 -10q-1 -1 -2 -1q-7 0 -8 7l-5 16q-3 9 5.5 11t10.5 -6z" />
  </g>

</svg>
