<?xml version="1.0" standalone="no"?>
<!DOCTYPE svg PUBLIC "-//W3C//DTD SVG 1.1//EN" "http://www.w3.org/Graphics/SVG/1.1/DTD/svg11.dtd" >
<svg xmlns="http://www.w3.org/2000/svg" xmlns:xlink="http://www.w3.org/1999/xlink" version="1.1" viewBox="-11 0 534 512">
  <g transform="matrix(1 0 0 -1 0 448)">
   <path fill="currentColor"
d="M9 -43q6 6 12 0t0 -12l-6 -7q-3 -2 -6.5 -2t-6.5 2q-6 7 0 13zM120 4h16q8 0 8 -8.5t-8 -8.5h-16q-8 0 -8 8.5t8 8.5zM167 4h15q9 0 9 -8.5t-9 -8.5h-15q-9 0 -9 8.5t9 8.5zM74 4h15q9 0 9 -8.5t-9 -8.5h-15q-9 0 -9 8.5t9 8.5zM54 -10q6 -6 0 -13l-11 -11q-3 -2 -6.5 -2
t-6.5 2q-6 7 0 13l11 11q7 6 13 0zM213 4h9q8 0 8 -8.5t-8 -8.5h-9q-8 0 -8 8.5t8 8.5zM8.5 -11q-3.5 0 -6.5 3q-6 6 0 12l34 33q2 2 5 4q1 1 2 1l1 1q1 1 2.5 1.5t2.5 0.5l2 1h2q3 1 7 1h128q8 0 8 -8.5t-8 -8.5h-128h-4l-3 -1q0 -1 -1 -1l-1 -1q-2 -1 -3 -2l-33 -33
q-3 -3 -6.5 -3zM497.5 32q-3.5 0 -6.5 3q-6 6 0 12l6 6q6 6 12.5 0t0.5 -12l-7 -6q-2 -3 -5.5 -3zM466 21q6 6 12 0t0 -12l-13 -13q-3 -2 -6.5 -2t-5.5 2q-6 6 0 12zM352 4h18q9 0 9 -8.5t-9 -8.5h-18q-8 0 -8 8.5t8 8.5zM407 4h18q9 0 9 -8.5t-9 -8.5h-18q-9 0 -9 8.5
t9 8.5zM307 4h9q8 0 8 -8.5t-8 -8.5h-9q-8 0 -8 8.5t8 8.5zM497 0q6 6 12.5 0t0.5 -12l-34 -33q-2 -3 -5 -5q-1 0 -2 -1h-1q-1 -1 -2.5 -1.5t-3.5 -1.5h-1q-1 -1 -2 -1h-7h-379l-8 -7q-2 -2 -5 -2q-4 0 -7 3q-5 7 1 12l13 11h385h4l2 1h1h1l1 1q2 1 3 3zM333 38.5
q0 8.5 8 8.5h97l23 23q6 6 12 0t0 -12l-28 -28h-104q-8 0 -8 8.5zM266 -19l-131 189q-37 49 -32.5 118t47.5 112q48 48 116 48t116 -48q43 -43 47.5 -112t-32.5 -118zM267.5 346q-24.5 0 -42 -17.5t-17.5 -42.5t17.5 -42.5t42 -17.5t42 17.5t17.5 42.5t-17.5 42.5t-42 17.5z
" />
  </g>

</svg>
