<?xml version="1.0" standalone="no"?>
<!DOCTYPE svg PUBLIC "-//W3C//DTD SVG 1.1//EN" "http://www.w3.org/Graphics/SVG/1.1/DTD/svg11.dtd" >
<svg xmlns="http://www.w3.org/2000/svg" xmlns:xlink="http://www.w3.org/1999/xlink" version="1.1" viewBox="-11 0 533 512">
  <g transform="matrix(1 0 0 -1 0 448)">
   <path fill="currentColor"
d="M501 380q4 0 7.5 -3.5t3.5 -7.5v-66h-512v66q0 4 3.5 7.5t7.5 3.5h490zM9 388q-6 0 -8.5 5.5t1.5 10.5l54 44h400l52 -44q4 -5 1.5 -10.5t-8.5 -5.5h-492zM145 21v86h222v-86h-222zM279.5 40.5q2.5 2.5 2.5 6t-3 6.5q-6 6 -12 0q-2 -3 -2 -6.5t2.5 -6t6 -2.5t6 2.5z
M324 38q9 0 9 8.5t-9 8.5h-8q-9 0 -9 -8.5t9 -8.5h8zM230 90q-8 0 -8 -8.5t8 -8.5h94q9 0 9 8.5t-9 8.5h-94zM182 87q-3 -2 -3 -5.5t2.5 -6t6 -2.5t6 2.5t2.5 6t-2 5.5q-6 6 -12 0zM188 55q-9 0 -9 -8.5t9 -8.5h42q9 0 9 8.5t-9 8.5h-42zM171 183v52h170v-52h-170zM26 -64
v358h460v-358h-460zM154 252v-86h204v86h-204zM128 124v-120h256v120h-256z" />
  </g>

</svg>
