<?xml version="1.0" standalone="no"?>
<!DOCTYPE svg PUBLIC "-//W3C//DTD SVG 1.1//EN" "http://www.w3.org/Graphics/SVG/1.1/DTD/svg11.dtd" >
<svg xmlns="http://www.w3.org/2000/svg" xmlns:xlink="http://www.w3.org/1999/xlink" version="1.1" viewBox="-10 0 532 512">
  <g transform="matrix(1 0 0 -1 0 448)">
   <path fill="currentColor"
d="M115 148q-22 0 -37.5 15.5t-15.5 37.5t15.5 37.5t37.5 15.5t37.5 -15.5t15.5 -37.5t-15.5 -37.5t-37.5 -15.5zM114.5 236q-14.5 0 -25 -10.5t-10.5 -25t10.5 -24.5t25 -10t25 10t10.5 24.5t-10.5 25t-25 10.5zM256 148q-22 0 -37.5 15.5t-15.5 37.5t15.5 37.5t37.5 15.5
t37.5 -15.5t15.5 -37.5t-15.5 -37.5t-37.5 -15.5zM256 236q-15 0 -25 -10.5t-10 -25t10 -24.5t25 -10t25 10t10 24.5t-10 25t-25 10.5zM397 148q-22 0 -37.5 15.5t-15.5 37.5t15.5 37.5t37.5 15.5t37.5 -15.5t15.5 -37.5t-15.5 -37.5t-37.5 -15.5zM397.5 236
q-14.5 0 -25 -10.5t-10.5 -25t10.5 -24.5t25 -10t25 10t10.5 24.5t-10.5 25t-25 10.5zM115 7q-22 0 -37.5 15.5t-15.5 37t15.5 37.5t37.5 16t37.5 -16t15.5 -37.5t-15.5 -37t-37.5 -15.5zM114.5 95q-14.5 0 -25 -10.5t-10.5 -25t10.5 -25t25 -10.5t25 10.5t10.5 25t-10.5 25
t-25 10.5zM256 7q-22 0 -37.5 15.5t-15.5 37t15.5 37.5t37.5 16t37.5 -16t15.5 -37.5t-15.5 -37t-37.5 -15.5zM256 95q-15 0 -25 -10.5t-10 -25t10 -25t25 -10.5t25 10.5t10 25t-10 25t-25 10.5zM397 7q-22 0 -37.5 15.5t-15.5 37t15.5 37.5t37.5 16t37.5 -16t15.5 -37.5
t-15.5 -37t-37.5 -15.5zM230 448q15 0 27.5 -10t15.5 -25h-19q-6 17 -24 17q-9 0 -9 9t9 9zM282 448q16 0 28.5 -10t15.5 -25h-19q-6 17 -25 17q-8 0 -8 9t8 9zM335 448q16 0 28.5 -10t15.5 -25h-19q-6 17 -25 17q-8 0 -8 9t8 9zM379 413h133v-97v-380h-512v380v97h124h9
q3 15 15.5 25t28 10t28 -10t15.5 -25h-19q-6 17 -24.5 17t-24.5 -17h7h42q2 -5 2 -9q0 -11 -7.5 -19t-18.5 -8q-9 0 -9 -8.5t9 -8.5q18 0 31 13t13 31q0 4 -1 9h34q2 -5 2 -9q0 -11 -8 -19t-18 -8q-9 0 -9 -8.5t9 -8.5q18 0 31 13t13 31q0 4 -1 9h34q2 -5 2 -9q0 -11 -8 -19
t-19 -8q-8 0 -8 -8.5t8 -8.5q19 0 32 13t13 31q0 4 -1 9h34q2 -5 2 -9q0 -11 -8 -19t-19 -8q-8 0 -8 -8.5t8 -8.5q19 0 32 13t13 31q0 4 -1 9zM494 -46v344h-476v-344h476z" />
  </g>

</svg>
