<?xml version="1.0" standalone="no"?>
<!DOCTYPE svg PUBLIC "-//W3C//DTD SVG 1.1//EN" "http://www.w3.org/Graphics/SVG/1.1/DTD/svg11.dtd" >
<svg xmlns="http://www.w3.org/2000/svg" xmlns:xlink="http://www.w3.org/1999/xlink" version="1.1" viewBox="-10 0 532 512">
  <g transform="matrix(1 0 0 -1 0 448)">
   <path fill="currentColor"
d="M478 410q14 0 24 -10t10 -25v-332q0 -14 -10 -24t-24 -10h-188q-8 0 -16.5 -8t-8.5 -18q0 -9 -9 -9t-9 9q0 10 -8.5 18t-16.5 8h-188q-14 0 -24 10t-10 24v332q0 15 10 25t24 10h196q9 0 17 -5v-388h18v388q8 5 17 5h196z" />
  </g>

</svg>
