<?xml version="1.0" standalone="no"?>
<!DOCTYPE svg PUBLIC "-//W3C//DTD SVG 1.1//EN" "http://www.w3.org/Graphics/SVG/1.1/DTD/svg11.dtd" >
<svg xmlns="http://www.w3.org/2000/svg" xmlns:xlink="http://www.w3.org/1999/xlink" version="1.1" viewBox="-11 0 533 512">
  <g transform="matrix(1 0 0 -1 0 448)">
   <path fill="currentColor"
d="M350 303q0 17 17 17t17 -17t-17 -17t-17 17zM503 311q9 0 9 -8.5t-9 -8.5h-17q-3 -39 -29 -69l10 -10q6 -6 0 -12q-2 -3 -5.5 -3t-6.5 3l-10 10q-30 -26 -70 -29v-18q0 -8 -8.5 -8t-8.5 8v18q-39 3 -69 29l-10 -10q-1 -1 -3 -2q16 -18 26 -39l11 4q8 3 11 -5t-5 -11
l-11 -4q8 -24 8 -48q0 -28 -10 -54l13 -6q8 -4 5 -12q-3 -5 -8 -5q-2 0 -4 1l-13 6q-25 -47 -73 -70l4 -10q3 -8 -5 -11q-2 -1 -3 -1q-6 0 -8 5l-4 11q-24 -7 -48 -7q-28 0 -54 10l-6 -14q-3 -5 -8 -5q-2 0 -4 1q-7 3 -4 11l6 14q-47 24 -70 73l-10 -5h-3q-6 0 -8 5
q-4 8 4 11l11 5q-7 23 -7 47q0 28 10 55l-14 6q-8 3 -4.5 11t11.5 4l14 -6q24 48 73 70l-5 11q-3 8 5 11t11 -5l5 -11q23 8 47 8q28 0 55 -10l6 13q3 8 11 4.5t4 -11.5l-6 -13q18 -9 33 -23q1 2 2 3l10 10q-26 30 -29 69h-18q-8 0 -8 8.5t8 8.5h18q3 40 29 70l-10 10
q-6 6 0 12t12 0l10 -10q30 26 69 29v17q0 9 8.5 9t8.5 -9v-17q40 -3 70 -29l10 10q6 6 12 0t0 -12l-10 -10q26 -30 29 -70h17zM26 98q0 -21 6 -41l96 37v4q0 14 10 24t24 10h6l42 94q-24 9 -48 9q-56 0 -96 -40t-40 -97zM162 -38q21 0 42 6l-38 96h-4q-17 0 -27 14l-97 -37
q17 -36 50.5 -57.5t73.5 -21.5zM219 -26q36 17 58 50.5t22 73.5q0 39 -20 71.5t-54 49.5l-42 -94q13 -11 13 -27q0 -17 -14 -27zM367 269q14 0 24 10t10 24t-10 24t-24 10t-24 -10t-10 -24t10 -24t24 -10z" />
  </g>

</svg>
