<?xml version="1.0" standalone="no"?>
<!DOCTYPE svg PUBLIC "-//W3C//DTD SVG 1.1//EN" "http://www.w3.org/Graphics/SVG/1.1/DTD/svg11.dtd" >
<svg xmlns="http://www.w3.org/2000/svg" xmlns:xlink="http://www.w3.org/1999/xlink" version="1.1" viewBox="-10 0 522 512">
  <g transform="matrix(1 0 0 -1 0 448)">
   <path fill="currentColor"
d="M401 414q11 0 18.5 -7.5t7.5 -18.5v-426q0 -11 -7.5 -18.5t-18.5 -7.5h-290q-11 0 -18.5 7.5t-7.5 18.5v426q0 11 7.5 18.5t18.5 7.5h106l-11 22q-4 7 3.5 11t11.5 -4l15 -29h41l23 31q5 6 12 1t2 -12l-15 -20h102zM410 -38v426q0 9 -9 9h-157l5 -10q3 1 7 1q14 0 24 -10
t10 -24t-10 -24t-24 -10t-24 10t-10 24q0 15 12 26l-9 17h-114q-9 0 -9 -9v-426q0 -9 9 -9h290q9 0 9 9zM242 364q-3 -5 -3 -10q0 -7 5 -12t12 -5t12 5t5 12t-4.5 12t-11.5 5l7 -13q3 -8 -4 -12h-4q-5 0 -8 4zM341 81q9 0 9 -8.5t-9 -8.5h-170q-9 0 -9 8.5t9 8.5h170z
M341 38q9 0 9 -8.5t-9 -8.5h-170q-9 0 -9 8.5t9 8.5h170zM341 -4q9 0 9 -8.5t-9 -8.5h-170q-9 0 -9 8.5t9 8.5h170zM341 303v-205h-170v205h170zM256 277q-18 0 -30.5 -12.5t-12.5 -30t12.5 -30t30.5 -12.5t30.5 12.5t12.5 30t-12.5 30t-30.5 12.5zM307 115v9q0 21 -15 36
t-36 15t-36 -15t-15 -36v-9h102z" />
  </g>

</svg>
