<?xml version="1.0" standalone="no"?>
<!DOCTYPE svg PUBLIC "-//W3C//DTD SVG 1.1//EN" "http://www.w3.org/Graphics/SVG/1.1/DTD/svg11.dtd" >
<svg xmlns="http://www.w3.org/2000/svg" xmlns:xlink="http://www.w3.org/1999/xlink" version="1.1" viewBox="-10 0 532 512">
  <g transform="matrix(1 0 0 -1 0 448)">
   <path fill="currentColor"
d="M256 448q106 0 181 -75t75 -181t-75 -181t-181 -75t-181 75t-75 181t75 181t181 75zM276 44v20q0 8 -6 14t-14 6t-14 -6t-6 -14v-20q0 -8 6 -13.5t14 -5.5t14 5.5t6 13.5zM304 206q41 27 41 76q-1 35 -26.5 61t-61.5 26h-1q-36 0 -62 -25q-27 -26 -27 -63q0 -9 6 -14.5
t14 -5.5t14 5.5t6 14.5q0 20 14 35q16 15 36 14q19 0 33.5 -14.5t14.5 -34.5q1 -27 -22 -42q-47 -30 -47 -88v-28q0 -8 6 -14t14 -6t14 6t6 14v28q0 37 28 55z" />
  </g>

</svg>
