<?xml version="1.0" standalone="no"?>
<!DOCTYPE svg PUBLIC "-//W3C//DTD SVG 1.1//EN" "http://www.w3.org/Graphics/SVG/1.1/DTD/svg11.dtd" >
<svg xmlns="http://www.w3.org/2000/svg" xmlns:xlink="http://www.w3.org/1999/xlink" version="1.1" viewBox="-10 0 532 512">
  <g transform="matrix(1 0 0 -1 0 448)">
   <path fill="currentColor"
d="M256 124q-25 0 -42.5 17.5t-17.5 42t17.5 42t42.5 17.5t42.5 -17.5t17.5 -42t-17.5 -42t-42.5 -17.5zM256 226q-18 0 -30.5 -12.5t-12.5 -30t12.5 -30t30.5 -12.5t30.5 12.5t12.5 30t-12.5 30t-30.5 12.5zM247 183.5q0 8.5 8.5 8.5t8.5 -8.5t-8.5 -8.5t-8.5 8.5zM0 448
h512v-329v-123v-60h-91h-100h-130h-100h-91v60v123v329zM319 431h-54v-26q20 -1 40 -6l7 26q1 5 7 6zM247 405v26h-54q6 -1 7 -6l7 -26q20 5 40 6zM193 431h-176v-310q19 6 21 26l5 28h53l6 -33q2 -11 11 -18.5t21 -7.5q10 0 18 5l28 19l37 -37l-17 -23q-10 -15 -3.5 -31.5
t24.5 -20.5l26 -5v-53l-28 -4q-13 -2 -21 -13h116q-8 11 -21 13l-28 4v53l26 5q18 4 24.5 20.5t-3.5 31.5l-17 23l37 37l28 -19q8 -5 18 -5q12 0 21 7.5t11 18.5l6 33h53l5 -28q2 -20 21 -26v310h-176h3q8 -2 6 -11l-7 -25q20 -7 38 -16l13 23q5 7 12 3t3 -12l-14 -23
q18 -11 33 -25l19 19q6 7 12 0.5t0 -12.5l-19 -19q14 -15 25 -32l23 14q7 4 11.5 -3.5t-3.5 -11.5l-22 -13q9 -17 14 -34q1 0 1 -1v-0.5v-0.5q4 -11 6 -21q2 -8 -7 -10h-2q-6 0 -8 7q-1 3 -3 12l-113 -37q-2 -1 -3 -1q-6 0 -8 6q-3 8 5 11l114 37q-22 56 -72.5 93t-110.5 40
v-119q0 -9 -9 -9t-9 9v119q-60 -3 -110.5 -40t-72.5 -93l113 -37q8 -3 6 -11q-2 -6 -8 -6q-2 0 -3 1l-113 36q-2 -8 -3 -11q-2 -8 -10.5 -6.5t-6.5 10.5t6 19v2q0 1 1 2q6 17 14 33l-23 13q-7 4 -3 11.5t12 3.5l23 -14q11 17 25 32l-19 19q-6 6 0 12.5t12 -0.5l19 -19
q15 14 32 25l-13 24q-4 7 3 11t12 -3l13 -23q18 9 37 16l-6 25q-3 9 6 11h3zM17 -47h93q18 18 18 43q0 24 -17.5 41.5t-42.5 17.5q-33 0 -51 -29v-73zM402 -47h93v73q-18 29 -51 29q-25 0 -42.5 -17.5t-17.5 -41.5q0 -25 18 -43z" />
  </g>

</svg>
