<?xml version="1.0" standalone="no"?>
<!DOCTYPE svg PUBLIC "-//W3C//DTD SVG 1.1//EN" "http://www.w3.org/Graphics/SVG/1.1/DTD/svg11.dtd" >
<svg xmlns="http://www.w3.org/2000/svg" xmlns:xlink="http://www.w3.org/1999/xlink" version="1.1" viewBox="-10 0 532 512">
  <g transform="matrix(1 0 0 -1 0 448)">
   <path fill="currentColor"
d="M498 130q14 -26 14 -55q0 -47 -33.5 -80.5t-80.5 -33.5q-45 0 -78 31.5t-35 77.5l-1 1v4v86h-56v-86v-4l-1 -1q-2 -46 -35 -77.5t-78 -31.5q-47 0 -80.5 33.5t-33.5 80.5q0 29 14 55l56 229q7 27 27.5 44.5t46.5 19.5q34 1 59 -22.5t25 -57.5v-40h56v40q0 34 25 57.5
t59 22.5q26 -2 46.5 -19.5t27.5 -44.5zM114 -20q38 0 65.5 26.5t28.5 64.5v2l0.5 1l0.5 1q0 39 -28 67t-67 28q-6 0 -12 -1h-3q-4 -1 -9 -2q-1 0 -2 -1q-11 -3 -21 -9l-2 -1q-4 -2 -8 -5l-1 -0.5l-1 -0.5q-9 -8 -16 -17l-2 -2q-3 -4 -5 -8q-13 -23 -13 -48q0 -39 28 -67
t67 -28zM398 -20q39 0 67 28t28 67q0 25 -13 47q-2 5 -5 9q-1 2 -2 2q-7 9 -16 17q-1 0 -1.5 0.5l-0.5 0.5q-4 3 -8 5q0 1 -0.5 1h-1.5q-10 6 -21 9l-1 0.5l-1 0.5q-5 1 -9 2h-3q-6 1 -12 1q-39 0 -67 -28t-28 -67v-0.5v-1.5q1 -1 1 -2v-1q2 -37 29 -63.5t65 -26.5z" />
  </g>

</svg>
