<?xml version="1.0" standalone="no"?>
<!DOCTYPE svg PUBLIC "-//W3C//DTD SVG 1.1//EN" "http://www.w3.org/Graphics/SVG/1.1/DTD/svg11.dtd" >
<svg xmlns="http://www.w3.org/2000/svg" xmlns:xlink="http://www.w3.org/1999/xlink" version="1.1" viewBox="-10 0 532 512">
  <g transform="matrix(1 0 0 -1 0 448)">
   <path fill="currentColor"
d="M330 287q22 -3 37 -20.5t15 -40t-15 -39.5t-37 -20v-201q0 -8 -9 -8t-9 8v201q-22 3 -37 20t-15 39.5t15 40t37 20.5v131q0 8 9 8t9 -8v-131zM330 201q8 0 8 8.5t-8 8.5h-18q-8 0 -8 -8.5t8 -8.5h18zM330 235q8 0 8 9t-8 9h-18q-8 0 -8 -9t8 -9h18zM200 183q22 -4 37 -21
t15 -39.5t-15 -39.5t-37 -20v-97q0 -8 -9 -8t-9 8v97q-22 3 -37 20t-15 39.5t15 39.5t37 21v235q0 8 9 8t9 -8v-235zM200 97q8 0 8 8.5t-8 8.5h-18q-8 0 -8 -8.5t8 -8.5h18zM200 131q8 0 8 9t-8 9h-18q-8 0 -8 -9t8 -9h18zM69 78q23 -3 37.5 -20t14.5 -40q0 -25 -17.5 -42.5
t-42.5 -17.5t-43 17.5t-18 42.5q0 23 15 40t37 20v340q0 8 8.5 8t8.5 -8v-340zM69 -8q9 0 9 9t-9 9h-17q-9 0 -9 -9t9 -9h17zM69 27q9 0 9 8.5t-9 8.5h-17q-9 0 -9 -8.5t9 -8.5h17zM512 331q0 -23 -15 -40t-37 -20v-305q0 -8 -8.5 -8t-8.5 8v305q-23 3 -37.5 20t-14.5 40
t14.5 40t37.5 20v27q0 8 8.5 8t8.5 -8v-27q22 -3 37 -20t15 -40zM460 305q9 0 9 8.5t-9 8.5h-17q-9 0 -9 -8.5t9 -8.5h17zM460 340q9 0 9 8.5t-9 8.5h-17q-9 0 -9 -8.5t9 -8.5h17z" />
  </g>

</svg>
