<?xml version="1.0" standalone="no"?>
<!DOCTYPE svg PUBLIC "-//W3C//DTD SVG 1.1//EN" "http://www.w3.org/Graphics/SVG/1.1/DTD/svg11.dtd" >
<svg xmlns="http://www.w3.org/2000/svg" xmlns:xlink="http://www.w3.org/1999/xlink" version="1.1" viewBox="-10 0 532 512">
  <g transform="matrix(1 0 0 -1 0 448)">
   <path fill="currentColor"
d="M371 79h1q90 3 140 26v-26v-3v-3v-25q-47 -29 -158 -29q-60 0 -106 10.5t-60 25.5v18v3v3v30q48 -27 148 -30h1h7h2h8h9h1h7zM188 186q54 -30 166 -30q102 0 158 26v-26v-3v-4v-24q-20 -12 -62.5 -20.5t-95.5 -8.5q-57 0 -102 9.5t-62 23.5q0 1 -1 1l-1 2v17v4v3v30z
M188 32q53 -30 166 -30q102 0 158 26v-32q0 -2 -1 -4q-6 -26 -53.5 -41t-107.5 -15t-107.5 15t-53.5 41q-1 2 -1 4v36zM350 292q60 0 107.5 -15t53.5 -41q1 -2 1 -3v-4v-27q-20 -13 -62.5 -21t-95.5 -8q-59 0 -105.5 10.5t-60.5 24.5v21v4q0 1 1 3q6 26 53.5 41t107.5 15z
M473 448q16 0 27.5 -11.5t11.5 -27.5v-101q0 -12 -7 -22h-25q-52 23 -134 23t-134 -23h-205q-7 10 -7 22v101q0 16 11.5 27.5t27.5 11.5h434zM89.5 320q15.5 0 27 11.5t11.5 27t-11.5 27t-27 11.5t-27 -11.5t-11.5 -27t11.5 -27t27 -11.5zM290.5 363q8.5 0 8.5 8.5t-8.5 8.5
t-8.5 -8.5t8.5 -8.5zM307.5 337q8.5 0 8.5 8.5t-8.5 8.5t-8.5 -8.5t8.5 -8.5zM324.5 363q8.5 0 8.5 8.5t-8.5 8.5t-8.5 -8.5t8.5 -8.5zM341.5 337q8.5 0 8.5 8.5t-8.5 8.5t-8.5 -8.5t8.5 -8.5zM358.5 363q8.5 0 8.5 8.5t-8.5 8.5t-8.5 -8.5t8.5 -8.5zM375.5 337
q8.5 0 8.5 8.5t-8.5 8.5t-8.5 -8.5t8.5 -8.5zM392.5 363q8.5 0 8.5 8.5t-8.5 8.5t-8.5 -8.5t8.5 -8.5zM409.5 337q8.5 0 8.5 8.5t-8.5 8.5t-8.5 -8.5t8.5 -8.5zM426.5 363q8.5 0 8.5 8.5t-8.5 8.5t-8.5 -8.5t8.5 -8.5zM443.5 337q8.5 0 8.5 8.5t-8.5 8.5t-8.5 -8.5t8.5 -8.5
zM171 124h-164q-7 10 -7 22v101q0 12 7 22h198q-29 -14 -34 -33v-3v-4v-21v-22v-30v-3v-4v-25zM89.5 235q-15.5 0 -27 -11.5t-11.5 -27.5t11.5 -27t27 -11t27 11t11.5 27t-11.5 27.5t-27 11.5zM194 -35q7 -4 5 -12t-10 -8h-1h-149q-16 0 -27.5 11.5t-11.5 27.5v100
q0 13 7 23h164v-28v-3v-3v-18v-23v-36q0 -2 1 -4q3 -15 22 -27zM89.5 -4q15.5 0 27 11t11.5 27t-11.5 27.5t-27 11.5t-27 -11.5t-11.5 -27.5t11.5 -27t27 -11z" />
  </g>

</svg>
