<?xml version="1.0" standalone="no"?>
<!DOCTYPE svg PUBLIC "-//W3C//DTD SVG 1.1//EN" "http://www.w3.org/Graphics/SVG/1.1/DTD/svg11.dtd" >
<svg xmlns="http://www.w3.org/2000/svg" xmlns:xlink="http://www.w3.org/1999/xlink" version="1.1" viewBox="-10 0 532 512">
  <g transform="matrix(1 0 0 -1 0 448)">
   <path fill="currentColor"
d="M256 448q106 0 181 -75t75 -181t-75 -181t-181 -75t-181 75t-75 181t75 181t181 75zM211 343q-16 7 -32.5 4t-27.5 -16l-6 -8v-1v-2q0 -39 21.5 -81.5t51.5 -53.5q12 -5 12 -19v-5q0 -17 -16 -20l25 -30v4h34v-4l25 30q-16 3 -16 20v5q0 14 13 19q31 12 52.5 56t19.5 85
q-26 33 -68 47q-19 -36 -60 -36q-15 0 -28 6zM320 141l-30 -36v-8l30 -20l26 64h-26zM222 105l-30 36h-26l26 -64l30 20v8zM17 192q0 -63 31 -117q10 35 39 57.5t65 25.5h3h4h41h10q3 0 3 3v5q0 3 -1 3q-35 13 -59.5 59.5t-24.5 91.5q0 57 43 95q-69 -26 -111.5 -87
t-42.5 -136zM119 38h18v-53q43 -25 94 -31l15 119h-7v15l-55 -37l-36 89q-34 -4 -58.5 -27.5t-28.5 -57.5q2 -4 3 -5l2 -2q23 -30 53 -52v42zM242 -46h-6h6zM256 -47h-1h1v0zM271 -46h5h-5zM393 -4q34 24 58 59q-4 34 -28.5 57.5t-58.5 27.5l-36 -89l-55 37v-15h-7l15 -118
q51 5 94 30v53h18v-42zM362 157q36 -2 64 -25t38 -57q31 54 31 117q0 75 -42.5 136t-111.5 87q36 -32 42 -79t-18 -99.5t-64 -67.5q-2 0 -2 -3v-5q0 -3 3 -3h10h41h9v-1z" />
  </g>

</svg>
