<?xml version="1.0" standalone="no"?>
<!DOCTYPE svg PUBLIC "-//W3C//DTD SVG 1.1//EN" "http://www.w3.org/Graphics/SVG/1.1/DTD/svg11.dtd" >
<svg xmlns="http://www.w3.org/2000/svg" xmlns:xlink="http://www.w3.org/1999/xlink" version="1.1" viewBox="-10 0 522 512">
  <g transform="matrix(1 0 0 -1 0 448)">
   <path fill="currentColor"
d="M360 73q1 1 2 1h1v-66l-26 25l-26 -25v66h1q1 0 2 -1t2 -3q5 -15 21 -15t21 15q1 2 2 3zM332 448l125 -124v-388h-402v512h277zM269 252q-9 0 -9 -8.5t9 -8.5h60q8 0 8 8.5t-8 8.5h-60zM235 243.5q0 3.5 -3 5.5q-6 6 -12 0q-2 -2 -2 -5.5t2.5 -6t6 -2.5t6 2.5t2.5 6z
M141 320q-9 0 -9 -8.5t9 -8.5h77q8 0 8 8.5t-8 8.5h-77zM141 252q-9 0 -9 -8.5t9 -8.5h42q9 0 9 8.5t-9 8.5h-42zM135 181q-3 -2 -3 -6t2.5 -6.5t6 -2.5t6 2.5t2.5 6.5t-2 6q-6 6 -12 0zM156 40q2 41 20 51q5 2 4.5 6.5t-4.5 7.5t-8 0q-23 -12 -28 -47q-2 1 -5.5 4.5
t-4.5 3.5q-4 4 -9 2t-6 -6t3 -8q4 -3 12 -9.5t12 -10.5q4 -3 9 -1t5 7zM233 53q3 -4 7 -4t7 4t0 9q-7 14 -23 9q-2 0 -10.5 -4.5t-14 -4t-8.5 7.5q-3 5 -7 5t-7 -4.5t-1 -8.5q7 -15 23 -17q7 -1 14 2q1 0 6 3.5t8 4t6 -1.5zM243 166q9 0 9 8.5t-9 8.5h-60q-8 0 -8 -8.5
t8 -8.5h60zM399 111q15 5 15 21t-15 21q-2 1 -3 3.5t0 4.5q5 11 -1 22q-5 7 -13.5 9.5t-15.5 -1.5q-6 -3 -8 3q-5 15 -21 15t-21 -15q-2 -6 -8 -3q-7 4 -15.5 1.5t-12.5 -9.5q-7 -11 -2 -22q1 -2 0.5 -4.5t-3.5 -3.5q-15 -5 -15 -21t15 -21q3 -1 3.5 -3t-0.5 -4
q-5 -12 2 -22q5 -8 14 -10v-105l43 42l43 -42v105q9 2 15 10q6 10 1 22q-1 2 0 4t3 3zM363 243.5q0 -3.5 2.5 -6t6 -2.5t6 2.5t2.5 6t-3 5.5q-6 6 -12 0q-2 -2 -2 -5.5zM311 320h120l-120 119v-119zM393 137q4 -1 4 -5t-4 -5q-9 -3 -13 -12.5t0 -18.5q2 -2 0 -5t-5 -2h-2
q-1 0 -3 1l-0.5 0.5t-1.5 0.5h-5q-15 0 -21 -15q-1 -3 -5 -3t-5 3q-5 15 -21 15q-5 0 -9 -2h-2q-4 -1 -6 2q-2 2 0 5q4 9 0 18.5t-13 12.5q-4 1 -4 5t4 5q9 4 13 13t0 18q-2 3 0 5q3 5 7 3q5 -3 10 -3q16 0 21 15q1 4 5 4t5 -4q6 -15 21 -15q6 0 10 3q4 2 7 -3q2 -2 0 -5
q-4 -9 0 -18t13 -13z" />
  </g>

</svg>
