<?xml version="1.0" standalone="no"?>
<!DOCTYPE svg PUBLIC "-//W3C//DTD SVG 1.1//EN" "http://www.w3.org/Graphics/SVG/1.1/DTD/svg11.dtd" >
<svg xmlns="http://www.w3.org/2000/svg" xmlns:xlink="http://www.w3.org/1999/xlink" version="1.1" viewBox="-10 0 532 512">
  <g transform="matrix(1 0 0 -1 0 448)">
   <path fill="currentColor"
d="M289 175.5q0 -13.5 -9.5 -23.5t-23.5 -10t-23.5 10t-9.5 23.5t9.5 23t23.5 9.5t23.5 -9.5t9.5 -23zM339 175q0 -21 -11 -40t-30 -31q-4 -2 -8 -2q-10 0 -15 8q-3 6 -1.5 12.5t7.5 10.5q25 14 25 42q0 21 -15 35.5t-35 14.5t-35 -14.5t-15 -35.5q0 -28 25 -42
q6 -4 7.5 -10.5t-2 -12.5t-10 -7.5t-12.5 1.5q-19 12 -30 31t-11 40q0 35 24.5 59t58.5 24t58.5 -24t24.5 -59zM256 431q106 0 181 -75t75 -181q0 -67 -34 -126.5t-92 -93.5q-4 -2 -8 -2q-10 0 -15 8q-3 6 -1.5 12.5t7.5 9.5q51 30 80.5 82t29.5 110q0 93 -65.5 158
t-157.5 65t-157.5 -65t-65.5 -158q0 -58 29.5 -110t80.5 -82q6 -3 7.5 -9.5t-2 -12.5t-10 -8t-12.5 2q-58 34 -92 93.5t-34 126.5q0 106 75 181t181 75zM454 175q0 -52 -26 -98t-71 -72q-6 -4 -13 -2t-10.5 7.5t-1.5 12.5t8 10q37 22 59 60.5t22 81.5q0 69 -48.5 117.5
t-116.5 48.5t-116.5 -48.5t-48.5 -117.5q0 -43 22 -81.5t59 -60.5q6 -3 8 -10t-2 -12q-5 -9 -14 -9q-5 0 -9 3q-45 26 -71 72t-26 98q0 82 58 140.5t140 58.5t140 -58.5t58 -140.5zM396 175q0 -37 -18.5 -69t-50.5 -51q-4 -3 -8 -3q-10 0 -14 8q-4 6 -2.5 13t7.5 10
q25 15 39 39.5t14 52.5q0 45 -31.5 76.5t-75.5 31.5t-75.5 -31.5t-31.5 -76.5q0 -28 14 -52.5t39 -39.5q5 -3 7 -10t-1.5 -12.5t-10 -7.5t-12.5 2q-32 19 -50.5 51t-18.5 69q0 58 41 99.5t99 41.5t99 -41.5t41 -99.5z" />
  </g>

</svg>
