<?xml version="1.0" standalone="no"?>
<!DOCTYPE svg PUBLIC "-//W3C//DTD SVG 1.1//EN" "http://www.w3.org/Graphics/SVG/1.1/DTD/svg11.dtd" >
<svg xmlns="http://www.w3.org/2000/svg" xmlns:xlink="http://www.w3.org/1999/xlink" version="1.1" viewBox="-10 0 532 512">
  <g transform="matrix(1 0 0 -1 0 448)">
   <path fill="currentColor"
d="M13 321q-5 0 -8 4q-5 7 3 12q7 6 22.5 15t59 25t87 21.5t103 -8.5t110.5 -53q8 -5 2.5 -12.5t-13.5 -1.5q-48 36 -104 49t-97 8t-82.5 -20t-55.5 -23.5t-22 -13.5q-2 -2 -5 -2zM480 210.5q8 4.5 13 -3.5q2 -3 5 -9.5t7 -26t3 -38t-11.5 -44t-32.5 -47.5q-30 -30 -83 -30
q-36 0 -65 17q-10 6 -19 13.5t-18.5 22t-14.5 31.5t-4.5 43.5t7.5 56.5q3 9 11.5 6.5t6.5 -10.5q-28 -109 40 -148q34 -17 70 -13t56 24q19 19 28.5 41t10.5 38t-2.5 32.5t-6 22.5t-4.5 9q-5 8 3 12.5zM411 448l101 -101v-128l-3 -3q-1 0 -1 1q-5 9 -16 12t-21 -2.5
t-12.5 -16.5t2.5 -21q3 -5 6 -15l-120 -120q-7 3 -13 6q-56 32 -32 127q4 12 -3.5 22.5t-20.5 11.5q-10 1 -18 -5.5t-11 -16.5q-10 -34 -8 -63.5t7 -49t17 -35t21.5 -24t19.5 -14.5l-78 -77l-228 229l55 54h-1l145 144q85 3 157 -46q6 -4 12 -10q10 -12 26 -12
q15 0 25.5 10.5t10.5 25.5q0 16 -16 28q-10 8 -21 7.5t-22 5.5q-56 34 -121 43l34 33h127z" />
  </g>

</svg>
