<?xml version="1.0" standalone="no"?>
<!DOCTYPE svg PUBLIC "-//W3C//DTD SVG 1.1//EN" "http://www.w3.org/Graphics/SVG/1.1/DTD/svg11.dtd" >
<svg xmlns="http://www.w3.org/2000/svg" xmlns:xlink="http://www.w3.org/1999/xlink" version="1.1" viewBox="-10 0 532 512">
  <g transform="matrix(1 0 0 -1 0 448)">
   <path fill="currentColor"
d="M483 409q29 -29 29 -70t-29 -70q-2 -2 -5.5 -2t-6.5 2q-6 6 0 12q24 24 24 58t-24 58q-6 6 0 12t12 0zM447 390q22 -22 22 -52t-22 -52q-2 -2 -5.5 -2t-6.5 2q-6 6 0 12q16 17 16 40t-16 40q-6 6 0 12t12 0zM41 397q-24 -24 -24 -58t24 -58q6 -6 0 -12q-3 -2 -6.5 -2
t-5.5 2q-29 29 -29 70t29 70q6 6 12 0t0 -12zM77 392q6 -6 0 -12q-16 -16 -16 -39.5t16 -39.5q6 -6 0 -12q-3 -3 -6.5 -3t-5.5 3q-22 21 -22 51.5t22 51.5q6 6 12 0zM239 -4q0 17 17 17t17 -17t-17 -17t-17 17zM363 448q16 0 27 -11t11 -27v-436q0 -16 -11 -27t-27 -11h-214
q-16 0 -27 11t-11 27v436q0 16 11 27t27 11h214zM282 422q-9 0 -9 -8.5t9 -8.5h8q9 0 9 8.5t-9 8.5h-8zM222 422q-9 0 -9 -8.5t9 -8.5h34q9 0 9 8.5t-9 8.5h-34zM256 -38q14 0 24 10t10 24t-10 24t-24 10t-24 -10t-10 -24t10 -24t24 -10zM384 55v325h-256v-325h256z" />
  </g>

</svg>
