<?xml version="1.0" standalone="no"?>
<!DOCTYPE svg PUBLIC "-//W3C//DTD SVG 1.1//EN" "http://www.w3.org/Graphics/SVG/1.1/DTD/svg11.dtd" >
<svg xmlns="http://www.w3.org/2000/svg" xmlns:xlink="http://www.w3.org/1999/xlink" version="1.1" viewBox="-10 0 522 512">
  <g transform="matrix(1 0 0 -1 0 448)">
   <path fill="currentColor"
d="M218 388q-9 0 -9 9v42q0 9 9 9h76q9 0 9 -9v-42q0 -9 -9 -9h-76zM329 431h136v-495h-418v495h136q9 0 9 -8.5t-9 -8.5h-119v-461h384v461h-119q-9 0 -9 8.5t9 8.5zM439 405v-295l-148 -148h-218v443h93v-25h180v25h93zM235 234.5q0 3.5 -3 6.5q-6 6 -12 0q-2 -3 -2 -6.5
t2.5 -6t6 -2.5t6 2.5t2.5 6zM141 311q-9 0 -9 -8.5t9 -8.5h77q8 0 8 8.5t-8 8.5h-77zM141 243q-9 0 -9 -8.5t9 -8.5h42q9 0 9 8.5t-9 8.5h-42zM135 172q-3 -2 -3 -5.5t2.5 -6t6 -2.5t6 2.5t2.5 6t-2 5.5q-6 6 -12 0zM156 32q2 40 20 50q5 3 4.5 7t-4.5 7t-8 1
q-23 -12 -28 -48q-2 2 -6 5t-4 4q-4 3 -9 1.5t-6 -5.5t3 -8q4 -3 12 -10t12 -10q4 -4 9 -2t5 8zM233 45q3 -4 7 -4t7 4t0 8q-7 14 -23 10q-2 -1 -10.5 -5.5t-14 -4t-8.5 8.5q-3 4 -7 4t-7 -4t-1 -9q7 -15 23 -16q7 -1 14 2q1 0 6 3t8 3.5t6 -0.5zM243 158q9 0 9 8.5t-9 8.5
h-60q-8 0 -8 -8.5t8 -8.5h60zM329 226q8 0 8 8.5t-8 8.5h-60q-9 0 -9 -8.5t9 -8.5h60zM377.5 228.5q2.5 2.5 2.5 6t-3 6.5q-6 6 -12 0q-2 -3 -2 -6.5t2.5 -6t6 -2.5t6 2.5zM439 86v-124h-124z" />
  </g>

</svg>
