<?xml version="1.0" standalone="no"?>
<!DOCTYPE svg PUBLIC "-//W3C//DTD SVG 1.1//EN" "http://www.w3.org/Graphics/SVG/1.1/DTD/svg11.dtd" >
<svg xmlns="http://www.w3.org/2000/svg" xmlns:xlink="http://www.w3.org/1999/xlink" version="1.1" viewBox="-10 0 532 512">
  <g transform="matrix(1 0 0 -1 0 448)">
   <path fill="currentColor"
d="M256 448q106 0 181 -75t75 -181t-75 -181t-181 -75t-181 75t-75 181t75 181t181 75zM379 172q8 0 14 6t6 14t-6 14t-14 6h-103v98q0 8 -6 14t-14 6t-14 -6t-6 -14v-98h-103q-8 0 -14 -6t-6 -14t6 -14t14 -6h103v-108q0 -8 6 -14t14 -6t14 6t6 14v108h103z" />
  </g>

</svg>
