<?xml version="1.0" standalone="no"?>
<!DOCTYPE svg PUBLIC "-//W3C//DTD SVG 1.1//EN" "http://www.w3.org/Graphics/SVG/1.1/DTD/svg11.dtd" >
<svg xmlns="http://www.w3.org/2000/svg" xmlns:xlink="http://www.w3.org/1999/xlink" version="1.1" viewBox="-10 0 522 512">
  <g transform="matrix(1 0 0 -1 0 448)">
   <path fill="currentColor"
d="M355 241h99v-179v-17v-109h-396v109v17v179h279v103q0 35 -27.5 60.5t-66.5 25.5t-67 -25.5t-28 -60.5v-29q0 -9 -9 -9t-9 9v29q0 43 33 73.5t79.5 30.5t79.5 -30.5t33 -73.5v-103zM76 44v-90l90 90h-90zM166 -46h117l90 90h-117zM436 -46v63l-63 -63h63z" />
  </g>

</svg>
