<?xml version="1.0" standalone="no"?>
<!DOCTYPE svg PUBLIC "-//W3C//DTD SVG 1.1//EN" "http://www.w3.org/Graphics/SVG/1.1/DTD/svg11.dtd" >
<svg xmlns="http://www.w3.org/2000/svg" xmlns:xlink="http://www.w3.org/1999/xlink" version="1.1" viewBox="-11 0 534 512">
  <g transform="matrix(1 0 0 -1 0 448)">
   <path fill="currentColor"
d="M263 100l119 120q43 -48 43 -113q0 -70 -49.5 -119.5t-119.5 -49.5t-119.5 49.5t-49.5 120t49.5 120t119.5 49.5q64 0 112 -43l-119 -119q-7 -8 0 -15q3 -2 7 -2t7 2zM256 366q-10 0 -10 10v60q0 10 10 10t10 -10v-60q0 -10 -10 -10zM509 341q7 -7 0 -14l-42 -43
q-3 -2 -7 -2t-7 2q-7 7 0 15l42 42q7 7 14 0zM17 341l42 -42q7 -8 0 -15q-3 -2 -7 -2t-7 2l-42 43q-7 7 0 14t14 0zM328 357q-10 2 -7 12l15 57q3 10 12.5 7.5t7.5 -12.5l-16 -57q-2 -8 -9 -8q-2 0 -3 1zM172 364l-16 57q-2 10 7.5 12.5t12.5 -7.5l15 -57q3 -10 -7 -12
q-1 -1 -3 -1q-7 0 -9 8zM435 398q9 -5 4 -14l-30 -52q-3 -5 -9 -5q-3 0 -5 2q-8 5 -3 13l29 52q5 9 14 4zM112 327q-6 0 -9 5l-30 52q-5 9 4 14t14 -4l29 -52q5 -8 -3 -13q-2 -2 -5 -2z" />
  </g>

</svg>
