<?xml version="1.0" standalone="no"?>
<!DOCTYPE svg PUBLIC "-//W3C//DTD SVG 1.1//EN" "http://www.w3.org/Graphics/SVG/1.1/DTD/svg11.dtd" >
<svg xmlns="http://www.w3.org/2000/svg" xmlns:xlink="http://www.w3.org/1999/xlink" version="1.1" viewBox="-10 0 532 512">
  <g transform="matrix(1 0 0 -1 0 448)">
   <path fill="currentColor"
d="M356.5 82q9.5 0 9.5 -9q0 -41 -29.5 -70.5t-71 -29.5t-71 29.5t-29.5 71t29.5 71t70.5 29.5q44 0 73 -33v42q0 9 9.5 9t9.5 -9v-73v0l-1 -1v-3l-1 -1.5l-1 -1.5q-1 0 -2 -1l-1 -1h-1h-1h-2h-73q-9 0 -9 9t9 9h58q-24 36 -67 36q-34 0 -58 -24t-24 -58t24 -58t58 -24
t58 24t24 58q0 9 9.5 9zM437 265q32 -6 53.5 -32t21.5 -59q0 -38 -27 -65t-65 -27h-38q-3 9 -11 14l1 1q1 2 1 4q1 1 1 2t0.5 3t0.5 3v1v73q0 11 -8 19t-19.5 8t-19.5 -8t-8 -19v-5q-26 14 -55 14q-47 0 -81 -32t-37 -78h-48q-41 0 -70 29t-29 70q0 29 16.5 55.5t42.5 38.5
l5 3v5v4v1v2v3q0 26 19 45t45 19q4 0 8 -1h3q3 -1 7 -2h1q3 -1 7 -3q1 0 2 -1q4 -2 7 -4q29 -19 29 -53q0 -10 9 -10t9 10q0 38 -29 62q20 26 50 41t62 15q53 0 92 -36.5t44 -90.5q-20 2 -37 -1q-9 -1 -8 -10q1 -8 9 -8h2q20 3 42 0z" />
  </g>

</svg>
