<?xml version="1.0" standalone="no"?>
<!DOCTYPE svg PUBLIC "-//W3C//DTD SVG 1.1//EN" "http://www.w3.org/Graphics/SVG/1.1/DTD/svg11.dtd" >
<svg xmlns="http://www.w3.org/2000/svg" xmlns:xlink="http://www.w3.org/1999/xlink" version="1.1" viewBox="-10 0 532 512">
  <g transform="matrix(1 0 0 -1 0 448)">
   <path fill="currentColor"
d="M60 341q-9 0 -9 8.5t9 8.5h17q8 0 8 -8.5t-8 -8.5h-17zM60 316q-9 0 -9 8.5t9 8.5h17q8 0 8 -8.5t-8 -8.5h-17zM60 290q-9 0 -9 8.5t9 8.5h17q8 0 8 -8.5t-8 -8.5h-17zM60 265q-9 0 -9 8.5t9 8.5h17q8 0 8 -8.5t-8 -8.5h-17zM154 341q-9 0 -9 8.5t9 8.5h17q8 0 8 -8.5
t-8 -8.5h-17zM154 316q-9 0 -9 8.5t9 8.5h17q8 0 8 -8.5t-8 -8.5h-17zM154 290q-9 0 -9 8.5t9 8.5h17q8 0 8 -8.5t-8 -8.5h-17zM154 265q-9 0 -9 8.5t9 8.5h17q8 0 8 -8.5t-8 -8.5h-17zM247 341q-8 0 -8 8.5t8 8.5h18q8 0 8 -8.5t-8 -8.5h-18zM247 316q-8 0 -8 8.5t8 8.5h18
q8 0 8 -8.5t-8 -8.5h-18zM247 290q-8 0 -8 8.5t8 8.5h18q8 0 8 -8.5t-8 -8.5h-18zM247 265q-8 0 -8 8.5t8 8.5h18q8 0 8 -8.5t-8 -8.5h-18zM358 358q9 0 9 -8.5t-9 -8.5h-17q-8 0 -8 8.5t8 8.5h17zM358 333q9 0 9 -8.5t-9 -8.5h-17q-8 0 -8 8.5t8 8.5h17zM358 307
q9 0 9 -8.5t-9 -8.5h-17q-8 0 -8 8.5t8 8.5h17zM358 282q9 0 9 -8.5t-9 -8.5h-17q-8 0 -8 8.5t8 8.5h17zM435 341q-8 0 -8 8.5t8 8.5h17q9 0 9 -8.5t-9 -8.5h-17zM435 316q-8 0 -8 8.5t8 8.5h17q9 0 9 -8.5t-9 -8.5h-17zM435 290q-8 0 -8 8.5t8 8.5h17q9 0 9 -8.5t-9 -8.5
h-17zM435 265q-8 0 -8 8.5t8 8.5h17q9 0 9 -8.5t-9 -8.5h-17zM512 410v-410h-26v-26h-51v26h-358v-26h-51v26h-26v410h512zM111 239v145h-85v-145h85zM205 239v145h-86v-145h86zM299 239v145h-86v-145h86zM307 384v-145h86v145h-86zM427 26v51h-52v-51h52zM486 26v51h-51
v-51h51zM486 239v145h-85v-145h85z" />
  </g>

</svg>
