<?xml version="1.0" standalone="no"?>
<!DOCTYPE svg PUBLIC "-//W3C//DTD SVG 1.1//EN" "http://www.w3.org/Graphics/SVG/1.1/DTD/svg11.dtd" >
<svg xmlns="http://www.w3.org/2000/svg" xmlns:xlink="http://www.w3.org/1999/xlink" version="1.1" viewBox="-10 0 522 512">
  <g transform="matrix(1 0 0 -1 0 448)">
   <path fill="currentColor"
d="M465 260q9 0 9 -8.5t-9 -8.5h-8v-34h-26v-17q0 -18 -12.5 -30.5t-30.5 -12.5q-1 0 -2 1q-8 -18 -28 -18h-52l18 -17h22q8 0 8 -8.5t-8 -8.5h-26q-2 0 -3.5 0.5t-2.5 2.5l-28 28v-22h-9v-26h-17v-17h17v-10l105 -24v-1q1 0 2 -0.5t1.5 -1l1 -1l1 -1t0.5 -1.5v-2v-1v-9
q15 -1 24.5 -12t9.5 -26t-11 -26.5t-27 -11.5t-27 11.5t-11 26.5q0 27 25 36v5l-94 21v-3l21 -20h1q16 0 27 -11.5t11 -27t-11 -27t-27 -11.5t-27.5 11.5t-11.5 26.5q0 22 19 33l-14 14h-27l-14 -14q19 -11 19 -33q0 -15 -11 -26.5t-27 -11.5t-27.5 11.5t-11.5 27t11.5 27
t27.5 11.5v0l21 20v3l-94 -21v-5q26 -9 26 -36q0 -15 -11.5 -26.5t-27 -11.5t-27 11.5t-11.5 26.5t10 26t24 12v9v1t0.5 2t1 1.5l1 1l1 1l1 1t1.5 0.5l0.5 0.5l0.5 0.5l104 24v10h17v17h-17v26h-8v25h-73q-19 0 -27 18q-16 2 -26.5 14t-10.5 28v17h-26v34h-8q-9 0 -9 8.5
t9 8.5h8h69h8q9 0 9 -8.5t-9 -8.5h-8v-34h-26v-17q0 -18 18 -24q2 10 10 17t19 7h81v9h-38q-13 0 -22.5 7.5t-11.5 19.5l-33 180q-3 15 7 27.5t26 12.5h204q16 0 26 -12.5t7 -27.5l-33 -180q-2 -12 -11.5 -19.5t-22.5 -7.5h-47v-9h81q12 0 20 -7.5t10 -18.5q11 0 18.5 7.5
t7.5 18.5v17h-26v34h-8q-9 0 -9 8.5t9 8.5h8h69h8zM277.5 380q-8.5 0 -8.5 -8.5t8.5 -8.5t8.5 8.5t-8.5 8.5zM277.5 329q-8.5 0 -8.5 -9t8.5 -9t8.5 9t-8.5 9zM277.5 277q-8.5 0 -8.5 -8.5t8.5 -8.5t8.5 8.5t-8.5 8.5zM251.5 354q-8.5 0 -8.5 -8.5t8.5 -8.5t8.5 8.5
t-8.5 8.5zM251.5 303q-8.5 0 -8.5 -8.5t8.5 -8.5t8.5 8.5t-8.5 8.5zM226.5 380q-8.5 0 -8.5 -8.5t8.5 -8.5t8.5 8.5t-8.5 8.5zM226.5 329q-8.5 0 -8.5 -9t8.5 -9t8.5 9t-8.5 9zM218 268.5q0 -8.5 8.5 -8.5t8.5 8.5t-8.5 8.5t-8.5 -8.5zM358 149q6 0 9.5 4t3.5 9t-3.5 9
t-9.5 4h-81h-51h-81q-5 0 -9 -4t-4 -9t4 -9t9 -4h73h68h72z" />
  </g>

</svg>
