<?xml version="1.0" standalone="no"?>
<!DOCTYPE svg PUBLIC "-//W3C//DTD SVG 1.1//EN" "http://www.w3.org/Graphics/SVG/1.1/DTD/svg11.dtd" >
<svg xmlns="http://www.w3.org/2000/svg" xmlns:xlink="http://www.w3.org/1999/xlink" version="1.1" viewBox="-10 0 522 512">
  <g transform="matrix(1 0 0 -1 0 448)">
   <path fill="currentColor"
d="M414 354q0 -8 -9 -8h-11q37 -46 37 -105q0 -13 -9.5 -22.5t-22.5 -9.5h-207v-26q0 -8 -9 -8h-25v-73q56 -47 59 -94q2 -30 -20 -54q-20 -18 -47.5 -18t-47.5 18q-23 24 -21 54q4 47 60 94v73h-26q-8 0 -8 8v26h-19q-14 0 -23.5 9.5t-9.5 22.5v79q0 33 22.5 57.5
t54.5 27.5v17q0 9 9 9h25q9 0 9 -9v-17h8v17q0 9 9 9h26q8 0 8 -9v-17h41q21 0 42 -5q43 -12 84 -12h12q9 0 9 -8q10 0 17.5 7.5t7.5 18t-7.5 18t-17.5 7.5q-9 0 -9 8.5t9 8.5q18 0 30.5 -12.5t12.5 -30t-12.5 -30t-30.5 -12.5v-9zM159 -38q8 16 7 36q-1 32 -17 77
q-16 -44 -17 -76q0 -20 8 -38q4 -8 9.5 -8t9.5 9zM98 7q-1 -23 16 -41q3 -2 7 -5q-6 18 -6 38q1 29 13 67q-28 -32 -30 -59zM200 6q-1 28 -30 60q12 -39 13 -68q1 -20 -5 -37q4 3 7 6q17 17 15 39zM260 252v17q0 8 -8.5 8t-8.5 -8v-17q0 -9 8.5 -9t8.5 9zM294 252v17
q0 8 -8.5 8t-8.5 -8v-17q0 -9 8.5 -9t8.5 9zM329 252v17q0 8 -9 8t-9 -8v-17q0 -9 9 -9t9 9zM363 252v17q0 8 -8.5 8t-8.5 -8v-17q0 -9 8.5 -9t8.5 9zM367.5 315q3.5 12 -6.5 19l-15 10q-40 27 -90 27h-124q-14 0 -24 -10t-10 -24t10 -24t24 -10h219q13 0 16.5 12z" />
  </g>

</svg>
