<?xml version="1.0" standalone="no"?>
<!DOCTYPE svg PUBLIC "-//W3C//DTD SVG 1.1//EN" "http://www.w3.org/Graphics/SVG/1.1/DTD/svg11.dtd" >
<svg xmlns="http://www.w3.org/2000/svg" xmlns:xlink="http://www.w3.org/1999/xlink" version="1.1" viewBox="-10 0 522 512">
  <g transform="matrix(1 0 0 -1 0 448)">
   <path fill="currentColor"
d="M444 329h-376v57q0 26 18.5 44t43.5 18h252q25 0 43.5 -18t18.5 -44v-57zM375.5 405q-14.5 0 -24.5 -10t-10 -24t10 -24t24.5 -10t24.5 10t10 24t-10 24t-24.5 10zM188 414v-68h136v68h-136zM136.5 405q-14.5 0 -24.5 -10t-10 -24t10 -24t24.5 -10t24.5 10t10 24t-10 24
t-24.5 10zM153.5 64q-8.5 0 -8.5 -9h-26v26q0 -8 9 -8t9 8.5t-9 8.5t-9 -9v51q0 -8 9 -8t9 8.5t-9 8.5t-9 -9v51q0 -8 9 -8t9 8h34q0 -8 8.5 -8t8.5 8h34q0 -8 8.5 -8t8.5 8h34q0 -8 8.5 -8t8.5 8h34q0 -8 8.5 -8t8.5 8h34q0 -8 9 -8t9 8v-51q0 9 -9 9t-9 -8.5t9 -8.5t9 8
v-51q0 9 -9 9t-9 -8.5t9 -8.5t9 8v-26h-26q0 9 -8.5 9t-8.5 -9h-34q0 9 -8.5 9t-8.5 -9h-34q0 9 -9 9t-9 -9h-34q0 9 -8.5 9t-8.5 -9h-34q0 9 -8.5 9zM358.5 166q-8.5 0 -8.5 -8.5t8.5 -8.5t8.5 8.5t-8.5 8.5zM358.5 115q-8.5 0 -8.5 -8.5t8.5 -8.5t8.5 8.5t-8.5 8.5z
M332.5 141q-8.5 0 -8.5 -8.5t8.5 -8.5t8.5 8.5t-8.5 8.5zM332.5 90q-8.5 0 -8.5 -8.5t8.5 -8.5t8.5 8.5t-8.5 8.5zM307.5 166q-8.5 0 -8.5 -8.5t8.5 -8.5t8.5 8.5t-8.5 8.5zM307.5 115q-8.5 0 -8.5 -8.5t8.5 -8.5t8.5 8.5t-8.5 8.5zM281.5 141q-8.5 0 -8.5 -8.5t8.5 -8.5
t8.5 8.5t-8.5 8.5zM281.5 90q-8.5 0 -8.5 -8.5t8.5 -8.5t8.5 8.5t-8.5 8.5zM256 166q-9 0 -9 -8.5t9 -8.5t9 8.5t-9 8.5zM256 115q-9 0 -9 -8.5t9 -8.5t9 8.5t-9 8.5zM230.5 141q-8.5 0 -8.5 -8.5t8.5 -8.5t8.5 8.5t-8.5 8.5zM230.5 90q-8.5 0 -8.5 -8.5t8.5 -8.5t8.5 8.5
t-8.5 8.5zM204.5 166q-8.5 0 -8.5 -8.5t8.5 -8.5t8.5 8.5t-8.5 8.5zM204.5 115q-8.5 0 -8.5 -8.5t8.5 -8.5t8.5 8.5t-8.5 8.5zM179.5 141q-8.5 0 -8.5 -8.5t8.5 -8.5t8.5 8.5t-8.5 8.5zM179.5 90q-8.5 0 -8.5 -8.5t8.5 -8.5t8.5 8.5t-8.5 8.5zM153.5 166q-8.5 0 -8.5 -8.5
t8.5 -8.5t8.5 8.5t-8.5 8.5zM153.5 115q-8.5 0 -8.5 -8.5t8.5 -8.5t8.5 8.5t-8.5 8.5zM68 -64v68h376v-68h-376zM444 21h-376v290h376v-290zM154 269q-11 0 -18.5 -7.5t-7.5 -18t7.5 -18t18.5 -7.5h204q11 0 18.5 7.5t7.5 18t-7.5 18t-18.5 7.5h-204zM410 201h-308v-163h308
v163z" />
  </g>

</svg>
