<?xml version="1.0" standalone="no"?>
<!DOCTYPE svg PUBLIC "-//W3C//DTD SVG 1.1//EN" "http://www.w3.org/Graphics/SVG/1.1/DTD/svg11.dtd" >
<svg xmlns="http://www.w3.org/2000/svg" xmlns:xlink="http://www.w3.org/1999/xlink" version="1.1" viewBox="-10 0 532 512">
  <g transform="matrix(1 0 0 -1 0 448)">
   <path fill="currentColor"
d="M503 444q9 0 9 -8.5t-9 -8.5v-487h-42h-17h-34v128h-308v-128h-34h-17h-42v487q-9 0 -9 8.5t9 8.5h42h17h17h17h308h17h17h17h42zM410 427h-308v-17h128h52h128v17zM102 128v-17h308v17h-128h-52h-128zM168 369q6 6 0 12.5t-12 0.5l-34 -35q-6 -6 0 -12q2 -2 6 -2t6 2z
M173 356q-6 -6 0 -12q3 -3 6.5 -3t5.5 3l26 25q6 6 0 12.5t-12 0.5zM171 332.5q0 3.5 -3 6.5q-6 6 -12 0q-2 -3 -2 -6.5t2.5 -6t6 -2.5t6 2.5t2.5 6zM122 305q-6 -6 0 -12q2 -3 6 -3t6 3l17 17q6 6 0 12t-12 0zM122 262q-6 -6 0 -12q2 -3 6 -3t6 3l77 77q6 6 0 12t-12 0z
M247 145h18v248h-18v-248zM352 168q-6 -6 0 -12q3 -2 6.5 -2t5.5 2l35 34q6 6 0 12t-13 0zM350 204.5q0 -3.5 2.5 -6t6 -2.5t6 2.5t2.5 6t-3 6.5q-6 6 -12 0q-2 -3 -2 -6.5zM399 233q6 6 0 12t-13 0l-17 -17q-6 -6 0 -12q3 -3 6.5 -3t6.5 3zM399 276q6 6 0 12t-13 0l-76 -77
q-6 -6 0 -12q2 -3 5.5 -3t6.5 3zM310 168q-6 -6 0 -12q2 -2 5.5 -2t6.5 2l25 26q6 6 0 12t-12 0zM51 -43v470h-25v-470h25zM85 -43v111v26v17v34v248v34h-17v-470h17zM444 -43v470h-17v-34v-248v-34v-17v-26v-111h17zM486 -43h-25v470h25v-470z" />
  </g>

</svg>
