<?xml version="1.0" standalone="no"?>
<!DOCTYPE svg PUBLIC "-//W3C//DTD SVG 1.1//EN" "http://www.w3.org/Graphics/SVG/1.1/DTD/svg11.dtd" >
<svg xmlns="http://www.w3.org/2000/svg" xmlns:xlink="http://www.w3.org/1999/xlink" version="1.1" viewBox="-10 0 532 512">
  <g transform="matrix(1 0 0 -1 0 448)">
   <path fill="currentColor"
d="M95 111v86h322v-86h-322zM512 245v-228h-19v-48h-19v-9q9 0 9 -9.5t-9 -9.5h-19q-10 0 -10 9.5t10 9.5v9h-19v48h-360v-48h-19v-9q9 0 9 -9.5t-9 -9.5h-19q-10 0 -10 9.5t10 9.5v9h-19v48h-19v228q0 7 5.5 12.5t12.5 5.5h39v155q0 11 7 18t18 7h348q10 0 17.5 -7t7.5 -18
v-155h39q7 0 12.5 -5.5t5.5 -12.5zM369.5 358q-9.5 0 -9.5 -9.5t9.5 -9.5t9.5 9.5t-9.5 9.5zM369.5 301q-9.5 0 -9.5 -9.5t9.5 -9.5t9.5 9.5t-9.5 9.5zM341.5 329q-9.5 0 -9.5 -9.5t9.5 -9.5t9.5 9.5t-9.5 9.5zM312.5 358q-9.5 0 -9.5 -9.5t9.5 -9.5t9.5 9.5t-9.5 9.5z
M312.5 301q-9.5 0 -9.5 -9.5t9.5 -9.5t9.5 9.5t-9.5 9.5zM284.5 386q-9.5 0 -9.5 -9.5t9.5 -9.5t9.5 9.5t-9.5 9.5zM284.5 329q-9.5 0 -9.5 -9.5t9.5 -9.5t9.5 9.5t-9.5 9.5zM284.5 273q-9.5 0 -9.5 -9.5t9.5 -9.5t9.5 9.5t-9.5 9.5zM255.5 358q-9.5 0 -9.5 -9.5t9.5 -9.5
t9.5 9.5t-9.5 9.5zM255.5 301q-9.5 0 -9.5 -9.5t9.5 -9.5t9.5 9.5t-9.5 9.5zM227.5 386q-9.5 0 -9.5 -9.5t9.5 -9.5t9.5 9.5t-9.5 9.5zM227.5 329q-9.5 0 -9.5 -9.5t9.5 -9.5t9.5 9.5t-9.5 9.5zM227.5 273q-9.5 0 -9.5 -9.5t9.5 -9.5t9.5 9.5t-9.5 9.5zM199 358
q-9 0 -9 -9.5t9 -9.5t9 9.5t-9 9.5zM199 301q-9 0 -9 -9.5t9 -9.5t9 9.5t-9 9.5zM170.5 329q-9.5 0 -9.5 -9.5t9.5 -9.5t9.5 9.5t-9.5 9.5zM142.5 358q-9.5 0 -9.5 -9.5t9.5 -9.5t9.5 9.5t-9.5 9.5zM142.5 301q-9.5 0 -9.5 -9.5t9.5 -9.5t9.5 9.5t-9.5 9.5zM493 36v208h-38
h-38v-28h-322v28h-38h-38v-208h57h360h57z" />
  </g>

</svg>
