<?xml version="1.0" standalone="no"?>
<!DOCTYPE svg PUBLIC "-//W3C//DTD SVG 1.1//EN" "http://www.w3.org/Graphics/SVG/1.1/DTD/svg11.dtd" >
<svg xmlns="http://www.w3.org/2000/svg" xmlns:xlink="http://www.w3.org/1999/xlink" version="1.1" viewBox="-10 0 532 512">
  <g transform="matrix(1 0 0 -1 0 448)">
   <path fill="currentColor"
d="M512 152q0 -18 -13.5 -31.5t-32.5 -13.5h-2l39 -126q3 -8 -6 -10q-1 -1 -2 -1q-6 0 -8 6l-39 123l-30 -122q-2 -7 -8 -7h-2q-9 2 -7 11l32 126h-58v11q0 20 7 40h-75v-34h-25v-69q0 -28 20 -48t48 -20h34q9 0 9 -8.5t-9 -8.5h-34h-188h-34q-9 0 -9 8.5t9 8.5h34
q28 0 48 20t20 48v69h-25v34h-75q7 -20 7 -40v-11h-66l40 -126q2 -8 -6 -10q-1 -1 -3 -1q-6 0 -8 6l-38 123l-31 -122q-1 -7 -8 -7h-2q-8 2 -6 11l31 126q-17 2 -28.5 15t-11.5 30v91h11q49 0 86 -34h14v9h-9q-8 0 -8 8.5t8 8.5h9h68h9q8 0 8 -8.5t-8 -8.5h-9v-9h40
q-6 12 -6 34q0 17 6 30q2 4 4 7l2 6h22v5l-14 14q-6 6 0 12.5t12 0.5l2 -3v23q-11 3 -18 12t-7 21v43h43v-17h25v-17q0 -12 -7 -21t-18 -12v-1v-9v-5l2 3q6 6 12 0t0 -13l-14 -14v-22h22l2 -6q2 -2 4 -7q6 -13 6 -30q0 -22 -6 -34h40v9h-9q-8 0 -8 8.5t8 8.5h9h68h9
q8 0 8 -8.5t-8 -8.5h-9v-9h14q37 34 86 34h11v-91zM350 218v-9h34v9h-34zM273 380h-8v-15q8 5 8 15zM239 371q0 -10 8 -15v41h-8v-26zM128 218v-9h34v9h-34zM46 124h73q-1 19 -9 37l-1 2q-4 9 -9 17q-30 43 -83 46v-74q0 -11 8.5 -19.5t20.5 -8.5zM402 161q-8 -18 -9 -37h73
q12 0 20.5 8.5t8.5 19.5v74q-53 -3 -83 -46q-5 -8 -9 -17z" />
  </g>

</svg>
