<?xml version="1.0" standalone="no"?>
<!DOCTYPE svg PUBLIC "-//W3C//DTD SVG 1.1//EN" "http://www.w3.org/Graphics/SVG/1.1/DTD/svg11.dtd" >
<svg xmlns="http://www.w3.org/2000/svg" xmlns:xlink="http://www.w3.org/1999/xlink" version="1.1" viewBox="-10 0 522 512">
  <g transform="matrix(1 0 0 -1 0 448)">
   <path fill="currentColor"
d="M111 431q-9 0 -9 8.5t9 8.5h68q9 0 9 -8.5t-9 -8.5h-68zM256 431q-9 0 -9 8.5t9 8.5h154q8 0 8 -8.5t-8 -8.5h-154zM60 21v265h392v-265h-392zM110.5 269q-8.5 0 -8.5 -9q0 -7 5 -12t12 -5h274q7 0 12 5t5 12q0 9 -8.5 9t-8.5 -9h-274q0 9 -8.5 9zM94 191v-117
q0 -15 10.5 -25.5t24.5 -10.5h254q14 0 24.5 10.5t10.5 25.5v117q0 14 -10.5 24.5t-24.5 10.5h-254q-14 0 -24.5 -10.5t-10.5 -24.5zM129 55q-7 0 -12.5 5.5t-5.5 13.5v117q0 7 4.5 12t11.5 6q-8 -1 -8 -8q0 -9 9 -9t9 9q0 8 -9 8h1h50q-8 0 -8 -8.5t8.5 -8.5t8.5 8.5
t-9 8.5h51q-8 0 -8 -8.5t8.5 -8.5t8.5 8.5t-9 8.5h52q-9 0 -9 -8.5t8.5 -8.5t8.5 8.5t-8 8.5h51q-9 0 -9 -8.5t8.5 -8.5t8.5 8.5t-8 8.5h50h1q-9 0 -9 -8q0 -9 9 -9t9 9q0 7 -8 8q7 -1 11.5 -6t4.5 -12v-117q0 -8 -5.5 -13.5t-12.5 -5.5h-254zM384 158q-9 0 -9 -8.5t9 -8.5
t9 8.5t-9 8.5zM384 107q-9 0 -9 -8.5t9 -8.5t9 8.5t-9 8.5zM358.5 183q-8.5 0 -8.5 -8.5t8.5 -8.5t8.5 8.5t-8.5 8.5zM358.5 132q-8.5 0 -8.5 -8.5t8.5 -8.5t8.5 8.5t-8.5 8.5zM358.5 81q-8.5 0 -8.5 -8.5t8.5 -8.5t8.5 8.5t-8.5 8.5zM332.5 158q-8.5 0 -8.5 -8.5t8.5 -8.5
t8.5 8.5t-8.5 8.5zM332.5 107q-8.5 0 -8.5 -8.5t8.5 -8.5t8.5 8.5t-8.5 8.5zM307.5 183q-8.5 0 -8.5 -8.5t8.5 -8.5t8.5 8.5t-8.5 8.5zM307.5 132q-8.5 0 -8.5 -8.5t8.5 -8.5t8.5 8.5t-8.5 8.5zM307.5 81q-8.5 0 -8.5 -8.5t8.5 -8.5t8.5 8.5t-8.5 8.5zM281.5 158
q-8.5 0 -8.5 -8.5t8.5 -8.5t8.5 8.5t-8.5 8.5zM281.5 107q-8.5 0 -8.5 -8.5t8.5 -8.5t8.5 8.5t-8.5 8.5zM256 183q-9 0 -9 -8.5t9 -8.5t9 8.5t-9 8.5zM256 132q-9 0 -9 -8.5t9 -8.5t9 8.5t-9 8.5zM256 81q-9 0 -9 -8.5t9 -8.5t9 8.5t-9 8.5zM230.5 158q-8.5 0 -8.5 -8.5
t8.5 -8.5t8.5 8.5t-8.5 8.5zM230.5 107q-8.5 0 -8.5 -8.5t8.5 -8.5t8.5 8.5t-8.5 8.5zM204.5 183q-8.5 0 -8.5 -8.5t8.5 -8.5t8.5 8.5t-8.5 8.5zM204.5 132q-8.5 0 -8.5 -8.5t8.5 -8.5t8.5 8.5t-8.5 8.5zM204.5 81q-8.5 0 -8.5 -8.5t8.5 -8.5t8.5 8.5t-8.5 8.5zM179.5 158
q-8.5 0 -8.5 -8.5t8.5 -8.5t8.5 8.5t-8.5 8.5zM179.5 107q-8.5 0 -8.5 -8.5t8.5 -8.5t8.5 8.5t-8.5 8.5zM153.5 183q-8.5 0 -8.5 -8.5t8.5 -8.5t8.5 8.5t-8.5 8.5zM153.5 132q-8.5 0 -8.5 -8.5t8.5 -8.5t8.5 8.5t-8.5 8.5zM153.5 81q-8.5 0 -8.5 -8.5t8.5 -8.5t8.5 8.5
t-8.5 8.5zM128 158q-9 0 -9 -8.5t9 -8.5t9 8.5t-9 8.5zM128 107q-9 0 -9 -8.5t9 -8.5t9 8.5t-9 8.5zM421 422q13 0 22 -9t9 -22v-88h-392v88q0 13 9 22t22 9h330zM128 320q14 0 24 10t10 24t-10 24t-24 10t-24 -10t-10 -24t10 -24t24 -10zM213 320q14 0 24 10t10 24t-10 24
t-24 10t-24 -10t-10 -24t10 -24t24 -10zM299 320q14 0 24 10t10 24t-10 24t-24 10t-24 -10t-10 -24t10 -24t24 -10zM384 320q14 0 24 10t10 24t-10 24t-24 10t-24 -10t-10 -24t10 -24t24 -10zM60 -33v37h392v-37q0 -13 -9 -22t-22 -9h-330q-13 0 -22 9t-9 22z" />
  </g>

</svg>
