<?xml version="1.0" standalone="no"?>
<!DOCTYPE svg PUBLIC "-//W3C//DTD SVG 1.1//EN" "http://www.w3.org/Graphics/SVG/1.1/DTD/svg11.dtd" >
<svg xmlns="http://www.w3.org/2000/svg" xmlns:xlink="http://www.w3.org/1999/xlink" version="1.1" viewBox="-10 0 532 512">
  <g transform="matrix(1 0 0 -1 0 448)">
   <path fill="currentColor"
d="M0 448h512v-512h-43v26h-426v-26h-43v512zM495 -47v478h-478v-478h9v26h460v-26h9zM26 354v68h111v-68h-111zM375 354v68h111v-68h-111zM154 354v68h93v-68h-93zM265 354v68h93v-68h-93zM486 124v-51h-111v51h111zM435 90q9 0 9 8.5t-9 8.5h-25q-9 0 -9 -8.5t9 -8.5h25z
M247 124v-51h-93v51h93zM213 90q9 0 9 8.5t-9 8.5h-25q-9 0 -9 -8.5t9 -8.5h25zM137 124v-51h-111v51h111zM102 90q9 0 9 8.5t-9 8.5h-25q-9 0 -9 -8.5t9 -8.5h25zM358 124v-51h-93v51h93zM324 90q9 0 9 8.5t-9 8.5h-25q-9 0 -9 -8.5t9 -8.5h25zM137 337v-196h-111v196h111z
M128 226v34q0 9 -8.5 9t-8.5 -9v-34q0 -8 8.5 -8t8.5 8zM486 337v-196h-111v196h111zM401 226v34q0 9 -8.5 9t-8.5 -9v-34q0 -8 8.5 -8t8.5 8zM486 55v-68h-111v68h111zM435 21q9 0 9 8.5t-9 8.5h-25q-9 0 -9 -8.5t9 -8.5h25zM358 55v-68h-93v68h93zM324 21q9 0 9 8.5
t-9 8.5h-25q-9 0 -9 -8.5t9 -8.5h25zM247 55v-68h-93v68h93zM213 21q9 0 9 8.5t-9 8.5h-25q-9 0 -9 -8.5t9 -8.5h25zM247 337v-196h-93v196h93zM179 226v34q0 9 -8.5 9t-8.5 -9v-34q0 -8 8.5 -8t8.5 8zM358 337v-196h-93v196h93zM350 226v34q0 9 -8.5 9t-8.5 -9v-34
q0 -8 8.5 -8t8.5 8zM137 55v-68h-111v68h111zM102 21q9 0 9 8.5t-9 8.5h-25q-9 0 -9 -8.5t9 -8.5h25z" />
  </g>

</svg>
