<?xml version="1.0" standalone="no"?>
<!DOCTYPE svg PUBLIC "-//W3C//DTD SVG 1.1//EN" "http://www.w3.org/Graphics/SVG/1.1/DTD/svg11.dtd" >
<svg xmlns="http://www.w3.org/2000/svg" xmlns:xlink="http://www.w3.org/1999/xlink" version="1.1" viewBox="-10 0 532 512">
  <g transform="matrix(1 0 0 -1 0 448)">
   <path fill="currentColor"
d="M506 179q6 -2 6 -8q0 -9 -9 -9h-170q7 0 8 -7l16 -95q8 -47 -23 -83.5t-78.5 -36.5t-78 36.5t-22.5 83.5l16 95q1 7 8 7h-170q-7 0 -8.5 6.5t3.5 9.5l167 92v20q0 9 8 9h17v17h-8q-9 0 -9 8v26q0 8 9 8h42v26q0 8 9 8h8v43q0 9 8.5 9t8.5 -9v-43h9q9 0 9 -8v-26h42
q9 0 9 -8v-26q0 -8 -9 -8h-8v-17h17q8 0 8 -9v-20zM282 153.5q0 8.5 -9 8.5h-34q-11 0 -18.5 -7.5t-7.5 -18t7.5 -18t18.5 -7.5h8v-17h-8q-11 0 -18.5 -7.5t-7.5 -18t7.5 -18t18.5 -7.5h8v-26q0 -8 8.5 -8t8.5 8q0 -8 9 -8q11 0 18.5 7.5t7.5 18t-7.5 18t-18.5 7.5h-9v17h9
q11 0 18.5 7.5t7.5 18t-7.5 18t-18.5 7.5h-9v17h9q9 0 9 8.5zM273 26q-9 0 -9 -9v26h9q9 0 9 -8.5t-9 -8.5zM282 102.5q0 -8.5 -9 -8.5h-9v17h9q9 0 9 -8.5zM230 68.5q0 8.5 9 8.5h8v-17h-8q-9 0 -9 8.5zM230 136.5q0 8.5 9 8.5h8v-17h-8q-9 0 -9 8.5z" />
  </g>

</svg>
