<?xml version="1.0" standalone="no"?>
<!DOCTYPE svg PUBLIC "-//W3C//DTD SVG 1.1//EN" "http://www.w3.org/Graphics/SVG/1.1/DTD/svg11.dtd" >
<svg xmlns="http://www.w3.org/2000/svg" xmlns:xlink="http://www.w3.org/1999/xlink" version="1.1" viewBox="-10 0 532 512">
  <g transform="matrix(1 0 0 -1 0 448)">
   <path fill="currentColor"
d="M495 431v-444h17v-51h-512v51h17v444h-8q-9 0 -9 8.5t9 8.5h8h478h8q9 0 9 -8.5t-9 -8.5h-8zM34 431v-444h9v162v17v17v18v221h153h34h52h34h153v-221v-18v-17v-17v-162h9v444h-444zM258 4l5 -17h38l4 17h-6q-9 0 -9 8.5t9 8.5h10h7h8v9h-85v-9h8h7h11q8 0 8 -8.5
t-8 -8.5h-7zM282 70q6 5 13 6q1 4 2.5 7.5t3.5 6.5q-2 3 -3.5 6.5t-2.5 6.5q-7 1 -13 6q-6 -5 -14 -6q-1 -3 -2 -6.5t-4 -6.5q3 -3 4 -6.5t2 -7.5q8 -1 14 -6zM322 4l-4 -17h52l35 77h-12q-9 0 -9 8.5t9 8.5h6q-21 27 -37 68h-212q-16 -41 -37 -68h6q9 0 9 -8.5t-9 -8.5h-12
l35 -77h103l-4 17h-19v43h51v7q-3 8 -11 4q-6 -3 -10.5 1.5t-1.5 9.5q2 4 0.5 7.5t-5.5 4.5q-6 2 -6 8q0 7 6 9q4 1 5.5 4.5t-0.5 6.5q-3 6 2 10q4 5 9 2q2 -1 4 -1q6 0 8 6t8 6q7 0 9 -5q3 -10 11 -6q6 3 10.5 -1.5t1.5 -9.5q-1 -4 0 -7.5t5 -4.5q6 -2 6 -8q0 -7 -5 -8
q-5 -2 -6 -5.5t0 -6.5q3 -6 -1 -10q-5 -5 -10 -2q-2 1 -4 1q-6 0 -8 -5v-7h51v-43h-19zM60 183v-17h97h198h97v17h-102h-85v222h-18v-222h-85h-102zM230 405h-34q-4 -113 -29 -204h63v204zM316 405h-34v-204h63q-25 91 -29 204z" />
  </g>

</svg>
