<?xml version="1.0" standalone="no"?>
<!DOCTYPE svg PUBLIC "-//W3C//DTD SVG 1.1//EN" "http://www.w3.org/Graphics/SVG/1.1/DTD/svg11.dtd" >
<svg xmlns="http://www.w3.org/2000/svg" xmlns:xlink="http://www.w3.org/1999/xlink" version="1.1" viewBox="-10 0 522 512">
  <g transform="matrix(1 0 0 -1 0 448)">
   <path fill="currentColor"
d="M101 75q9 0 9 -9v-87q0 -8 -9 -8t-9 8v87q0 9 9 9zM144 257q0 -9 9 -9h-78l50 200h262l50 -200h-76q9 0 9 9t-8.5 9t-8.5 -9t8 -9h-52q9 0 9 9t-8.5 9t-8.5 -9t8 -9h-52q9 0 9 9t-8.5 9t-8.5 -9t8 -9h-52q9 0 9 9t-9 9t-9 -9t9 -9h-52q9 0 9 9t-9 9t-9 -9zM387.5 396
q-8.5 0 -8.5 -8.5t8.5 -8.5t8.5 8.5t-8.5 8.5zM387.5 344q-8.5 0 -8.5 -8.5t8.5 -8.5t8.5 8.5t-8.5 8.5zM387.5 292q-8.5 0 -8.5 -9t8.5 -9t8.5 9t-8.5 9zM361.5 422q-8.5 0 -8.5 -8.5t8.5 -8.5t8.5 8.5t-8.5 8.5zM361.5 370q-8.5 0 -8.5 -8.5t8.5 -8.5t8.5 8.5t-8.5 8.5z
M361.5 318q-8.5 0 -8.5 -9t8.5 -9t8.5 9t-8.5 9zM335.5 396q-8.5 0 -8.5 -8.5t8.5 -8.5t8.5 8.5t-8.5 8.5zM335.5 344q-8.5 0 -8.5 -8.5t8.5 -8.5t8.5 8.5t-8.5 8.5zM335.5 292q-8.5 0 -8.5 -9t8.5 -9t8.5 9t-8.5 9zM309.5 422q-8.5 0 -8.5 -8.5t8.5 -8.5t8.5 8.5t-8.5 8.5z
M309.5 370q-8.5 0 -8.5 -8.5t8.5 -8.5t8.5 8.5t-8.5 8.5zM309.5 318q-8.5 0 -8.5 -9t8.5 -9t8.5 9t-8.5 9zM283.5 396q-8.5 0 -8.5 -8.5t8.5 -8.5t8.5 8.5t-8.5 8.5zM283.5 344q-8.5 0 -8.5 -8.5t8.5 -8.5t8.5 8.5t-8.5 8.5zM283.5 292q-8.5 0 -8.5 -9t8.5 -9t8.5 9t-8.5 9z
M257.5 422q-8.5 0 -8.5 -8.5t8.5 -8.5t8.5 8.5t-8.5 8.5zM257.5 370q-8.5 0 -8.5 -8.5t8.5 -8.5t8.5 8.5t-8.5 8.5zM257.5 318q-8.5 0 -8.5 -9t8.5 -9t8.5 9t-8.5 9zM231 396q-9 0 -9 -8.5t9 -8.5t9 8.5t-9 8.5zM231 344q-9 0 -9 -8.5t9 -8.5t9 8.5t-9 8.5zM231 292
q-9 0 -9 -9t9 -9t9 9t-9 9zM205 422q-9 0 -9 -8.5t9 -8.5t9 8.5t-9 8.5zM205 370q-9 0 -9 -8.5t9 -8.5t9 8.5t-9 8.5zM205 318q-9 0 -9 -9t9 -9t9 9t-9 9zM179 396q-9 0 -9 -8.5t9 -8.5t9 8.5t-9 8.5zM179 344q-9 0 -9 -8.5t9 -8.5t9 8.5t-9 8.5zM179 292q-9 0 -9 -9t9 -9
t9 9t-9 9zM153 422q-9 0 -9 -8.5t9 -8.5t9 8.5t-9 8.5zM153 370q-9 0 -9 -8.5t9 -8.5t9 8.5t-9 8.5zM153 318q-9 0 -9 -9t9 -9t9 9t-9 9zM101 300q9 0 9 9t-9 9t-9 -9t9 -9zM127 274q9 0 9 9t-9 9t-9 -9t9 -9zM127 327q9 0 9 8.5t-9 8.5t-9 -8.5t9 -8.5zM127 379q9 0 9 8.5
t-9 8.5t-9 -8.5t9 -8.5zM441 231l17 -69h-404l17 69h370zM474 101q1 -7 -3 -12t-11 -5h-159v-53h-18v-43h70v-35h17q9 0 9 -8.5t-9 -8.5h-17h-9h-174h-8h-18q-8 0 -8 8.5t8 8.5h18v35h69v43h-17v53h-162q-7 0 -11 5t-3 12l11 43h78q-9 0 -9 -8.5t9 -8.5t9 8.5t-9 8.5h52
q-9 0 -9 -8.5t9 -8.5t9 8.5t-9 8.5h52q-9 0 -9 -8.5t9 -8.5t9 8.5t-9 8.5h52q-8 0 -8 -8.5t8.5 -8.5t8.5 8.5t-9 8.5h52q-8 0 -8 -8.5t8.5 -8.5t8.5 8.5t-9 8.5h52q-8 0 -8 -8.5t8.5 -8.5t8.5 8.5t-9 8.5h76zM101 101q9 0 9 8.5t-9 8.5t-9 -8.5t9 -8.5zM153 101q9 0 9 8.5
t-9 8.5t-9 -8.5t9 -8.5zM257.5 118q-8.5 0 -8.5 -8.5t8.5 -8.5t8.5 8.5t-8.5 8.5zM205 101q9 0 9 8.5t-9 8.5t-9 -8.5t9 -8.5zM309.5 101q8.5 0 8.5 8.5t-8.5 8.5t-8.5 -8.5t8.5 -8.5zM361.5 101q8.5 0 8.5 8.5t-8.5 8.5t-8.5 -8.5t8.5 -8.5zM413.5 101q8.5 0 8.5 8.5
t-8.5 8.5t-8.5 -8.5t8.5 -8.5z" />
  </g>

</svg>
