<?xml version="1.0" standalone="no"?>
<!DOCTYPE svg PUBLIC "-//W3C//DTD SVG 1.1//EN" "http://www.w3.org/Graphics/SVG/1.1/DTD/svg11.dtd" >
<svg xmlns="http://www.w3.org/2000/svg" xmlns:xlink="http://www.w3.org/1999/xlink" version="1.1" viewBox="-10 0 532 512">
  <g transform="matrix(1 0 0 -1 0 448)">
   <path fill="currentColor"
d="M503 256q9 0 9 -8.5t-9 -8.5h-8v-43h-17v-213h17v-43h-478v43h17v213h-17v43h-8q-9 0 -9 8.5t9 8.5h8h72l68 119h5v26h9v26h17v17h136v-17h17v-26h9v-26h5l68 -119h72h8zM188 410v-9h136v9h-136zM179 384v-9h154v9h-154zM77 0v179q0 9 -8.5 9t-8.5 -9v-179q0 -9 8.5 -9
t8.5 9zM410 -17v213h-308v-213h43h17q18 0 24 17h-32v51h43q-21 36 1 72q3 5 9 4q4 0 6 -4q5 25 22 45l15 17q2 3 6 3t7 -3l1 -2l1 -1q9 -15 15 -30q1 1 3 1q5 2 9 -2l15 -17q15 -18 17 -41t-9 -42h35v-51h-24q6 -17 24 -17h17h43zM256 17h77v17h-32q-6 -5 -14 -9l-2 -1
q-1 -1 -3 -2t-3 -1q-2 0 -4 -1q-1 0 -2 -1q-2 0 -4 -1h-1h-1q-6 -1 -11 -1zM256 17q-5 0 -11 1h-2q-2 1 -4 1q-1 1 -2 1q-2 1 -4 1q-1 0 -3 1l-3 1.5l-3 1.5l-12 8q0 1 -0.5 1h-0.5h-40v-17h85zM452 0v179q0 9 -8.5 9t-8.5 -9v-179q0 -9 8.5 -9t8.5 9zM478 213v26h-45h-354
h-45v-26h51h17h308h17h51z" />
  </g>

</svg>
