<?xml version="1.0" standalone="no"?>
<!DOCTYPE svg PUBLIC "-//W3C//DTD SVG 1.1//EN" "http://www.w3.org/Graphics/SVG/1.1/DTD/svg11.dtd" >
<svg xmlns="http://www.w3.org/2000/svg" xmlns:xlink="http://www.w3.org/1999/xlink" version="1.1" viewBox="-10 0 532 512">
  <g transform="matrix(1 0 0 -1 0 448)">
   <path fill="currentColor"
d="M435 222q16 0 27.5 -10t14.5 -24h-442q3 14 14.5 24t27.5 10h124h101h128h5zM451 384q25 0 43 -18t18 -43v-162v-49q0 -10 -7 -18q7 -8 7 -19v-22q0 -19 -17 -25v-28h-77v26h-324v-26h-77v28q-17 6 -17 25v22q0 11 7 19q-7 8 -7 18v49v162q0 25 18 43t43 18h390z
M460.5 341q-8.5 0 -8.5 -8.5t8.5 -8.5t8.5 8.5t-8.5 8.5zM460.5 290q-8.5 0 -8.5 -8.5t8.5 -8.5t8.5 8.5t-8.5 8.5zM435.5 367q-8.5 0 -8.5 -8.5t8.5 -8.5t8.5 8.5t-8.5 8.5zM435.5 316q-8.5 0 -8.5 -8.5t8.5 -8.5t8.5 8.5t-8.5 8.5zM409.5 341q-8.5 0 -8.5 -8.5t8.5 -8.5
t8.5 8.5t-8.5 8.5zM384 367q-9 0 -9 -8.5t9 -8.5t9 8.5t-9 8.5zM358.5 341q-8.5 0 -8.5 -8.5t8.5 -8.5t8.5 8.5t-8.5 8.5zM332.5 367q-8.5 0 -8.5 -8.5t8.5 -8.5t8.5 8.5t-8.5 8.5zM307.5 341q-8.5 0 -8.5 -8.5t8.5 -8.5t8.5 8.5t-8.5 8.5zM281.5 367q-8.5 0 -8.5 -8.5
t8.5 -8.5t8.5 8.5t-8.5 8.5zM281.5 316q-8.5 0 -8.5 -8.5t8.5 -8.5t8.5 8.5t-8.5 8.5zM281.5 265q-8.5 0 -8.5 -9t8.5 -9t8.5 9t-8.5 9zM256 341q-9 0 -9 -8.5t9 -8.5t9 8.5t-9 8.5zM256 290q-9 0 -9 -8.5t9 -8.5t9 8.5t-9 8.5zM230.5 367q-8.5 0 -8.5 -8.5t8.5 -8.5
t8.5 8.5t-8.5 8.5zM230.5 316q-8.5 0 -8.5 -8.5t8.5 -8.5t8.5 8.5t-8.5 8.5zM230.5 265q-8.5 0 -8.5 -9t8.5 -9t8.5 9t-8.5 9zM204.5 341q-8.5 0 -8.5 -8.5t8.5 -8.5t8.5 8.5t-8.5 8.5zM179.5 367q-8.5 0 -8.5 -8.5t8.5 -8.5t8.5 8.5t-8.5 8.5zM153.5 341q-8.5 0 -8.5 -8.5
t8.5 -8.5t8.5 8.5t-8.5 8.5zM128 367q-9 0 -9 -8.5t9 -8.5t9 8.5t-9 8.5zM102.5 341q-8.5 0 -8.5 -8.5t8.5 -8.5t8.5 8.5t-8.5 8.5zM76.5 367q-8.5 0 -8.5 -8.5t8.5 -8.5t8.5 8.5t-8.5 8.5zM76.5 316q-8.5 0 -8.5 -8.5t8.5 -8.5t8.5 8.5t-8.5 8.5zM51.5 341
q-8.5 0 -8.5 -8.5t8.5 -8.5t8.5 8.5t-8.5 8.5zM51.5 290q-8.5 0 -8.5 -8.5t8.5 -8.5t8.5 8.5t-8.5 8.5zM25.5 316q-8.5 0 -8.5 -8.5t8.5 -8.5t8.5 8.5t-8.5 8.5zM25.5 265q-8.5 0 -8.5 -9t8.5 -9t8.5 9t-8.5 9zM495 179q0 10 -3 19q3 3 3 7q0 8 -9 8h-2q-15 23 -43 26
q5 19 -9 34l-41 41q-10 10 -24.5 10t-24.5 -10l-2 -2q-3 4 -7 4q-9 0 -9 -9q0 -4 4 -7l-14 -14q-3 4 -7 4q-8 0 -8 -8q0 -5 3 -7l-2 -2q-14 -15 -8 -34h-80q5 19 -9 34l-1 1q2 -1 3 -1q8 0 8 8.5t-8.5 8.5t-8.5 -8q0 -1 1 -3l-20 20h2q9 0 9 8.5t-8.5 8.5t-8.5 -9v-2l-9 9
q-10 10 -24.5 10t-24.5 -10l-42 -41q-15 -15 -8 -36q-22 -5 -35 -24h-2q-9 0 -9 -8q0 -4 3 -7q-3 -9 -3 -19v-8v-10v-49q0 -10 10 -10h458q10 0 10 10v49v10v8zM486.5 247q8.5 0 8.5 9t-8.5 9t-8.5 -9t8.5 -9zM486.5 299q8.5 0 8.5 8.5t-8.5 8.5t-8.5 -8.5t8.5 -8.5z" />
  </g>

</svg>
