<?xml version="1.0" standalone="no"?>
<!DOCTYPE svg PUBLIC "-//W3C//DTD SVG 1.1//EN" "http://www.w3.org/Graphics/SVG/1.1/DTD/svg11.dtd" >
<svg xmlns="http://www.w3.org/2000/svg" xmlns:xlink="http://www.w3.org/1999/xlink" version="1.1" viewBox="-10 0 522 512">
  <g transform="matrix(1 0 0 -1 0 448)">
   <path fill="currentColor"
d="M444 260q10 0 17.5 -7.5t7.5 -18t-7.5 -18t-17.5 -7.5v-17q0 -15 -10 -27t-25 -15q0 -7 -6 -12.5t-13 -5.5h-79l17 -17h22q8 0 8 -8.5t-8 -8.5h-26q-1 0 -3 0.5t-3 2.5l-28 28v-22h-8v-26h-17v-17h17v-10l104 -24q0 -1 1 -1l1 -0.5t1.5 -1l1 -1l1 -1t0.5 -1.5v-2l1 -1v-9
q14 -1 24 -12t10 -26t-11.5 -26.5t-27.5 -11.5t-27 11.5t-11 26.5q0 27 25 36v5l-93 21v-3l20 -20h1q16 0 27 -11.5t11 -27t-11 -27t-27 -11.5t-27 11.5t-11 26.5q0 22 19 33l-14 14h-28l-14 -14q19 -11 19 -33q0 -15 -11 -26.5t-27 -11.5t-27 11.5t-11 27t11 27t27 11.5h1
l20 20v3l-93 -21v-5q25 -9 25 -36q0 -15 -11 -26.5t-27 -11.5t-27.5 11.5t-11.5 26.5t10 26t24 12v9l1 1v2t0.5 1.5l1 1l1 1t1.5 1l1 0.5q1 0 1 1l104 24v10h17v17h-17v26h-8v25h-100q-7 0 -13 5.5t-6 12.5q-15 3 -25 15t-10 27v17q-10 0 -17.5 7.5t-7.5 18t7.5 18t17.5 7.5
h17q11 0 18.5 -7.5t7.5 -18t-7.5 -18t-18.5 -7.5v-17q0 -18 17 -24v4q0 8 5.5 13.5t13.5 6.5l23 159q6 42 38 69.5t74 27.5t74 -27.5t38 -69.5l23 -159q8 -1 13.5 -6.5t5.5 -13.5v-4q17 6 17 24v17q-11 0 -18.5 7.5t-7.5 18t7.5 18t18.5 7.5h17zM235 346q-9 0 -15.5 -6.5
t-6.5 -15.5t6.5 -15t15.5 -6h42q9 0 15.5 6t6.5 15t-6.5 15.5t-15.5 6.5h-42zM393 152v20q0 3 -3 3h-268q-3 0 -3 -3v-20q0 -3 3 -3h100h68h100q3 0 3 3z" />
  </g>

</svg>
