<?xml version="1.0" standalone="no"?>
<!DOCTYPE svg PUBLIC "-//W3C//DTD SVG 1.1//EN" "http://www.w3.org/Graphics/SVG/1.1/DTD/svg11.dtd" >
<svg xmlns="http://www.w3.org/2000/svg" xmlns:xlink="http://www.w3.org/1999/xlink" version="1.1" viewBox="-10 0 532 512">
  <g transform="matrix(1 0 0 -1 0 448)">
   <path fill="currentColor"
d="M495 256q17 -10 17 -30v-171h-9v-25h-51v25h-8h-376h-8v-25h-51v25h-9v171q0 20 17 30v22q0 31 22.5 53.5t53.5 22.5h122q17 0 32 -8v-166q-14 12 -32 12h-147v-26h376v26h-147q-18 0 -32 -12v166q15 8 32 8h122q31 0 53.5 -22.5t22.5 -53.5v-22zM390 266l-11 11l11 11
q6 6 0 12t-12 0l-11 -11l-11 11q-6 6 -12 0t0 -12l11 -11l-11 -11q-6 -6 0 -12q2 -2 5.5 -2t6.5 2l11 11l11 -11q2 -2 6 -2t6 2q6 6 0 12zM122 288l11 -11l-11 -11q-6 -6 0 -12q2 -2 6 -2t6 2l11 11l11 -11q3 -2 6.5 -2t5.5 2q6 6 0 12l-11 11l11 11q6 6 0 12t-12 0l-11 -11
l-11 11q-6 6 -12 0t0 -12zM51 209v15q0 12 -10 18q-3 1 -5 1h-0.5h-1h-1.5h-2t-3 -1h-1q-10 -5 -10 -16v-153h34v76v17v43zM495 73v153q0 11 -10 16h-1q-2 1 -3 1h-2h-1h-2t-5 -1q-10 -6 -10 -18v-15v-43v-17v-76h34z" />
  </g>

</svg>
