<?xml version="1.0" standalone="no"?>
<!DOCTYPE svg PUBLIC "-//W3C//DTD SVG 1.1//EN" "http://www.w3.org/Graphics/SVG/1.1/DTD/svg11.dtd" >
<svg xmlns="http://www.w3.org/2000/svg" xmlns:xlink="http://www.w3.org/1999/xlink" version="1.1" viewBox="-10 0 522 512">
  <g transform="matrix(1 0 0 -1 0 448)">
   <path fill="currentColor"
d="M379 249q16 -9 20.5 -26.5t-4.5 -32.5t-26 -20l-70 -19q-2 -1 -3 -2h67q9 0 15 -6t6 -15v-46q0 -23 -14.5 -39.5t-36.5 -20.5v-18h-154v18q-22 4 -36.5 20.5t-14.5 39.5v46q0 9 6 15t15 6h64v26q0 14 7 26l-55 -15q-6 -1 -11 -1q-15 0 -26.5 9t-15.5 23q-4 17 5 32
q6 11 18 17q-12 9 -16 23q-4 17 5 32.5t26 19.5l21 6q-12 9 -16 23q-5 17 4 32.5t26 19.5l94 25q5 1 11 1q14 0 25.5 -9t15.5 -23q4 -13 -2 -27l18 5q6 2 11 2q15 0 26.5 -9t15.5 -23q4 -17 -5 -32q-6 -12 -18 -17q12 -9 16 -23q4 -17 -5 -33q-3 -6 -9 -10zM138.5 313
q-5.5 -9 -2.5 -20q2 -9 11 -14.5t19 -3.5l174 47h1.5h0.5l23 6q10 3 15.5 12t2.5 20q-5 19 -25 19q-3 0 -6 -1l-198 -53q-10 -3 -15.5 -12zM380.5 198.5q5.5 9.5 2.5 19.5q-5 19 -25 19q-3 0 -6 -1l-94 -25q-12 -4 -20 -14t-8 -22v-26h45q5 15 20 18l70 20q10 2 15.5 11.5z
M179 -30v17h154v-17h-22l-25 -34h-60l-25 34h-22zM277 -47l13 17h-68l13 -17h42z" />
  </g>

</svg>
