<?xml version="1.0" standalone="no"?>
<!DOCTYPE svg PUBLIC "-//W3C//DTD SVG 1.1//EN" "http://www.w3.org/Graphics/SVG/1.1/DTD/svg11.dtd" >
<svg xmlns="http://www.w3.org/2000/svg" xmlns:xlink="http://www.w3.org/1999/xlink" version="1.1" viewBox="-10 0 522 512">
  <g transform="matrix(1 0 0 -1 0 448)">
   <path fill="currentColor"
d="M435 260q11 0 18.5 -7.5t7.5 -18t-7.5 -18t-18.5 -7.5v-17q0 -16 -10 -27.5t-25 -14.5q-6 -18 -25 -18h-64l17 -17h22q8 0 8 -8.5t-8 -8.5h-26q-1 0 -3 0.5t-3 2.5l-28 28v-22h-8v-26h-17v-17h17v-10l104 -24q0 -1 1 -1l1 -0.5t1.5 -1l1 -1l1 -1t0.5 -1.5v-2l1 -1v-9
q14 -1 24 -12t10 -26t-11.5 -26.5t-27.5 -11.5t-27 11.5t-11 26.5q0 27 25 36v5l-93 21v-3l20 -20h1q16 0 27 -11.5t11 -27t-11 -27t-27 -11.5t-27 11.5t-11 26.5q0 22 19 33l-14 14h-28l-14 -14q19 -11 19 -33q0 -15 -11 -26.5t-27 -11.5t-27 11.5t-11 27t11 27t27 11.5h1
l20 20v3l-93 -21v-5q25 -9 25 -36q0 -15 -11 -26.5t-27 -11.5t-27.5 11.5t-11.5 26.5t10 26t24 12v9l1 1v2t0.5 1.5l1 1l1 1t1.5 1l1 0.5q1 0 1 1l104 24v10h17v17h-17v26h-8v25h-85q-19 0 -25 18q-15 3 -25 14.5t-10 27.5v17q-11 0 -18.5 7.5t-7.5 18t7.5 18t18.5 7.5h17
q10 0 17.5 -7.5t7.5 -18t-7.5 -18t-17.5 -7.5v-17q0 -19 19 -25q6 16 24 16h93v9h-69q-10 0 -17 7t-7 17v208q0 10 7 17t17 7h190q10 0 17 -7t7 -17v-208q0 -10 -7 -17t-17 -7h-69v-9h93q18 0 24 -16q19 6 19 25v17q-10 0 -17.5 7.5t-7.5 18t7.5 18t17.5 7.5h17zM358.5 431
q-8.5 0 -8.5 -8.5t8.5 -8.5t8.5 8.5t-8.5 8.5zM358.5 380q-8.5 0 -8.5 -8.5t8.5 -8.5t8.5 8.5t-8.5 8.5zM358.5 329q-8.5 0 -8.5 -9t8.5 -9t8.5 9t-8.5 9zM358.5 277q-8.5 0 -8.5 -8.5t8.5 -8.5t8.5 8.5t-8.5 8.5zM358.5 226q-8.5 0 -8.5 -8.5t8.5 -8.5t8.5 8.5t-8.5 8.5z
M332.5 405q-8.5 0 -8.5 -8.5t8.5 -8.5t8.5 8.5t-8.5 8.5zM332.5 354q-8.5 0 -8.5 -8.5t8.5 -8.5t8.5 8.5t-8.5 8.5zM332.5 303q-8.5 0 -8.5 -8.5t8.5 -8.5t8.5 8.5t-8.5 8.5zM332.5 252q-8.5 0 -8.5 -8.5t8.5 -8.5t8.5 8.5t-8.5 8.5zM307.5 431q-8.5 0 -8.5 -8.5t8.5 -8.5
t8.5 8.5t-8.5 8.5zM307.5 380q-8.5 0 -8.5 -8.5t8.5 -8.5t8.5 8.5t-8.5 8.5zM307.5 329q-8.5 0 -8.5 -9t8.5 -9t8.5 9t-8.5 9zM307.5 277q-8.5 0 -8.5 -8.5t8.5 -8.5t8.5 8.5t-8.5 8.5zM307.5 226q-8.5 0 -8.5 -8.5t8.5 -8.5t8.5 8.5t-8.5 8.5zM281.5 405q-8.5 0 -8.5 -8.5
t8.5 -8.5t8.5 8.5t-8.5 8.5zM281.5 354q-8.5 0 -8.5 -8.5t8.5 -8.5t8.5 8.5t-8.5 8.5zM281.5 303q-8.5 0 -8.5 -8.5t8.5 -8.5t8.5 8.5t-8.5 8.5zM281.5 252q-8.5 0 -8.5 -8.5t8.5 -8.5t8.5 8.5t-8.5 8.5zM256 431q-9 0 -9 -8.5t9 -8.5t9 8.5t-9 8.5zM256 380q-9 0 -9 -8.5
t9 -8.5t9 8.5t-9 8.5zM256 329q-9 0 -9 -9t9 -9t9 9t-9 9zM256 277q-9 0 -9 -8.5t9 -8.5t9 8.5t-9 8.5zM256 226q-9 0 -9 -8.5t9 -8.5t9 8.5t-9 8.5zM230.5 405q-8.5 0 -8.5 -8.5t8.5 -8.5t8.5 8.5t-8.5 8.5zM230.5 354q-8.5 0 -8.5 -8.5t8.5 -8.5t8.5 8.5t-8.5 8.5z
M230.5 303q-8.5 0 -8.5 -8.5t8.5 -8.5t8.5 8.5t-8.5 8.5zM153.5 209q8.5 0 8.5 8.5t-8.5 8.5t-8.5 -8.5t8.5 -8.5zM153.5 260q8.5 0 8.5 8.5t-8.5 8.5t-8.5 -8.5t8.5 -8.5zM153.5 311q8.5 0 8.5 9t-8.5 9t-8.5 -9t8.5 -9zM153.5 363q8.5 0 8.5 8.5t-8.5 8.5t-8.5 -8.5
t8.5 -8.5zM153.5 414q8.5 0 8.5 8.5t-8.5 8.5t-8.5 -8.5t8.5 -8.5zM179.5 235q8.5 0 8.5 8.5t-8.5 8.5t-8.5 -8.5t8.5 -8.5zM179.5 286q8.5 0 8.5 8.5t-8.5 8.5t-8.5 -8.5t8.5 -8.5zM179.5 337q8.5 0 8.5 8.5t-8.5 8.5t-8.5 -8.5t8.5 -8.5zM179.5 388q8.5 0 8.5 8.5
t-8.5 8.5t-8.5 -8.5t8.5 -8.5zM204.5 209q8.5 0 8.5 8.5t-8.5 8.5t-8.5 -8.5t8.5 -8.5zM204.5 260q8.5 0 8.5 8.5t-8.5 8.5t-8.5 -8.5t8.5 -8.5zM204.5 311q8.5 0 8.5 9t-8.5 9t-8.5 -9t8.5 -9zM204.5 363q8.5 0 8.5 8.5t-8.5 8.5t-8.5 -8.5t8.5 -8.5zM204.5 414
q8.5 0 8.5 8.5t-8.5 8.5t-8.5 -8.5t8.5 -8.5zM222 243.5q0 -8.5 8.5 -8.5t8.5 8.5t-8.5 8.5t-8.5 -8.5zM375 149q9 0 9 8.5t-9 8.5h-93h-52h-93q-9 0 -9 -8.5t9 -8.5h85h68h85z" />
  </g>

</svg>
