<?xml version="1.0" standalone="no"?>
<!DOCTYPE svg PUBLIC "-//W3C//DTD SVG 1.1//EN" "http://www.w3.org/Graphics/SVG/1.1/DTD/svg11.dtd" >
<svg xmlns="http://www.w3.org/2000/svg" xmlns:xlink="http://www.w3.org/1999/xlink" version="1.1" viewBox="-10 0 532 512">
  <g transform="matrix(1 0 0 -1 0 448)">
   <path fill="currentColor"
d="M358 294.5q0 -3.5 -2 -6.5q-6 -6 -12 0q-3 3 -3 6.5t2.5 6t6 2.5t6 -2.5t2.5 -6zM154 294.5q0 3.5 2.5 6t6 2.5t6 -2.5t2.5 -6t-3 -6.5q-6 -6 -12 0q-2 3 -2 6.5zM467 329q19 0 32 -13.5t13 -31.5v-65v-42q0 -8 -6 -14q6 -8 6 -18v-34q0 -19 -17 -27v-37h-17v-34
q0 -9 -9 -9h-25q-6 0 -8 6l-15 37h-330l-15 -37q-2 -6 -8 -6h-25q-9 0 -9 9v34h-17v37q-17 8 -17 27v34q0 10 6 18q-6 6 -6 14v42v65q0 18 13 31.5t32 13.5h23v6q0 18 13.5 31.5t31.5 13.5h107q15 0 27 -10v-212h-142h-75q-5 0 -9 -4t-4 -9v-34q0 -5 4 -9t9 -4h452q5 0 9 4
t4 9v34q0 5 -4 9t-9 4h-75h-142v212q12 10 27 10h107q18 0 31.5 -13.5t13.5 -31.5v-6h23zM375 294.5q0 5.5 -2 10.5l9 9q6 6 -0.5 12t-12.5 0l-8 -9q-11 5 -22 0l-9 9q-6 6 -12 0t0 -12l9 -9q-3 -5 -3 -10.5t3 -11.5l-9 -8q-6 -6 0 -12q3 -3 6.5 -3t5.5 3l9 8q5 -2 10.5 -2
t11.5 2l8 -8q3 -3 6.5 -3t6.5 3q6 6 0 12l-9 8q2 6 2 11.5zM137 294.5q0 -5.5 2 -11.5l-9 -8q-6 -6 0 -12q3 -3 6.5 -3t6.5 3l8 8q6 -2 11.5 -2t10.5 2l9 -8q2 -3 5.5 -3t6.5 3q6 6 0 12l-9 8q3 6 3 11.5t-3 10.5l9 9q6 6 0 12t-12 0l-9 -9q-11 5 -22 0l-8 9q-6 6 -12.5 0
t-0.5 -12l9 -9q-2 -5 -2 -10.5zM17 219v-42q0 -2 2 -2h11h72v4v1l-2 6v2q-1 2 -2 5v1q-2 3 -3 6l-1 1q-2 3 -3 4t-1 2q-3 2 -5 4v1q-3 2 -5 4h-1q-3 3 -6 4t-6 3h-1q-2 1 -4 1q-1 1 -2 1q-2 0 -4 1h-0.5h-1.5h-6h-24q-7 0 -7 -7zM495 177v42q0 7 -7 7h-24h-6h-2q-2 -1 -4 -1
q-1 0 -2 -1q-2 0 -4 -1h-1q-3 -2 -6 -3t-6 -4h-1q-2 -2 -5 -4v-1q-2 -2 -5 -4q0 -1 -1 -2q-1 -2 -3 -4l-1 -1q-1 -3 -3 -6v-1q-1 -3 -2 -5v-2l-2 -6v-1v-4h72h11q2 0 2 2z" />
  </g>

</svg>
