<?xml version="1.0" standalone="no"?>
<!DOCTYPE svg PUBLIC "-//W3C//DTD SVG 1.1//EN" "http://www.w3.org/Graphics/SVG/1.1/DTD/svg11.dtd" >
<svg xmlns="http://www.w3.org/2000/svg" xmlns:xlink="http://www.w3.org/1999/xlink" version="1.1" viewBox="-10 0 532 512">
  <g transform="matrix(1 0 0 -1 0 448)">
   <path fill="currentColor"
d="M475 274q16 0 26.5 -11t10.5 -26v-45v5q-2 20 -18 28q-4 2 -10 3q-25 2 -56.5 -16.5t-42.5 -42.5q-1 -3 -2 -5h-254q-1 2 -2 5q-10 22 -39.5 40.5t-54.5 18.5h-6q-5 -1 -9 -3q-16 -8 -18 -28v-5v79q0 35 22 58q3 2 5 4q27 24 63 24q50 0 83 -39q2 -2 6 -7q11 -14 18 -20
t24.5 -11.5t43.5 -5.5h210zM511 161q-3 3 -7 6q8 11 8 25v-32l-0.5 0.5zM511 125q1 -2 1 -3q0 -20 -14.5 -35t-35.5 -15h-51h-310h-51q-21 0 -35.5 15t-14.5 35q0 1 1 3q1 1 3 2l2 -2q19 -16 44 -16h412q25 0 44 16l1 1l1 1q2 -1 3 -2zM411.5 155q-7.5 0 -11.5 2v0q0 1 1 4
q9 17 33.5 33t44.5 16h4q1 -1 3 -1q7 -4 8 -14q1 -13 -6 -18q-2 -1 -4 -3q-3 -1 -7 -3q-3 -2 -7 -3l-1 -1q-4 -1 -8 -3h-2l-8 -2q0 -1 -1 -1l-10 -2q-5 -2 -10 -2q-11 -2 -18.5 -2zM8 167q-4 -3 -7 -6l-0.5 -0.5l-0.5 -0.5v32q0 -14 8 -25zM28 174q-2 2 -4 3q-7 5 -6 18
q1 10 8 13l4 2h3q20 0 44.5 -16t33.5 -33l1 -4q-1 -1 -6 -2h-6q-7 0 -18 2q-4 0 -10 2v0l-10 2l-1 1l-8 2h-0.5t-1.5 1l-8 2l-1 1q-9 3 -14 6zM14 148q0 1 1 1.5t1 1.5q4 3 7 5h1l6 -3q2 -1 3.5 -1.5t3.5 -1.5q4 -1 7 -2q1 -1 3 -1q4 -2 8 -3l3 -1q2 0 5 -1q2 -1 6 -1
q2 -1 4 -1q4 -1 7 -2h1h1q4 -1 9 -1h1q5 -1 8 -1q1 0 1 0.5v0.5h7h3q3 1 5 2q1 0 2 1q3 1 5 2l0.5 0.5l0.5 0.5q1 1 2 3h260q1 -2 2 -3l1 -1q2 -1 5 -2q1 -1 2 -1q3 -1 5 -2h3h7v-0.5t1 -0.5q3 0 8 1h1q4 0 9 1h1h1q4 1 7 2q2 0 4 1q3 0 6 1t5 1q1 1 3 1q4 2 8 3q1 0 3 1
q3 1 7 2q3 1 4 2h0.5t1 0.5t1 0.5h0.5l6 3h1q3 -2 7 -5q0 -1 1 -1.5t1 -1.5l3 -3q-2 -1 -3 -2q-14 -16 -36 -16h-412q-22 0 -36 16q-1 1 -3 2zM46 27v28h33l-6 -28h-27zM436 27l-6 28h33v-28h-27z" />
  </g>

</svg>
