<?xml version="1.0" standalone="no"?>
<!DOCTYPE svg PUBLIC "-//W3C//DTD SVG 1.1//EN" "http://www.w3.org/Graphics/SVG/1.1/DTD/svg11.dtd" >
<svg xmlns="http://www.w3.org/2000/svg" xmlns:xlink="http://www.w3.org/1999/xlink" version="1.1" viewBox="-10 0 522 512">
  <g transform="matrix(1 0 0 -1 0 448)">
   <path fill="currentColor"
d="M18 -64v512h350v-512h-350zM36 430v-476h314v476h-314zM137 365q7 6 13 0q3 -3 3 -6.5t-3 -6.5t-6.5 -3t-6 3t-2.5 6.5t2 6.5zM108 349q-4 0 -6.5 3t-2.5 6.5t2 6.5q7 6 13 0q3 -3 3 -7t-2.5 -6.5t-6.5 -2.5zM119 347q7 6 13 -0.5t0 -12.5l-18 -18q-2 -3 -6 -3t-7 3
q-6 6 0 13zM272 131q6 6 13 0q2 -3 2 -6.5t-2.5 -6t-6 -2.5t-6.5 2.5t-3 6t3 6.5zM242.5 116q-3.5 0 -6 2.5t-2.5 6t2 6.5q6 6 13 0q3 -3 3 -6.5t-3 -6t-6.5 -2.5zM254 113q6 6 12.5 0t0.5 -13l-18 -18q-3 -2 -6.5 -2t-6.5 2q-6 7 0 13zM137 131q7 6 13 0q3 -3 3 -6.5t-3 -6
t-6.5 -2.5t-6 2.5t-2.5 6t2 6.5zM107.5 116q-3.5 0 -6 2.5t-2.5 6t2 6.5q7 6 13 0q3 -3 3 -6.5t-3 -6t-6.5 -2.5zM119 113q7 6 13 0t0 -13l-18 -18q-2 -2 -6 -2t-7 2q-6 7 0 13zM242.5 349q-3.5 0 -6 3t-2.5 6.5t2 6.5q7 6 13 0q3 -3 3 -6.5t-3 -6.5t-6.5 -3zM272 365
q6 6 13 0q2 -3 2 -6.5t-2.5 -6.5t-6 -3t-6.5 3t-3 6.5t3 6.5zM254 347q6 6 12.5 -0.5t0.5 -12.5l-18 -18q-3 -3 -6.5 -3t-6.5 3q-6 6 0 13zM45 -37v458h296v-458h-296zM207 394v-198h107v198h-107zM314 179q0 9 -9 9h-27q-9 0 -9 -9t9 -9h27q9 0 9 9zM207 161v-171h107v171
h-107zM72 394v-198h108v198h-108zM72 161v-171h108v171h-108zM386 250v81h108v-81h-108zM452 320q-3 -3 -3 -7t2.5 -6.5t6.5 -2.5t6.5 3t2.5 6.5t-3 6.5q-6 6 -12 0zM416 320q-3 -3 -3 -6.5t3 -6.5t6.5 -3t6 3t2.5 6.5t-2 6.5q-7 6 -13 0zM416 284q-7 -7 0 -13q2 -3 6 -3
t7 3l17 18q7 6 0.5 12.5t-12.5 0.5zM386 53v81h108v-81h-108zM452 122q-3 -3 -3 -6.5t2.5 -6t6.5 -2.5t6.5 2.5t2.5 6t-3 6.5q-6 6 -12 0zM416 122q-3 -3 -3 -6.5t3 -6t6.5 -2.5t6 2.5t2.5 6t-2 6.5q-7 6 -13 0zM416 86q-7 -6 0 -13q2 -2 6 -2t7 2l17 18q7 7 0.5 13t-12.5 0
zM386 448h108v-99h-108v99zM416 418q-3 -2 -3 -6t3 -6.5t6.5 -2.5t6 2.5t2.5 6.5t-2 6q-7 7 -13 0zM446 388q7 6 0.5 12.5t-12.5 -0.5l-18 -18q-7 -6 0 -12q2 -3 6 -3t7 3zM464.5 405.5q2.5 2.5 2.5 6.5t-3 6q-6 7 -12 0q-3 -2 -3 -6t2.5 -6.5t6.5 -2.5t6.5 2.5zM386 152v80
h108v-80h-108zM452 221q-3 -3 -3 -6.5t2.5 -6.5t6.5 -3t6.5 3t2.5 6.5t-3 6.5q-6 6 -12 0zM416 221q-3 -3 -3 -6.5t3 -6.5t6.5 -3t6 3t2.5 6.5t-2 6.5q-7 6 -13 0zM416 185q-7 -6 0 -13q2 -2 6 -2t7 2l17 18q7 6 0.5 12.5t-12.5 0.5zM386 -64v99h108v-99h-108zM452 23
q-3 -3 -3 -6.5t2.5 -6t6.5 -2.5t6.5 2.5t2.5 6t-3 6.5q-6 7 -12 0zM416 23q-3 -3 -3 -6.5t3 -6t6.5 -2.5t6 2.5t2.5 6t-2 6.5q-7 7 -13 0zM416 -13q-7 -6 0 -12q2 -3 6 -3t7 3l17 18q7 6 0.5 12.5t-12.5 -0.5z" />
  </g>

</svg>
