<?xml version="1.0" standalone="no"?>
<!DOCTYPE svg PUBLIC "-//W3C//DTD SVG 1.1//EN" "http://www.w3.org/Graphics/SVG/1.1/DTD/svg11.dtd" >
<svg xmlns="http://www.w3.org/2000/svg" xmlns:xlink="http://www.w3.org/1999/xlink" version="1.1" viewBox="-10 0 532 512">
  <g transform="matrix(1 0 0 -1 0 448)">
   <path fill="currentColor"
d="M503 235h9v-86h-9v-213h-42v179q0 14 -10 24t-24 10h-37v-2q3 -16 -7 -28t-26 -12h-75v-26h-17v-17h17v-10l104 -24q0 -1 1 -1l1 -0.5t1.5 -1l1 -1l1 -1t0.5 -1.5v-2l1 -1v-9q14 -1 24 -12t10 -26t-11.5 -26.5t-27.5 -11.5t-27 11.5t-11 26.5q0 27 25 36v5l-93 21v-3
l20 -20h1q16 0 27 -11.5t11 -27t-11 -27t-27 -11.5t-27 11.5t-11 26.5q0 22 19 33l-14 14h-28l-14 -14q19 -11 19 -33q0 -15 -11 -26.5t-27 -11.5t-27 11.5t-11 27t11 27t27 11.5h1l20 20v3l-93 -21v-5q25 -9 25 -36q0 -15 -11 -26.5t-27 -11.5t-27.5 11.5t-11.5 26.5t10 26
t24 12v9l1 1v2t0.5 1.5l1 1l1 1t1.5 1l1 0.5q1 0 1 1l104 24v10h17v17h-17v26h-76q-16 0 -26.5 12t-7.5 28v2h-35q-14 0 -24 -10t-10 -24v-179h-42v213h-9v86h133l3 17h-42v42v17v137h324v-137v-17v-42h-43l2 -17h58v76h26h17h25v-76zM102 183q9 0 9 9t-9 9h-59q-9 0 -9 -9
t9 -9h59zM401 269v25h-33l4 -24v-1h29zM111 269h28l3 25h-31v-25zM370 130q5 6 3 14v5l-13 86l-3 17l-8 59l-8 55l-2 4l-2 4q-1 1 -3 2v1q-1 0 -2 1h-1q-1 1 -3 1h-1q-2 1 -3 1h-137q-1 0 -3 -1h-1t-2 -1h-1q-1 -1 -2 -1l-1 -1q-2 -1 -3 -2l-2 -4q-1 -3 -1 -4l-10 -60
l-8 -54l-2 -17l-9 -57l-5 -34q-2 -8 3.5 -14t13.5 -6h76h52h75q8 0 13 6zM452 294v-59h9v59h-9zM469 183q9 0 9 9t-9 9h-59q-9 0 -9 -9t9 -9h59zM486 235v59h-8v-59h8z" />
  </g>

</svg>
