<?xml version="1.0" standalone="no"?>
<!DOCTYPE svg PUBLIC "-//W3C//DTD SVG 1.1//EN" "http://www.w3.org/Graphics/SVG/1.1/DTD/svg11.dtd" >
<svg xmlns="http://www.w3.org/2000/svg" xmlns:xlink="http://www.w3.org/1999/xlink" version="1.1" viewBox="-10 0 522 512">
  <g transform="matrix(1 0 0 -1 0 448)">
   <path fill="currentColor"
d="M247 58v138h18v-138h-18zM230 40h52h52v-17h-156v17h52zM178 -29v34h156v-34h-22l-26 -35h-60l-26 35h-22zM278 -47l13 18h-70l13 -18h44zM465 381q12 -28 -21 -61q-38 -38 -63 -74t-34 -66t-11 -45t-2 -34v-43h-52v147q0 48 11.5 67.5t40.5 19.5q9 0 9 8.5t-9 8.5
q-68 0 -69 -95h-18q-1 95 -69 95q-9 0 -9 -8.5t9 -8.5q29 0 40.5 -19.5t11.5 -67.5v-147h-52v50q0 20 -2 34.5t-11 42.5t-33.5 62t-63.5 73q-33 33 -21 61q14 34 81.5 50.5t127.5 16.5t127.5 -16.5t81.5 -50.5zM368 339q4 8 -3.5 12.5t-11.5 -2.5q-8 -14 -18.5 -14t-19.5 14
l-1 1l-1 1q-1 0 -1 0.5t-1 0.5h-1.5h-1.5h-1.5h-1.5l-0.5 -0.5l-0.5 -0.5h-1l-1 -1l-1 -1q-9 -14 -19 -14t-19 14l-1 1l-1 1q-1 0 -1 0.5t-1 0.5h-1.5h-1.5h-1.5h-1.5t-1 -0.5t-0.5 -0.5t-1.5 -1l-1 -1q-9 -14 -19 -14t-19 14l-1 1l-1 1q-1 0 -1.5 0.5l-0.5 0.5h-1.5h-1.5
h-1.5h-1.5t-1 -0.5t-0.5 -0.5t-1.5 -1l-1 -1q-9 -14 -19.5 -14t-18.5 14q-4 7 -11.5 2.5t-3.5 -12.5q14 -21 34 -21q14 0 26 12q11 -12 25.5 -12t26.5 12q12 -12 26.5 -12t25.5 12q12 -12 26 -12q20 0 34 21z" />
  </g>

</svg>
