<?xml version="1.0" standalone="no"?>
<!DOCTYPE svg PUBLIC "-//W3C//DTD SVG 1.1//EN" "http://www.w3.org/Graphics/SVG/1.1/DTD/svg11.dtd" >
<svg xmlns="http://www.w3.org/2000/svg" xmlns:xlink="http://www.w3.org/1999/xlink" version="1.1" viewBox="-10 0 532 512">
  <g transform="matrix(1 0 0 -1 0 448)">
   <path fill="currentColor"
d="M447 151h-382l22 27h160h18h160zM35 223l23 14l14 -48l-22 -27l-14 58q-1 1 -1 3zM265 322q0 13 9 21.5t21 8.5h114q12 0 21 -8.5t9 -21.5v-69l-16 -56h-158v125zM457 133v-64h-58h-286h-58v64h402zM37 69h-19l-18 71v4l18 71l18 -71q1 -1 1 -2v-73zM73 322q0 13 9 21.5
t21 8.5h114q12 0 21 -8.5t9 -21.5v-125h-158l-16 56v69zM477 223q0 -2 -1 -3l-14 -58l-22 27l3 11l11 37zM494 69h-19v72l0.5 0.5l0.5 0.5v2l18 71l18 -71v-4zM421 32v18h36v-18h-36zM55 32v18h36v-18h-36z" />
  </g>

</svg>
