<?xml version="1.0" standalone="no"?>
<!DOCTYPE svg PUBLIC "-//W3C//DTD SVG 1.1//EN" "http://www.w3.org/Graphics/SVG/1.1/DTD/svg11.dtd" >
<svg xmlns="http://www.w3.org/2000/svg" xmlns:xlink="http://www.w3.org/1999/xlink" version="1.1" viewBox="-10 0 532 512">
  <g transform="matrix(1 0 0 -1 0 448)">
   <path fill="currentColor"
d="M484 85h-74v-17h77q10 0 17.5 -7.5t7.5 -17.5v-52q0 -10 -7.5 -17.5t-17.5 -7.5h-18v-17q0 -9 -8 -9h-51q-9 0 -9 9v17h-290v-17q0 -9 -9 -9h-51q-8 0 -8 9v17h-18q-10 0 -17.5 7.5t-7.5 17.5v52q0 10 7.5 17.5t17.5 7.5h69v17h-66q-11 0 -19.5 8.5t-8.5 20.5v164
q0 69 48.5 117.5t116.5 48.5h182q68 0 116.5 -48.5t48.5 -117.5v-164q0 -12 -8.5 -20.5t-19.5 -8.5zM410 333q-9 0 -9 -8.5t9 -8.5h25q9 0 9 8.5t-9 8.5h-25zM410 299q-9 0 -9 -8.5t9 -8.5h25q9 0 9 8.5t-9 8.5h-25zM410 265q-9 0 -9 -9t9 -9h25q9 0 9 9t-9 9h-25zM410 213
q-9 0 -9 -8.5t9 -8.5h25q9 0 9 8.5t-9 8.5h-25zM410 179q-9 0 -9 -8.5t9 -8.5h25q9 0 9 8.5t-9 8.5h-25zM410 145q-9 0 -9 -8.5t9 -8.5h25q9 0 9 8.5t-9 8.5h-25zM145 68h213v17h-213v-17zM196 299q-8 0 -8 -8.5t8 -8.5h26q8 0 8 8.5t-8 8.5h-26zM188 324.5q0 -8.5 8 -8.5
h26q8 0 8 8.5t-8 8.5h-26q-8 0 -8 -8.5zM196 265q-8 0 -8 -9t8 -9h26q8 0 8 9t-8 9h-26zM196 213q-8 0 -8 -8.5t8 -8.5h26q8 0 8 8.5t-8 8.5h-26zM196 179q-8 0 -8 -8.5t8 -8.5h26q8 0 8 8.5t-8 8.5h-26zM196 145q-8 0 -8 -8.5t8 -8.5h26q8 0 8 8.5t-8 8.5h-26zM290 299
q-8 0 -8 -8.5t8 -8.5h26q8 0 8 8.5t-8 8.5h-26zM282 324.5q0 -8.5 8 -8.5h26q8 0 8 8.5t-8 8.5h-26q-8 0 -8 -8.5zM290 265q-8 0 -8 -9t8 -9h26q8 0 8 9t-8 9h-26zM290 213q-8 0 -8 -8.5t8 -8.5h26q8 0 8 8.5t-8 8.5h-26zM290 179q-8 0 -8 -8.5t8 -8.5h26q8 0 8 8.5t-8 8.5
h-26zM290 145q-8 0 -8 -8.5t8 -8.5h26q8 0 8 8.5t-8 8.5h-26zM350 265q-9 0 -9 -9t9 -9h25q9 0 9 9t-9 9h-25zM341 290.5q0 -8.5 9 -8.5h25q9 0 9 8.5t-9 8.5h-25q-9 0 -9 -8.5zM350 213q-9 0 -9 -8.5t9 -8.5h25q9 0 9 8.5t-9 8.5h-25zM350 179q-9 0 -9 -8.5t9 -8.5h25
q9 0 9 8.5t-9 8.5h-25zM350 145q-9 0 -9 -8.5t9 -8.5h25q9 0 9 8.5t-9 8.5h-25zM384 324.5q0 8.5 -9 8.5h-25q-9 0 -9 -8.5t9 -8.5h25q9 0 9 8.5zM188 418q-11 0 -18.5 -7.5t-7.5 -18t7.5 -18t18.5 -7.5h136q11 0 18.5 7.5t7.5 18t-7.5 18t-18.5 7.5h-136zM137 333
q-9 0 -9 -8.5t9 -8.5h25q9 0 9 8.5t-9 8.5h-25zM137 299q-9 0 -9 -8.5t9 -8.5h25q9 0 9 8.5t-9 8.5h-25zM137 265q-9 0 -9 -9t9 -9h25q9 0 9 9t-9 9h-25zM137 213q-9 0 -9 -8.5t9 -8.5h25q9 0 9 8.5t-9 8.5h-25zM137 179q-9 0 -9 -8.5t9 -8.5h25q9 0 9 8.5t-9 8.5h-25z
M137 145q-9 0 -9 -8.5t9 -8.5h25q9 0 9 8.5t-9 8.5h-25zM77 333q-9 0 -9 -8.5t9 -8.5h25q9 0 9 8.5t-9 8.5h-25zM77 299q-9 0 -9 -8.5t9 -8.5h25q9 0 9 8.5t-9 8.5h-25zM77 265q-9 0 -9 -9t9 -9h25q9 0 9 9t-9 9h-25zM77 213q-9 0 -9 -8.5t9 -8.5h25q9 0 9 8.5t-9 8.5h-25z
M77 179q-9 0 -9 -8.5t9 -8.5h25q9 0 9 8.5t-9 8.5h-25zM68 136.5q0 -8.5 9 -8.5h25q9 0 9 8.5t-9 8.5h-25q-9 0 -9 -8.5zM111 85v-17h17v17h-17zM94 -43v9h-34v-9h34zM452 -43v9h-34v-9h34zM393 68v17h-18v-17h18z" />
  </g>

</svg>
