<?xml version="1.0" standalone="no"?>
<!DOCTYPE svg PUBLIC "-//W3C//DTD SVG 1.1//EN" "http://www.w3.org/Graphics/SVG/1.1/DTD/svg11.dtd" >
<svg xmlns="http://www.w3.org/2000/svg" xmlns:xlink="http://www.w3.org/1999/xlink" version="1.1" viewBox="-10 0 532 512">
  <g transform="matrix(1 0 0 -1 0 448)">
   <path fill="currentColor"
d="M439 362q-13 5 -13 15.5t13 15.5q-8 4 -4 11q3 8 11 5q13 -6 13 -16t-13 -15q7 -4 4 -11q-2 -6 -8 -6q-1 0 -3 1zM9 277q-9 0 -9 8.5t9 8.5h8v9v17v26h94v-26v-17v-9h51v17q0 9 9 9v85q0 9 8 9h154q8 0 8 -9v-85q9 0 9 -9v-17h60v60h59v-8h9q10 0 17.5 -7.5t7.5 -18.5
t-7.5 -18.5t-17.5 -7.5h25q9 0 9 -8.5t-9 -8.5v-51h-153v17h-188v-17h-153v51zM469 329v-18h9q8 0 8 9t-8 9h-9zM427 337v-43h25v43h-25zM410 260q-9 0 -9 -8.5t9 -8.5h34q8 0 8 8.5t-8 8.5h-34zM179 303v-9h154v9h-154zM162 277v-17h188v17h-9h-170h-9zM111 251.5
q0 8.5 -9 8.5h-34q-8 0 -8 -8.5t8 -8.5h34q9 0 9 8.5zM34 329v-9h60v9h-60zM34 303v-9h60v9h-60zM486 18l24 -34q3 -5 1 -9.5t-8 -4.5h-8q-21 0 -38 17q-15 16 -23 41.5t-7 44.5q1 50 -26 68h-51v42h-188v-42h-51q-27 -17 -26 -68q1 -19 -7 -44.5t-23 -41.5q-17 -17 -38 -17
h-8q-6 0 -8 4.5t1 9.5l24 34q1 0 1 1q13 14 7 52q-6 41 11 70h-36v68h153v-8h188v8h153v-68h-36q17 -29 11 -70q-6 -38 7 -52q0 -1 1 -1zM102 175q9 0 9 8.5t-9 8.5h-34q-8 0 -8 -8.5t8 -8.5h34zM401 183.5q0 -8.5 9 -8.5h34q8 0 8 8.5t-8 8.5h-34q-9 0 -9 -8.5z" />
  </g>

</svg>
