<?xml version="1.0" standalone="no"?>
<!DOCTYPE svg PUBLIC "-//W3C//DTD SVG 1.1//EN" "http://www.w3.org/Graphics/SVG/1.1/DTD/svg11.dtd" >
<svg xmlns="http://www.w3.org/2000/svg" xmlns:xlink="http://www.w3.org/1999/xlink" version="1.1" viewBox="-10 0 532 512">
  <g transform="matrix(1 0 0 -1 0 448)">
   <path fill="currentColor"
d="M495 73h-478v51h-17v42h179v26h68v9h-230v34h478v-34h-230v-9h68v-26h179v-42h-17v-51zM265 81q8 0 8 8.5t-8 8.5h-18q-8 0 -8 -8.5t8 -8.5h18zM17 149v-8h9h460h9v8h-162h-154h-162zM495 55v-51h17v-42h-17v-17q0 -9 -9 -9h-25q-5 0 -7 4l-15 22h-366l-15 -22
q-2 -4 -7 -4h-25q-9 0 -9 9v17h-17v42h17v51h478zM247 47q-8 0 -8 -8.5t8 -8.5h18q8 0 8 8.5t-8 8.5h-18zM495 -21v8h-9h-460h-9v-8h9h42h376h42h9zM17 252v196h478v-196h-478z" />
  </g>

</svg>
