<?xml version="1.0" standalone="no"?>
<!DOCTYPE svg PUBLIC "-//W3C//DTD SVG 1.1//EN" "http://www.w3.org/Graphics/SVG/1.1/DTD/svg11.dtd" >
<svg xmlns="http://www.w3.org/2000/svg" xmlns:xlink="http://www.w3.org/1999/xlink" version="1.1" viewBox="-10 0 522 512">
  <g transform="matrix(1 0 0 -1 0 448)">
   <path fill="currentColor"
d="M494 347h-476v44q0 21 13.5 37.5t33.5 18.5q30 4 49 -17q5 -6 9 -1q16 19 41.5 19t41.5 -19q2 -2 4.5 -2t3.5 2q17 19 42 19t42 -19q1 -2 3.5 -2t4.5 2q16 19 41.5 19t41.5 -19q4 -5 9 1q19 22 49 17q20 -2 33.5 -18.5t13.5 -37.5v-44zM18 329h476v-347h-19v-37
q0 -9 -9 -9h-27q-6 0 -9 6l-16 40h-316l-16 -40q-3 -6 -9 -6h-27q-9 0 -9 9v37h-19v347zM91.5 46q9.5 0 9.5 9t-9.5 9t-9.5 -9t9.5 -9zM91.5 119q9.5 0 9.5 9t-9.5 9t-9.5 -9t9.5 -9zM91.5 192q9.5 0 9.5 9t-9.5 9t-9.5 -9t9.5 -9zM91.5 265q9.5 0 9.5 9t-9.5 9t-9.5 -9
t9.5 -9zM174 46q9 0 9 9t-9 9t-9 -9t9 -9zM174 119q9 0 9 9t-9 9t-9 -9t9 -9zM174 192q9 0 9 9t-9 9t-9 -9t9 -9zM174 265q9 0 9 9t-9 9t-9 -9t9 -9zM256 46q9 0 9 9t-9 9t-9 -9t9 -9zM256 119q9 0 9 9t-9 9t-9 -9t9 -9zM256 192q9 0 9 9t-9 9t-9 -9t9 -9zM256 265q9 0 9 9
t-9 9t-9 -9t9 -9zM338 46q9 0 9 9t-9 9t-9 -9t9 -9zM338 119q9 0 9 9t-9 9t-9 -9t9 -9zM338 192q9 0 9 9t-9 9t-9 -9t9 -9zM338 265q9 0 9 9t-9 9t-9 -9t9 -9zM420.5 46q9.5 0 9.5 9t-9.5 9t-9.5 -9t9.5 -9zM420.5 119q9.5 0 9.5 9t-9.5 9t-9.5 -9t9.5 -9zM420.5 192
q9.5 0 9.5 9t-9.5 9t-9.5 -9t9.5 -9zM420.5 265q9.5 0 9.5 9t-9.5 9t-9.5 -9t9.5 -9z" />
  </g>

</svg>
