<?xml version="1.0" standalone="no"?>
<!DOCTYPE svg PUBLIC "-//W3C//DTD SVG 1.1//EN" "http://www.w3.org/Graphics/SVG/1.1/DTD/svg11.dtd" >
<svg xmlns="http://www.w3.org/2000/svg" xmlns:xlink="http://www.w3.org/1999/xlink" version="1.1" viewBox="-10 0 532 512">
  <g transform="matrix(1 0 0 -1 0 448)">
   <path fill="currentColor"
d="M511 182q5 -34 -16 -58q-17 -21 -43 -25v-79q0 -14 -10 -24.5t-25 -12.5q-6 -26 -37 -26t-38 25h-172q-7 -25 -38 -25t-37 26q-15 2 -25 12.5t-10 24.5v79q-26 4 -43 25q-21 24 -16 58q4 36 36 55q-20 12 -20 36v38v9q4 45 38 76t81 31q23 0 45 -9h1q74 -30 148 0h1
q22 9 45 9q47 0 81.5 -31t37.5 -76v-9v-38q0 -18 -13 -31q-3 -3 -7 -6q32 -19 36 -54zM100 190q6 6 0 12q-11 11 -27 11t-27.5 -11.5t-11.5 -27t12 -27.5q2 -2 5.5 -2t6.5 2q6 6 0 12q-7 7 -7 15.5t6.5 15t15.5 6.5t15 -6t12 0zM301 292l11 -11l-11 -11q-6 -6 0 -12
q3 -2 6.5 -2t5.5 2l11 11l11 -11q3 -2 6.5 -2t5.5 2q6 6 0 12l-11 11l11 11q6 6 0 12t-12 0l-11 -11l-11 11q-6 6 -12 0t0 -12zM165 292l11 -11l-11 -11q-6 -6 0 -12q2 -2 5.5 -2t6.5 2l11 11l11 -11q2 -2 5.5 -2t6.5 2q6 6 0 12l-11 11l11 11q6 6 0 12t-12 0l-11 -11
l-11 11q-6 6 -12 0t0 -12zM129 102h254q10 0 10 9v26q0 10 -7.5 17.5t-18.5 7.5h-222q-11 0 -18.5 -7.5t-7.5 -17.5v-26q0 -9 10 -9zM467 147q11 12 11 27.5t-11.5 27t-27 11.5t-27.5 -11q-6 -6 0 -12t12 0q7 6 15.5 6t15 -6.5t6.5 -15t-6 -15.5q-7 -6 0 -12q2 -2 5.5 -2
t6.5 2z" />
  </g>

</svg>
