<?xml version="1.0" standalone="no"?>
<!DOCTYPE svg PUBLIC "-//W3C//DTD SVG 1.1//EN" "http://www.w3.org/Graphics/SVG/1.1/DTD/svg11.dtd" >
<svg xmlns="http://www.w3.org/2000/svg" xmlns:xlink="http://www.w3.org/1999/xlink" version="1.1" viewBox="-10 0 522 512">
  <g transform="matrix(1 0 0 -1 0 448)">
   <path fill="currentColor"
d="M393 12q14 -1 24 -12t10 -26t-11.5 -26.5t-27.5 -11.5t-27 11.5t-11 26.5q0 27 25 36v5l-93 21v-3l20 -20h1q16 0 27 -11.5t11 -27t-11 -27t-27 -11.5t-27 11.5t-11 26.5q0 22 19 33l-14 14h-28l-14 -14q19 -11 19 -33q0 -15 -11 -26.5t-27 -11.5t-27 11.5t-11 27t11 27
t27 11.5h1l20 20v3l-93 -21v-5q25 -9 25 -36q0 -15 -11 -26.5t-27 -11.5t-27.5 11.5t-11.5 26.5t10 26t24 12v9l1 1v2t0.5 1.5l1 1l1 1t1.5 1l1 0.5q1 0 1 1l104 24v10h17v17h-17v26h-8v25h-79q-21 0 -35 14.5t-14 34.5v43q0 8 5.5 13.5t13.5 5.5h24v81q0 18 -14 28l-9 8
q-20 16 -20 41v4q0 18 12.5 30.5t30.5 12.5h238q18 0 30.5 -12.5t12.5 -30.5q0 -30 -25 -45q-18 -11 -18 -31v-86h24q8 0 13.5 -5.5t5.5 -13.5v-43q0 -20 -14 -34.5t-35 -14.5h-58l17 -17h22q8 0 8 -8.5t-8 -8.5h-26q-1 0 -3 0.5t-3 2.5l-28 28v-22h-8v-26h-17v-17h17v-10
l104 -24q0 -1 1 -1l1 -0.5t1.5 -1l1 -1l1 -1t0.5 -1.5v-2l1 -1v-9zM256 380q-9 0 -9 -8.5t9 -8.5t9 8.5t-9 8.5zM256 329q-9 0 -9 -9t9 -9t9 9t-9 9zM256 277q-9 0 -9 -8.5t9 -8.5t9 8.5t-9 8.5zM222 149h68h79q14 0 23 9.5t9 22.5v43q0 2 -2 2h-24h-14q-3 0 -3 -2v-32h-204
v32q0 2 -3 2h-14h-24q-2 0 -2 -2v-43q0 -13 9 -22.5t23 -9.5h79z" />
  </g>

</svg>
