<?xml version="1.0" standalone="no"?>
<!DOCTYPE svg PUBLIC "-//W3C//DTD SVG 1.1//EN" "http://www.w3.org/Graphics/SVG/1.1/DTD/svg11.dtd" >
<svg xmlns="http://www.w3.org/2000/svg" xmlns:xlink="http://www.w3.org/1999/xlink" version="1.1" viewBox="-10 0 532 512">
  <g transform="matrix(1 0 0 -1 0 448)">
   <path fill="currentColor"
d="M512 150q0 -20 -14.5 -34.5t-35.5 -14.5h-412q-21 0 -35.5 14.5t-14.5 34.5q0 2 1 3q1 2 3 2l3 -2l0.5 -1t1 -1h0.5q18 -14 41 -14h412q23 0 41 14v0q1 0 1.5 1l0.5 1l3 2q2 0 3 -2q1 -1 1 -3zM457 82v-18h-63h-267h-72v18h402zM73 18v28h34l-6 -28h-28zM448 18h-27
l-7 28h34v-28zM463 235q2 1 5 2h1q2 0 3.5 0.5t2.5 0.5h2h5h0.5h0.5q2 -1 3 -1q7 -3 8 -14q1 -13 -6 -18q-2 -1 -4 -3q-5 -3 -14 -6q-1 0 -1 -0.5v-0.5l-8 -2q-1 -1 -2 -1l-8 -2l-1 -1l-10 -2q-6 -1 -10 -2q-11 -2 -18.5 -2t-11.5 2v0l0.5 1.5t0.5 2.5q1 2 3 4q0 1 2 3
q0 1 0.5 1.5l0.5 0.5q1 2 3 4q22 24 53 33zM11 173q5 7 12 11h1l6 -3q2 -1 3 -1q1 -1 4 -2t7 -2q2 -1 3 -1q4 -1 8 -3l3 -1q3 0 5 -1q3 -1 6 -1q2 -1 4 -1q4 -1 7 -1l1 -0.5l1 -0.5q4 0 9 -1h1h8h1h7q2 0 3 1q3 0 5 1q1 0 2 1q3 1 5 2v1h1q1 1 2 3h260q1 -2 2 -3l0.5 -0.5
l0.5 -0.5q2 -1 5 -2q1 -1 2 -1q2 -1 5 -1q1 -1 3 -1h7h1h8h1q4 0 9 1l1 0.5l1 0.5q3 0 7 1q2 0 4 1q3 0 6 1q2 1 5 1l3 1q5 2 8 3q2 0 3 1q3 1 7 2q3 2 4 2q2 0 3 1l6 3h1q7 -4 12 -11q-1 -1 -3 -2q-14 -16 -36 -16h-412q-22 0 -36 16q-2 1 -3 2zM28 202q-2 2 -4 3
q-7 5 -6 18q1 11 8 14q2 1 4 1h3h3l10 -2h1q2 -1 4 -1q1 -1 2 -1q2 0 3.5 -1t2.5 -1t2 -1q2 -1 5 -2l1 -1q2 -1 5 -2v-1q15 -8 25 -18l1 -1l3 -3l1 -1q1 -2 3 -4v0q1 -2 3 -4v-1q2 -2 3 -4q1 -3 1 -4q-3 -2 -12 -2q-7 0 -18 2q-4 1 -10 2v0l-10 2l-1 1l-8 2l-0.5 0.5
t-1.5 0.5l-8 2v0.5t-1 0.5q-9 3 -14 6zM168 256q9 0 9 9q0 31 -28 42q13 27 43.5 43t67 16t67 -16t43.5 -43q-28 -11 -28 -42q0 -9 9 -9t9 9q0 11 8 19.5t20 8.5q47 0 78 -38h-1q-1 -1 -3 -1q-2 -1 -4 -1t-3 -1q-2 0 -4 -1l-2 -1l-6 -2q0 -1 -1 -1q-4 -1 -7 -3l-2 -1
q-3 -2 -4 -3q-1 0 -3 -2q-2 -1 -3.5 -2t-3.5 -2q-1 -1 -3 -2l-3 -2l-4 -4l-0.5 -0.5t-1.5 -0.5l-5 -5l-1.5 -1.5l-3.5 -3.5l-1.5 -2t-2.5 -3q-1 -2 -2 -2l-2 -4l-0.5 -0.5t-0.5 -1.5q-2 -3 -3 -5t-2 -5h-254q-1 3 -2 5t-3 5l-1 2t-2 3t-2 3l-1 1q-25 32 -66 42q31 40 80 40
q11 0 19 -8.5t8 -19.5q0 -9 9 -9z" />
  </g>

</svg>
