<?xml version="1.0" standalone="no"?>
<!DOCTYPE svg PUBLIC "-//W3C//DTD SVG 1.1//EN" "http://www.w3.org/Graphics/SVG/1.1/DTD/svg11.dtd" >
<svg xmlns="http://www.w3.org/2000/svg" xmlns:xlink="http://www.w3.org/1999/xlink" version="1.1" viewBox="-10 0 532 512">
  <g transform="matrix(1 0 0 -1 0 448)">
   <path fill="currentColor"
d="M503 -47q9 0 9 -8.5t-9 -8.5h-332h-103h-59q-9 0 -9 8.5t9 8.5h35q-1 4 -1 9q0 10 7.5 17.5t17.5 7.5h43v201l-43 43q-8 -5 -17 -5q-14 0 -24 10t-10 24t10 24t24 10t24 -10t10 -24q0 -9 -5 -17l31 -30v168q-11 3 -18.5 12t-7.5 21q0 14 10 24t24.5 10t24.5 -10t10 -24
q0 -12 -7.5 -21t-18.5 -12v-83l22 22q-5 8 -5 17q0 14 10 24t24 10t24 -10t10 -24t-10 -24t-24 -10q-9 0 -17 5l-34 -34v-104l65 65q-5 8 -5 17q0 14 10 24t24 10t24 -10t10 -24t-10 -24t-24 -10q-9 0 -17 4l-77 -76v-159h43q10 0 17.5 -7.5t7.5 -17.5q0 -5 -1 -9h308z
M318 337l-41 -27l-4 -3v107h222v-90l-38 38q-9 9 -21.5 9.5t-22.5 -8.5l-32 -27q-7 -6 -16 -3l-17 7q-16 7 -30 -3zM495 299v-22h-222v7l14 12l40 27q7 4 14 1l18 -7q18 -7 33 6l32 27q11 10 21 0z" />
  </g>

</svg>
