<?xml version="1.0" standalone="no"?>
<!DOCTYPE svg PUBLIC "-//W3C//DTD SVG 1.1//EN" "http://www.w3.org/Graphics/SVG/1.1/DTD/svg11.dtd" >
<svg xmlns="http://www.w3.org/2000/svg" xmlns:xlink="http://www.w3.org/1999/xlink" version="1.1" viewBox="-10 0 532 512">
  <g transform="matrix(1 0 0 -1 0 448)">
   <path fill="currentColor"
d="M503 371h-8v-358h17v-51h-9v-26h-494v26h-9v51h17v358h-8v26h-9v51h512v-51h-9v-26zM486 397h-460v-9h17h17h392h17h17v9zM452 13v358h-392v-358h392zM486 -47v9h-460v-9h460zM128 166.5q0 -8.5 9 -8.5h-60v196h358v-196h-42q8 0 8 8.5t-8.5 8.5t-8.5 -8.5t9 -8.5h-52
q9 0 9 8.5t-8.5 8.5t-8.5 -8.5t8 -8.5h-51q9 0 9 8.5t-8.5 8.5t-8.5 -8.5t8 -8.5h-51q8 0 8 8.5t-8.5 8.5t-8.5 -8.5t9 -8.5h-51q8 0 8 8.5t-8.5 8.5t-8.5 -8.5t9 -8.5h-51q8 0 8 8.5t-8.5 8.5t-8.5 -8.5zM392.5 329q-8.5 0 -8.5 -9t8.5 -9t8.5 9t-8.5 9zM392.5 277
q-8.5 0 -8.5 -8.5t8.5 -8.5t8.5 8.5t-8.5 8.5zM392.5 226q-8.5 0 -8.5 -8.5t8.5 -8.5t8.5 8.5t-8.5 8.5zM366.5 303q-8.5 0 -8.5 -8.5t8.5 -8.5t8.5 8.5t-8.5 8.5zM366.5 252q-8.5 0 -8.5 -8.5t8.5 -8.5t8.5 8.5t-8.5 8.5zM366.5 201q-8.5 0 -8.5 -9t8.5 -9t8.5 9t-8.5 9z
M341.5 329q-8.5 0 -8.5 -9t8.5 -9t8.5 9t-8.5 9zM341.5 277q-8.5 0 -8.5 -8.5t8.5 -8.5t8.5 8.5t-8.5 8.5zM341.5 226q-8.5 0 -8.5 -8.5t8.5 -8.5t8.5 8.5t-8.5 8.5zM315.5 303q-8.5 0 -8.5 -8.5t8.5 -8.5t8.5 8.5t-8.5 8.5zM315.5 252q-8.5 0 -8.5 -8.5t8.5 -8.5t8.5 8.5
t-8.5 8.5zM315.5 201q-8.5 0 -8.5 -9t8.5 -9t8.5 9t-8.5 9zM290.5 329q-8.5 0 -8.5 -9t8.5 -9t8.5 9t-8.5 9zM290.5 277q-8.5 0 -8.5 -8.5t8.5 -8.5t8.5 8.5t-8.5 8.5zM290.5 226q-8.5 0 -8.5 -8.5t8.5 -8.5t8.5 8.5t-8.5 8.5zM264.5 303q-8.5 0 -8.5 -8.5t8.5 -8.5t8.5 8.5
t-8.5 8.5zM264.5 252q-8.5 0 -8.5 -8.5t8.5 -8.5t8.5 8.5t-8.5 8.5zM264.5 201q-8.5 0 -8.5 -9t8.5 -9t8.5 9t-8.5 9zM238.5 329q-8.5 0 -8.5 -9t8.5 -9t8.5 9t-8.5 9zM238.5 277q-8.5 0 -8.5 -8.5t8.5 -8.5t8.5 8.5t-8.5 8.5zM238.5 226q-8.5 0 -8.5 -8.5t8.5 -8.5t8.5 8.5
t-8.5 8.5zM213.5 303q-8.5 0 -8.5 -8.5t8.5 -8.5t8.5 8.5t-8.5 8.5zM213.5 252q-8.5 0 -8.5 -8.5t8.5 -8.5t8.5 8.5t-8.5 8.5zM213.5 201q-8.5 0 -8.5 -9t8.5 -9t8.5 9t-8.5 9zM187.5 329q-8.5 0 -8.5 -9t8.5 -9t8.5 9t-8.5 9zM187.5 277q-8.5 0 -8.5 -8.5t8.5 -8.5t8.5 8.5
t-8.5 8.5zM187.5 226q-8.5 0 -8.5 -8.5t8.5 -8.5t8.5 8.5t-8.5 8.5zM162.5 303q-8.5 0 -8.5 -8.5t8.5 -8.5t8.5 8.5t-8.5 8.5zM162.5 252q-8.5 0 -8.5 -8.5t8.5 -8.5t8.5 8.5t-8.5 8.5zM162.5 201q-8.5 0 -8.5 -9t8.5 -9t8.5 9t-8.5 9zM136.5 329q-8.5 0 -8.5 -9t8.5 -9
t8.5 9t-8.5 9zM136.5 277q-8.5 0 -8.5 -8.5t8.5 -8.5t8.5 8.5t-8.5 8.5zM136.5 226q-8.5 0 -8.5 -8.5t8.5 -8.5t8.5 8.5t-8.5 8.5zM110.5 183q8.5 0 8.5 9t-8.5 9t-8.5 -9t8.5 -9zM110.5 235q8.5 0 8.5 8.5t-8.5 8.5t-8.5 -8.5t8.5 -8.5zM110.5 286q8.5 0 8.5 8.5t-8.5 8.5
t-8.5 -8.5t8.5 -8.5zM435 141v-111h-358v111h170v-10q-11 -3 -18 -12t-7 -21q0 -14 10 -24t24 -10t24 10t10 24q0 12 -7 21t-18 12v10h170z" />
  </g>

</svg>
