<?xml version="1.0" standalone="no"?>
<!DOCTYPE svg PUBLIC "-//W3C//DTD SVG 1.1//EN" "http://www.w3.org/Graphics/SVG/1.1/DTD/svg11.dtd" >
<svg xmlns="http://www.w3.org/2000/svg" xmlns:xlink="http://www.w3.org/1999/xlink" version="1.1" viewBox="-10 0 522 512">
  <g transform="matrix(1 0 0 -1 0 448)">
   <path fill="currentColor"
d="M447 379q9 0 9 -9t-9 -9q-57 0 -103.5 -43t-66.5 -111q26 35 68.5 55.5t92.5 20.5q9 0 9 -8.5t-9 -8.5q-56 0 -101 -28t-63 -72q49 39 138 39q9 0 9 -8.5t-9 -8.5q-55 0 -97 -18t-49 -43h120v-70h-22l-32 -121h-152l-32 121h-22v70h120q-7 25 -49 43t-97 18q-9 0 -9 8.5
t9 8.5q89 0 138 -39q-18 44 -63 72t-101 28q-9 0 -9 8.5t9 8.5q50 0 92.5 -20.5t68.5 -55.5q-20 68 -66.5 111t-103.5 43q-9 0 -9 9t9 9q60 0 109.5 -43t72.5 -112v215q0 9 9 9t9 -9v-215q23 69 72.5 112t109.5 43zM218.5 8q2.5 3 2.5 6.5t-2 5.5q-6 6 -13 0q-2 -2 -2 -5.5
t2.5 -6.5t6 -3t6 3zM256 5q9 0 9 9t-9 9h-17q-9 0 -9 -9t9 -9h17zM265 31q8 0 8 9t-8 9h-52q-9 0 -9 -9t9 -9h52zM296.5 34q2.5 3 2.5 6.5t-2 5.5q-6 6 -12 0q-3 -2 -3 -5.5t2.5 -6.5t6 -3t6 3z" />
  </g>

</svg>
