<?xml version="1.0" standalone="no"?>
<!DOCTYPE svg PUBLIC "-//W3C//DTD SVG 1.1//EN" "http://www.w3.org/Graphics/SVG/1.1/DTD/svg11.dtd" >
<svg xmlns="http://www.w3.org/2000/svg" xmlns:xlink="http://www.w3.org/1999/xlink" version="1.1" viewBox="-10 0 532 512">
  <g transform="matrix(1 0 0 -1 0 448)">
   <path fill="currentColor"
d="M495 414v-9h17v-469h-34h-17h-17h-17h-34v119h-274v-119h-34h-17h-17h-17h-34v469h17v9h-8q-9 0 -9 8.5t9 8.5h8v8q0 9 8.5 9t8.5 -9v-8h17v8q0 9 8.5 9t8.5 -9v-8h17v8q0 9 8.5 9t8.5 -9v-8h308v8q0 9 8.5 9t8.5 -9v-8h17v8q0 9 8.5 9t8.5 -9v-8h17v8q0 9 8.5 9t8.5 -9
v-8h8q9 0 9 -8.5t-9 -8.5h-8zM34 -47v435h-17v-435h17zM34 405h17v9h-17v-9zM68 -47v435h-17v-435h17zM68 405h17v9h-17v-9zM102 132v256h-17v-435h17v102v35v17v25zM335 155q-6 -6 0 -12q3 -2 6.5 -2t5.5 2l35 34q6 6 -0.5 12.5t-12.5 0.5zM330 169q6 6 0 12t-12 0l-25 -26
q-6 -6 0 -12q2 -2 5.5 -2t6.5 2zM333 192q0 -3 2.5 -6t6 -3t6 3t2.5 6t-3 6q-6 6 -12 0q-2 -3 -2 -6zM382 220q6 6 -0.5 12t-12.5 0l-17 -17q-6 -6 0 -12q3 -2 6.5 -2t5.5 2zM265 405h128h17v9h-308v-9h17h128v-290h-128v-8h274v8h-128v145h34q8 0 8 8.5t-8 8.5h-34v128z
M177 357q6 6 0 12t-12 0l-35 -34q-6 -6 0 -13q3 -2 6.5 -2t6.5 2zM182 343q-6 -6 0 -12q2 -2 5.5 -2t6.5 2l25 26q6 6 0 12t-12 0zM179 320q0 3 -2 6q-6 6 -12 0q-3 -3 -3 -6t2.5 -6t6 -3t6 3t2.5 6zM130 292q-6 -6 0 -12q3 -3 6.5 -3t6.5 3l17 17q6 6 0 12t-12 0zM427 -47
v435h-17v-256v-25v-17v-35v-102h17zM427 405h17v9h-17v-9zM461 -47v435h-17v-435h17zM461 405h17v9h-17v-9zM495 -47v435h-17v-435h17z" />
  </g>

</svg>
