<?xml version="1.0" standalone="no"?>
<!DOCTYPE svg PUBLIC "-//W3C//DTD SVG 1.1//EN" "http://www.w3.org/Graphics/SVG/1.1/DTD/svg11.dtd" >
<svg xmlns="http://www.w3.org/2000/svg" xmlns:xlink="http://www.w3.org/1999/xlink" version="1.1" viewBox="-10 0 522 512">
  <g transform="matrix(1 0 0 -1 0 448)">
   <path fill="currentColor"
d="M383.5 385q6.5 -6 0.5 -13l-16 -16q9 -15 9 -33.5t-9 -34.5l12 -12q6 -6 0 -12q-3 -3 -6.5 -3t-6.5 3l-10 10q-19 -17 -45 -17h-4q-1 -22 -4 -43h21q9 0 9 -9t-9 -9h-24q-9 -46 -25 -69h84v-69h-20l-40 -122h-106l-40 122h-19v69h84q-7 10 -13 26h-28q-9 0 -9 8.5t9 8.5
h22l-4 18h-5q-20 0 -34 14t-14 33q0 12 5 22l-20 20q-6 6 0.5 12t12.5 0l18 -18q12 10 28 12q0 40 7 76l-22 22q-6 6 0 12.5t12 -0.5l14 -14q17 69 49 69q17 0 30 -19l16 16q6 7 12.5 0.5t0.5 -12.5l-21 -20q6 -12 10 -28q3 1 4 1v19q0 8 9 8t9 -8v-18q23 -1 40 -17l14 15
q6 6 12.5 0zM210 8q3 3 3 6.5t-3 5.5q-6 6 -12 0q-3 -2 -3 -5.5t2.5 -6.5t6 -3t6.5 3zM247 5q9 0 9 9t-9 9h-17q-9 0 -9 -9t9 -9h17zM256 31q9 0 9 9t-9 9h-52q-9 0 -9 -9t9 -9h52zM288.5 34q2.5 3 2.5 6.5t-3 5.5q-6 6 -12 0q-3 -2 -3 -5.5t3 -6.5t6.5 -3t6 3zM290 261
q-5 2 -9 4v0q-3 2 -7 5q-1 1 -2 1q-3 3 -6 5q0 1 -2 3t-3.5 4t-1.5 3l-4 6q-1 1 -2 3q-1 3 -2 5h-21q-9 0 -9 9t9 9h18q-1 3 -1 4q0 4 1 8v2q1 3 1 6q1 1 1 2q1 4 2 7q2 4 4 7v1l4 6l1 1q2 3 5 5v1q3 2 6 5l1 1l6 4v0q-3 12 -7 22l-10 -10q-2 -3 -6 -3t-6 3q-6 6 0 12l14 14
q-9 15 -17 15q-9 0 -18.5 -18t-16.5 -48l15 -15q7 -6 0 -12q-2 -3 -5.5 -3t-6.5 3l-7 6q-4 -29 -4 -63q15 -4 25 -17q4 -6 7 -13v0q1 -4 2 -7v-1q1 -4 1 -8q0 -2 -1 -6v-1q0 -3 -1 -5v-1l-2 -6l-0.5 -0.5l-0.5 -0.5l-2 -4l-0.5 -0.5l-0.5 -0.5q-7 -11 -19 -17q3 -12 6 -23
h21q8 0 8 -8.5t-8 -8.5h-15q12 -26 23 -26q9 0 19.5 18.5t16.5 50.5h-10q-8 0 -8 9t8 9h13q3 22 4 47z" />
  </g>

</svg>
