<?xml version="1.0" standalone="no"?>
<!DOCTYPE svg PUBLIC "-//W3C//DTD SVG 1.1//EN" "http://www.w3.org/Graphics/SVG/1.1/DTD/svg11.dtd" >
<svg xmlns="http://www.w3.org/2000/svg" xmlns:xlink="http://www.w3.org/1999/xlink" version="1.1" viewBox="-10 0 532 512">
  <g transform="matrix(1 0 0 -1 0 448)">
   <path fill="currentColor"
d="M420 50v28h37v-28h-37zM439 232v1v-1zM54 133q2 13 1 27h1l0.5 -0.5t0.5 -1.5v-1q1 -2 2 -3v-1q2 -2 3 -4h1q2 -2 3 -2q0 -1 1 -1.5l3 -1.5h1q2 -1 3 -1l1 -0.5l1 -0.5h5h40h4q1 0 1.5 0.5l0.5 0.5q2 0 3 1h1q2 1 3 2q1 0 1 1q2 0 3 2h1q2 2 3 4v1q1 1 2 3l1 1v1.5v0.5
h222v-0.5v-1.5l1 -1q1 -2 2 -3v-1q1 -2 3 -4h1q1 -2 3 -2q0 -1 1 -1.5l3 -1.5h1q1 -1 3 -1l0.5 -0.5t1.5 -0.5h4h40h5l0.5 0.5t1.5 0.5t3 1h1q2 1 3 2q1 0 1 1q1 0 3 2h1q1 2 3 4v1q1 1 2 3v1t0.5 1.5l0.5 0.5h1q-1 -14 1 -27h-404zM42 211l-0.5 1l-0.5 1q-2 6 -5 9
q0 1 -1 1l20 12v-28v-29h-2q-3 12 -7 23v2zM55 50v28h36v-28h-36zM467 96h-1h-36h-348h-36h-1l6 18h410zM81 215h40q7 0 7 -8v-29v-9v-2q0 -7 -7 -7h-40q-8 0 -8 7v2v9v29q0 8 8 8zM496 213q16 -26 16 -62t-16 -62q-1 -2 -2 -2t-2 2l-1 1q-3 5 -6 11q-1 2 -1 4q-3 6 -4 11
q0 1 -1 6q-1 3 -2 8t-1 9q0 5 -1 9v7q1 3 1 8v2t0.5 3t0.5 3v2q1 6 2 9q0 1 1.5 5.5t2.5 8.5q2 3 2 5q3 7 6 12q1 1 2 1q0 1 1 1t2 -2zM431 215q8 0 8 -8v-29v-9v-2q0 -7 -8 -7h-40q-7 0 -7 7v2v9v29q0 8 7 8h40zM477 223q-1 0 -1 -1q-2 -4 -5 -9l-0.5 -1l-0.5 -1l-4 -8v-2
q-4 -11 -7 -23h-2v29v28zM108 334h296q14 0 24.5 -10.5t10.5 -24.5v-11q0 9 -9.5 9t-9.5 -9t9.5 -9t9.5 9v-37v-18q0 9 -9.5 9t-9.5 -9h-29q-3 0 -7 -1v1q0 9 -9 9t-9 -9q0 -7 6 -8q-6 -8 -6 -18v-29h-37q0 9 -9 9t-9 -9h-37q0 9 -9 9t-9 -9h-37q0 9 -9 9t-9 -9h-36
q0 9 -9.5 9t-9.5 -9v29q0 11 -7.5 18.5t-17.5 7.5h-11q0 9 -9 9t-9 -9h-11h-5l-1 -1h-1h-1v19q9 0 9 9.5t-9 9.5v29q0 3 1 7q8 1 8 9q0 3 -1 5q10 14 27 14zM100.5 279q9.5 0 9.5 9t-9.5 9t-9.5 -9t9.5 -9zM128 251q9 0 9 9.5t-9 9.5t-9 -9.5t9 -9.5zM128 306q9 0 9 9.5
t-9 9.5t-9 -9.5t9 -9.5zM155.5 224q9.5 0 9.5 9t-9.5 9t-9.5 -9t9.5 -9zM155.5 279q9.5 0 9.5 9t-9.5 9t-9.5 -9t9.5 -9zM183 197q9 0 9 9t-9 9t-9 -9t9 -9zM183 251q9 0 9 9.5t-9 9.5t-9 -9.5t9 -9.5zM183 306q9 0 9 9.5t-9 9.5t-9 -9.5t9 -9.5zM210 224q9 0 9 9t-9 9
t-9 -9t9 -9zM210 279q9 0 9 9t-9 9t-9 -9t9 -9zM238 197q9 0 9 9t-9 9t-9 -9t9 -9zM238 251q9 0 9 9.5t-9 9.5t-9 -9.5t9 -9.5zM238 306q9 0 9 9.5t-9 9.5t-9 -9.5t9 -9.5zM265 224q9 0 9 9t-9 9t-9 -9t9 -9zM265 279q9 0 9 9t-9 9t-9 -9t9 -9zM292.5 197q9.5 0 9.5 9
t-9.5 9t-9.5 -9t9.5 -9zM292.5 251q9.5 0 9.5 9.5t-9.5 9.5t-9.5 -9.5t9.5 -9.5zM292.5 306q9.5 0 9.5 9.5t-9.5 9.5t-9.5 -9.5t9.5 -9.5zM320 224q9 0 9 9t-9 9t-9 -9t9 -9zM320 279q9 0 9 9t-9 9t-9 -9t9 -9zM347.5 197q9.5 0 9.5 9t-9.5 9t-9.5 -9t9.5 -9zM347.5 251
q9.5 0 9.5 9.5t-9.5 9.5t-9.5 -9.5t9.5 -9.5zM347.5 306q9.5 0 9.5 9.5t-9.5 9.5t-9.5 -9.5t9.5 -9.5zM375 279q9 0 9 9t-9 9t-9 -9t9 -9zM402 251q9 0 9 9.5t-9 9.5t-9 -9.5t9 -9.5zM411 315.5q0 9.5 -9 9.5t-9 -9.5t9 -9.5t9 9.5zM36 139q0 -4 -1 -9t-2 -8q-1 -5 -1 -6
q-1 -5 -4 -11q0 -2 -1 -4q-3 -7 -6 -11l-1 -1q-1 -2 -2 -2t-2 2q-16 26 -16 62t16 62q1 2 2 2t3 -2q3 -5 6 -12q1 -2 2 -5q1 -4 2.5 -8.5t1.5 -5.5q1 -3 2 -9v-2t0.5 -3t0.5 -4v-1q0 -5 1 -8v-7q-1 -4 -1 -9z" />
  </g>

</svg>
