<?xml version="1.0" standalone="no"?>
<!DOCTYPE svg PUBLIC "-//W3C//DTD SVG 1.1//EN" "http://www.w3.org/Graphics/SVG/1.1/DTD/svg11.dtd" >
<svg xmlns="http://www.w3.org/2000/svg" xmlns:xlink="http://www.w3.org/1999/xlink" version="1.1" viewBox="-11 0 534 512">
  <g transform="matrix(1 0 0 -1 0 448)">
   <path fill="currentColor"
d="M423 142l12 -9v-5q0 -9 -6 -15t-15 -6h-316q-9 0 -15 6t-6 15v5l12 9q82 32 164 -1h1h2h2h1q82 33 164 1zM469 252q15 -1 26.5 -9.5t15.5 -22.5q4 -16 -3 -30t-22 -20v-81q0 -12 -7 -21t-18 -12v-35q0 -8 -9 -8h-25q-6 0 -8 5l-15 37h-296l-15 -37q-2 -5 -8 -5h-25
q-9 0 -9 8v35q-11 3 -18 12t-7 21v81q-13 6 -20.5 18.5t-5.5 26.5q3 16 15 26t28 11q14 20 35 34h59q10 0 17.5 -7.5t7.5 -18.5q0 -8 8.5 -8t8.5 8q0 18 -12.5 30.5t-29.5 12.5h-2q14 30 47 49t74 19t74 -19t47 -49h-2q-17 0 -29.5 -12.5t-12.5 -30.5q0 -8 8.5 -8t8.5 8
q0 11 7.5 18.5t17.5 7.5h59q21 -14 35 -34zM232 272q-6 -12 0 -23l-8 -8q-6 -6 0 -12q3 -3 6.5 -3t5.5 3l8 7q6 -2 12 -2t12 2l8 -7q2 -3 5.5 -3t6.5 3q6 6 0 12l-8 8q6 11 0 23l8 8q6 6 0 12t-12 0l-8 -8q-12 5 -24 0l-8 8q-6 6 -12 0t0 -12zM476 184q9 3 15 12t3 20
q-2 8 -9.5 13.5t-16.5 5.5q-1 0 -1.5 -0.5t-1.5 -0.5q-6 0 -12 -3q-2 -1 -5 -3l-1 -1q-2 -1 -3 -3l-2 -2q-1 -2 -2 -2q0 -1 -1 -3q0 -1 -1 -1v-2q-1 -1 -2 -4v-0.5v-1.5q-1 -3 -1 -6v-48l-4 2q0 1 -1 1q-87 35 -174 1q-87 34 -174 -1q-1 0 -1 -1l-4 -2v48q0 3 -1 6v1.5v0.5
q-1 3 -2 4l-1 2.5t-1.5 3t-1.5 2.5l-2 2q-1 2 -3 3l-1 1q-3 2 -5 3q-6 3 -12 3q-1 0 -1.5 0.5t-1.5 0.5q-10 0 -17.5 -6.5t-9.5 -15.5q-1 -10 4.5 -18t14.5 -11q1 0 2 -1h13q9 0 9 -8.5t-9 -8.5h-8v-77q0 -7 4.5 -11.5t11.5 -4.5h1h42h308h42h1q7 0 11.5 4.5t4.5 11.5v77h-8
q-9 0 -9 8.5t9 8.5h13q1 1 2 1z" />
  </g>

</svg>
