<?xml version="1.0" standalone="no"?>
<!DOCTYPE svg PUBLIC "-//W3C//DTD SVG 1.1//EN" "http://www.w3.org/Graphics/SVG/1.1/DTD/svg11.dtd" >
<svg xmlns="http://www.w3.org/2000/svg" xmlns:xlink="http://www.w3.org/1999/xlink" version="1.1" viewBox="-10 0 532 512">
  <g transform="matrix(1 0 0 -1 0 448)">
   <path fill="currentColor"
d="M0 448h512v-512h-43v26h-426v-26h-43v512zM495 -47v478h-478v-478h9v26h460v-26h9zM265 141v119h221v-119h-221zM265 277v137h221v-137h-221zM26 141v119h221v-119h-221zM26 277v137h221v-137h-221zM265 -13v137h221v-137h-221zM26 -13v137h221v-137h-221z" />
  </g>

</svg>
