<?xml version="1.0" standalone="no"?>
<!DOCTYPE svg PUBLIC "-//W3C//DTD SVG 1.1//EN" "http://www.w3.org/Graphics/SVG/1.1/DTD/svg11.dtd" >
<svg xmlns="http://www.w3.org/2000/svg" xmlns:xlink="http://www.w3.org/1999/xlink" version="1.1" viewBox="-10 0 532 512">
  <g transform="matrix(1 0 0 -1 0 448)">
   <path fill="currentColor"
d="M495 256q17 -10 17 -30v-171h-9v-25h-51v25h-8h-376h-8v-25h-51v25h-9v171q0 20 17 30v22q0 31 22.5 53.5t53.5 22.5h122q23 0 41 -14q18 14 41 14h122q31 0 53.5 -22.5t22.5 -53.5v-22zM51 201v23q0 12 -10 18q-3 1 -5 1h-0.5h-1h-1.5h-2t-3 -1q-11 -4 -11 -16v-153h34
v85v43zM247 303v-9q0 -8 9 -8t9 8v9q0 8 -9 8t-9 -8zM247 269v-9q0 -8 9 -8t9 8v9q0 8 -9 8t-9 -8zM247 235v-9q0 -8 9 -8t9 8v9q0 8 -9 8t-9 -8zM76.5 73q8.5 0 8.5 8.5t-8.5 8.5t-8.5 -8.5t8.5 -8.5zM76.5 124q8.5 0 8.5 8.5t-8.5 8.5t-8.5 -8.5t8.5 -8.5zM102.5 98
q8.5 0 8.5 8.5t-8.5 8.5t-8.5 -8.5t8.5 -8.5zM128 73q9 0 9 8.5t-9 8.5t-9 -8.5t9 -8.5zM128 124q9 0 9 8.5t-9 8.5t-9 -8.5t9 -8.5zM153.5 98q8.5 0 8.5 8.5t-8.5 8.5t-8.5 -8.5t8.5 -8.5zM179.5 73q8.5 0 8.5 8.5t-8.5 8.5t-8.5 -8.5t8.5 -8.5zM179.5 124q8.5 0 8.5 8.5
t-8.5 8.5t-8.5 -8.5t8.5 -8.5zM204.5 98q8.5 0 8.5 8.5t-8.5 8.5t-8.5 -8.5t8.5 -8.5zM230.5 73q8.5 0 8.5 8.5t-8.5 8.5t-8.5 -8.5t8.5 -8.5zM230.5 124q8.5 0 8.5 8.5t-8.5 8.5t-8.5 -8.5t8.5 -8.5zM256 98q9 0 9 8.5t-9 8.5t-9 -8.5t9 -8.5zM281.5 73q8.5 0 8.5 8.5
t-8.5 8.5t-8.5 -8.5t8.5 -8.5zM281.5 124q8.5 0 8.5 8.5t-8.5 8.5t-8.5 -8.5t8.5 -8.5zM307.5 98q8.5 0 8.5 8.5t-8.5 8.5t-8.5 -8.5t8.5 -8.5zM332.5 73q8.5 0 8.5 8.5t-8.5 8.5t-8.5 -8.5t8.5 -8.5zM332.5 124q8.5 0 8.5 8.5t-8.5 8.5t-8.5 -8.5t8.5 -8.5zM358.5 98
q8.5 0 8.5 8.5t-8.5 8.5t-8.5 -8.5t8.5 -8.5zM384 73q9 0 9 8.5t-9 8.5t-9 -8.5t9 -8.5zM384 124q9 0 9 8.5t-9 8.5t-9 -8.5t9 -8.5zM409.5 98q8.5 0 8.5 8.5t-8.5 8.5t-8.5 -8.5t8.5 -8.5zM435.5 73q8.5 0 8.5 8.5t-8.5 8.5t-8.5 -8.5t8.5 -8.5zM435.5 124q8.5 0 8.5 8.5
t-8.5 8.5t-8.5 -8.5t8.5 -8.5zM444 166v26h-147q-20 0 -35 -15q-6 -6 -12 0q-15 15 -35 15h-147v-26h376zM495 73v153q0 12 -11 16q-2 1 -3 1h-2h-1h-2t-5 -1q-10 -6 -10 -18v-23v-43v-85h34z" />
  </g>

</svg>
