<?xml version="1.0" standalone="no"?>
<!DOCTYPE svg PUBLIC "-//W3C//DTD SVG 1.1//EN" "http://www.w3.org/Graphics/SVG/1.1/DTD/svg11.dtd" >
<svg xmlns="http://www.w3.org/2000/svg" xmlns:xlink="http://www.w3.org/1999/xlink" version="1.1" viewBox="-10 0 522 512">
  <g transform="matrix(1 0 0 -1 0 448)">
   <path fill="currentColor"
d="M393 12q14 -1 24 -12t10 -26t-11.5 -26.5t-27.5 -11.5t-27 11.5t-11 26.5q0 27 25 36v5l-93 21v-3l20 -20h1q16 0 27 -11.5t11 -27t-11 -27t-27 -11.5t-27 11.5t-11 26.5q0 22 19 33l-14 14h-28l-14 -14q19 -11 19 -33q0 -15 -11 -26.5t-27 -11.5t-27 11.5t-11 27t11 27
t27 11.5h1l20 20v3l-93 -21v-5q25 -9 25 -36q0 -15 -11 -26.5t-27 -11.5t-27.5 11.5t-11.5 26.5t10 26t24 12v9l1 1v2t0.5 1.5l1 1l1 1t1.5 1l1 0.5q1 0 1 1l104 24v10h17v17h-17v26h-8v25h-103v17q0 14 10.5 24t24.5 10h76v9h-25q8 0 8 9v8q0 9 -8.5 9t-8.5 -9v-8
q0 -9 9 -9h-60v43q0 -9 9 -9h8q9 0 9 8.5t-9 8.5h-8q-9 0 -9 -8v34q0 -9 9 -9h8q9 0 9 8.5t-9 8.5h-8q-9 0 -9 -8v34q0 -9 9 -9h8q9 0 9 8.5t-9 8.5h-8q-9 0 -9 -8v34q0 -8 9 -8h8q9 0 9 8.5t-9 8.5h-8q-9 0 -9 -9v29q-26 12 -26 39q0 18 12.5 30.5t30.5 12.5h188
q18 0 30.5 -12.5t12.5 -30.5q0 -27 -26 -39v-29q0 9 -9 9h-8q-9 0 -9 -8.5t9 -8.5h8q9 0 9 8v-34q0 8 -9 8h-8q-9 0 -9 -8.5t9 -8.5h8q9 0 9 9v-34q0 8 -9 8h-8q-9 0 -9 -8.5t9 -8.5h8q9 0 9 9v-34q0 8 -9 8h-8q-9 0 -9 -8.5t9 -8.5h8q9 0 9 9v-43h-60q9 0 9 9v8q0 9 -8.5 9
t-8.5 -9v-8q0 -9 8 -9h-25v-9h76q14 0 24.5 -10t10.5 -24v-17h-82l17 -17h22q8 0 8 -8.5t-8 -8.5h-26q-1 0 -3 0.5t-3 2.5l-28 28v-22h-8v-26h-17v-17h17v-10l104 -24q0 -1 1 -1l1 -0.5t1.5 -1l1 -1l1 -1t0.5 -1.5v-2l1 -1v-9zM316 243h-2q2 2 2 4v13q8 0 8 8.5t-8 8.5h-17
q-9 0 -9 -8.5t9 -8.5v-13q0 -2 1 -4h-1q-9 0 -9 -8.5t9 -8.5h17q8 0 8 8.5t-8 8.5zM316 324q0 2 -2 5h2q8 0 8 8.5t-8 8.5h-17q-9 0 -9 -8.5t9 -8.5h1q-1 -3 -1 -5v-13q-9 0 -9 -8.5t9 -8.5h17q8 0 8 8.5t-8 8.5v13zM213 243h-1q1 2 1 4v13q9 0 9 8.5t-9 8.5h-17
q-8 0 -8 -8.5t8 -8.5v-13q0 -2 2 -4h-2q-8 0 -8 -8.5t8 -8.5h17q9 0 9 8.5t-9 8.5zM213 324q0 2 -1 5h1q9 0 9 8.5t-9 8.5h-17q-8 0 -8 -8.5t8 -8.5h2q-2 -3 -2 -5v-13q-8 0 -8 -8.5t8 -8.5h17q9 0 9 8.5t-9 8.5v13zM205 380h51q-9 0 -9 -9v-8q0 -9 9 -9t9 9v8q0 9 -9 9h51
q-8 0 -8 -9v-8q0 -9 8.5 -9t8.5 9v8q0 9 -9 9h43q10 0 17.5 7.5t7.5 18t-7.5 18t-17.5 7.5h-188q-10 0 -17.5 -7.5t-7.5 -18t7.5 -18t17.5 -7.5h43q-9 0 -9 -9v-8q0 -9 8.5 -9t8.5 9v8q0 9 -8 9zM265 324q0 2 -2 5h2q8 0 8 8.5t-8 8.5h-18q-8 0 -8 -8.5t8 -8.5h2
q-2 -3 -2 -5v-13q-8 0 -8 -8.5t8 -8.5h18q8 0 8 8.5t-8 8.5v13zM265 243h-2q2 2 2 4v13q8 0 8 8.5t-8 8.5h-18q-8 0 -8 -8.5t8 -8.5v-13q0 -2 2 -4h-2q-8 0 -8 -8.5t8 -8.5h18q8 0 8 8.5t-8 8.5zM265 209q0 9 -9 9t-9 -9v-8q0 -9 9 -9t9 9v8zM222 149h68h85q0 7 -5 12t-12 5
h-76h-52h-76q-7 0 -12 -5t-5 -12h85z" />
  </g>

</svg>
