<?xml version="1.0" standalone="no"?>
<!DOCTYPE svg PUBLIC "-//W3C//DTD SVG 1.1//EN" "http://www.w3.org/Graphics/SVG/1.1/DTD/svg11.dtd" >
<svg xmlns="http://www.w3.org/2000/svg" xmlns:xlink="http://www.w3.org/1999/xlink" version="1.1" viewBox="-10 0 523 512">
  <g transform="matrix(1 0 0 -1 0 448)">
   <path fill="currentColor"
d="M495 -47q8 0 8 -8.5t-8 -8.5h-18h-442h-18q-8 0 -8 8.5t8 8.5h18v35h17v408h-17v35h-18q-8 0 -8 8.5t8 8.5h18h442h18q8 0 8 -8.5t-8 -8.5h-18v-35h-17v-408h17v-35h18zM69 396v-408h374v408h-374zM78 196v191h174v-191h-174zM223 225q3 3 3 6.5t-3 5.5q-6 6 -12 0
q-3 -2 -3 -5.5t2.5 -6.5t6 -3t6.5 3zM193 255q-6 -7 0 -13q3 -2 6.5 -2t6.5 2l17 18q6 6 0 12t-12 0zM176 237q-2 -2 -2 -5.5t2.5 -6.5t6 -3t6 3t2.5 6.5t-3 5.5q-6 6 -12 0zM141 359q-2 -3 -2 -6.5t2.5 -6t6 -2.5t6 2.5t2.5 6t-2 6.5q-7 6 -13 0zM107 359q-3 -3 -3 -6.5
t2.5 -6t6 -2.5t6 2.5t2.5 6t-2 6.5q-6 6 -12 0zM107 324q-6 -6 0 -12q2 -3 5.5 -3t6.5 3l17 17q6 6 0 12t-12 0zM260 196v191h174v-191h-174zM405.5 225q2.5 3 2.5 6.5t-3 5.5q-6 6 -12 0q-2 -2 -2 -5.5t2.5 -6.5t6 -3t6 3zM376 255q-6 -7 0 -13q2 -2 5.5 -2t6.5 2l17 18
q6 6 0 12t-12 0zM358 237q-2 -2 -2 -5.5t2.5 -6.5t6 -3t6 3t2.5 6.5t-2 5.5q-7 6 -13 0zM324 359q-3 -3 -3 -6.5t2.5 -6t6 -2.5t6 2.5t2.5 6t-2 6.5q-6 6 -12 0zM289 359q-3 -3 -3 -6.5t3 -6t6.5 -2.5t6 2.5t2.5 6t-3 6.5q-6 6 -12 0zM289 324q-6 -6 0 -12q2 -3 6 -3t6 3
l18 17q6 6 -0.5 12t-12.5 0zM78 -3v191h174v-191h-174zM223 25.5q3 2.5 3 6t-3 6.5q-6 6 -12 0q-3 -3 -3 -6.5t2.5 -6t6 -2.5t6.5 2.5zM193 55q-6 -6 0 -12q3 -3 6.5 -3t6.5 3l17 17q6 6 0 12t-12 0zM176 38q-2 -3 -2 -6.5t2.5 -6t6 -2.5t6 2.5t2.5 6t-3 6.5q-6 6 -12 0z
M141 159q-2 -3 -2 -6.5t2.5 -6t6 -2.5t6 2.5t2.5 6t-2 6.5q-7 6 -13 0zM107 159q-3 -2 -3 -6t2.5 -6.5t6 -2.5t6 2.5t2.5 6t-2 6.5q-6 6 -12 0zM107 124q-6 -6 0 -12q2 -2 5.5 -2t6.5 2l17 17q6 7 0 13t-12 0zM260 -3v191h174v-191h-174zM405.5 25.5q2.5 2.5 2.5 6t-3 6.5
q-6 6 -12 0q-2 -3 -2 -6.5t2.5 -6t6 -2.5t6 2.5zM376 55q-6 -6 0 -12q2 -3 5.5 -3t6.5 3l17 17q6 6 0 12t-12 0zM358 38q-2 -3 -2 -6.5t2.5 -6t6 -2.5t6 2.5t2.5 6t-2 6.5q-7 6 -13 0zM324 159q-3 -3 -3 -6.5t2.5 -6t6 -2.5t6 2.5t2.5 6t-2 6.5q-6 6 -12 0zM289 159
q-3 -2 -3 -6t3 -6.5t6.5 -2.5t6 2.5t2.5 6t-3 6.5q-6 6 -12 0zM289 124q-6 -6 0 -12q2 -2 6 -2t6 2l18 17q6 7 -0.5 13t-12.5 0z" />
  </g>

</svg>
