<?xml version="1.0" standalone="no"?>
<!DOCTYPE svg PUBLIC "-//W3C//DTD SVG 1.1//EN" "http://www.w3.org/Graphics/SVG/1.1/DTD/svg11.dtd" >
<svg xmlns="http://www.w3.org/2000/svg" xmlns:xlink="http://www.w3.org/1999/xlink" version="1.1" viewBox="-10 0 532 512">
  <g transform="matrix(1 0 0 -1 0 448)">
   <path fill="currentColor"
d="M367 175h94v-47q0 -9 -6.5 -15t-15.5 -6h-366q-9 0 -15.5 6t-6.5 15v47h94q21 0 35 -15l6 -6l6 6q15 15 35 15h58q20 0 35 -15l6 -6l6 6q14 15 35 15zM478 252q14 0 24 -10t10 -24v-103v-69q0 -14 -9.5 -23.5t-23.5 -9.5h-446q-14 0 -23.5 9.5t-9.5 23.5v69v103
q0 14 10 24t24 10q20 24 47 37l11 5h36q25 0 42.5 -17.5t17.5 -41.5q0 -9 8.5 -9t8.5 9q0 31 -22.5 53.5t-54.5 22.5h-3q72 60 131 60t131 -60h-3q-32 0 -54.5 -22.5t-22.5 -53.5q0 -9 8.5 -9t8.5 9q0 24 17.5 41.5t42.5 17.5h36l11 -5q27 -13 47 -37zM495 115v103
q0 7 -5 12t-12 5l-2 -1h-1q-3 0 -5 -1l-1 -1l-2 -1v-1q-1 0 -1.5 -0.5t-1 -1.5l-0.5 -1q-1 -1 -1 -2l-0.5 -0.5l-0.5 -0.5q0 -1 -1 -2v-1v-3v-26h-94q-23 0 -41 -14q-18 14 -41 14h-58q-23 0 -41 -14q-18 14 -41 14h-94v26v3v1q-1 1 -1 2v0.5t-1 0.5q0 1 -1 2l-0.5 1t-1 1.5
t-1.5 0.5v1q-1 1 -2 1l-1 1q-2 1 -5 1h-1l-2 1q-7 0 -12 -5t-5 -12v-103q0 -17 12.5 -29.5t30.5 -12.5h392q18 0 30.5 12.5t12.5 29.5z" />
  </g>

</svg>
