<?xml version="1.0" standalone="no"?>
<!DOCTYPE svg PUBLIC "-//W3C//DTD SVG 1.1//EN" "http://www.w3.org/Graphics/SVG/1.1/DTD/svg11.dtd" >
<svg xmlns="http://www.w3.org/2000/svg" xmlns:xlink="http://www.w3.org/1999/xlink" version="1.1" viewBox="-10 0 532 512">
  <g transform="matrix(1 0 0 -1 0 448)">
   <path fill="currentColor"
d="M512 397h-17v-410h17v-51h-512v51h17v410h-17v51h512v-51zM478 -13v410h-444v-410h444zM247 380v-179h-196v179h196zM79 318q-6 -7 0 -13q3 -2 6.5 -2t5.5 2l35 35q6 6 -0.5 12t-12.5 0zM108 280q6 6 0 12t-12 0l-17 -17q-6 -6 0 -12q3 -3 6.5 -3t5.5 3zM125.5 296.5
q2.5 2.5 2.5 6t-2 6.5q-7 6 -13 0q-2 -3 -2 -6.5t2.5 -6t6 -2.5t6 2.5zM168 340q6 6 0 12t-12 0l-26 -26q-6 -6 0 -12q3 -3 6.5 -3t6.5 3zM461 380v-179h-196v179h196zM293 318q-6 -7 0 -13q2 -2 5.5 -2t6.5 2l34 35q6 6 0 12t-12 0zM322 280q6 6 0 12t-12 0l-17 -17
q-6 -6 0 -12q2 -3 5.5 -3t6.5 3zM338.5 296.5q2.5 2.5 2.5 6t-2 6.5q-6 6 -12 0q-3 -3 -3 -6.5t2.5 -6t6 -2.5t6 2.5zM382 340q6 6 -0.5 12t-12.5 0l-25 -26q-6 -6 0 -12q2 -3 5.5 -3t6.5 3zM247 183v-179h-196v179h196zM79 121q-6 -6 0 -12q3 -2 6.5 -2t5.5 2l35 34
q6 6 -0.5 12t-12.5 0zM108 84q6 6 0 12t-12 0l-17 -17q-6 -6 0 -13q3 -2 6.5 -2t5.5 2zM125.5 100.5q2.5 2.5 2.5 6t-2 6.5q-7 6 -13 0q-2 -3 -2 -6.5t2.5 -6t6 -2.5t6 2.5zM168 143q6 6 0 12t-12 0l-26 -25q-6 -6 0 -12q3 -3 6.5 -3t6.5 3zM461 183v-179h-196v179h196z
M293 121q-6 -6 0 -12q2 -2 5.5 -2t6.5 2l34 34q6 6 0 12t-12 0zM322 84q6 6 0 12t-12 0l-17 -17q-6 -6 0 -13q2 -2 5.5 -2t6.5 2zM338.5 100.5q2.5 2.5 2.5 6t-2 6.5q-6 6 -12 0q-3 -3 -3 -6.5t2.5 -6t6 -2.5t6 2.5zM382 143q6 6 -0.5 12t-12.5 0l-25 -25q-6 -6 0 -12
q2 -3 5.5 -3t6.5 3z" />
  </g>

</svg>
