<?xml version="1.0" standalone="no"?>
<!DOCTYPE svg PUBLIC "-//W3C//DTD SVG 1.1//EN" "http://www.w3.org/Graphics/SVG/1.1/DTD/svg11.dtd" >
<svg xmlns="http://www.w3.org/2000/svg" xmlns:xlink="http://www.w3.org/1999/xlink" version="1.1" viewBox="-10 0 532 512">
  <g transform="matrix(1 0 0 -1 0 448)">
   <path fill="currentColor"
d="M503 -47q9 0 9 -8.5t-9 -8.5h-8h-154h-8q-9 0 -9 8.5t9 8.5h8v26h34v34h18v128h51v-128h17v-34h34v-26h8zM393 196l-86 -86v-72v-17v-85h-51v17h-171v-17h-51v85v17v26q-34 26 -34 68q0 50 43 74q21 56 76 78v10q0 22 15 37t36.5 15t36.5 -15t15 -37v-10
q32 -13 54.5 -40.5t28.5 -62.5l88 87v125q0 22 16 38.5t39 16.5q18 0 35 -11q20 -14 20 -39v-1v-43v0q0 -48 -33 -81l-26 -26v-55h-51v4zM458 285q28 28 28 69h-18q-4 -33 -24 -58v-25zM448 397q-4 0 -4 -4v-64q8 19 8 40v24q0 4 -4 4zM137 290h0.5h1.5q4 2 6 2q5 1 10 1
q2 1 4 1h11.5h12.5q2 0 3 -1q6 0 10 -1q2 0 7 -2h0.5h1.5v4q0 15 -10 25t-24 10t-24 -10t-10 -25v-4zM17 132q0 -26 17 -45v71q0 5 1 12v6l0.5 1.5l0.5 1.5q-19 -19 -19 -47zM51 -47h17v68h-17v-68zM170.5 252q-35.5 0 -60.5 -27.5t-25 -66.5t25 -66.5t60.5 -27.5t60.5 27.5
t25 66.5t-25 66.5t-60.5 27.5zM230 -21q9 0 9 8.5t-9 8.5h-119q-9 0 -9 -8.5t9 -8.5h119zM230 13q9 0 9 8.5t-9 8.5h-119q-9 0 -9 -8.5t9 -8.5h119zM290 -47v68h-17v-68h17zM170.5 81q-28.5 0 -48.5 22.5t-20 54.5t20 54.5t48.5 22.5t48.5 -22.5t20 -54.5t-20 -54.5
t-48.5 -22.5zM171 218q-14 0 -24 -10t-10 -24.5t10 -24.5t24 -10t24 10t10 24.5t-10 24.5t-24 10zM393 158v17h51v-17h-51z" />
  </g>

</svg>
