<?xml version="1.0" standalone="no"?>
<!DOCTYPE svg PUBLIC "-//W3C//DTD SVG 1.1//EN" "http://www.w3.org/Graphics/SVG/1.1/DTD/svg11.dtd" >
<svg xmlns="http://www.w3.org/2000/svg" xmlns:xlink="http://www.w3.org/1999/xlink" version="1.1" viewBox="-10 0 532 512">
  <g transform="matrix(1 0 0 -1 0 448)">
   <path fill="currentColor"
d="M42.5 90q8.5 0 8.5 -9v-8q0 -9 -8.5 -9t-8.5 9v8q0 9 8.5 9zM42.5 158q8.5 0 8.5 -9v-8q0 -9 -8.5 -9t-8.5 9v8q0 9 8.5 9zM42.5 124q8.5 0 8.5 -9v-8q0 -9 -8.5 -9t-8.5 9v8q0 9 8.5 9zM42.5 21q8.5 0 8.5 -8v-9q0 -8 -8.5 -8t-8.5 8v9q0 8 8.5 8zM42.5 55q8.5 0 8.5 -8
v-9q0 -8 -8.5 -8t-8.5 8v9q0 8 8.5 8zM42.5 -13q8.5 0 8.5 -8v-9q0 -8 -8.5 -8t-8.5 8v9q0 8 8.5 8zM68.5 55q8.5 0 8.5 -8v-9q0 -8 -8.5 -8t-8.5 8v9q0 8 8.5 8zM68.5 21q8.5 0 8.5 -8v-9q0 -8 -8.5 -8t-8.5 8v9q0 8 8.5 8zM68.5 -13q8.5 0 8.5 -8v-9q0 -8 -8.5 -8t-8.5 8
v9q0 8 8.5 8zM68.5 90q8.5 0 8.5 -9v-8q0 -9 -8.5 -9t-8.5 9v8q0 9 8.5 9zM68.5 158q8.5 0 8.5 -9v-8q0 -9 -8.5 -9t-8.5 9v8q0 9 8.5 9zM68.5 124q8.5 0 8.5 -9v-8q0 -9 -8.5 -9t-8.5 9v8q0 9 8.5 9zM93.5 90q8.5 0 8.5 -9v-8q0 -9 -8.5 -9t-8.5 9v8q0 9 8.5 9zM93.5 124
q8.5 0 8.5 -9v-8q0 -9 -8.5 -9t-8.5 9v8q0 9 8.5 9zM93.5 158q8.5 0 8.5 -9v-8q0 -9 -8.5 -9t-8.5 9v8q0 9 8.5 9zM93.5 55q8.5 0 8.5 -8v-9q0 -8 -8.5 -8t-8.5 8v9q0 8 8.5 8zM93.5 21q8.5 0 8.5 -8v-9q0 -8 -8.5 -8t-8.5 8v9q0 8 8.5 8zM93.5 -13q8.5 0 8.5 -8v-9
q0 -8 -8.5 -8t-8.5 8v9q0 8 8.5 8zM478 337h34v-316h-196v214h-197v-34h-8v-26h-85v26h-9v34h-17v102h316h17h8v34h-25v51h-171q-8 0 -8 8.5t8 8.5h171h8h179v-68h-25v-34zM102 218v17h-68v-17h68zM358 371v-34h103v34h-103zM316 -55v59h196v-59h-196z" />
  </g>

</svg>
