<?xml version="1.0" standalone="no"?>
<!DOCTYPE svg PUBLIC "-//W3C//DTD SVG 1.1//EN" "http://www.w3.org/Graphics/SVG/1.1/DTD/svg11.dtd" >
<svg xmlns="http://www.w3.org/2000/svg" xmlns:xlink="http://www.w3.org/1999/xlink" version="1.1" viewBox="-10 0 532 512">
  <g transform="matrix(1 0 0 -1 0 448)">
   <path fill="currentColor"
d="M486 218q11 0 18.5 -7.5t7.5 -18.5t-7.5 -18.5t-18.5 -7.5h-8v-51h-31q20 -36 14 -78q-6 -39 7 -52q0 -1 1 -1l24 -34q3 -5 1 -9.5t-8 -4.5h-8q-21 0 -38 17q-15 16 -23 41.5t-7 44.5q0 23 -6 41.5t-10.5 24t-8.5 8.5l-1 1l-1 1h-25v-34h-204v34h-25l-1 -1l-1 -1
q-4 -3 -8.5 -8.5t-10.5 -24t-6 -41.5q1 -19 -7 -44.5t-23 -41.5q-17 -17 -38 -17h-8q-6 0 -8 4.5t1 9.5l24 34q1 0 1 1q13 13 7 52q-6 42 14 78h-31v51h-8q-11 0 -18.5 7.5t-7.5 18.5t7.5 18.5t18.5 7.5h25v42h111v17h-111v43q0 9 9 9h94v17q0 42 30 72t72 30t72 -30t30 -72
v-17h94q9 0 9 -9v-43h-111v-17h111v-42h25zM393 303q-9 0 -9 -8.5t9 -8.5h17q8 0 8 8.5t-8 8.5h-17zM119 286q9 0 9 8.5t-9 8.5h-17q-8 0 -8 -8.5t8 -8.5h17zM393 252q-9 0 -9 -8.5t9 -8.5h17q8 0 8 8.5t-8 8.5h-17zM203 352q-6 -6 0 -12q3 -3 6.5 -3t5.5 3l39 38
q6 6 -0.5 12t-12.5 0zM199 309q-6 -6 0 -12q2 -3 5.5 -3t6.5 3l85 85q6 6 0 12t-12 0zM288 331q6 6 0 12t-12 0l-26 -25q-6 -7 0 -13q2 -2 6 -2t6 2zM247 294.5q0 3.5 -2 5.5q-6 6 -12 0q-3 -2 -3 -5.5t2.5 -6t6 -2.5t6 2.5t2.5 6zM102 252q-8 0 -8 -8.5t8 -8.5h17
q9 0 9 8.5t-9 8.5h-17zM282 107q8 0 8 8.5t-8 8.5h-52q-8 0 -8 -8.5t8 -8.5h52zM461 132v34h-410v-34h29h46h28v17h204v-17h28h46h29zM486 183q9 0 9 9t-9 9h-136h-188h-136q-9 0 -9 -9t9 -9h8h444h8z" />
  </g>

</svg>
