<?xml version="1.0" standalone="no"?>
<!DOCTYPE svg PUBLIC "-//W3C//DTD SVG 1.1//EN" "http://www.w3.org/Graphics/SVG/1.1/DTD/svg11.dtd" >
<svg xmlns="http://www.w3.org/2000/svg" xmlns:xlink="http://www.w3.org/1999/xlink" version="1.1" viewBox="-10 0 532 512">
  <g transform="matrix(1 0 0 -1 0 448)">
   <path fill="currentColor"
d="M307 358v-145h-77v145h77zM241 322q-6 -6 0 -12l15 -15l26 26l2 -3q6 -6 12 0t0 12l-14 15l-26 -26l-2 3q-7 6 -13 0zM296 250q6 6 0 12l-14 15l-26 -26l-2 2q-7 7 -13 0.5t0 -12.5l15 -14l26 25l2 -2q6 -6 12 0zM296 284q6 6 0 12l-14 15l-26 -26l-2 3q-7 6 -13 0t0 -12
l15 -15l26 26l2 -3q6 -6 12 0zM111 358v-145h-60v14l26 25l11 -11q6 -6 12 0t0 12l-23 24l-26 -26v10l26 26l11 -11q6 -6 12 0t0 12l-23 23l-26 -26v10l26 26l11 -11q6 -6 12 0t0 12l-23 23l-26 -26v39h60zM213 358v-145h-85v145h85zM202 241q6 6 0 12l-23 24l-25 -26l-3 3
q-6 6 -12 -0.5t0 -12.5l15 -14l25 25l11 -11q6 -6 12 0zM202 276q6 6 0 12l-23 23l-25 -26l-3 3q-6 6 -12 0t0 -12l15 -15l25 26l11 -11q6 -6 12 0zM202 310q6 6 0 12l-23 23l-25 -26l-3 3q-6 6 -12 0t0 -12l15 -15l25 26l11 -11q6 -6 12 0zM213 196v-145h-85v145h85z
M202 79q6 6 0 12l-23 23l-25 -25l-3 2q-6 6 -12 0t0 -12l15 -14l25 25l11 -11q6 -6 12 0zM202 113q6 6 0 12l-23 24l-25 -26l-3 3q-6 6 -12 -0.5t0 -12.5l15 -14l25 25l11 -11q6 -6 12 0zM202 148q6 6 0 12l-23 23l-25 -26l-3 3q-6 6 -12 0t0 -12l15 -15l25 26l11 -11
q6 -6 12 0zM111 196v-145h-60v14l26 25l11 -11q6 -6 12 0t0 12l-23 23l-26 -25v10l26 25l11 -11q6 -6 12 0t0 12l-23 24l-26 -26v10l26 26l11 -11q6 -6 12 0t0 12l-23 23l-26 -26v39h60zM384 252v-39h-60v145h60v-13l-26 -26l-11 11q-6 6 -12 0t0 -12l23 -23l26 26v-10
l-26 -26l-11 11q-6 6 -12 0t0 -12l23 -23l26 26v-10l-26 -26l-11 11q-6 6 -12 0t0 -12l23 -23zM512 410v-410h-26v-26h-51v26h-358v-26h-51v26h-26v410h512zM418 375v-51h60v51h-60zM418 316v-51h60v51h-60zM401 34v341h-367v-341h367zM448 51q16 0 27 11.5t11 27.5t-11 27
h-1q-11 11 -26 11q-16 0 -27 -11.5t-11 -27t11 -27t27 -11.5zM458 88l10 10q1 -4 1 -8q0 -9 -6 -15.5t-15 -6.5t-15 6.5t-6 15t6 15t15 6.5q4 0 7 -1l-9 -10q-6 -6 0 -12q3 -3 6 -3q4 0 6 3zM307 196v-145h-77v145h77zM241 160q-6 -6 0 -12l15 -15l26 26l2 -3q6 -6 12 0
t0 12l-14 15l-26 -26l-2 3q-7 6 -13 0zM296 88q6 6 0 12l-14 14l-26 -25l-2 2q-7 6 -13 0t0 -12l15 -14l26 25l2 -2q6 -6 12 0zM296 122q6 6 0 12l-14 15l-26 -26l-2 2q-7 7 -13 0.5t0 -12.5l15 -14l26 25l2 -2q6 -6 12 0zM384 90v-39h-60v145h60v-13l-26 -26l-11 11
q-6 6 -12 0t0 -12l23 -23l26 26v-10l-26 -26l-11 11q-6 6 -12 0t0 -12l23 -23l26 25v-10l-26 -25l-11 11q-6 6 -12 0t0 -12l23 -23z" />
  </g>

</svg>
