<?xml version="1.0" standalone="no"?>
<!DOCTYPE svg PUBLIC "-//W3C//DTD SVG 1.1//EN" "http://www.w3.org/Graphics/SVG/1.1/DTD/svg11.dtd" >
<svg xmlns="http://www.w3.org/2000/svg" xmlns:xlink="http://www.w3.org/1999/xlink" version="1.1" viewBox="-10 0 532 512">
  <g transform="matrix(1 0 0 -1 0 448)">
   <path fill="currentColor"
d="M482 252q12 0 21 -9t9 -21t-9 -21t-21 -9h-10q-3 0 -3 -2v-36v-5v-19q0 -42 -29 -71t-70 -29h-88v-22l136 -28v-7q0 -15 -11 -26t-26 -11q-3 0 -6 1l-119 24l-118 -24q-4 -1 -7 -1q-15 0 -26 11t-11 26v7l136 28v22h-88q-41 0 -70 29t-29 71v19v5v36q0 2 -3 2h-10
q-12 0 -21 9t-9 21t9 21t21 9h8q16 0 31 -8q2 11 10 18t19 7h64v17h-33q-25 0 -43 17.5t-18 42.5v53q0 20 14.5 34.5t34.5 14.5h278q20 0 34.5 -14.5t14.5 -34.5v-53q0 -25 -18 -42.5t-43 -17.5h-33v-17h64q11 0 19 -7t10 -18q15 8 31 8h8zM369 241l-11 -11l-11 11
q-6 6 -12 0t0 -12l11 -11l-11 -11q-6 -6 0 -13q3 -2 6.5 -2t5.5 2l11 12l11 -12q3 -2 6.5 -2t6.5 2q6 7 0 13l-12 11l12 11q6 6 -0.5 12t-12.5 0zM179 269h154v17h-154v-17zM318 374l11 -11l-11 -11q-6 -6 0 -12q3 -3 6.5 -3t5.5 3l11 11l11 -11q3 -3 6.5 -3t5.5 3q6 6 0 12
l-11 11l11 11q6 6 0 12t-12 0l-11 -11l-11 11q-6 6 -12 0t0 -12zM160 340l11 11l11 -11q2 -3 5.5 -3t6.5 3q6 6 0 12l-11 11l11 11q6 6 0 12t-12 0l-11 -11l-11 11q-6 6 -12 0t0 -12l11 -11l-11 -11q-6 -6 0 -12q2 -3 5.5 -3t6.5 3zM130 229l12 -11l-12 -11q-6 -6 0 -13
q3 -2 6.5 -2t6.5 2l11 12l11 -12q2 -2 5.5 -2t6.5 2q6 7 0 13l-11 11l11 11q6 6 0 12t-12 0l-11 -11l-11 11q-6 6 -12.5 0t-0.5 -12zM102 166h-17h-3q8 -12 26 -27t34 -15h228q16 0 34 15t26 27h-3h-17h-308zM40 209q8 0 14 -5.5t6 -13.5v-9q2 0 5 1l1 1h7h12v5q0 4 -1 9
t-2 9h-1q-1 4 -4 8t-6 7q-14 14 -33 14h-8q-5 0 -9 -4t-4 -9t4 -9t9 -4h10zM482 209q5 0 9 4t4 9t-4 9t-9 4h-8q-19 0 -33 -14q-3 -3 -6 -7t-4 -8h-1q-1 -4 -2 -9t-1 -9v-5h12h7l1 -1q3 -1 5 -1v9q0 8 6 13.5t14 5.5h10z" />
  </g>

</svg>
