<?xml version="1.0" standalone="no"?>
<!DOCTYPE svg PUBLIC "-//W3C//DTD SVG 1.1//EN" "http://www.w3.org/Graphics/SVG/1.1/DTD/svg11.dtd" >
<svg xmlns="http://www.w3.org/2000/svg" xmlns:xlink="http://www.w3.org/1999/xlink" version="1.1" viewBox="-10 0 532 512">
  <g transform="matrix(1 0 0 -1 0 448)">
   <path fill="currentColor"
d="M51 128q0 9 8.5 9t8.5 -9t-8.5 -9t-8.5 9zM26 153.5q0 8.5 8.5 8.5t8.5 -8.5t-8.5 -8.5t-8.5 8.5zM77 153.5q0 8.5 8.5 8.5t8.5 -8.5t-8.5 -8.5t-8.5 8.5zM26 102.5q0 8.5 8.5 8.5t8.5 -8.5t-8.5 -8.5t-8.5 8.5zM77 102.5q0 8.5 8.5 8.5t8.5 -8.5t-8.5 -8.5t-8.5 8.5z
M102 128q0 9 8.5 9t8.5 -9t-8.5 -9t-8.5 9zM154 128q0 9 8.5 9t8.5 -9t-8.5 -9t-8.5 9zM128 153.5q0 8.5 8.5 8.5t8.5 -8.5t-8.5 -8.5t-8.5 8.5zM179 153.5q0 8.5 8.5 8.5t8.5 -8.5t-8.5 -8.5t-8.5 8.5zM128 102.5q0 8.5 8.5 8.5t8.5 -8.5t-8.5 -8.5t-8.5 8.5zM179 102.5
q0 8.5 8.5 8.5t8.5 -8.5t-8.5 -8.5t-8.5 8.5zM205 128q0 9 8.5 9t8.5 -9t-8.5 -9t-8.5 9zM256 128q0 9 8.5 9t8.5 -9t-8.5 -9t-8.5 9zM230 153.5q0 8.5 8.5 8.5t8.5 -8.5t-8.5 -8.5t-8.5 8.5zM282 153.5q0 8.5 8.5 8.5t8.5 -8.5t-8.5 -8.5t-8.5 8.5zM230 102.5
q0 8.5 8.5 8.5t8.5 -8.5t-8.5 -8.5t-8.5 8.5zM282 102.5q0 8.5 8.5 8.5t8.5 -8.5t-8.5 -8.5t-8.5 8.5zM307 128q0 9 8.5 9t8.5 -9t-8.5 -9t-8.5 9zM358 128q0 9 8.5 9t8.5 -9t-8.5 -9t-8.5 9zM333 153.5q0 8.5 8.5 8.5t8.5 -8.5t-8.5 -8.5t-8.5 8.5zM384 153.5
q0 8.5 8.5 8.5t8.5 -8.5t-8.5 -8.5t-8.5 8.5zM333 102.5q0 8.5 8.5 8.5t8.5 -8.5t-8.5 -8.5t-8.5 8.5zM384 102.5q0 8.5 8.5 8.5t8.5 -8.5t-8.5 -8.5t-8.5 8.5zM410 128q0 9 8.5 9t8.5 -9t-8.5 -9t-8.5 9zM461 128q0 9 8.5 9t8.5 -9t-8.5 -9t-8.5 9zM435 153.5
q0 8.5 8.5 8.5t8.5 -8.5t-8.5 -8.5t-8.5 8.5zM435 102.5q0 8.5 8.5 8.5t8.5 -8.5t-8.5 -8.5t-8.5 8.5zM194 230h-113q-7 12 2 22l42 42q5 4 12.5 4t12.5 -4l41 -42q10 -10 3 -22zM420 252q10 -10 2 -22h-112q-8 12 2 22l42 42q5 4 12.5 4t12.5 -4zM512 152v-48q0 -11 -7 -19
q7 -8 7 -18v-23q0 -18 -17 -25v-28h-77v26h-324v-26h-77v28q-17 7 -17 25v23q0 10 7 18q-7 8 -7 19v48v1v1v4l24 194q5 18 19.5 29.5t32.5 11.5h360q18 0 32.5 -11.5t19.5 -29.5v-1l24 -193v-4v-1v-1zM495 162v9q0 23 -15.5 40t-38.5 19q5 20 -9 34l-41 42q-10 10 -24.5 10
t-24.5 -10l-42 -42q-14 -14 -8 -34h-80q5 20 -9 34l-41 42q-10 10 -24.5 10t-24.5 -10l-42 -42q-15 -15 -8 -35q-20 -5 -33 -21t-13 -37v-9l1 -8l-1 -2v-48q0 -10 10 -10h7h51h52h51h51h51h51h52h51h41q2 0 5 2q-4 2 -4 6q0 9 9 9v34q-9 0 -9 9q0 4 4 6zM435 213
q16 0 27.5 -9.5t14.5 -24.5h-442q3 15 14.5 24.5t27.5 9.5h124h101h128h5z" />
  </g>

</svg>
