<?xml version="1.0" standalone="no"?>
<!DOCTYPE svg PUBLIC "-//W3C//DTD SVG 1.1//EN" "http://www.w3.org/Graphics/SVG/1.1/DTD/svg11.dtd" >
<svg xmlns="http://www.w3.org/2000/svg" xmlns:xlink="http://www.w3.org/1999/xlink" version="1.1" viewBox="-10 0 532 512">
  <g transform="matrix(1 0 0 -1 0 448)">
   <path fill="currentColor"
d="M0 448h512v-512h-43v17h-426v-17h-43v512zM495 -47v478h-478v-478h9v17h460v-17h9zM367 235v-69h-222v69h222zM265 192q8 0 8 8.5t-8 8.5h-18q-8 0 -8 -8.5t8 -8.5h18zM128 235v-69h-102v69h102zM85 192q9 0 9 8.5t-9 8.5h-17q-8 0 -8 -8.5t8 -8.5h17zM486 320v-68h-102
v68h102zM444 277q8 0 8 8.5t-8 8.5h-17q-9 0 -9 -8.5t9 -8.5h17zM128 320v-68h-102v68h102zM85 277q9 0 9 8.5t-9 8.5h-17q-8 0 -8 -8.5t8 -8.5h17zM486 235v-69h-102v69h102zM444 192q8 0 8 8.5t-8 8.5h-17q-9 0 -9 -8.5t9 -8.5h17zM367 149v-68h-222v68h222zM265 107
q8 0 8 8.5t-8 8.5h-18q-8 0 -8 -8.5t8 -8.5h18zM367 422v-85h-222v85h222zM265 363q8 0 8 8.5t-8 8.5h-18q-8 0 -8 -8.5t8 -8.5h18zM367 64v-85h-222v85h222zM265 21q8 0 8 8.5t-8 8.5h-18q-8 0 -8 -8.5t8 -8.5h18zM367 320v-68h-222v68h222zM265 277q8 0 8 8.5t-8 8.5h-18
q-8 0 -8 -8.5t8 -8.5h18zM128 149v-68h-102v68h102zM85 107q9 0 9 8.5t-9 8.5h-17q-8 0 -8 -8.5t8 -8.5h17zM128 64v-85h-102v85h102zM85 21q9 0 9 8.5t-9 8.5h-17q-8 0 -8 -8.5t8 -8.5h17zM486 422v-85h-102v85h102zM444 363q8 0 8 8.5t-8 8.5h-17q-9 0 -9 -8.5t9 -8.5h17z
M128 422v-85h-102v85h102zM85 363q9 0 9 8.5t-9 8.5h-17q-8 0 -8 -8.5t8 -8.5h17zM486 149v-68h-102v68h102zM444 107q8 0 8 8.5t-8 8.5h-17q-9 0 -9 -8.5t9 -8.5h17zM486 64v-85h-102v85h102zM444 21q8 0 8 8.5t-8 8.5h-17q-9 0 -9 -8.5t9 -8.5h17z" />
  </g>

</svg>
