<?xml version="1.0" standalone="no"?>
<!DOCTYPE svg PUBLIC "-//W3C//DTD SVG 1.1//EN" "http://www.w3.org/Graphics/SVG/1.1/DTD/svg11.dtd" >
<svg xmlns="http://www.w3.org/2000/svg" xmlns:xlink="http://www.w3.org/1999/xlink" version="1.1" viewBox="-10 0 532 512">
  <g transform="matrix(1 0 0 -1 0 448)">
   <path fill="currentColor"
d="M469 268q19 -3 31 -17.5t12 -33t-12 -33t-31 -17.5v-129h-59v17h-308v-17h-59v129q-19 3 -31 17.5t-12 33t12 33t31 17.5v43q0 14 10 24.5t24 10.5h138q23 0 41 -15q18 15 41 15h138q14 0 24 -10.5t10 -24.5v-43zM60 311v-43v0l8 -2h0.5t0.5 -1q4 -1 7 -3h1q4 -3 7 -5.5
t6 -5.5v0q3 -3 5 -7q0 -1 1 -1q1 -3 3 -7v-1q2 -4 2 -8l0.5 -0.5l0.5 -0.5v-8v-26h126q14 0 25 -10l3 -4l3 4q11 10 25 10h126v26v8l0.5 0.5l0.5 0.5q0 4 2 8v1q2 4 3 7q1 0 1 1q2 4 5 7v0q3 4 6 6t7 5h1q3 2 7 3q0 1 0.5 1h0.5l8 2v0v43q0 7 -5 12.5t-12 5.5h-138
q-20 0 -35 -15l-6 -6l-6 6q-15 15 -35 15h-138q-7 0 -12 -5.5t-5 -12.5zM265 73h145v59h-308v-59h145v25q0 9 9 9t9 -9v-25zM318 229q-6 6 0 12l8 8q-6 11 0 23l-8 8q-6 6 0 12t12 0l8 -8q12 5 24 0l7 8q6 6 12.5 0t0.5 -12l-8 -8q5 -12 0 -23l8 -8q6 -6 0 -12
q-3 -3 -6.5 -3t-6.5 3l-7 7q-6 -2 -12 -2t-12 2l-8 -7q-2 -3 -5.5 -3t-6.5 3zM357 267q-3 3 -7 3t-7 -3q-7 -7 0 -13.5t13.5 0t0.5 13.5zM130 229q-6 6 0 12l8 8q-5 11 0 23l-8 8q-6 6 0.5 12t12.5 0l7 -8q12 5 24 0l8 8q6 6 12 0t0 -12l-8 -8q6 -12 0 -23l8 -8q6 -6 0 -12
q-3 -3 -6.5 -3t-5.5 3l-8 7q-6 -2 -12 -2t-12 2l-7 -7q-3 -3 -6.5 -3t-6.5 3zM169 267q-3 3 -7 3t-7 -3q-6 -7 0.5 -13.5t13.5 0t0 13.5zM256 269q-9 0 -9 8v9q0 8 9 8t9 -8v-9q0 -8 -9 -8zM256 235q-9 0 -9 8v9q0 8 9 8t9 -8v-9q0 -8 -9 -8zM256 201q-9 0 -9 8v9q0 8 9 8
t9 -8v-9q0 -8 -9 -8z" />
  </g>

</svg>
