<?xml version="1.0" standalone="no"?>
<!DOCTYPE svg PUBLIC "-//W3C//DTD SVG 1.1//EN" "http://www.w3.org/Graphics/SVG/1.1/DTD/svg11.dtd" >
<svg xmlns="http://www.w3.org/2000/svg" xmlns:xlink="http://www.w3.org/1999/xlink" version="1.1" viewBox="-10 0 532 512">
  <g transform="matrix(1 0 0 -1 0 448)">
   <path fill="currentColor"
d="M465 2l27 -26q4 -4 2 -9t-8 -5h-9q-76 0 -76 78q0 18 -7 32.5t-11.5 18.5t-7.5 6l-2 1h-234l-2 -1q-3 -2 -7.5 -6t-11.5 -18.5t-7 -32.5q0 -78 -76 -78h-9q-6 0 -8 5t2 9l27 26q10 9 4 36q-6 31 16 60h-33q-8 0 -8 9v128h460v-128q0 -9 -8 -9h-33q22 -29 16 -60
q-6 -27 4 -36zM61 149q6 1 11 -3t5 -9v-3q-1 -4 1.5 -7t6.5 -3h342q4 0 6.5 3t1.5 7v3q0 5 5 9t11 3q4 -1 7 1.5t3 6.5v35q0 4 -3 7t-7 2q-6 -1 -11 2.5t-5 9.5v3q1 4 -1.5 7t-6.5 3h-342q-4 0 -6.5 -3t-1.5 -7v-3q0 -6 -5 -9.5t-11 -2.5q-4 1 -7 -2t-3 -7v-35q0 -4 3 -6.5
t7 -1.5zM486 422q11 0 18.5 -7.5t7.5 -18t-7.5 -18t-18.5 -7.5v-119h-460v119q-11 0 -18.5 7.5t-7.5 18t7.5 18t18.5 7.5h460zM461 294v35q0 4 -3 6.5t-7 1.5q-6 -1 -11 3t-5 10v2q1 4 -1.5 7.5t-6.5 3.5h-342q-4 0 -6.5 -3.5t-1.5 -7.5v-2q0 -6 -5 -10t-11 -3q-4 1 -7 -1.5
t-3 -6.5v-35q0 -4 3 -6.5t7 -1.5q6 1 11 -3t5 -10v-2q-1 -4 1.5 -7.5t6.5 -3.5h342q4 0 6.5 3.5t1.5 7.5v2q0 6 5 10t11 3q4 -1 7 1.5t3 6.5zM94 141q-2 10 -9 17t-17 8v18q10 1 17 8t9 17h324q2 -10 9 -17t17 -8v-18q-10 -1 -17 -8t-9 -17h-324zM213.5 192q-8.5 0 -8.5 -9
q0 -10 7.5 -17.5t17.5 -7.5h52q10 0 17.5 7.5t7.5 17.5q0 9 -8.5 9t-8.5 -8.5t-8 -8.5h-52q-8 0 -8 8.5t-8.5 8.5zM418 346q2 -10 9 -17t17 -9v-17q-10 -2 -17 -9t-9 -17h-324q-2 10 -9 17t-17 9v17q10 2 17 9t9 17h324zM282 294q10 0 17.5 7.5t7.5 18.5q0 9 -8.5 9t-8.5 -9
t-8 -9h-52q-8 0 -8 9t-8.5 9t-8.5 -9q0 -11 7.5 -18.5t17.5 -7.5h52z" />
  </g>

</svg>
