<?xml version="1.0" standalone="no"?>
<!DOCTYPE svg PUBLIC "-//W3C//DTD SVG 1.1//EN" "http://www.w3.org/Graphics/SVG/1.1/DTD/svg11.dtd" >
<svg xmlns="http://www.w3.org/2000/svg" xmlns:xlink="http://www.w3.org/1999/xlink" version="1.1" viewBox="-10 0 532 512">
  <g transform="matrix(1 0 0 -1 0 448)">
   <path fill="currentColor"
d="M494 216q18 -28 18 -66.5t-18 -66.5q-6 -10 -16 -10q-9 0 -16 8h-1v-25q0 -9 -9 -9h-34q-8 0 -8 9v25h-308v-25q0 -9 -8 -9h-34q-9 0 -9 9v25h-1q-7 -8 -16 -8q-10 0 -16 10q-18 28 -18 66.5t18 66.5q5 8 13 10l37 22v39q0 21 14.5 35.5t35.5 14.5h276q21 0 35.5 -14.5
t14.5 -35.5v-39l37 -22q8 -2 13 -10zM375 166v-1q0 -7 7 -7h38q7 0 7 7v1v9v27q0 7 -7 7h-38q-7 0 -7 -7v-27v-9zM300 272q-5 -12 0 -23l-7 -8q-6 -6 0 -12q2 -3 5.5 -3t6.5 3l7 7q6 -2 12 -2t12 2l8 -7q2 -3 5.5 -3t6.5 3q6 6 0 12l-8 8q6 11 0 23l8 8q6 6 0 12t-12 0
l-8 -8q-12 5 -23 0l-8 8q-6 6 -12 0t0 -12zM164 272q-6 -12 0 -23l-8 -8q-6 -6 0 -12q3 -3 6.5 -3t5.5 3l8 7q6 -2 12 -2t11 2l8 -7q3 -3 6.5 -3t5.5 3q6 6 0 12l-7 8q5 11 0 23l7 8q6 6 0 12t-12 0l-8 -8q-11 5 -23 0l-8 8q-6 6 -12 0t0 -12zM85 166v-1q0 -7 7 -7h38
q7 0 7 7v1v9v27q0 7 -7 7h-38q-7 0 -7 -7v-27v-9zM67 132h378q-2 13 -1 26h-1l-0.5 -1l-0.5 -1q0 -1 -1 -1q0 -1 -1 -3q0 -1 -1 -1q-1 -2 -2 -3l-0.5 -0.5l-0.5 -0.5q-1 -1 -3 -2l-1 -1q-1 0 -2 -1h-2q-1 -1 -3 -1l-0.5 -0.5l-0.5 -0.5h-4h-38h-4h-1l-1 1q-1 0 -2 1h-2
q-1 1 -2 1q-1 1 -2 1l-2 2l-0.5 0.5l-0.5 0.5q-1 2 -2 3q-1 0 -1 1q-1 2 -2 3v1l-0.5 1l-0.5 1h-206l-0.5 -1l-0.5 -1v-1q-1 -1 -2 -3q0 -1 -1 -1q-1 -2 -2 -3l-0.5 -0.5l-0.5 -0.5l-2 -2q-1 0 -2 -1q-1 0 -2 -1h-2q-1 -1 -3 -1l-0.5 -0.5l-0.5 -0.5h-4h-38h-4h-1v1
q-2 0 -3 1h-2q-1 1 -2 1l-1 1q-2 1 -3 2l-0.5 0.5l-0.5 0.5q-1 2 -2 3q-1 0 -1 1q-1 2 -1 3q-1 0 -1 1l-0.5 1l-0.5 1h-1q1 -13 -1 -26zM331 253.5q-7 -6.5 -13.5 0t-0.5 13.5q3 3 7 3t7 -3q7 -7 0 -13.5zM194.5 253.5q-6.5 -6.5 -13.5 0t0 13.5q3 3 7 3t7 -3
q6 -7 -0.5 -13.5z" />
  </g>

</svg>
