<?xml version="1.0" standalone="no"?>
<!DOCTYPE svg PUBLIC "-//W3C//DTD SVG 1.1//EN" "http://www.w3.org/Graphics/SVG/1.1/DTD/svg11.dtd" >
<svg xmlns="http://www.w3.org/2000/svg" xmlns:xlink="http://www.w3.org/1999/xlink" version="1.1" viewBox="-10 0 532 512">
  <g transform="matrix(1 0 0 -1 0 448)">
   <path fill="currentColor"
d="M512 146v-128h-26v-17q0 -9 -8 -9h-51q-9 0 -9 9v17h-324v-17q0 -9 -9 -9h-51q-8 0 -8 9v17h-26v128h26v17q0 8 8 8h51q9 0 9 -8v-17h65l127 120q-6 8 -6 18q0 13 9 21l10 10q6 7 4 16q-5 20 4 29l24 23q8 9 21 9t21 -9l103 -102q8 -9 8 -21.5t-8 -20.5l-24 -24
q-9 -9 -28 -4q-10 2 -17 -4l-9 -10q-9 -9 -22 -9q-10 0 -18 6l-48 -48h108v17q0 8 9 8h51q8 0 8 -8v-17h26zM77 9v17v111v17h-34v-8v-128v-9h34zM94 35h324v94h-124l-23 -24q-3 -2 -6.5 -2t-5.5 2q-7 6 0 13l23 23l2 2l62 63l-48 48l-130 -123l-25 -26q-3 -2 -6.5 -2t-6.5 2
q-6 6 0 13l12 11h-48v-94zM469 9v9v128v8h-34v-17v-111v-17h34z" />
  </g>

</svg>
