<?xml version="1.0" standalone="no"?>
<!DOCTYPE svg PUBLIC "-//W3C//DTD SVG 1.1//EN" "http://www.w3.org/Graphics/SVG/1.1/DTD/svg11.dtd" >
<svg xmlns="http://www.w3.org/2000/svg" xmlns:xlink="http://www.w3.org/1999/xlink" version="1.1" viewBox="-10 0 532 512">
  <g transform="matrix(1 0 0 -1 0 448)">
   <path fill="currentColor"
d="M222 448h290v-512h-290v512zM495 162v269h-137v-17h9q17 0 29.5 -12t13.5 -29v-2q0 -8 -9 -8h-102q-9 0 -9 8q0 18 12.5 30.5t30.5 12.5h8v17h-102v-478h256v209zM281.5 226q8.5 0 8.5 -8v-9q0 -8 -8.5 -8t-8.5 8v9q0 8 8.5 8zM281.5 192q8.5 0 8.5 -9v-8q0 -9 -8.5 -9
t-8.5 9v8q0 9 8.5 9zM281.5 158q8.5 0 8.5 -9v-8q0 -9 -8.5 -9t-8.5 9v8q0 9 8.5 9zM281.5 329q8.5 0 8.5 -9v-9q0 -8 -8.5 -8t-8.5 8v9q0 9 8.5 9zM281.5 260q8.5 0 8.5 -8v-9q0 -8 -8.5 -8t-8.5 8v9q0 8 8.5 8zM281.5 294q8.5 0 8.5 -8v-9q0 -8 -8.5 -8t-8.5 8v9
q0 8 8.5 8zM281.5 21q8.5 0 8.5 -8v-9q0 -8 -8.5 -8t-8.5 8v9q0 8 8.5 8zM281.5 124q8.5 0 8.5 -9v-8q0 -9 -8.5 -9t-8.5 9v8q0 9 8.5 9zM281.5 55q8.5 0 8.5 -8v-9q0 -8 -8.5 -8t-8.5 8v9q0 8 8.5 8zM281.5 90q8.5 0 8.5 -9v-8q0 -9 -8.5 -9t-8.5 9v8q0 9 8.5 9zM315.5 226
q8.5 0 8.5 -8v-9q0 -8 -8.5 -8t-8.5 8v9q0 8 8.5 8zM315.5 260q8.5 0 8.5 -8v-9q0 -8 -8.5 -8t-8.5 8v9q0 8 8.5 8zM315.5 192q8.5 0 8.5 -9v-8q0 -9 -8.5 -9t-8.5 9v8q0 9 8.5 9zM315.5 294q8.5 0 8.5 -8v-9q0 -8 -8.5 -8t-8.5 8v9q0 8 8.5 8zM315.5 55q8.5 0 8.5 -8v-9
q0 -8 -8.5 -8t-8.5 8v9q0 8 8.5 8zM315.5 90q8.5 0 8.5 -9v-8q0 -9 -8.5 -9t-8.5 9v8q0 9 8.5 9zM315.5 329q8.5 0 8.5 -9v-9q0 -8 -8.5 -8t-8.5 8v9q0 9 8.5 9zM315.5 124q8.5 0 8.5 -9v-8q0 -9 -8.5 -9t-8.5 9v8q0 9 8.5 9zM315.5 158q8.5 0 8.5 -9v-8q0 -9 -8.5 -9
t-8.5 9v8q0 9 8.5 9zM315.5 21q8.5 0 8.5 -8v-9q0 -8 -8.5 -8t-8.5 8v9q0 8 8.5 8zM349.5 260q8.5 0 8.5 -8v-9q0 -8 -8.5 -8t-8.5 8v9q0 8 8.5 8zM349.5 226q8.5 0 8.5 -8v-9q0 -8 -8.5 -8t-8.5 8v9q0 8 8.5 8zM349.5 192q8.5 0 8.5 -9v-8q0 -9 -8.5 -9t-8.5 9v8q0 9 8.5 9
zM349.5 21q8.5 0 8.5 -8v-9q0 -8 -8.5 -8t-8.5 8v9q0 8 8.5 8zM349.5 294q8.5 0 8.5 -8v-9q0 -8 -8.5 -8t-8.5 8v9q0 8 8.5 8zM349.5 329q8.5 0 8.5 -9v-9q0 -8 -8.5 -8t-8.5 8v9q0 9 8.5 9zM349.5 158q8.5 0 8.5 -9v-8q0 -9 -8.5 -9t-8.5 9v8q0 9 8.5 9zM349.5 90
q8.5 0 8.5 -9v-8q0 -9 -8.5 -9t-8.5 9v8q0 9 8.5 9zM349.5 55q8.5 0 8.5 -8v-9q0 -8 -8.5 -8t-8.5 8v9q0 8 8.5 8zM349.5 124q8.5 0 8.5 -9v-8q0 -9 -8.5 -9t-8.5 9v8q0 9 8.5 9zM384 192q9 0 9 -9v-8q0 -9 -9 -9t-9 9v8q0 9 9 9zM384 226q9 0 9 -8v-9q0 -8 -9 -8t-9 8v9
q0 8 9 8zM384 260q9 0 9 -8v-9q0 -8 -9 -8t-9 8v9q0 8 9 8zM384 158q9 0 9 -9v-8q0 -9 -9 -9t-9 9v8q0 9 9 9zM384 294q9 0 9 -8v-9q0 -8 -9 -8t-9 8v9q0 8 9 8zM384 90q9 0 9 -9v-8q0 -9 -9 -9t-9 9v8q0 9 9 9zM384 124q9 0 9 -9v-8q0 -9 -9 -9t-9 9v8q0 9 9 9zM384 55
q9 0 9 -8v-9q0 -8 -9 -8t-9 8v9q0 8 9 8zM384 329q9 0 9 -9v-9q0 -8 -9 -8t-9 8v9q0 9 9 9zM384 21q9 0 9 -8v-9q0 -8 -9 -8t-9 8v9q0 8 9 8zM410 311v9q0 9 8.5 9t8.5 -9v-9q0 -8 -8.5 -8t-8.5 8zM418.5 294q8.5 0 8.5 -8v-9q0 -8 -8.5 -8t-8.5 8v9q0 8 8.5 8zM418.5 90
q8.5 0 8.5 -9v-8q0 -9 -8.5 -9t-8.5 9v8q0 9 8.5 9zM418.5 21q8.5 0 8.5 -8v-9q0 -8 -8.5 -8t-8.5 8v9q0 8 8.5 8zM418.5 55q8.5 0 8.5 -8v-9q0 -8 -8.5 -8t-8.5 8v9q0 8 8.5 8zM418.5 260q8.5 0 8.5 -8v-9q0 -8 -8.5 -8t-8.5 8v9q0 8 8.5 8zM418.5 226q8.5 0 8.5 -8v-9
q0 -8 -8.5 -8t-8.5 8v9q0 8 8.5 8zM418.5 158q8.5 0 8.5 -9v-8q0 -9 -8.5 -9t-8.5 9v8q0 9 8.5 9zM418.5 124q8.5 0 8.5 -9v-8q0 -9 -8.5 -9t-8.5 9v8q0 9 8.5 9zM418.5 192q8.5 0 8.5 -9v-8q0 -9 -8.5 -9t-8.5 9v8q0 9 8.5 9zM465 192q12 0 21 -9t9 -21t-9 -21t-21 -9
t-21 9t-9 21t9 21t21 9zM0 218v230h213v-230h-52q-5 -9 -14 -9h-19v-17h60v-34h25v-68h-213v68h26v34h59v17h-19q-9 0 -13 9h-53zM74.5 356.5q2.5 2.5 2.5 6t-3 6.5q-6 6 -12 0q-2 -3 -2 -6.5t2.5 -6t6 -2.5t6 2.5zM68 226h17v9h-17v-9zM171 175h-43h-43h-42v-17v-18
q0 -10 7 -17.5t18 -7.5h78q10 0 17.5 7.5t7.5 17.5v18v17zM102 192h9v32v11h-9v-11v-32zM128 235v-9h17v9h-17zM105 411l-26 -25q-6 -6 0 -12q3 -3 6.5 -3t5.5 3l26 25q6 6 0 12t-12 0zM28 377q-6 -6 0 -12q3 -2 6.5 -2t5.5 2l34 34q6 6 0 12t-12 0zM28 335q-6 -6 0 -13
q3 -2 6.5 -2t5.5 2l17 18q6 6 0 12t-12 0zM0 21v52h213v-52h-213zM94 55v-17h25v17h-25zM0 -64v68h213v-68h-213zM94 -13v-17h25v17h-25z" />
  </g>

</svg>
