<?xml version="1.0" standalone="no"?>
<!DOCTYPE svg PUBLIC "-//W3C//DTD SVG 1.1//EN" "http://www.w3.org/Graphics/SVG/1.1/DTD/svg11.dtd" >
<svg xmlns="http://www.w3.org/2000/svg" xmlns:xlink="http://www.w3.org/1999/xlink" version="1.1" viewBox="-10 0 532 512">
  <g transform="matrix(1 0 0 -1 0 448)">
   <path fill="currentColor"
d="M503 371h-8v-358h17v-51h-9v-26h-494v26h-9v51h17v358h-8v26h-9v51h512v-51h-9v-26zM486 397h-460v-9h17h17h392h17h17v9zM375 132q0 2 -0.5 3.5t-1.5 2.5l-3 3v3q0 4 -2.5 6.5t-5.5 2.5h-4l-2 2q-6 6 -12 0l-3 -2h-3q-4 0 -6.5 -2.5t-2.5 -6.5v-3l-2 -3q-1 -1 -2 -2.5
t-1 -3.5q0 -3 3 -6l2 -2v-4q0 -3 2.5 -5.5t6.5 -2.5h3l3 -3q6 -6 12 0l2 3h4q3 0 5.5 2.5t2.5 5.5v4l3 2q2 3 2 6zM312 117q-5 7 -5 15h-247v-119h252l-11 25h-8l-15 43h63v9l1 1q-4 1 -8 4q-8 1 -14 7t-8 15zM398 38l-10 -25h64v119h-59q0 -8 -6 -15q-1 -9 -7 -15t-15 -7
q-3 -3 -7 -4v-1v-9h63l-14 -43h-9zM452 149v222h-392v-222h253v1.5v0.5q0 1 1 1v3l0.5 0.5l0.5 0.5l1 2h-248v205h376v-205h-60q0 -1 1 -2v-1q1 -2 1 -3l1 -1v-0.5v-1.5h65zM160 314q6 6 0 12t-12 0l-35 -34q-6 -6 0 -12q3 -3 6.5 -3t6.5 3zM162 277.5q0 3.5 -2 5.5
q-6 6 -12 0q-3 -2 -3 -5.5t2.5 -6t6 -2.5t6 2.5t2.5 6zM143 254q6 6 0 12t-13 0l-17 -17q-6 -6 0 -12q3 -2 6.5 -2t6.5 2zM165 300q-6 -6 0 -12q2 -2 5.5 -2t6.5 2l25 26q6 6 0 12t-12 0zM486 -47v9h-460v-9h460zM341 132.5q0 8.5 8.5 8.5t8.5 -8.5t-8.5 -8.5t-8.5 8.5z" />
  </g>

</svg>
