<?xml version="1.0" standalone="no"?>
<!DOCTYPE svg PUBLIC "-//W3C//DTD SVG 1.1//EN" "http://www.w3.org/Graphics/SVG/1.1/DTD/svg11.dtd" >
<svg xmlns="http://www.w3.org/2000/svg" xmlns:xlink="http://www.w3.org/1999/xlink" version="1.1" viewBox="-10 0 523 512">
  <g transform="matrix(1 0 0 -1 0 448)">
   <path fill="currentColor"
d="M102 55.5q0 -8.5 -8 -8.5h51v-94h-8v-8q0 -9 -9 -9t-9 9v8h-85v-8q0 -9 -8.5 -9t-8.5 9v8h-8v94h51q-9 0 -9 8.5t9 8.5h8v43h-25v85h68v-85h-26v-43h9q8 0 8 -8.5zM179 448h324v-94v-111v-77v-111v-102h-8v-8q0 -9 -8.5 -9t-8.5 9v8h-120h-59h-86v-8q0 -9 -8.5 -9t-8.5 9
v8h-17v495zM265 274l-14 -14h27zM196 320h188v17h-188v-17zM401 337v-77h85v77h-85zM384 431h-188v-77h188v77zM299 -30h59h26v85v111v77v60h-111v-14l32 -31q1 -1 2 -3q1 -3 -0.5 -6.5t-4.5 -4.5q-2 -1 -3 -1h-69q-1 0 -3 1q-3 1 -4.5 4.5t0.5 6.5q0 2 1 3l32 31v14h-60
v-333h73q-4 8 -4 17q0 14 10 24t24 10h34q8 0 8 -8.5t-8 -8.5h-34q-7 0 -12 -5t-5 -12t5 -12t12 -5zM401 149v-76h85v76h-85zM333 47q14 0 24 -10t10 -24t-10 -24t-24 -10h-34q-9 0 -9 8.5t9 8.5h34q7 0 12 5t5 12t-5 12t-12 5h-60q-8 0 -8 8.5t8 8.5h60z" />
  </g>

</svg>
