<?xml version="1.0" standalone="no"?>
<!DOCTYPE svg PUBLIC "-//W3C//DTD SVG 1.1//EN" "http://www.w3.org/Graphics/SVG/1.1/DTD/svg11.dtd" >
<svg xmlns="http://www.w3.org/2000/svg" xmlns:xlink="http://www.w3.org/1999/xlink" version="1.1" viewBox="-10 0 532 512">
  <g transform="matrix(1 0 0 -1 0 448)">
   <path fill="currentColor"
d="M0 448h512v-512h-43v17h-426v-17h-43v512zM495 -47v478h-478v-478h9v17h460v-17h9zM26 277v145h230v-145h-230zM26 141v119h230v-119h-230zM26 -21v145h230v-145h-230zM486 149v-68h-221v68h221zM393 107q8 0 8 8.5t-8 8.5h-35q-8 0 -8 -8.5t8 -8.5h35zM486 422v-85h-221
v85h221zM393 363q8 0 8 8.5t-8 8.5h-35q-8 0 -8 -8.5t8 -8.5h35zM486 235v-69h-221v69h221zM393 192q8 0 8 8.5t-8 8.5h-35q-8 0 -8 -8.5t8 -8.5h35zM486 320v-68h-221v68h221zM393 277q8 0 8 8.5t-8 8.5h-35q-8 0 -8 -8.5t8 -8.5h35zM486 64v-85h-221v85h221zM393 21
q8 0 8 8.5t-8 8.5h-35q-8 0 -8 -8.5t8 -8.5h35z" />
  </g>

</svg>
