<?xml version="1.0" standalone="no"?>
<!DOCTYPE svg PUBLIC "-//W3C//DTD SVG 1.1//EN" "http://www.w3.org/Graphics/SVG/1.1/DTD/svg11.dtd" >
<svg xmlns="http://www.w3.org/2000/svg" xmlns:xlink="http://www.w3.org/1999/xlink" version="1.1" viewBox="-10 0 522 512">
  <g transform="matrix(1 0 0 -1 0 448)">
   <path fill="currentColor"
d="M13 -55v399h486v-399q0 -9 -9 -9h-468q-9 0 -9 9zM100 153h-44v-44q0 5 6 8q24 10 49 10q22 0 42 -7q21 7 42 7t42 -7q21 7 41 7q22 0 42 -7q21 7 42 7q57 0 94 -43v69h-44h-52h-35h-52h-34h-52h-35h-52zM150 102q-18 8 -39 8q-19 0 -37 -7v-19q17 8 37 8q35 0 59 -23
t24 -55q0 -13 -5 -26h21v1t1 3t1 5q0 2 1 3v4l0.5 1t0.5 2v7v9q-1 0 -1 1v2v1q-1 4 -1 5q0 2 -1 5t-1 4q-1 2 -2 5q-1 2 -1 3q-1 3 -3 6q-1 1 -1 2q-2 3 -3 6l-1 1q-3 3 -5 6l-0.5 0.5l-0.5 0.5q-2 3 -5 6q-8 9 -19 16l-0.5 0.5l-0.5 0.5q-3 1 -6 3q-2 1 -3 2q-2 1 -5 2
t-4 1zM178 108q5 -3 10 -7q2 -1 6 -5l3 -3l1 -1q33 -1 56.5 -24t23.5 -54q0 -13 -5 -26h20l0.5 0.5l0.5 0.5v3q1 2 2 5v3t1 5v0.5v1.5v7v9v1l-1 3v5q-1 2 -2 5t-1 4q0 2 -2 5q-1 2 -1 3l-2 6q-1 1 -1 2l-4 6l-1 1l-4 6l-1 1q-3 3 -5 6q-9 9 -19 16q-1 0 -2 1q-3 1 -6 3
q-2 1 -3 2t-5 2l-1 0.5t-2 0.5q-19 8 -39 8q-9 0 -17 -2v0zM262 108q5 -3 9 -7q2 -1 6 -5q3 -2 4 -3v-1q34 -1 57 -24t23 -54q0 -13 -5 -26h21v1t1 3q0 2 1 5v3q1 2 1 5v0.5v1.5q1 4 1 7q0 4 -1 9v1v2v1q-1 4 -1 5q0 2 -1 5t-1 4q-1 2 -2 5q-1 2 -1 3q-2 3 -3 6q-1 1 -1 2
l-4 6q0 1 -1 1l-4 6l-0.5 0.5l-0.5 0.5q-2 3 -5 6q-9 9 -19 16l-2 1t-5 3q-2 1 -3 2q-2 0 -5 1.5t-4 1.5q-18 8 -39 8q-8 0 -17 -2h1zM345 108q5 -3 10 -7q1 -1 6 -5l3 -3l1 -1q33 -1 56.5 -24t23.5 -54q0 -13 -5 -26h16v64q-13 26 -38 42t-56 16q-9 0 -17 -2v0zM65 300
q-9 0 -9 -8v-122h35v35q0 12 7.5 21.5t18.5 11.5v19h-9q-8 0 -8 8.5t8 8.5h35q9 0 9 -8.5t-9 -8.5h-8v-19q11 -2 18.5 -11.5t7.5 -21.5v-35h17v35q0 12 7.5 21.5t18.5 11.5v19h-9q-8 0 -8 8.5t8 8.5h35q9 0 9 -8.5t-9 -8.5h-9v-19q12 -2 19 -11.5t7 -21.5v-35h18v35
q0 12 7 21.5t19 11.5v19h-9q-9 0 -9 8.5t9 8.5h35q8 0 8 -8.5t-8 -8.5h-9v-19q11 -2 18.5 -11.5t7.5 -21.5v-35h17v35q0 12 7.5 21.5t18.5 11.5v19h-8q-9 0 -9 8.5t9 8.5h35q8 0 8 -8.5t-8 -8.5h-9v-19q11 -2 18.5 -11.5t7.5 -21.5v-35h35v122q0 8 -9 8h-382zM490 448
q9 0 9 -9v-78h-486v78q0 9 9 9h468zM100 387v35q0 9 -9 9h-35q-8 0 -8 -9v-35q0 -8 8 -8h35q9 0 9 8zM161 387v35q0 9 -9 9h-35q-9 0 -9 -9v-35q0 -8 9 -8h35q9 0 9 8zM473 387v35q0 9 -9 9h-208q-9 0 -9 -9v-35q0 -8 9 -8h208q9 0 9 8z" />
  </g>

</svg>
