<?xml version="1.0" standalone="no"?>
<!DOCTYPE svg PUBLIC "-//W3C//DTD SVG 1.1//EN" "http://www.w3.org/Graphics/SVG/1.1/DTD/svg11.dtd" >
<svg xmlns="http://www.w3.org/2000/svg" xmlns:xlink="http://www.w3.org/1999/xlink" version="1.1" viewBox="-10 0 532 512">
  <g transform="matrix(1 0 0 -1 0 448)">
   <path fill="currentColor"
d="M162 89.5q0 8.5 8.5 8.5t8.5 -8.5t-8.5 -8.5t-8.5 8.5zM213 89.5q0 8.5 8.5 8.5t8.5 -8.5t-8.5 -8.5t-8.5 8.5zM265 89.5q0 8.5 8.5 8.5t8.5 -8.5t-8.5 -8.5t-8.5 8.5zM316 89.5q0 8.5 8.5 8.5t8.5 -8.5t-8.5 -8.5t-8.5 8.5zM367 89.5q0 8.5 8.5 8.5t8.5 -8.5t-8.5 -8.5
t-8.5 8.5zM512 124h-26v-43h9q8 0 8 -8.5t-8 -8.5h17v-128h-94v26h-324v-26h-94v128h17q-8 0 -8 8.5t8 8.5h9v43h-26v85h26v7q0 15 10 25.5t25 10.5h390q15 0 25 -10.5t10 -25.5v-7h26v-85zM94 -21h324h26v68h-9h-358h-9v-68h26zM111 89q-9 -7 -14 -17q5 -2 5 -8h35
q0 9 8.5 9t8.5 -9h34q0 9 8.5 9t8.5 -9h34q0 9 8.5 9t8.5 -9h34q0 9 8.5 9t8.5 -9h34q0 9 8.5 9t8.5 -9h35q0 9 8.5 9t8.5 -9h7q-3 15 -14.5 24.5t-27.5 9.5h-51h-40h-11h-51h-2h-49h-34q-6 0 -12 -2q3 -2 3 -6q0 -9 -8.5 -9t-8.5 8zM469 81v43h-25v85h25v7q0 8 -5 13.5
t-13 5.5h-390q-8 0 -13 -5.5t-5 -13.5v-7h25v-85h-25v-43h8q9 0 9 -8.5t-9 -8.5h17h9q5 28 29 43q-11 19 5 35l34 34q9 8 21.5 8t21.5 -8l34 -34q11 -11 8 -27h44q-4 16 8 27l34 34q8 8 21 8t21 -8l34 -34q14 -14 7 -32q31 -13 36 -46h9h17q-9 0 -9 8.5t9 8.5h8zM444 448
v-179h-376v179h376zM427 286v145h-342v-145h342zM410 414v-111h-308v111h308zM364 340q6 6 0 12l-25 25q-6 6 -12 0l-20 -19l-19 19q-6 6 -12 0l-20 -19l-20 19q-6 6 -12 0l-19 -19l-20 19q-6 6 -12 0l-25 -25q-6 -6 0 -12q2 -3 5.5 -3t6.5 3l19 19l20 -19q2 -3 5.5 -3
t6.5 3l19 19l20 -19q2 -3 6 -3t6 3l20 19l19 -19q3 -3 6.5 -3t5.5 3l20 19l19 -19q3 -3 6.5 -3t5.5 3z" />
  </g>

</svg>
