<?xml version="1.0" standalone="no"?>
<!DOCTYPE svg PUBLIC "-//W3C//DTD SVG 1.1//EN" "http://www.w3.org/Graphics/SVG/1.1/DTD/svg11.dtd" >
<svg xmlns="http://www.w3.org/2000/svg" xmlns:xlink="http://www.w3.org/1999/xlink" version="1.1" viewBox="-10 0 522 512">
  <g transform="matrix(1 0 0 -1 0 448)">
   <path fill="currentColor"
d="M260 126h5l37 36q-7 11 -7 24q0 20 14.5 35t36 21.5t33 9t18.5 3.5l10 1v-10q0 -7 -1.5 -18.5t-7 -33.5t-21.5 -36.5t-39 -14.5q-13 0 -24 7l-24 -24h91v-69h-18l-8 -121h-206l-9 121h-18v69h100l-24 24q-11 -7 -24 -7q-23 0 -39 14.5t-21.5 36.5t-7 33.5t-1.5 18.5v10
l10 -1q7 -1 18.5 -3.5t33 -9t36 -21.5t14.5 -35q0 -13 -7 -24l33 -33v88l-45 45q-11 -7 -24 -7q-23 0 -39 14.5t-21.5 36.5t-7 33.5t-1.5 18.5v10l10 -1q7 -1 18.5 -3t33 -9t36 -22t14.5 -35q0 -13 -7 -24l33 -33v77q-12 2 -20 11q-15 14 -15.5 33.5t10 38t17 27.5t10.5 14
l6 6l6 -5q5 -5 12.5 -12t18.5 -26t12 -36q1 -23 -16 -40q-10 -10 -24 -12v-84l42 41q-7 11 -7 24q0 20 14.5 35t36 22t33 9t18.5 3l10 1v-10q0 -7 -1.5 -18.5t-7 -33.5t-21.5 -36.5t-39 -14.5q-13 0 -24 7l-54 -54v-82zM200 298q0 32 -61 47l58 -58q3 5 3 11zM125 335
q9 -63 49 -63q6 0 11 3zM338 160q40 0 50 63l-61 -60q5 -3 11 -3zM373 233q-61 -15 -61 -47q0 -6 3 -11zM338 272q40 0 50 64l-61 -61q5 -3 11 -3zM373 345q-61 -15 -61 -47q0 -6 3 -11zM283 368q-1 21 -23 47v-80q7 2 11 6q13 12 12 27zM235 341q3 -3 8 -5v74
q-31 -46 -8 -69zM200 186q0 32 -61 47l58 -58q3 5 3 11zM125 223q9 -63 49 -63q6 0 11 3zM183 57v8q0 9 -9 9t-9 -9v-8q0 -9 9 -9t9 9zM209 57v8q0 9 -9 9t-9 -9v-8q0 -9 9 -9t9 9zM234 57v8q0 9 -8.5 9t-8.5 -9v-8q0 -9 8.5 -9t8.5 9zM260 57v8q0 9 -8.5 9t-8.5 -9v-8
q0 -9 8.5 -9t8.5 9zM286 57v8q0 9 -8.5 9t-8.5 -9v-8q0 -9 8.5 -9t8.5 9zM321 65v-8q0 -9 8.5 -9t8.5 9v8q0 9 -8.5 9t-8.5 -9zM295 65v-8q0 -9 8.5 -9t8.5 9v8q0 9 -8.5 9t-8.5 -9z" />
  </g>

</svg>
