<?xml version="1.0" standalone="no"?>
<!DOCTYPE svg PUBLIC "-//W3C//DTD SVG 1.1//EN" "http://www.w3.org/Graphics/SVG/1.1/DTD/svg11.dtd" >
<svg xmlns="http://www.w3.org/2000/svg" xmlns:xlink="http://www.w3.org/1999/xlink" version="1.1" viewBox="-10 0 522 512">
  <g transform="matrix(1 0 0 -1 0 448)">
   <path fill="currentColor"
d="M141 90v59h119v-59h-119zM209 141v-43h43v43h-43zM149 141v-43h43v43h-43zM345.5 90q-10.5 0 -18 7.5t-7.5 18t7.5 18t18.5 7.5q5 0 11 -3l-17 -17l12 -12l17 17q2 -5 2 -11q0 -10 -7.5 -17.5t-18 -7.5zM81 38h350v-90q0 -5 -3.5 -8.5t-8.5 -3.5h-326q-5 0 -8.5 3.5
t-3.5 8.5v90zM277 -13q9 0 9 8.5t-9 8.5h-42q-9 0 -9 -8.5t9 -8.5h42zM431 55h-350v393h350v-393zM345.5 158q-17.5 0 -30 -12.5t-12.5 -30t12.5 -30t30 -12.5t30 12.5t12.5 30t-12.5 30t-30 12.5zM124 166v-93h153v93h-153z" />
  </g>

</svg>
