<?xml version="1.0" standalone="no"?>
<!DOCTYPE svg PUBLIC "-//W3C//DTD SVG 1.1//EN" "http://www.w3.org/Graphics/SVG/1.1/DTD/svg11.dtd" >
<svg xmlns="http://www.w3.org/2000/svg" xmlns:xlink="http://www.w3.org/1999/xlink" version="1.1" viewBox="-10 0 522 512">
  <g transform="matrix(1 0 0 -1 0 448)">
   <path fill="currentColor"
d="M393 12q14 -1 24 -12t10 -26t-11.5 -26.5t-27.5 -11.5t-27 11.5t-11 26.5q0 27 25 36v5l-93 21v-3l20 -20h1q16 0 27 -11.5t11 -27t-11 -27t-27 -11.5t-27 11.5t-11 26.5q0 22 19 33l-14 14h-28l-14 -14q19 -11 19 -33q0 -15 -11 -26.5t-27 -11.5t-27 11.5t-11 27t11 27
t27 11.5h1l20 20v3l-93 -21v-5q25 -9 25 -36q0 -15 -11 -26.5t-27 -11.5t-27.5 11.5t-11.5 26.5t10 26t24 12v9l1 1v2t0.5 1.5l1 1l1 1t1.5 1l1 0.5q1 0 1 1l104 24v10h17v17h-17v26h-8v25h-111v112q0 10 7.5 17.5t17.5 7.5h9v8q0 65 -21 110q-6 12 -4 25q2 15 14.5 25.5
t29.5 10.5h184q17 0 29.5 -10.5t14.5 -25.5q2 -13 -4 -25q-21 -45 -21 -110v-8h9q10 0 17.5 -7.5t7.5 -17.5v-112h-90l17 -17h22q8 0 8 -8.5t-8 -8.5h-26q-1 0 -3 0.5t-3 2.5l-28 28v-22h-8v-26h-17v-17h17v-10l104 -24q0 -1 1 -1l1 -0.5t1.5 -1l1 -1l1 -1t0.5 -1.5v-2l1 -1
v-9zM307.5 405q-8.5 0 -8.5 -8.5t8.5 -8.5t8.5 8.5t-8.5 8.5zM307.5 363q-8.5 0 -8.5 -8.5t8.5 -8.5t8.5 8.5t-8.5 8.5zM307.5 320q-8.5 0 -8.5 -8.5t8.5 -8.5t8.5 8.5t-8.5 8.5zM307.5 277q-8.5 0 -8.5 -8.5t8.5 -8.5t8.5 8.5t-8.5 8.5zM307.5 235q-8.5 0 -8.5 -8.5
t8.5 -8.5t8.5 8.5t-8.5 8.5zM256 405q-9 0 -9 -8.5t9 -8.5t9 8.5t-9 8.5zM256 363q-9 0 -9 -8.5t9 -8.5t9 8.5t-9 8.5zM256 320q-9 0 -9 -8.5t9 -8.5t9 8.5t-9 8.5zM256 277q-9 0 -9 -8.5t9 -8.5t9 8.5t-9 8.5zM256 235q-9 0 -9 -8.5t9 -8.5t9 8.5t-9 8.5zM204.5 405
q-8.5 0 -8.5 -8.5t8.5 -8.5t8.5 8.5t-8.5 8.5zM204.5 363q-8.5 0 -8.5 -8.5t8.5 -8.5t8.5 8.5t-8.5 8.5zM204.5 320q-8.5 0 -8.5 -8.5t8.5 -8.5t8.5 8.5t-8.5 8.5zM204.5 277q-8.5 0 -8.5 -8.5t8.5 -8.5t8.5 8.5t-8.5 8.5zM204.5 235q-8.5 0 -8.5 -8.5t8.5 -8.5t8.5 8.5
t-8.5 8.5zM222 149h68h94v95q0 8 -8 8h-9h-9q-8 0 -8 -8v-69h-188v69q0 8 -8 8h-8h-10q-8 0 -8 -8v-95h94z" />
  </g>

</svg>
