<?xml version="1.0" standalone="no"?>
<!DOCTYPE svg PUBLIC "-//W3C//DTD SVG 1.1//EN" "http://www.w3.org/Graphics/SVG/1.1/DTD/svg11.dtd" >
<svg xmlns="http://www.w3.org/2000/svg" xmlns:xlink="http://www.w3.org/1999/xlink" version="1.1" viewBox="-10 0 532 512">
  <g transform="matrix(1 0 0 -1 0 448)">
   <path fill="currentColor"
d="M491 272q21 -7 21 -29v-92q0 -31 -19 -55.5t-48 -32.5l7 -34v-3q0 -9 -8 -9h-17q-4 0 -6 3l-41 40h-231l-41 -40q-2 -3 -6 -3h-17q-4 0 -6.5 3t-1.5 7l7 33q-36 3 -60 29.5t-24 61.5v92q0 22 21 29h1l55 25v45q0 10 7 17.5t18 7.5h308q11 0 18 -7.5t7 -17.5v-45l55 -25h1
zM281.5 290q-8.5 0 -8.5 -8.5t8.5 -8.5t8.5 8.5t-8.5 8.5zM230.5 265q-8.5 0 -8.5 -9t8.5 -9t8.5 9t-8.5 9zM213.5 290q-8.5 0 -8.5 -8.5t8.5 -8.5t8.5 8.5t-8.5 8.5zM99 34l25 26h-23l-5 -26h3zM247 119v32q0 8 -5.5 14t-13.5 6h-126q-3 0 -7 -1v0q-4 0 -7 -1h-1
q-8 -2 -15 -7q-1 0 -1 -1q-4 -2 -7 -4v-1q-1 0 -4 -4v-1q0 -13 9 -22.5t23 -9.5h155zM247.5 273q8.5 0 8.5 8.5t-8.5 8.5t-8.5 -8.5t8.5 -8.5zM256 256q0 -9 8.5 -9t8.5 9t-8.5 9t-8.5 -9zM430 34h3l-5 26h-8h-15zM452 151v1l-4 4v1q-3 2 -7 4q0 1 -1 1q-7 5 -15 7h-1
q-3 1 -7 1v0q-4 1 -7 1h-126q-8 0 -13.5 -6t-5.5 -14v-32h155q14 0 23 9.5t9 22.5z" />
  </g>

</svg>
