<?xml version="1.0" standalone="no"?>
<!DOCTYPE svg PUBLIC "-//W3C//DTD SVG 1.1//EN" "http://www.w3.org/Graphics/SVG/1.1/DTD/svg11.dtd" >
<svg xmlns="http://www.w3.org/2000/svg" xmlns:xlink="http://www.w3.org/1999/xlink" version="1.1" viewBox="-11 0 534 512">
  <g transform="matrix(1 0 0 -1 0 448)">
   <path fill="currentColor"
d="M512 266q2 -14 -5.5 -27t-20.5 -19v-88q0 -20 -12 -35.5t-30 -21.5v-37q0 -8 -9 -8h-25q-6 0 -8 5l-15 38h-262l-15 -38q-2 -5 -8 -5h-25q-9 0 -9 8v37q-18 6 -30 21.5t-12 35.5v88q-13 6 -20.5 19t-5.5 27q3 16 15 26.5t28 10.5q16 24 40.5 37.5t53.5 13.5h238
q29 0 53.5 -13.5t40.5 -37.5q16 0 28 -10.5t15 -26.5zM435.5 303q-8.5 0 -8.5 -8.5t8.5 -8.5t8.5 8.5t-8.5 8.5zM409.5 329q-8.5 0 -8.5 -9t8.5 -9t8.5 9t-8.5 9zM409.5 277q-8.5 0 -8.5 -8.5t8.5 -8.5t8.5 8.5t-8.5 8.5zM409.5 226q-8.5 0 -8.5 -8.5t8.5 -8.5t8.5 8.5
t-8.5 8.5zM384 303q-9 0 -9 -8.5t9 -8.5t9 8.5t-9 8.5zM384 252q-9 0 -9 -8.5t9 -8.5t9 8.5t-9 8.5zM392.5 201q-14.5 0 -24.5 -10t-10 -24.5t10 -24.5t24.5 -10t24.5 10t10 24.5t-10 24.5t-24.5 10zM358.5 329q-8.5 0 -8.5 -9t8.5 -9t8.5 9t-8.5 9zM358.5 277
q-8.5 0 -8.5 -8.5t8.5 -8.5t8.5 8.5t-8.5 8.5zM358.5 226q-8.5 0 -8.5 -8.5t8.5 -8.5t8.5 8.5t-8.5 8.5zM332.5 303q-8.5 0 -8.5 -8.5t8.5 -8.5t8.5 8.5t-8.5 8.5zM332.5 252q-8.5 0 -8.5 -8.5t8.5 -8.5t8.5 8.5t-8.5 8.5zM332.5 201q-8.5 0 -8.5 -9t8.5 -9t8.5 9t-8.5 9z
M332.5 149q-8.5 0 -8.5 -8.5t8.5 -8.5t8.5 8.5t-8.5 8.5zM307.5 329q-8.5 0 -8.5 -9t8.5 -9t8.5 9t-8.5 9zM307.5 277q-8.5 0 -8.5 -8.5t8.5 -8.5t8.5 8.5t-8.5 8.5zM307.5 226q-8.5 0 -8.5 -8.5t8.5 -8.5t8.5 8.5t-8.5 8.5zM307.5 175q-8.5 0 -8.5 -8.5t8.5 -8.5t8.5 8.5
t-8.5 8.5zM281.5 303q-8.5 0 -8.5 -8.5t8.5 -8.5t8.5 8.5t-8.5 8.5zM281.5 252q-8.5 0 -8.5 -8.5t8.5 -8.5t8.5 8.5t-8.5 8.5zM281.5 201q-8.5 0 -8.5 -9t8.5 -9t8.5 9t-8.5 9zM281.5 149q-8.5 0 -8.5 -8.5t8.5 -8.5t8.5 8.5t-8.5 8.5zM256 329q-9 0 -9 -9t9 -9t9 9t-9 9z
M256 277q-9 0 -9 -8.5t9 -8.5t9 8.5t-9 8.5zM256 226q-9 0 -9 -8.5t9 -8.5t9 8.5t-9 8.5zM256 175q-9 0 -9 -8.5t9 -8.5t9 8.5t-9 8.5zM230.5 303q-8.5 0 -8.5 -8.5t8.5 -8.5t8.5 8.5t-8.5 8.5zM230.5 252q-8.5 0 -8.5 -8.5t8.5 -8.5t8.5 8.5t-8.5 8.5zM230.5 201
q-8.5 0 -8.5 -9t8.5 -9t8.5 9t-8.5 9zM230.5 149q-8.5 0 -8.5 -8.5t8.5 -8.5t8.5 8.5t-8.5 8.5zM204.5 329q-8.5 0 -8.5 -9t8.5 -9t8.5 9t-8.5 9zM204.5 277q-8.5 0 -8.5 -8.5t8.5 -8.5t8.5 8.5t-8.5 8.5zM204.5 226q-8.5 0 -8.5 -8.5t8.5 -8.5t8.5 8.5t-8.5 8.5zM204.5 175
q-8.5 0 -8.5 -8.5t8.5 -8.5t8.5 8.5t-8.5 8.5zM179.5 303q-8.5 0 -8.5 -8.5t8.5 -8.5t8.5 8.5t-8.5 8.5zM179.5 252q-8.5 0 -8.5 -8.5t8.5 -8.5t8.5 8.5t-8.5 8.5zM179.5 201q-8.5 0 -8.5 -9t8.5 -9t8.5 9t-8.5 9zM179.5 149q-8.5 0 -8.5 -8.5t8.5 -8.5t8.5 8.5t-8.5 8.5z
M153.5 329q-8.5 0 -8.5 -9t8.5 -9t8.5 9t-8.5 9zM153.5 277q-8.5 0 -8.5 -8.5t8.5 -8.5t8.5 8.5t-8.5 8.5zM153.5 226q-8.5 0 -8.5 -8.5t8.5 -8.5t8.5 8.5t-8.5 8.5zM128 303q-9 0 -9 -8.5t9 -8.5t9 8.5t-9 8.5zM128 252q-9 0 -9 -8.5t9 -8.5t9 8.5t-9 8.5zM154 166.5
q0 14.5 -10 24.5t-24.5 10t-24.5 -10t-10 -24.5t10 -24.5t24.5 -10t24.5 10t10 24.5zM102.5 329q-8.5 0 -8.5 -9t8.5 -9t8.5 9t-8.5 9zM102.5 277q-8.5 0 -8.5 -8.5t8.5 -8.5t8.5 8.5t-8.5 8.5zM102.5 226q-8.5 0 -8.5 -8.5t8.5 -8.5t8.5 8.5t-8.5 8.5zM76.5 303
q-8.5 0 -8.5 -8.5t8.5 -8.5t8.5 8.5t-8.5 8.5zM476 235q10 2 15 10.5t4 18.5q-2 9 -9.5 15.5t-17.5 6.5h-1.5h-1.5q-6 -1 -12 -4q-2 -1 -5 -3l-1 -1q-2 -1 -3 -3l-2 -2q-1 -2 -2 -2q0 -1 -1 -3q0 -1 -1 -1v-1q-1 -2 -2 -5v-1q-1 -4 -1 -7v-108v-13q0 -8 -8 -8h-13h-316h-13
q-8 0 -8 8v13v108q0 3 -1 7v1q-1 3 -2 5v1q-1 0 -1 1l-1.5 3t-1.5 2l-2 2q-1 2 -3 3l-1 1q-3 2 -5 3q-6 3 -12 4h-1.5h-1.5q-10 0 -17.5 -6.5t-9.5 -15.5q-1 -10 4 -18.5t15 -10.5h15q9 0 9 -8.5t-9 -8.5h-8v-86q0 -17 12.5 -29.5t29.5 -12.5h34h274h34q17 0 29.5 12.5
t12.5 29.5v86h-8q-9 0 -9 8.5t9 8.5h15z" />
  </g>

</svg>
