<?xml version="1.0" standalone="no"?>
<!DOCTYPE svg PUBLIC "-//W3C//DTD SVG 1.1//EN" "http://www.w3.org/Graphics/SVG/1.1/DTD/svg11.dtd" >
<svg xmlns="http://www.w3.org/2000/svg" xmlns:xlink="http://www.w3.org/1999/xlink" version="1.1" viewBox="-10 0 532 512">
  <g transform="matrix(1 0 0 -1 0 448)">
   <path fill="currentColor"
d="M34 265q-8 0 -8 8.5t8 8.5h68q9 0 9 -8.5t-9 -8.5h-68zM410 265q-9 0 -9 8.5t9 8.5h68q8 0 8 -8.5t-8 -8.5h-68zM486 85q0 -34 7 -66t11 -42.5t7 -15.5q2 -4 -0.5 -8t-7.5 -4q-23 0 -38.5 19t-21 48t-7 44t-1.5 25v30q0 29 -17.5 52.5t-46.5 31.5l-22 6h-186l-22 -6
q-29 -8 -46.5 -31.5t-17.5 -52.5v-30q0 -10 -1.5 -25t-7 -44t-21 -48t-38.5 -19q-5 0 -7.5 4t-0.5 8q3 5 7 15.5t11 42.5t7 66v120q-11 0 -18.5 7.5t-7.5 18t7.5 18t18.5 7.5h195v1v1q-3 13 7 22q10 10 13 21l2 6h13v51v2q-11 3 -18.5 12t-7.5 21v42h43v-25h26v-17
q0 -12 -7.5 -21t-18.5 -12v-2v-22l11 11q6 6 12 0t0 -12l-23 -23v-5h14l1 -6q3 -11 13 -21q10 -9 7 -22v-1v-1h178q11 0 18.5 -7.5t7.5 -18t-7.5 -18t-18.5 -7.5v-120zM282 393h-9v-15q9 5 9 15zM247 393q0 -10 9 -15v32v8h-9v-25z" />
  </g>

</svg>
