<?xml version="1.0" standalone="no"?>
<!DOCTYPE svg PUBLIC "-//W3C//DTD SVG 1.1//EN" "http://www.w3.org/Graphics/SVG/1.1/DTD/svg11.dtd" >
<svg xmlns="http://www.w3.org/2000/svg" xmlns:xlink="http://www.w3.org/1999/xlink" version="1.1" viewBox="-10 0 532 512">
  <g transform="matrix(1 0 0 -1 0 448)">
   <path fill="currentColor"
d="M469 268q19 -3 31 -17.5t12 -33t-12 -33t-31 -17.5v-129h-59v17h-308v-17h-59v129q-19 3 -31 17.5t-12 33t12 33t31 17.5v43q0 14 10 24.5t24 10.5h358q14 0 24 -10.5t10 -24.5v-43zM68.5 269q8.5 0 8.5 8.5t-8.5 8.5t-8.5 -8.5t8.5 -8.5zM68.5 320q8.5 0 8.5 8.5
t-8.5 8.5t-8.5 -8.5t8.5 -8.5zM375.5 337q-8.5 0 -8.5 -8.5t8.5 -8.5t8.5 8.5t-8.5 8.5zM375.5 286q-8.5 0 -8.5 -8.5t8.5 -8.5t8.5 8.5t-8.5 8.5zM375.5 235q-8.5 0 -8.5 -8.5t8.5 -8.5t8.5 8.5t-8.5 8.5zM349.5 311q-8.5 0 -8.5 -8.5t8.5 -8.5t8.5 8.5t-8.5 8.5z
M349.5 260q-8.5 0 -8.5 -8.5t8.5 -8.5t8.5 8.5t-8.5 8.5zM349.5 209q-8.5 0 -8.5 -8.5t8.5 -8.5t8.5 8.5t-8.5 8.5zM324.5 337q-8.5 0 -8.5 -8.5t8.5 -8.5t8.5 8.5t-8.5 8.5zM324.5 286q-8.5 0 -8.5 -8.5t8.5 -8.5t8.5 8.5t-8.5 8.5zM324.5 235q-8.5 0 -8.5 -8.5t8.5 -8.5
t8.5 8.5t-8.5 8.5zM298.5 311q-8.5 0 -8.5 -8.5t8.5 -8.5t8.5 8.5t-8.5 8.5zM298.5 260q-8.5 0 -8.5 -8.5t8.5 -8.5t8.5 8.5t-8.5 8.5zM298.5 209q-8.5 0 -8.5 -8.5t8.5 -8.5t8.5 8.5t-8.5 8.5zM273.5 337q-8.5 0 -8.5 -8.5t8.5 -8.5t8.5 8.5t-8.5 8.5zM273.5 286
q-8.5 0 -8.5 -8.5t8.5 -8.5t8.5 8.5t-8.5 8.5zM273.5 235q-8.5 0 -8.5 -8.5t8.5 -8.5t8.5 8.5t-8.5 8.5zM247.5 311q-8.5 0 -8.5 -8.5t8.5 -8.5t8.5 8.5t-8.5 8.5zM247.5 260q-8.5 0 -8.5 -8.5t8.5 -8.5t8.5 8.5t-8.5 8.5zM247.5 209q-8.5 0 -8.5 -8.5t8.5 -8.5t8.5 8.5
t-8.5 8.5zM221.5 337q-8.5 0 -8.5 -8.5t8.5 -8.5t8.5 8.5t-8.5 8.5zM221.5 286q-8.5 0 -8.5 -8.5t8.5 -8.5t8.5 8.5t-8.5 8.5zM221.5 235q-8.5 0 -8.5 -8.5t8.5 -8.5t8.5 8.5t-8.5 8.5zM196.5 311q-8.5 0 -8.5 -8.5t8.5 -8.5t8.5 8.5t-8.5 8.5zM196.5 260q-8.5 0 -8.5 -8.5
t8.5 -8.5t8.5 8.5t-8.5 8.5zM196.5 209q-8.5 0 -8.5 -8.5t8.5 -8.5t8.5 8.5t-8.5 8.5zM170.5 337q-8.5 0 -8.5 -8.5t8.5 -8.5t8.5 8.5t-8.5 8.5zM170.5 286q-8.5 0 -8.5 -8.5t8.5 -8.5t8.5 8.5t-8.5 8.5zM170.5 235q-8.5 0 -8.5 -8.5t8.5 -8.5t8.5 8.5t-8.5 8.5zM145.5 311
q-8.5 0 -8.5 -8.5t8.5 -8.5t8.5 8.5t-8.5 8.5zM145.5 260q-8.5 0 -8.5 -8.5t8.5 -8.5t8.5 8.5t-8.5 8.5zM145.5 209q-8.5 0 -8.5 -8.5t8.5 -8.5t8.5 8.5t-8.5 8.5zM119.5 337q-8.5 0 -8.5 -8.5t8.5 -8.5t8.5 8.5t-8.5 8.5zM119.5 286q-8.5 0 -8.5 -8.5t8.5 -8.5t8.5 8.5
t-8.5 8.5zM119.5 235q-8.5 0 -8.5 -8.5t8.5 -8.5t8.5 8.5t-8.5 8.5zM93.5 311q-8.5 0 -8.5 -8.5t8.5 -8.5t8.5 8.5t-8.5 8.5zM93.5 243q8.5 0 8.5 8.5t-8.5 8.5t-8.5 -8.5t8.5 -8.5zM410 149v26h-308v-26h308zM401.5 192q8.5 0 8.5 8.5t-8.5 8.5t-8.5 -8.5t8.5 -8.5z
M401.5 243q8.5 0 8.5 8.5t-8.5 8.5t-8.5 -8.5t8.5 -8.5zM401.5 294q8.5 0 8.5 8.5t-8.5 8.5t-8.5 -8.5t8.5 -8.5zM426.5 269q8.5 0 8.5 8.5t-8.5 8.5t-8.5 -8.5t8.5 -8.5zM426.5 320q8.5 0 8.5 8.5t-8.5 8.5t-8.5 -8.5t8.5 -8.5zM452.5 294q8.5 0 8.5 8.5t-8.5 8.5
t-8.5 -8.5t8.5 -8.5z" />
  </g>

</svg>
