<?xml version="1.0" standalone="no"?>
<!DOCTYPE svg PUBLIC "-//W3C//DTD SVG 1.1//EN" "http://www.w3.org/Graphics/SVG/1.1/DTD/svg11.dtd" >
<svg xmlns="http://www.w3.org/2000/svg" xmlns:xlink="http://www.w3.org/1999/xlink" version="1.1" viewBox="-10 0 532 512">
  <g transform="matrix(1 0 0 -1 0 448)">
   <path fill="currentColor"
d="M194.5 283.5q-6.5 -6.5 -13.5 0t0 13.5q3 3 7 3t6 -3q7 -7 0.5 -13.5zM331 283.5q-7 -6.5 -13.5 0t-0.5 13.5q3 3 7 3t7 -3q7 -7 0 -13.5zM507.5 236q7.5 -11 2.5 -23l-58 -162q-5 -20 -27 -24l8 -78h-39l-17 77h-242l-17 -77h-39l8 78q-22 4 -27 25l-58 168
q-5 13 2.5 24.5t21.5 11.5h25q4 75 58.5 127t129.5 52h34q78 0 133 -55t55 -133h26q13 0 20.5 -11zM300 302q-5 -12 0 -24l-7 -7q-6 -6 0 -12q2 -3 5.5 -3t6.5 3l8 7q5 -2 11 -2t12 2l8 -7q2 -3 5.5 -3t6.5 3q6 6 0 12l-8 7q6 12 0 24l8 8q6 6 0 12t-12 0l-8 -8q-12 5 -23 0
l-8 8q-6 6 -12 0t0 -12zM164 302q-6 -12 0 -24l-8 -7q-6 -6 0 -12q3 -3 6.5 -3t5.5 3l8 7q6 -2 12 -2t11 2l8 -7q3 -3 6.5 -3t5.5 3q6 6 0 12l-7 7q5 12 0 24l7 8q6 6 0 12t-12 0l-8 -8q-11 5 -23 0l-8 8q-6 6 -12 0t0 -12zM494 219q2 4 -0.5 7.5t-6.5 3.5h-26h-14
q-10 0 -13 -10l-17 -71q-2 -10 -8 -18l-2 4q-5 20 -21 32t-36 12h-188q-19 0 -35 -11.5t-22 -29.5l-2 -5q-4 8 -6 16l-20 86q-3 4 -6 4h-20h-25q-5 0 -7.5 -4t-0.5 -9l58 -169q4 -14 18 -14h45h234h45q14 0 17 13zM350 162q14 0 25.5 -9t15.5 -23l5 -11q-13 -8 -27 -8h-224
q-16 0 -29 9l5 11v1q5 13 16 21.5t25 8.5h188z" />
  </g>

</svg>
