<?xml version="1.0" standalone="no"?>
<!DOCTYPE svg PUBLIC "-//W3C//DTD SVG 1.1//EN" "http://www.w3.org/Graphics/SVG/1.1/DTD/svg11.dtd" >
<svg xmlns="http://www.w3.org/2000/svg" xmlns:xlink="http://www.w3.org/1999/xlink" version="1.1" viewBox="-10 0 532 512">
  <g transform="matrix(1 0 0 -1 0 448)">
   <path fill="currentColor"
d="M503 209q9 0 9 -8.5t-9 -8.5v-51h-17v-205h-42v205h-179v60h-18v-60h-179v-205h-42v205h-17v51q-9 0 -9 8.5t9 8.5h76v188q0 5 5 7l81 41v-236h17v239h136v-239h17v236l81 -41q5 -2 5 -7v-188h76zM154 166q8 0 8 8.5t-8 8.5h-35q-8 0 -8 -8.5t8 -8.5h35zM393 166
q8 0 8 8.5t-8 8.5h-35q-8 0 -8 -8.5t8 -8.5h35z" />
  </g>

</svg>
