<?xml version="1.0" standalone="no"?>
<!DOCTYPE svg PUBLIC "-//W3C//DTD SVG 1.1//EN" "http://www.w3.org/Graphics/SVG/1.1/DTD/svg11.dtd" >
<svg xmlns="http://www.w3.org/2000/svg" xmlns:xlink="http://www.w3.org/1999/xlink" version="1.1" viewBox="-10 0 532 512">
  <g transform="matrix(1 0 0 -1 0 448)">
   <path fill="currentColor"
d="M446 439h66v-503h-43v20l-39 -19q-2 -1 -3 -1h-26q-8 0 -8 9v17h-274v-17q0 -9 -8 -9h-26q-1 0 -3 1l-39 19v-20h-43v503h66l16 8v0q2 1 3 1h26q8 0 8 -9h274q0 9 8 9h26q1 0 3 -1v0zM30 422h2h-15v-469h9v17v444v5zM102 414v17h-8v-478h8v9v25v427zM119 397v-68h128v68
h-128zM119 311v-25h18v8q0 9 8.5 9t8.5 -9v-8h8v8q0 9 8.5 9t8.5 -9v-8h9v8q0 9 8.5 9t8.5 -9v-8h8v8q0 9 8.5 9t8.5 -9v-8h17v25h-128zM119 269v-196h11q-2 4 -2 8q0 11 7.5 18.5t18.5 7.5h59q11 0 18.5 -7.5t7.5 -18.5q0 -4 -2 -8h10v68v17v68v17v26h-17v-17q0 -9 -8.5 -9
t-8.5 9v17h-8v-17q0 -9 -8.5 -9t-8.5 9v17h-9v-17q0 -9 -8.5 -9t-8.5 9v17h-8v-17q0 -9 -8.5 -9t-8.5 9v17h-18zM119 55v-51h128v51h-34h-59h-35zM393 -21v8h-128h-18h-128v-8h274zM393 4v51h-128v-51h128zM393 73v68h-35h-59h-34v-68h128zM273 201q0 10 7.5 17.5t18.5 7.5
h-34v-68h10q-2 4 -2 8q0 10 7 17q-7 8 -7 18zM393 158v68h-35q11 0 18.5 -7.5t7.5 -17.5t-7 -18q7 -7 7 -17q0 -4 -2 -8h11zM393 243v68h-128v-68h128zM273 354.5q0 -8.5 9 -8.5h93q9 0 9 8.5t-9 8.5h-93q-9 0 -9 -8.5zM393 414v8h-274v-8h128h18h128zM418 -47v478h-8v-17
v-85v-18v-68v-17v-68v-17v-86v-68v-25v-9h8zM495 -47v469h-15h2v-1l4 -2v-5v-444v-17h9z" />
  </g>

</svg>
