<?xml version="1.0" standalone="no"?>
<!DOCTYPE svg PUBLIC "-//W3C//DTD SVG 1.1//EN" "http://www.w3.org/Graphics/SVG/1.1/DTD/svg11.dtd" >
<svg xmlns="http://www.w3.org/2000/svg" xmlns:xlink="http://www.w3.org/1999/xlink" version="1.1" viewBox="-10 0 522 512">
  <g transform="matrix(1 0 0 -1 0 448)">
   <path fill="currentColor"
d="M334 245v-128h-156v128q0 8 5.5 13.5t13.5 5.5h118q8 0 13.5 -5.5t5.5 -13.5zM308 178h-43v17h43q8 0 8 8.5t-8 8.5h-43v17q0 9 -9 9t-9 -9v-17h-43q-8 0 -8 -8.5t8 -8.5h43v-17h-43q-8 0 -8 -9t8 -9h43v-17q0 -8 9 -8t9 8v17h43q8 0 8 9t-8 9zM247 100v-26h-8
q-12 0 -21.5 7.5t-12.5 18.5h42zM265 100h42q-3 -11 -12.5 -18.5t-21.5 -7.5h-8v26zM265 -64v69h17v-69h-17zM337 379q48 -42 49 -106v-242q0 -25 -18 -42.5t-43 -17.5h-26v34h17q15 0 25 10t10 25v20q0 6 -4 10t-10 4h-25q10 11 12 26h27v145q0 15 -10.5 25.5t-25.5 10.5
h-118q-15 0 -25.5 -10.5t-10.5 -25.5v-145h27q2 -15 12 -26h-25q-6 0 -10 -4t-4 -10v-20q0 -15 10 -25t25 -10h17v-34h-26q-25 0 -42.5 17.5t-17.5 42.5v242q0 64 48 106l81 69zM265 368q8 0 8 8.5t-8 8.5q-29 0 -49 -20.5t-20 -48.5q0 -9 8.5 -9t8.5 9q0 21 15 36.5
t37 15.5zM230 -64v69h17v-69h-17z" />
  </g>

</svg>
