<?xml version="1.0" standalone="no"?>
<!DOCTYPE svg PUBLIC "-//W3C//DTD SVG 1.1//EN" "http://www.w3.org/Graphics/SVG/1.1/DTD/svg11.dtd" >
<svg xmlns="http://www.w3.org/2000/svg" xmlns:xlink="http://www.w3.org/1999/xlink" version="1.1" viewBox="-10 0 532 512">
  <g transform="matrix(1 0 0 -1 0 448)">
   <path fill="currentColor"
d="M512 145q0 -18 -14 -29q5 -6 5 -14q0 -9 -6 -15t-15 -6h-13v-26h-17v-8q9 0 9 -8.5t-9 -8.5h-17q-8 0 -8 8.5t8 8.5v8h-17v26h-316v-26h-17v-8q9 0 9 -8.5t-9 -8.5h-17q-8 0 -8 8.5t8 8.5v8h-17v26h-13q-8 0 -14.5 6t-6.5 15q0 5 2 10q-19 11 -19 33q0 12 7 22
q-7 12 -7 25q0 16 9 29v36q0 40 25 66l6 6q30 25 70 25q54 0 90 -41q2 -3 6 -7q9 -12 14.5 -16.5t18.5 -8.5t34 -4h188q21 0 36 -15t15 -36v-81zM477.5 226q-8.5 0 -8.5 -8.5t8.5 -8.5t8.5 8.5t-8.5 8.5zM452.5 251q-8.5 0 -8.5 -8.5t8.5 -8.5t8.5 8.5t-8.5 8.5zM452.5 200
q-8.5 0 -8.5 -8.5t8.5 -8.5t8.5 8.5t-8.5 8.5zM426.5 226q-8.5 0 -8.5 -8.5t8.5 -8.5t8.5 8.5t-8.5 8.5zM401.5 251q-8.5 0 -8.5 -8.5t8.5 -8.5t8.5 8.5t-8.5 8.5zM401.5 200q-8.5 0 -8.5 -8.5t8.5 -8.5t8.5 8.5t-8.5 8.5zM375.5 226q-8.5 0 -8.5 -8.5t8.5 -8.5t8.5 8.5
t-8.5 8.5zM349.5 251q-8.5 0 -8.5 -8.5t8.5 -8.5t8.5 8.5t-8.5 8.5zM349.5 200q-8.5 0 -8.5 -8.5t8.5 -8.5t8.5 8.5t-8.5 8.5zM324.5 226q-8.5 0 -8.5 -8.5t8.5 -8.5t8.5 8.5t-8.5 8.5zM298.5 251q-8.5 0 -8.5 -8.5t8.5 -8.5t8.5 8.5t-8.5 8.5zM298.5 200q-8.5 0 -8.5 -8.5
t8.5 -8.5t8.5 8.5t-8.5 8.5zM273.5 226q-8.5 0 -8.5 -8.5t8.5 -8.5t8.5 8.5t-8.5 8.5zM247.5 251q-8.5 0 -8.5 -8.5t8.5 -8.5t8.5 8.5t-8.5 8.5zM247.5 200q-8.5 0 -8.5 -8.5t8.5 -8.5t8.5 8.5t-8.5 8.5zM221.5 277q-8.5 0 -8.5 -8.5t8.5 -8.5t8.5 8.5t-8.5 8.5zM221.5 226
q-8.5 0 -8.5 -8.5t8.5 -8.5t8.5 8.5t-8.5 8.5zM196.5 303q-8.5 0 -8.5 -8.5t8.5 -8.5t8.5 8.5t-8.5 8.5zM196.5 251q-8.5 0 -8.5 -8.5t8.5 -8.5t8.5 8.5t-8.5 8.5zM196.5 200q-8.5 0 -8.5 -8.5t8.5 -8.5t8.5 8.5t-8.5 8.5zM170.5 328q-8.5 0 -8.5 -8.5t8.5 -8.5t8.5 8.5
t-8.5 8.5zM170.5 277q-8.5 0 -8.5 -8.5t8.5 -8.5t8.5 8.5t-8.5 8.5zM170.5 226q-8.5 0 -8.5 -8.5t8.5 -8.5t8.5 8.5t-8.5 8.5zM145.5 303q-8.5 0 -8.5 -8.5t8.5 -8.5t8.5 8.5t-8.5 8.5zM145.5 251q-8.5 0 -8.5 -8.5t8.5 -8.5t8.5 8.5t-8.5 8.5zM145.5 200q-8.5 0 -8.5 -8.5
t8.5 -8.5t8.5 8.5t-8.5 8.5zM119.5 328q-8.5 0 -8.5 -8.5t8.5 -8.5t8.5 8.5t-8.5 8.5zM119.5 277q-8.5 0 -8.5 -8.5t8.5 -8.5t8.5 8.5t-8.5 8.5zM119.5 226q-8.5 0 -8.5 -8.5t8.5 -8.5t8.5 8.5t-8.5 8.5zM93.5 303q-8.5 0 -8.5 -8.5t8.5 -8.5t8.5 8.5t-8.5 8.5zM93.5 251
q-8.5 0 -8.5 -8.5t8.5 -8.5t8.5 8.5t-8.5 8.5zM68.5 328q-8.5 0 -8.5 -8.5t8.5 -8.5t8.5 8.5t-8.5 8.5zM68.5 277q-8.5 0 -8.5 -8.5t8.5 -8.5t8.5 8.5t-8.5 8.5zM42.5 303q-8.5 0 -8.5 -8.5t8.5 -8.5t8.5 8.5t-8.5 8.5zM42.5 251q-8.5 0 -8.5 -8.5t8.5 -8.5t8.5 8.5
t-8.5 8.5zM23 211q-6 -9 -6 -19q0 -7 3 -14q0 1 3 2h1l6 2h2q3 1 6 1h46q1 5 1 9q0 14 -10 24t-24 10h-7q-1 -1 -1.5 -1h-0.5q-3 -1 -5 -2q-1 0 -1 -1h-1q-3 -1 -5 -3q0 -1 -1 -1l-5 -5zM474 123q8 0 14.5 6.5t6.5 15.5t-6.5 15t-14.5 6h-379h-57h-4l-1 -1h-1v0h-1
l-0.5 -0.5t-2.5 -1.5h-1v-1q-1 0 -2 -1v0v0l-1 -1l-1 -1q-6 -6 -6 -14q0 -9 6.5 -15.5t14.5 -6.5h436z" />
  </g>

</svg>
