<?xml version="1.0" standalone="no"?>
<!DOCTYPE svg PUBLIC "-//W3C//DTD SVG 1.1//EN" "http://www.w3.org/Graphics/SVG/1.1/DTD/svg11.dtd" >
<svg xmlns="http://www.w3.org/2000/svg" xmlns:xlink="http://www.w3.org/1999/xlink" version="1.1" viewBox="-10 0 523 512">
  <g transform="matrix(1 0 0 -1 0 448)">
   <path fill="currentColor"
d="M414 421l89 -17v-436l-85 20v-1v-17v-34h-39l-17 34h-280l-17 -34h-39v34h-17v433q0 18 13 31.5t32 13.5h319q29 0 41 -27zM401 -13v5l-18 4h-161h-17h-171v397q0 12 8.5 20.5t21.5 8.5h141h17h141q12 0 21 -8h1q1 2 3 3q1 0 1 1q2 1 3 2h1h1l1 1q-9 10 -22 10h-319
q-12 0 -20 -8.5t-8 -19.5v-416h65h262h48zM222 73h153v204h-34v-17q0 -8 -8.5 -8t-8.5 8v17h-8v-17q0 -8 -8.5 -8t-8.5 8v17h-9v-17q0 -8 -8.5 -8t-8.5 8v17h-8v-17q0 -8 -9 -8t-9 8v17h-25v-204zM375 55h-153v-42h153v42zM341 294h34v26h-153v-26h25v9q0 8 9 8t9 -8v-9h8v9
q0 8 8.5 8t8.5 -8v-9h9v9q0 8 8.5 8t8.5 -8v-9h8v9q0 8 8.5 8t8.5 -8v-9zM222 337h153v56q0 5 -3.5 8.5t-8.5 3.5h-141v-68zM179 226q0 9 -8.5 9t-8.5 -9v-43q0 -8 8.5 -8t8.5 8v43z" />
  </g>

</svg>
