<?xml version="1.0" standalone="no"?>
<!DOCTYPE svg PUBLIC "-//W3C//DTD SVG 1.1//EN" "http://www.w3.org/Graphics/SVG/1.1/DTD/svg11.dtd" >
<svg xmlns="http://www.w3.org/2000/svg" xmlns:xlink="http://www.w3.org/1999/xlink" version="1.1" viewBox="-10 0 532 512">
  <g transform="matrix(1 0 0 -1 0 448)">
   <path fill="currentColor"
d="M512 260v-162h-137v162h137zM444 115q21 0 36 15t15 36.5t-15 36.5t-36 15t-36 -15t-15 -36.5t15 -36.5t36 -15zM375 371v9h137v-103h-137v94zM478 294q8 0 8 8.5t-8 8.5h-85q-9 0 -9 -8.5t9 -8.5h85zM393 346q-9 0 -9 -8.5t9 -8.5h85q8 0 8 8.5t-8 8.5h-85zM468 178l5 6
q5 -9 5 -18q0 -14 -10 -24q-10 -9 -24.5 -9t-23.5 9q-10 10 -10 24.5t10 24.5t24 10q9 0 17 -5l-5 -5q-6 -7 0 -13q2 -2 5.5 -2t6.5 2zM316 380v-350h-231v-26h-68v26h-17v350h316zM290.5 354q-8.5 0 -8.5 -8.5t8.5 -8.5t8.5 8.5t-8.5 8.5zM34.5 81q8.5 0 8.5 8.5t-8.5 8.5
t-8.5 -8.5t8.5 -8.5zM34.5 132q8.5 0 8.5 8.5t-8.5 8.5t-8.5 -8.5t8.5 -8.5zM34.5 183q8.5 0 8.5 9t-8.5 9t-8.5 -9t8.5 -9zM34.5 235q8.5 0 8.5 8.5t-8.5 8.5t-8.5 -8.5t8.5 -8.5zM34.5 286q8.5 0 8.5 8.5t-8.5 8.5t-8.5 -8.5t8.5 -8.5zM34.5 337q8.5 0 8.5 8.5t-8.5 8.5
t-8.5 -8.5t8.5 -8.5zM59.5 55q8.5 0 8.5 9t-8.5 9t-8.5 -9t8.5 -9zM59.5 107q8.5 0 8.5 8.5t-8.5 8.5t-8.5 -8.5t8.5 -8.5zM59.5 158q8.5 0 8.5 8.5t-8.5 8.5t-8.5 -8.5t8.5 -8.5zM59.5 209q8.5 0 8.5 8.5t-8.5 8.5t-8.5 -8.5t8.5 -8.5zM59.5 260q8.5 0 8.5 8.5t-8.5 8.5
t-8.5 -8.5t8.5 -8.5zM59.5 311q8.5 0 8.5 9t-8.5 9t-8.5 -9t8.5 -9zM85.5 81q8.5 0 8.5 8.5t-8.5 8.5t-8.5 -8.5t8.5 -8.5zM85.5 132q8.5 0 8.5 8.5t-8.5 8.5t-8.5 -8.5t8.5 -8.5zM85.5 183q8.5 0 8.5 9t-8.5 9t-8.5 -9t8.5 -9zM85.5 235q8.5 0 8.5 8.5t-8.5 8.5t-8.5 -8.5
t8.5 -8.5zM85.5 286q8.5 0 8.5 8.5t-8.5 8.5t-8.5 -8.5t8.5 -8.5zM85.5 337q8.5 0 8.5 8.5t-8.5 8.5t-8.5 -8.5t8.5 -8.5zM110.5 55q8.5 0 8.5 9t-8.5 9t-8.5 -9t8.5 -9zM110.5 107q8.5 0 8.5 8.5t-8.5 8.5t-8.5 -8.5t8.5 -8.5zM110.5 158q8.5 0 8.5 8.5t-8.5 8.5t-8.5 -8.5
t8.5 -8.5zM110.5 209q8.5 0 8.5 8.5t-8.5 8.5t-8.5 -8.5t8.5 -8.5zM110.5 260q8.5 0 8.5 8.5t-8.5 8.5t-8.5 -8.5t8.5 -8.5zM110.5 311q8.5 0 8.5 9t-8.5 9t-8.5 -9t8.5 -9zM136.5 81q8.5 0 8.5 8.5t-8.5 8.5t-8.5 -8.5t8.5 -8.5zM136.5 132q8.5 0 8.5 8.5t-8.5 8.5
t-8.5 -8.5t8.5 -8.5zM136.5 183q8.5 0 8.5 9t-8.5 9t-8.5 -9t8.5 -9zM136.5 235q8.5 0 8.5 8.5t-8.5 8.5t-8.5 -8.5t8.5 -8.5zM136.5 286q8.5 0 8.5 8.5t-8.5 8.5t-8.5 -8.5t8.5 -8.5zM136.5 337q8.5 0 8.5 8.5t-8.5 8.5t-8.5 -8.5t8.5 -8.5zM162.5 55q8.5 0 8.5 9t-8.5 9
t-8.5 -9t8.5 -9zM162.5 107q8.5 0 8.5 8.5t-8.5 8.5t-8.5 -8.5t8.5 -8.5zM162.5 158q8.5 0 8.5 8.5t-8.5 8.5t-8.5 -8.5t8.5 -8.5zM162.5 209q8.5 0 8.5 8.5t-8.5 8.5t-8.5 -8.5t8.5 -8.5zM162.5 260q8.5 0 8.5 8.5t-8.5 8.5t-8.5 -8.5t8.5 -8.5zM162.5 311q8.5 0 8.5 9
t-8.5 9t-8.5 -9t8.5 -9zM187.5 81q8.5 0 8.5 8.5t-8.5 8.5t-8.5 -8.5t8.5 -8.5zM187.5 132q8.5 0 8.5 8.5t-8.5 8.5t-8.5 -8.5t8.5 -8.5zM187.5 183q8.5 0 8.5 9t-8.5 9t-8.5 -9t8.5 -9zM187.5 235q8.5 0 8.5 8.5t-8.5 8.5t-8.5 -8.5t8.5 -8.5zM187.5 286q8.5 0 8.5 8.5
t-8.5 8.5t-8.5 -8.5t8.5 -8.5zM187.5 337q8.5 0 8.5 8.5t-8.5 8.5t-8.5 -8.5t8.5 -8.5zM213.5 55q8.5 0 8.5 9t-8.5 9t-8.5 -9t8.5 -9zM213.5 107q8.5 0 8.5 8.5t-8.5 8.5t-8.5 -8.5t8.5 -8.5zM213.5 158q8.5 0 8.5 8.5t-8.5 8.5t-8.5 -8.5t8.5 -8.5zM213.5 209
q8.5 0 8.5 8.5t-8.5 8.5t-8.5 -8.5t8.5 -8.5zM213.5 260q8.5 0 8.5 8.5t-8.5 8.5t-8.5 -8.5t8.5 -8.5zM213.5 311q8.5 0 8.5 9t-8.5 9t-8.5 -9t8.5 -9zM238.5 81q8.5 0 8.5 8.5t-8.5 8.5t-8.5 -8.5t8.5 -8.5zM238.5 132q8.5 0 8.5 8.5t-8.5 8.5t-8.5 -8.5t8.5 -8.5z
M238.5 183q8.5 0 8.5 9t-8.5 9t-8.5 -9t8.5 -9zM238.5 235q8.5 0 8.5 8.5t-8.5 8.5t-8.5 -8.5t8.5 -8.5zM238.5 286q8.5 0 8.5 8.5t-8.5 8.5t-8.5 -8.5t8.5 -8.5zM238.5 337q8.5 0 8.5 8.5t-8.5 8.5t-8.5 -8.5t8.5 -8.5zM264.5 55q8.5 0 8.5 9t-8.5 9t-8.5 -9t8.5 -9z
M264.5 107q8.5 0 8.5 8.5t-8.5 8.5t-8.5 -8.5t8.5 -8.5zM264.5 158q8.5 0 8.5 8.5t-8.5 8.5t-8.5 -8.5t8.5 -8.5zM264.5 209q8.5 0 8.5 8.5t-8.5 8.5t-8.5 -8.5t8.5 -8.5zM264.5 260q8.5 0 8.5 8.5t-8.5 8.5t-8.5 -8.5t8.5 -8.5zM264.5 311q8.5 0 8.5 9t-8.5 9t-8.5 -9
t8.5 -9zM290.5 81q8.5 0 8.5 8.5t-8.5 8.5t-8.5 -8.5t8.5 -8.5zM290.5 132q8.5 0 8.5 8.5t-8.5 8.5t-8.5 -8.5t8.5 -8.5zM290.5 183q8.5 0 8.5 9t-8.5 9t-8.5 -9t8.5 -9zM290.5 235q8.5 0 8.5 8.5t-8.5 8.5t-8.5 -8.5t8.5 -8.5zM290.5 286q8.5 0 8.5 8.5t-8.5 8.5t-8.5 -8.5
t8.5 -8.5zM333 30v350h25v-9v-333v-8h-25zM375 81h137v-51h-17v-26h-68v26h-52v8v43z" />
  </g>

</svg>
