<?xml version="1.0" standalone="no"?>
<!DOCTYPE svg PUBLIC "-//W3C//DTD SVG 1.1//EN" "http://www.w3.org/Graphics/SVG/1.1/DTD/svg11.dtd" >
<svg xmlns="http://www.w3.org/2000/svg" xmlns:xlink="http://www.w3.org/1999/xlink" version="1.1" viewBox="-10 0 522 512">
  <g transform="matrix(1 0 0 -1 0 448)">
   <path fill="currentColor"
d="M462 338q9 0 9 -9t-9 -9h-19v-311q0 -19 -13 -32.5t-32 -13.5v-18q0 -9 -9.5 -9t-9.5 9v18h-246v-18q0 -9 -9.5 -9t-9.5 9v18q-19 0 -32 13.5t-13 32.5v311h-19q-9 0 -9 9t9 9h19h74q-38 18 -38 43q0 10 6 19q13 18 36 18q5 0 11 -2q6 15 19 23.5t29 8.5q20 0 35 -14
q12 8 26 8q21 0 35 -17q10 5 20 5q14 0 25.5 -10t13.5 -25l2.5 0.5t3.5 1.5l8 2l3 -8q1 -6 1 -10q0 -25 -37 -43h101h19zM311 408v-1q0 -2 1 -3v-7.5v-7.5v-1q9 1 16 1q1 0 2.5 0.5l1.5 0.5q4 1 11 2q-1 8 -7 13.5t-14 5.5q-6 0 -11 -3zM267 424q-8 0 -15 -5v-1q1 -1 2 -3
q0 -1 1 -2q0 -2 0.5 -3.5t0.5 -2.5q1 -1 1 -3v-1.5v-0.5q1 -3 1 -6q0 -4 -1 -7q2 -1 7 -1q7 0 8 -1h10h8h1.5h0.5l0.5 0.5t0.5 1.5v1q1 3 1 6t-1 6v1q0 2 -1 4q-8 17 -25 17zM206 430q-22 0 -31 -21l1 -0.5l1 -0.5q4 -2 8 -3.5t6 -2.5q3 -1 9 -2l5 -2q4 -1 11 -3l2 -0.5
t3 -0.5q8 -2 17 -3h1v5v6q0 1 -1 2q0 2 -1 4q-1 1 -1 2q-1 2 -2 3.5l-1 1.5q-10 15 -27 15zM398 18v110h-284v-110h284zM398 174v109h-284v-109h284zM379 265v-73h-246v73h246zM288 219q9 0 9 9.5t-9 9.5h-64q-9 0 -9 -9.5t9 -9.5h64zM379 110v-73h-246v73h246zM288 64
q9 0 9 9t-9 9h-64q-9 0 -9 -9t9 -9h64z" />
  </g>

</svg>
