<?xml version="1.0" standalone="no"?>
<!DOCTYPE svg PUBLIC "-//W3C//DTD SVG 1.1//EN" "http://www.w3.org/Graphics/SVG/1.1/DTD/svg11.dtd" >
<svg xmlns="http://www.w3.org/2000/svg" xmlns:xlink="http://www.w3.org/1999/xlink" version="1.1" viewBox="-10 0 532 512">
  <g transform="matrix(1 0 0 -1 0 448)">
   <path fill="currentColor"
d="M503 444q9 0 9 -8.5t-9 -8.5h-8v-461h-26v-26h-51v26h-324v-26h-51v26h-26v461h-8q-9 0 -9 8.5t9 8.5h8h478h8zM461 102h-410v-102h410v102zM51 154h410v102h-410v-102zM461 307v103h-410v-103h410zM256 324q-14 0 -24 10t-10 24.5t10 24.5t24 10t24 -10t10 -24.5
t-10 -24.5t-24 -10zM256 239q14 0 24 -10t10 -24t-10 -24t-24 -10t-24 10t-10 24t10 24t24 10zM256 17q-14 0 -24 10t-10 24t10 24t24 10t24 -10t10 -24t-10 -24t-24 -10z" />
  </g>

</svg>
