<?xml version="1.0" standalone="no"?>
<!DOCTYPE svg PUBLIC "-//W3C//DTD SVG 1.1//EN" "http://www.w3.org/Graphics/SVG/1.1/DTD/svg11.dtd" >
<svg xmlns="http://www.w3.org/2000/svg" xmlns:xlink="http://www.w3.org/1999/xlink" version="1.1" viewBox="-10 0 522 512">
  <g transform="matrix(1 0 0 -1 0 448)">
   <path fill="currentColor"
d="M154 55q0 4 -1 9h207q-2 -9 -2 -17h-204v8zM154 18v12h204v-12v-5h-204v5zM200 -30q-28 1 -41 26h194q-13 -25 -41 -26l-26 -34h-60zM277 -47l13 17h-68l13 -17h42zM418 363v-116q0 -69 -35 -124q1 -7 -3 -12q-10 -13 -16 -30h-214q-5 16 -15 30q-2 3 -3 7
q-38 56 -38 129v116q0 36 50 60.5t112 24.5t112 -24.5t50 -60.5zM196 320h-25v-188q8 -4 17 -7v178h34v-187q8 -2 17 -2v189h34v-190q8 1 17 2v188h34v-179q-16 -6 -33 -9q26 5 50 15v190h-25v9q0 8 -8.5 8t-8.5 -8v-9h-9v9q0 8 -8.5 8t-8.5 -8v-9h-8v9q0 8 -9 8t-9 -8v-9
h-8v9q0 8 -8.5 8t-8.5 -8v-9h-9v9q0 8 -8.5 8t-8.5 -8v-9zM307.5 269q-8.5 0 -8.5 -8.5t8.5 -8.5t8.5 8.5t-8.5 8.5zM299 285.5q0 -8.5 8.5 -8.5t8.5 8.5t-8.5 8.5t-8.5 -8.5zM307.5 243q-8.5 0 -8.5 -8.5t8.5 -8.5t8.5 8.5t-8.5 8.5zM307.5 218q-8.5 0 -8.5 -8.5t8.5 -8.5
t8.5 8.5t-8.5 8.5zM307.5 192q-8.5 0 -8.5 -8.5t8.5 -8.5t8.5 8.5t-8.5 8.5zM307.5 166q-8.5 0 -8.5 -8.5t8.5 -8.5t8.5 8.5t-8.5 8.5zM307.5 141q-8.5 0 -8.5 -8.5t8.5 -8.5t8.5 8.5t-8.5 8.5zM240 113h17h16h-15h-18zM256 269q-9 0 -9 -8.5t9 -8.5t9 8.5t-9 8.5z
M247 285.5q0 -8.5 9 -8.5t9 8.5t-9 8.5t-9 -8.5zM256 243q-9 0 -9 -8.5t9 -8.5t9 8.5t-9 8.5zM256 218q-9 0 -9 -8.5t9 -8.5t9 8.5t-9 8.5zM256 192q-9 0 -9 -8.5t9 -8.5t9 8.5t-9 8.5zM256 166q-9 0 -9 -8.5t9 -8.5t9 8.5t-9 8.5zM256 141q-9 0 -9 -8.5t9 -8.5t9 8.5
t-9 8.5zM204.5 269q-8.5 0 -8.5 -8.5t8.5 -8.5t8.5 8.5t-8.5 8.5zM196 285.5q0 -8.5 8.5 -8.5t8.5 8.5t-8.5 8.5t-8.5 -8.5zM204.5 243q-8.5 0 -8.5 -8.5t8.5 -8.5t8.5 8.5t-8.5 8.5zM204.5 218q-8.5 0 -8.5 -8.5t8.5 -8.5t8.5 8.5t-8.5 8.5zM204.5 192q-8.5 0 -8.5 -8.5
t8.5 -8.5t8.5 8.5t-8.5 8.5zM204.5 166q-8.5 0 -8.5 -8.5t8.5 -8.5t8.5 8.5t-8.5 8.5zM204.5 141q-8.5 0 -8.5 -8.5t8.5 -8.5t8.5 8.5t-8.5 8.5zM221 116q-17 3 -33 9q16 -6 33 -9z" />
  </g>

</svg>
