<?xml version="1.0" standalone="no"?>
<!DOCTYPE svg PUBLIC "-//W3C//DTD SVG 1.1//EN" "http://www.w3.org/Graphics/SVG/1.1/DTD/svg11.dtd" >
<svg xmlns="http://www.w3.org/2000/svg" xmlns:xlink="http://www.w3.org/1999/xlink" version="1.1" viewBox="-10 0 532 512">
  <g transform="matrix(1 0 0 -1 0 448)">
   <path fill="currentColor"
d="M189.5 292q-6.5 7 0.5 13q2 3 6 3t7 -3q7 -6 0 -13t-13.5 0zM326 292q-7 7 0 13q3 3 7 3t7 -3q6 -6 -0.5 -13t-13.5 0zM511 173q5 -37 -20 -62q-39 -40 -39 -90v-7q0 -15 -10 -26t-25 -13q-6 -26 -37 -26t-38 25h-172q-7 -25 -38 -25t-37 26q-15 1 -25 11.5t-10 25.5v9
q0 50 -39 90q-25 25 -20 62q2 25 20.5 43.5t43.5 21.5q5 1 10 1q4 0 10 -1l-7 79q-7 46 23.5 82t77.5 36h155q48 0 78.5 -36t22.5 -82l-7 -79q5 1 9 1q5 0 10 -1q25 -3 43.5 -21.5t20.5 -43.5zM309 310q-6 -11 0 -23l-8 -8q-6 -6 0 -12q3 -2 6.5 -2t5.5 2l8 8q6 -3 12 -3
t12 3l7 -8q3 -2 6.5 -2t5.5 2q6 6 0 12l-7 8q5 12 0 23l7 8q6 6 0 12t-12 0l-8 -8q-11 6 -23 0l-8 8q-6 6 -12 0t0 -12zM172 310q-5 -11 0 -23l-7 -8q-6 -6 0 -12q2 -2 5.5 -2t6.5 2l8 8q5 -3 11 -3t12 3l8 -8q2 -2 5.5 -2t6.5 2q6 6 0 12l-8 8q6 12 0 23l8 8q6 6 0 12
t-12 0l-8 -8q-12 6 -23 0l-8 8q-6 6 -12 0t0 -12zM129 94h254q10 0 10 9v26q0 10 -7.5 17.5t-18.5 7.5h-222q-11 0 -18.5 -7.5t-7.5 -17.5v-26q0 -9 10 -9z" />
  </g>

</svg>
