<?xml version="1.0" standalone="no"?>
<!DOCTYPE svg PUBLIC "-//W3C//DTD SVG 1.1//EN" "http://www.w3.org/Graphics/SVG/1.1/DTD/svg11.dtd" >
<svg xmlns="http://www.w3.org/2000/svg" xmlns:xlink="http://www.w3.org/1999/xlink" version="1.1" viewBox="-11 0 534 512">
  <g transform="matrix(1 0 0 -1 0 448)">
   <path fill="currentColor"
d="M52 251l-4 -1q-11 -1 -21 -3v80q0 14 10.5 24t24.5 10h388q14 0 24.5 -10t10.5 -24v-80q-10 2 -21 3l-1.5 0.5t-2.5 0.5h-8h-6h-6h-7q-4 -1 -6 -1q-3 0 -7 -0.5t-6 -1.5q-3 0 -8 -1l-5 -2q-6 -1 -11 -3h-1l-41 -14q-2 -1 -5 -2l-0.5 -0.5l-0.5 -0.5q-2 -1 -3 -2l-1 -1
q-2 -1 -3 -3v-1q-5 -5 -6 -12h-146q-1 7 -5 12l-1 1q-1 2 -3 3q0 1 -1 1q-1 1 -3 2l-0.5 0.5l-0.5 0.5q-3 1 -5 2l-41 14h-1q-5 2 -11 3q-1 1 -3 1h-2q-5 2 -8 2q-1 0 -5.5 1t-7.5 1t-6 0.5t-7 0.5h-6h-6h-8zM0 200q-1 9 4 16.5t14 9.5q1 1 1.5 1h1.5q11 3 24 5q6 1 12 1h1
h10h4q5 0 9 -1h4q5 -1 8 -1l5 -1q6 -2 7 -2q5 -1 11 -3h0.5t0.5 -1l41 -13q2 -1 3 -2h1q1 -1 2 -3q1 -3 0 -6q-1 -2 -2 -3l-2 -2t-2 -1l-10 -3q-45 -13 -93 -13q-9 0 -21 1q-8 1 -10.5 1t-5.5 1t-6 3q-10 6 -12 16zM512 133v-55h-61h-390h-61v55h512zM499 164h1l6 -13h-500
l6 13h1q5 -2 9 -2q8 -1 17 -2h3h3h11h1h2h1q9 0 18 1h6q12 1 21 2q1 0 2 0.5l1 0.5q9 1 18 3q4 1 6 1q12 3 21 6l10 3q2 0 4 1l1 1q2 1 3 2h1q2 1 3 3l3 3h156q1 -1 2.5 -3t3.5 -3h1q1 -1 3 -2l1 -1q2 -1 4 -1l10 -3q9 -3 21 -6q2 0 6 -1q9 -2 17 -3q1 0 2 -0.5t2 -0.5
q9 -1 21 -2h6q9 -1 18 -1h1h2h1h11h3h3q9 1 17 2q4 0 9 2zM467 232q13 -2 24 -5h1.5t1.5 -1q9 -2 14 -9.5t4 -16.5q-2 -10 -12 -16q-3 -2 -6 -3t-5 -1q-64 -7 -125 11l-10 3q-1 0 -2 1l-2 2l-2 2v2q-1 2 0 5q1 2 2 3h1q1 1 3 2l41 13q0 1 0.5 1h0.5q6 2 11 3q1 0 7 1l5 2
q3 0 8 1h2.5h1.5q4 1 9 1h4h10h1q6 0 12 -1zM503 59v-36l-37 36h37zM46 59l-37 -36v36h37z" />
  </g>

</svg>
