<?xml version="1.0" standalone="no"?>
<!DOCTYPE svg PUBLIC "-//W3C//DTD SVG 1.1//EN" "http://www.w3.org/Graphics/SVG/1.1/DTD/svg11.dtd" >
<svg xmlns="http://www.w3.org/2000/svg" xmlns:xlink="http://www.w3.org/1999/xlink" version="1.1" viewBox="-10 0 532 512">
  <g transform="matrix(1 0 0 -1 0 448)">
   <path fill="currentColor"
d="M413 391q52 -7 75.5 -32t23.5 -52q0 -15 -10.5 -25.5t-25.5 -10.5q-12 0 -21 9t-9 22q0 8 8.5 8t8.5 -8q0 -6 4 -10t9 -4q8 0 13.5 5.5t5.5 13.5q0 11 -7.5 18.5t-18.5 7.5q-14 0 -24 -10t-10 -24v-137q0 -2 -1 -3q-1 -9 -7 -16l3 -189q0 -6 -4 -10t-10 -4h-7
q-12 0 -14 11v1l-13 176h-23l3 -131q0 -6 -4.5 -10.5t-9.5 -4.5h-8q-11 0 -13 11l-1 2l-8 133h-124l-2 -134q-3 -11 -14 -11h-7q-6 0 -10 4t-4 10l-3 131h-23l-8 -177q-2 -11 -13 -11h-8q-5 0 -9.5 4t-4.5 10l-3 188q-6 8 -7 17q-1 1 -1 3v137q0 14 -10 24t-24 10
q-11 0 -18.5 -7.5t-7.5 -18.5q0 -8 5.5 -13.5t13.5 -5.5q5 0 9 4t4 10q0 8 8.5 8t8.5 -8q0 -13 -9 -22t-21 -9q-15 0 -25.5 10.5t-10.5 25.5q0 27 23.5 52t75.5 32q24 -10 35 -24t11 -26q0 -8 8.5 -8t8.5 8q0 32 -34 54q57 49 128 49t128 -49q-34 -22 -34 -54q0 -8 8.5 -8
t8.5 8q0 12 11 26t35 24zM281.5 350q-8.5 0 -8.5 -8.5t8.5 -8.5t8.5 8.5t-8.5 8.5zM281.5 299q-8.5 0 -8.5 -8.5t8.5 -8.5t8.5 8.5t-8.5 8.5zM256 375q-9 0 -9 -8.5t9 -8.5t9 8.5t-9 8.5zM256 324q-9 0 -9 -8.5t9 -8.5t9 8.5t-9 8.5zM230.5 350q-8.5 0 -8.5 -8.5t8.5 -8.5
t8.5 8.5t-8.5 8.5zM230.5 299q-8.5 0 -8.5 -8.5t8.5 -8.5t8.5 8.5t-8.5 8.5zM401 213v77q0 9 -8.5 9t-8.5 -9v-77q0 -1 1 -2l-18 6v59q0 9 -8.5 9t-8.5 -9v-55q-42 9 -94 9t-94 -9v58q0 8 -8.5 8t-8.5 -8v-62l-18 -6q1 1 1 2v77q0 9 -8.5 9t-8.5 -9v-77q0 -5 5 -7
q0 -1 -0.5 -1h-1.5h1h282h1h-1.5t-0.5 1q5 2 5 7z" />
  </g>

</svg>
