<?xml version="1.0" standalone="no"?>
<!DOCTYPE svg PUBLIC "-//W3C//DTD SVG 1.1//EN" "http://www.w3.org/Graphics/SVG/1.1/DTD/svg11.dtd" >
<svg xmlns="http://www.w3.org/2000/svg" xmlns:xlink="http://www.w3.org/1999/xlink" version="1.1" viewBox="-10 0 532 512">
  <g transform="matrix(1 0 0 -1 0 448)">
   <path fill="currentColor"
d="M68.5 111q8.5 0 8.5 -9v-17q0 -8 -8.5 -8t-8.5 8v17q0 9 8.5 9zM68.5 60q8.5 0 8.5 -9v-17q0 -8 -8.5 -8t-8.5 8v17q0 9 8.5 9zM102.5 111q8.5 0 8.5 -9v-17q0 -8 -8.5 -8t-8.5 8v17q0 9 8.5 9zM102.5 60q8.5 0 8.5 -9v-17q0 -8 -8.5 -8t-8.5 8v17q0 9 8.5 9zM136.5 111
q8.5 0 8.5 -9v-17q0 -8 -8.5 -8t-8.5 8v17q0 9 8.5 9zM136.5 60q8.5 0 8.5 -9v-17q0 -8 -8.5 -8t-8.5 8v17q0 9 8.5 9zM375.5 111q8.5 0 8.5 -9v-17q0 -8 -8.5 -8t-8.5 8v17q0 9 8.5 9zM375.5 60q8.5 0 8.5 -9v-17q0 -8 -8.5 -8t-8.5 8v17q0 9 8.5 9zM409.5 111
q8.5 0 8.5 -9v-17q0 -8 -8.5 -8t-8.5 8v17q0 9 8.5 9zM409.5 60q8.5 0 8.5 -9v-17q0 -8 -8.5 -8t-8.5 8v17q0 9 8.5 9zM443.5 111q8.5 0 8.5 -9v-17q0 -8 -8.5 -8t-8.5 8v17q0 9 8.5 9zM443.5 60q8.5 0 8.5 -9v-17q0 -8 -8.5 -8t-8.5 8v17q0 9 8.5 9zM503 358q9 0 9 -8v-205
q0 -8 -9 -8h-17v59q0 9 -8 9h-444q-8 0 -8 -9v-59h-17q-9 0 -9 8v205q0 8 9 8h494zM51.5 230q8.5 0 8.5 8.5t-8.5 8.5t-8.5 -8.5t8.5 -8.5zM51.5 265q8.5 0 8.5 8.5t-8.5 8.5t-8.5 -8.5t8.5 -8.5zM51.5 299q8.5 0 8.5 8.5t-8.5 8.5t-8.5 -8.5t8.5 -8.5zM76.5 230
q8.5 0 8.5 8.5t-8.5 8.5t-8.5 -8.5t8.5 -8.5zM76.5 265q8.5 0 8.5 8.5t-8.5 8.5t-8.5 -8.5t8.5 -8.5zM76.5 299q8.5 0 8.5 8.5t-8.5 8.5t-8.5 -8.5t8.5 -8.5zM102.5 230q8.5 0 8.5 8.5t-8.5 8.5t-8.5 -8.5t8.5 -8.5zM102.5 265q8.5 0 8.5 8.5t-8.5 8.5t-8.5 -8.5t8.5 -8.5z
M102.5 299q8.5 0 8.5 8.5t-8.5 8.5t-8.5 -8.5t8.5 -8.5zM128 230q9 0 9 8.5t-9 8.5t-9 -8.5t9 -8.5zM128 265q9 0 9 8.5t-9 8.5t-9 -8.5t9 -8.5zM128 299q9 0 9 8.5t-9 8.5t-9 -8.5t9 -8.5zM153.5 230q8.5 0 8.5 8.5t-8.5 8.5t-8.5 -8.5t8.5 -8.5zM153.5 265q8.5 0 8.5 8.5
t-8.5 8.5t-8.5 -8.5t8.5 -8.5zM153.5 299q8.5 0 8.5 8.5t-8.5 8.5t-8.5 -8.5t8.5 -8.5zM179.5 230q8.5 0 8.5 8.5t-8.5 8.5t-8.5 -8.5t8.5 -8.5zM179.5 265q8.5 0 8.5 8.5t-8.5 8.5t-8.5 -8.5t8.5 -8.5zM179.5 299q8.5 0 8.5 8.5t-8.5 8.5t-8.5 -8.5t8.5 -8.5zM204.5 230
q8.5 0 8.5 8.5t-8.5 8.5t-8.5 -8.5t8.5 -8.5zM204.5 265q8.5 0 8.5 8.5t-8.5 8.5t-8.5 -8.5t8.5 -8.5zM204.5 299q8.5 0 8.5 8.5t-8.5 8.5t-8.5 -8.5t8.5 -8.5zM307.5 230q8.5 0 8.5 8.5t-8.5 8.5t-8.5 -8.5t8.5 -8.5zM307.5 265q8.5 0 8.5 8.5t-8.5 8.5t-8.5 -8.5t8.5 -8.5
zM307.5 299q8.5 0 8.5 8.5t-8.5 8.5t-8.5 -8.5t8.5 -8.5zM332.5 230q8.5 0 8.5 8.5t-8.5 8.5t-8.5 -8.5t8.5 -8.5zM332.5 265q8.5 0 8.5 8.5t-8.5 8.5t-8.5 -8.5t8.5 -8.5zM332.5 299q8.5 0 8.5 8.5t-8.5 8.5t-8.5 -8.5t8.5 -8.5zM358.5 230q8.5 0 8.5 8.5t-8.5 8.5
t-8.5 -8.5t8.5 -8.5zM358.5 265q8.5 0 8.5 8.5t-8.5 8.5t-8.5 -8.5t8.5 -8.5zM358.5 299q8.5 0 8.5 8.5t-8.5 8.5t-8.5 -8.5t8.5 -8.5zM384 230q9 0 9 8.5t-9 8.5t-9 -8.5t9 -8.5zM384 265q9 0 9 8.5t-9 8.5t-9 -8.5t9 -8.5zM384 299q9 0 9 8.5t-9 8.5t-9 -8.5t9 -8.5z
M409.5 230q8.5 0 8.5 8.5t-8.5 8.5t-8.5 -8.5t8.5 -8.5zM409.5 265q8.5 0 8.5 8.5t-8.5 8.5t-8.5 -8.5t8.5 -8.5zM409.5 299q8.5 0 8.5 8.5t-8.5 8.5t-8.5 -8.5t8.5 -8.5zM435.5 230q8.5 0 8.5 8.5t-8.5 8.5t-8.5 -8.5t8.5 -8.5zM435.5 265q8.5 0 8.5 8.5t-8.5 8.5
t-8.5 -8.5t8.5 -8.5zM435.5 299q8.5 0 8.5 8.5t-8.5 8.5t-8.5 -8.5t8.5 -8.5zM460.5 230q8.5 0 8.5 8.5t-8.5 8.5t-8.5 -8.5t8.5 -8.5zM460.5 265q8.5 0 8.5 8.5t-8.5 8.5t-8.5 -8.5t8.5 -8.5zM460.5 299q8.5 0 8.5 8.5t-8.5 8.5t-8.5 -8.5t8.5 -8.5zM43 137v51h426v-51
h-426zM239 171q-9 0 -9 -8.5t9 -8.5h34q9 0 9 8.5t-9 8.5h-34z" />
  </g>

</svg>
