<?xml version="1.0" standalone="no"?>
<!DOCTYPE svg PUBLIC "-//W3C//DTD SVG 1.1//EN" "http://www.w3.org/Graphics/SVG/1.1/DTD/svg11.dtd" >
<svg xmlns="http://www.w3.org/2000/svg" xmlns:xlink="http://www.w3.org/1999/xlink" version="1.1" viewBox="-10 0 522 512">
  <g transform="matrix(1 0 0 -1 0 448)">
   <path fill="currentColor"
d="M328 114q0 -7 -8 -7h17q9 0 9 -9v-25q8 0 8 -9v-94q0 -8 -8 -8h-17v-17q0 -9 -9 -9h-34q-9 0 -9 9v17h-102v-17q0 -9 -9 -9h-34q-8 0 -8 9v17h-17q-9 0 -9 8v94q0 9 9 9v25q0 9 8 9h9q-9 0 -9 8v154q0 14 -10 24t-24 10q-8 0 -8 8v26q0 5 3 7l22 15v46q0 9 9 9h8v3
q0 13 9.5 22t22.5 9h150q13 0 22.5 -9t9.5 -22v-3h17q3 0 5.5 -3t2.5 -6l-2 -26q37 -4 62 -32t25 -65q0 -41 -28.5 -70t-69.5 -29q-3 0 -6 1zM132 417v-3h179v3q0 6 -4 10t-10 4h-150q-6 0 -10.5 -4t-4.5 -10zM171 -21q16 0 27 11t11 27t-11 27t-27 11t-27.5 -11t-11.5 -27
t11.5 -27t27.5 -11zM277 -4h43v42h-43v-42zM269 -4v42h-43v-42h43zM192 107h68q9 0 9 8v27q15 3 24.5 14.5t9.5 26.5q0 9 -8.5 9t-8.5 -9q0 -17 -17 -24v24q0 9 -9 9h-68q-9 0 -9 -9v-24q-17 7 -17 24q0 9 -8.5 9t-8.5 -9q0 -15 10 -26.5t24 -14.5v-27q0 -8 9 -8zM321 228
q0 -7 7 -9q7 -1 13 -1q27 0 45.5 18.5t18.5 45t-18.5 45.5t-45.5 19h-2q-7 -1 -8 -8zM388 282q0 -20 -14.5 -34t-34.5 -13l8 93q18 -2 29.5 -15.5t11.5 -30.5zM201 124v2l51 20v-22h-51zM201 145v30h51v-11z" />
  </g>

</svg>
