<?xml version="1.0" standalone="no"?>
<!DOCTYPE svg PUBLIC "-//W3C//DTD SVG 1.1//EN" "http://www.w3.org/Graphics/SVG/1.1/DTD/svg11.dtd" >
<svg xmlns="http://www.w3.org/2000/svg" xmlns:xlink="http://www.w3.org/1999/xlink" version="1.1" viewBox="-10 0 522 512">
  <g transform="matrix(1 0 0 -1 0 448)">
   <path fill="currentColor"
d="M464 346q9 0 15.5 -7t6.5 -16v-3q0 -7 -5 -12t-12 -5q0 -67 -47.5 -114.5t-114.5 -47.5h-17v-94h-8v-17h17v-9q0 -28 20 -48t48 -20v0h34q9 0 9 -8.5t-9 -8.5h-34h-222h-34q-9 0 -9 8.5t9 8.5h34q28 0 48 20t20 48v9h17v17h-8v94h-17q-67 0 -114.5 47.5t-47.5 114.5
q-7 0 -12 5t-5 12v3q0 9 6.5 16t15.5 7q53 0 87 43q46 59 121 59t121 -59q34 -43 87 -43zM384 224v12q0 8 -5 14.5t-14 8.5l-6 1q-103 23 -206 0l-6 -1q-9 -2 -14 -8.5t-5 -14.5v-12q0 -10 7 -16.5t16 -6.5h5q100 21 200 0h5q9 0 16 6.5t7 16.5z" />
  </g>

</svg>
