<?xml version="1.0" standalone="no"?>
<!DOCTYPE svg PUBLIC "-//W3C//DTD SVG 1.1//EN" "http://www.w3.org/Graphics/SVG/1.1/DTD/svg11.dtd" >
<svg xmlns="http://www.w3.org/2000/svg" xmlns:xlink="http://www.w3.org/1999/xlink" version="1.1" viewBox="-10 0 532 512">
  <g transform="matrix(1 0 0 -1 0 448)">
   <path fill="currentColor"
d="M375 380h137v-282h-137v34v137v85v26zM435 107v42h-42v-42h42zM435 158v43h-42v-43h42zM435 209v43h-42v-43h42zM495 107v42h-43v-42h43zM495 158v43h-43v-43h43zM495 209v43h-43v-43h43zM495 269v85h-102v-85h102zM0 30v25h358v-25h-273v-26h-68v26h-17zM0 354v26h358
v-26h-358zM341 239q0 5 4 9t9 4h4v-103h-4q-5 0 -9 4t-4 9v77zM74 124q-9 0 -16 6.5t-7 16.5v116q0 9 7 16t16 7h193q9 0 16 -7t7 -16v-116q0 -10 -7 -16.5t-16 -6.5h-193zM273.5 277q-8.5 0 -8.5 -8.5t8.5 -8.5t8.5 8.5t-8.5 8.5zM273.5 226q-8.5 0 -8.5 -8.5t8.5 -8.5
t8.5 8.5t-8.5 8.5zM273.5 175q-8.5 0 -8.5 -8.5t8.5 -8.5t8.5 8.5t-8.5 8.5zM247.5 252q-8.5 0 -8.5 -8.5t8.5 -8.5t8.5 8.5t-8.5 8.5zM247.5 201q-8.5 0 -8.5 -9t8.5 -9t8.5 9t-8.5 9zM247.5 149q-8.5 0 -8.5 -8.5t8.5 -8.5t8.5 8.5t-8.5 8.5zM221.5 277q-8.5 0 -8.5 -8.5
t8.5 -8.5t8.5 8.5t-8.5 8.5zM221.5 226q-8.5 0 -8.5 -8.5t8.5 -8.5t8.5 8.5t-8.5 8.5zM221.5 175q-8.5 0 -8.5 -8.5t8.5 -8.5t8.5 8.5t-8.5 8.5zM196.5 252q-8.5 0 -8.5 -8.5t8.5 -8.5t8.5 8.5t-8.5 8.5zM196.5 201q-8.5 0 -8.5 -9t8.5 -9t8.5 9t-8.5 9zM196.5 149
q-8.5 0 -8.5 -8.5t8.5 -8.5t8.5 8.5t-8.5 8.5zM170.5 277q-8.5 0 -8.5 -8.5t8.5 -8.5t8.5 8.5t-8.5 8.5zM170.5 226q-8.5 0 -8.5 -8.5t8.5 -8.5t8.5 8.5t-8.5 8.5zM170.5 175q-8.5 0 -8.5 -8.5t8.5 -8.5t8.5 8.5t-8.5 8.5zM145.5 252q-8.5 0 -8.5 -8.5t8.5 -8.5t8.5 8.5
t-8.5 8.5zM145.5 201q-8.5 0 -8.5 -9t8.5 -9t8.5 9t-8.5 9zM145.5 149q-8.5 0 -8.5 -8.5t8.5 -8.5t8.5 8.5t-8.5 8.5zM119.5 277q-8.5 0 -8.5 -8.5t8.5 -8.5t8.5 8.5t-8.5 8.5zM119.5 226q-8.5 0 -8.5 -8.5t8.5 -8.5t8.5 8.5t-8.5 8.5zM119.5 175q-8.5 0 -8.5 -8.5t8.5 -8.5
t8.5 8.5t-8.5 8.5zM93.5 252q-8.5 0 -8.5 -8.5t8.5 -8.5t8.5 8.5t-8.5 8.5zM93.5 201q-8.5 0 -8.5 -9t8.5 -9t8.5 9t-8.5 9zM93.5 149q-8.5 0 -8.5 -8.5t8.5 -8.5t8.5 8.5t-8.5 8.5zM68.5 277q-8.5 0 -8.5 -8.5t8.5 -8.5t8.5 8.5t-8.5 8.5zM68.5 226q-8.5 0 -8.5 -8.5
t8.5 -8.5t8.5 8.5t-8.5 8.5zM68.5 175q-8.5 0 -8.5 -8.5t8.5 -8.5t8.5 8.5t-8.5 8.5zM375 55v26h137v-51h-17v-26h-68v26h-52v25zM0 73v264h358v-68h-4q-12 0 -21 -9t-9 -21v-77q0 -12 9 -21t21 -9h4v-59h-358zM34 263v-116q0 -17 12 -28.5t28 -11.5h193q17 0 28.5 11.5
t11.5 28.5v116q0 16 -11.5 28t-28.5 12h-193q-16 0 -28 -12t-12 -28z" />
  </g>

</svg>
