<?xml version="1.0" standalone="no"?>
<!DOCTYPE svg PUBLIC "-//W3C//DTD SVG 1.1//EN" "http://www.w3.org/Graphics/SVG/1.1/DTD/svg11.dtd" >
<svg xmlns="http://www.w3.org/2000/svg" xmlns:xlink="http://www.w3.org/1999/xlink" version="1.1" viewBox="-10 0 532 512">
  <g transform="matrix(1 0 0 -1 0 448)">
   <path fill="currentColor"
d="M213 77q9 0 9 -9v-38q0 -34 -24 -57.5t-57 -23.5h-60q-33 0 -57 23.5t-24 57.5v38q0 9 9 9h204zM461 43v153h51v-153h-51zM447 307q27 0 46 -19t19 -46v-29h-60q-8 0 -8 -8v-171q0 -8 8 -8h60v-69q0 -8 -9 -8h-247q-9 0 -9 8v214h-145v-9v-17q0 -8 -8.5 -8t-8.5 8v9h-17
q-8 0 -8 8v94q0 9 8 9h17v8q0 9 8.5 9t8.5 -9v-17v-9h26v103h-26q-17 0 -29.5 12.5t-12.5 30.5v34q0 8 8 8h276q10 0 16.5 -6.5t6.5 -16.5q0 -17 -17 -22l-137 -38v-105h35q2 26 20.5 43t43.5 17h135zM102 188h145v42h-42q-9 0 -9 9v111h-51v-111q0 -9 -8 -9h-35v-42z
M316 -9q14 0 24 10t10 24.5t-10 24.5t-24 10t-24 -10t-10 -24.5t10 -24.5t24 -10zM316 68q14 0 24 10t10 24.5t-10 24.5t-24 10t-24 -10t-10 -24.5t10 -24.5t24 -10z" />
  </g>

</svg>
