<?xml version="1.0" standalone="no"?>
<!DOCTYPE svg PUBLIC "-//W3C//DTD SVG 1.1//EN" "http://www.w3.org/Graphics/SVG/1.1/DTD/svg11.dtd" >
<svg xmlns="http://www.w3.org/2000/svg" xmlns:xlink="http://www.w3.org/1999/xlink" version="1.1" viewBox="-10 0 532 512">
  <g transform="matrix(1 0 0 -1 0 448)">
   <path fill="currentColor"
d="M495 256q17 -10 17 -30v-171h-9v-25h-51v25h-8h-376h-8v-25h-51v25h-9v171q0 20 17 30v26q0 30 21.5 51t51.5 21h48q17 0 33 -8v-179q-6 2 -10 5q-2 3 -6 3h-87v-26h376v26h-87q-4 0 -6 -3q-4 -3 -10 -5v179q16 8 33 8h48q30 0 51.5 -21t21.5 -51v-26zM433 266l-11 11
l11 11q6 6 0 12t-12 0l-11 -11l-11 11q-6 6 -12.5 0t-0.5 -12l12 -11l-12 -11q-6 -6 0 -12q3 -2 6.5 -2t6.5 2l11 11l11 -11q2 -2 5.5 -2t6.5 2q6 6 0 12zM79 288l11 -11l-11 -11q-6 -6 0 -12q3 -2 6.5 -2t5.5 2l11 11l11 -11q3 -2 6.5 -2t6.5 2q6 6 0 12l-12 11l12 11
q6 6 -0.5 12t-12.5 0l-11 -11l-11 11q-6 6 -12 0t0 -12zM51 192v32q0 12 -10 18q-3 1 -5 1h-2h-1h-2t-3 -1h-1q-10 -5 -10 -16v-153h34v59v17v43zM495 73v153q0 11 -10 16h-1q-2 1 -3 1h-2h-1h-2t-5 -1q-10 -6 -10 -18v-32v-43v-17v-59h34zM188 167v179q15 8 32 8h72
q17 0 32 -8v-179q-5 2 -9 5q-3 3 -6 3h-106q-3 0 -6 -3q-4 -3 -9 -5zM233 288l11 -11l-11 -11q-6 -6 0 -12q2 -2 5.5 -2t6.5 2l11 11l11 -11q3 -2 6.5 -2t5.5 2q6 6 0 12l-11 11l11 11q6 6 0 12t-12 0l-11 -11l-11 11q-6 6 -12 0t0 -12z" />
  </g>

</svg>
