<?xml version="1.0" standalone="no"?>
<!DOCTYPE svg PUBLIC "-//W3C//DTD SVG 1.1//EN" "http://www.w3.org/Graphics/SVG/1.1/DTD/svg11.dtd" >
<svg xmlns="http://www.w3.org/2000/svg" xmlns:xlink="http://www.w3.org/1999/xlink" version="1.1" viewBox="-10 0 522 512">
  <g transform="matrix(1 0 0 -1 0 448)">
   <path fill="currentColor"
d="M179 311.5q0 8.5 8.5 8.5t8.5 -8.5t-8.5 -8.5t-8.5 8.5zM179 337.5q0 8.5 8.5 8.5t8.5 -8.5t-8.5 -8.5t-8.5 8.5zM179 362.5q0 8.5 8.5 8.5t8.5 -8.5t-8.5 -8.5t-8.5 8.5zM179 388.5q0 8.5 8.5 8.5t8.5 -8.5t-8.5 -8.5t-8.5 8.5zM179 285.5q0 8.5 8.5 8.5t8.5 -8.5
t-8.5 -8.5t-8.5 8.5zM179 260.5q0 8.5 8.5 8.5t8.5 -8.5t-8.5 -8.5t-8.5 8.5zM179 234.5q0 8.5 8.5 8.5t8.5 -8.5t-8.5 -8.5t-8.5 8.5zM179 209.5q0 8.5 8.5 8.5t8.5 -8.5t-8.5 -8.5t-8.5 8.5zM179 183.5q0 8.5 8.5 8.5t8.5 -8.5t-8.5 -8.5t-8.5 8.5zM179 157.5
q0 8.5 8.5 8.5t8.5 -8.5t-8.5 -8.5t-8.5 8.5zM247 311.5q0 8.5 9 8.5t9 -8.5t-9 -8.5t-9 8.5zM247 337.5q0 8.5 9 8.5t9 -8.5t-9 -8.5t-9 8.5zM247 362.5q0 8.5 9 8.5t9 -8.5t-9 -8.5t-9 8.5zM247 388.5q0 8.5 9 8.5t9 -8.5t-9 -8.5t-9 8.5zM247 285.5q0 8.5 9 8.5t9 -8.5
t-9 -8.5t-9 8.5zM247 260.5q0 8.5 9 8.5t9 -8.5t-9 -8.5t-9 8.5zM247 234.5q0 8.5 9 8.5t9 -8.5t-9 -8.5t-9 8.5zM247 209.5q0 8.5 9 8.5t9 -8.5t-9 -8.5t-9 8.5zM247 183.5q0 8.5 9 8.5t9 -8.5t-9 -8.5t-9 8.5zM247 157.5q0 8.5 9 8.5t9 -8.5t-9 -8.5t-9 8.5zM316 311.5
q0 8.5 8.5 8.5t8.5 -8.5t-8.5 -8.5t-8.5 8.5zM316 337.5q0 8.5 8.5 8.5t8.5 -8.5t-8.5 -8.5t-8.5 8.5zM316 362.5q0 8.5 8.5 8.5t8.5 -8.5t-8.5 -8.5t-8.5 8.5zM316 388.5q0 8.5 8.5 8.5t8.5 -8.5t-8.5 -8.5t-8.5 8.5zM316 285.5q0 8.5 8.5 8.5t8.5 -8.5t-8.5 -8.5t-8.5 8.5
zM316 260.5q0 8.5 8.5 8.5t8.5 -8.5t-8.5 -8.5t-8.5 8.5zM316 234.5q0 8.5 8.5 8.5t8.5 -8.5t-8.5 -8.5t-8.5 8.5zM316 209.5q0 8.5 8.5 8.5t8.5 -8.5t-8.5 -8.5t-8.5 8.5zM316 183.5q0 8.5 8.5 8.5t8.5 -8.5t-8.5 -8.5t-8.5 8.5zM316 157.5q0 8.5 8.5 8.5t8.5 -8.5
t-8.5 -8.5t-8.5 8.5zM367 149q17 -3 17 -21v-20q0 -25 -18 -43t-43 -18h-134q-25 0 -43 18t-18 43v20q0 18 17 21v282h17v8q0 9 8.5 9t8.5 -9v-8h17v8q0 9 8.5 9t8.5 -9v-8h17v8q0 9 8.5 9t8.5 -9v-8h18v8q0 9 8.5 9t8.5 -9v-8h17v8q0 9 8.5 9t8.5 -9v-8h17v8q0 9 8.5 9
t8.5 -9v-8h17v-282zM299 414v-265h25h26v265h-51zM230 414v-265h26h26v265h-52zM162 414v-265h26h25v265h-51zM179 13v25h154v-25h-154zM179 -30v26h154v-26h-22l-25 -34h-60l-25 34h-22zM277 -47l13 17h-68l13 -17h42z" />
  </g>

</svg>
