<?xml version="1.0" standalone="no"?>
<!DOCTYPE svg PUBLIC "-//W3C//DTD SVG 1.1//EN" "http://www.w3.org/Graphics/SVG/1.1/DTD/svg11.dtd" >
<svg xmlns="http://www.w3.org/2000/svg" xmlns:xlink="http://www.w3.org/1999/xlink" version="1.1" viewBox="-10 0 532 512">
  <g transform="matrix(1 0 0 -1 0 448)">
   <path fill="currentColor"
d="M486 275q11 0 18.5 -7.5t7.5 -18t-7.5 -18t-18.5 -7.5h-196v-119h-8v-17h17v-9q0 -28 20 -48t48 -20v0h34q9 0 9 -8.5t-9 -8.5h-34h-222h-34q-9 0 -9 8.5t9 8.5h34q28 0 48 20t20 48v9h17v17h-8v119h-196q-11 0 -18.5 7.5t-7.5 18t7.5 18t18.5 7.5h120q-35 17 -35 40
q0 9 6 18q11 17 33 17q5 0 10 -2q13 30 45 30q19 0 33 -13q11 7 24 7q20 0 33 -16q9 5 18 5q14 0 24.5 -9.5t11.5 -23.5q1 1 3 1t3 1l8 2l2 -8q2 -5 2 -9q0 -23 -35 -40h61v60h59v-8h9q10 0 17.5 -7.5t7.5 -18.5t-7.5 -18.5t-17.5 -7.5h25zM461 309h-9v-17h9q8 0 8 8.5
t-8 8.5zM410 318v-43h25v43h-25zM303 341v-1v-1q0 -1 1 -2v-7.5v-7.5v0q8 0 15 1q1 0 2 0.5t2 0.5q4 0 10 1q-1 8 -6.5 13.5t-13.5 5.5q-6 0 -10 -3zM262 355q-8 0 -14 -4v-1q1 -1 2 -3v-2q1 -1 2 -3v-1v-1q0 -1 1 -4v-1v-6v-7h6q7 -1 8 -1h8h9h0.5h1.5v1v1q1 4 1 6.5v5.5
l-1 1q0 2 -1 4q-7 15 -23 15zM205 361q-21 0 -29 -19l2 -2q4 -1 7.5 -2.5t5.5 -2.5q3 -1 8 -2q5 -2 6 -2l9 -3q1 0 2.5 -0.5t2.5 -0.5q8 -1 16 -3h1v5v6q-1 0 -1 2t-1 3q0 2 -1 3q0 1 -1.5 2.5l-1.5 1.5q-9 14 -25 14zM128 315q0 -15 32.5 -27.5t78.5 -12.5q42 0 73.5 11
t36.5 25h-1v-1l-6 -1l-6 -1h-2h-2q-8 -2 -15 -2q-1 0 -2 -0.5l-1 -0.5q-6 0 -13 -1h-5h-4h-1h-15h-14q-1 0 -2.5 0.5l-1.5 0.5h-11l-6 1l-11 2v0q-6 1 -13 2q-1 0 -5 1q-5 1 -9 2q-3 1 -4 2q-6 1 -12 3l-0.5 0.5t-1.5 0.5q-5 2 -9 4q-2 1 -3 1q-6 3 -11 5q-6 4 -12 4
q-13 0 -19 -10q-3 -4 -3 -8zM422 343q-13 5 -13 15.5t13 15.5q-8 3 -5 11q4 8 12 5q13 -6 13 -16t-13 -15q7 -4 4 -11q-2 -6 -8 -6q-1 0 -3 1z" />
  </g>

</svg>
