<?xml version="1.0" standalone="no"?>
<!DOCTYPE svg PUBLIC "-//W3C//DTD SVG 1.1//EN" "http://www.w3.org/Graphics/SVG/1.1/DTD/svg11.dtd" >
<svg xmlns="http://www.w3.org/2000/svg" xmlns:xlink="http://www.w3.org/1999/xlink" version="1.1" viewBox="-10 0 532 512">
  <g transform="matrix(1 0 0 -1 0 448)">
   <path fill="currentColor"
d="M495 256q17 -10 17 -30v-171h-9v-25h-51v25h-8h-376h-8v-25h-51v25h-9v171q0 20 17 30v49q0 21 14.5 35t34.5 14h380q20 0 34.5 -14t14.5 -35v-49zM51 209v17q0 7 -5 12t-12 5h-3q-1 0 -3 -1h-1q-10 -5 -10 -16v-153h34v76v17v43zM409.5 294q-8.5 0 -8.5 -8.5t8.5 -8.5
t8.5 8.5t-8.5 8.5zM384 260q-9 0 -9 -8.5t9 -8.5t9 8.5t-9 8.5zM358.5 294q-8.5 0 -8.5 -8.5t8.5 -8.5t8.5 8.5t-8.5 8.5zM332.5 260q-8.5 0 -8.5 -8.5t8.5 -8.5t8.5 8.5t-8.5 8.5zM307.5 294q-8.5 0 -8.5 -8.5t8.5 -8.5t8.5 8.5t-8.5 8.5zM281.5 260q-8.5 0 -8.5 -8.5
t8.5 -8.5t8.5 8.5t-8.5 8.5zM256 294q-9 0 -9 -8.5t9 -8.5t9 8.5t-9 8.5zM230.5 260q-8.5 0 -8.5 -8.5t8.5 -8.5t8.5 8.5t-8.5 8.5zM204.5 294q-8.5 0 -8.5 -8.5t8.5 -8.5t8.5 8.5t-8.5 8.5zM179.5 260q-8.5 0 -8.5 -8.5t8.5 -8.5t8.5 8.5t-8.5 8.5zM153.5 294
q-8.5 0 -8.5 -8.5t8.5 -8.5t8.5 8.5t-8.5 8.5zM128 260q-9 0 -9 -8.5t9 -8.5t9 8.5t-9 8.5zM102.5 294q-8.5 0 -8.5 -8.5t8.5 -8.5t8.5 8.5t-8.5 8.5zM68 192v-26h376v26h-376zM85.5 64q8.5 0 8.5 8.5t-8.5 8.5t-8.5 -8.5t8.5 -8.5zM85.5 115q8.5 0 8.5 8.5t-8.5 8.5
t-8.5 -8.5t8.5 -8.5zM110.5 90q8.5 0 8.5 8.5t-8.5 8.5t-8.5 -8.5t8.5 -8.5zM110.5 141q8.5 0 8.5 8.5t-8.5 8.5t-8.5 -8.5t8.5 -8.5zM136.5 64q8.5 0 8.5 8.5t-8.5 8.5t-8.5 -8.5t8.5 -8.5zM136.5 115q8.5 0 8.5 8.5t-8.5 8.5t-8.5 -8.5t8.5 -8.5zM162.5 90q8.5 0 8.5 8.5
t-8.5 8.5t-8.5 -8.5t8.5 -8.5zM162.5 141q8.5 0 8.5 8.5t-8.5 8.5t-8.5 -8.5t8.5 -8.5zM187.5 64q8.5 0 8.5 8.5t-8.5 8.5t-8.5 -8.5t8.5 -8.5zM187.5 115q8.5 0 8.5 8.5t-8.5 8.5t-8.5 -8.5t8.5 -8.5zM213.5 90q8.5 0 8.5 8.5t-8.5 8.5t-8.5 -8.5t8.5 -8.5zM213.5 141
q8.5 0 8.5 8.5t-8.5 8.5t-8.5 -8.5t8.5 -8.5zM238.5 64q8.5 0 8.5 8.5t-8.5 8.5t-8.5 -8.5t8.5 -8.5zM238.5 115q8.5 0 8.5 8.5t-8.5 8.5t-8.5 -8.5t8.5 -8.5zM264.5 90q8.5 0 8.5 8.5t-8.5 8.5t-8.5 -8.5t8.5 -8.5zM264.5 141q8.5 0 8.5 8.5t-8.5 8.5t-8.5 -8.5t8.5 -8.5z
M290.5 64q8.5 0 8.5 8.5t-8.5 8.5t-8.5 -8.5t8.5 -8.5zM290.5 115q8.5 0 8.5 8.5t-8.5 8.5t-8.5 -8.5t8.5 -8.5zM315.5 90q8.5 0 8.5 8.5t-8.5 8.5t-8.5 -8.5t8.5 -8.5zM315.5 141q8.5 0 8.5 8.5t-8.5 8.5t-8.5 -8.5t8.5 -8.5zM341.5 64q8.5 0 8.5 8.5t-8.5 8.5t-8.5 -8.5
t8.5 -8.5zM341.5 115q8.5 0 8.5 8.5t-8.5 8.5t-8.5 -8.5t8.5 -8.5zM366.5 90q8.5 0 8.5 8.5t-8.5 8.5t-8.5 -8.5t8.5 -8.5zM366.5 141q8.5 0 8.5 8.5t-8.5 8.5t-8.5 -8.5t8.5 -8.5zM392.5 64q8.5 0 8.5 8.5t-8.5 8.5t-8.5 -8.5t8.5 -8.5zM392.5 115q8.5 0 8.5 8.5t-8.5 8.5
t-8.5 -8.5t8.5 -8.5zM418.5 90q8.5 0 8.5 8.5t-8.5 8.5t-8.5 -8.5t8.5 -8.5zM418.5 141q8.5 0 8.5 8.5t-8.5 8.5t-8.5 -8.5t8.5 -8.5zM443.5 64q8.5 0 8.5 8.5t-8.5 8.5t-8.5 -8.5t8.5 -8.5zM443.5 115q8.5 0 8.5 8.5t-8.5 8.5t-8.5 -8.5t8.5 -8.5zM495 73v153q0 11 -10 16
h-1q-2 1 -3 1h-3q-7 0 -12 -5t-5 -12v-17v-43v-17v-76h34z" />
  </g>

</svg>
