<?xml version="1.0" standalone="no"?>
<!DOCTYPE svg PUBLIC "-//W3C//DTD SVG 1.1//EN" "http://www.w3.org/Graphics/SVG/1.1/DTD/svg11.dtd" >
<svg xmlns="http://www.w3.org/2000/svg" xmlns:xlink="http://www.w3.org/1999/xlink" version="1.1" viewBox="-10 0 532 512">
  <g transform="matrix(1 0 0 -1 0 448)">
   <path fill="currentColor"
d="M495 256q17 -10 17 -30v-171h-9v-25h-51v25h-8h-376h-8v-25h-51v25h-9v171q0 20 17 30v26q0 30 21.5 51t51.5 21h48q23 0 41 -14q18 14 41 14h72q23 0 41 -14q18 14 41 14h48q30 0 51.5 -21t21.5 -51v-26zM51 192v32q0 12 -10 18q-3 1 -5 1h-2h-1h-2t-3 -1h-1
q-10 -5 -10 -16v-153h34v59v17v43zM324 294v-8q0 -9 8.5 -9t8.5 9v8q0 9 -8.5 9t-8.5 -9zM324 260v-8q0 -9 8.5 -9t8.5 9v8q0 9 -8.5 9t-8.5 -9zM324 226v-8q0 -9 8.5 -9t8.5 9v8q0 9 -8.5 9t-8.5 -9zM171 294v-8q0 -9 8.5 -9t8.5 9v8q0 9 -8.5 9t-8.5 -9zM171 260v-8
q0 -9 8.5 -9t8.5 9v8q0 9 -8.5 9t-8.5 -9zM171 226v-8q0 -9 8.5 -9t8.5 9v8q0 9 -8.5 9t-8.5 -9zM76.5 64q8.5 0 8.5 8.5t-8.5 8.5t-8.5 -8.5t8.5 -8.5zM76.5 115q8.5 0 8.5 8.5t-8.5 8.5t-8.5 -8.5t8.5 -8.5zM102.5 90q8.5 0 8.5 8.5t-8.5 8.5t-8.5 -8.5t8.5 -8.5zM128 64
q9 0 9 8.5t-9 8.5t-9 -8.5t9 -8.5zM128 115q9 0 9 8.5t-9 8.5t-9 -8.5t9 -8.5zM153.5 90q8.5 0 8.5 8.5t-8.5 8.5t-8.5 -8.5t8.5 -8.5zM179.5 64q8.5 0 8.5 8.5t-8.5 8.5t-8.5 -8.5t8.5 -8.5zM179.5 115q8.5 0 8.5 8.5t-8.5 8.5t-8.5 -8.5t8.5 -8.5zM204.5 90q8.5 0 8.5 8.5
t-8.5 8.5t-8.5 -8.5t8.5 -8.5zM230.5 64q8.5 0 8.5 8.5t-8.5 8.5t-8.5 -8.5t8.5 -8.5zM230.5 115q8.5 0 8.5 8.5t-8.5 8.5t-8.5 -8.5t8.5 -8.5zM256 90q9 0 9 8.5t-9 8.5t-9 -8.5t9 -8.5zM281.5 64q8.5 0 8.5 8.5t-8.5 8.5t-8.5 -8.5t8.5 -8.5zM281.5 115q8.5 0 8.5 8.5
t-8.5 8.5t-8.5 -8.5t8.5 -8.5zM307.5 90q8.5 0 8.5 8.5t-8.5 8.5t-8.5 -8.5t8.5 -8.5zM332.5 64q8.5 0 8.5 8.5t-8.5 8.5t-8.5 -8.5t8.5 -8.5zM332.5 115q8.5 0 8.5 8.5t-8.5 8.5t-8.5 -8.5t8.5 -8.5zM358.5 90q8.5 0 8.5 8.5t-8.5 8.5t-8.5 -8.5t8.5 -8.5zM384 64
q9 0 9 8.5t-9 8.5t-9 -8.5t9 -8.5zM384 115q9 0 9 8.5t-9 8.5t-9 -8.5t9 -8.5zM409.5 90q8.5 0 8.5 8.5t-8.5 8.5t-8.5 -8.5t8.5 -8.5zM435.5 64q8.5 0 8.5 8.5t-8.5 8.5t-8.5 -8.5t8.5 -8.5zM435.5 115q8.5 0 8.5 8.5t-8.5 8.5t-8.5 -8.5t8.5 -8.5zM444 149v26h-87
q-4 0 -6 -3q-7 -7 -18 -7t-18 7q-3 3 -6 3h-106q-3 0 -6 -3q-7 -7 -18 -7t-18 7q-2 3 -6 3h-87v-26h376zM495 73v153q0 11 -10 16h-1q-2 1 -3 1h-2h-1h-2t-5 -1q-10 -6 -10 -18v-32v-43v-17v-59h34z" />
  </g>

</svg>
