<?xml version="1.0" standalone="no"?>
<!DOCTYPE svg PUBLIC "-//W3C//DTD SVG 1.1//EN" "http://www.w3.org/Graphics/SVG/1.1/DTD/svg11.dtd" >
<svg xmlns="http://www.w3.org/2000/svg" xmlns:xlink="http://www.w3.org/1999/xlink" version="1.1" viewBox="-10 0 532 512">
  <g transform="matrix(1 0 0 -1 0 448)">
   <path fill="currentColor"
d="M0 448h512v-512h-43v17h-426v-17h-43v512zM495 -47v478h-478v-478h9v17h460v-17h9zM85 294v-8h-59v34h230v-34h-77v8q0 9 -8.5 9t-8.5 -9v-8h-8v8q0 9 -8.5 9t-8.5 -9v-8h-9v8q0 9 -8.5 9t-8.5 -9v-8h-9v8q0 9 -8.5 9t-8.5 -9zM256 269v-205h-230v205h59v-17q0 -9 8.5 -9
t8.5 9v17h9v-17q0 -9 8.5 -9t8.5 9v17h9v-17q0 -9 8.5 -9t8.5 9v17h8v-17q0 -9 8.5 -9t8.5 9v17h77zM26 -21v68h230v-68h-230zM26 337v85h230v-85h-230zM486 149v-68h-221v68h221zM393 107q8 0 8 8.5t-8 8.5h-35q-8 0 -8 -8.5t8 -8.5h35zM486 422v-85h-221v85h221zM393 363
q8 0 8 8.5t-8 8.5h-35q-8 0 -8 -8.5t8 -8.5h35zM486 235v-69h-221v69h221zM393 192q8 0 8 8.5t-8 8.5h-35q-8 0 -8 -8.5t8 -8.5h35zM486 320v-68h-221v68h221zM393 277q8 0 8 8.5t-8 8.5h-35q-8 0 -8 -8.5t8 -8.5h35zM486 64v-85h-221v85h221zM393 21q8 0 8 8.5t-8 8.5h-35
q-8 0 -8 -8.5t8 -8.5h35z" />
  </g>

</svg>
