<?xml version="1.0" standalone="no"?>
<!DOCTYPE svg PUBLIC "-//W3C//DTD SVG 1.1//EN" "http://www.w3.org/Graphics/SVG/1.1/DTD/svg11.dtd" >
<svg xmlns="http://www.w3.org/2000/svg" xmlns:xlink="http://www.w3.org/1999/xlink" version="1.1" viewBox="-10 0 522 512">
  <g transform="matrix(1 0 0 -1 0 448)">
   <path fill="currentColor"
d="M427 252q10 0 17.5 -7.5t7.5 -18t-7.5 -18t-17.5 -7.5v-9q0 -16 -10.5 -28t-26.5 -14q-8 -18 -27 -18h-52l17 -17h22q8 0 8 -8.5t-8 -8.5h-26q-1 0 -3 0.5t-3 2.5l-28 28v-22h-8v-26h-17v-17h17v-10l104 -24q0 -1 1 -1l1 -0.5t1.5 -1l1 -1l1 -1t0.5 -1.5v-2l1 -1v-9
q14 -1 24 -12t10 -26t-11.5 -26.5t-27.5 -11.5t-27 11.5t-11 26.5q0 27 25 36v5l-93 21v-3l20 -20h1q16 0 27 -11.5t11 -27t-11 -27t-27 -11.5t-27 11.5t-11 26.5q0 22 19 33l-14 14h-28l-14 -14q19 -11 19 -33q0 -15 -11 -26.5t-27 -11.5t-27 11.5t-11 27t11 27t27 11.5h1
l20 20v3l-93 -21v-5q25 -9 25 -36q0 -15 -11 -26.5t-27 -11.5t-27.5 11.5t-11.5 26.5t10 26t24 12v9l1 1v2t0.5 1.5l1 1l1 1t1.5 1l1 0.5q1 0 1 1l104 24v10h17v17h-17v26h-8v25h-73q-19 0 -27 18q-16 2 -26.5 14t-10.5 28v9q-10 0 -17.5 7.5t-7.5 18t7.5 18t17.5 7.5h17
q11 0 18.5 -7.5t7.5 -18t-7.5 -18t-18.5 -7.5v-9q0 -18 18 -24q4 21 25 24v162h-26v50q0 18 13 31t31 13h186q18 0 31 -13t13 -31v-50h-26v-162q21 -3 25 -24q18 6 18 24v9q-11 0 -18.5 7.5t-7.5 18t7.5 18t18.5 7.5h17zM316 354v-162h34v162h-34zM235 422q-9 0 -15.5 -6
t-6.5 -15t6.5 -15t15.5 -6h42q9 0 15.5 6t6.5 15t-6.5 15t-15.5 6h-42zM299 354h-34v-162h34v162zM213 354v-162h34v162h-34zM162 354v-162h34v162h-34zM363 149q5 0 8.5 4t3.5 9t-3.5 9t-8.5 4h-47h-17h-34h-18h-34h-17h-47q-5 0 -8.5 -4t-3.5 -9t3.5 -9t8.5 -4h73h68h73z
" />
  </g>

</svg>
