<?xml version="1.0" standalone="no"?>
<!DOCTYPE svg PUBLIC "-//W3C//DTD SVG 1.1//EN" "http://www.w3.org/Graphics/SVG/1.1/DTD/svg11.dtd" >
<svg xmlns="http://www.w3.org/2000/svg" xmlns:xlink="http://www.w3.org/1999/xlink" version="1.1" viewBox="-11 0 534 512">
  <g transform="matrix(1 0 0 -1 0 448)">
   <path fill="currentColor"
d="M188 269v25h-26v52h9h132l48 71q3 5 9 5h24v26h51v-17h34v-85h17h9v-52h-26v-25h-42v25h-197v-25h-42zM452 414h-17v-68h17v68zM401 431v-85h17v85h-17zM384 346v40l-27 -40h27zM363 405l-40 -59h14l40 59h-14zM504 137q11 -13 7 -29l-14 -98q-6 -21 -28 -23v-51h-40
l-17 51h-303l-17 -51h-41v51q-22 0 -30 21v1l-20 97q-4 16 6 30q8 10 19 12q3 33 27.5 55.5t57.5 22.5h109q14 0 27 -4v-13v-8q0 -9 9 -9t9 9v8v13q13 4 27 4h115q34 0 58.5 -23t26.5 -57q7 -3 12 -9zM335 153q-6 -12 0 -24l-8 -8q-6 -6 0 -12q2 -2 5.5 -2t6.5 2l8 8
q5 -3 11 -3t12 3l8 -8q2 -2 6 -2t6 2q6 6 0 12l-8 8q3 6 3 12t-3 12l8 7q6 6 0 12t-12 0l-8 -7q-12 5 -23 0l-8 7q-6 6 -12 0t0 -12zM247 175v-9q0 -8 9 -8t9 8v9q0 8 -9 8t-9 -8zM247 141v-9q0 -8 9 -8t9 8v9q0 8 -9 8t-9 -8zM247 107v-9q0 -8 9 -8t9 8v9q0 8 -9 8t-9 -8z
M130 153q-6 -12 0 -24l-8 -8q-6 -6 0 -12q3 -2 6.5 -2t5.5 2l8 8q6 -3 12 -3t11 3l8 -8q3 -2 6.5 -2t5.5 2q6 6 0 12l-8 8q3 6 3 12t-3 12l8 7q6 6 0 12t-12 0l-8 -7q-11 5 -23 0l-8 7q-6 6 -12 0t0 -12zM51 4h25l-11 102q-2 11 -10.5 18.5t-19.5 7.5q-9 0 -14.5 -6.5
t-2.5 -15.5l19 -97q4 -9 14 -9zM424 4l3 51h-162v9v9q0 8 -9 8t-9 -8v-9v-9h-158l5 -51h20h292h18zM494 111q2 9 -3 15t-13 6q-12 0 -21 -8t-10 -20l-6 -100h26q10 0 13 10z" />
  </g>

</svg>
