<?xml version="1.0" standalone="no"?>
<!DOCTYPE svg PUBLIC "-//W3C//DTD SVG 1.1//EN" "http://www.w3.org/Graphics/SVG/1.1/DTD/svg11.dtd" >
<svg xmlns="http://www.w3.org/2000/svg" xmlns:xlink="http://www.w3.org/1999/xlink" version="1.1" viewBox="-10 0 522 512">
  <g transform="matrix(1 0 0 -1 0 448)">
   <path fill="currentColor"
d="M380 329q-16 0 -27.5 11t-11.5 27t11.5 27t27.5 11q11 0 20 -6l-22 -22q-6 -6 0 -12q2 -2 6 -2t6 2l22 22q6 -9 6 -20q0 -16 -11 -27t-27 -11zM461 286h-162v-3l49 -50q17 -16 22.5 -39t-2.5 -45h67q9 0 9 -8v-9q0 -44 -23 -80.5t-61 -55.5h79q13 0 21.5 -9t8.5 -21
t-8.5 -21t-21.5 -9h-388q-8 0 -8 9v469q0 14 10 24t24 10h358q14 0 24 -10t10 -24v-120q0 -8 -8 -8zM380 422q-23 0 -39.5 -16t-16.5 -39t16.5 -39.5t39.5 -16.5t39 16.5t16 39.5t-16 39v0q-16 16 -39 16zM314 151q10 10 10 24t-10 24l-15 15v-65h13zM268 149h14v65l-16 -15
q-10 -10 -10 -24t10 -24zM244 221q-14 -14 -18 -33.5t4 -38.5h17q-9 15 -7 32t14 30l28 27v5v16zM188 397v-34q0 -9 8 -9h34q9 0 9 9v34q0 8 -9 8h-34q-8 0 -8 -8zM196 337q-8 0 -8 -8.5t8 -8.5h34q9 0 9 8.5t-9 8.5h-34zM119 397v-34q0 -9 9 -9h34q9 0 9 9v34q0 8 -9 8h-34
q-9 0 -9 -8zM128 337q-9 0 -9 -8.5t9 -8.5h34q9 0 9 8.5t-9 8.5h-34zM111 28q0 -14 9.5 -23t22.5 -9h77q-38 19 -60.5 55.5t-22.5 80.5v9q0 8 8 8h67q-7 22 -2 45t22 39l50 50v3h-139q-13 0 -22.5 -9.5t-9.5 -22.5v-226zM290.5 -4q56.5 0 96.5 40t40 96h-71h-41h-50h-40h-71
q0 -56 40 -96t96.5 -40zM336 221l-37 38v-16v-5l27 -27q12 -13 14 -30t-6 -32h16q8 19 4.5 38.5t-18.5 33.5z" />
  </g>

</svg>
