<?xml version="1.0" standalone="no"?>
<!DOCTYPE svg PUBLIC "-//W3C//DTD SVG 1.1//EN" "http://www.w3.org/Graphics/SVG/1.1/DTD/svg11.dtd" >
<svg xmlns="http://www.w3.org/2000/svg" xmlns:xlink="http://www.w3.org/1999/xlink" version="1.1" viewBox="-10 0 522 512">
  <g transform="matrix(1 0 0 -1 0 448)">
   <path fill="currentColor"
d="M249 339q-7 7 0 13q3 3 7 3t7 -3q7 -6 0 -13t-14 0zM435 243q11 0 18.5 -7.5t7.5 -18t-7.5 -18t-18.5 -7.5v-17q0 -15 -9.5 -27t-24.5 -15v-1h-90l17 -17h22q8 0 8 -8.5t-8 -8.5h-26q-1 0 -3 0.5t-3 2.5l-28 28v-22h-8v-26h-17v-17h17v-10l104 -24q0 -1 1 -1l1 -0.5
t1.5 -1l1 -1l1 -1t0.5 -1.5v-2l1 -1v-9q14 -1 24 -12t10 -26t-11.5 -26.5t-27.5 -11.5t-27 11.5t-11 26.5q0 27 25 36v5l-93 21v-3l20 -20h1q16 0 27 -11.5t11 -27t-11 -27t-27 -11.5t-27 11.5t-11 26.5q0 22 19 33l-14 14h-28l-14 -14q19 -11 19 -33q0 -15 -11 -26.5
t-27 -11.5t-27 11.5t-11 27t11 27t27 11.5h1l20 20v3l-93 -21v-5q25 -9 25 -36q0 -15 -11 -26.5t-27 -11.5t-27.5 11.5t-11.5 26.5t10 26t24 12v9l1 1v2t0.5 1.5l1 1l1 1t1.5 1l1 0.5q1 0 1 1l104 24v10h17v17h-17v26h-8v25h-111v1q-15 3 -24.5 15t-9.5 27v17
q-11 0 -18.5 7.5t-7.5 18t7.5 18t18.5 7.5h17q10 0 17.5 -7.5t7.5 -18t-7.5 -18t-17.5 -7.5v-17q0 -19 18 -24q4 14 15.5 23t26.5 9h41q-27 16 -42.5 43.5t-15.5 59.5v95q0 28 19.5 47.5t47.5 19.5h104q28 0 47.5 -19.5t19.5 -47.5v-95q0 -32 -15.5 -59.5t-42.5 -43.5h41
q15 0 26.5 -9t15.5 -23q18 5 18 24v17q-10 0 -17.5 7.5t-7.5 18t7.5 18t17.5 7.5h17zM232 357q-6 -11 0 -23l-8 -8q-6 -6 0 -12q3 -3 6.5 -3t5.5 3l8 8q6 -3 12 -3t12 3l8 -8q2 -3 5.5 -3t6.5 3q6 6 0 12l-8 8q6 12 0 23l8 8q6 6 0 12t-12 0l-8 -8q-12 6 -24 0l-8 8
q-6 6 -12 0t0 -12zM290 149h93q-7 17 -25 17h-204q-18 0 -25 -17h93h68z" />
  </g>

</svg>
