<?xml version="1.0" standalone="no"?>
<!DOCTYPE svg PUBLIC "-//W3C//DTD SVG 1.1//EN" "http://www.w3.org/Graphics/SVG/1.1/DTD/svg11.dtd" >
<svg xmlns="http://www.w3.org/2000/svg" xmlns:xlink="http://www.w3.org/1999/xlink" version="1.1" viewBox="-10 0 522 512">
  <g transform="matrix(1 0 0 -1 0 448)">
   <path fill="currentColor"
d="M256 448q27 0 54.5 -34.5t46 -95t18.5 -126.5q0 -39 -27 -106q-12 -30 -15 -44v-21h-154v21q-3 14 -15 44q-27 67 -27 106q0 66 18.5 126.5t46 95t54.5 34.5zM299 55h17v231h-9v8q0 9 -8.5 9t-8.5 -9v-8h-8v8q0 9 -8.5 9t-8.5 -9v-8h-18v8q0 9 -8.5 9t-8.5 -9v-8h-8v8
q0 9 -8.5 9t-8.5 -9v-8h-9v-231h17v214h34v-214h18v214h34v-214zM281.5 235q-8.5 0 -8.5 -8.5t8.5 -8.5t8.5 8.5t-8.5 8.5zM273 251.5q0 -8.5 8.5 -8.5t8.5 8.5t-8.5 8.5t-8.5 -8.5zM281.5 209q-8.5 0 -8.5 -8.5t8.5 -8.5t8.5 8.5t-8.5 8.5zM281.5 183q-8.5 0 -8.5 -8.5
t8.5 -8.5t8.5 8.5t-8.5 8.5zM281.5 158q-8.5 0 -8.5 -8.5t8.5 -8.5t8.5 8.5t-8.5 8.5zM281.5 132q-8.5 0 -8.5 -8.5t8.5 -8.5t8.5 8.5t-8.5 8.5zM281.5 107q-8.5 0 -8.5 -8.5t8.5 -8.5t8.5 8.5t-8.5 8.5zM281.5 81q-8.5 0 -8.5 -8.5t8.5 -8.5t8.5 8.5t-8.5 8.5zM230.5 235
q-8.5 0 -8.5 -8.5t8.5 -8.5t8.5 8.5t-8.5 8.5zM222 251.5q0 -8.5 8.5 -8.5t8.5 8.5t-8.5 8.5t-8.5 -8.5zM230.5 209q-8.5 0 -8.5 -8.5t8.5 -8.5t8.5 8.5t-8.5 8.5zM230.5 183q-8.5 0 -8.5 -8.5t8.5 -8.5t8.5 8.5t-8.5 8.5zM230.5 158q-8.5 0 -8.5 -8.5t8.5 -8.5t8.5 8.5
t-8.5 8.5zM230.5 132q-8.5 0 -8.5 -8.5t8.5 -8.5t8.5 8.5t-8.5 8.5zM230.5 107q-8.5 0 -8.5 -8.5t8.5 -8.5t8.5 8.5t-8.5 8.5zM230.5 81q-8.5 0 -8.5 -8.5t8.5 -8.5t8.5 8.5t-8.5 8.5zM179 -30v34h154v-34h-22l-25 -34h-60l-25 34h-22zM277 -47l13 17h-68l13 -17h42z" />
  </g>

</svg>
