<?xml version="1.0" standalone="no"?>
<!DOCTYPE svg PUBLIC "-//W3C//DTD SVG 1.1//EN" "http://www.w3.org/Graphics/SVG/1.1/DTD/svg11.dtd" >
<svg xmlns="http://www.w3.org/2000/svg" xmlns:xlink="http://www.w3.org/1999/xlink" version="1.1" viewBox="-10 0 522 512">
  <g transform="matrix(1 0 0 -1 0 448)">
   <path fill="currentColor"
d="M473.5 73q-8.5 0 -8.5 8v171q-4 -4 -8 -6v-242h5q15 0 26 -11t11 -26v-31h-486v31q0 14 10 25t24 12v248q-34 25 -34 67v84q0 19 13 32t32 13h396q19 0 32 -13t13 -32v-84q0 -28 -17 -50v-188q0 -8 -8.5 -8zM439 4v234q-4 -1 -11 -2h-2q-6 -1 -11 -1h-95v-17h60
q10 0 17.5 -7.5t7.5 -18.5t-7.5 -18.5t-17.5 -7.5h-61q-3 -11 -12 -18t-21 -7h-9v-9q0 -8 -8.5 -8t-8.5 8v9h-17v-9q0 -8 -8.5 -8t-8.5 8v9h-8q-15 0 -25 10t-10 24v60h-86q-8 0 -17 1v1q-4 0 -8 2h-0.5h-1.5l-6 2v1v-238h122q-9 11 -11 26h-26q-17 0 -29.5 12.5t-12.5 30
t12.5 30t29.5 12.5h26h17h137v-81q0 -17 -11 -30h121zM149 47h26v51h-26q-10 0 -17.5 -7.5t-7.5 -18t7.5 -18t17.5 -7.5zM447 260q35 19 35 59v84q0 12 -8 20t-20 8h-396q-12 0 -20 -8t-8 -20v-84q0 -36 31 -56q3 -2 7 -4q1 -1 2 -1q4 -2 8 -3l1 -1q3 -1 7 -1q2 -1 3 -1h8
h86h137h95h7h0.5h1.5q3 1 5 1q1 0 1.5 0.5l0.5 0.5l6 2h1q3 1 6 3l1 0.5t2 0.5zM414 422q18 0 30.5 -12.5t12.5 -30t-12.5 -30t-30.5 -12.5t-30.5 12.5t-12.5 30t12.5 30t30.5 12.5zM414 329q14 0 24 -10t10 -24.5t-10 -24.5t-24 -10t-24 10t-10 24.5t10 24.5t24 10zM64 354
v60h68v-60h-68zM64 269v60h68v-60h-68zM149 269v145h205v-145h-205zM177 369q-6 -6 0 -12q3 -3 6.5 -3t6.5 3l17 17q6 6 0 12t-13 0zM177 326q-6 -6 0 -12q3 -3 6.5 -3t6.5 3l59 60q6 6 0 12t-12 0z" />
  </g>

</svg>
