<?xml version="1.0" standalone="no"?>
<!DOCTYPE svg PUBLIC "-//W3C//DTD SVG 1.1//EN" "http://www.w3.org/Graphics/SVG/1.1/DTD/svg11.dtd" >
<svg xmlns="http://www.w3.org/2000/svg" xmlns:xlink="http://www.w3.org/1999/xlink" version="1.1" viewBox="-10 0 532 512">
  <g transform="matrix(1 0 0 -1 0 448)">
   <path fill="currentColor"
d="M94 448h324v-171h-324v171zM401 294v137h-290v-137h290zM393 422v-119h-274v119h274zM364 340q6 6 0 12l-25 25q-6 6 -12 0l-20 -19l-19 19q-6 6 -12 0l-20 -19l-20 19q-6 6 -12 0l-19 -19l-20 19q-6 6 -12 0l-25 -25q-6 -6 0 -12q2 -3 5.5 -3t6.5 3l19 19l20 -19
q2 -3 5.5 -3t6.5 3l19 19l20 -19q2 -3 6 -3t6 3l20 19l19 -19q3 -3 6.5 -3t5.5 3l20 19l19 -19q3 -3 6.5 -3t5.5 3zM512 94q0 -24 -20 -38q3 -9 3 -18q0 -21 -15 -36t-36 -15v-25h-17v-17q0 -9 -8.5 -9t-8.5 9v17h-17v25h-274v-25h-17v-17q0 -9 -8.5 -9t-8.5 9v17h-17v25
q-21 0 -36 15t-15 36q0 9 3 18q-20 14 -20 38q0 19 14 33t33 14q6 0 13 -2v21q0 35 24 59t59 24h226q35 0 59 -24t24 -59v-21q7 2 13 2q19 0 33 -14t14 -33zM335 169l11 -11l-11 -11q-6 -6 0 -12q3 -3 6.5 -3t5.5 3l17 17q3 2 3 6q0 -4 2 -6l17 -17q3 -3 6.5 -3t6.5 3
q6 6 0 12l-11 11l11 11q6 6 0 12t-13 0l-17 -17q-2 -3 -2 -6q0 3 -3 6l-17 17q-6 6 -12 0t0 -12zM224 152l11 -11l-11 -11q-6 -6 0 -12q3 -3 6.5 -3t5.5 3l18 17q2 2 2 6q0 -4 2 -6l18 -17q2 -3 5.5 -3t6.5 3q6 6 0 12l-11 11l11 11q6 6 0 12t-12 0l-18 -17q-2 -3 -2 -6
q0 3 -2 6l-18 17q-6 6 -12 0t0 -12zM113 169l11 -11l-11 -11q-6 -6 0 -12q3 -3 6.5 -3t6.5 3l17 17q2 2 2 6q0 -4 3 -6l17 -17q2 -3 5.5 -3t6.5 3q6 6 0 12l-11 11l11 11q6 6 0 12t-12 0l-17 -17q-3 -3 -3 -6q0 3 -2 6l-17 17q-7 6 -13 0t0 -12zM28 71q12 13 29 17q2 1 5 1
h1q3 1 5 1h8q1 2 1 4q0 3 -1 7v1q-1 0 -1 1q0 2 -1 4q-1 1 -1 2q-2 2 -3 4l-1 1l-5 5q-8 5 -17 5q-12 0 -21 -9t-9 -21q0 -14 11 -23zM444 4q14 0 24 10t10 24q0 7 -3 14l-2 3q-4 8 -12 13l-6 2q-2 1 -3 2h-2q-4 1 -6 1h-3h-18h-334h-18h-3q-2 0 -6 -1h-2q-1 -1 -3 -2l-6 -2
q-8 -5 -12 -13l-2 -3q-3 -7 -3 -14q0 -14 10 -24t24 -10h51h274h51zM484 71q11 9 11 23q0 12 -9 21t-21 9q-9 0 -17 -5l-5 -5l-1 -1q-1 -2 -3 -4q0 -1 -1 -2q-1 -2 -1 -4q0 -1 -0.5 -1.5l-0.5 -0.5q-1 -4 -1 -7q0 -2 1 -4h8q2 0 5 -1h1q3 0 5 -1q17 -4 29 -17z" />
  </g>

</svg>
