<?xml version="1.0" standalone="no"?>
<!DOCTYPE svg PUBLIC "-//W3C//DTD SVG 1.1//EN" "http://www.w3.org/Graphics/SVG/1.1/DTD/svg11.dtd" >
<svg xmlns="http://www.w3.org/2000/svg" xmlns:xlink="http://www.w3.org/1999/xlink" version="1.1" viewBox="-10 0 532 512">
  <g transform="matrix(1 0 0 -1 0 448)">
   <path fill="currentColor"
d="M499.5 446.5q12.5 -5.5 12.5 -19.5v-278q0 -19 -19 -24l-30 -109q-10 -35 -45 -44v-27q0 -9 -8 -9h-26q-5 0 -8 5l-14 29h-212l-14 -29q-3 -5 -8 -5h-26q-8 0 -8 9v27q-35 9 -45 44l-30 109q-19 5 -19 24q0 11 7.5 18.5t18.5 7.5h51v213q0 9 8 9h9v17h-51q-9 0 -9 8.5
t9 8.5h51v8q0 9 8.5 9t8.5 -9v-8h8v8q0 9 9 9t9 -9v-8h8v8q0 9 8.5 9t8.5 -9v-8h9v8q0 9 8.5 9t8.5 -9v-8h8v8q0 9 8.5 9t8.5 -9v-8h9v8q0 9 8.5 9t8.5 -9v-8h8v8q0 9 9 9t9 -9v-8h51q8 0 8 -8.5t-8 -8.5h-51v-17h8q9 0 9 -9v-213h204q5 0 9 -2v254q0 3 -2 4t-4 -1l-22 -22
q11 -15 10 -33.5t-14 -31.5q-3 -2 -6.5 -2t-5.5 2l-61 61q-6 6 0 12q15 14 35 14q16 0 30 -10l22 22q10 10 22.5 4.5zM128 354q0 9 -8.5 9t-8.5 -9v-94q0 -8 8.5 -8t8.5 8v94zM153.5 311q-8.5 0 -8.5 -8v-102q0 -9 8.5 -9t8.5 9v102q0 8 -8.5 8zM179 337v-111q0 -8 8.5 -8
t8.5 8v111q0 9 -8.5 9t-8.5 -9zM230.5 286q-8.5 0 -8.5 -9v-94q0 -8 8.5 -8t8.5 8v94q0 9 -8.5 9zM247 414h-8v-17h8v17zM222 414h-9v-17h9v17zM196 414h-8v-17h8v17zM171 414h-9v-17h9v17zM145 414h-8v-17h8v17zM111 414v-17h8v17h-8zM446 20l29 104h-193v-51v-9h-9h-188
h-8v9v51h-40l29 -104q4 -14 16 -23.5t27 -9.5h36h222h36q15 0 27 9.5t16 23.5z" />
  </g>

</svg>
