<?xml version="1.0" standalone="no"?>
<!DOCTYPE svg PUBLIC "-//W3C//DTD SVG 1.1//EN" "http://www.w3.org/Graphics/SVG/1.1/DTD/svg11.dtd" >
<svg xmlns="http://www.w3.org/2000/svg" xmlns:xlink="http://www.w3.org/1999/xlink" version="1.1" viewBox="-10 0 532 512">
  <g transform="matrix(1 0 0 -1 0 448)">
   <path fill="currentColor"
d="M503 -47q9 0 9 -8.5t-9 -8.5h-59h-51h-384q-9 0 -9 8.5t9 8.5h375v34q0 9 9 9h17v222h-16q-8 0 -13.5 -5.5t-5.5 -13.5q12 -3 19 -12t7 -21q0 -14 -10 -24t-24 -10t-24 10t-10 24q0 12 7 21t18 12q0 15 10.5 25.5t25.5 10.5h16v192q0 3 -2.5 4t-3.5 -1l-23 -22
q12 -15 10.5 -33.5t-14.5 -31.5q-2 -2 -5.5 -2t-6.5 2l-60 61q-6 6 0 12q14 14 35 14q16 0 29 -10l23 22q9 10 22 4.5t13 -19.5v-192h15q15 0 25.5 -10.5t10.5 -25.5q11 -3 18 -12t7 -21q0 -14 -10 -24t-24 -10t-24 10t-10 24q0 12 7.5 21t18.5 12q0 8 -5.5 13.5t-13.5 5.5
h-15v-222h17q8 0 8 -9v-34h51zM85 252q-8 0 -8 8v51q0 9 8 9h52q8 0 8 -9v-51q0 -8 -8 -8h-52zM188 158q-9 0 -9 8v52q0 8 9 8h51q8 0 8 -8v-52q0 -8 -8 -8h-51zM60 64q-9 0 -9 9v51q0 8 9 8h51q8 0 8 -8v-51q0 -9 -8 -9h-51z" />
  </g>

</svg>
