<?xml version="1.0" standalone="no"?>
<!DOCTYPE svg PUBLIC "-//W3C//DTD SVG 1.1//EN" "http://www.w3.org/Graphics/SVG/1.1/DTD/svg11.dtd" >
<svg xmlns="http://www.w3.org/2000/svg" xmlns:xlink="http://www.w3.org/1999/xlink" version="1.1" viewBox="-10 0 532 512">
  <g transform="matrix(1 0 0 -1 0 448)">
   <path fill="currentColor"
d="M512 254q0 -13 -7 -24v-7q0 -20 -12.5 -35t-31.5 -18q-3 -13 -13.5 -21t-24.5 -8q-24 0 -35 21q-16 1 -28.5 12t-16.5 27h-48q-13 0 -21.5 -9t-8.5 -22q0 -12 8.5 -20.5t20.5 -8.5h77q23 0 39.5 -16.5t16.5 -39.5v-12h51v-52h-17v-17q0 -18 -12.5 -30t-29.5 -12h-9v-26
h-69v26h-170v-26h-69v26h-9q-17 0 -29.5 12t-12.5 30v17h-17v52h51v12q0 16 9 30q-14 0 -24 10t-10 24v84q-9 6 -13 14q-20 2 -33.5 16.5t-13.5 33.5q0 32 28 46q-1 11 2 21q8 26 34 32q29 6 47 -16q23 9 42 -6q10 6 22 6q13 0 23 -7q-7 5 -12 12q-15 22 0 45q12 18 34 18
q17 0 29 -12q2 -3 5 -6q9 6 20 6q17 0 29 -12q3 -4 6 -9q11 7 24 7q21 0 34 -17q0 18 12.5 30.5t30.5 12.5q28 0 39 -26q22 2 38 -13.5t16 -37.5q0 -27 -22 -42q14 -14 14 -35v-5q17 -13 17 -35zM200 420q-8 -13 0 -25q5 -7 12 -10l5 -2l2 -8l-2 -4q-4 -4 -5 -9h1q2 1 5 1
q15 0 26.5 -10t11.5 -24q0 -15 -12 -26q-1 0 -2 -1q12 -9 25 -3q3 1 7 2h7l2 -7q0 -2 2 -5l1 -3l1 -1q1 -1 2 -3q1 -1 1 -2q1 0 2 -2q1 -1 2 -1.5t2 -1.5t2.5 -1.5t2.5 -1.5q1 0 2.5 -0.5l1.5 -0.5q2 -1 4 -1l0.5 -0.5l0.5 -0.5h6t7 1v0q3 0 6 2h1q3 2 6 3q0 1 0.5 1h0.5
q2 2 4 5h1q-1 2 -1 5v3q-8 -3 -17 -3q-21 0 -36 15t-15 36q0 23 17 38v5q0 3 1 7v2l2 6q1 1 1 3q2 3 2 4q-1 5 -6 10q-6 6 -16 6t-17 -6l-10 -10l-5 13q-1 5 -5 9q-7 7 -17 7q-13 0 -20 -11zM145 183h26v41q-14 -6 -30 -6q-6 0 -13 1v-18q0 -8 5 -13t12 -5zM77 149
q0 -7 5 -12t12 -5h18q0 1 1 1q2 1 5 3h1l6 2q1 1 1.5 1h0.5q3 1 5 1h2q4 1 7 1h6l1 0.5l1 0.5q2 1 3 1l2 1t3 2l2 1t2 2q1 0 2 1.5t2 2.5t1.5 2l1.5 3q0 1 0.5 2l1.5 3v2v1h-25q-14 0 -24 10t-10 25v23l-1 1q-1 0 -2 1q-4 2 -7 5h-1q-2 -1 -5 -2q0 -1 -0.5 -1h-0.5
q-2 -1 -4 -1h-2q-2 -1 -4 -1h-0.5h-1h-0.5h-4h-1v-77zM247 170q0 20 14 34t34 14h47v0q0 4 1 8l0.5 0.5t0.5 1.5l2 6q1 1 1 2q2 2 4 5l0.5 0.5t0.5 1.5q2 3 5 6q-6 6 -10 13h-1q-2 -2 -5 -4h-1q-4 -2 -7 -3l-1 -1h-1q-3 -1 -6 -1q-1 -1 -2 -1h-7.5h-6.5q-1 0 -2 0.5l-1 0.5
q-3 0 -4 1q-1 0 -3.5 1t-3.5 1l-2.5 1.5t-3.5 2l-3 1.5q-1 1 -2.5 2t-2.5 3l-2 2q-2 1 -3 3l-2 2l-2 4v0h-25q0 -17 -11 -29.5t-27 -12.5q-8 0 -15 3h-1h-1q-1 1 -1 0h-1h-1q-1 0 -1 -0.5v-0.5v-54v-13q0 -19 -13.5 -32.5t-33.5 -13.5q-3 0 -7 -1h-2l-4 -2t-3 -1l-4 -2
l-0.5 -0.5t-1.5 -0.5q-17 -12 -17 -32v-12h308v12q0 16 -11.5 27.5t-27.5 11.5h-77q-19 0 -33 13.5t-14 32.5zM489 237q6 8 6 17t-6 17q-2 -3 -3 -6q-1 0 -1 -1q-2 -2 -3 -4q-1 -1 -2 -1q-2 -3 -4 -4l-1 -1q-2 -2 -4 -3q-1 0 -2 -1t-3 -2l-1 -0.5l-1 -0.5l-6 -2h-1
q-3 -1 -5 -1h-2q-3 -1 -6 -1q-10 0 -19 4q-2 -3 -6 -5q-1 0 -3 -1.5t-4 -2t-4 -1.5q-1 0 -4 -1q-3 0 -4 -1h-6h-1q-11 0 -21 4l-1 -1l-2 -2l-1 -1l-2 -2l-1 -1t-1.5 -2t-0.5 -2q-1 -1 -1.5 -2t-0.5 -2q-1 0 -1 -2v-1q-1 -1 -1 -3v-0.5v-1.5q-1 -2 -1 -4l1 -2v-2
q2 -13 11 -21t22 -8h8l2 -6q5 -15 21 -15q9 0 15.5 6t7.5 14l1 7l7 1q14 1 24 11.5t10 25.5q0 3 -1 7l-1 4z" />
  </g>

</svg>
