<?xml version="1.0" standalone="no"?>
<!DOCTYPE svg PUBLIC "-//W3C//DTD SVG 1.1//EN" "http://www.w3.org/Graphics/SVG/1.1/DTD/svg11.dtd" >
<svg xmlns="http://www.w3.org/2000/svg" xmlns:xlink="http://www.w3.org/1999/xlink" version="1.1" viewBox="-10 0 532 512">
  <g transform="matrix(1 0 0 -1 0 448)">
   <path fill="currentColor"
d="M410 448v-188h-291v188h291zM393 277v154h-256v-154h256zM461 157q21 0 36 -15t15 -36v-81q-1 -27 -26 -35v-45q0 -9 -8 -9h-17q-6 0 -8 6l-15 45h-355l-15 -45q-2 -6 -8 -6h-17q-9 0 -9 9v43q-14 1 -24 12t-10 26q0 12 7 21q-7 12 -7 26q0 15 9 28v37q0 40 25 66
q3 3 6 5q30 26 70 26q54 0 90 -42q2 -2 6 -7q9 -11 14.5 -16t18.5 -9t34 -4h188zM26 138v-21q3 2 5 3h1q2 1 5 2h2q2 1 4 1h1h1q3 1 6 1q21 0 36 -15t15 -36v-9h372q11 0 21 -7v49q0 14 -10 24t-24 10h-188q-24 0 -40.5 5.5t-23 11t-16.5 18.5q-4 4 -6 7q-31 36 -77 36
q-34 0 -59 -22q-2 -2 -5 -4q-20 -21 -20 -54zM24 93l-1 -2q-6 -8 -6 -18q0 -7 3 -14q9 5 18 5h46q1 4 1 9q0 14 -10 24t-24 10q-3 0 -7 -1q-1 0 -1.5 -0.5l-0.5 -0.5q-3 -1 -5 -2q-1 0 -1.5 -0.5l-0.5 -0.5q-3 -1 -5 -3l-1 -1q-3 -2 -5 -5zM223 347q-34 15 -67 24l-11 5v46
h239v-51h-8q-60 1 -153 -24zM246 335q81 20 129 19h9v-68h-71l-17 14q-18 19 -50 35zM285 288l2 -2h-142v71l5 -2l1 -1q10 -2 27 -7.5t52.5 -22.5t54.5 -36z" />
  </g>

</svg>
