<?xml version="1.0" standalone="no"?>
<!DOCTYPE svg PUBLIC "-//W3C//DTD SVG 1.1//EN" "http://www.w3.org/Graphics/SVG/1.1/DTD/svg11.dtd" >
<svg xmlns="http://www.w3.org/2000/svg" xmlns:xlink="http://www.w3.org/1999/xlink" version="1.1" viewBox="-11 0 534 512">
  <g transform="matrix(1 0 0 -1 0 448)">
   <path fill="currentColor"
d="M430 100q18 0 43 7.5t39 15.5v-4q-1 -19 -15.5 -32.5t-34.5 -13.5h-51h-310h-51q-20 0 -34.5 13.5t-15.5 32.5v4q14 -9 39 -16t43 -7q19 0 26 10h296q7 -10 26 -10zM100 146h312q-3 -3 -4 -6q-1 0 -1 -0.5v-0.5l-4 -6q-1 -3 -2 -5h-290q-1 3 -2 5t-4 6v0.5t-1 0.5
q-1 3 -4 6zM92 125l1 -1q1 -2 1 -3q-3 -2 -12 -2q-17 0 -42.5 7.5t-33.5 13.5q-7 6 -6 19q1 10 7 13l4 2h4q27 0 57 -26q11 -8 17 -17v-1q2 -3 3 -5zM9 192q-4 -1 -9 -3v40q0 19 15.5 40.5t48.5 30.5q2 -7 9 -7q9 0 9 9v3q40 9 66 20q2 -5 7 -5q10 0 10 9q0 1 -1 3l2 1l2 1
q30 16 61 20q2 -7 9 -7q9 0 9 9q5 1 9 1q13 0 28 -3q2 -7 9 -7q4 0 7 4q22 -5 44 -17q11 -6 24 -11q3 -3 7 -3h1q23 -8 66 -18q1 0 6 -2q2 -7 9 -7q3 0 6 2q11 -5 20 -12q-8 -1 -8 -9q0 -9 10 -9q7 0 8 8q8 -9 13 -19q-3 -3 -3 -7q0 -8 8 -9q1 -5 1 -9v-28q-9 0 -9 -9h-0.5
h-0.5q-29 3 -65 -22q-3 4 -7 4q-9 0 -9 -9h-37q0 9 -9 9t-9 -9h-37q0 9 -9 9t-9 -9h-37q0 9 -9 9t-9 -9h-37q0 9 -9 9t-9 -9h-36q0 9 -9.5 9t-9.5 -9h-36q0 9 -9.5 9t-9.5 -9h-9q-27 21 -55 26v1q0 9 -9 9t-9 -9zM484.5 229q-9.5 0 -9.5 -9.5t9.5 -9.5t9.5 9.5t-9.5 9.5z
M457 256q-9 0 -9 -9t9 -9t9 9t-9 9zM457 201q-9 0 -9 -9t9 -9t9 9t-9 9zM430 283q-9 0 -9 -9t9 -9t9 9t-9 9zM430 229q-9 0 -9 -9.5t9 -9.5t9 9.5t-9 9.5zM402 311q-9 0 -9 -9t9 -9t9 9t-9 9zM402 256q-9 0 -9 -9t9 -9t9 9t-9 9zM402 201q-9 0 -9 -9t9 -9t9 9t-9 9zM375 283
q-9 0 -9 -9t9 -9t9 9t-9 9zM375 229q-9 0 -9 -9.5t9 -9.5t9 9.5t-9 9.5zM347.5 311q-9.5 0 -9.5 -9t9.5 -9t9.5 9t-9.5 9zM347.5 256q-9.5 0 -9.5 -9t9.5 -9t9.5 9t-9.5 9zM347.5 201q-9.5 0 -9.5 -9t9.5 -9t9.5 9t-9.5 9zM320 338q-9 0 -9 -9t9 -9t9 9t-9 9zM320 283
q-9 0 -9 -9t9 -9t9 9t-9 9zM320 229q-9 0 -9 -9.5t9 -9.5t9 9.5t-9 9.5zM292.5 311q-9.5 0 -9.5 -9t9.5 -9t9.5 9t-9.5 9zM292.5 256q-9.5 0 -9.5 -9t9.5 -9t9.5 9t-9.5 9zM292.5 201q-9.5 0 -9.5 -9t9.5 -9t9.5 9t-9.5 9zM265 338q-9 0 -9 -9t9 -9t9 9t-9 9zM265 283
q-9 0 -9 -9t9 -9t9 9t-9 9zM265 229q-9 0 -9 -9.5t9 -9.5t9 9.5t-9 9.5zM238 311q-9 0 -9 -9t9 -9t9 9t-9 9zM238 256q-9 0 -9 -9t9 -9t9 9t-9 9zM238 201q-9 0 -9 -9t9 -9t9 9t-9 9zM210 338q-9 0 -9 -9t9 -9t9 9t-9 9zM210 283q-9 0 -9 -9t9 -9t9 9t-9 9zM210 229
q-9 0 -9 -9.5t9 -9.5t9 9.5t-9 9.5zM183 311q-9 0 -9 -9t9 -9t9 9t-9 9zM183 256q-9 0 -9 -9t9 -9t9 9t-9 9zM183 201q-9 0 -9 -9t9 -9t9 9t-9 9zM155.5 283q-9.5 0 -9.5 -9t9.5 -9t9.5 9t-9.5 9zM155.5 229q-9.5 0 -9.5 -9.5t9.5 -9.5t9.5 9.5t-9.5 9.5zM128 311
q-9 0 -9 -9t9 -9t9 9t-9 9zM128 256q-9 0 -9 -9t9 -9t9 9t-9 9zM128 201q-9 0 -9 -9t9 -9t9 9t-9 9zM100.5 283q-9.5 0 -9.5 -9t9.5 -9t9.5 9t-9.5 9zM100.5 229q-9.5 0 -9.5 -9.5t9.5 -9.5t9.5 9.5t-9.5 9.5zM73 256q-9 0 -9 -9t9 -9t9 9t-9 9zM73 201q-9 0 -9 -9t9 -9t9 9
t-9 9zM46 283q-9 0 -9 -9t9 -9t9 9t-9 9zM46 229q-9 0 -9 -9.5t9 -9.5t9 9.5t-9 9.5zM18 256q-9 0 -9 -9t9 -9t9 9t-9 9zM505 172q6 -3 7 -13q1 -13 -6 -19q-8 -6 -33.5 -13.5t-42.5 -7.5q-7 0 -12 1q0 2 2 5q1 2 3 5v1q6 9 16 17q31 26 58 26q2 0 4 -1q2 0 4 -1zM49 27v28
h33l-6 -28h-27zM439 27l-6 28h33v-28h-27z" />
  </g>

</svg>
