<?xml version="1.0" standalone="no"?>
<!DOCTYPE svg PUBLIC "-//W3C//DTD SVG 1.1//EN" "http://www.w3.org/Graphics/SVG/1.1/DTD/svg11.dtd" >
<svg xmlns="http://www.w3.org/2000/svg" xmlns:xlink="http://www.w3.org/1999/xlink" version="1.1" viewBox="-10 0 528 512">
  <g transform="matrix(1 0 0 -1 0 448)">
   <path fill="currentColor"
d="M499 -13q9 0 9 -8v-34q0 -9 -9 -9h-452q-9 0 -9 9v34q0 8 9 8h21q3 46 8 87q-32 14 -52 44t-20 65q0 50 35 85t85 35h8q4 9 8 17h266q4 -8 4 -9h81q6 0 8 -6t-4 -9q-37 -25 -59 -58q33 -110 42 -251h21zM192 252v-205q0 -18 12.5 -30.5t30 -12.5t30 12.5t12.5 30.5v8h-34
q-8 0 -8 9t8 9h34v17h-34q-8 0 -8 8.5t8 8.5h34v17h-34q-8 0 -8 8.5t8 8.5h34v17h-34q-8 0 -8 8.5t8 8.5h34v17h-34q-8 0 -8 8.5t8 8.5h34v17h-34q-8 0 -8 8.5t8 8.5h34v9q0 17 -12.5 29.5t-30 12.5t-30 -12.5t-12.5 -29.5zM38 183q0 -24 13.5 -45t35.5 -32h4t4 1q4 1 4 6
q14 80 35 144q1 4 -1 8q-3 4 -7 4h-2q-36 0 -61 -25t-25 -61zM273 448q70 0 125 -111h-250q55 111 125 111z" />
  </g>

</svg>
