<?xml version="1.0" standalone="no"?>
<!DOCTYPE svg PUBLIC "-//W3C//DTD SVG 1.1//EN" "http://www.w3.org/Graphics/SVG/1.1/DTD/svg11.dtd" >
<svg xmlns="http://www.w3.org/2000/svg" xmlns:xlink="http://www.w3.org/1999/xlink" version="1.1" viewBox="-10 0 532 512">
  <g transform="matrix(1 0 0 -1 0 448)">
   <path fill="currentColor"
d="M51 51v9h26v-9h-26zM435 51v9h26v-9h-26zM350 51v9h25v-9h-25zM435 77v8h26v-8h-26zM393 77v8h25v-8h-25zM393 51v9h25v-9h-25zM307 51v9h26v-9h-26zM51 307v17h26v-17h-26zM435 307v17h26v-17h-26zM393 307v17h25v-17h-25zM333 179q0 -8 8.5 -8t8.5 8v24q17 -6 17 -24
q0 -10 -7.5 -17.5t-18 -7.5t-18 7.5t-7.5 17.5q0 18 17 24v-24zM441 173l17 17q3 -5 3 -11q0 -10 -7.5 -17.5t-18 -7.5t-18 7.5t-7.5 18t7.5 18t17.5 7.5q6 0 11 -3l-17 -17q-6 -6 0 -12q3 -2 6.5 -2t5.5 2zM222 77v8h25v-8h-25zM265 77v8h25v-8h-25zM179 77v8h26v-8h-26z
M94 307v17h25v-17h-25zM350 77v8h25v-8h-25zM307 77v8h26v-8h-26zM265 51v9h25v-9h-25zM179 51v9h26v-9h-26zM137 51v9h25v-9h-25zM222 51v9h25v-9h-25zM94 51v9h25v-9h-25zM94 77v8h25v-8h-25zM137 77v8h25v-8h-25zM51 77v8h26v-8h-26zM179 273v17h26v-17h-26zM222 273v17
h25v-17h-25zM265 273v17h25v-17h-25zM94 273v17h25v-17h-25zM94 341v17h25v-17h-25zM137 273v17h25v-17h-25zM307 273v17h26v-17h-26zM137 341v17h25v-17h-25zM51 273v17h26v-17h-26zM435 273v17h26v-17h-26zM393 273v17h25v-17h-25zM435 341v17h26v-17h-26zM51 341v17h26
v-17h-26zM393 341v17h25v-17h-25zM350 273v17h25v-17h-25zM137 307v17h25v-17h-25zM222 307v17h25v-17h-25zM350 307v17h25v-17h-25zM307 307v17h26v-17h-26zM512 410v-410h-26v-26h-51v26h-358v-26h-51v26h-26v410h512zM34 375v-119h444v119h-444zM478 179.5
q0 17.5 -13 29.5v0q-12 13 -29.5 13t-30 -12.5t-12.5 -30t12.5 -30t30 -12.5t30 12.5t12.5 30zM384 179.5q0 17.5 -12.5 30t-30 12.5t-30 -12.5t-12.5 -30t12.5 -30t30 -12.5t30 12.5t12.5 30zM145 205h-51v-51h51v51zM34 205v-51h51v51h-51zM34 102v-68h444v68h-444z
M179 307v17h26v-17h-26zM265 307v17h25v-17h-25zM265 341v17h25v-17h-25zM222 341v17h25v-17h-25zM350 341v17h25v-17h-25zM307 341v17h26v-17h-26zM179 341v17h26v-17h-26z" />
  </g>

</svg>
