<?xml version="1.0" standalone="no"?>
<!DOCTYPE svg PUBLIC "-//W3C//DTD SVG 1.1//EN" "http://www.w3.org/Graphics/SVG/1.1/DTD/svg11.dtd" >
<svg xmlns="http://www.w3.org/2000/svg" xmlns:xlink="http://www.w3.org/1999/xlink" version="1.1" viewBox="-10 0 532 512">
  <g transform="matrix(1 0 0 -1 0 448)">
   <path fill="currentColor"
d="M85 345.5q0 8.5 8.5 8.5t8.5 -8.5t-8.5 -8.5t-8.5 8.5zM137 345.5q0 8.5 8.5 8.5t8.5 -8.5t-8.5 -8.5t-8.5 8.5zM111 371.5q0 8.5 8.5 8.5t8.5 -8.5t-8.5 -8.5t-8.5 8.5zM162 371.5q0 8.5 8.5 8.5t8.5 -8.5t-8.5 -8.5t-8.5 8.5zM111 320q0 9 8.5 9t8.5 -9t-8.5 -9t-8.5 9
zM162 320q0 9 8.5 9t8.5 -9t-8.5 -9t-8.5 9zM188 345.5q0 8.5 8.5 8.5t8.5 -8.5t-8.5 -8.5t-8.5 8.5zM213 320q0 9 8.5 9t8.5 -9t-8.5 -9t-8.5 9zM60 320q0 9 8.5 9t8.5 -9t-8.5 -9t-8.5 9zM333 166.5q0 8.5 8.5 8.5t8.5 -8.5t-8.5 -8.5t-8.5 8.5zM358 192q0 9 8.5 9t8.5 -9
t-8.5 -9t-8.5 9zM307 140.5q0 8.5 8.5 8.5t8.5 -8.5t-8.5 -8.5t-8.5 8.5zM358 140.5q0 8.5 8.5 8.5t8.5 -8.5t-8.5 -8.5t-8.5 8.5zM384 166.5q0 8.5 8.5 8.5t8.5 -8.5t-8.5 -8.5t-8.5 8.5zM410 140.5q0 8.5 8.5 8.5t8.5 -8.5t-8.5 -8.5t-8.5 8.5zM85 294.5q0 8.5 8.5 8.5
t8.5 -8.5t-8.5 -8.5t-8.5 8.5zM137 294.5q0 8.5 8.5 8.5t8.5 -8.5t-8.5 -8.5t-8.5 8.5zM137 243.5q0 8.5 8.5 8.5t8.5 -8.5t-8.5 -8.5t-8.5 8.5zM137 396.5q0 8.5 8.5 8.5t8.5 -8.5t-8.5 -8.5t-8.5 8.5zM111 268.5q0 8.5 8.5 8.5t8.5 -8.5t-8.5 -8.5t-8.5 8.5zM162 268.5
q0 8.5 8.5 8.5t8.5 -8.5t-8.5 -8.5t-8.5 8.5zM188 294.5q0 8.5 8.5 8.5t8.5 -8.5t-8.5 -8.5t-8.5 8.5zM307 345.5q0 8.5 8.5 8.5t8.5 -8.5t-8.5 -8.5t-8.5 8.5zM358 345.5q0 8.5 8.5 8.5t8.5 -8.5t-8.5 -8.5t-8.5 8.5zM333 371.5q0 8.5 8.5 8.5t8.5 -8.5t-8.5 -8.5t-8.5 8.5
zM384 371.5q0 8.5 8.5 8.5t8.5 -8.5t-8.5 -8.5t-8.5 8.5zM333 320q0 9 8.5 9t8.5 -9t-8.5 -9t-8.5 9zM384 320q0 9 8.5 9t8.5 -9t-8.5 -9t-8.5 9zM410 345.5q0 8.5 8.5 8.5t8.5 -8.5t-8.5 -8.5t-8.5 8.5zM435 320q0 9 8.5 9t8.5 -9t-8.5 -9t-8.5 9zM282 320q0 9 8.5 9
t8.5 -9t-8.5 -9t-8.5 9zM307 294.5q0 8.5 8.5 8.5t8.5 -8.5t-8.5 -8.5t-8.5 8.5zM358 294.5q0 8.5 8.5 8.5t8.5 -8.5t-8.5 -8.5t-8.5 8.5zM358 243.5q0 8.5 8.5 8.5t8.5 -8.5t-8.5 -8.5t-8.5 8.5zM358 396.5q0 8.5 8.5 8.5t8.5 -8.5t-8.5 -8.5t-8.5 8.5zM333 268.5
q0 8.5 8.5 8.5t8.5 -8.5t-8.5 -8.5t-8.5 8.5zM384 268.5q0 8.5 8.5 8.5t8.5 -8.5t-8.5 -8.5t-8.5 8.5zM410 294.5q0 8.5 8.5 8.5t8.5 -8.5t-8.5 -8.5t-8.5 8.5zM333 115.5q0 8.5 8.5 8.5t8.5 -8.5t-8.5 -8.5t-8.5 8.5zM358 89.5q0 8.5 8.5 8.5t8.5 -8.5t-8.5 -8.5t-8.5 8.5z
M384 115.5q0 8.5 8.5 8.5t8.5 -8.5t-8.5 -8.5t-8.5 8.5zM111 166.5q0 8.5 8.5 8.5t8.5 -8.5t-8.5 -8.5t-8.5 8.5zM137 192q0 9 8.5 9t8.5 -9t-8.5 -9t-8.5 9zM85 140.5q0 8.5 8.5 8.5t8.5 -8.5t-8.5 -8.5t-8.5 8.5zM137 140.5q0 8.5 8.5 8.5t8.5 -8.5t-8.5 -8.5t-8.5 8.5z
M162 166.5q0 8.5 8.5 8.5t8.5 -8.5t-8.5 -8.5t-8.5 8.5zM188 140.5q0 8.5 8.5 8.5t8.5 -8.5t-8.5 -8.5t-8.5 8.5zM111 115.5q0 8.5 8.5 8.5t8.5 -8.5t-8.5 -8.5t-8.5 8.5zM137 89.5q0 8.5 8.5 8.5t8.5 -8.5t-8.5 -8.5t-8.5 8.5zM162 115.5q0 8.5 8.5 8.5t8.5 -8.5t-8.5 -8.5
t-8.5 8.5zM503 448q9 0 9 -9v-494q0 -9 -9 -9h-494q-9 0 -9 9v494q0 9 9 9h494zM145 414q-39 0 -66.5 -27.5t-27.5 -66.5t27.5 -66.5t66.5 -27.5t66.5 27.5t27.5 66.5t-27.5 66.5t-66.5 27.5zM68 141q0 -32 22.5 -54.5t54.5 -22.5t54.5 22.5t22.5 54.5t-22.5 54.5
t-54.5 22.5t-54.5 -22.5t-22.5 -54.5zM136.5 -30q14.5 0 24.5 10t10 24t-10 24t-24.5 10t-24.5 -10t-10 -24t10 -24t24.5 -10zM213 -30q14 0 24 10t10 24t-10 24t-24 10t-24 -10t-10 -24t10 -24t24 -10zM299 -30q14 0 24 10t10 24t-10 24t-24 10t-24 -10t-10 -24t10 -24
t24 -10zM375.5 -30q14.5 0 24.5 10t10 24t-10 24t-24.5 10t-24.5 -10t-10 -24t10 -24t24.5 -10zM367 64q32 0 54.5 22.5t22.5 54.5t-22.5 54.5t-54.5 22.5t-54.5 -22.5t-22.5 -54.5t22.5 -54.5t54.5 -22.5zM367 226q39 0 66.5 27.5t27.5 66.5t-27.5 66.5t-66.5 27.5
t-66.5 -27.5t-27.5 -66.5t27.5 -66.5t66.5 -27.5z" />
  </g>

</svg>
