<?xml version="1.0" standalone="no"?>
<!DOCTYPE svg PUBLIC "-//W3C//DTD SVG 1.1//EN" "http://www.w3.org/Graphics/SVG/1.1/DTD/svg11.dtd" >
<svg xmlns="http://www.w3.org/2000/svg" xmlns:xlink="http://www.w3.org/1999/xlink" version="1.1" viewBox="-10 0 523 512">
  <g transform="matrix(1 0 0 -1 0 448)">
   <path fill="currentColor"
d="M256 236q-46 0 -78.5 32.5t-32.5 78.5v79q52 22 111 22t111 -22v-79q0 -46 -32.5 -78.5t-78.5 -32.5zM307.5 371q-8.5 0 -8.5 -8.5t8.5 -8.5t8.5 8.5t-8.5 8.5zM307.5 320q-8.5 0 -8.5 -8.5t8.5 -8.5t8.5 8.5t-8.5 8.5zM281.5 396q-8.5 0 -8.5 -9t8.5 -9t8.5 9t-8.5 9z
M281.5 346q-8.5 0 -8.5 -8.5t8.5 -8.5t8.5 8.5t-8.5 8.5zM256 371q-9 0 -9 -8.5t9 -8.5t9 8.5t-9 8.5zM256 320q-9 0 -9 -8.5t9 -8.5t9 8.5t-9 8.5zM230.5 396q-8.5 0 -8.5 -9t8.5 -9t8.5 9t-8.5 9zM230.5 346q-8.5 0 -8.5 -8.5t8.5 -8.5t8.5 8.5t-8.5 8.5zM204.5 371
q-8.5 0 -8.5 -8.5t8.5 -8.5t8.5 8.5t-8.5 8.5zM204.5 320q-8.5 0 -8.5 -8.5t8.5 -8.5t8.5 8.5t-8.5 8.5zM384 418q55 -28 87 -75.5t32 -103.5v-10l-16 -11q-21 -17 -47 -30q-7 20 -24.5 33.5t-40.5 13.5h-58q31 16 49 46t18 66v71zM72 188q-26 13 -47 30l-16 12v9
q0 56 32 103.5t87 75.5v-71q0 -36 18 -66t49 -46h-58q-23 0 -40.5 -13.5t-24.5 -33.5zM328 131q97 17 170 73l2 2q-13 -69 -73.5 -118t-144.5 -57q5 -24 29 -29l107 -22v-7q0 -15 -11 -26t-26 -11q-3 0 -6 1q-119 24 -237 0q-4 -1 -7 -1q-15 0 -26 11t-11 26v7l107 22
q24 5 29 29q-84 8 -145 57t-73 119l2 -3q25 -19 55 -34l5 -3q21 -10 42 -18h1q22 -8 44 -13h1q11 -3 21 -4q1 0 1.5 -0.5t1.5 -0.5q11 -2 22 -3h0.5h1.5q9 -1 19 -2h5q13 -1 22 -1t22 1h5q11 1 20 2h1q11 1 23 3h1zM87 180q5 16 18.5 27t31.5 11h238q18 0 31.5 -11t18.5 -27
q-19 -9 -40 -16q-20 -7 -41 -12h-0.5h-1.5q-10 -3 -20 -4q-10 -2 -21 -3h-1.5h-1.5q-8 -1 -17 -2h-5q-11 -1 -20 -1t-20 1h-5q-9 1 -17 2h-1h-2q-21 2 -42 7h-1q-43 10 -81 28z" />
  </g>

</svg>
