<?xml version="1.0" standalone="no"?>
<!DOCTYPE svg PUBLIC "-//W3C//DTD SVG 1.1//EN" "http://www.w3.org/Graphics/SVG/1.1/DTD/svg11.dtd" >
<svg xmlns="http://www.w3.org/2000/svg" xmlns:xlink="http://www.w3.org/1999/xlink" version="1.1" viewBox="-10 0 532 512">
  <g transform="matrix(1 0 0 -1 0 448)">
   <path fill="currentColor"
d="M503 -47q9 0 9 -8.5t-9 -8.5h-93h-26h-256h-26h-93q-9 0 -9 8.5t9 8.5h85v19q-35 9 -45 44l-30 109q-19 5 -19 24q0 11 7.5 18.5t18.5 7.5h68v17h111v-17h264v252q0 3 -2 4t-4 -1l-22 -22q11 -15 10 -33.5t-14 -31.5q-2 -2 -6 -2t-6 2l-60 61q-6 6 0 12q14 14 34 14
q17 0 30 -10l22 22q10 10 22.5 4.5t12.5 -19.5v-252q11 0 18.5 -7.5t7.5 -18.5q0 -19 -19 -24l-30 -109q-10 -35 -45 -44v-19h85zM111 64v-17h77v17h-77zM66 20q4 -14 16 -23.5t27 -9.5h36h222h36q15 0 27 9.5t16 23.5l29 104h-270v-43v-51h-111v51v43h-57zM362 -30h-212
l-8 -17h228zM393 303v8q0 9 8.5 9t8.5 -9v-8q0 -9 -8.5 -9t-8.5 9zM393 201v8q0 9 8.5 9t8.5 -9v-8q0 -9 -8.5 -9t-8.5 9zM401.5 329q-8.5 0 -8.5 8v9q0 8 8.5 8t8.5 -8v-9q0 -8 -8.5 -8zM393 235v8q0 9 8.5 9t8.5 -9v-8q0 -9 -8.5 -9t-8.5 9zM393 269v8q0 9 8.5 9t8.5 -9
v-8q0 -9 -8.5 -9t-8.5 9zM295.5 317q-3.5 0 -5.5 2q-7 6 0 12l6 7q6 6 12 -0.5t0 -12.5l-6 -6q-3 -2 -6.5 -2zM343.5 365q-3.5 0 -5.5 3q-6 6 0 12l6 6q6 6 12 0t0 -12l-6 -6q-3 -3 -6.5 -3zM319.5 341q-3.5 0 -5.5 3q-6 6 0 12l6 6q6 6 12 0t0 -12l-6 -6q-3 -3 -6.5 -3z
M271.5 293q-3.5 0 -6.5 2q-6 6 0 12l6 6q6 6 12.5 0t-0.5 -12l-6 -6q-2 -2 -5.5 -2zM174.5 196q-3.5 0 -5.5 3q-6 6 0 12l6 6q6 6 12 0t0 -12l-6 -6q-3 -3 -6.5 -3zM247.5 269q-3.5 0 -6.5 2q-6 6 0 12l6 6q6 6 12 0t0 -12l-6 -6q-2 -2 -5.5 -2zM223.5 244q-3.5 0 -6.5 3
q-6 6 0 12l6 6q6 6 12 0t0 -12l-6 -6q-2 -3 -5.5 -3zM199 220q-4 0 -6 3q-6 6 0 12l6 6q6 6 12 0t0 -12l-6 -6q-2 -3 -6 -3zM367 339q-7 4 -3 12l4 7q4 8 11.5 3.5t3.5 -11.5l-4 -7q-3 -5 -8 -5q-2 0 -4 1zM351 328q5 8 12.5 4t2.5 -12l-4 -7q-2 -5 -7 -5q-2 0 -4 1
q-8 5 -4 12zM296.5 212.5q7.5 -4.5 3.5 -11.5l-2 -5q-3 -4 -8 -4q-2 0 -4 1q-7 4 -3 12l2 4q4 8 11.5 3.5zM329 253q-2 -4 -7 -4q-3 0 -5 1q-7 4 -3 11l4 8q4 7 11.5 3t3.5 -12zM334 280q-7 4 -3 11l4 8q4 7 11.5 3t3.5 -12l-4 -7q-3 -5 -8 -5q-2 0 -4 2zM312 223
q-2 -4 -7 -4q-2 0 -4 1q-8 4 -3 11l4 8q4 7 11.5 3t3.5 -11z" />
  </g>

</svg>
