<?xml version="1.0" standalone="no"?>
<!DOCTYPE svg PUBLIC "-//W3C//DTD SVG 1.1//EN" "http://www.w3.org/Graphics/SVG/1.1/DTD/svg11.dtd" >
<svg xmlns="http://www.w3.org/2000/svg" xmlns:xlink="http://www.w3.org/1999/xlink" version="1.1" viewBox="-10 0 522 512">
  <g transform="matrix(1 0 0 -1 0 448)">
   <path fill="currentColor"
d="M453 281q4 -8 -4 -12l-33 -16q-1 -4 -3 -7q-4 -6 -10 -12l29 -21q7 -6 2 -13q-3 -4 -7 -4q-3 0 -6 2l-31 23q-14 -11 -31 -16l20 -20q6 -6 0 -13q-3 -2 -6.5 -2t-6.5 2l-27 28l-10 -2q-42 -8 -55 -20q1 -8 2 -19l29 18q8 5 12.5 -2.5t-2.5 -12.5l-41 -25v-1.5v-1.5h117
v-72h-24l-32 -126h-158l-32 126h-24v72h98q1 0 1 0.5v1.5q1 4 1 10l-40 15q-8 3 -5 11.5t11 5.5l34 -13q-2 20 -15 40h-49q-9 0 -9 9t9 9h35q-10 11 -30 31q-16 15 -24 23h-53q-9 0 -9 9t9 9h38q-35 44 -27 94l-35 35q-6 6 0 12.5t13 -0.5l27 -26q7 29 14 35l3 3h7l3 -3
q5 -6 14 -29.5t7 -37.5q-3 -12 0 -24l38 37q6 7 12.5 0.5t-0.5 -12.5l-43 -44q10 -17 41 -43q10 20 30 36l15 9l8 6l-18 18q-7 6 -0.5 12.5t12.5 0.5l21 -21q17 16 12 31q-1 2 -1 5l-34 25q-8 5 -2.5 12.5t12.5 1.5l29 -20q8 10 21 10q1 0 3 -1l15 26q4 8 12 3.5t4 -11.5
l-14 -25q4 -4 7 -11q1 -4 2 -10l29 13q8 4 12 -4t-5 -12l-35 -16q0 -6 -2 -12h34q9 0 9 -9t-9 -9h-41q-6 -12 -16 -20q-7 -6 -24 -18q-13 -9 -20 -14t-13.5 -14t-6.5 -18q2 -8 8 -18q3 -4 5 -8q14 9 30 13q6 1 15 3v31q0 9 9 9t9 -9v-28q36 7 47 25q6 9 16 11v28q0 9 9 9
t9 -9v-29q9 -4 14 -12l27 13q8 4 12 -4zM217.5 10.5q2.5 2.5 2.5 6t-3 6.5q-6 7 -12 0q-3 -3 -3 -6.5t2.5 -6t6.5 -2.5t6.5 2.5zM256 8q9 0 9 9t-9 9h-18q-9 0 -9 -9t9 -9h18zM265 35q9 0 9 9t-9 9h-54q-9 0 -9 -9t9 -9h54zM298.5 37.5q2.5 2.5 2.5 6.5t-3 6q-6 6 -12 0
q-3 -2 -3 -6t2.5 -6.5t6.5 -2.5t6.5 2.5z" />
  </g>

</svg>
