<?xml version="1.0" standalone="no"?>
<!DOCTYPE svg PUBLIC "-//W3C//DTD SVG 1.1//EN" "http://www.w3.org/Graphics/SVG/1.1/DTD/svg11.dtd" >
<svg xmlns="http://www.w3.org/2000/svg" xmlns:xlink="http://www.w3.org/1999/xlink" version="1.1" viewBox="-10 0 532 512">
  <g transform="matrix(1 0 0 -1 0 448)">
   <path fill="currentColor"
d="M512 294v-59h-17v-299h-154h-170h-154v299h-17v59h35v2q-3 14 7 23t13 20l1 7h12v25v1q-11 3 -18 12.5t-7 20.5v43h25h17h26v-43q0 -11 -7.5 -20.5t-18.5 -12.5v-1v-25h16l1 -7q3 -11 13 -20t7 -23v-1v-1h32v86h102v-86h9v69h119v-69h9v103h85v-103h34zM85 431v-40
q9 4 9 14v26h-9zM60 405q0 -10 8 -14v40h-8v-26zM307 -13v17h-6q-6 -5 -14 -9l-2 -1q-1 -1 -3 -2q-2 0 -3 -1q-2 0 -4 -1q-1 0 -2 -1q-2 0 -4 -1h-1h-1q-6 -1 -11 -1h51zM205 4v-17h51q-5 0 -11 1q-1 0 -2 1h-4q-1 1 -2 1q-2 1 -4 1q-1 1 -3 1l-3 1.5l-3 1.5q-6 4 -12 9h-1
h-6zM418 -47v175l-25 17v21h-274v-21l-25 -17v-175h77v34h17v34h9q-21 37 1 73q3 4 9 4q4 -1 6 -5q5 26 22 45l15 17q2 3 6 3t7 -3l1 -2l1 -1q9 -15 15 -30q1 1 3 2q5 1 9 -3l15 -17q15 -18 17 -41t-9 -42h9v-34h17v-34h77zM478 -47v282h-9v-17q0 -9 -8.5 -9t-8.5 9v17h-8
v-17q0 -9 -8.5 -9t-8.5 9v17h-9v-17q0 -9 -8.5 -9t-8.5 9v17h-8v-17q0 -9 -9 -9t-9 9v17h-8v-17q0 -9 -8.5 -9t-8.5 9v17h-9v-17q0 -9 -8.5 -9t-8.5 9v17h-8v-17q0 -9 -8.5 -9t-8.5 9v17h-9v-17q0 -9 -8.5 -9t-8.5 9v17h-8v-17q0 -9 -9 -9t-9 9v17h-8v-17q0 -9 -8.5 -9
t-8.5 9v17h-9v-17q0 -9 -8.5 -9t-8.5 9v17h-8v-17q0 -9 -8.5 -9t-8.5 9v17h-9v-17q0 -9 -8.5 -9t-8.5 9v17h-8v-17q0 -9 -9 -9t-9 9v17h-8v-17q0 -9 -8.5 -9t-8.5 9v17h-9v-17q0 -9 -8.5 -9t-8.5 9v17h-8v-17q0 -9 -8.5 -9t-8.5 9v17h-9v-282h43v184l25 17v29h308v-29
l25 -17v-184h43zM495 252v25h-17h-85h-9h-119h-9h-102h-56h-39h-42v-25h478z" />
  </g>

</svg>
