<?xml version="1.0" standalone="no"?>
<!DOCTYPE svg PUBLIC "-//W3C//DTD SVG 1.1//EN" "http://www.w3.org/Graphics/SVG/1.1/DTD/svg11.dtd" >
<svg xmlns="http://www.w3.org/2000/svg" xmlns:xlink="http://www.w3.org/1999/xlink" version="1.1" viewBox="-10 0 522 512">
  <g transform="matrix(1 0 0 -1 0 448)">
   <path fill="currentColor"
d="M461 346q8 0 8 -8.5t-8 -8.5h-17v-180h-34q-9 0 -9 -8.5t9 -8.5h34v-17h-34q-9 0 -9 -8.5t9 -8.5h34v-17h-34q-9 0 -9 -8.5t9 -8.5h34v-17h-34q-9 0 -9 -8.5t9 -8.5h34v-17h-34q-9 0 -9 -8.5t9 -8.5h34v-23q0 -15 -11 -26t-27 -11h-96q-15 0 -26 11t-11 26v23h34
q9 0 9 8.5t-9 8.5h-34v17h34q9 0 9 8.5t-9 8.5h-34v17h34q9 0 9 8.5t-9 8.5h-34v17h34q9 0 9 8.5t-9 8.5h-34v17h34q9 0 9 8.5t-9 8.5h-34v180h-17q-9 0 -9 8.5t9 8.5h17h171h17zM170 397l5 5q21 -48 21 -125v-9l-5 3q-21 11 -33.5 29.5t-12.5 40.5q0 33 25 56zM111 341
q0 40 -31 69l-8 7q20 31 47.5 31t46.5 -31l-8 -7q-30 -29 -30 -69q0 -26 14.5 -49t40.5 -36l10 -6q-6 -28 -23 -51l-2 -4q-21 -28 -23 -63h-51q-2 35 -23 63l-3 4q-17 24 -22 52l10 5q25 13 40 36t15 49zM154 226q0 14 -10 24t-24.5 10t-24.5 -10t-10 -24t10 -24t24.5 -10
t24.5 10t10 24zM94 341q0 -22 -12.5 -40.5t-32.5 -29.5l-6 -3v9q0 76 21 125l5 -5q25 -23 25 -56zM145 39q38 -23 49 -93l1 -10h-24v9q0 7 -5 12t-12 5q-13 0 -17 -13q-3 -13 -16 -13h-3q-13 0 -16 13q-4 13 -17 13q-7 0 -12 -5t-5 -12v-9h-24l1 10q11 70 49 93v76h51v-76z
" />
  </g>

</svg>
