<?xml version="1.0" standalone="no"?>
<!DOCTYPE svg PUBLIC "-//W3C//DTD SVG 1.1//EN" "http://www.w3.org/Graphics/SVG/1.1/DTD/svg11.dtd" >
<svg xmlns="http://www.w3.org/2000/svg" xmlns:xlink="http://www.w3.org/1999/xlink" version="1.1" viewBox="-10 0 532 512">
  <g transform="matrix(1 0 0 -1 0 448)">
   <path fill="currentColor"
d="M512 209q0 -24 -20 -38q3 -9 3 -17q0 -21 -14 -36q14 -5 14 -20q0 -9 -6.5 -15t-14.5 -6h-13v-26h-17v-8q8 0 8 -8.5t-8 -8.5h-17q-9 0 -9 8.5t9 8.5v8h-17v26h-308v-26h-17v-8q9 0 9 -8.5t-9 -8.5h-17q-8 0 -8 8.5t8 8.5v8h-17v26h-13q-8 0 -14.5 6t-6.5 15q0 15 14 20
q-14 15 -14 36q0 8 3 17q-20 14 -20 38q0 19 14 33t33 14q6 0 13 -2v22q0 34 24 58t59 24h226q35 0 59 -24t24 -58v-22q7 2 13 2q19 0 33 -14t14 -33zM344 293l11 -11l-11 -11q-6 -6 0 -13q2 -2 5.5 -2t6.5 2l15 16l15 -16q3 -2 6.5 -2t6.5 2q6 7 0 13l-11 11l11 11
q6 6 0 12t-13 0l-15 -16l-15 16q-6 6 -12 0t0 -12zM233 267l11 -11l-11 -11q-6 -6 0 -12q2 -3 5.5 -3t6.5 3l15 15l16 -15q2 -3 5.5 -3t6.5 3q6 6 0 12l-11 11l11 11q6 6 0 12t-12 0l-16 -15l-15 15q-6 6 -12 0t0 -12zM122 293l11 -11l-11 -11q-6 -6 0 -13q2 -2 6 -2t6 2
l15 16l16 -16q2 -2 5.5 -2t6.5 2q6 7 0 13l-11 11l11 11q6 6 0 12t-12 0l-16 -16l-15 16q-6 6 -12 0t0 -12zM444 119q14 0 24 10t10 25q0 6 -3 13l-2 3q-4 8 -12 13h-1q-2 2 -5 3q-2 0 -3 1h-2q-4 1 -6 1h-3h-18h-334h-18h-3q-2 0 -6 -1h-2q-1 -1 -3 -1q-3 -1 -5 -3h-1
q-8 -5 -12 -13l-2 -3q-3 -7 -3 -13q0 -15 10 -25t24 -10h376z" />
  </g>

</svg>
