<?xml version="1.0" standalone="no"?>
<!DOCTYPE svg PUBLIC "-//W3C//DTD SVG 1.1//EN" "http://www.w3.org/Graphics/SVG/1.1/DTD/svg11.dtd" >
<svg xmlns="http://www.w3.org/2000/svg" xmlns:xlink="http://www.w3.org/1999/xlink" version="1.1" viewBox="-10 0 532 512">
  <g transform="matrix(1 0 0 -1 0 448)">
   <path fill="currentColor"
d="M0 448h512v-512h-43v17h-426v-17h-43v512zM495 -47v478h-478v-478h9v17h460v-17h9zM486 235v-69h-460v69h460zM273 192q9 0 9 8.5t-9 8.5h-34q-9 0 -9 -8.5t9 -8.5h34zM486 422v-85h-460v85h460zM273 363q9 0 9 8.5t-9 8.5h-34q-9 0 -9 -8.5t9 -8.5h34zM486 149v-68h-460
v68h460zM273 107q9 0 9 8.5t-9 8.5h-34q-9 0 -9 -8.5t9 -8.5h34zM486 64v-85h-460v85h460zM273 21q9 0 9 8.5t-9 8.5h-34q-9 0 -9 -8.5t9 -8.5h34zM486 320v-68h-460v68h460zM273 277q9 0 9 8.5t-9 8.5h-34q-9 0 -9 -8.5t9 -8.5h34z" />
  </g>

</svg>
