<?xml version="1.0" standalone="no"?>
<!DOCTYPE svg PUBLIC "-//W3C//DTD SVG 1.1//EN" "http://www.w3.org/Graphics/SVG/1.1/DTD/svg11.dtd" >
<svg xmlns="http://www.w3.org/2000/svg" xmlns:xlink="http://www.w3.org/1999/xlink" version="1.1" viewBox="-10 0 522 512">
  <g transform="matrix(1 0 0 -1 0 448)">
   <path fill="currentColor"
d="M230 226.5q0 8.5 8.5 8.5t8.5 -8.5t-8.5 -8.5t-8.5 8.5zM179 174.5q0 8.5 8.5 8.5t8.5 -8.5t-8.5 -8.5t-8.5 8.5zM230 174.5q0 8.5 8.5 8.5t8.5 -8.5t-8.5 -8.5t-8.5 8.5zM205 200.5q0 8.5 8.5 8.5t8.5 -8.5t-8.5 -8.5t-8.5 8.5zM256 200.5q0 8.5 8.5 8.5t8.5 -8.5
t-8.5 -8.5t-8.5 8.5zM205 149.5q0 8.5 8.5 8.5t8.5 -8.5t-8.5 -8.5t-8.5 8.5zM256 149.5q0 8.5 8.5 8.5t8.5 -8.5t-8.5 -8.5t-8.5 8.5zM282 226.5q0 8.5 8.5 8.5t8.5 -8.5t-8.5 -8.5t-8.5 8.5zM282 174.5q0 8.5 8.5 8.5t8.5 -8.5t-8.5 -8.5t-8.5 8.5zM333 174.5
q0 8.5 8.5 8.5t8.5 -8.5t-8.5 -8.5t-8.5 8.5zM307 200.5q0 8.5 8.5 8.5t8.5 -8.5t-8.5 -8.5t-8.5 8.5zM307 149.5q0 8.5 8.5 8.5t8.5 -8.5t-8.5 -8.5t-8.5 8.5zM179 123.5q0 8.5 8.5 8.5t8.5 -8.5t-8.5 -8.5t-8.5 8.5zM230 123.5q0 8.5 8.5 8.5t8.5 -8.5t-8.5 -8.5t-8.5 8.5
zM230 72.5q0 8.5 8.5 8.5t8.5 -8.5t-8.5 -8.5t-8.5 8.5zM205 98.5q0 8.5 8.5 8.5t8.5 -8.5t-8.5 -8.5t-8.5 8.5zM256 98.5q0 8.5 8.5 8.5t8.5 -8.5t-8.5 -8.5t-8.5 8.5zM282 123.5q0 8.5 8.5 8.5t8.5 -8.5t-8.5 -8.5t-8.5 8.5zM282 72.5q0 8.5 8.5 8.5t8.5 -8.5t-8.5 -8.5
t-8.5 8.5zM421 448q13 0 22 -9t9 -22v-71h-239v102h208zM264.5 354q14.5 0 24.5 10t10 24t-10 24t-24.5 10t-24.5 -10t-10 -24t10 -24t24.5 -10zM333 354q8 0 8 8.5t-8 8.5h-9q-8 0 -8 -8.5t8 -8.5h9zM333 380q8 0 8 8.5t-8 8.5h-9q-8 0 -8 -8.5t8 -8.5h9zM333 405
q8 0 8 8.5t-8 8.5h-9q-8 0 -8 -8.5t8 -8.5h9zM384 354q9 0 9 8.5t-9 8.5h-26q-8 0 -8 -8.5t8 -8.5h26zM384 380q9 0 9 8.5t-9 8.5h-26q-8 0 -8 -8.5t8 -8.5h26zM384 405q9 0 9 8.5t-9 8.5h-26q-8 0 -8 -8.5t8 -8.5h26zM68 329h145h239v-342h-392v342h8zM256 55q31 0 57 18
l-7 7q-7 8 -7 18.5t7 17.5q11 11 27 6v2q0 8 8.5 8t8.5 -8q0 -7 -7 -8l4 -5q11 22 11 47q0 33 -19 60q-5 2 -6 7q-26 30 -65 34q5 -2 5 -7q0 -9 -8.5 -9t-8.5 9q0 6 7 8h-7q-18 0 -35 -6q1 -1 1 -2q0 -9 -9 -9q-4 0 -7 4q-9 -5 -18 -12q8 -1 8 -9t-8 -8t-9 8q-7 -9 -12 -18
q4 -3 4 -7q0 -9 -9 -9h-2q-6 -17 -6 -34v-7q1 7 8 7q9 0 9 -8.5t-9 -8.5q-5 0 -8 5q5 -39 35 -65q5 -1 7 -6q27 -20 60 -20zM410 158q0 63 -45 108t-109 45t-109 -45t-45 -108.5t45 -108.5t109 -45q52 0 94 32l-25 25q-26 -19 -57 -22q-2 -1 -3 -1t-1.5 0.5l-0.5 0.5
q-5 -1 -7 -1q-31 0 -57 14.5t-42 39.5q-2 1 -3 4q-17 29 -17 62q0 49 35 84t84 35q33 0 62 -17q2 -1 4 -3q25 -16 39 -42.5t14 -56.5v-7v-0.5v-1.5v-3q-3 -25 -15 -47l31 -31l-6 6q25 38 25 84zM196 346h-128h-8v71q0 13 9 22t22 9h105v-102zM60 -33v3h392v-3q0 -13 -9 -22
t-22 -9h-330q-13 0 -22 9t-9 22z" />
  </g>

</svg>
