<?xml version="1.0" standalone="no"?>
<!DOCTYPE svg PUBLIC "-//W3C//DTD SVG 1.1//EN" "http://www.w3.org/Graphics/SVG/1.1/DTD/svg11.dtd" >
<svg xmlns="http://www.w3.org/2000/svg" xmlns:xlink="http://www.w3.org/1999/xlink" version="1.1" viewBox="-10 0 532 512">
  <g transform="matrix(1 0 0 -1 0 448)">
   <path fill="currentColor"
d="M503 -47q9 0 9 -8.5t-9 -8.5h-93h-26h-256h-26h-93q-9 0 -9 8.5t9 8.5h85v19q-35 9 -45 44l-30 109q-19 5 -19 24q0 18 17 24v45v42q0 9 9 9h25q9 0 9 -8.5t-9 -8.5h-17v-26h22l40 40q3 3 6 3h9q8 0 8 -8.5t-8 -8.5h-5l-38 -38v-39h265v230q0 9 8 9v8h-17q-8 0 -8 8.5
t8 8.5h17q0 9 8.5 9t8.5 -9h9q0 9 8.5 9t8.5 -9h9q0 9 8.5 9t8.5 -9h8q0 9 8.5 9t8.5 -9h9q0 9 8.5 9t8.5 -9h8q0 9 8.5 9t8.5 -9h17q9 0 9 -8.5t-9 -8.5h-17v-8q9 0 9 -9v-401q0 -8 -9 -8h-33q-13 -19 -35 -24v-19h85zM358.5 132q-8.5 0 -8.5 -8.5t8.5 -8.5t8.5 8.5
t-8.5 8.5zM367 72.5q0 8.5 -8.5 8.5t-8.5 -8.5t8.5 -8.5t8.5 8.5zM350 21.5q0 -8.5 8.5 -8.5t8.5 8.5t-8.5 8.5t-8.5 -8.5zM358.5 320q8.5 0 8.5 8.5t-8.5 8.5t-8.5 -8.5t8.5 -8.5zM367 277.5q0 8.5 -8.5 8.5t-8.5 -8.5t8.5 -8.5t8.5 8.5zM358.5 371q8.5 0 8.5 8.5t-8.5 8.5
t-8.5 -8.5t8.5 -8.5zM358.5 235q-8.5 0 -8.5 -8.5t8.5 -8.5t8.5 8.5t-8.5 8.5zM384 90q9 0 9 8.5t-9 8.5t-9 -8.5t9 -8.5zM393 46.5q0 8.5 -9 8.5t-9 -8.5t9 -8.5t9 8.5zM384 141q9 0 9 8.5t-9 8.5t-9 -8.5t9 -8.5zM384 192q9 0 9 8.5t-9 8.5t-9 -8.5t9 -8.5zM384 243
q9 0 9 8.5t-9 8.5t-9 -8.5t9 -8.5zM384 294q9 0 9 8.5t-9 8.5t-9 -8.5t9 -8.5zM384 346q9 0 9 8.5t-9 8.5t-9 -8.5t9 -8.5zM409.5 115q8.5 0 8.5 8.5t-8.5 8.5t-8.5 -8.5t8.5 -8.5zM418 72.5q0 8.5 -8.5 8.5t-8.5 -8.5t8.5 -8.5t8.5 8.5zM409.5 166q8.5 0 8.5 8.5t-8.5 8.5
t-8.5 -8.5t8.5 -8.5zM409.5 218q8.5 0 8.5 8.5t-8.5 8.5t-8.5 -8.5t8.5 -8.5zM409.5 269q8.5 0 8.5 8.5t-8.5 8.5t-8.5 -8.5t8.5 -8.5zM409.5 320q8.5 0 8.5 8.5t-8.5 8.5t-8.5 -8.5t8.5 -8.5zM409.5 371q8.5 0 8.5 8.5t-8.5 8.5t-8.5 -8.5t8.5 -8.5zM401 21.5
q0 -8.5 8.5 -8.5t8.5 8.5t-8.5 8.5t-8.5 -8.5zM435.5 90q8.5 0 8.5 8.5t-8.5 8.5t-8.5 -8.5t8.5 -8.5zM444 46.5q0 8.5 -8.5 8.5t-8.5 -8.5t8.5 -8.5t8.5 8.5zM435.5 141q8.5 0 8.5 8.5t-8.5 8.5t-8.5 -8.5t8.5 -8.5zM435.5 192q8.5 0 8.5 8.5t-8.5 8.5t-8.5 -8.5t8.5 -8.5z
M435.5 243q8.5 0 8.5 8.5t-8.5 8.5t-8.5 -8.5t8.5 -8.5zM435.5 294q8.5 0 8.5 8.5t-8.5 8.5t-8.5 -8.5t8.5 -8.5zM435.5 346q8.5 0 8.5 8.5t-8.5 8.5t-8.5 -8.5t8.5 -8.5zM460.5 13q8.5 0 8.5 8.5t-8.5 8.5t-8.5 -8.5t8.5 -8.5zM460.5 64q8.5 0 8.5 8.5t-8.5 8.5t-8.5 -8.5
t8.5 -8.5zM460.5 115q8.5 0 8.5 8.5t-8.5 8.5t-8.5 -8.5t8.5 -8.5zM460.5 166q8.5 0 8.5 8.5t-8.5 8.5t-8.5 -8.5t8.5 -8.5zM460.5 218q8.5 0 8.5 8.5t-8.5 8.5t-8.5 -8.5t8.5 -8.5zM460.5 269q8.5 0 8.5 8.5t-8.5 8.5t-8.5 -8.5t8.5 -8.5zM460.5 320q8.5 0 8.5 8.5
t-8.5 8.5t-8.5 -8.5t8.5 -8.5zM460.5 371q8.5 0 8.5 8.5t-8.5 8.5t-8.5 -8.5t8.5 -8.5zM469 422h-8v-8h8v8zM444 422h-9v-8h9v8zM418 422h-8v-8h8v8zM393 422h-9v-8h9v8zM358 422v-8h9v8h-9zM358.5 183q-8.5 0 -8.5 -8.5t8.5 -8.5t8.5 8.5t-8.5 8.5zM66 20q4 -14 16 -23.5
t27 -9.5h36h222h36q15 0 26 9h-88h-8v8v120h-296zM362 -30h-212l-8 -17h228z" />
  </g>

</svg>
