<?xml version="1.0" standalone="no"?>
<!DOCTYPE svg PUBLIC "-//W3C//DTD SVG 1.1//EN" "http://www.w3.org/Graphics/SVG/1.1/DTD/svg11.dtd" >
<svg xmlns="http://www.w3.org/2000/svg" xmlns:xlink="http://www.w3.org/1999/xlink" version="1.1" viewBox="-10 0 522 512">
  <g transform="matrix(1 0 0 -1 0 448)">
   <path fill="currentColor"
d="M282 132h-17v-8h102v-69h-19l-40 -119h-104l-40 119h-19v69h102v17h-17q-1 0 -2.5 0.5t-3.5 1.5l-21 22q-11 -7 -24 -7q-17 0 -29.5 12.5t-12.5 30t12.5 30t30 12.5t30 -12.5t12.5 -29.5q0 -13 -7 -24l19 -19h13v85h-17q-1 0 -2.5 1t-3.5 2l-21 21q-11 -7 -24 -7
q-17 0 -29.5 12.5t-12.5 30.5t12.5 30.5t30 12.5t30 -12.5t12.5 -30.5q0 -13 -7 -24l19 -19h13v69q-21 3 -36 20t-15 39q0 25 17.5 42.5t42.5 17.5t42.5 -17.5t17.5 -42.5q0 -22 -15 -39t-36 -20v-86h13l19 19q-7 11 -7 24q0 18 12.5 30.5t30 12.5t30 -12.5t12.5 -30.5
t-12.5 -30.5t-29.5 -12.5q-13 0 -24 7l-21 -21q-2 -2 -3.5 -2.5t-2.5 -0.5h-17v-77h13l19 20q-7 10 -7 23q0 18 12.5 30.5t30 12.5t30 -12.5t12.5 -30.5t-12.5 -30.5t-29.5 -12.5q-13 0 -24 7l-21 -21q-2 -1 -3.5 -2t-2.5 -1zM219.5 6.5q2.5 2.5 2.5 6t-3 6.5q-6 6 -12 0
q-2 -3 -2 -6.5t2.5 -6t6 -2.5t6 2.5zM256 4q9 0 9 8.5t-9 8.5h-17q-9 0 -9 -8.5t9 -8.5h17zM265 30q8 0 8 8.5t-8 8.5h-52q-8 0 -8 -8.5t8 -8.5h52zM296.5 32.5q2.5 2.5 2.5 6t-3 5.5q-6 6 -12 0q-2 -2 -2 -5.5t2.5 -6t6 -2.5t6 2.5z" />
  </g>

</svg>
