<?xml version="1.0" standalone="no"?>
<!DOCTYPE svg PUBLIC "-//W3C//DTD SVG 1.1//EN" "http://www.w3.org/Graphics/SVG/1.1/DTD/svg11.dtd" >
<svg xmlns="http://www.w3.org/2000/svg" xmlns:xlink="http://www.w3.org/1999/xlink" version="1.1" viewBox="-11 0 534 512">
  <g transform="matrix(1 0 0 -1 0 448)">
   <path fill="currentColor"
d="M511 216q4 -16 -3 -30t-22 -20v-81q0 -12 -7 -21t-18 -12v-35q0 -8 -9 -8h-25q-6 0 -8 5l-15 37h-296l-15 -37q-2 -5 -8 -5h-25q-9 0 -9 8v35q-11 3 -18 12t-7 21v81q-14 5 -21 18t-5 27q2 13 12 23l-5 31q-4 20 7.5 38t31.5 24q7 2 14 2q17 0 31 -10q5 24 28 34
q9 4 20 4q19 0 33 -13q3 8 9 14q15 17 37 17h76q22 0 37 -17q5 -6 9 -14q14 13 33 13q11 0 20 -4q24 -10 29 -36q14 12 32 12q8 0 15 -3q19 -5 29.5 -22t7.5 -36l-6 -34q8 -8 11 -18zM98 119h149v20q-1 1 -2 1q-8 3 -15 5h-0.5h-1.5q-8 2 -17 4l-3 1q-4 0 -12 1q-6 1 -9 1
q-5 1 -11 1h-10q-4 0 -9.5 -0.5t-10.5 -1.5q-5 0 -9 -1q-6 -1 -11 -2q-6 -1 -9 -2l-8 -2q-5 -1 -10 -3q-3 -1 -5 -2v-15q0 -5 4 -5zM265 139v-20h149q4 0 4 5v15q-2 1 -5 2q-5 2 -10 3l-8 2q-3 1 -9 2q-5 1 -11 2q-5 1 -9 1q-5 1 -10.5 1.5t-9.5 0.5h-10q-6 0 -11 -1
q-3 0 -9 -1q-8 -1 -12 -1l-3 -1q-9 -2 -17 -4h-1.5h-0.5q-7 -2 -15 -5q-1 0 -2 -1zM373 340q-11 0 -20 -7t-11 -18l-23 -146q11 1 22 1q23 0 45 -4l13 96l6 41q2 11 -3.5 20.5t-15.5 14.5q-6 2 -13 2zM126 338q-10 -5 -15.5 -14.5t-3.5 -20.5l2 -16l17 -121h1q6 1 14 2
q2 0 4 1q7 0 13 1h5h10h7q5 0 10 -1h1h2l-23 146q-2 11 -11 18t-20 7q-7 0 -13 -2zM476 180q9 3 15 11.5t3 19.5q-2 8 -8 13q-8 6 -18 6h-6q-11 -2 -19 -13t-8 -25v-47v-21v-13q0 -9 -8 -9h-13h-158h-158h-13q-8 0 -8 9v13v21v48q0 17 -11 28q-10 9 -22 9h-5q-7 -1 -12 -6
h-1q-7 -6 -9 -15q-1 -10 4.5 -18t14.5 -11q1 0 2 -1h13q9 0 9 -8.5t-9 -8.5h-8v-77q0 -7 4.5 -12t11.5 -5h1h42h308h42h1q7 0 11.5 5t4.5 12v77h-8q-9 0 -9 8.5t9 8.5h13q1 1 2 1z" />
  </g>

</svg>
