<?xml version="1.0" standalone="no"?>
<!DOCTYPE svg PUBLIC "-//W3C//DTD SVG 1.1//EN" "http://www.w3.org/Graphics/SVG/1.1/DTD/svg11.dtd" >
<svg xmlns="http://www.w3.org/2000/svg" xmlns:xlink="http://www.w3.org/1999/xlink" version="1.1" viewBox="-10 0 522 512">
  <g transform="matrix(1 0 0 -1 0 448)">
   <path fill="currentColor"
d="M464 -12h18v-52h-452v52h18v252q0 86 61 147t147 61t147 -61t61 -147v-252zM65 240v-252h382v252q0 79 -56 135t-135 56t-135 -56t-56 -135zM437 257h-160l109 110q45 -46 51 -110zM256 422q67 0 118 -44l-118 -117l-118 117q51 44 118 44zM241 341q-2 -2 -2 -5.5t2.5 -6
t6 -2.5t6 2.5t2.5 6t-3 5.5q-6 7 -12 0zM271 312q6 6 0 12t-12 0l-18 -17q-6 -7 0 -13q3 -2 6.5 -2t5.5 2zM282.5 327q3.5 0 6 2.5t2.5 6t-3 5.5q-6 7 -12 0q-3 -2 -3 -5.5t3 -6t6.5 -2.5zM126 367l109 -110h-160q6 64 51 110zM74 136v104h173v-104h-173zM137 229
q-2 -3 -2 -6.5t2.5 -6t6 -2.5t6 2.5t2.5 6t-3 6.5q-6 6 -12 0zM102 229q-2 -3 -2 -6.5t2.5 -6t6 -2.5t6 2.5t2.5 6t-2 6.5q-7 6 -13 0zM102 194q-6 -6 0 -12q3 -3 6.5 -3t6.5 3l17 17q6 6 0 12t-12 0zM265 136v104h173v-104h-173zM311 229q-3 -3 -3 -6.5t2.5 -6t6 -2.5
t6 2.5t2.5 6t-2 6.5q-6 6 -12 0zM276 229q-3 -3 -3 -6.5t3 -6t6.5 -2.5t6 2.5t2.5 6t-3 6.5q-6 6 -12 0zM276 194q-6 -6 0 -12q2 -3 6 -3t6 3l18 17q6 6 -0.5 12t-12.5 0zM74 -3v121h173v-121h-173zM236 25.5q3 2.5 3 6t-3 6.5q-6 6 -12 0q-3 -3 -3 -6.5t2.5 -6t6 -2.5
t6.5 2.5zM206 55q-6 -6 0 -12q3 -3 6.5 -3t6.5 3l17 17q6 6 0 12t-12 0zM189 38q-2 -3 -2 -6.5t2.5 -6t6 -2.5t6 2.5t2.5 6t-3 6.5q-6 6 -12 0zM265 -3v121h173v-121h-173zM409.5 25.5q2.5 2.5 2.5 6t-2 6.5q-7 6 -13 0q-2 -3 -2 -6.5t2.5 -6t6 -2.5t6 2.5zM380 55
q-6 -6 0 -12q3 -3 6.5 -3t5.5 3l18 17q6 6 0 12t-13 0zM363 38q-3 -3 -3 -6.5t2.5 -6t6 -2.5t6 2.5t2.5 6t-2 6.5q-6 6 -12 0z" />
  </g>

</svg>
