<?xml version="1.0" standalone="no"?>
<!DOCTYPE svg PUBLIC "-//W3C//DTD SVG 1.1//EN" "http://www.w3.org/Graphics/SVG/1.1/DTD/svg11.dtd" >
<svg xmlns="http://www.w3.org/2000/svg" xmlns:xlink="http://www.w3.org/1999/xlink" version="1.1" viewBox="-10 0 522 512">
  <g transform="matrix(1 0 0 -1 0 448)">
   <path fill="currentColor"
d="M495 137q0 -20 -18 -28q-8 -51 -63 -87.5t-132 -41.5v-35q0 -9 -9 -9h-34q-9 0 -9 9v35q-77 5 -132 41.5t-63 87.5q-18 8 -18 28q0 12 9 20.5t21 8.5h131l-24 24q-6 6 0 12l31 30q6 6 12 0l16 -16v27q-8 0 -8 9v34q0 8 8 8h86q8 0 8 -8v-34q0 -9 -8 -9v-26l15 15
q6 6 12 0l30 -30q6 -6 0 -12l-24 -24h133q12 0 21 -8.5t9 -20.5zM282 243h-52v-48v-29h52v31v46zM467 124q11 2 11 13q0 5 -4 8.5t-9 3.5h-153h-21h-1h-68h-3h-20h-152q-5 0 -9 -3.5t-4 -8.5q0 -11 11 -13h2h418h2zM34 243q-8 0 -8 9v187q0 9 8.5 9t8.5 -9v-179h145
q8 0 8 -8.5t-8 -8.5h-154zM324 243q-8 0 -8 8.5t8 8.5h145v179q0 9 8.5 9t8.5 -9v-187q0 -9 -8 -9h-154zM68 277q-8 0 -8 9v153q0 9 8.5 9t8.5 -9v-145h111q8 0 8 -8.5t-8 -8.5h-120zM324 277q-8 0 -8 8.5t8 8.5h111v145q0 9 8.5 9t8.5 -9v-153q0 -9 -8 -9h-120zM384 337
q-4 0 -6 3q-6 6 0 12l17 17q6 6 12 0t0 -12l-17 -17q-2 -3 -6 -3zM395 335q6 6 12 0q3 -3 3 -6.5t-2.5 -6t-6 -2.5t-6 2.5t-2.5 6t2 6.5zM366.5 320q-3.5 0 -6 2.5t-2.5 6t3 6.5q6 6 12 0q2 -3 2 -6.5t-2.5 -6t-6 -2.5z" />
  </g>

</svg>
