<?xml version="1.0" standalone="no"?>
<!DOCTYPE svg PUBLIC "-//W3C//DTD SVG 1.1//EN" "http://www.w3.org/Graphics/SVG/1.1/DTD/svg11.dtd" >
<svg xmlns="http://www.w3.org/2000/svg" xmlns:xlink="http://www.w3.org/1999/xlink" version="1.1" viewBox="-10 0 522 512">
  <g transform="matrix(1 0 0 -1 0 448)">
   <path fill="currentColor"
d="M375 132h-17h-47l17 -17h22q8 0 8 -8.5t-8 -8.5h-26q-1 0 -3 0.5t-3 2.5l-28 28v-22h-8v-26h-17v-17h17v-10l104 -24q0 -1 1 -1l1 -0.5t1.5 -1l1 -1l1 -1t0.5 -1.5v-2l1 -1v-9q14 -1 24 -12t10 -26t-11.5 -26.5t-27.5 -11.5t-27 11.5t-11 26.5q0 27 25 36v5l-93 21v-3
l20 -20h1q16 0 27 -11.5t11 -27t-11 -27t-27 -11.5t-27 11.5t-11 26.5q0 22 19 33l-14 14h-28l-14 -14q19 -11 19 -33q0 -15 -11 -26.5t-27 -11.5t-27 11.5t-11 27t11 27t27 11.5h1l20 20v3l-93 -21v-5q25 -9 25 -36q0 -15 -11 -26.5t-27 -11.5t-27.5 11.5t-11.5 26.5t10 26
t24 12v9l1 1v2t0.5 1.5l1 1l1 1t1.5 1l1 0.5q1 0 1 1l104 24v10h17v17h-17v26h-8v25h-68h-17h-60v120h60v172q0 10 7 17t17 7h190q10 0 17 -7t7 -17v-172h60v-120h-60zM375 192v-43h43v86h-43v-26v-17zM137 209v26h-43v-86h43v43v17zM282 397q-9 0 -9 -8.5t9 -8.5h8v-9
q0 -8 8.5 -8t8.5 8v9h9q8 0 8 8.5t-8 8.5h-9v8q0 9 -8.5 9t-8.5 -9v-8h-8zM282 329q-9 0 -9 -9t9 -9h8v-8q0 -9 8.5 -9t8.5 9v8h9q8 0 8 9t-8 9h-9v8q0 9 -8.5 9t-8.5 -9v-8h-8zM282 260q-9 0 -9 -8.5t9 -8.5h8v-8q0 -9 8.5 -9t8.5 9v8h9q8 0 8 8.5t-8 8.5h-9v9q0 8 -8.5 8
t-8.5 -8v-9h-8zM196 397q-8 0 -8 -8.5t8 -8.5h9v-9q0 -8 8.5 -8t8.5 8v9h8q9 0 9 8.5t-9 8.5h-8v8q0 9 -8.5 9t-8.5 -9v-8h-9zM196 329q-8 0 -8 -9t8 -9h9v-8q0 -9 8.5 -9t8.5 9v8h8q9 0 9 9t-9 9h-8v8q0 9 -8.5 9t-8.5 -9v-8h-9zM196 260q-8 0 -8 -8.5t8 -8.5h9v-8
q0 -9 8.5 -9t8.5 9v8h8q9 0 9 8.5t-9 8.5h-8v9q0 8 -8.5 8t-8.5 -8v-9h-9zM290 149h68v43h-204v-43h68h68z" />
  </g>

</svg>
