<?xml version="1.0" standalone="no"?>
<!DOCTYPE svg PUBLIC "-//W3C//DTD SVG 1.1//EN" "http://www.w3.org/Graphics/SVG/1.1/DTD/svg11.dtd" >
<svg xmlns="http://www.w3.org/2000/svg" xmlns:xlink="http://www.w3.org/1999/xlink" version="1.1" viewBox="-10 0 532 512">
  <g transform="matrix(1 0 0 -1 0 448)">
   <path fill="currentColor"
d="M401 201q-8 0 -8 -9t8 -9h8q-2 -8 -7 -14l-5 5q-6 6 -12 0t0 -12l5 -6q-7 -4 -15 -6v8q0 8 -8.5 8t-8.5 -8v-8q-8 2 -15 6l6 6q6 6 0 12t-12 0l-6 -5q-4 6 -6 14h8q8 0 8 9t-8 9h-8q2 8 6 14l6 -5q2 -2 5.5 -2t6.5 2q6 6 0 12l-6 6q7 4 15 6v-8q0 -8 8.5 -8t8.5 8v8
q8 -2 15 -6l-5 -6q-6 -6 0 -12q3 -2 6.5 -2t5.5 2l5 5q5 -6 7 -14h-8zM68 38v35h103v-35h-103zM478 243h34v-17q0 -8 -9 -8h-42v-273q0 -9 -9 -9h-404q-20 0 -34 14t-14 34v40q0 20 14 34.5t34 14.5h3v-43q0 -9 9 -9h119q9 0 9 9v43h85v196h-68v-34q0 -9 -9 -9h-51v-68h4
q9 0 15.5 -6.5t6.5 -15t-6.5 -15t-15.5 -6.5h-21v-17q0 -8 -8.5 -8t-8.5 8v17h-21q-9 0 -15.5 6.5t-6.5 15t6.5 15t15.5 6.5h4v68h-60q-8 0 -8 9v42h59q9 0 9 8.5t-9 8.5h-59v120q0 8 8 8h231v17q0 9 8 9h43q8 0 8 -9v-17h17v17q0 9 9 9h43q8 0 8 -9v-17h51q9 0 9 -8v-77h42
q9 0 9 -8v-18h-34q-9 0 -9 -8.5t9 -8.5h34v-8h-34q-9 0 -9 -8.5t9 -8.5h34v-9h-34q-9 0 -9 -8.5t9 -8.5zM128 158v68h-17v-68h17zM358 431v-9h26v9h-26zM282 431v-9h25v9h-25zM333 64q8 0 8 8.5t-8 8.5h-17q-9 0 -9 -8.5t9 -8.5h17zM333 90q8 0 8 8.5t-8 8.5h-17
q-9 0 -9 -8.5t9 -8.5h17zM375 64q9 0 9 8.5t-9 8.5h-17q-8 0 -8 -8.5t8 -8.5h17zM375 90q9 0 9 8.5t-9 8.5h-17q-8 0 -8 -8.5t8 -8.5h17zM418 64q9 0 9 8.5t-9 8.5h-17q-8 0 -8 -8.5t8 -8.5h17zM418 90q9 0 9 8.5t-9 8.5h-17q-8 0 -8 -8.5t8 -8.5h17zM409 150q18 17 18 42
t-18 42v0q-17 18 -42 18t-42 -18v0q-18 -17 -18 -42t18 -42v0q17 -18 42 -18t42 18v0z" />
  </g>

</svg>
