<?xml version="1.0" standalone="no"?>
<!DOCTYPE svg PUBLIC "-//W3C//DTD SVG 1.1//EN" "http://www.w3.org/Graphics/SVG/1.1/DTD/svg11.dtd" >
<svg xmlns="http://www.w3.org/2000/svg" xmlns:xlink="http://www.w3.org/1999/xlink" version="1.1" viewBox="-10 0 522 512">
  <g transform="matrix(1 0 0 -1 0 448)">
   <path fill="currentColor"
d="M183 167q-7 4 -3 12q10 22 31 34.5t45 12.5q9 0 9 -8.5t-9 -8.5q-42 0 -61 -38q-3 -5 -8 -5q-2 0 -4 1zM171 149.5q0 8.5 8.5 8.5t8.5 -8.5t-8.5 -8.5t-8.5 8.5zM157 75q-2 1 -3 4q-17 29 -17 62q0 49 35 84t84 35t84 -35t35 -84q0 -47 -31 -81t-77 -38q-1 -1 -2 -1t-2 1
q-6 -1 -7 -1q-6 0 -12 1h-1.5h-1.5q-5 1 -9 2h-0.5h-1.5q-5 1 -9 3h-1q-28 9 -48 29l-5 5q-6 7 -10 14zM206 77q-9 -6 -16 -13q4 -2 6 -6l1 -0.5t1 -1.5q1 0 1.5 -0.5l0.5 -0.5q3 -2 7 -4l1 -1q4 -2 7 -3q1 -1 2 -1q3 -1 7 -2l3 -1q2 -1 6 -2q1 0 2 -0.5l1 -0.5q3 0 7 -1h2
h1q5 -1 10 -1t10 1h2h1q4 1 7 1l3 1q4 1 6 2q1 0 4 1t5 2t4 1q3 2 5 3t3 2q2 1 5 3q2 1 3 2q2 1 5 3l3 2q1 2 4 5q1 0 1.5 0.5l1.5 1.5q3 3 6 7v0q3 4 6 7q0 1 0.5 2l0.5 1q2 3 4 5l1.5 3.5t2.5 5.5q0 1 1 3.5t2 5.5q1 1 1 4q1 2 2 5q0 2 1 4v1v1q-5 -5 -12 -10q5 -2 5 -7
q0 -9 -9 -9q-7 0 -8 8q-28 -16 -60 -16h-8h-18q-13 0 -26 -5q1 -2 1 -4q0 -8 -9 -8q-5 0 -7 4zM256 243q-42 0 -72 -30t-30 -72q0 -37 23 -66q29 32 70 32h26q50 0 81 39q1 2 4 4q-3 39 -32.5 66t-69.5 27zM230 55.5q0 8.5 8.5 8.5t8.5 -8.5t-8.5 -8.5t-8.5 8.5zM256 81.5
q0 8.5 8.5 8.5t8.5 -8.5t-8.5 -8.5t-8.5 8.5zM307 81.5q0 8.5 8.5 8.5t8.5 -8.5t-8.5 -8.5t-8.5 8.5zM282 55.5q0 8.5 8.5 8.5t8.5 -8.5t-8.5 -8.5t-8.5 8.5zM188 448v-102h-128v71q0 13 9 22t22 9h97zM136.5 354q14.5 0 24.5 10t10 24t-10 24t-24.5 10t-24.5 -10t-10 -24
t10 -24t24.5 -10zM421 448q13 0 22 -9t9 -22v-71h-128v102h97zM375.5 354q14.5 0 24.5 10t10 24t-10 24t-24.5 10t-24.5 -10t-10 -24t10 -24t24.5 -10zM205 346v102h102v-102h-102zM60 -33v362h392v-362q0 -13 -9 -22t-22 -9h-330q-13 0 -22 9t-9 22zM256 294
q-64 0 -109 -45t-45 -108.5t45 -108.5t109 -45t109 45t45 108.5t-45 108.5t-109 45z" />
  </g>

</svg>
