<?xml version="1.0" standalone="no"?>
<!DOCTYPE svg PUBLIC "-//W3C//DTD SVG 1.1//EN" "http://www.w3.org/Graphics/SVG/1.1/DTD/svg11.dtd" >
<svg xmlns="http://www.w3.org/2000/svg" xmlns:xlink="http://www.w3.org/1999/xlink" version="1.1" viewBox="-10 0 522 512">
  <g transform="matrix(1 0 0 -1 0 448)">
   <path fill="currentColor"
d="M172 299q0 9 9.5 9t9.5 -9t-9.5 -9t-9.5 9zM284 364.5q0 9.5 9.5 9.5t9.5 -9.5t-9.5 -9.5t-9.5 9.5zM293 243.5q0 9.5 9.5 9.5t9.5 -9.5t-9.5 -9.5t-9.5 9.5zM442 280h9v-9q0 -47 -32 -82t-79 -38v-10h46v-75h-24l-34 -130h-163l-34 130h-24v75h65v19q-47 3 -79 38
t-32 82v10h9q15 0 30 -4q-2 7 -2 13q0 18 14 29q-2 18 10.5 30.5t30.5 10.5q11 14 29 14q17 0 28 -14q2 15 13 24q-2 18 11 30.5t30 10.5q11 14 29 14t29 -14q18 2 30.5 -10.5t10.5 -30.5q14 -11 14 -29t-14 -29q2 -15 -8 -27q4 -3 7 -6q12 -12 10 -30q5 -4 8 -9
q29 17 62 17zM206.5 13q2.5 3 2.5 7t-2 6q-7 7 -13 0q-3 -2 -3 -6t2.5 -7t6.5 -3t6.5 3zM247 10q9 0 9 9.5t-9 9.5h-19q-9 0 -9 -9.5t9 -9.5h19zM256 38q9 0 9 9.5t-9 9.5h-56q-9 0 -9 -9.5t9 -9.5h56zM290.5 41q2.5 3 2.5 7t-2 6q-7 7 -14 0q-2 -3 -2 -6.5t2.5 -6.5t6.5 -3
t6.5 3zM365 253q-3 4 -7 7l-7 3l2 8q3 10 -4.5 18t-18.5 5l-7 -3l-4 7v1l-0.5 0.5l-0.5 0.5q-1 2 -2 3q-1 0 -1.5 0.5l-0.5 0.5q-2 1 -2 2q-1 0 -3 1l-0.5 0.5t-1.5 0.5h-4q-12 0 -17 -10l-3 -7l-8 3h-3l-2 1h-1q-5 -1 -8 -3h-1q-2 -1 -4 -3q-1 -1 -2 -3l-1 -1q-1 -2 -1 -4
v-1q-1 -1 -1 -3v-0.5v-1.5q0 -2 1 -4l2 -8l-6 -3l-1 -1h-1l-3 -3l-1 -1l-2 -2q-1 -1 -1 -4l-0.5 -0.5l-0.5 -0.5q-1 -2 -1 -5q0 -5 3 -10q5 -1 6 -5l1 -1l7 -4l-2 -7q-3 -11 4.5 -19t18.5 -4l8 2l3 -7q5 -10 16.5 -10t16.5 10l4 7l3 -1v0q1 1 1.5 2.5l0.5 1.5q1 4 2 6
q1 3 2 4q1 3 3 7l0.5 1t0.5 2q3 4 5 8l2.5 3t4.5 6l3 3q1 2 3 4l4 4l3 3q1 0 1 1zM284 141h9v20q-4 1 -9 4v-24zM247 141h18v32q-10 2 -18 8v-40zM219 141h9v78q-4 5 -6 11q-2 -1 -3 -1v-88zM238 381q-10 -6 -10 -17q0 -1 1 -4q0 -1 0.5 -2l1 -2t0.5 -2l2 -2l1 -1q2 -2 4 -3
l7 -4l-2 -7q-4 -11 4 -19q2 -2 4 -3h1q2 -1 5 -2h2h1q3 0 6 1l7 2l1 -2q1 0 3 3l1 1t2 1q1 1 4 3l1 0.5t2 0.5q1 1 5 2l1 0.5l1 0.5q4 1 8.5 1t8.5 -1q11 -3 20 -12v-1q5 2 8 5q8 8 5 19l-3 7l7 4q10 5 10 16t-10 17l-7 3l3 8q3 10 -5 18t-18 5l-8 -3l-3 7q-6 10 -17 10
t-16 -10l-4 -7l-7 3q-3 1 -6 1q-7 0 -13 -6q-8 -8 -4 -18l2 -8zM131 273q1 0 1 -0.5t1 -0.5q6 -4 12 -9l0.5 -0.5t1.5 -0.5q5 -4 11 -10l0.5 -0.5t0.5 -1.5l2 1l4 -7q5 -10 16.5 -10t16.5 10l4 7l7 -2q5 -2 10 -1q0 1 0.5 1.5l0.5 0.5q0 1 0.5 3t1.5 4l1.5 3t1.5 4l2 3
q3 2 5 5l-2 7l3 2v0q0 3 1 6l1 2q1 4 3 7q1 0 1 1q1 2 2 3q-4 2 -7 5t-5 6.5t-4 7.5q-1 2 -1 6q0 1 -0.5 1.5l-0.5 0.5v8q-2 2 -5 6h-1q-2 3 -3 6q-1 1 -1 2l-0.5 0.5l-0.5 0.5h-3l-7 -3l-4 7q-5 10 -16.5 10t-16.5 -10l-3 -7l-8 3q-11 3 -18.5 -5t-4.5 -19l2 -7l-7 -4
q-10 -5 -10 -16t10 -16l7 -4zM191 159v-18h9v80q-5 -3 -9 -4v-48v-10zM312 141h9v9v9v4v2q-4 -3 -9 -4v-20z" />
  </g>

</svg>
