<?xml version="1.0" standalone="no"?>
<!DOCTYPE svg PUBLIC "-//W3C//DTD SVG 1.1//EN" "http://www.w3.org/Graphics/SVG/1.1/DTD/svg11.dtd" >
<svg xmlns="http://www.w3.org/2000/svg" xmlns:xlink="http://www.w3.org/1999/xlink" version="1.1" viewBox="-10 0 523 512">
  <g transform="matrix(1 0 0 -1 0 448)">
   <path fill="currentColor"
d="M448 283q23 0 39 -16t16 -38v-174q0 -18 -10.5 -32t-26.5 -20v-40h-18v-9q9 0 9 -9t-9 -9h-18q-9 0 -9 9t9 9v9h-19v37h-310v-37h-19v-9q9 0 9 -9t-9 -9h-18q-9 0 -9 9t9 9v9h-18v40q-16 6 -26.5 20t-10.5 32v174q0 22 16 38t39 16v44q0 46 38 72q69 49 154 49t154 -49
q38 -26 38 -72v-44zM338 357q-9 0 -9 -9.5t9 -9.5t9 9.5t-9 9.5zM338 302q-9 0 -9 -9.5t9 -9.5t9 9.5t-9 9.5zM338 247q-9 0 -9 -9t9 -9t9 9t-9 9zM310.5 329q-9.5 0 -9.5 -9t9.5 -9t9.5 9t-9.5 9zM310.5 274q-9.5 0 -9.5 -9t9.5 -9t9.5 9t-9.5 9zM283 357q-9 0 -9 -9.5
t9 -9.5t9 9.5t-9 9.5zM283 302q-9 0 -9 -9.5t9 -9.5t9 9.5t-9 9.5zM283 247q-9 0 -9 -9t9 -9t9 9t-9 9zM256 329q-9 0 -9 -9t9 -9t9 9t-9 9zM256 274q-9 0 -9 -9t9 -9t9 9t-9 9zM228 357q-9 0 -9 -9.5t9 -9.5t9 9.5t-9 9.5zM228 302q-9 0 -9 -9.5t9 -9.5t9 9.5t-9 9.5z
M228 247q-9 0 -9 -9t9 -9t9 9t-9 9zM201 329q-9 0 -9 -9t9 -9t9 9t-9 9zM201 274q-9 0 -9 -9t9 -9t9 9t-9 9zM173.5 357q-9.5 0 -9.5 -9.5t9.5 -9.5t9.5 9.5t-9.5 9.5zM173.5 302q-9.5 0 -9.5 -9.5t9.5 -9.5t9.5 9.5t-9.5 9.5zM173.5 247q-9.5 0 -9.5 -9t9.5 -9t9.5 9
t-9.5 9zM485 55v174q0 15 -11 25.5t-26 10.5q-4 0 -7.5 -0.5t-6.5 -2.5h-1.5t-0.5 -1q-3 -1 -4 -2l-2 -1.5t-3 -2.5q-1 0 -2.5 -1.5t-2.5 -3t-1.5 -2.5l-1.5 -3t-1 -3q-1 -2 -1 -4l-0.5 -1t-0.5 -2q-1 -3 -1 -6v-55h-311v55v6q-1 1 -1 2v1q-1 2 -1 4q-1 1 -1.5 2.5t-1.5 3.5
q-1 1 -2 2.5t-2.5 2.5t-1.5 2q-2 1 -3.5 2.5l-1.5 1.5q-2 1 -5 2q0 1 -0.5 1h-0.5q-4 2 -7 2q-4 1 -7 1q-15 0 -26 -10.5t-11 -25.5v-174q0 -15 11 -26t26 -11h37h310h37q15 0 26 11t11 26zM274 155h137v-27q0 -23 -16 -39t-39 -16h-201q-23 0 -39 16t-16 39v27h138l-17 -22
q-5 -7 2 -12q3 -2 6 -2q4 0 7 4l20 26l20 -26q3 -4 7 -4q3 0 6 2q7 5 2 12z" />
  </g>

</svg>
