<?xml version="1.0" standalone="no"?>
<!DOCTYPE svg PUBLIC "-//W3C//DTD SVG 1.1//EN" "http://www.w3.org/Graphics/SVG/1.1/DTD/svg11.dtd" >
<svg xmlns="http://www.w3.org/2000/svg" xmlns:xlink="http://www.w3.org/1999/xlink" version="1.1" viewBox="-10 0 532 512">
  <g transform="matrix(1 0 0 -1 0 448)">
   <path fill="currentColor"
d="M512 299v-222q0 -9 -9 -9h-25v-25q0 -9 -9 -9h-51q-8 0 -8 9v25h-308v-25q0 -9 -8 -9h-51q-9 0 -9 9v25h-25q-9 0 -9 9v222q0 1 1 2v1q1 2 1 3l43 42q3 3 6 3h60h290h60q3 0 6 -3l43 -42q0 -1 1 -3v-1q1 -1 1 -2zM410 321v-113l25 -31v118zM358.5 290q-8.5 0 -8.5 -8.5
t8.5 -8.5t8.5 8.5t-8.5 8.5zM341.5 265q-8.5 0 -8.5 -9t8.5 -9t8.5 9t-8.5 9zM324.5 290q-8.5 0 -8.5 -8.5t8.5 -8.5t8.5 8.5t-8.5 8.5zM307.5 265q-8.5 0 -8.5 -9t8.5 -9t8.5 9t-8.5 9zM290.5 290q-8.5 0 -8.5 -8.5t8.5 -8.5t8.5 8.5t-8.5 8.5zM213.5 290q-8.5 0 -8.5 -8.5
t8.5 -8.5t8.5 8.5t-8.5 8.5zM196.5 265q-8.5 0 -8.5 -9t8.5 -9t8.5 9t-8.5 9zM179.5 290q-8.5 0 -8.5 -8.5t8.5 -8.5t8.5 8.5t-8.5 8.5zM162.5 265q-8.5 0 -8.5 -9t8.5 -9t8.5 9t-8.5 9zM145.5 290q-8.5 0 -8.5 -8.5t8.5 -8.5t8.5 8.5t-8.5 8.5zM77 295v-118l25 31v113z
M85 51v17h-34v-17h34zM239 162v34h-124l-29 -34h153zM256 162h170l-29 34h-141v-34zM461 51v17h-34v-17h34z" />
  </g>

</svg>
