<?xml version="1.0" standalone="no"?>
<!DOCTYPE svg PUBLIC "-//W3C//DTD SVG 1.1//EN" "http://www.w3.org/Graphics/SVG/1.1/DTD/svg11.dtd" >
<svg xmlns="http://www.w3.org/2000/svg" xmlns:xlink="http://www.w3.org/1999/xlink" version="1.1" viewBox="-10 0 522 512">
  <g transform="matrix(1 0 0 -1 0 448)">
   <path fill="currentColor"
d="M299 269q0 -18 -12.5 -30.5t-30.5 -12.5q-17 0 -30 12v1q-3 2 -5 5q0 1 -0.5 1h-0.5q-2 3 -3 7l-1 1q-1 4 -2 7v1q-1 4 -1 8q0 3 1 7v2q1 4 3 7v1q11 25 39 25h8l2 -1q3 -1 5 -1q2 -1 3 -2q2 -1 5 -2l1 -1q3 -2 6 -5l1 -1q12 -12 12 -29zM208 233l1 -1l0.5 -0.5l0.5 -0.5
q-3 -1 -11 -2q-24 -3 -31 -15q-10 -15 -2 -48q-44 39 -46 98q2 41 33 41q19 0 47 -15v-1q-1 -2 -1 -4q-1 -1 -1 -2v-1q-1 -1 -1 -4v-1v-1q-1 -4 -1 -7t1 -7v-2v0q0 -3 0.5 -4t0.5 -2v-1l1.5 -3t0.5 -2v-1q1 -1 1 -2l1 -1l1 -2v-1q1 -1 1 -2q1 0 1 -1l1 -1v-1l2 -2v-1z
M248 373q-9 15 -41 23q4 2 8 3q52 16 100 -7q24 -15 24 -33q1 -24 -39 -50l-1 1l-2 2l-2 2l-2 2t-2 1q-2 1 -4 3h-1l-4 2l-1 1q-2 1 -5 2q-2 1 -5 1.5t-6 1.5h-6q-1 0 -3 1l-1 -1q-6 0 -11 -1q0 4 3 11q8 22 1 35zM435 269q0 -67 -44 -117.5t-109 -59.5v-19h8q9 0 9 -9v-51
q0 -9 -9 -9h-8v-25h42q9 0 9 -9v-17h17q8 0 8 -8.5t-8 -8.5h-26h-136h-26q-8 0 -8 8.5t8 8.5h17v17q0 9 9 9h42v25h-8q-9 0 -9 9v51q0 9 9 9h8v19q-65 9 -109 59.5t-44 117.5q0 74 52.5 126.5t126.5 52.5t126.5 -52.5t52.5 -126.5zM201 212q16 2 23 7q12 -8 26 -10
q1 -25 7.5 -42.5t15.5 -25t16 -10t15 -2.5q16 0 36 11q32 21 51 55t19 73q0 6 -6 8t-9 -2q-31 -36 -46 -36q-6 0 -16 13q-10 12 -17 15v1.5v1.5q0 13 -6 26q47 31 46 64q0 28 -33 48q-55 26 -113 9q-17 -6 -34 -16q-5 -3 -4 -8.5t7 -6.5q47 -8 54 -21q3 -5 -2.5 -20
t-4.5 -24q-10 -6 -18 -15q-31 17 -55 17q-23 0 -36 -15t-14 -43q1 -39 20.5 -72.5t53.5 -54.5q2 -1 4 -1q3 0 6 2q4 4 2 9q-15 45 -7 58q3 5 19 7zM265 -21v25h-18v-25h18zM265 90h-18v-17h18v17zM287 217q18 11 25 31q3 -2 7 -8q16 -19 30 -19q18 0 41 23q-10 -58 -59 -90
q-15 -8 -27 -8q-34 0 -37 64q11 2 20 7z" />
  </g>

</svg>
