<?xml version="1.0" standalone="no"?>
<!DOCTYPE svg PUBLIC "-//W3C//DTD SVG 1.1//EN" "http://www.w3.org/Graphics/SVG/1.1/DTD/svg11.dtd" >
<svg xmlns="http://www.w3.org/2000/svg" xmlns:xlink="http://www.w3.org/1999/xlink" version="1.1" viewBox="-10 0 532 512">
  <g transform="matrix(1 0 0 -1 0 448)">
   <path fill="currentColor"
d="M254 351q-1 1 -1.5 2.5t-0.5 3.5v26q0 9 8.5 9t8.5 -9v-23l15 -14q6 -6 0 -13q-3 -2 -6.5 -2t-5.5 2zM512 196q0 -36 -25 -62.5t-62 -28.5l26 -146q1 -4 -1.5 -7t-6.5 -3h-22q-7 0 -9 7l-37 149h-238l-37 -149q-2 -7 -9 -7h-22q-4 0 -6.5 3t-1.5 7l26 146q-37 2 -62 28.5
t-25 62.5q0 38 26.5 64.5t64.5 26.5h117q0 4 3 7l14 14q-25 18 -25 49q0 10 3 19q-21 7 -21 29q0 12 9 21t22 9q21 0 28 -21q10 4 19.5 4t18.5 -4q8 21 29 21q13 0 21.5 -9t8.5 -21q0 -22 -20 -29q3 -9 3 -19q0 -31 -25 -49l14 -14q2 -3 2 -7h109q38 0 64.5 -26.5
t26.5 -64.5zM217 357q0 -18 12.5 -31t30.5 -13t31 13t13 31t-13 30.5t-31 12.5t-30.5 -12.5t-12.5 -30.5zM240 299l-11 -12h62l-11 12v0q-10 -3 -20 -3t-19 3h-1zM421 140q23 0 39.5 16.5t16.5 40t-16.5 40t-39.5 16.5h-330q-23 0 -39.5 -16.5t-16.5 -40t16.5 -40
t39.5 -16.5h330zM421 235q16 0 27.5 -11.5t11.5 -27.5t-11.5 -27.5t-27.5 -11.5h-330q-16 0 -27.5 11.5t-11.5 27.5t11.5 27.5t27.5 11.5h330zM186.5 183q5.5 0 9.5 4t4 9.5t-4 9t-9.5 3.5t-9 -3.5t-3.5 -9t3.5 -9.5t9 -4zM334 183q5 0 9 4t4 9.5t-4 9t-9 3.5t-9 -3.5t-4 -9
t4 -9.5t9 -4z" />
  </g>

</svg>
