<?xml version="1.0" standalone="no"?>
<!DOCTYPE svg PUBLIC "-//W3C//DTD SVG 1.1//EN" "http://www.w3.org/Graphics/SVG/1.1/DTD/svg11.dtd" >
<svg xmlns="http://www.w3.org/2000/svg" xmlns:xlink="http://www.w3.org/1999/xlink" version="1.1" viewBox="-10 0 522 512">
  <g transform="matrix(1 0 0 -1 0 448)">
   <path fill="currentColor"
d="M256 448q72 0 123.5 -51.5t51.5 -123.5q0 -78 -59 -131q-39 -35 -43 -87h-52v69q0 47 11.5 66t40.5 19q8 0 8 8.5t-8 8.5q-68 0 -69 -94h-17q-1 94 -68 94q-9 0 -9 -8.5t9 -8.5q28 0 39.5 -19t11.5 -66v-69h-51q0 54 -40 92q-62 60 -53 146q7 60 50.5 103.5t103.5 50.5
q10 1 20 1zM361 256q5 7 -2.5 11.5t-11.5 -2.5q-8 -13 -18.5 -13t-18.5 13l-1 1l-1 1l-1 1h-1q-1 1 -1.5 1h-1.5t-1.5 -0.5t-1.5 -0.5h-1h-1v-1l-1 -1l-1 -1q-8 -13 -18.5 -13t-18.5 13l-1 1t-2 1v1h-1q-1 1 -1.5 1h-2t-1.5 -0.5t-2 -0.5h-1v-1l-1 -1l-1 -1h-1
q-8 -13 -18 -13t-18 13q-1 0 -2 1l-1 1v1h-1q-1 1 -1.5 1h-2t-2 -0.5t-1.5 -0.5h-1v-1l-1 -1t-2 -1q-8 -13 -18 -13t-18 13q-5 7 -12 2.5t-3 -11.5q13 -21 33 -21q14 0 26 11q11 -11 25 -11t26 11q11 -11 25.5 -11t25.5 11q11 -11 26 -11q19 0 32 21zM226 38h51h52v-17h-154
v17h51zM243 55v60h17v-60h-17zM175 -30v34h154v-34h-22l-25 -34h-60l-26 34h-21zM273 -47l13 17h-68l12 -17h43z" />
  </g>

</svg>
