<?xml version="1.0" standalone="no"?>
<!DOCTYPE svg PUBLIC "-//W3C//DTD SVG 1.1//EN" "http://www.w3.org/Graphics/SVG/1.1/DTD/svg11.dtd" >
<svg xmlns="http://www.w3.org/2000/svg" xmlns:xlink="http://www.w3.org/1999/xlink" version="1.1" viewBox="-10 0 532 512">
  <g transform="matrix(1 0 0 -1 0 448)">
   <path fill="currentColor"
d="M495 233q17 -5 17 -22v-42q0 -9 -6 -14q6 -9 6 -18q0 -13 -9 -22q9 -9 9 -21t-9 -21t-21 -9h-4v-34q0 -9 -9 -9h-25q-6 0 -8 6l-15 37h-330l-15 -37q-2 -6 -8 -6h-25q-9 0 -9 9v34h-4q-12 0 -21 9t-9 21t9 21q-9 9 -9 22q0 9 6 18q-6 5 -6 14v42q0 17 17 22v92q0 10 6 20
l31 -31q2 -3 5.5 -3t6.5 3q6 6 0 12l-31 31q9 6 20 6h172q5 0 10 -2l7 -7l-28 -28q-6 -6 0 -12q2 -3 5.5 -3t6.5 3l19 20v-156l-19 20q-6 6 -12 0t0 -12l28 -28l-9 -9h-8h-122h-75q-5 0 -9 -3.5t-4 -9t4 -9t9 -3.5h452q5 0 9 3.5t4 9t-4 9t-9 3.5h-75h-122h-8l-9 9l28 28
q6 6 0 12t-12 0l-19 -20v156l19 -20q3 -3 6.5 -3t5.5 3q6 6 0 12l-28 28l7 7q5 2 10 2h172q11 0 20 -6l-31 -31q-6 -6 0 -12q3 -3 6.5 -3t5.5 3l31 31q6 -10 6 -20v-92zM399 258l-11 11l11 11q6 6 0 12t-13 0l-11 -11l-11 11q-6 6 -12 0t0 -12l11 -11l-11 -11q-6 -6 0 -12
q3 -3 6.5 -3t5.5 3l11 11l11 -11q3 -3 6.5 -3t6.5 3q6 6 0 12zM113 280l11 -11l-11 -11q-6 -6 0 -12q3 -3 6.5 -3t6.5 3l11 11l11 -11q2 -3 5.5 -3t6.5 3q6 6 0 12l-11 11l11 11q6 6 0 12t-12 0l-11 -11l-11 11q-7 6 -13 0t0 -12zM17 211v-42q0 -3 2 -3h11h72v1.5v0.5v2.5
t-0.5 3t-0.5 2.5t-0.5 2.5t-1 2.5t-0.5 2q-1 1 -1 2q-1 1 -1.5 2.5t-1 2.5t-1.5 2.5t-1.5 2t-1.5 2l-1 1.5q-1 1 -2 2.5t-1.5 2t-2 1.5t-2.5 2l-2 1l-0.5 0.5l-1.5 1.5q-1 0 -2.5 1l-1.5 1q-1 1 -3 1q0 1 -1 1t-1 0.5t-3 0.5q0 1 -0.5 1h-1t-3.5 1h-1t-1 1h-3h-1.5h-0.5
q-3 1 -6 1h-24q-7 0 -7 -7zM495 169v42q0 7 -7 7h-24q-3 0 -6 -1h-0.5h-1.5h-3q0 -1 -1 -1h-1q-2 -1 -3 -1h-1.5t-0.5 -1q-2 0 -3 -1h-1t-1 -1q-2 0 -3 -1l-2 -1t-2.5 -1.5l-1.5 -1.5l-2 -1q0 -1 -2 -2t-2 -1.5t-1.5 -2l-2 -2t-1.5 -2t-1.5 -2t-1.5 -2t-1.5 -2.5l-1 -2
t-1 -2.5t-1.5 -2.5q0 -1 -0.5 -2t-1 -2.5t-0.5 -2.5t-1 -3v-3v-2v-0.5v-1.5h72h11q2 0 2 3z" />
  </g>

</svg>
