<?xml version="1.0" encoding="utf-8"?>
<!-- Generator: Adobe Illustrator 25.2.2, SVG Export Plug-In . SVG Version: 6.00 Build 0)  -->
<svg version="1.1" id="Layer_1" xmlns="http://www.w3.org/2000/svg" xmlns:xlink="http://www.w3.org/1999/xlink" x="0px" y="0px"
	 viewBox="0 0 900 600" style="enable-background:new 0 0 900 600;" xml:space="preserve">
<style type="text/css">
	.st0{clip-path:url(#SVGID_2_);}
	.st1{clip-path:url(#SVGID_4_);fill:none;stroke:#000000;stroke-width:1.7341;stroke-miterlimit:10;}
	.st2{clip-path:url(#SVGID_4_);}
	.st3{clip-path:url(#SVGID_4_);fill:#010101;}
</style>
<g id="Artwork_3_1_">
	<g>
		<defs>
			<rect id="SVGID_1_" x="200" y="75.8" width="500" height="448.5"/>
		</defs>
		<clipPath id="SVGID_2_">
			<use xlink:href="#SVGID_1_"  style="overflow:visible;"/>
		</clipPath>
		<g class="st0">
			<defs>
				<rect id="SVGID_3_" x="200" y="75.8" width="500" height="448.5"/>
			</defs>
			<clipPath id="SVGID_4_">
				<use xlink:href="#SVGID_3_"  style="overflow:visible;"/>
			</clipPath>
			<path class="st1" d="M301.8,523.4h294.6c2.3,0,4.4-0.9,6-2.5l94.1-92c1.7-1.6,2.6-3.9,2.6-6.2V249.8c-0.2-2.7-0.5-5.4-0.7-8.1
				l-26.6-158c-0.8-4.1-4.3-7.1-8.5-7.1H237.2c-4.2,0-7.7,3-8.5,7.1l-27.1,158c-0.2,2.3-0.5,5.8-0.7,8.1v173c0,2.3,0.9,4.5,2.5,6.1
				l92.3,91.9C297.3,522.5,299.5,523.4,301.8,523.4z"/>
			<path class="st2" d="M541.6,496.8c-13.2,0-23.9-10.7-23.9-23.9c0-13.2,10.7-23.9,23.9-23.9c13.2,0,23.9,10.7,23.9,23.9
				C565.4,486.1,554.7,496.8,541.6,496.8 M541.6,452.3c-11.4,0-20.7,9.3-20.7,20.7c0,11.4,9.3,20.7,20.7,20.7
				c11.4,0,20.7-9.3,20.7-20.7C562.2,461.5,553,452.3,541.6,452.3"/>
			<polygon class="st2" points="548.5,480.7 548.5,484.1 535.8,484.1 535.8,462.4 539.9,462.4 539.9,480.7 			"/>
			<path class="st2" d="M366.5,483.3c-2.3,0-4.6-1.7-7-5c-1.6-2.3-2.6-4.5-2.7-4.6l0,0c-1.3-3-4.4-7.9-7-7.9c-1.3,0-3,1.3-4.7,3.8
				c-1.4,2-2.3,4.1-2.3,4.1c-0.3,0.7-1.1,1-1.9,0.7c-0.7-0.3-1-1.1-0.7-1.8c0.4-1,4.3-9.6,9.6-9.6c5.3,0,9.1,8.5,9.5,9.6
				c1.2,2.6,4.4,7.9,7.1,7.9s5.9-5.3,7.1-7.9c0.3-0.7,1.2-1,1.9-0.7c0.7,0.3,1,1.2,0.7,1.9c0,0.1-1.1,2.3-2.7,4.6
				C371.1,481.6,368.8,483.3,366.5,483.3"/>
			<polygon class="st2" points="359.7,466 370.3,463.7 365.1,473.2 363.1,470.5 348.5,481.3 347.2,479.5 361.8,468.8 			"/>
			<path class="st2" d="M480.7,497.1c-13.2,0-23.9-10.7-23.9-23.9c0-13.2,10.7-23.9,23.9-23.9c13.2,0,23.9,10.7,23.9,23.9
				C504.6,486.4,493.9,497.1,480.7,497.1 M480.7,452.6c-11.4,0-20.7,9.3-20.7,20.7c0,11.4,9.3,20.7,20.7,20.7
				c11.4,0,20.7-9.3,20.7-20.7C501.4,461.8,492.1,452.6,480.7,452.6"/>
			<path class="st2" d="M419.8,496.9c-13.2,0-23.9-10.7-23.9-23.9c0-13.2,10.7-23.9,23.9-23.9c13.2,0,23.9,10.7,23.9,23.9
				C443.7,486.2,433,496.9,419.8,496.9 M419.8,452.4c-11.4,0-20.7,9.3-20.7,20.7s9.3,20.7,20.7,20.7c11.4,0,20.7-9.3,20.7-20.7
				S431.2,452.4,419.8,452.4"/>
			<path class="st2" d="M358.2,497.2c-13.2,0-23.9-10.7-23.9-23.9c0-13.2,10.7-23.9,23.9-23.9c13.2,0,23.9,10.7,23.9,23.9
				C382,486.5,371.3,497.2,358.2,497.2 M358.2,452.7c-11.4,0-20.7,9.3-20.7,20.7s9.3,20.7,20.7,20.7s20.7-9.3,20.7-20.7
				S369.6,452.7,358.2,452.7"/>
			<path class="st2" d="M489.9,462.5V484h-2.1c-0.3,0-0.6-0.1-0.8-0.2c-0.2-0.1-0.4-0.3-0.6-0.5L474.9,469c0.1,0.7,0.1,1.3,0.1,1.8
				V484h-3.6v-21.5h2.1c0.2,0,0.3,0,0.4,0c0.1,0,0.2,0,0.3,0.1c0.1,0,0.2,0.1,0.3,0.2c0.1,0.1,0.2,0.2,0.3,0.3l11.5,14.4
				c0-0.3-0.1-0.7-0.1-1c0-0.3,0-0.6,0-0.9v-13.1H489.9z"/>
			<path class="st2" d="M429.1,462.6v21.5H427c-0.3,0-0.6-0.1-0.8-0.2c-0.2-0.1-0.4-0.3-0.6-0.5l-11.4-14.3c0.1,0.7,0.1,1.3,0.1,1.8
				v13.2h-3.6v-21.5h2.1c0.2,0,0.3,0,0.4,0c0.1,0,0.2,0,0.3,0.1c0.1,0,0.2,0.1,0.3,0.2c0.1,0.1,0.2,0.2,0.3,0.3l11.5,14.4
				c0-0.4-0.1-0.7-0.1-1c0-0.3,0-0.6,0-0.9v-13.1H429.1z"/>
			<path class="st2" d="M346.7,431.5c0.9,0,1.7,0.1,2.5,0.4c0.7,0.3,1.4,0.7,1.9,1.3c0.5,0.5,0.9,1.2,1.2,2c0.3,0.8,0.4,1.7,0.4,2.6
				c0,1-0.1,1.9-0.4,2.6c-0.3,0.8-0.7,1.5-1.2,2c-0.5,0.6-1.2,1-1.9,1.3c-0.7,0.3-1.6,0.4-2.5,0.4c-0.9,0-1.8-0.1-2.5-0.4
				c-0.7-0.3-1.4-0.7-1.9-1.3c-0.5-0.6-0.9-1.2-1.2-2c-0.3-0.8-0.4-1.7-0.4-2.6c0-1,0.1-1.8,0.4-2.6c0.3-0.8,0.7-1.4,1.2-2
				c0.5-0.5,1.2-1,1.9-1.3C345,431.6,345.8,431.5,346.7,431.5 M346.7,441.9c1,0,1.8-0.3,2.3-1c0.5-0.7,0.7-1.7,0.7-3
				c0-1.3-0.2-2.3-0.7-3c-0.5-0.7-1.3-1-2.3-1c-1,0-1.8,0.4-2.3,1.1c-0.5,0.7-0.7,1.7-0.7,3c0,1.3,0.2,2.3,0.7,3
				C344.9,441.6,345.7,441.9,346.7,441.9"/>
			<path class="st2" d="M365.7,431.7V444h-1.8c-0.4,0-0.6-0.2-0.7-0.5l-0.2-1c-0.5,0.5-1.1,0.9-1.7,1.2c-0.6,0.3-1.3,0.5-2.2,0.5
				c-0.7,0-1.3-0.1-1.8-0.3c-0.5-0.2-1-0.6-1.3-1c-0.4-0.4-0.6-0.9-0.8-1.5c-0.2-0.6-0.3-1.2-0.3-1.9v-7.8h3v7.8
				c0,0.8,0.2,1.3,0.5,1.7c0.3,0.4,0.9,0.6,1.6,0.6c0.5,0,1-0.1,1.4-0.3c0.4-0.2,0.9-0.5,1.3-0.9v-8.9H365.7z"/>
			<path class="st2" d="M372.7,444.2c-1.1,0-1.9-0.3-2.5-0.9c-0.6-0.6-0.9-1.4-0.9-2.5v-6.9h-1.3c-0.2,0-0.3,0-0.4-0.2
				c-0.1-0.1-0.2-0.3-0.2-0.5v-1.2l2-0.3l0.6-3.4c0-0.2,0.1-0.3,0.2-0.4c0.1-0.1,0.3-0.1,0.4-0.1h1.5v3.9h3.3v2.1h-3.3v6.7
				c0,0.4,0.1,0.7,0.3,0.9c0.2,0.2,0.4,0.3,0.8,0.3c0.2,0,0.3,0,0.5-0.1c0.1,0,0.2-0.1,0.3-0.1c0.1,0,0.2-0.1,0.2-0.1
				c0.1,0,0.1-0.1,0.2-0.1c0.1,0,0.2,0,0.2,0.1c0.1,0,0.1,0.1,0.2,0.2l0.9,1.4c-0.4,0.4-0.9,0.6-1.5,0.8
				C373.9,444.1,373.3,444.2,372.7,444.2"/>
			<path class="st2" d="M476,428.3c0,0.3-0.1,0.5-0.2,0.7c-0.1,0.2-0.2,0.4-0.4,0.6c-0.2,0.2-0.4,0.3-0.6,0.4
				c-0.2,0.1-0.5,0.1-0.7,0.1c-0.3,0-0.5-0.1-0.7-0.1c-0.2-0.1-0.4-0.2-0.6-0.4c-0.2-0.2-0.3-0.4-0.4-0.6c-0.1-0.2-0.2-0.5-0.2-0.7
				c0-0.3,0.1-0.5,0.2-0.7c0.1-0.2,0.2-0.4,0.4-0.6c0.2-0.2,0.4-0.3,0.6-0.4c0.2-0.1,0.5-0.2,0.7-0.2c0.3,0,0.5,0,0.7,0.2
				c0.2,0.1,0.4,0.2,0.6,0.4c0.2,0.2,0.3,0.4,0.4,0.6C476,427.8,476,428,476,428.3 M475.6,444.2h-3v-12.3h3V444.2z"/>
			<path class="st2" d="M481.4,433.4c0.2-0.2,0.5-0.5,0.8-0.7c0.3-0.2,0.6-0.4,0.9-0.5c0.3-0.1,0.6-0.3,1-0.3
				c0.4-0.1,0.7-0.1,1.2-0.1c0.7,0,1.3,0.1,1.8,0.3c0.5,0.2,1,0.5,1.3,1c0.4,0.4,0.6,0.9,0.8,1.5c0.2,0.6,0.3,1.2,0.3,1.9v7.8h-3
				v-7.8c0-0.7-0.2-1.3-0.5-1.7c-0.3-0.4-0.9-0.6-1.6-0.6c-0.5,0-1,0.1-1.4,0.3s-0.9,0.6-1.3,1v8.9h-3v-12.3h1.8
				c0.4,0,0.6,0.2,0.8,0.5L481.4,433.4z"/>
			<path class="st2" d="M408.3,431.5c0.9,0,1.7,0.1,2.5,0.4c0.7,0.3,1.4,0.7,1.9,1.3c0.5,0.5,0.9,1.2,1.2,2c0.3,0.8,0.4,1.7,0.4,2.6
				c0,1-0.1,1.9-0.4,2.6c-0.3,0.8-0.7,1.5-1.2,2c-0.5,0.6-1.2,1-1.9,1.3c-0.7,0.3-1.6,0.4-2.5,0.4c-0.9,0-1.8-0.1-2.5-0.4
				c-0.7-0.3-1.4-0.7-1.9-1.3c-0.5-0.6-0.9-1.2-1.2-2c-0.3-0.8-0.4-1.7-0.4-2.6c0-1,0.1-1.8,0.4-2.6c0.3-0.8,0.7-1.4,1.2-2
				c0.5-0.5,1.2-1,1.9-1.3C406.6,431.6,407.4,431.5,408.3,431.5 M408.3,441.9c1,0,1.8-0.3,2.3-1c0.5-0.7,0.7-1.7,0.7-3
				c0-1.3-0.2-2.3-0.7-3c-0.5-0.7-1.3-1-2.3-1c-1,0-1.8,0.4-2.3,1.1c-0.5,0.7-0.7,1.7-0.7,3c0,1.3,0.2,2.3,0.7,3
				C406.5,441.6,407.3,441.9,408.3,441.9"/>
			<path class="st2" d="M427.3,431.7V444h-1.8c-0.4,0-0.6-0.2-0.7-0.5l-0.2-1c-0.5,0.5-1.1,0.9-1.7,1.2c-0.6,0.3-1.3,0.5-2.2,0.5
				c-0.7,0-1.3-0.1-1.8-0.3c-0.5-0.2-1-0.6-1.3-1c-0.4-0.4-0.6-0.9-0.8-1.5c-0.2-0.6-0.3-1.2-0.3-1.9v-7.8h3v7.8
				c0,0.8,0.2,1.3,0.5,1.7c0.3,0.4,0.9,0.6,1.6,0.6c0.5,0,1-0.1,1.4-0.3c0.4-0.2,0.9-0.5,1.3-0.9v-8.9H427.3z"/>
			<path class="st2" d="M434.3,444.2c-1.1,0-1.9-0.3-2.5-0.9c-0.6-0.6-0.9-1.4-0.9-2.5v-6.9h-1.3c-0.2,0-0.3,0-0.4-0.2
				c-0.1-0.1-0.2-0.3-0.2-0.5v-1.2l2-0.3l0.6-3.4c0-0.2,0.1-0.3,0.2-0.4c0.1-0.1,0.3-0.1,0.4-0.1h1.5v3.9h3.3v2.1H434v6.7
				c0,0.4,0.1,0.7,0.3,0.9c0.2,0.2,0.4,0.3,0.8,0.3c0.2,0,0.3,0,0.5-0.1c0.1,0,0.2-0.1,0.3-0.1c0.1,0,0.2-0.1,0.2-0.1
				c0.1,0,0.1-0.1,0.2-0.1c0.1,0,0.2,0,0.2,0.1c0.1,0,0.1,0.1,0.2,0.2l0.9,1.4c-0.4,0.4-0.9,0.6-1.5,0.8
				C435.5,444.1,434.9,444.2,434.3,444.2"/>
			<path class="st2" d="M537,428.3c0,0.3-0.1,0.5-0.2,0.7c-0.1,0.2-0.2,0.4-0.4,0.6c-0.2,0.2-0.4,0.3-0.6,0.4
				c-0.2,0.1-0.5,0.1-0.7,0.1c-0.3,0-0.5-0.1-0.7-0.1c-0.2-0.1-0.4-0.2-0.6-0.4c-0.2-0.2-0.3-0.4-0.4-0.6c-0.1-0.2-0.2-0.5-0.2-0.7
				c0-0.3,0.1-0.5,0.2-0.7c0.1-0.2,0.2-0.4,0.4-0.6c0.2-0.2,0.4-0.3,0.6-0.4c0.2-0.1,0.5-0.2,0.7-0.2c0.3,0,0.5,0,0.7,0.2
				c0.2,0.1,0.4,0.2,0.6,0.4c0.2,0.2,0.3,0.4,0.4,0.6C537,427.8,537,428,537,428.3 M536.6,444.2h-3v-12.3h3V444.2z"/>
			<path class="st2" d="M542.4,433.4c0.2-0.2,0.5-0.5,0.8-0.7c0.3-0.2,0.6-0.4,0.9-0.5c0.3-0.1,0.6-0.3,1-0.3
				c0.4-0.1,0.7-0.1,1.2-0.1c0.7,0,1.3,0.1,1.8,0.3c0.5,0.2,1,0.5,1.3,1c0.4,0.4,0.6,0.9,0.8,1.5c0.2,0.6,0.3,1.2,0.3,1.9v7.8h-3
				v-7.8c0-0.7-0.2-1.3-0.5-1.7c-0.3-0.4-0.9-0.6-1.6-0.6c-0.5,0-1,0.1-1.4,0.3c-0.4,0.2-0.9,0.6-1.3,1v8.9h-3v-12.3h1.8
				c0.4,0,0.6,0.2,0.8,0.5L542.4,433.4z"/>
			<path class="st3" d="M531,179.9c-11.5,0-20.8,9.4-20.8,21c0,5.5,2.1,10.5,5.5,14.2l-17.4,30.9c-1.3-0.3-2.8-0.4-4.2-0.4
				c-1.2,0-2.4,0.1-3.6,0.3L464.4,192c3.8-3.8,6.2-9.1,6.2-14.9c0-11.6-9.3-21-20.8-21c-11.5,0-20.8,9.4-20.8,21
				c0,5.9,2.4,11.1,6.2,14.9l-25.8,53.7c-1-0.2-2.1-0.3-3.2-0.3c-1.7,0-3.4,0.2-5,0.6l-17.3-31c3.4-3.7,5.5-8.7,5.5-14.2
				c0-11.6-9.3-21-20.8-21s-20.8,9.4-20.8,21c0,11.6,9.3,21,20.8,21c1.4,0,2.8-0.1,4.2-0.4l17.6,31.5c-3.1,3.6-4.9,8.4-4.9,13.6
				c0,11.6,9.3,21,20.8,21c9.4,0,17.3-6.3,19.9-14.9h48.1c2.6,8.6,10.5,14.9,19.9,14.9c11.5,0,20.8-9.4,20.8-21
				c0-5.5-2.1-10.5-5.5-14.2l17.4-30.9c1.4,0.3,2.8,0.4,4.2,0.4c11.5,0,20.8-9.4,20.8-21C551.8,189.2,542.4,179.9,531,179.9
				 M446.6,197.9c1,0.2,2.1,0.3,3.2,0.3c1.1,0,2.2-0.1,3.3-0.3l26.2,54c-2.1,2.2-3.8,4.9-4.8,7.9h-48.5c-1-3.1-2.8-5.9-5.1-8.2
				L446.6,197.9z"/>
			<path class="st3" d="M311.4,341.7c0.2,0,0.4,0.1,0.6,0.3l1.6,1.7c-1,1.2-2.2,2.1-3.7,2.8c-1.4,0.6-3.2,1-5.2,1
				c-1.8,0-3.4-0.3-4.9-0.9c-1.4-0.6-2.7-1.5-3.7-2.6c-1-1.1-1.8-2.4-2.3-4c-0.6-1.5-0.8-3.2-0.8-5.1c0-1.8,0.3-3.5,0.9-5.1
				c0.6-1.5,1.4-2.9,2.5-4c1.1-1.1,2.3-2,3.8-2.6c1.5-0.6,3.1-0.9,4.9-0.9c1.8,0,3.3,0.3,4.7,0.9c1.4,0.6,2.6,1.3,3.5,2.3l-1.3,1.9
				c-0.1,0.1-0.2,0.2-0.3,0.3c-0.1,0.1-0.3,0.1-0.5,0.1c-0.2,0-0.5-0.1-0.8-0.3c-0.3-0.2-0.6-0.4-1.1-0.7c-0.5-0.3-1-0.5-1.7-0.7
				c-0.7-0.2-1.5-0.3-2.5-0.3c-1.1,0-2.3,0.2-3.2,0.6c-1,0.4-1.8,1-2.5,1.8c-0.7,0.8-1.2,1.7-1.7,2.9c-0.4,1.1-0.6,2.4-0.6,3.8
				c0,1.4,0.2,2.7,0.6,3.9c0.4,1.2,1,2.1,1.7,2.9c0.7,0.8,1.6,1.4,2.5,1.8c0.9,0.4,2,0.6,3.1,0.6c0.7,0,1.3,0,1.8-0.1
				c0.6-0.1,1-0.2,1.5-0.3c0.5-0.2,0.9-0.4,1.3-0.6c0.4-0.3,0.8-0.6,1.2-0.9C311,341.9,311.2,341.7,311.4,341.7"/>
			<path class="st3" d="M343.9,347.2h-3.6c-0.7,0-1.2-0.3-1.5-0.8l-5.7-8.3c-0.2-0.3-0.4-0.5-0.6-0.6c-0.2-0.1-0.6-0.2-1-0.2h-2.2
				v9.9h-4v-24.5h7.2c1.6,0,3,0.2,4.2,0.5c1.1,0.3,2.1,0.8,2.9,1.4c0.8,0.6,1.3,1.3,1.7,2.2c0.3,0.8,0.6,1.8,0.6,2.9
				c0,0.9-0.1,1.7-0.4,2.4c-0.3,0.7-0.6,1.4-1.1,2c-0.5,0.6-1.1,1.1-1.8,1.6c-0.7,0.5-1.5,0.8-2.4,1c0.5,0.3,0.9,0.7,1.3,1.2
				L343.9,347.2z M332.3,334.5c0.9,0,1.7-0.1,2.4-0.3c0.7-0.2,1.2-0.5,1.7-0.9c0.5-0.4,0.8-0.9,1-1.4c0.2-0.6,0.3-1.2,0.3-1.8
				c0-1.3-0.4-2.3-1.3-3.1c-0.9-0.7-2.2-1.1-4-1.1h-3.2v8.6H332.3z"/>
			<path class="st3" d="M377.8,335c0,1.8-0.3,3.5-0.9,5c-0.6,1.5-1.4,2.9-2.5,4c-1.1,1.1-2.3,2-3.9,2.6c-1.5,0.6-3.2,0.9-5,0.9
				c-1.8,0-3.5-0.3-5-0.9c-1.5-0.6-2.8-1.5-3.9-2.6c-1.1-1.1-1.9-2.4-2.5-4c-0.6-1.5-0.9-3.2-0.9-5c0-1.8,0.3-3.5,0.9-5
				c0.6-1.5,1.4-2.9,2.5-4c1.1-1.1,2.4-2,3.9-2.6c1.5-0.6,3.1-0.9,5-0.9c1.8,0,3.5,0.3,5,0.9c1.5,0.6,2.8,1.5,3.9,2.6
				c1.1,1.1,1.9,2.4,2.5,4C377.5,331.5,377.8,333.1,377.8,335 M373.7,335c0-1.4-0.2-2.7-0.6-3.8c-0.4-1.1-0.9-2.1-1.6-2.9
				c-0.7-0.8-1.6-1.4-2.6-1.8c-1-0.4-2.1-0.6-3.4-0.6c-1.2,0-2.4,0.2-3.4,0.6c-1,0.4-1.9,1-2.6,1.8c-0.7,0.8-1.3,1.7-1.7,2.9
				c-0.4,1.1-0.6,2.4-0.6,3.8s0.2,2.7,0.6,3.8c0.4,1.1,0.9,2.1,1.7,2.9c0.7,0.8,1.6,1.4,2.6,1.8c1,0.4,2.1,0.6,3.4,0.6
				c1.3,0,2.4-0.2,3.4-0.6c1-0.4,1.9-1,2.6-1.8c0.7-0.8,1.2-1.7,1.6-2.9C373.5,337.6,373.7,336.4,373.7,335"/>
			<path class="st3" d="M422.2,322.7l-7.6,24.5H411l-5.8-17.6c-0.1-0.2-0.1-0.4-0.2-0.6c0-0.2-0.1-0.5-0.2-0.7
				c0,0.3-0.1,0.5-0.2,0.7c0,0.2-0.1,0.4-0.2,0.6l-5.8,17.6h-3.6l-7.6-24.5h3.3c0.3,0,0.6,0.1,0.8,0.3c0.2,0.2,0.4,0.4,0.5,0.7
				l4.6,15.7c0.1,0.3,0.2,0.7,0.3,1.1c0.1,0.4,0.2,0.8,0.3,1.2c0.1-0.4,0.2-0.9,0.3-1.2c0.1-0.4,0.2-0.8,0.3-1.1l5.3-15.7
				c0.1-0.2,0.3-0.4,0.5-0.6c0.3-0.2,0.5-0.3,0.8-0.3h1.2c0.3,0,0.6,0.1,0.9,0.3c0.2,0.2,0.4,0.4,0.5,0.6l5.2,15.7
				c0.1,0.3,0.2,0.7,0.3,1.1c0.1,0.4,0.2,0.8,0.3,1.2c0.1-0.4,0.2-0.8,0.2-1.2c0-0.4,0.2-0.7,0.3-1.1l4.6-15.7
				c0.1-0.3,0.2-0.5,0.5-0.6c0.3-0.2,0.5-0.3,0.9-0.3H422.2z"/>
			<path class="st3" d="M453.9,322.7v24.5h-2c-0.3,0-0.6,0-0.8-0.2c-0.2-0.1-0.4-0.3-0.6-0.6l-13.5-17.3c0,0.3,0,0.6,0.1,1
				c0,0.3,0,0.6,0,0.9v16.1h-3.5v-24.5h2.1c0.2,0,0.3,0,0.4,0c0.1,0,0.2,0,0.3,0.1c0.1,0,0.2,0.1,0.3,0.2c0.1,0.1,0.2,0.2,0.3,0.3
				l13.5,17.3c0-0.3,0-0.7-0.1-1c0-0.3,0-0.6,0-0.9v-16L453.9,322.7L453.9,322.7z"/>
			<path class="st3" d="M480.8,326.9c-0.1,0.2-0.3,0.3-0.4,0.5c-0.1,0.1-0.3,0.1-0.5,0.1c-0.2,0-0.5-0.1-0.7-0.3
				c-0.3-0.2-0.6-0.4-1-0.6c-0.4-0.2-0.8-0.4-1.4-0.6c-0.6-0.2-1.2-0.3-1.9-0.3c-0.7,0-1.3,0.1-1.8,0.3c-0.5,0.2-0.9,0.4-1.3,0.7
				c-0.3,0.3-0.6,0.7-0.8,1.1c-0.2,0.4-0.3,0.9-0.3,1.4c0,0.6,0.2,1.2,0.5,1.6c0.3,0.4,0.8,0.8,1.3,1.1c0.6,0.3,1.2,0.6,1.8,0.8
				c0.7,0.2,1.4,0.5,2.1,0.7c0.7,0.3,1.4,0.6,2.1,0.9c0.7,0.3,1.3,0.7,1.8,1.2c0.5,0.5,1,1.1,1.3,1.8c0.3,0.7,0.5,1.6,0.5,2.6
				c0,1.1-0.2,2.1-0.6,3.1c-0.4,0.9-0.9,1.8-1.6,2.5c-0.7,0.7-1.6,1.3-2.6,1.7c-1,0.4-2.2,0.6-3.5,0.6c-0.8,0-1.5-0.1-2.3-0.2
				c-0.7-0.2-1.4-0.4-2.1-0.6c-0.7-0.3-1.3-0.6-1.9-1c-0.6-0.4-1.1-0.9-1.6-1.3l1.2-1.9c0.1-0.2,0.2-0.3,0.4-0.4
				c0.2-0.1,0.3-0.1,0.5-0.1c0.3,0,0.6,0.1,0.9,0.4c0.3,0.3,0.7,0.5,1.1,0.8c0.5,0.3,1,0.6,1.6,0.8c0.6,0.3,1.4,0.4,2.3,0.4
				c1.4,0,2.6-0.3,3.4-1.1c0.8-0.7,1.2-1.7,1.2-2.9c0-0.7-0.2-1.3-0.5-1.7c-0.3-0.4-0.8-0.8-1.3-1.1c-0.6-0.3-1.2-0.6-1.8-0.8
				c-0.7-0.2-1.4-0.4-2.1-0.6c-0.7-0.2-1.4-0.5-2.1-0.8c-0.7-0.3-1.3-0.7-1.8-1.2c-0.6-0.5-1-1.2-1.3-1.9c-0.3-0.7-0.5-1.7-0.5-2.8
				c0-0.9,0.2-1.7,0.5-2.6c0.3-0.8,0.9-1.6,1.5-2.2c0.7-0.6,1.5-1.1,2.5-1.5c1-0.4,2.1-0.6,3.3-0.6c1.4,0,2.7,0.2,3.9,0.7
				c1.2,0.4,2.2,1.1,3,1.9L480.8,326.9z"/>
			<polygon class="st3" points="511.6,326 504,326 504,347.2 500,347.2 500,326 492.3,326 492.3,322.7 511.6,322.7 			"/>
			<path class="st3" d="M545.3,335c0,1.8-0.3,3.5-0.9,5c-0.6,1.5-1.4,2.9-2.5,4c-1.1,1.1-2.3,2-3.9,2.6c-1.5,0.6-3.2,0.9-5,0.9
				s-3.5-0.3-5-0.9c-1.5-0.6-2.8-1.5-3.9-2.6c-1.1-1.1-1.9-2.4-2.5-4c-0.6-1.5-0.9-3.2-0.9-5c0-1.8,0.3-3.5,0.9-5
				c0.6-1.5,1.4-2.9,2.5-4c1.1-1.1,2.4-2,3.9-2.6c1.5-0.6,3.2-0.9,5-0.9s3.5,0.3,5,0.9c1.5,0.6,2.8,1.5,3.9,2.6
				c1.1,1.1,1.9,2.4,2.5,4C545,331.5,545.3,333.1,545.3,335 M541.2,335c0-1.4-0.2-2.7-0.6-3.8c-0.4-1.1-0.9-2.1-1.6-2.9
				c-0.7-0.8-1.6-1.4-2.6-1.8c-1-0.4-2.1-0.6-3.4-0.6c-1.2,0-2.4,0.2-3.4,0.6c-1,0.4-1.9,1-2.6,1.8c-0.7,0.8-1.3,1.7-1.7,2.9
				c-0.4,1.1-0.6,2.4-0.6,3.8s0.2,2.7,0.6,3.8c0.4,1.1,0.9,2.1,1.7,2.9c0.7,0.8,1.6,1.4,2.6,1.8c1,0.4,2.1,0.6,3.4,0.6
				c1.3,0,2.4-0.2,3.4-0.6c1-0.4,1.9-1,2.6-1.8c0.7-0.8,1.2-1.7,1.6-2.9C541.1,337.6,541.2,336.4,541.2,335"/>
			<path class="st3" d="M578.2,322.7v24.5h-2c-0.3,0-0.6,0-0.8-0.2c-0.2-0.1-0.4-0.3-0.6-0.6l-13.5-17.3c0,0.3,0,0.6,0.1,1
				c0,0.3,0,0.6,0,0.9v16.1h-3.5v-24.5h2.1c0.2,0,0.3,0,0.4,0c0.1,0,0.2,0,0.3,0.1c0.1,0,0.2,0.1,0.3,0.2c0.1,0.1,0.2,0.2,0.3,0.3
				l13.5,17.3c0-0.3,0-0.7-0.1-1c0-0.3,0-0.6,0-0.9v-16L578.2,322.7L578.2,322.7z"/>
			<polygon class="st3" points="607.5,344 607.5,347.2 592.2,347.2 592.2,322.7 607.5,322.7 607.5,325.9 596.2,325.9 596.2,333.3 
				605.3,333.3 605.3,336.4 596.2,336.4 596.2,344 			"/>
		</g>
	</g>
</g>
</svg>
